<?xml version="1.0" encoding="UTF-8" standalone="no"?>
<!DOCTYPE svg PUBLIC "-//W3C//DTD SVG 1.1//EN"
 "http://www.w3.org/Graphics/SVG/1.1/DTD/svg11.dtd">
<!-- Generated by graphviz version 2.43.0 (0)
 -->
<!-- Title: AmcMpsSfpCore Pages: 1 -->
<svg width="327pt" height="137pt"
 viewBox="0.00 0.00 326.50 137.00" xmlns="http://www.w3.org/2000/svg" xmlns:xlink="http://www.w3.org/1999/xlink">
<g id="graph0" class="graph" transform="scale(1 1) rotate(0) translate(4 133)">
<title>AmcMpsSfpCore</title>
<!-- Node1 -->
<g id="Node000001" class="node">
<title>Node1</title>
<g id="a_Node000001"><a xlink:title=" ">
<polygon fill="#999999" stroke="#666666" points="188.5,-74 91.5,-74 91.5,-55 188.5,-55 188.5,-74"/>
<text text-anchor="middle" x="140" y="-62" font-family="Helvetica,sans-Serif" font-size="10.00">AmcMpsSfpCore</text>
</a>
</g>
</g>
<!-- Node5 -->
<g id="Node000005" class="node">
<title>Node5</title>
<g id="a_Node000005"><a xlink:href="classAmcMpsSfpDualCore.html" target="_top" xlink:title=" ">
<polygon fill="white" stroke="#bfbfbf" points="199.5,-19 80.5,-19 80.5,0 199.5,0 199.5,-19"/>
<text text-anchor="middle" x="140" y="-7" font-family="Helvetica,sans-Serif" font-size="10.00">AmcMpsSfpDualCore</text>
</a>
</g>
</g>
<!-- Node1&#45;&gt;Node5 -->
<g id="edge4_Node000001_Node000005" class="edge">
<title>Node1&#45;&gt;Node5</title>
<g id="a_edge4_Node000001_Node000005"><a xlink:title=" ">
<path fill="none" stroke="#63b8ff" d="M140,-44.66C140,-35.93 140,-25.99 140,-19.09"/>
<polygon fill="#63b8ff" stroke="#63b8ff" points="136.5,-44.75 140,-54.75 143.5,-44.75 136.5,-44.75"/>
</a>
</g>
</g>
<!-- Node2 -->
<g id="Node000002" class="node">
<title>Node2</title>
<g id="a_Node000002"><a xlink:href="classSi5317a.html" target="_top" xlink:title=" ">
<polygon fill="white" stroke="#bfbfbf" points="56,-129 0,-129 0,-110 56,-110 56,-129"/>
<text text-anchor="middle" x="28" y="-117" font-family="Helvetica,sans-Serif" font-size="10.00">Si5317a</text>
</a>
</g>
</g>
<!-- Node2&#45;&gt;Node1 -->
<g id="edge1_Node000001_Node000002" class="edge">
<title>Node2&#45;&gt;Node1</title>
<g id="a_edge1_Node000001_Node000002"><a xlink:title=" ">
<path fill="none" stroke="#63b8ff" d="M55.19,-105.63C75.82,-95.87 103.62,-82.71 121.68,-74.17"/>
<polygon fill="#63b8ff" stroke="#63b8ff" points="53.54,-102.54 45.99,-109.98 56.53,-108.87 53.54,-102.54"/>
</a>
</g>
</g>
<!-- Node3 -->
<g id="Node000003" class="node">
<title>Node3</title>
<g id="a_Node000003"><a xlink:href="classAmcMpsSfpHsRepeater.html" target="_top" xlink:title=" ">
<polygon fill="white" stroke="#bfbfbf" points="205.5,-129 74.5,-129 74.5,-110 205.5,-110 205.5,-129"/>
<text text-anchor="middle" x="140" y="-117" font-family="Helvetica,sans-Serif" font-size="10.00">AmcMpsSfpHsRepeater</text>
</a>
</g>
</g>
<!-- Node3&#45;&gt;Node1 -->
<g id="edge2_Node000001_Node000003" class="edge">
<title>Node3&#45;&gt;Node1</title>
<g id="a_edge2_Node000001_Node000003"><a xlink:title=" ">
<path fill="none" stroke="#63b8ff" d="M140,-99.66C140,-90.93 140,-80.99 140,-74.09"/>
<polygon fill="#63b8ff" stroke="#63b8ff" points="136.5,-99.75 140,-109.75 143.5,-99.75 136.5,-99.75"/>
</a>
</g>
</g>
<!-- Node4 -->
<g id="Node000004" class="node">
<title>Node4</title>
<g id="a_Node000004"><a xlink:href="classAmcMpsSfpMon.html" target="_top" xlink:title=" ">
<polygon fill="white" stroke="#bfbfbf" points="318.5,-129 223.5,-129 223.5,-110 318.5,-110 318.5,-129"/>
<text text-anchor="middle" x="271" y="-117" font-family="Helvetica,sans-Serif" font-size="10.00">AmcMpsSfpMon</text>
</a>
</g>
</g>
<!-- Node4&#45;&gt;Node1 -->
<g id="edge3_Node000001_Node000004" class="edge">
<title>Node4&#45;&gt;Node1</title>
<g id="a_edge3_Node000001_Node000004"><a xlink:title=" ">
<path fill="none" stroke="#63b8ff" d="M240.5,-106.16C216.25,-96.35 182.93,-82.87 161.43,-74.17"/>
<polygon fill="#63b8ff" stroke="#63b8ff" points="239.37,-109.48 249.95,-109.98 242,-102.99 239.37,-109.48"/>
</a>
</g>
</g>
</g>
</svg>
