<?xml version="1.0" encoding="UTF-8" standalone="no"?>
<!DOCTYPE svg PUBLIC "-//W3C//DTD SVG 1.1//EN"
 "http://www.w3.org/Graphics/SVG/1.1/DTD/svg11.dtd">
<!-- Generated by graphviz version 2.43.0 (0)
 -->
<!-- Title: AppTopJesd204b Pages: 1 -->
<svg width="104pt" height="137pt"
 viewBox="0.00 0.00 104.00 137.00" xmlns="http://www.w3.org/2000/svg" xmlns:xlink="http://www.w3.org/1999/xlink">
<g id="graph0" class="graph" transform="scale(1 1) rotate(0) translate(4 133)">
<title>AppTopJesd204b</title>
<!-- Node1 -->
<g id="Node000001" class="node">
<title>Node1</title>
<g id="a_Node000001"><a xlink:title=" ">
<polygon fill="#999999" stroke="#666666" points="96,-129 0,-129 0,-110 96,-110 96,-129"/>
<text text-anchor="middle" x="48" y="-117" font-family="Helvetica,sans-Serif" font-size="10.00">AppTopJesd204b</text>
</a>
</g>
</g>
<!-- Node2 -->
<g id="Node000002" class="node">
<title>Node2</title>
<g id="a_Node000002"><a xlink:href="classAppTopJesd.html" target="_top" xlink:title=" ">
<polygon fill="white" stroke="#bfbfbf" points="84,-74 12,-74 12,-55 84,-55 84,-74"/>
<text text-anchor="middle" x="48" y="-62" font-family="Helvetica,sans-Serif" font-size="10.00">AppTopJesd</text>
</a>
</g>
</g>
<!-- Node1&#45;&gt;Node2 -->
<g id="edge1_Node000001_Node000002" class="edge">
<title>Node1&#45;&gt;Node2</title>
<g id="a_edge1_Node000001_Node000002"><a xlink:title=" ">
<path fill="none" stroke="#63b8ff" d="M48,-99.66C48,-90.93 48,-80.99 48,-74.09"/>
<polygon fill="#63b8ff" stroke="#63b8ff" points="44.5,-99.75 48,-109.75 51.5,-99.75 44.5,-99.75"/>
</a>
</g>
</g>
<!-- Node3 -->
<g id="Node000003" class="node">
<title>Node3</title>
<g id="a_Node000003"><a xlink:href="classAppTop.html" target="_top" xlink:title=" ">
<polygon fill="white" stroke="#bfbfbf" points="74,-19 22,-19 22,0 74,0 74,-19"/>
<text text-anchor="middle" x="48" y="-7" font-family="Helvetica,sans-Serif" font-size="10.00">AppTop</text>
</a>
</g>
</g>
<!-- Node2&#45;&gt;Node3 -->
<g id="edge2_Node000002_Node000003" class="edge">
<title>Node2&#45;&gt;Node3</title>
<g id="a_edge2_Node000002_Node000003"><a xlink:title=" ">
<path fill="none" stroke="#63b8ff" d="M48,-44.66C48,-35.93 48,-25.99 48,-19.09"/>
<polygon fill="#63b8ff" stroke="#63b8ff" points="44.5,-44.75 48,-54.75 51.5,-44.75 44.5,-44.75"/>
</a>
</g>
</g>
</g>
</svg>
