<?xml version="1.0" encoding="UTF-8" standalone="no"?>
<!DOCTYPE svg PUBLIC "-//W3C//DTD SVG 1.1//EN"
 "http://www.w3.org/Graphics/SVG/1.1/DTD/svg11.dtd">
<!-- Generated by graphviz version 2.43.0 (0)
 -->
<!-- Title: AmcCryoDemoDualCore Pages: 1 -->
<svg width="186pt" height="140pt"
 viewBox="0.00 0.00 186.00 140.00" xmlns="http://www.w3.org/2000/svg" xmlns:xlink="http://www.w3.org/1999/xlink">
<g id="graph0" class="graph" transform="scale(1 1) rotate(0) translate(4 136)">
<title>AmcCryoDemoDualCore</title>
<polygon fill="white" stroke="transparent" points="-4,4 -4,-136 182,-136 182,4 -4,4"/>
<!-- Node1 -->
<g id="node1" class="node">
<title>Node1</title>
<g id="a_node1"><a xlink:title=" ">
<polygon fill="#bfbfbf" stroke="black" points="23,-0.5 23,-19.5 158,-19.5 158,-0.5 23,-0.5"/>
<text text-anchor="middle" x="90.5" y="-7.5" font-family="Helvetica,sans-Serif" font-size="10.00">AmcCryoDemoDualCore</text>
</a>
</g>
</g>
<!-- Node2 -->
<g id="node2" class="node">
<title>Node2</title>
<g id="a_node2"><a xlink:href="classAmcCryoDemoCore.html" target="_top" xlink:title=" ">
<polygon fill="white" stroke="black" points="34,-56.5 34,-75.5 147,-75.5 147,-56.5 34,-56.5"/>
<text text-anchor="middle" x="90.5" y="-63.5" font-family="Helvetica,sans-Serif" font-size="10.00">AmcCryoDemoCore</text>
</a>
</g>
</g>
<!-- Node2&#45;&gt;Node1 -->
<g id="edge1" class="edge">
<title>Node2&#45;&gt;Node1</title>
<path fill="none" stroke="midnightblue" d="M90.5,-45.8C90.5,-36.91 90.5,-26.78 90.5,-19.75"/>
<polygon fill="midnightblue" stroke="midnightblue" points="87,-46.08 90.5,-56.08 94,-46.08 87,-46.08"/>
</g>
<!-- Node3 -->
<g id="node3" class="node">
<title>Node3</title>
<g id="a_node3"><a xlink:href="classJesdSyncIn.html" target="_top" xlink:title=" ">
<polygon fill="white" stroke="black" points="0,-112.5 0,-131.5 83,-131.5 83,-112.5 0,-112.5"/>
<text text-anchor="middle" x="41.5" y="-119.5" font-family="Helvetica,sans-Serif" font-size="10.00">JesdSyncIn(2)</text>
</a>
</g>
</g>
<!-- Node3&#45;&gt;Node2 -->
<g id="edge2" class="edge">
<title>Node3&#45;&gt;Node2</title>
<path fill="none" stroke="midnightblue" d="M56.53,-104.43C65.12,-94.97 75.54,-83.48 82.56,-75.75"/>
<polygon fill="midnightblue" stroke="midnightblue" points="53.72,-102.33 49.59,-112.08 58.9,-107.03 53.72,-102.33"/>
</g>
<!-- Node4 -->
<g id="node4" class="node">
<title>Node4</title>
<g id="a_node4"><a xlink:href="classJesdSyncOut.html" target="_top" xlink:title=" ">
<polygon fill="white" stroke="black" points="101,-112.5 101,-131.5 178,-131.5 178,-112.5 101,-112.5"/>
<text text-anchor="middle" x="139.5" y="-119.5" font-family="Helvetica,sans-Serif" font-size="10.00">JesdSyncOut</text>
</a>
</g>
</g>
<!-- Node4&#45;&gt;Node2 -->
<g id="edge3" class="edge">
<title>Node4&#45;&gt;Node2</title>
<path fill="none" stroke="midnightblue" d="M124.47,-104.43C115.88,-94.97 105.46,-83.48 98.44,-75.75"/>
<polygon fill="midnightblue" stroke="midnightblue" points="122.1,-107.03 131.41,-112.08 127.28,-102.33 122.1,-107.03"/>
</g>
</g>
</svg>
