<?xml version="1.0" encoding="UTF-8" standalone="no"?>
<!DOCTYPE svg PUBLIC "-//W3C//DTD SVG 1.1//EN"
 "http://www.w3.org/Graphics/SVG/1.1/DTD/svg11.dtd">
<!-- Generated by graphviz version 2.43.0 (0)
 -->
<!-- Title: JesdSyncOut Pages: 1 -->
<!--zoomable 286 -->

<svg id="main" version="1.1" xmlns="http://www.w3.org/2000/svg" xmlns:xlink="http://www.w3.org/1999/xlink" xml:space="preserve" onload="init(evt)">
<style type="text/css"><![CDATA[
.node, .edge {opacity: 0.7;}
.node.selected, .edge.selected {opacity: 1;}
.edge:hover path { stroke: red; }
.edge:hover polygon { stroke: red; fill: red; }
]]></style>

<defs>
  <circle id="rim" cx="0" cy="0" r="7"/>
  <circle id="rim2" cx="0" cy="0" r="3.5"/>
  <g id="zoomPlus">
    <use xlink:href="#rim" fill="#404040"><set attributeName="fill" to="#808080" begin="zoomplus.mouseover" end="zoomplus.mouseout"/></use>
    <path d="M-4,0h8M0,-4v8" fill="none" stroke="white" stroke-width="1.5" pointer-events="none"/>
  </g>
  <g id="zoomMin">
    <use xlink:href="#rim" fill="#404040"><set attributeName="fill" to="#808080" begin="zoomminus.mouseover" end="zoomminus.mouseout"/></use>
    <path d="M-4,0h8" fill="none" stroke="white" stroke-width="1.5" pointer-events="none"/>
  </g>
  <g id="arrowUp" transform="translate(30 24)">
    <use xlink:href="#rim"/>
    <path pointer-events="none" fill="none" stroke="white" stroke-width="1.5" d="M0,-3.0v7 M-2.5,-0.5L0,-3.0L2.5,-0.5"/>
  </g>
  <g id="arrowRight" transform="rotate(90) translate(36 -43)">
    <use xlink:href="#rim"/>
    <path pointer-events="none" fill="none" stroke="white" stroke-width="1.5" d="M0,-3.0v7 M-2.5,-0.5L0,-3.0L2.5,-0.5"/>
  </g>
  <g id="arrowDown" transform="rotate(180) translate(-30 -48)">
    <use xlink:href="#rim"/>
    <path pointer-events="none" fill="none" stroke="white" stroke-width="1.5" d="M0,-3.0v7 M-2.5,-0.5L0,-3.0L2.5,-0.5"/>
  </g>
  <g id="arrowLeft" transform="rotate(270) translate(-36 17)">
    <use xlink:href="#rim"/>
    <path pointer-events="none" fill="none" stroke="white" stroke-width="1.5" d="M0,-3.0v7 M-2.5,-0.5L0,-3.0L2.5,-0.5"/>
  </g>
  <g id="resetDef">
    <use xlink:href="#rim2" fill="#404040"><set attributeName="fill" to="#808080" begin="reset.mouseover" end="reset.mouseout"/></use>
  </g>
</defs>
<script type="application/ecmascript">
var viewWidth = 501;
var viewHeight = 286;
var sectionId = 'dynsection-0';
</script>
<script type="application/ecmascript" xlink:href="svg.min.js"/>
<svg id="graph" class="graph">
<g id="viewport">
<title>JesdSyncOut</title>
<!-- Node1 -->
<g id="Node000001" class="node">
<title>Node1</title>
<g id="a_Node000001"><a xlink:title=" ">
<polygon fill="#999999" stroke="#666666" points="77,-148 0,-148 0,-129 77,-129 77,-148"/>
<text text-anchor="middle" x="38.5" y="-136" font-family="Helvetica,sans-Serif" font-size="10.00">JesdSyncOut</text>
</a>
</g>
</g>
<!-- Node2 -->
<g id="Node000002" class="node">
<title>Node2</title>
<g id="a_Node000002"><a xlink:href="classAmcCryoCore.html" target="_top" xlink:title=" ">
<polygon fill="white" stroke="#bfbfbf" points="247.5,-278 164.5,-278 164.5,-259 247.5,-259 247.5,-278"/>
<text text-anchor="middle" x="206" y="-266" font-family="Helvetica,sans-Serif" font-size="10.00">AmcCryoCore</text>
</a>
</g>
</g>
<!-- Node1&#45;&gt;Node2 -->
<g id="edge1_Node000001_Node000002" class="edge">
<title>Node1&#45;&gt;Node2</title>
<g id="a_edge1_Node000001_Node000002"><a xlink:title=" ">
<path fill="none" stroke="#63b8ff" d="M46.48,-157.5C56.86,-182.96 78.9,-227.59 113,-250.5 127.99,-260.58 147.28,-265.3 164.32,-267.41"/>
<polygon fill="#63b8ff" stroke="#63b8ff" points="49.74,-156.23 42.85,-148.18 43.21,-158.77 49.74,-156.23"/>
</a>
</g>
</g>
<!-- Node4 -->
<g id="Node000004" class="node">
<title>Node4</title>
<g id="a_Node000004"><a xlink:href="classAmcCryoDemoCore.html" target="_top" xlink:title=" ">
<polygon fill="white" stroke="#bfbfbf" points="262.5,-241 149.5,-241 149.5,-222 262.5,-222 262.5,-241"/>
<text text-anchor="middle" x="206" y="-229" font-family="Helvetica,sans-Serif" font-size="10.00">AmcCryoDemoCore</text>
</a>
</g>
</g>
<!-- Node1&#45;&gt;Node4 -->
<g id="edge3_Node000001_Node000004" class="edge">
<title>Node1&#45;&gt;Node4</title>
<g id="a_edge3_Node000001_Node000004"><a xlink:title=" ">
<path fill="none" stroke="#63b8ff" d="M51.9,-156.36C65,-173.79 87.31,-199.65 113,-213.5 124.03,-219.45 136.75,-223.44 149.14,-226.13"/>
<polygon fill="#63b8ff" stroke="#63b8ff" points="54.62,-154.16 45.92,-148.12 48.96,-158.27 54.62,-154.16"/>
</a>
</g>
</g>
<!-- Node6 -->
<g id="Node000006" class="node">
<title>Node6</title>
<g id="a_Node000006"><a xlink:href="classAmcGenericAdcDacCore.html" target="_top" xlink:title=" ">
<polygon fill="white" stroke="#bfbfbf" points="273.5,-204 138.5,-204 138.5,-185 273.5,-185 273.5,-204"/>
<text text-anchor="middle" x="206" y="-192" font-family="Helvetica,sans-Serif" font-size="10.00">AmcGenericAdcDacCore</text>
</a>
</g>
</g>
<!-- Node1&#45;&gt;Node6 -->
<g id="edge5_Node000001_Node000006" class="edge">
<title>Node1&#45;&gt;Node6</title>
<g id="a_edge5_Node000001_Node000006"><a xlink:title=" ">
<path fill="none" stroke="#63b8ff" d="M63.91,-153.35C77.85,-161.26 95.92,-170.55 113,-176.5 122.68,-179.87 133.17,-182.68 143.48,-184.98"/>
<polygon fill="#63b8ff" stroke="#63b8ff" points="65.38,-150.16 54.98,-148.16 61.86,-156.21 65.38,-150.16"/>
</a>
</g>
</g>
<!-- Node8 -->
<g id="Node000008" class="node">
<title>Node8</title>
<g id="a_Node000008"><a xlink:href="classAmcMicrowaveMuxCore.html" target="_top" xlink:title=" ">
<polygon fill="white" stroke="#bfbfbf" points="273.5,-167 138.5,-167 138.5,-148 273.5,-148 273.5,-167"/>
<text text-anchor="middle" x="206" y="-155" font-family="Helvetica,sans-Serif" font-size="10.00">AmcMicrowaveMuxCore</text>
</a>
</g>
</g>
<!-- Node1&#45;&gt;Node8 -->
<g id="edge7_Node000001_Node000008" class="edge">
<title>Node1&#45;&gt;Node8</title>
<g id="a_edge7_Node000001_Node000008"><a xlink:title=" ">
<path fill="none" stroke="#63b8ff" d="M87.19,-143.98C103.14,-145.81 121.22,-147.88 138.34,-149.85"/>
<polygon fill="#63b8ff" stroke="#63b8ff" points="87.39,-140.47 77.05,-142.81 86.59,-147.43 87.39,-140.47"/>
</a>
</g>
</g>
<!-- Node10 -->
<g id="Node000010" class="node">
<title>Node10</title>
<g id="a_Node000010"><a xlink:href="classAmcMrLlrfDownConvertCore.html" target="_top" xlink:title=" ">
<polygon fill="white" stroke="#bfbfbf" points="283.5,-130 128.5,-130 128.5,-111 283.5,-111 283.5,-130"/>
<text text-anchor="middle" x="206" y="-118" font-family="Helvetica,sans-Serif" font-size="10.00">AmcMrLlrfDownConvertCore</text>
</a>
</g>
</g>
<!-- Node1&#45;&gt;Node10 -->
<g id="edge9_Node000001_Node000010" class="edge">
<title>Node1&#45;&gt;Node10</title>
<g id="a_edge9_Node000001_Node000010"><a xlink:title=" ">
<path fill="none" stroke="#63b8ff" d="M87.07,-133.33C99.98,-131.92 114.29,-130.37 128.37,-128.83"/>
<polygon fill="#63b8ff" stroke="#63b8ff" points="86.62,-129.85 77.05,-134.42 87.37,-136.81 86.62,-129.85"/>
</a>
</g>
</g>
<!-- Node11 -->
<g id="Node000011" class="node">
<title>Node11</title>
<g id="a_Node000011"><a xlink:href="classAmcMrLlrfGen2UpConvertMapping.html" target="_top" xlink:title=" ">
<polygon fill="white" stroke="#bfbfbf" points="299,-93 113,-93 113,-74 299,-74 299,-93"/>
<text text-anchor="middle" x="206" y="-81" font-family="Helvetica,sans-Serif" font-size="10.00">AmcMrLlrfGen2UpConvertMapping</text>
</a>
</g>
</g>
<!-- Node1&#45;&gt;Node11 -->
<g id="edge10_Node000001_Node000011" class="edge">
<title>Node1&#45;&gt;Node11</title>
<g id="a_edge10_Node000001_Node000011"><a xlink:title=" ">
<path fill="none" stroke="#63b8ff" d="M64.84,-124.12C78.71,-116.76 96.4,-108.18 113,-102.5 123.96,-98.75 135.91,-95.62 147.47,-93.06"/>
<polygon fill="#63b8ff" stroke="#63b8ff" points="63.03,-121.11 55.92,-128.96 66.38,-127.27 63.03,-121.11"/>
</a>
</g>
</g>
<!-- Node13 -->
<g id="Node000013" class="node">
<title>Node13</title>
<g id="a_Node000013"><a xlink:href="classAmcMrLlrfUpConvertMapping.html" target="_top" xlink:title=" ">
<polygon fill="white" stroke="#bfbfbf" points="286.5,-56 125.5,-56 125.5,-37 286.5,-37 286.5,-56"/>
<text text-anchor="middle" x="206" y="-44" font-family="Helvetica,sans-Serif" font-size="10.00">AmcMrLlrfUpConvertMapping</text>
</a>
</g>
</g>
<!-- Node1&#45;&gt;Node13 -->
<g id="edge12_Node000001_Node000013" class="edge">
<title>Node1&#45;&gt;Node13</title>
<g id="a_edge12_Node000001_Node000013"><a xlink:title=" ">
<path fill="none" stroke="#63b8ff" d="M52.25,-120.9C65.49,-103.99 87.77,-79.05 113,-65.5 120.18,-61.64 128.07,-58.57 136.11,-56.11"/>
<polygon fill="#63b8ff" stroke="#63b8ff" points="49.43,-118.83 46.18,-128.92 55.01,-123.06 49.43,-118.83"/>
</a>
</g>
</g>
<!-- Node15 -->
<g id="Node000015" class="node">
<title>Node15</title>
<g id="a_Node000015"><a xlink:href="classAmcStriplineBpmCore.html" target="_top" xlink:title=" ">
<polygon fill="white" stroke="#bfbfbf" points="268,-19 144,-19 144,0 268,0 268,-19"/>
<text text-anchor="middle" x="206" y="-7" font-family="Helvetica,sans-Serif" font-size="10.00">AmcStriplineBpmCore</text>
</a>
</g>
</g>
<!-- Node1&#45;&gt;Node15 -->
<g id="edge14_Node000001_Node000015" class="edge">
<title>Node1&#45;&gt;Node15</title>
<g id="a_edge14_Node000001_Node000015"><a xlink:title=" ">
<path fill="none" stroke="#63b8ff" d="M46.91,-119.17C57.56,-94.11 79.66,-50.95 113,-28.5 122.2,-22.3 133,-18.06 143.91,-15.17"/>
<polygon fill="#63b8ff" stroke="#63b8ff" points="43.56,-118.11 43.04,-128.7 50.05,-120.74 43.56,-118.11"/>
</a>
</g>
</g>
<!-- Node3 -->
<g id="Node000003" class="node">
<title>Node3</title>
<g id="a_Node000003"><a xlink:href="classAmcCryoDualCore.html" target="_top" xlink:title=" ">
<polygon fill="white" stroke="#bfbfbf" points="467,-278 361,-278 361,-259 467,-259 467,-278"/>
<text text-anchor="middle" x="414" y="-266" font-family="Helvetica,sans-Serif" font-size="10.00">AmcCryoDualCore</text>
</a>
</g>
</g>
<!-- Node2&#45;&gt;Node3 -->
<g id="edge2_Node000002_Node000003" class="edge">
<title>Node2&#45;&gt;Node3</title>
<g id="a_edge2_Node000002_Node000003"><a xlink:title=" ">
<path fill="none" stroke="#63b8ff" d="M257.94,-268.5C289.2,-268.5 329.13,-268.5 360.64,-268.5"/>
<polygon fill="#63b8ff" stroke="#63b8ff" points="257.7,-265 247.7,-268.5 257.7,-272 257.7,-265"/>
</a>
</g>
</g>
<!-- Node5 -->
<g id="Node000005" class="node">
<title>Node5</title>
<g id="a_Node000005"><a xlink:href="classAmcCryoDemoDualCore.html" target="_top" xlink:title=" ">
<polygon fill="white" stroke="#bfbfbf" points="481.5,-241 346.5,-241 346.5,-222 481.5,-222 481.5,-241"/>
<text text-anchor="middle" x="414" y="-229" font-family="Helvetica,sans-Serif" font-size="10.00">AmcCryoDemoDualCore</text>
</a>
</g>
</g>
<!-- Node4&#45;&gt;Node5 -->
<g id="edge4_Node000004_Node000005" class="edge">
<title>Node4&#45;&gt;Node5</title>
<g id="a_edge4_Node000004_Node000005"><a xlink:title=" ">
<path fill="none" stroke="#63b8ff" d="M272.93,-231.5C296.35,-231.5 322.72,-231.5 346.22,-231.5"/>
<polygon fill="#63b8ff" stroke="#63b8ff" points="272.75,-228 262.75,-231.5 272.75,-235 272.75,-228"/>
</a>
</g>
</g>
<!-- Node7 -->
<g id="Node000007" class="node">
<title>Node7</title>
<g id="a_Node000007"><a xlink:href="classAmcGenericAdcDacDualCore.html" target="_top" xlink:title=" ">
<polygon fill="white" stroke="#bfbfbf" points="493,-204 335,-204 335,-185 493,-185 493,-204"/>
<text text-anchor="middle" x="414" y="-192" font-family="Helvetica,sans-Serif" font-size="10.00">AmcGenericAdcDacDualCore</text>
</a>
</g>
</g>
<!-- Node6&#45;&gt;Node7 -->
<g id="edge6_Node000006_Node000007" class="edge">
<title>Node6&#45;&gt;Node7</title>
<g id="a_edge6_Node000006_Node000007"><a xlink:title=" ">
<path fill="none" stroke="#63b8ff" d="M283.82,-194.5C300.47,-194.5 318.09,-194.5 334.79,-194.5"/>
<polygon fill="#63b8ff" stroke="#63b8ff" points="283.6,-191 273.6,-194.5 283.6,-198 283.6,-191"/>
</a>
</g>
</g>
<!-- Node9 -->
<g id="Node000009" class="node">
<title>Node9</title>
<g id="a_Node000009"><a xlink:href="classAmcMicrowaveMuxDualCore.html" target="_top" xlink:title=" ">
<polygon fill="white" stroke="#bfbfbf" points="493,-167 335,-167 335,-148 493,-148 493,-167"/>
<text text-anchor="middle" x="414" y="-155" font-family="Helvetica,sans-Serif" font-size="10.00">AmcMicrowaveMuxDualCore</text>
</a>
</g>
</g>
<!-- Node8&#45;&gt;Node9 -->
<g id="edge8_Node000008_Node000009" class="edge">
<title>Node8&#45;&gt;Node9</title>
<g id="a_edge8_Node000008_Node000009"><a xlink:title=" ">
<path fill="none" stroke="#63b8ff" d="M283.82,-157.5C300.47,-157.5 318.09,-157.5 334.79,-157.5"/>
<polygon fill="#63b8ff" stroke="#63b8ff" points="283.6,-154 273.6,-157.5 283.6,-161 283.6,-154"/>
</a>
</g>
</g>
<!-- Node12 -->
<g id="Node000012" class="node">
<title>Node12</title>
<g id="a_Node000012"><a xlink:href="classAmcMrLlrfGen2UpConvert.html" target="_top" xlink:title=" ">
<polygon fill="white" stroke="#bfbfbf" points="486,-93 342,-93 342,-74 486,-74 486,-93"/>
<text text-anchor="middle" x="414" y="-81" font-family="Helvetica,sans-Serif" font-size="10.00">AmcMrLlrfGen2UpConvert</text>
</a>
</g>
</g>
<!-- Node11&#45;&gt;Node12 -->
<g id="edge11_Node000011_Node000012" class="edge">
<title>Node11&#45;&gt;Node12</title>
<g id="a_edge11_Node000011_Node000012"><a xlink:title=" ">
<path fill="none" stroke="#63b8ff" d="M309.28,-83.5C320.33,-83.5 331.38,-83.5 341.94,-83.5"/>
<polygon fill="#63b8ff" stroke="#63b8ff" points="309.15,-80 299.15,-83.5 309.15,-87 309.15,-80"/>
</a>
</g>
</g>
<!-- Node14 -->
<g id="Node000014" class="node">
<title>Node14</title>
<g id="a_Node000014"><a xlink:href="classAmcMrLlrfUpConvertCore.html" target="_top" xlink:title=" ">
<polygon fill="white" stroke="#bfbfbf" points="484.5,-56 343.5,-56 343.5,-37 484.5,-37 484.5,-56"/>
<text text-anchor="middle" x="414" y="-44" font-family="Helvetica,sans-Serif" font-size="10.00">AmcMrLlrfUpConvertCore</text>
</a>
</g>
</g>
<!-- Node13&#45;&gt;Node14 -->
<g id="edge13_Node000013_Node000014" class="edge">
<title>Node13&#45;&gt;Node14</title>
<g id="a_edge13_Node000013_Node000014"><a xlink:title=" ">
<path fill="none" stroke="#63b8ff" d="M296.8,-46.5C312.38,-46.5 328.36,-46.5 343.3,-46.5"/>
<polygon fill="#63b8ff" stroke="#63b8ff" points="296.65,-43 286.64,-46.5 296.64,-50 296.65,-43"/>
</a>
</g>
</g>
<!-- Node16 -->
<g id="Node000016" class="node">
<title>Node16</title>
<g id="a_Node000016"><a xlink:href="classAmcStriplineBpmDualCore.html" target="_top" xlink:title=" ">
<polygon fill="white" stroke="#bfbfbf" points="487,-19 341,-19 341,0 487,0 487,-19"/>
<text text-anchor="middle" x="414" y="-7" font-family="Helvetica,sans-Serif" font-size="10.00">AmcStriplineBpmDualCore</text>
</a>
</g>
</g>
<!-- Node15&#45;&gt;Node16 -->
<g id="edge15_Node000015_Node000016" class="edge">
<title>Node15&#45;&gt;Node16</title>
<g id="a_edge15_Node000015_Node000016"><a xlink:title=" ">
<path fill="none" stroke="#63b8ff" d="M278.31,-9.5C298.5,-9.5 320.49,-9.5 340.73,-9.5"/>
<polygon fill="#63b8ff" stroke="#63b8ff" points="278.25,-6 268.25,-9.5 278.25,-13 278.25,-6"/>
</a>
</g>
</g>
</g>
</svg>

<g id="navigator" transform="translate(0 0)" fill="#404254">
  <rect fill="#f2f5e9" fill-opacity="0.5" stroke="#606060" stroke-width=".5" x="0" y="0" width="60" height="60"/>
  <use id="zoomplus" xlink:href="#zoomPlus" x="17" y="9" onmousedown="handleZoom(evt,'in')"/>
  <use id="zoomminus" xlink:href="#zoomMin" x="42" y="9" onmousedown="handleZoom(evt,'out')"/>
  <use id="reset" xlink:href="#resetDef" x="30" y="36" onmousedown="handleReset()"/>
   <use id="arrowup" xlink:href="#arrowUp" x="0" y="0" onmousedown="handlePan(0,-1)"/>
  <use id="arrowright" xlink:href="#arrowRight" x="0" y="0" onmousedown="handlePan(1,0)"/>
  <use id="arrowdown" xlink:href="#arrowDown" x="0" y="0" onmousedown="handlePan(0,1)"/>
  <use id="arrowleft" xlink:href="#arrowLeft" x="0" y="0" onmousedown="handlePan(-1,0)"/>
</g>
<svg viewBox="0 0 15 15" width="100%" height="30px" preserveAspectRatio="xMaxYMin meet">
 <g id="arrow_out" transform="scale(0.3 0.3)">
  <a xlink:href="classJesdSyncOut__inherit__graph_org.svg" target="_base">
   <rect id="button" ry="5" rx="5" y="6" x="6" height="38" width="38"
        fill="#f2f5e9" fill-opacity="0.5" stroke="#606060" stroke-width="1.0"/>
   <path id="arrow"
     d="M 11.500037,31.436501 C 11.940474,20.09759 22.043105,11.32322 32.158766,21.979434 L 37.068811,17.246167 C 37.068811,17.246167 37.088388,32 37.088388,32 L 22.160133,31.978069 C 22.160133,31.978069 26.997745,27.140456 26.997745,27.140456 C 18.528582,18.264221 13.291696,25.230495 11.500037,31.436501 z"
     style="fill:#404040;"/>
  </a>
 </g>
</svg>

<style type='text/css'>
<![CDATA[
[data-mouse-over-selected='false'] { opacity: 0.7; }
[data-mouse-over-selected='true']  { opacity: 1.0; }
]]>
</style>
<script type="application/ecmascript"><![CDATA[
document.addEventListener('DOMContentLoaded', (event) => {
  highlightEdges();
  highlightAdjacentNodes();
});
]]></script>
</svg>
