<?xml version="1.0" encoding="UTF-8" standalone="no"?>
<!DOCTYPE svg PUBLIC "-//W3C//DTD SVG 1.1//EN"
 "http://www.w3.org/Graphics/SVG/1.1/DTD/svg11.dtd">
<!-- Generated by graphviz version 2.43.0 (0)
 -->
<!-- Title: RtmDigitalDebugV2 Pages: 1 -->
<svg width="342pt" height="82pt"
 viewBox="0.00 0.00 341.50 82.00" xmlns="http://www.w3.org/2000/svg" xmlns:xlink="http://www.w3.org/1999/xlink">

<svg id="main" version="1.1" xmlns="http://www.w3.org/2000/svg" xmlns:xlink="http://www.w3.org/1999/xlink" xml:space="preserve" onload="init(evt)">
<style type="text/css"><![CDATA[
.node, .edge {opacity: 0.7;}
.node.selected, .edge.selected {opacity: 1;}
.edge:hover path { stroke: red; }
.edge:hover polygon { stroke: red; fill: red; }
]]></style>
<script type="application/ecmascript" xlink:href="svg.min.js"/>
<svg id="graph" class="graph">
<g id="graph0" class="graph" transform="scale(1 1) rotate(0) translate(4 78)">
<title>RtmDigitalDebugV2</title>
<!-- Node1 -->
<g id="Node000001" class="node">
<title>Node1</title>
<g id="a_Node000001"><a xlink:title=" ">
<polygon fill="#999999" stroke="#666666" points="254,-19 141,-19 141,0 254,0 254,-19"/>
<text text-anchor="middle" x="197.5" y="-7" font-family="Helvetica,sans-Serif" font-size="10.00">RtmDigitalDebugV2</text>
</a>
</g>
</g>
<!-- Node2 -->
<g id="Node000002" class="node">
<title>Node2</title>
<g id="a_Node000002"><a xlink:href="classRtmDigitalDebugDin.html" target="_top" xlink:title=" ">
<polygon fill="white" stroke="#bfbfbf" points="117,-74 0,-74 0,-55 117,-55 117,-74"/>
<text text-anchor="middle" x="58.5" y="-62" font-family="Helvetica,sans-Serif" font-size="10.00">RtmDigitalDebugDin</text>
</a>
</g>
</g>
<!-- Node2&#45;&gt;Node1 -->
<g id="edge1_Node000001_Node000002" class="edge">
<title>Node2&#45;&gt;Node1</title>
<g id="a_edge1_Node000001_Node000002"><a xlink:title=" ">
<path fill="none" stroke="#63b8ff" d="M90.18,-51.42C115.97,-41.59 151.74,-27.95 174.76,-19.17"/>
<polygon fill="#63b8ff" stroke="#63b8ff" points="88.93,-48.15 80.83,-54.98 91.42,-54.69 88.93,-48.15"/>
</a>
</g>
</g>
<!-- Node3 -->
<g id="Node000003" class="node">
<title>Node3</title>
<g id="a_Node000003"><a xlink:href="classRtmDigitalDebugDout.html" target="_top" xlink:title=" ">
<polygon fill="white" stroke="#bfbfbf" points="259.5,-74 135.5,-74 135.5,-55 259.5,-55 259.5,-74"/>
<text text-anchor="middle" x="197.5" y="-62" font-family="Helvetica,sans-Serif" font-size="10.00">RtmDigitalDebugDout</text>
</a>
</g>
</g>
<!-- Node3&#45;&gt;Node1 -->
<g id="edge2_Node000001_Node000003" class="edge">
<title>Node3&#45;&gt;Node1</title>
<g id="a_edge2_Node000001_Node000003"><a xlink:title=" ">
<path fill="none" stroke="#63b8ff" d="M197.5,-44.66C197.5,-35.93 197.5,-25.99 197.5,-19.09"/>
<polygon fill="#63b8ff" stroke="#63b8ff" points="194,-44.75 197.5,-54.75 201,-44.75 194,-44.75"/>
</a>
</g>
</g>
<!-- Node4 -->
<g id="Node000004" class="node">
<title>Node4</title>
<g id="a_Node000004"><a xlink:href="classSi5317a.html" target="_top" xlink:title=" ">
<polygon fill="white" stroke="#bfbfbf" points="333.5,-74 277.5,-74 277.5,-55 333.5,-55 333.5,-74"/>
<text text-anchor="middle" x="305.5" y="-62" font-family="Helvetica,sans-Serif" font-size="10.00">Si5317a</text>
</a>
</g>
</g>
<!-- Node4&#45;&gt;Node1 -->
<g id="edge3_Node000001_Node000004" class="edge">
<title>Node4&#45;&gt;Node1</title>
<g id="a_edge3_Node000001_Node000004"><a xlink:title=" ">
<path fill="none" stroke="#63b8ff" d="M279.01,-50.5C259.14,-40.75 232.5,-27.68 215.17,-19.17"/>
<polygon fill="#63b8ff" stroke="#63b8ff" points="277.63,-53.72 288.15,-54.98 280.71,-47.44 277.63,-53.72"/>
</a>
</g>
</g>
</g>
</svg>
</svg>

<style type='text/css'>
<![CDATA[
[data-mouse-over-selected='false'] { opacity: 0.7; }
[data-mouse-over-selected='true']  { opacity: 1.0; }
]]>
</style>
<script type="application/ecmascript"><![CDATA[
document.addEventListener('DOMContentLoaded', (event) => {
  highlightEdges();
  highlightAdjacentNodes();
});
]]></script>
</svg>
