<?xml version="1.0" encoding="UTF-8" standalone="no"?>
<!DOCTYPE svg PUBLIC "-//W3C//DTD SVG 1.1//EN"
 "http://www.w3.org/Graphics/SVG/1.1/DTD/svg11.dtd">
<!-- Generated by graphviz version 2.43.0 (0)
 -->
<!-- Title: RtmDigitalDebugV2 Pages: 1 -->
<svg width="342pt" height="84pt"
 viewBox="0.00 0.00 341.50 84.00" xmlns="http://www.w3.org/2000/svg" xmlns:xlink="http://www.w3.org/1999/xlink">
<g id="graph0" class="graph" transform="scale(1 1) rotate(0) translate(4 80)">
<title>RtmDigitalDebugV2</title>
<polygon fill="white" stroke="transparent" points="-4,4 -4,-80 337.5,-80 337.5,4 -4,4"/>
<!-- Node1 -->
<g id="node1" class="node">
<title>Node1</title>
<g id="a_node1"><a xlink:title=" ">
<polygon fill="#bfbfbf" stroke="black" points="141,-0.5 141,-19.5 254,-19.5 254,-0.5 141,-0.5"/>
<text text-anchor="middle" x="197.5" y="-7.5" font-family="Helvetica,sans-Serif" font-size="10.00">RtmDigitalDebugV2</text>
</a>
</g>
</g>
<!-- Node2 -->
<g id="node2" class="node">
<title>Node2</title>
<g id="a_node2"><a xlink:href="classRtmDigitalDebugDin.html" target="_top" xlink:title=" ">
<polygon fill="white" stroke="black" points="0,-56.5 0,-75.5 117,-75.5 117,-56.5 0,-56.5"/>
<text text-anchor="middle" x="58.5" y="-63.5" font-family="Helvetica,sans-Serif" font-size="10.00">RtmDigitalDebugDin</text>
</a>
</g>
</g>
<!-- Node2&#45;&gt;Node1 -->
<g id="edge1" class="edge">
<title>Node2&#45;&gt;Node1</title>
<path fill="none" stroke="midnightblue" d="M89.98,-52.77C116.09,-42.63 152.54,-28.47 175.58,-19.52"/>
<polygon fill="midnightblue" stroke="midnightblue" points="88.58,-49.56 80.52,-56.44 91.11,-56.08 88.58,-49.56"/>
</g>
<!-- Node3 -->
<g id="node3" class="node">
<title>Node3</title>
<g id="a_node3"><a xlink:href="classRtmDigitalDebugDout.html" target="_top" xlink:title=" ">
<polygon fill="white" stroke="black" points="135.5,-56.5 135.5,-75.5 259.5,-75.5 259.5,-56.5 135.5,-56.5"/>
<text text-anchor="middle" x="197.5" y="-63.5" font-family="Helvetica,sans-Serif" font-size="10.00">RtmDigitalDebugDout</text>
</a>
</g>
</g>
<!-- Node3&#45;&gt;Node1 -->
<g id="edge2" class="edge">
<title>Node3&#45;&gt;Node1</title>
<path fill="none" stroke="midnightblue" d="M197.5,-45.8C197.5,-36.91 197.5,-26.78 197.5,-19.75"/>
<polygon fill="midnightblue" stroke="midnightblue" points="194,-46.08 197.5,-56.08 201,-46.08 194,-46.08"/>
</g>
<!-- Node4 -->
<g id="node4" class="node">
<title>Node4</title>
<g id="a_node4"><a xlink:href="classSi5317a.html" target="_top" xlink:title=" ">
<polygon fill="white" stroke="black" points="277.5,-56.5 277.5,-75.5 333.5,-75.5 333.5,-56.5 277.5,-56.5"/>
<text text-anchor="middle" x="305.5" y="-63.5" font-family="Helvetica,sans-Serif" font-size="10.00">Si5317a</text>
</a>
</g>
</g>
<!-- Node4&#45;&gt;Node1 -->
<g id="edge3" class="edge">
<title>Node4&#45;&gt;Node1</title>
<path fill="none" stroke="midnightblue" d="M278.95,-51.73C258.95,-41.73 232.11,-28.31 214.81,-19.65"/>
<polygon fill="midnightblue" stroke="midnightblue" points="277.64,-54.98 288.15,-56.32 280.77,-48.72 277.64,-54.98"/>
</g>
</g>
</svg>
