<?xml version="1.0" encoding="UTF-8" standalone="no"?>
<!DOCTYPE svg PUBLIC "-//W3C//DTD SVG 1.1//EN"
 "http://www.w3.org/Graphics/SVG/1.1/DTD/svg11.dtd">
<!-- Generated by graphviz version 2.43.0 (0)
 -->
<!-- Title: AppMpsEncoder Pages: 1 -->
<svg width="356pt" height="137pt"
 viewBox="0.00 0.00 356.00 137.00" xmlns="http://www.w3.org/2000/svg" xmlns:xlink="http://www.w3.org/1999/xlink">
<g id="graph0" class="graph" transform="scale(1 1) rotate(0) translate(4 133)">
<title>AppMpsEncoder</title>
<!-- Node1 -->
<g id="Node000001" class="node">
<title>Node1</title>
<g id="a_Node000001"><a xlink:title=" ">
<polygon fill="#999999" stroke="#666666" points="254.5,-19 159.5,-19 159.5,0 254.5,0 254.5,-19"/>
<text text-anchor="middle" x="207" y="-7" font-family="Helvetica,sans-Serif" font-size="10.00">AppMpsEncoder</text>
</a>
</g>
</g>
<!-- Node2 -->
<g id="Node000002" class="node">
<title>Node2</title>
<g id="a_Node000002"><a xlink:href="classAppMpsReg.html" target="_top" xlink:title=" ">
<polygon fill="white" stroke="#bfbfbf" points="146,-74 72,-74 72,-55 146,-55 146,-74"/>
<text text-anchor="middle" x="109" y="-62" font-family="Helvetica,sans-Serif" font-size="10.00">AppMpsReg</text>
</a>
</g>
</g>
<!-- Node2&#45;&gt;Node1 -->
<g id="edge1_Node000001_Node000002" class="edge">
<title>Node2&#45;&gt;Node1</title>
<g id="a_edge1_Node000001_Node000002"><a xlink:title=" ">
<path fill="none" stroke="#63b8ff" d="M134.03,-49.97C151.94,-40.28 175.53,-27.52 190.97,-19.17"/>
<polygon fill="#63b8ff" stroke="#63b8ff" points="131.88,-47.15 124.75,-54.98 135.21,-53.31 131.88,-47.15"/>
</a>
</g>
</g>
<!-- Node3 -->
<g id="Node000003" class="node">
<title>Node3</title>
<g id="a_Node000003"><a xlink:href="classAppMpsRegBase.html" target="_top" xlink:title=" ">
<polygon fill="white" stroke="#bfbfbf" points="98,-129 0,-129 0,-110 98,-110 98,-129"/>
<text text-anchor="middle" x="49" y="-117" font-family="Helvetica,sans-Serif" font-size="10.00">AppMpsRegBase</text>
</a>
</g>
</g>
<!-- Node3&#45;&gt;Node2 -->
<g id="edge2_Node000002_Node000003" class="edge">
<title>Node3&#45;&gt;Node2</title>
<g id="a_edge2_Node000002_Node000003"><a xlink:title=" ">
<path fill="none" stroke="#63b8ff" d="M66.18,-103.32C76.88,-93.87 90.26,-82.06 99.18,-74.17"/>
<polygon fill="#63b8ff" stroke="#63b8ff" points="63.82,-100.74 58.64,-109.98 68.45,-105.99 63.82,-100.74"/>
</a>
</g>
</g>
<!-- Node4 -->
<g id="Node000004" class="node">
<title>Node4</title>
<g id="a_Node000004"><a xlink:href="classAppMpsRegAppCh.html" target="_top" xlink:title=" ">
<polygon fill="white" stroke="#bfbfbf" points="222,-129 116,-129 116,-110 222,-110 222,-129"/>
<text text-anchor="middle" x="169" y="-117" font-family="Helvetica,sans-Serif" font-size="10.00">AppMpsRegAppCh</text>
</a>
</g>
</g>
<!-- Node4&#45;&gt;Node2 -->
<g id="edge3_Node000002_Node000004" class="edge">
<title>Node4&#45;&gt;Node2</title>
<g id="a_edge3_Node000002_Node000004"><a xlink:title=" ">
<path fill="none" stroke="#63b8ff" d="M151.82,-103.32C141.12,-93.87 127.74,-82.06 118.82,-74.17"/>
<polygon fill="#63b8ff" stroke="#63b8ff" points="149.55,-105.99 159.36,-109.98 154.18,-100.74 149.55,-105.99"/>
</a>
</g>
</g>
<!-- Node5 -->
<g id="Node000005" class="node">
<title>Node5</title>
<g id="a_Node000005"><a xlink:href="classAppMpsSelect.html" target="_top" xlink:title=" ">
<polygon fill="white" stroke="#bfbfbf" points="250,-74 164,-74 164,-55 250,-55 250,-74"/>
<text text-anchor="middle" x="207" y="-62" font-family="Helvetica,sans-Serif" font-size="10.00">AppMpsSelect</text>
</a>
</g>
</g>
<!-- Node5&#45;&gt;Node1 -->
<g id="edge4_Node000001_Node000005" class="edge">
<title>Node5&#45;&gt;Node1</title>
<g id="a_edge4_Node000001_Node000005"><a xlink:title=" ">
<path fill="none" stroke="#63b8ff" d="M207,-44.66C207,-35.93 207,-25.99 207,-19.09"/>
<polygon fill="#63b8ff" stroke="#63b8ff" points="203.5,-44.75 207,-54.75 210.5,-44.75 203.5,-44.75"/>
</a>
</g>
</g>
<!-- Node6 -->
<g id="Node000006" class="node">
<title>Node6</title>
<g id="a_Node000006"><a xlink:href="classMpsMsgCore.html" target="_top" xlink:title=" ">
<polygon fill="white" stroke="#bfbfbf" points="348,-74 268,-74 268,-55 348,-55 348,-74"/>
<text text-anchor="middle" x="308" y="-62" font-family="Helvetica,sans-Serif" font-size="10.00">MpsMsgCore</text>
</a>
</g>
</g>
<!-- Node6&#45;&gt;Node1 -->
<g id="edge5_Node000001_Node000006" class="edge">
<title>Node6&#45;&gt;Node1</title>
<g id="a_edge5_Node000001_Node000006"><a xlink:title=" ">
<path fill="none" stroke="#63b8ff" d="M282.72,-50.23C264.2,-40.51 239.58,-27.6 223.52,-19.17"/>
<polygon fill="#63b8ff" stroke="#63b8ff" points="281.29,-53.44 291.77,-54.98 284.54,-47.24 281.29,-53.44"/>
</a>
</g>
</g>
</g>
</svg>
