<?xml version="1.0" encoding="UTF-8" standalone="no"?>
<!DOCTYPE svg PUBLIC "-//W3C//DTD SVG 1.1//EN"
 "http://www.w3.org/Graphics/SVG/1.1/DTD/svg11.dtd">
<!-- Generated by graphviz version 2.43.0 (0)
 -->
<!-- Title: AmcCarrierFsbl Pages: 1 -->
<svg width="964pt" height="218pt"
 viewBox="0.00 0.00 964.00 218.00" xmlns="http://www.w3.org/2000/svg" xmlns:xlink="http://www.w3.org/1999/xlink">
<g id="graph0" class="graph" transform="scale(1 1) rotate(0) translate(4 214)">
<title>AmcCarrierFsbl</title>
<polygon fill="white" stroke="transparent" points="-4,4 -4,-214 960,-214 960,4 -4,4"/>
<!-- Node1 -->
<g id="node1" class="node">
<title>Node1</title>
<g id="a_node1"><a xlink:title=" ">
<polygon fill="#bfbfbf" stroke="black" points="714,-114.5 714,-133.5 806,-133.5 806,-114.5 714,-114.5"/>
<text text-anchor="middle" x="760" y="-121.5" font-family="Helvetica,sans-Serif" font-size="10.00">AmcCarrierFsbl</text>
</a>
</g>
</g>
<!-- Node16 -->
<g id="node16" class="node">
<title>Node16</title>
<g id="a_node16"><a xlink:href="classAmcCarrierCoreFsbl.html" target="_top" xlink:title=" ">
<polygon fill="white" stroke="black" points="842,-114.5 842,-133.5 956,-133.5 956,-114.5 842,-114.5"/>
<text text-anchor="middle" x="899" y="-121.5" font-family="Helvetica,sans-Serif" font-size="10.00">AmcCarrierCoreFsbl</text>
</a>
</g>
</g>
<!-- Node1&#45;&gt;Node16 -->
<g id="edge17" class="edge">
<title>Node1&#45;&gt;Node16</title>
<path fill="none" stroke="midnightblue" d="M816.31,-124C824.72,-124 833.39,-124 841.81,-124"/>
<polygon fill="midnightblue" stroke="midnightblue" points="816.24,-120.5 806.24,-124 816.24,-127.5 816.24,-120.5"/>
</g>
<!-- Node2 -->
<g id="node2" class="node">
<title>Node2</title>
<g id="a_node2"><a xlink:href="classAmcCarrierIbufGt.html" target="_top" xlink:title=" ">
<polygon fill="white" stroke="black" points="402.5,-190.5 402.5,-209.5 503.5,-209.5 503.5,-190.5 402.5,-190.5"/>
<text text-anchor="middle" x="453" y="-197.5" font-family="Helvetica,sans-Serif" font-size="10.00">AmcCarrierIbufGt</text>
</a>
</g>
</g>
<!-- Node2&#45;&gt;Node1 -->
<g id="edge1" class="edge">
<title>Node2&#45;&gt;Node1</title>
<path fill="none" stroke="midnightblue" d="M513.79,-203.29C559.99,-203.87 624.81,-200.35 678,-181 706.76,-170.54 734.69,-147.07 749.03,-133.74"/>
<polygon fill="midnightblue" stroke="midnightblue" points="513.71,-199.79 503.64,-203.1 513.57,-206.79 513.71,-199.79"/>
</g>
<!-- Node4 -->
<g id="node4" class="node">
<title>Node4</title>
<g id="a_node4"><a xlink:href="classAmcCarrierTiming.html" target="_top" xlink:title=" ">
<polygon fill="white" stroke="black" points="569,-152.5 569,-171.5 674,-171.5 674,-152.5 569,-152.5"/>
<text text-anchor="middle" x="621.5" y="-159.5" font-family="Helvetica,sans-Serif" font-size="10.00">AmcCarrierTiming</text>
</a>
</g>
</g>
<!-- Node2&#45;&gt;Node4 -->
<g id="edge4" class="edge">
<title>Node2&#45;&gt;Node4</title>
<path fill="none" stroke="midnightblue" d="M505.81,-188.18C529.28,-182.82 556.67,-176.57 578.79,-171.52"/>
<polygon fill="midnightblue" stroke="midnightblue" points="504.99,-184.77 496.01,-190.41 506.54,-191.6 504.99,-184.77"/>
</g>
<!-- Node3 -->
<g id="node3" class="node">
<title>Node3</title>
<g id="a_node3"><a xlink:href="classAmcCarrierEthFsbl.html" target="_top" xlink:title=" ">
<polygon fill="white" stroke="black" points="568,-114.5 568,-133.5 675,-133.5 675,-114.5 568,-114.5"/>
<text text-anchor="middle" x="621.5" y="-121.5" font-family="Helvetica,sans-Serif" font-size="10.00">AmcCarrierEthFsbl</text>
</a>
</g>
</g>
<!-- Node3&#45;&gt;Node1 -->
<g id="edge2" class="edge">
<title>Node3&#45;&gt;Node1</title>
<path fill="none" stroke="midnightblue" d="M685.56,-124C695.13,-124 704.83,-124 713.91,-124"/>
<polygon fill="midnightblue" stroke="midnightblue" points="685.27,-120.5 675.27,-124 685.27,-127.5 685.27,-120.5"/>
</g>
<!-- Node4&#45;&gt;Node1 -->
<g id="edge3" class="edge">
<title>Node4&#45;&gt;Node1</title>
<path fill="none" stroke="midnightblue" d="M666.75,-149.68C685.5,-144.46 707.03,-138.47 724.57,-133.59"/>
<polygon fill="midnightblue" stroke="midnightblue" points="665.64,-146.36 656.94,-152.41 667.52,-153.1 665.64,-146.36"/>
</g>
<!-- Node5 -->
<g id="node5" class="node">
<title>Node5</title>
<g id="a_node5"><a xlink:href="classAmcCarrierBsa.html" target="_top" xlink:title=" ">
<polygon fill="white" stroke="black" points="577,-76.5 577,-95.5 666,-95.5 666,-76.5 577,-76.5"/>
<text text-anchor="middle" x="621.5" y="-83.5" font-family="Helvetica,sans-Serif" font-size="10.00">AmcCarrierBsa</text>
</a>
</g>
</g>
<!-- Node5&#45;&gt;Node1 -->
<g id="edge5" class="edge">
<title>Node5&#45;&gt;Node1</title>
<path fill="none" stroke="midnightblue" d="M666.75,-98.32C685.5,-103.54 707.03,-109.53 724.57,-114.41"/>
<polygon fill="midnightblue" stroke="midnightblue" points="667.52,-94.9 656.94,-95.59 665.64,-101.64 667.52,-94.9"/>
</g>
<!-- Node6 -->
<g id="node6" class="node">
<title>Node6</title>
<g id="a_node6"><a xlink:href="classBsaWaveformEngine.html" target="_top" xlink:title=" ">
<polygon fill="white" stroke="black" points="387.5,-152.5 387.5,-171.5 518.5,-171.5 518.5,-152.5 387.5,-152.5"/>
<text text-anchor="middle" x="453" y="-159.5" font-family="Helvetica,sans-Serif" font-size="10.00">BsaWaveformEngine(2)</text>
</a>
</g>
</g>
<!-- Node6&#45;&gt;Node5 -->
<g id="edge6" class="edge">
<title>Node6&#45;&gt;Node5</title>
<path fill="none" stroke="midnightblue" d="M517.24,-148.82C521.32,-147.11 525.28,-145.18 529,-143 549.07,-131.23 545.43,-117.58 565,-105 570.91,-101.2 577.67,-98.07 584.39,-95.52"/>
<polygon fill="midnightblue" stroke="midnightblue" points="515.68,-145.66 507.53,-152.43 518.12,-152.22 515.68,-145.66"/>
</g>
<!-- Node7 -->
<g id="node7" class="node">
<title>Node7</title>
<g id="a_node7"><a xlink:href="classBsaBufferControl.html" target="_top" xlink:title=" ">
<polygon fill="white" stroke="black" points="403.5,-114.5 403.5,-133.5 502.5,-133.5 502.5,-114.5 403.5,-114.5"/>
<text text-anchor="middle" x="453" y="-121.5" font-family="Helvetica,sans-Serif" font-size="10.00">BsaBufferControl</text>
</a>
</g>
</g>
<!-- Node7&#45;&gt;Node5 -->
<g id="edge7" class="edge">
<title>Node7&#45;&gt;Node5</title>
<path fill="none" stroke="midnightblue" d="M505.81,-112.18C529.28,-106.82 556.67,-100.57 578.79,-95.52"/>
<polygon fill="midnightblue" stroke="midnightblue" points="504.99,-108.77 496.01,-114.41 506.54,-115.6 504.99,-108.77"/>
</g>
<!-- Node8 -->
<g id="node8" class="node">
<title>Node8</title>
<g id="a_node8"><a xlink:href="classBsaAccumulator.html" target="_top" xlink:title=" ">
<polygon fill="white" stroke="black" points="245,-114.5 245,-133.5 341,-133.5 341,-114.5 245,-114.5"/>
<text text-anchor="middle" x="293" y="-121.5" font-family="Helvetica,sans-Serif" font-size="10.00">BsaAccumulator</text>
</a>
</g>
</g>
<!-- Node8&#45;&gt;Node7 -->
<g id="edge8" class="edge">
<title>Node8&#45;&gt;Node7</title>
<path fill="none" stroke="midnightblue" d="M351.73,-124C368.64,-124 386.96,-124 403.26,-124"/>
<polygon fill="midnightblue" stroke="midnightblue" points="351.41,-120.5 341.41,-124 351.41,-127.5 351.41,-120.5"/>
</g>
<!-- Node9 -->
<g id="node9" class="node">
<title>Node9</title>
<g id="a_node9"><a xlink:href="classBsssWrapper.html" target="_top" xlink:title=" ">
<polygon fill="white" stroke="black" points="413,-76.5 413,-95.5 493,-95.5 493,-76.5 413,-76.5"/>
<text text-anchor="middle" x="453" y="-83.5" font-family="Helvetica,sans-Serif" font-size="10.00">BsssWrapper</text>
</a>
</g>
</g>
<!-- Node9&#45;&gt;Node5 -->
<g id="edge9" class="edge">
<title>Node9&#45;&gt;Node5</title>
<path fill="none" stroke="midnightblue" d="M503.08,-86C526.43,-86 554.1,-86 576.72,-86"/>
<polygon fill="midnightblue" stroke="midnightblue" points="503.04,-82.5 493.04,-86 503.04,-89.5 503.04,-82.5"/>
</g>
<!-- Node10 -->
<g id="node10" class="node">
<title>Node10</title>
<g id="a_node10"><a xlink:href="classBldAxiStream.html" target="_top" xlink:title=" ">
<polygon fill="white" stroke="black" points="251.5,-57.5 251.5,-76.5 334.5,-76.5 334.5,-57.5 251.5,-57.5"/>
<text text-anchor="middle" x="293" y="-64.5" font-family="Helvetica,sans-Serif" font-size="10.00">BldAxiStream</text>
</a>
</g>
</g>
<!-- Node10&#45;&gt;Node9 -->
<g id="edge10" class="edge">
<title>Node10&#45;&gt;Node9</title>
<path fill="none" stroke="midnightblue" d="M344.87,-73.12C366.9,-75.77 392.28,-78.82 412.81,-81.29"/>
<polygon fill="midnightblue" stroke="midnightblue" points="345.04,-69.61 334.69,-71.89 344.2,-76.56 345.04,-69.61"/>
</g>
<!-- Node14 -->
<g id="node14" class="node">
<title>Node14</title>
<g id="a_node14"><a xlink:href="classBldWrapper.html" target="_top" xlink:title=" ">
<polygon fill="white" stroke="black" points="416,-38.5 416,-57.5 490,-57.5 490,-38.5 416,-38.5"/>
<text text-anchor="middle" x="453" y="-45.5" font-family="Helvetica,sans-Serif" font-size="10.00">BldWrapper</text>
</a>
</g>
</g>
<!-- Node10&#45;&gt;Node14 -->
<g id="edge15" class="edge">
<title>Node10&#45;&gt;Node14</title>
<path fill="none" stroke="midnightblue" d="M344.68,-60.91C367.82,-58.12 394.69,-54.89 415.76,-52.36"/>
<polygon fill="midnightblue" stroke="midnightblue" points="344.2,-57.44 334.69,-62.11 345.04,-64.39 344.2,-57.44"/>
</g>
<!-- Node11 -->
<g id="node11" class="node">
<title>Node11</title>
<g id="a_node11"><a xlink:href="classBldEventSelect.html" target="_top" xlink:title=" ">
<polygon fill="white" stroke="black" points="119,-57.5 119,-76.5 209,-76.5 209,-57.5 119,-57.5"/>
<text text-anchor="middle" x="164" y="-64.5" font-family="Helvetica,sans-Serif" font-size="10.00">BldEventSelect</text>
</a>
</g>
</g>
<!-- Node11&#45;&gt;Node10 -->
<g id="edge11" class="edge">
<title>Node11&#45;&gt;Node10</title>
<path fill="none" stroke="midnightblue" d="M219.25,-67C230.04,-67 241.19,-67 251.42,-67"/>
<polygon fill="midnightblue" stroke="midnightblue" points="219.06,-63.5 209.06,-67 219.06,-70.5 219.06,-63.5"/>
</g>
<!-- Node12 -->
<g id="node12" class="node">
<title>Node12</title>
<g id="a_node12"><a xlink:href="classBldEventRAM.html" target="_top" xlink:title=" ">
<polygon fill="white" stroke="black" points="0,-57.5 0,-76.5 83,-76.5 83,-57.5 0,-57.5"/>
<text text-anchor="middle" x="41.5" y="-64.5" font-family="Helvetica,sans-Serif" font-size="10.00">BldEventRAM</text>
</a>
</g>
</g>
<!-- Node12&#45;&gt;Node11 -->
<g id="edge12" class="edge">
<title>Node12&#45;&gt;Node11</title>
<path fill="none" stroke="midnightblue" d="M93.46,-67C101.93,-67 110.66,-67 118.94,-67"/>
<polygon fill="midnightblue" stroke="midnightblue" points="93.3,-63.5 83.3,-67 93.3,-70.5 93.3,-63.5"/>
</g>
<!-- Node13 -->
<g id="node13" class="node">
<title>Node13</title>
<g id="a_node13"><a xlink:href="classBsaAxiInterconnectWrapper.html" target="_top" xlink:title=" ">
<polygon fill="white" stroke="black" points="377,-0.5 377,-19.5 529,-19.5 529,-0.5 377,-0.5"/>
<text text-anchor="middle" x="453" y="-7.5" font-family="Helvetica,sans-Serif" font-size="10.00">BsaAxiInterconnectWrapper</text>
</a>
</g>
</g>
<!-- Node13&#45;&gt;Node5 -->
<g id="edge13" class="edge">
<title>Node13&#45;&gt;Node5</title>
<path fill="none" stroke="midnightblue" d="M517.24,-23.18C521.32,-24.89 525.28,-26.82 529,-29 549.07,-40.77 545.43,-54.42 565,-67 570.91,-70.8 577.67,-73.93 584.39,-76.48"/>
<polygon fill="midnightblue" stroke="midnightblue" points="518.12,-19.78 507.53,-19.57 515.68,-26.34 518.12,-19.78"/>
</g>
<!-- Node14&#45;&gt;Node5 -->
<g id="edge14" class="edge">
<title>Node14&#45;&gt;Node5</title>
<path fill="none" stroke="midnightblue" d="M499.99,-58.5C524.68,-64.13 554.88,-71.02 578.87,-76.5"/>
<polygon fill="midnightblue" stroke="midnightblue" points="500.66,-55.06 490.13,-56.25 499.1,-61.88 500.66,-55.06"/>
</g>
<!-- Node15 -->
<g id="node15" class="node">
<title>Node15</title>
<g id="a_node15"><a xlink:href="classAmcCarrierDdrMem.html" target="_top" xlink:title=" ">
<polygon fill="white" stroke="black" points="565,-38.5 565,-57.5 678,-57.5 678,-38.5 565,-38.5"/>
<text text-anchor="middle" x="621.5" y="-45.5" font-family="Helvetica,sans-Serif" font-size="10.00">AmcCarrierDdrMem</text>
</a>
</g>
</g>
<!-- Node15&#45;&gt;Node1 -->
<g id="edge16" class="edge">
<title>Node15&#45;&gt;Node1</title>
<path fill="none" stroke="midnightblue" d="M665.11,-61.19C669.54,-62.97 673.91,-64.91 678,-67 704.66,-80.59 732.5,-102.04 747.6,-114.39"/>
<polygon fill="midnightblue" stroke="midnightblue" points="666.01,-57.79 655.42,-57.55 663.55,-64.34 666.01,-57.79"/>
</g>
</g>
</svg>
