<?xml version="1.0" encoding="UTF-8" standalone="no"?>
<!DOCTYPE svg PUBLIC "-//W3C//DTD SVG 1.1//EN"
 "http://www.w3.org/Graphics/SVG/1.1/DTD/svg11.dtd">
<!-- Generated by graphviz version 2.43.0 (0)
 -->
<!-- Title: RtmCryoDet Pages: 1 -->
<svg width="348pt" height="140pt"
 viewBox="0.00 0.00 348.00 140.00" xmlns="http://www.w3.org/2000/svg" xmlns:xlink="http://www.w3.org/1999/xlink">
<g id="graph0" class="graph" transform="scale(1 1) rotate(0) translate(4 136)">
<title>RtmCryoDet</title>
<polygon fill="white" stroke="transparent" points="-4,4 -4,-136 344,-136 344,4 -4,4"/>
<!-- Node1 -->
<g id="node1" class="node">
<title>Node1</title>
<g id="a_node1"><a xlink:title=" ">
<polygon fill="#bfbfbf" stroke="black" points="136,-0.5 136,-19.5 213,-19.5 213,-0.5 136,-0.5"/>
<text text-anchor="middle" x="174.5" y="-7.5" font-family="Helvetica,sans-Serif" font-size="10.00">RtmCryoDet</text>
</a>
</g>
</g>
<!-- Node2 -->
<g id="node2" class="node">
<title>Node2</title>
<g id="a_node2"><a xlink:href="classRtmCryoDetReg.html" target="_top" xlink:title=" ">
<polygon fill="white" stroke="black" points="7,-56.5 7,-75.5 102,-75.5 102,-56.5 7,-56.5"/>
<text text-anchor="middle" x="54.5" y="-63.5" font-family="Helvetica,sans-Serif" font-size="10.00">RtmCryoDetReg</text>
</a>
</g>
</g>
<!-- Node2&#45;&gt;Node1 -->
<g id="edge1" class="edge">
<title>Node2&#45;&gt;Node1</title>
<path fill="none" stroke="midnightblue" d="M82.87,-52.23C105.32,-42.13 136.04,-28.31 155.57,-19.52"/>
<polygon fill="midnightblue" stroke="midnightblue" points="81.2,-49.15 73.51,-56.44 84.07,-55.53 81.2,-49.15"/>
</g>
<!-- Node3 -->
<g id="node3" class="node">
<title>Node3</title>
<g id="a_node3"><a xlink:href="classRtmCryoDetClkDiv.html" target="_top" xlink:title=" ">
<polygon fill="white" stroke="black" points="0,-112.5 0,-131.5 109,-131.5 109,-112.5 0,-112.5"/>
<text text-anchor="middle" x="54.5" y="-119.5" font-family="Helvetica,sans-Serif" font-size="10.00">RtmCryoDetClkDiv</text>
</a>
</g>
</g>
<!-- Node3&#45;&gt;Node2 -->
<g id="edge2" class="edge">
<title>Node3&#45;&gt;Node2</title>
<path fill="none" stroke="midnightblue" d="M54.5,-101.8C54.5,-92.91 54.5,-82.78 54.5,-75.75"/>
<polygon fill="midnightblue" stroke="midnightblue" points="51,-102.08 54.5,-112.08 58,-102.08 51,-102.08"/>
</g>
<!-- Node4 -->
<g id="node4" class="node">
<title>Node4</title>
<g id="a_node4"><a xlink:href="classRtmCryoSpiMaster.html" target="_top" xlink:title=" ">
<polygon fill="white" stroke="black" points="120.5,-56.5 120.5,-75.5 228.5,-75.5 228.5,-56.5 120.5,-56.5"/>
<text text-anchor="middle" x="174.5" y="-63.5" font-family="Helvetica,sans-Serif" font-size="10.00">RtmCryoSpiMaster</text>
</a>
</g>
</g>
<!-- Node4&#45;&gt;Node1 -->
<g id="edge3" class="edge">
<title>Node4&#45;&gt;Node1</title>
<path fill="none" stroke="midnightblue" d="M174.5,-45.8C174.5,-36.91 174.5,-26.78 174.5,-19.75"/>
<polygon fill="midnightblue" stroke="midnightblue" points="171,-46.08 174.5,-56.08 178,-46.08 171,-46.08"/>
</g>
<!-- Node5 -->
<g id="node5" class="node">
<title>Node5</title>
<g id="a_node5"><a xlink:href="classRtmCryoDacLut.html" target="_top" xlink:title=" ">
<polygon fill="white" stroke="black" points="247,-56.5 247,-75.5 340,-75.5 340,-56.5 247,-56.5"/>
<text text-anchor="middle" x="293.5" y="-63.5" font-family="Helvetica,sans-Serif" font-size="10.00">RtmCryoDacLut</text>
</a>
</g>
</g>
<!-- Node5&#45;&gt;Node1 -->
<g id="edge4" class="edge">
<title>Node5&#45;&gt;Node1</title>
<path fill="none" stroke="midnightblue" d="M265.36,-52.23C243.1,-42.13 212.64,-28.31 193.27,-19.52"/>
<polygon fill="midnightblue" stroke="midnightblue" points="264.09,-55.5 274.64,-56.44 266.98,-49.12 264.09,-55.5"/>
</g>
</g>
</svg>
