<?xml version="1.0" encoding="UTF-8" standalone="no"?>
<!DOCTYPE svg PUBLIC "-//W3C//DTD SVG 1.1//EN"
 "http://www.w3.org/Graphics/SVG/1.1/DTD/svg11.dtd">
<!-- Generated by graphviz version 2.43.0 (0)
 -->
<!-- Title: AmcCryoDemoCore Pages: 1 -->
<svg width="172pt" height="137pt"
 viewBox="0.00 0.00 172.00 137.00" xmlns="http://www.w3.org/2000/svg" xmlns:xlink="http://www.w3.org/1999/xlink">

<svg id="main" version="1.1" xmlns="http://www.w3.org/2000/svg" xmlns:xlink="http://www.w3.org/1999/xlink" xml:space="preserve" onload="init(evt)">
<style type="text/css"><![CDATA[
.node, .edge {opacity: 0.7;}
.node.selected, .edge.selected {opacity: 1;}
.edge:hover path { stroke: red; }
.edge:hover polygon { stroke: red; fill: red; }
]]></style>
<script type="application/ecmascript" xlink:href="svg.min.js"/>
<svg id="graph" class="graph">
<g id="graph0" class="graph" transform="scale(1 1) rotate(0) translate(4 133)">
<title>AmcCryoDemoCore</title>
<!-- Node1 -->
<g id="Node000001" class="node">
<title>Node1</title>
<g id="a_Node000001"><a xlink:title=" ">
<polygon fill="#999999" stroke="#666666" points="136,-74 23,-74 23,-55 136,-55 136,-74"/>
<text text-anchor="middle" x="79.5" y="-62" font-family="Helvetica,sans-Serif" font-size="10.00">AmcCryoDemoCore</text>
</a>
</g>
</g>
<!-- Node4 -->
<g id="Node000004" class="node">
<title>Node4</title>
<g id="a_Node000004"><a xlink:href="classAmcCryoDemoDualCore.html" target="_top" xlink:title=" ">
<polygon fill="white" stroke="#bfbfbf" points="147,-19 12,-19 12,0 147,0 147,-19"/>
<text text-anchor="middle" x="79.5" y="-7" font-family="Helvetica,sans-Serif" font-size="10.00">AmcCryoDemoDualCore</text>
</a>
</g>
</g>
<!-- Node1&#45;&gt;Node4 -->
<g id="edge3_Node000001_Node000004" class="edge">
<title>Node1&#45;&gt;Node4</title>
<g id="a_edge3_Node000001_Node000004"><a xlink:title=" ">
<path fill="none" stroke="#63b8ff" d="M79.5,-44.66C79.5,-35.93 79.5,-25.99 79.5,-19.09"/>
<polygon fill="#63b8ff" stroke="#63b8ff" points="76,-44.75 79.5,-54.75 83,-44.75 76,-44.75"/>
</a>
</g>
</g>
<!-- Node2 -->
<g id="Node000002" class="node">
<title>Node2</title>
<g id="a_Node000002"><a xlink:href="classJesdSyncIn.html" target="_top" xlink:title=" ">
<polygon fill="white" stroke="#bfbfbf" points="69,-129 0,-129 0,-110 69,-110 69,-129"/>
<text text-anchor="middle" x="34.5" y="-117" font-family="Helvetica,sans-Serif" font-size="10.00">JesdSyncIn</text>
</a>
</g>
</g>
<!-- Node2&#45;&gt;Node1 -->
<g id="edge1_Node000001_Node000002" class="edge">
<title>Node2&#45;&gt;Node1</title>
<g id="a_edge1_Node000001_Node000002"><a xlink:title=" ">
<path fill="none" stroke="#63b8ff" d="M48.55,-101.96C56.39,-92.72 65.83,-81.6 72.21,-74.09"/>
<polygon fill="#63b8ff" stroke="#63b8ff" points="45.74,-99.86 41.93,-109.75 51.07,-104.39 45.74,-99.86"/>
</a>
</g>
</g>
<!-- Node3 -->
<g id="Node000003" class="node">
<title>Node3</title>
<g id="a_Node000003"><a xlink:href="classJesdSyncOut.html" target="_top" xlink:title=" ">
<polygon fill="white" stroke="#bfbfbf" points="164,-129 87,-129 87,-110 164,-110 164,-129"/>
<text text-anchor="middle" x="125.5" y="-117" font-family="Helvetica,sans-Serif" font-size="10.00">JesdSyncOut</text>
</a>
</g>
</g>
<!-- Node3&#45;&gt;Node1 -->
<g id="edge2_Node000001_Node000003" class="edge">
<title>Node3&#45;&gt;Node1</title>
<g id="a_edge2_Node000001_Node000003"><a xlink:title=" ">
<path fill="none" stroke="#63b8ff" d="M111.14,-101.96C103.13,-92.72 93.47,-81.6 86.95,-74.09"/>
<polygon fill="#63b8ff" stroke="#63b8ff" points="108.71,-104.49 117.9,-109.75 113.99,-99.9 108.71,-104.49"/>
</a>
</g>
</g>
</g>
</svg>
</svg>

<style type='text/css'>
<![CDATA[
[data-mouse-over-selected='false'] { opacity: 0.7; }
[data-mouse-over-selected='true']  { opacity: 1.0; }
]]>
</style>
<script type="application/ecmascript"><![CDATA[
document.addEventListener('DOMContentLoaded', (event) => {
  highlightEdges();
  highlightAdjacentNodes();
});
]]></script>
</svg>
