<?xml version="1.0" encoding="UTF-8" standalone="no"?>
<!DOCTYPE svg PUBLIC "-//W3C//DTD SVG 1.1//EN"
 "http://www.w3.org/Graphics/SVG/1.1/DTD/svg11.dtd">
<!-- Generated by graphviz version 2.43.0 (0)
 -->
<!-- Title: DaqDecimator Pages: 1 -->
<svg width="223pt" height="192pt"
 viewBox="0.00 0.00 222.50 192.00" xmlns="http://www.w3.org/2000/svg" xmlns:xlink="http://www.w3.org/1999/xlink">
<g id="graph0" class="graph" transform="scale(1 1) rotate(0) translate(4 188)">
<title>DaqDecimator</title>
<!-- Node1 -->
<g id="Node000001" class="node">
<title>Node1</title>
<g id="a_Node000001"><a xlink:title=" ">
<polygon fill="#999999" stroke="#666666" points="159.5,-184 72.5,-184 72.5,-165 159.5,-165 159.5,-184"/>
<text text-anchor="middle" x="116" y="-172" font-family="Helvetica,sans-Serif" font-size="10.00">DaqDecimator</text>
</a>
</g>
</g>
<!-- Node2 -->
<g id="Node000002" class="node">
<title>Node2</title>
<g id="a_Node000002"><a xlink:href="classDaqLane.html" target="_top" xlink:title=" ">
<polygon fill="white" stroke="#bfbfbf" points="97.5,-129 38.5,-129 38.5,-110 97.5,-110 97.5,-129"/>
<text text-anchor="middle" x="68" y="-117" font-family="Helvetica,sans-Serif" font-size="10.00">DaqLane</text>
</a>
</g>
</g>
<!-- Node1&#45;&gt;Node2 -->
<g id="edge1_Node000001_Node000002" class="edge">
<title>Node1&#45;&gt;Node2</title>
<g id="a_edge1_Node000001_Node000002"><a xlink:title=" ">
<path fill="none" stroke="#63b8ff" d="M101.27,-157.24C92.86,-147.95 82.65,-136.68 75.78,-129.09"/>
<polygon fill="#63b8ff" stroke="#63b8ff" points="98.77,-159.69 108.07,-164.75 103.96,-154.99 98.77,-159.69"/>
</a>
</g>
</g>
<!-- Node6 -->
<g id="Node000006" class="node">
<title>Node6</title>
<g id="a_Node000006"><a xlink:href="classDaqDecimatorTb.html" target="_top" xlink:title=" ">
<polygon fill="white" stroke="#bfbfbf" points="214.5,-129 115.5,-129 115.5,-110 214.5,-110 214.5,-129"/>
<text text-anchor="middle" x="165" y="-117" font-family="Helvetica,sans-Serif" font-size="10.00">DaqDecimatorTb</text>
</a>
</g>
</g>
<!-- Node1&#45;&gt;Node6 -->
<g id="edge5_Node000001_Node000006" class="edge">
<title>Node1&#45;&gt;Node6</title>
<g id="a_edge5_Node000001_Node000006"><a xlink:title=" ">
<path fill="none" stroke="#63b8ff" d="M131.03,-157.24C139.62,-147.95 150.04,-136.68 157.06,-129.09"/>
<polygon fill="#63b8ff" stroke="#63b8ff" points="128.31,-155.03 124.09,-164.75 133.45,-159.78 128.31,-155.03"/>
</a>
</g>
</g>
<!-- Node3 -->
<g id="Node000003" class="node">
<title>Node3</title>
<g id="a_Node000003"><a xlink:href="classDaqMuxV2.html" target="_top" xlink:title=" ">
<polygon fill="white" stroke="#bfbfbf" points="103,-74 33,-74 33,-55 103,-55 103,-74"/>
<text text-anchor="middle" x="68" y="-62" font-family="Helvetica,sans-Serif" font-size="10.00">DaqMuxV2</text>
</a>
</g>
</g>
<!-- Node2&#45;&gt;Node3 -->
<g id="edge2_Node000002_Node000003" class="edge">
<title>Node2&#45;&gt;Node3</title>
<g id="a_edge2_Node000002_Node000003"><a xlink:title=" ">
<path fill="none" stroke="#63b8ff" d="M68,-99.66C68,-90.93 68,-80.99 68,-74.09"/>
<polygon fill="#63b8ff" stroke="#63b8ff" points="64.5,-99.75 68,-109.75 71.5,-99.75 64.5,-99.75"/>
</a>
</g>
</g>
<!-- Node4 -->
<g id="Node000004" class="node">
<title>Node4</title>
<g id="a_Node000004"><a xlink:href="classAppTop.html" target="_top" xlink:title=" ">
<polygon fill="white" stroke="#bfbfbf" points="52,-19 0,-19 0,0 52,0 52,-19"/>
<text text-anchor="middle" x="26" y="-7" font-family="Helvetica,sans-Serif" font-size="10.00">AppTop</text>
</a>
</g>
</g>
<!-- Node3&#45;&gt;Node4 -->
<g id="edge3_Node000003_Node000004" class="edge">
<title>Node3&#45;&gt;Node4</title>
<g id="a_edge3_Node000003_Node000004"><a xlink:title=" ">
<path fill="none" stroke="#63b8ff" d="M54.67,-46.67C47.39,-37.5 38.7,-26.52 32.81,-19.09"/>
<polygon fill="#63b8ff" stroke="#63b8ff" points="52.11,-49.08 61.06,-54.75 57.6,-44.74 52.11,-49.08"/>
</a>
</g>
</g>
<!-- Node5 -->
<g id="Node000005" class="node">
<title>Node5</title>
<g id="a_Node000005"><a xlink:href="classDaqMuxV2Tb.html" target="_top" xlink:title=" ">
<polygon fill="white" stroke="#bfbfbf" points="152,-19 70,-19 70,0 152,0 152,-19"/>
<text text-anchor="middle" x="111" y="-7" font-family="Helvetica,sans-Serif" font-size="10.00">DaqMuxV2Tb</text>
</a>
</g>
</g>
<!-- Node3&#45;&gt;Node5 -->
<g id="edge4_Node000003_Node000005" class="edge">
<title>Node3&#45;&gt;Node5</title>
<g id="a_edge4_Node000003_Node000005"><a xlink:title=" ">
<path fill="none" stroke="#63b8ff" d="M81.42,-46.96C88.91,-37.72 97.94,-26.6 104.03,-19.09"/>
<polygon fill="#63b8ff" stroke="#63b8ff" points="78.68,-44.78 75.1,-54.75 84.12,-49.19 78.68,-44.78"/>
</a>
</g>
</g>
</g>
</svg>
