<?xml version="1.0" encoding="UTF-8" standalone="no"?>
<!DOCTYPE svg PUBLIC "-//W3C//DTD SVG 1.1//EN"
 "http://www.w3.org/Graphics/SVG/1.1/DTD/svg11.dtd">
<!-- Generated by graphviz version 2.43.0 (0)
 -->
<!-- Title: DaqLane Pages: 1 -->
<svg width="184pt" height="196pt"
 viewBox="0.00 0.00 184.00 196.00" xmlns="http://www.w3.org/2000/svg" xmlns:xlink="http://www.w3.org/1999/xlink">
<g id="graph0" class="graph" transform="scale(1 1) rotate(0) translate(4 192)">
<title>DaqLane</title>
<polygon fill="white" stroke="transparent" points="-4,4 -4,-192 180,-192 180,4 -4,4"/>
<!-- Node1 -->
<g id="node1" class="node">
<title>Node1</title>
<g id="a_node1"><a xlink:title=" ">
<polygon fill="#bfbfbf" stroke="black" points="54,-112.5 54,-131.5 113,-131.5 113,-112.5 54,-112.5"/>
<text text-anchor="middle" x="83.5" y="-119.5" font-family="Helvetica,sans-Serif" font-size="10.00">DaqLane</text>
</a>
</g>
</g>
<!-- Node4 -->
<g id="node4" class="node">
<title>Node4</title>
<g id="a_node4"><a xlink:href="classDaqMuxV2.html" target="_top" xlink:title=" ">
<polygon fill="white" stroke="black" points="48.5,-56.5 48.5,-75.5 118.5,-75.5 118.5,-56.5 48.5,-56.5"/>
<text text-anchor="middle" x="83.5" y="-63.5" font-family="Helvetica,sans-Serif" font-size="10.00">DaqMuxV2</text>
</a>
</g>
</g>
<!-- Node1&#45;&gt;Node4 -->
<g id="edge3" class="edge">
<title>Node1&#45;&gt;Node4</title>
<path fill="none" stroke="midnightblue" d="M83.5,-101.8C83.5,-92.91 83.5,-82.78 83.5,-75.75"/>
<polygon fill="midnightblue" stroke="midnightblue" points="80,-102.08 83.5,-112.08 87,-102.08 80,-102.08"/>
</g>
<!-- Node2 -->
<g id="node2" class="node">
<title>Node2</title>
<g id="a_node2"><a xlink:href="classDaqTestSig.html" target="_top" xlink:title=" ">
<polygon fill="white" stroke="black" points="0,-168.5 0,-187.5 71,-187.5 71,-168.5 0,-168.5"/>
<text text-anchor="middle" x="35.5" y="-175.5" font-family="Helvetica,sans-Serif" font-size="10.00">DaqTestSig</text>
</a>
</g>
</g>
<!-- Node2&#45;&gt;Node1 -->
<g id="edge1" class="edge">
<title>Node2&#45;&gt;Node1</title>
<path fill="none" stroke="midnightblue" d="M50.23,-160.43C58.64,-150.97 68.85,-139.48 75.72,-131.75"/>
<polygon fill="midnightblue" stroke="midnightblue" points="47.45,-158.28 43.43,-168.08 52.69,-162.93 47.45,-158.28"/>
</g>
<!-- Node3 -->
<g id="node3" class="node">
<title>Node3</title>
<g id="a_node3"><a xlink:href="classDaqDecimator.html" target="_top" xlink:title=" ">
<polygon fill="white" stroke="black" points="89,-168.5 89,-187.5 176,-187.5 176,-168.5 89,-168.5"/>
<text text-anchor="middle" x="132.5" y="-175.5" font-family="Helvetica,sans-Serif" font-size="10.00">DaqDecimator</text>
</a>
</g>
</g>
<!-- Node3&#45;&gt;Node1 -->
<g id="edge2" class="edge">
<title>Node3&#45;&gt;Node1</title>
<path fill="none" stroke="midnightblue" d="M117.47,-160.43C108.88,-150.97 98.46,-139.48 91.44,-131.75"/>
<polygon fill="midnightblue" stroke="midnightblue" points="115.1,-163.03 124.41,-168.08 120.28,-158.33 115.1,-163.03"/>
</g>
<!-- Node5 -->
<g id="node5" class="node">
<title>Node5</title>
<g id="a_node5"><a xlink:href="classAppTop.html" target="_top" xlink:title=" ">
<polygon fill="white" stroke="black" points="15.5,-0.5 15.5,-19.5 67.5,-19.5 67.5,-0.5 15.5,-0.5"/>
<text text-anchor="middle" x="41.5" y="-7.5" font-family="Helvetica,sans-Serif" font-size="10.00">AppTop</text>
</a>
</g>
</g>
<!-- Node4&#45;&gt;Node5 -->
<g id="edge4" class="edge">
<title>Node4&#45;&gt;Node5</title>
<path fill="none" stroke="midnightblue" d="M70.39,-48.14C63.07,-38.74 54.26,-27.4 48.31,-19.75"/>
<polygon fill="midnightblue" stroke="midnightblue" points="67.66,-50.34 76.56,-56.08 73.19,-46.04 67.66,-50.34"/>
</g>
<!-- Node6 -->
<g id="node6" class="node">
<title>Node6</title>
<g id="a_node6"><a xlink:href="classDaqMuxV2Tb.html" target="_top" xlink:title=" ">
<polygon fill="white" stroke="black" points="85.5,-0.5 85.5,-19.5 167.5,-19.5 167.5,-0.5 85.5,-0.5"/>
<text text-anchor="middle" x="126.5" y="-7.5" font-family="Helvetica,sans-Serif" font-size="10.00">DaqMuxV2Tb</text>
</a>
</g>
</g>
<!-- Node4&#45;&gt;Node6 -->
<g id="edge5" class="edge">
<title>Node4&#45;&gt;Node6</title>
<path fill="none" stroke="midnightblue" d="M96.92,-48.14C104.41,-38.74 113.44,-27.4 119.53,-19.75"/>
<polygon fill="midnightblue" stroke="midnightblue" points="94.09,-46.08 90.6,-56.08 99.57,-50.44 94.09,-46.08"/>
</g>
</g>
</svg>
