<?xml version="1.0" encoding="UTF-8" standalone="no"?>
<!DOCTYPE svg PUBLIC "-//W3C//DTD SVG 1.1//EN"
 "http://www.w3.org/Graphics/SVG/1.1/DTD/svg11.dtd">
<!-- Generated by graphviz version 2.43.0 (0)
 -->
<!-- Title: AmcCarrierSysReg Pages: 1 -->
<svg width="390pt" height="137pt"
 viewBox="0.00 0.00 390.00 137.00" xmlns="http://www.w3.org/2000/svg" xmlns:xlink="http://www.w3.org/1999/xlink">
<g id="graph0" class="graph" transform="scale(1 1) rotate(0) translate(4 133)">
<title>AmcCarrierSysReg</title>
<!-- Node1 -->
<g id="Node000001" class="node">
<title>Node1</title>
<g id="a_Node000001"><a xlink:title=" ">
<polygon fill="#999999" stroke="#666666" points="242.5,-74 135.5,-74 135.5,-55 242.5,-55 242.5,-74"/>
<text text-anchor="middle" x="189" y="-62" font-family="Helvetica,sans-Serif" font-size="10.00">AmcCarrierSysReg</text>
</a>
</g>
</g>
<!-- Node4 -->
<g id="Node000004" class="node">
<title>Node4</title>
<g id="a_Node000004"><a xlink:href="classAmcCarrierCoreFsbl.html" target="_top" xlink:title=" ">
<polygon fill="white" stroke="#bfbfbf" points="114,-19 0,-19 0,0 114,0 114,-19"/>
<text text-anchor="middle" x="57" y="-7" font-family="Helvetica,sans-Serif" font-size="10.00">AmcCarrierCoreFsbl</text>
</a>
</g>
</g>
<!-- Node1&#45;&gt;Node4 -->
<g id="edge3_Node000001_Node000004" class="edge">
<title>Node1&#45;&gt;Node4</title>
<g id="a_edge3_Node000001_Node000004"><a xlink:title=" ">
<path fill="none" stroke="#63b8ff" d="M158.27,-51.16C133.83,-41.35 100.26,-27.87 78.59,-19.17"/>
<polygon fill="#63b8ff" stroke="#63b8ff" points="157.21,-54.51 167.79,-54.98 159.82,-48.01 157.21,-54.51"/>
</a>
</g>
</g>
<!-- Node5 -->
<g id="Node000005" class="node">
<title>Node5</title>
<g id="a_Node000005"><a xlink:href="classAmcCarrierCoreAdv.html" target="_top" xlink:title=" ">
<polygon fill="white" stroke="#bfbfbf" points="245.5,-19 132.5,-19 132.5,0 245.5,0 245.5,-19"/>
<text text-anchor="middle" x="189" y="-7" font-family="Helvetica,sans-Serif" font-size="10.00">AmcCarrierCoreAdv</text>
</a>
</g>
</g>
<!-- Node1&#45;&gt;Node5 -->
<g id="edge4_Node000001_Node000005" class="edge">
<title>Node1&#45;&gt;Node5</title>
<g id="a_edge4_Node000001_Node000005"><a xlink:title=" ">
<path fill="none" stroke="#63b8ff" d="M189,-44.66C189,-35.93 189,-25.99 189,-19.09"/>
<polygon fill="#63b8ff" stroke="#63b8ff" points="185.5,-44.75 189,-54.75 192.5,-44.75 185.5,-44.75"/>
</a>
</g>
</g>
<!-- Node6 -->
<g id="Node000006" class="node">
<title>Node6</title>
<g id="a_Node000006"><a xlink:href="classAmcCarrierCoreBase.html" target="_top" xlink:title=" ">
<polygon fill="white" stroke="#bfbfbf" points="382,-19 264,-19 264,0 382,0 382,-19"/>
<text text-anchor="middle" x="323" y="-7" font-family="Helvetica,sans-Serif" font-size="10.00">AmcCarrierCoreBase</text>
</a>
</g>
</g>
<!-- Node1&#45;&gt;Node6 -->
<g id="edge5_Node000001_Node000006" class="edge">
<title>Node1&#45;&gt;Node6</title>
<g id="a_edge5_Node000001_Node000006"><a xlink:title=" ">
<path fill="none" stroke="#63b8ff" d="M219.87,-51.29C244.7,-41.47 278.99,-27.91 301.08,-19.17"/>
<polygon fill="#63b8ff" stroke="#63b8ff" points="218.54,-48.05 210.53,-54.98 221.12,-54.56 218.54,-48.05"/>
</a>
</g>
</g>
<!-- Node2 -->
<g id="Node000002" class="node">
<title>Node2</title>
<g id="a_Node000002"><a xlink:href="classAmcCarrierSysMon.html" target="_top" xlink:title=" ">
<polygon fill="white" stroke="#bfbfbf" points="186,-129 76,-129 76,-110 186,-110 186,-129"/>
<text text-anchor="middle" x="131" y="-117" font-family="Helvetica,sans-Serif" font-size="10.00">AmcCarrierSysMon</text>
</a>
</g>
</g>
<!-- Node2&#45;&gt;Node1 -->
<g id="edge1_Node000001_Node000002" class="edge">
<title>Node2&#45;&gt;Node1</title>
<g id="a_edge1_Node000001_Node000002"><a xlink:title=" ">
<path fill="none" stroke="#63b8ff" d="M147.91,-103.04C158.2,-93.64 170.97,-81.98 179.51,-74.17"/>
<polygon fill="#63b8ff" stroke="#63b8ff" points="145.34,-100.66 140.32,-109.98 150.06,-105.82 145.34,-100.66"/>
</a>
</g>
</g>
<!-- Node3 -->
<g id="Node000003" class="node">
<title>Node3</title>
<g id="a_Node000003"><a xlink:href="classAmcCarrierBsi.html" target="_top" xlink:title=" ">
<polygon fill="white" stroke="#bfbfbf" points="290,-129 204,-129 204,-110 290,-110 290,-129"/>
<text text-anchor="middle" x="247" y="-117" font-family="Helvetica,sans-Serif" font-size="10.00">AmcCarrierBsi</text>
</a>
</g>
</g>
<!-- Node3&#45;&gt;Node1 -->
<g id="edge2_Node000001_Node000003" class="edge">
<title>Node3&#45;&gt;Node1</title>
<g id="a_edge2_Node000001_Node000003"><a xlink:title=" ">
<path fill="none" stroke="#63b8ff" d="M230.09,-103.04C219.8,-93.64 207.03,-81.98 198.49,-74.17"/>
<polygon fill="#63b8ff" stroke="#63b8ff" points="227.94,-105.82 237.68,-109.98 232.66,-100.66 227.94,-105.82"/>
</a>
</g>
</g>
</g>
</svg>
