<?xml version="1.0" encoding="UTF-8" standalone="no"?>
<!DOCTYPE svg PUBLIC "-//W3C//DTD SVG 1.1//EN"
 "http://www.w3.org/Graphics/SVG/1.1/DTD/svg11.dtd">
<!-- Generated by graphviz version 2.43.0 (0)
 -->
<!-- Title: AmcCarrierBsa Pages: 1 -->
<!--zoomable 218 -->
<svg id="main" version="1.1" xmlns="http://www.w3.org/2000/svg" xmlns:xlink="http://www.w3.org/1999/xlink" xml:space="preserve" onload="init(evt)">
<style type="text/css"><![CDATA[
.edge:hover path { stroke: red; }
.edge:hover polygon { stroke: red; fill: red; }
]]></style>
<script type="text/javascript"><![CDATA[
var edges = document.getElementsByTagName('g');
if (edges && edges.length) {
  for (var i=0;i<edges.length;i++) {
    if (edges[i].id.substr(0,4)=='edge') {
      edges[i].setAttribute('class','edge');
    }
  }
}
]]></script>
        <defs>
                <circle id="rim" cx="0" cy="0" r="7"/>
                <circle id="rim2" cx="0" cy="0" r="3.5"/>
                <g id="zoomPlus">
                        <use xlink:href="#rim" fill="#404040">
                                <set attributeName="fill" to="#808080" begin="zoomplus.mouseover" end="zoomplus.mouseout"/>
                        </use>
                        <path d="M-4,0h8M0,-4v8" fill="none" stroke="white" stroke-width="1.5" pointer-events="none"/>
                </g>
                <g id="zoomMin">
                        <use xlink:href="#rim" fill="#404040">
                                <set attributeName="fill" to="#808080" begin="zoomminus.mouseover" end="zoomminus.mouseout"/>
                        </use>
                        <path d="M-4,0h8" fill="none" stroke="white" stroke-width="1.5" pointer-events="none"/>
                </g>
                <g id="dirArrow">
                        <path fill="none" stroke="white" stroke-width="1.5" d="M0,-3.0v7 M-2.5,-0.5L0,-3.0L2.5,-0.5"/>
                </g>
               <g id="resetDef">
                       <use xlink:href="#rim2" fill="#404040">
                               <set attributeName="fill" to="#808080" begin="reset.mouseover" end="reset.mouseout"/>
                       </use>
               </g>
        </defs>

<script type="text/javascript">
var viewWidth = 673;
var viewHeight = 218;
var sectionId = 'dynsection-1';
</script>
<script xlink:href="svgpan.js"/>
<svg id="graph" class="graph">
<g id="viewport">
<title>AmcCarrierBsa</title>
<polygon fill="white" stroke="transparent" points="-4,4 -4,-214 669,-214 669,4 -4,4"/>
<!-- Node1 -->
<g id="node1" class="node">
<title>Node1</title>
<g id="a_node1"><a xlink:title=" ">
<polygon fill="#bfbfbf" stroke="black" points="576,-95.5 576,-114.5 665,-114.5 665,-95.5 576,-95.5"/>
<text text-anchor="middle" x="620.5" y="-102.5" font-family="Helvetica,sans-Serif" font-size="10.00">AmcCarrierBsa</text>
</a>
</g>
</g>
<!-- Node2 -->
<g id="node2" class="node">
<title>Node2</title>
<g id="a_node2"><a xlink:href="classBsaWaveformEngine.html" target="_top" xlink:title=" ">
<polygon fill="white" stroke="black" points="398.5,-190.5 398.5,-209.5 529.5,-209.5 529.5,-190.5 398.5,-190.5"/>
<text text-anchor="middle" x="464" y="-197.5" font-family="Helvetica,sans-Serif" font-size="10.00">BsaWaveformEngine(2)</text>
</a>
</g>
</g>
<!-- Node2&#45;&gt;Node1 -->
<g id="edge1" class="edge">
<title>Node2&#45;&gt;Node1</title>
<path fill="none" stroke="midnightblue" d="M527.33,-186.92C531.72,-185.18 535.99,-183.22 540,-181 571.41,-163.62 599.56,-130.78 612.3,-114.56"/>
<polygon fill="midnightblue" stroke="midnightblue" points="525.82,-183.74 517.57,-190.38 528.16,-190.34 525.82,-183.74"/>
</g>
<!-- Node3 -->
<g id="node3" class="node">
<title>Node3</title>
<g id="a_node3"><a xlink:href="classBsaBufferControl.html" target="_top" xlink:title=" ">
<polygon fill="white" stroke="black" points="414.5,-152.5 414.5,-171.5 513.5,-171.5 513.5,-152.5 414.5,-152.5"/>
<text text-anchor="middle" x="464" y="-159.5" font-family="Helvetica,sans-Serif" font-size="10.00">BsaBufferControl</text>
</a>
</g>
</g>
<!-- Node3&#45;&gt;Node1 -->
<g id="edge2" class="edge">
<title>Node3&#45;&gt;Node1</title>
<path fill="none" stroke="midnightblue" d="M518.53,-149.82C525.81,-147.76 533.14,-145.48 540,-143 562.01,-135.04 586.11,-123.02 601.94,-114.64"/>
<polygon fill="midnightblue" stroke="midnightblue" points="517.41,-146.5 508.67,-152.49 519.24,-153.26 517.41,-146.5"/>
</g>
<!-- Node4 -->
<g id="node4" class="node">
<title>Node4</title>
<g id="a_node4"><a xlink:href="classBsaAccumulator.html" target="_top" xlink:title=" ">
<polygon fill="white" stroke="black" points="256,-152.5 256,-171.5 352,-171.5 352,-152.5 256,-152.5"/>
<text text-anchor="middle" x="304" y="-159.5" font-family="Helvetica,sans-Serif" font-size="10.00">BsaAccumulator</text>
</a>
</g>
</g>
<!-- Node4&#45;&gt;Node3 -->
<g id="edge3" class="edge">
<title>Node4&#45;&gt;Node3</title>
<path fill="none" stroke="midnightblue" d="M362.73,-162C379.64,-162 397.96,-162 414.26,-162"/>
<polygon fill="midnightblue" stroke="midnightblue" points="362.41,-158.5 352.41,-162 362.41,-165.5 362.41,-158.5"/>
</g>
<!-- Node5 -->
<g id="node5" class="node">
<title>Node5</title>
<g id="a_node5"><a xlink:href="classBsssWrapper.html" target="_top" xlink:title=" ">
<polygon fill="white" stroke="black" points="424,-114.5 424,-133.5 504,-133.5 504,-114.5 424,-114.5"/>
<text text-anchor="middle" x="464" y="-121.5" font-family="Helvetica,sans-Serif" font-size="10.00">BsssWrapper</text>
</a>
</g>
</g>
<!-- Node5&#45;&gt;Node1 -->
<g id="edge4" class="edge">
<title>Node5&#45;&gt;Node1</title>
<path fill="none" stroke="midnightblue" d="M514.42,-117.92C534.16,-115.49 556.7,-112.72 575.83,-110.37"/>
<polygon fill="midnightblue" stroke="midnightblue" points="513.88,-114.46 504.39,-119.16 514.74,-121.41 513.88,-114.46"/>
</g>
<!-- Node6 -->
<g id="node6" class="node">
<title>Node6</title>
<g id="a_node6"><a xlink:href="classBldAxiStream.html" target="_top" xlink:title=" ">
<polygon fill="white" stroke="black" points="262.5,-95.5 262.5,-114.5 345.5,-114.5 345.5,-95.5 262.5,-95.5"/>
<text text-anchor="middle" x="304" y="-102.5" font-family="Helvetica,sans-Serif" font-size="10.00">BldAxiStream</text>
</a>
</g>
</g>
<!-- Node6&#45;&gt;Node5 -->
<g id="edge5" class="edge">
<title>Node6&#45;&gt;Node5</title>
<path fill="none" stroke="midnightblue" d="M355.87,-111.12C377.9,-113.77 403.28,-116.82 423.81,-119.29"/>
<polygon fill="midnightblue" stroke="midnightblue" points="356.04,-107.61 345.69,-109.89 355.2,-114.56 356.04,-107.61"/>
</g>
<!-- Node13 -->
<g id="node13" class="node">
<title>Node13</title>
<g id="a_node13"><a xlink:href="classBldWrapper.html" target="_top" xlink:title=" ">
<polygon fill="white" stroke="black" points="427,-76.5 427,-95.5 501,-95.5 501,-76.5 427,-76.5"/>
<text text-anchor="middle" x="464" y="-83.5" font-family="Helvetica,sans-Serif" font-size="10.00">BldWrapper</text>
</a>
</g>
</g>
<!-- Node6&#45;&gt;Node13 -->
<g id="edge13" class="edge">
<title>Node6&#45;&gt;Node13</title>
<path fill="none" stroke="midnightblue" d="M355.68,-98.91C378.82,-96.12 405.69,-92.89 426.76,-90.36"/>
<polygon fill="midnightblue" stroke="midnightblue" points="355.2,-95.44 345.69,-100.11 356.04,-102.39 355.2,-95.44"/>
</g>
<!-- Node7 -->
<g id="node7" class="node">
<title>Node7</title>
<g id="a_node7"><a xlink:href="classBldEventSelect.html" target="_top" xlink:title=" ">
<polygon fill="white" stroke="black" points="124.5,-95.5 124.5,-114.5 214.5,-114.5 214.5,-95.5 124.5,-95.5"/>
<text text-anchor="middle" x="169.5" y="-102.5" font-family="Helvetica,sans-Serif" font-size="10.00">BldEventSelect</text>
</a>
</g>
</g>
<!-- Node7&#45;&gt;Node6 -->
<g id="edge6" class="edge">
<title>Node7&#45;&gt;Node6</title>
<path fill="none" stroke="midnightblue" d="M224.92,-105C237.38,-105 250.43,-105 262.2,-105"/>
<polygon fill="midnightblue" stroke="midnightblue" points="224.62,-101.5 214.62,-105 224.62,-108.5 224.62,-101.5"/>
</g>
<!-- Node8 -->
<g id="node8" class="node">
<title>Node8</title>
<g id="a_node8"><a xlink:href="classBldEventRAM.html" target="_top" xlink:title=" ">
<polygon fill="white" stroke="black" points="0,-95.5 0,-114.5 83,-114.5 83,-95.5 0,-95.5"/>
<text text-anchor="middle" x="41.5" y="-102.5" font-family="Helvetica,sans-Serif" font-size="10.00">BldEventRAM</text>
</a>
</g>
</g>
<!-- Node8&#45;&gt;Node7 -->
<g id="edge7" class="edge">
<title>Node8&#45;&gt;Node7</title>
<path fill="none" stroke="midnightblue" d="M93.12,-105C103.37,-105 114.07,-105 124.09,-105"/>
<polygon fill="midnightblue" stroke="midnightblue" points="93.06,-101.5 83.06,-105 93.06,-108.5 93.06,-101.5"/>
</g>
<!-- Node9 -->
<g id="node9" class="node">
<title>Node9</title>
<g id="a_node9"><a xlink:href="classBsasWrapper.html" target="_top" xlink:title=" ">
<polygon fill="white" stroke="black" points="423.5,-38.5 423.5,-57.5 504.5,-57.5 504.5,-38.5 423.5,-38.5"/>
<text text-anchor="middle" x="464" y="-45.5" font-family="Helvetica,sans-Serif" font-size="10.00">BsasWrapper</text>
</a>
</g>
</g>
<!-- Node9&#45;&gt;Node1 -->
<g id="edge8" class="edge">
<title>Node9&#45;&gt;Node1</title>
<path fill="none" stroke="midnightblue" d="M514.65,-59.1C523.19,-61.43 531.92,-64.08 540,-67 562.01,-74.96 586.11,-86.98 601.94,-95.36"/>
<polygon fill="midnightblue" stroke="midnightblue" points="515.32,-55.66 504.76,-56.52 513.55,-62.43 515.32,-55.66"/>
</g>
<!-- Node10 -->
<g id="node10" class="node">
<title>Node10</title>
<g id="a_node10"><a xlink:href="classBsasModule.html" target="_top" xlink:title=" ">
<polygon fill="white" stroke="black" points="266,-38.5 266,-57.5 342,-57.5 342,-38.5 266,-38.5"/>
<text text-anchor="middle" x="304" y="-45.5" font-family="Helvetica,sans-Serif" font-size="10.00">BsasModule</text>
</a>
</g>
</g>
<!-- Node10&#45;&gt;Node9 -->
<g id="edge9" class="edge">
<title>Node10&#45;&gt;Node9</title>
<path fill="none" stroke="midnightblue" d="M352.15,-48C374.86,-48 401.8,-48 423.43,-48"/>
<polygon fill="midnightblue" stroke="midnightblue" points="352.04,-44.5 342.04,-48 352.04,-51.5 352.04,-44.5"/>
</g>
<!-- Node11 -->
<g id="node11" class="node">
<title>Node11</title>
<g id="a_node11"><a xlink:href="classBsasAccumulator.html" target="_top" xlink:title=" ">
<polygon fill="white" stroke="black" points="119,-38.5 119,-57.5 220,-57.5 220,-38.5 119,-38.5"/>
<text text-anchor="middle" x="169.5" y="-45.5" font-family="Helvetica,sans-Serif" font-size="10.00">BsasAccumulator</text>
</a>
</g>
</g>
<!-- Node11&#45;&gt;Node10 -->
<g id="edge10" class="edge">
<title>Node11&#45;&gt;Node10</title>
<path fill="none" stroke="midnightblue" d="M230.28,-48C242.39,-48 254.79,-48 265.84,-48"/>
<polygon fill="midnightblue" stroke="midnightblue" points="230.22,-44.5 220.22,-48 230.22,-51.5 230.22,-44.5"/>
</g>
<!-- Node12 -->
<g id="node12" class="node">
<title>Node12</title>
<g id="a_node12"><a xlink:href="classBsaAxiInterconnectWrapper.html" target="_top" xlink:title=" ">
<polygon fill="white" stroke="black" points="388,-0.5 388,-19.5 540,-19.5 540,-0.5 388,-0.5"/>
<text text-anchor="middle" x="464" y="-7.5" font-family="Helvetica,sans-Serif" font-size="10.00">BsaAxiInterconnectWrapper</text>
</a>
</g>
</g>
<!-- Node12&#45;&gt;Node1 -->
<g id="edge11" class="edge">
<title>Node12&#45;&gt;Node1</title>
<path fill="none" stroke="midnightblue" d="M527.33,-23.08C531.72,-24.82 535.99,-26.78 540,-29 571.41,-46.38 599.56,-79.22 612.3,-95.44"/>
<polygon fill="midnightblue" stroke="midnightblue" points="528.16,-19.66 517.57,-19.62 525.82,-26.26 528.16,-19.66"/>
</g>
<!-- Node13&#45;&gt;Node1 -->
<g id="edge12" class="edge">
<title>Node13&#45;&gt;Node1</title>
<path fill="none" stroke="midnightblue" d="M511.26,-91.69C531.72,-94.2 555.65,-97.15 575.8,-99.63"/>
<polygon fill="midnightblue" stroke="midnightblue" points="511.58,-88.2 501.22,-90.45 510.72,-95.15 511.58,-88.2"/>
</g>
</g>
</svg>
        <g id="navigator" transform="translate(0 0)" fill="#404254">
                <rect fill="#f2f5e9" fill-opacity="0.5" stroke="#606060" stroke-width=".5" x="0" y="0" width="60" height="60"/>
                <use id="zoomplus" xlink:href="#zoomPlus" x="17" y="9" onmousedown="handleZoom(evt,'in')"/>
                <use id="zoomminus" xlink:href="#zoomMin" x="42" y="9" onmousedown="handleZoom(evt,'out')"/>
                <use id="reset" xlink:href="#resetDef" x="30" y="36" onmousedown="handleReset()"/>
                <g id="arrowUp" xlink:href="#dirArrow" transform="translate(30 24)" onmousedown="handlePan(0,-1)">
                  <use xlink:href="#rim" fill="#404040">
                        <set attributeName="fill" to="#808080" begin="arrowUp.mouseover" end="arrowUp.mouseout"/>
                  </use>
                  <path fill="none" stroke="white" stroke-width="1.5" d="M0,-3.0v7 M-2.5,-0.5L0,-3.0L2.5,-0.5"/>
                </g>
                <g id="arrowRight" xlink:href="#dirArrow" transform="rotate(90) translate(36 -43)" onmousedown="handlePan(1,0)">
                  <use xlink:href="#rim" fill="#404040">
                        <set attributeName="fill" to="#808080" begin="arrowRight.mouseover" end="arrowRight.mouseout"/>
                  </use>
                  <path fill="none" stroke="white" stroke-width="1.5" d="M0,-3.0v7 M-2.5,-0.5L0,-3.0L2.5,-0.5"/>
                </g>
                <g id="arrowDown" xlink:href="#dirArrow" transform="rotate(180) translate(-30 -48)" onmousedown="handlePan(0,1)">
                  <use xlink:href="#rim" fill="#404040">
                        <set attributeName="fill" to="#808080" begin="arrowDown.mouseover" end="arrowDown.mouseout"/>
                  </use>
                  <path fill="none" stroke="white" stroke-width="1.5" d="M0,-3.0v7 M-2.5,-0.5L0,-3.0L2.5,-0.5"/>
                </g>
                <g id="arrowLeft" xlink:href="#dirArrow" transform="rotate(270) translate(-36 17)" onmousedown="handlePan(-1,0)">
                  <use xlink:href="#rim" fill="#404040">
                        <set attributeName="fill" to="#808080" begin="arrowLeft.mouseover" end="arrowLeft.mouseout"/>
                  </use>
                  <path fill="none" stroke="white" stroke-width="1.5" d="M0,-3.0v7 M-2.5,-0.5L0,-3.0L2.5,-0.5"/>
                </g>
        </g>
        <svg viewBox="0 0 15 15" width="100%" height="30px" preserveAspectRatio="xMaxYMin meet">
         <g id="arrow_out" transform="scale(0.3 0.3)">
          <a xlink:href="classAmcCarrierBsa__coll__graph_org.svg" target="_base">
           <rect id="button" ry="5" rx="5" y="6" x="6" height="38" width="38"
                fill="#f2f5e9" fill-opacity="0.5" stroke="#606060" stroke-width="1.0"/>
           <path id="arrow"
             d="M 11.500037,31.436501 C 11.940474,20.09759 22.043105,11.32322 32.158766,21.979434 L 37.068811,17.246167 C 37.068811,17.246167 37.088388,32 37.088388,32 L 22.160133,31.978069 C 22.160133,31.978069 26.997745,27.140456 26.997745,27.140456 C 18.528582,18.264221 13.291696,25.230495 11.500037,31.436501 z"
             style="fill:#404040;"/>
          </a>
         </g>
        </svg>
</svg>
