<?xml version="1.0" encoding="UTF-8" standalone="no"?>
<!DOCTYPE svg PUBLIC "-//W3C//DTD SVG 1.1//EN"
 "http://www.w3.org/Graphics/SVG/1.1/DTD/svg11.dtd">
<!-- Generated by graphviz version 2.43.0 (0)
 -->
<!-- Title: DacSigGenTb Pages: 1 -->
<svg width="208pt" height="140pt"
 viewBox="0.00 0.00 208.00 140.00" xmlns="http://www.w3.org/2000/svg" xmlns:xlink="http://www.w3.org/1999/xlink">
<g id="graph0" class="graph" transform="scale(1 1) rotate(0) translate(4 136)">
<title>DacSigGenTb</title>
<polygon fill="white" stroke="transparent" points="-4,4 -4,-136 204,-136 204,4 -4,4"/>
<!-- Node1 -->
<g id="node1" class="node">
<title>Node1</title>
<g id="a_node1"><a xlink:title=" ">
<polygon fill="#bfbfbf" stroke="black" points="57.5,-0.5 57.5,-19.5 139.5,-19.5 139.5,-0.5 57.5,-0.5"/>
<text text-anchor="middle" x="98.5" y="-7.5" font-family="Helvetica,sans-Serif" font-size="10.00">DacSigGenTb</text>
</a>
</g>
</g>
<!-- Node2 -->
<g id="node2" class="node">
<title>Node2</title>
<g id="a_node2"><a xlink:href="classDacSigGen.html" target="_top" xlink:title=" ">
<polygon fill="white" stroke="black" points="63.5,-56.5 63.5,-75.5 133.5,-75.5 133.5,-56.5 63.5,-56.5"/>
<text text-anchor="middle" x="98.5" y="-63.5" font-family="Helvetica,sans-Serif" font-size="10.00">DacSigGen</text>
</a>
</g>
</g>
<!-- Node2&#45;&gt;Node1 -->
<g id="edge1" class="edge">
<title>Node2&#45;&gt;Node1</title>
<path fill="none" stroke="midnightblue" d="M98.5,-45.8C98.5,-36.91 98.5,-26.78 98.5,-19.75"/>
<polygon fill="midnightblue" stroke="midnightblue" points="95,-46.08 98.5,-56.08 102,-46.08 95,-46.08"/>
</g>
<!-- Node3 -->
<g id="node3" class="node">
<title>Node3</title>
<g id="a_node3"><a xlink:href="classDacSigGenReg.html" target="_top" xlink:title=" ">
<polygon fill="white" stroke="black" points="0,-112.5 0,-131.5 89,-131.5 89,-112.5 0,-112.5"/>
<text text-anchor="middle" x="44.5" y="-119.5" font-family="Helvetica,sans-Serif" font-size="10.00">DacSigGenReg</text>
</a>
</g>
</g>
<!-- Node3&#45;&gt;Node2 -->
<g id="edge2" class="edge">
<title>Node3&#45;&gt;Node2</title>
<path fill="none" stroke="midnightblue" d="M60.5,-105C70.07,-95.43 81.86,-83.64 89.75,-75.75"/>
<polygon fill="midnightblue" stroke="midnightblue" points="58.01,-102.54 53.42,-112.08 62.96,-107.49 58.01,-102.54"/>
</g>
<!-- Node4 -->
<g id="node4" class="node">
<title>Node4</title>
<g id="a_node4"><a xlink:href="classDacSigGenLane.html" target="_top" xlink:title=" ">
<polygon fill="white" stroke="black" points="107,-112.5 107,-131.5 200,-131.5 200,-112.5 107,-112.5"/>
<text text-anchor="middle" x="153.5" y="-119.5" font-family="Helvetica,sans-Serif" font-size="10.00">DacSigGenLane</text>
</a>
</g>
</g>
<!-- Node4&#45;&gt;Node2 -->
<g id="edge3" class="edge">
<title>Node4&#45;&gt;Node2</title>
<path fill="none" stroke="midnightblue" d="M137.21,-105C127.46,-95.43 115.45,-83.64 107.41,-75.75"/>
<polygon fill="midnightblue" stroke="midnightblue" points="134.83,-107.57 144.42,-112.08 139.73,-102.58 134.83,-107.57"/>
</g>
</g>
</svg>
