<?xml version="1.0" encoding="UTF-8" standalone="no"?>
<!DOCTYPE svg PUBLIC "-//W3C//DTD SVG 1.1//EN"
 "http://www.w3.org/Graphics/SVG/1.1/DTD/svg11.dtd">
<!-- Generated by graphviz version 2.43.0 (0)
 -->
<!-- Title: AppTopJesd Pages: 1 -->
<svg width="252pt" height="140pt"
 viewBox="0.00 0.00 251.50 140.00" xmlns="http://www.w3.org/2000/svg" xmlns:xlink="http://www.w3.org/1999/xlink">
<g id="graph0" class="graph" transform="scale(1 1) rotate(0) translate(4 136)">
<title>AppTopJesd</title>
<polygon fill="white" stroke="transparent" points="-4,4 -4,-136 247.5,-136 247.5,4 -4,4"/>
<!-- Node1 -->
<g id="node1" class="node">
<title>Node1</title>
<g id="a_node1"><a xlink:title=" ">
<polygon fill="#bfbfbf" stroke="black" points="86.5,-56.5 86.5,-75.5 158.5,-75.5 158.5,-56.5 86.5,-56.5"/>
<text text-anchor="middle" x="122.5" y="-63.5" font-family="Helvetica,sans-Serif" font-size="10.00">AppTopJesd</text>
</a>
</g>
</g>
<!-- Node4 -->
<g id="node4" class="node">
<title>Node4</title>
<g id="a_node4"><a xlink:href="classAppTop.html" target="_top" xlink:title=" ">
<polygon fill="white" stroke="black" points="96.5,-0.5 96.5,-19.5 148.5,-19.5 148.5,-0.5 96.5,-0.5"/>
<text text-anchor="middle" x="122.5" y="-7.5" font-family="Helvetica,sans-Serif" font-size="10.00">AppTop</text>
</a>
</g>
</g>
<!-- Node1&#45;&gt;Node4 -->
<g id="edge3" class="edge">
<title>Node1&#45;&gt;Node4</title>
<path fill="none" stroke="midnightblue" d="M122.5,-45.8C122.5,-36.91 122.5,-26.78 122.5,-19.75"/>
<polygon fill="midnightblue" stroke="midnightblue" points="119,-46.08 122.5,-56.08 126,-46.08 119,-46.08"/>
</g>
<!-- Node2 -->
<g id="node2" class="node">
<title>Node2</title>
<g id="a_node2"><a xlink:href="classAmcCarrierIbufGt.html" target="_top" xlink:title=" ">
<polygon fill="white" stroke="black" points="0,-112.5 0,-131.5 115,-131.5 115,-112.5 0,-112.5"/>
<text text-anchor="middle" x="57.5" y="-119.5" font-family="Helvetica,sans-Serif" font-size="10.00">AmcCarrierIbufGt(5)</text>
</a>
</g>
</g>
<!-- Node2&#45;&gt;Node1 -->
<g id="edge1" class="edge">
<title>Node2&#45;&gt;Node1</title>
<path fill="none" stroke="midnightblue" d="M75.77,-105.82C87.42,-96.15 102.1,-83.95 111.87,-75.83"/>
<polygon fill="midnightblue" stroke="midnightblue" points="73.4,-103.24 67.94,-112.32 77.87,-108.63 73.4,-103.24"/>
</g>
<!-- Node3 -->
<g id="node3" class="node">
<title>Node3</title>
<g id="a_node3"><a xlink:href="classAppTopJesd204b.html" target="_top" xlink:title=" ">
<polygon fill="white" stroke="black" points="133.5,-112.5 133.5,-131.5 243.5,-131.5 243.5,-112.5 133.5,-112.5"/>
<text text-anchor="middle" x="188.5" y="-119.5" font-family="Helvetica,sans-Serif" font-size="10.00">AppTopJesd204b(4)</text>
</a>
</g>
</g>
<!-- Node3&#45;&gt;Node1 -->
<g id="edge2" class="edge">
<title>Node3&#45;&gt;Node1</title>
<path fill="none" stroke="midnightblue" d="M169.95,-105.82C158.12,-96.15 143.21,-83.95 133.3,-75.83"/>
<polygon fill="midnightblue" stroke="midnightblue" points="167.94,-108.7 177.9,-112.32 172.37,-103.28 167.94,-108.7"/>
</g>
</g>
</svg>
