<?xml version="1.0" encoding="UTF-8" standalone="no"?>
<!DOCTYPE svg PUBLIC "-//W3C//DTD SVG 1.1//EN"
 "http://www.w3.org/Graphics/SVG/1.1/DTD/svg11.dtd">
<!-- Generated by graphviz version 2.43.0 (0)
 -->
<!-- Title: AmcCarrierBsa Pages: 1 -->
<svg width="673pt" height="212pt"
 viewBox="0.00 0.00 673.00 212.00" xmlns="http://www.w3.org/2000/svg" xmlns:xlink="http://www.w3.org/1999/xlink">
<g id="graph0" class="graph" transform="scale(1 1) rotate(0) translate(4 208)">
<title>AmcCarrierBsa</title>
<!-- Node1 -->
<g id="Node000001" class="node">
<title>Node1</title>
<g id="a_Node000001"><a xlink:title=" ">
<polygon fill="#999999" stroke="#666666" points="665,-111 576,-111 576,-92 665,-92 665,-111"/>
<text text-anchor="middle" x="620.5" y="-99" font-family="Helvetica,sans-Serif" font-size="10.00">AmcCarrierBsa</text>
</a>
</g>
</g>
<!-- Node2 -->
<g id="Node000002" class="node">
<title>Node2</title>
<g id="a_Node000002"><a xlink:href="classBsaWaveformEngine.html" target="_top" xlink:title=" ">
<polygon fill="white" stroke="#bfbfbf" points="523,-204 405,-204 405,-185 523,-185 523,-204"/>
<text text-anchor="middle" x="464" y="-192" font-family="Helvetica,sans-Serif" font-size="10.00">BsaWaveformEngine</text>
</a>
</g>
</g>
<!-- Node2&#45;&gt;Node1 -->
<g id="edge1_Node000001_Node000002" class="edge">
<title>Node2&#45;&gt;Node1</title>
<g id="a_edge1_Node000001_Node000002"><a xlink:title=" ">
<path fill="none" stroke="#63b8ff" d="M529.07,-181.58C532.85,-180.07 536.52,-178.38 540,-176.5 571.21,-159.62 599.24,-127.38 612.09,-111.23"/>
<polygon fill="#63b8ff" stroke="#63b8ff" points="527.76,-178.33 519.52,-184.99 530.11,-184.93 527.76,-178.33"/>
</a>
</g>
</g>
<!-- Node3 -->
<g id="Node000003" class="node">
<title>Node3</title>
<g id="a_Node000003"><a xlink:href="classBsaBufferControl.html" target="_top" xlink:title=" ">
<polygon fill="white" stroke="#bfbfbf" points="513.5,-167 414.5,-167 414.5,-148 513.5,-148 513.5,-167"/>
<text text-anchor="middle" x="464" y="-155" font-family="Helvetica,sans-Serif" font-size="10.00">BsaBufferControl</text>
</a>
</g>
</g>
<!-- Node3&#45;&gt;Node1 -->
<g id="edge2_Node000001_Node000003" class="edge">
<title>Node3&#45;&gt;Node1</title>
<g id="a_edge2_Node000001_Node000003"><a xlink:title=" ">
<path fill="none" stroke="#63b8ff" d="M521.38,-145.33C527.72,-143.56 534.04,-141.61 540,-139.5 562.2,-131.63 586.46,-119.48 602.27,-111.04"/>
<polygon fill="#63b8ff" stroke="#63b8ff" points="520.22,-142.02 511.46,-147.96 522.02,-148.78 520.22,-142.02"/>
</a>
</g>
</g>
<!-- Node4 -->
<g id="Node000004" class="node">
<title>Node4</title>
<g id="a_Node000004"><a xlink:href="classBsaAccumulator.html" target="_top" xlink:title=" ">
<polygon fill="white" stroke="#bfbfbf" points="352,-167 256,-167 256,-148 352,-148 352,-167"/>
<text text-anchor="middle" x="304" y="-155" font-family="Helvetica,sans-Serif" font-size="10.00">BsaAccumulator</text>
</a>
</g>
</g>
<!-- Node4&#45;&gt;Node3 -->
<g id="edge3_Node000003_Node000004" class="edge">
<title>Node4&#45;&gt;Node3</title>
<g id="a_edge3_Node000003_Node000004"><a xlink:title=" ">
<path fill="none" stroke="#63b8ff" d="M362.73,-157.5C379.64,-157.5 397.96,-157.5 414.26,-157.5"/>
<polygon fill="#63b8ff" stroke="#63b8ff" points="362.41,-154 352.41,-157.5 362.41,-161 362.41,-154"/>
</a>
</g>
</g>
<!-- Node5 -->
<g id="Node000005" class="node">
<title>Node5</title>
<g id="a_Node000005"><a xlink:href="classBsssWrapper.html" target="_top" xlink:title=" ">
<polygon fill="white" stroke="#bfbfbf" points="504,-130 424,-130 424,-111 504,-111 504,-130"/>
<text text-anchor="middle" x="464" y="-118" font-family="Helvetica,sans-Serif" font-size="10.00">BsssWrapper</text>
</a>
</g>
</g>
<!-- Node5&#45;&gt;Node1 -->
<g id="edge4_Node000001_Node000005" class="edge">
<title>Node5&#45;&gt;Node1</title>
<g id="a_edge4_Node000001_Node000005"><a xlink:title=" ">
<path fill="none" stroke="#63b8ff" d="M514.42,-114.42C534.16,-111.99 556.7,-109.22 575.83,-106.87"/>
<polygon fill="#63b8ff" stroke="#63b8ff" points="513.88,-110.96 504.39,-115.66 514.74,-117.91 513.88,-110.96"/>
</a>
</g>
</g>
<!-- Node6 -->
<g id="Node000006" class="node">
<title>Node6</title>
<g id="a_Node000006"><a xlink:href="classBsasWrapper.html" target="_top" xlink:title=" ">
<polygon fill="white" stroke="#bfbfbf" points="504.5,-93 423.5,-93 423.5,-74 504.5,-74 504.5,-93"/>
<text text-anchor="middle" x="464" y="-81" font-family="Helvetica,sans-Serif" font-size="10.00">BsasWrapper</text>
</a>
</g>
</g>
<!-- Node6&#45;&gt;Node1 -->
<g id="edge5_Node000001_Node000006" class="edge">
<title>Node6&#45;&gt;Node1</title>
<g id="a_edge5_Node000001_Node000006"><a xlink:title=" ">
<path fill="none" stroke="#63b8ff" d="M514.78,-89.3C534.41,-91.59 556.77,-94.19 575.77,-96.41"/>
<polygon fill="#63b8ff" stroke="#63b8ff" points="515.13,-85.82 504.79,-88.14 514.32,-92.77 515.13,-85.82"/>
</a>
</g>
</g>
<!-- Node7 -->
<g id="Node000007" class="node">
<title>Node7</title>
<g id="a_Node000007"><a xlink:href="classBsasModule.html" target="_top" xlink:title=" ">
<polygon fill="white" stroke="#bfbfbf" points="342,-93 266,-93 266,-74 342,-74 342,-93"/>
<text text-anchor="middle" x="304" y="-81" font-family="Helvetica,sans-Serif" font-size="10.00">BsasModule</text>
</a>
</g>
</g>
<!-- Node7&#45;&gt;Node6 -->
<g id="edge6_Node000006_Node000007" class="edge">
<title>Node7&#45;&gt;Node6</title>
<g id="a_edge6_Node000006_Node000007"><a xlink:title=" ">
<path fill="none" stroke="#63b8ff" d="M352.15,-83.5C374.86,-83.5 401.8,-83.5 423.43,-83.5"/>
<polygon fill="#63b8ff" stroke="#63b8ff" points="352.04,-80 342.04,-83.5 352.04,-87 352.04,-80"/>
</a>
</g>
</g>
<!-- Node8 -->
<g id="Node000008" class="node">
<title>Node8</title>
<g id="a_Node000008"><a xlink:href="classBsasAccumulator.html" target="_top" xlink:title=" ">
<polygon fill="white" stroke="#bfbfbf" points="220,-93 119,-93 119,-74 220,-74 220,-93"/>
<text text-anchor="middle" x="169.5" y="-81" font-family="Helvetica,sans-Serif" font-size="10.00">BsasAccumulator</text>
</a>
</g>
</g>
<!-- Node8&#45;&gt;Node7 -->
<g id="edge7_Node000007_Node000008" class="edge">
<title>Node8&#45;&gt;Node7</title>
<g id="a_edge7_Node000007_Node000008"><a xlink:title=" ">
<path fill="none" stroke="#63b8ff" d="M230.28,-83.5C242.39,-83.5 254.79,-83.5 265.84,-83.5"/>
<polygon fill="#63b8ff" stroke="#63b8ff" points="230.22,-80 220.22,-83.5 230.22,-87 230.22,-80"/>
</a>
</g>
</g>
<!-- Node9 -->
<g id="Node000009" class="node">
<title>Node9</title>
<g id="a_Node000009"><a xlink:href="classBsaAxiInterconnectWrapper.html" target="_top" xlink:title=" ">
<polygon fill="white" stroke="#bfbfbf" points="540,-56 388,-56 388,-37 540,-37 540,-56"/>
<text text-anchor="middle" x="464" y="-44" font-family="Helvetica,sans-Serif" font-size="10.00">BsaAxiInterconnectWrapper</text>
</a>
</g>
</g>
<!-- Node9&#45;&gt;Node1 -->
<g id="edge8_Node000001_Node000009" class="edge">
<title>Node9&#45;&gt;Node1</title>
<g id="a_edge8_Node000001_Node000009"><a xlink:title=" ">
<path fill="none" stroke="#63b8ff" d="M517.95,-58.66C525.42,-60.74 532.95,-63.03 540,-65.5 561.45,-73.01 585.06,-84.08 600.93,-91.96"/>
<polygon fill="#63b8ff" stroke="#63b8ff" points="518.79,-55.26 508.22,-56.06 516.98,-62.02 518.79,-55.26"/>
</a>
</g>
</g>
<!-- Node10 -->
<g id="Node000010" class="node">
<title>Node10</title>
<g id="a_Node000010"><a xlink:href="classBldWrapper.html" target="_top" xlink:title=" ">
<polygon fill="white" stroke="#bfbfbf" points="501,-19 427,-19 427,0 501,0 501,-19"/>
<text text-anchor="middle" x="464" y="-7" font-family="Helvetica,sans-Serif" font-size="10.00">BldWrapper</text>
</a>
</g>
</g>
<!-- Node10&#45;&gt;Node1 -->
<g id="edge9_Node000001_Node000010" class="edge">
<title>Node10&#45;&gt;Node1</title>
<g id="a_edge9_Node000001_Node000010"><a xlink:title=" ">
<path fill="none" stroke="#63b8ff" d="M510.87,-17.3C520.83,-20.02 531.05,-23.66 540,-28.5 570.66,-45.07 598.74,-76.1 611.8,-91.83"/>
<polygon fill="#63b8ff" stroke="#63b8ff" points="511.61,-13.88 501.06,-14.87 509.93,-20.67 511.61,-13.88"/>
</a>
</g>
</g>
<!-- Node11 -->
<g id="Node000011" class="node">
<title>Node11</title>
<g id="a_Node000011"><a xlink:href="classBldAxiStream.html" target="_top" xlink:title=" ">
<polygon fill="white" stroke="#bfbfbf" points="345.5,-19 262.5,-19 262.5,0 345.5,0 345.5,-19"/>
<text text-anchor="middle" x="304" y="-7" font-family="Helvetica,sans-Serif" font-size="10.00">BldAxiStream</text>
</a>
</g>
</g>
<!-- Node11&#45;&gt;Node10 -->
<g id="edge10_Node000010_Node000011" class="edge">
<title>Node11&#45;&gt;Node10</title>
<g id="a_edge10_Node000010_Node000011"><a xlink:title=" ">
<path fill="none" stroke="#63b8ff" d="M356,-9.5C379.06,-9.5 405.79,-9.5 426.76,-9.5"/>
<polygon fill="#63b8ff" stroke="#63b8ff" points="355.69,-6 345.69,-9.5 355.69,-13 355.69,-6"/>
</a>
</g>
</g>
<!-- Node12 -->
<g id="Node000012" class="node">
<title>Node12</title>
<g id="a_Node000012"><a xlink:href="classBldEventSelect.html" target="_top" xlink:title=" ">
<polygon fill="white" stroke="#bfbfbf" points="214.5,-19 124.5,-19 124.5,0 214.5,0 214.5,-19"/>
<text text-anchor="middle" x="169.5" y="-7" font-family="Helvetica,sans-Serif" font-size="10.00">BldEventSelect</text>
</a>
</g>
</g>
<!-- Node12&#45;&gt;Node11 -->
<g id="edge11_Node000011_Node000012" class="edge">
<title>Node12&#45;&gt;Node11</title>
<g id="a_edge11_Node000011_Node000012"><a xlink:title=" ">
<path fill="none" stroke="#63b8ff" d="M224.92,-9.5C237.38,-9.5 250.43,-9.5 262.2,-9.5"/>
<polygon fill="#63b8ff" stroke="#63b8ff" points="224.62,-6 214.62,-9.5 224.62,-13 224.62,-6"/>
</a>
</g>
</g>
<!-- Node13 -->
<g id="Node000013" class="node">
<title>Node13</title>
<g id="a_Node000013"><a xlink:href="classBldEventRAM.html" target="_top" xlink:title=" ">
<polygon fill="white" stroke="#bfbfbf" points="83,-19 0,-19 0,0 83,0 83,-19"/>
<text text-anchor="middle" x="41.5" y="-7" font-family="Helvetica,sans-Serif" font-size="10.00">BldEventRAM</text>
</a>
</g>
</g>
<!-- Node13&#45;&gt;Node12 -->
<g id="edge12_Node000012_Node000013" class="edge">
<title>Node13&#45;&gt;Node12</title>
<g id="a_edge12_Node000012_Node000013"><a xlink:title=" ">
<path fill="none" stroke="#63b8ff" d="M93.12,-9.5C103.37,-9.5 114.07,-9.5 124.09,-9.5"/>
<polygon fill="#63b8ff" stroke="#63b8ff" points="93.06,-6 83.06,-9.5 93.06,-13 93.06,-6"/>
</a>
</g>
</g>
</g>
</svg>
