<?xml version="1.0" encoding="UTF-8" standalone="no"?>
<!DOCTYPE svg PUBLIC "-//W3C//DTD SVG 1.1//EN"
 "http://www.w3.org/Graphics/SVG/1.1/DTD/svg11.dtd">
<!-- Generated by graphviz version 2.43.0 (0)
 -->
<!-- Title: AppMps Pages: 1 -->
<svg width="356pt" height="192pt"
 viewBox="0.00 0.00 356.00 192.00" xmlns="http://www.w3.org/2000/svg" xmlns:xlink="http://www.w3.org/1999/xlink">
<g id="graph0" class="graph" transform="scale(1 1) rotate(0) translate(4 188)">
<title>AppMps</title>
<!-- Node1 -->
<g id="Node000001" class="node">
<title>Node1</title>
<g id="a_Node000001"><a xlink:title=" ">
<polygon fill="#999999" stroke="#666666" points="235,-19 179,-19 179,0 235,0 235,-19"/>
<text text-anchor="middle" x="207" y="-7" font-family="Helvetica,sans-Serif" font-size="10.00">AppMps</text>
</a>
</g>
</g>
<!-- Node2 -->
<g id="Node000002" class="node">
<title>Node2</title>
<g id="a_Node000002"><a xlink:href="classAppMpsClk.html" target="_top" xlink:title=" ">
<polygon fill="white" stroke="#bfbfbf" points="141.5,-74 70.5,-74 70.5,-55 141.5,-55 141.5,-74"/>
<text text-anchor="middle" x="106" y="-62" font-family="Helvetica,sans-Serif" font-size="10.00">AppMpsClk</text>
</a>
</g>
</g>
<!-- Node2&#45;&gt;Node1 -->
<g id="edge1_Node000001_Node000002" class="edge">
<title>Node2&#45;&gt;Node1</title>
<g id="a_edge1_Node000001_Node000002"><a xlink:title=" ">
<path fill="none" stroke="#63b8ff" d="M131.28,-50.23C149.8,-40.51 174.42,-27.6 190.48,-19.17"/>
<polygon fill="#63b8ff" stroke="#63b8ff" points="129.46,-47.24 122.23,-54.98 132.71,-53.44 129.46,-47.24"/>
</a>
</g>
</g>
<!-- Node3 -->
<g id="Node000003" class="node">
<title>Node3</title>
<g id="a_Node000003"><a xlink:href="classAppMpsEncoder.html" target="_top" xlink:title=" ">
<polygon fill="white" stroke="#bfbfbf" points="254.5,-74 159.5,-74 159.5,-55 254.5,-55 254.5,-74"/>
<text text-anchor="middle" x="207" y="-62" font-family="Helvetica,sans-Serif" font-size="10.00">AppMpsEncoder</text>
</a>
</g>
</g>
<!-- Node3&#45;&gt;Node1 -->
<g id="edge2_Node000001_Node000003" class="edge">
<title>Node3&#45;&gt;Node1</title>
<g id="a_edge2_Node000001_Node000003"><a xlink:title=" ">
<path fill="none" stroke="#63b8ff" d="M207,-44.66C207,-35.93 207,-25.99 207,-19.09"/>
<polygon fill="#63b8ff" stroke="#63b8ff" points="203.5,-44.75 207,-54.75 210.5,-44.75 203.5,-44.75"/>
</a>
</g>
</g>
<!-- Node4 -->
<g id="Node000004" class="node">
<title>Node4</title>
<g id="a_Node000004"><a xlink:href="classAppMpsReg.html" target="_top" xlink:title=" ">
<polygon fill="white" stroke="#bfbfbf" points="146,-129 72,-129 72,-110 146,-110 146,-129"/>
<text text-anchor="middle" x="109" y="-117" font-family="Helvetica,sans-Serif" font-size="10.00">AppMpsReg</text>
</a>
</g>
</g>
<!-- Node4&#45;&gt;Node3 -->
<g id="edge3_Node000003_Node000004" class="edge">
<title>Node4&#45;&gt;Node3</title>
<g id="a_edge3_Node000003_Node000004"><a xlink:title=" ">
<path fill="none" stroke="#63b8ff" d="M134.03,-104.97C151.94,-95.28 175.53,-82.52 190.97,-74.17"/>
<polygon fill="#63b8ff" stroke="#63b8ff" points="131.88,-102.15 124.75,-109.98 135.21,-108.31 131.88,-102.15"/>
</a>
</g>
</g>
<!-- Node5 -->
<g id="Node000005" class="node">
<title>Node5</title>
<g id="a_Node000005"><a xlink:href="classAppMpsRegBase.html" target="_top" xlink:title=" ">
<polygon fill="white" stroke="#bfbfbf" points="98,-184 0,-184 0,-165 98,-165 98,-184"/>
<text text-anchor="middle" x="49" y="-172" font-family="Helvetica,sans-Serif" font-size="10.00">AppMpsRegBase</text>
</a>
</g>
</g>
<!-- Node5&#45;&gt;Node4 -->
<g id="edge4_Node000004_Node000005" class="edge">
<title>Node5&#45;&gt;Node4</title>
<g id="a_edge4_Node000004_Node000005"><a xlink:title=" ">
<path fill="none" stroke="#63b8ff" d="M66.18,-158.32C76.88,-148.87 90.26,-137.06 99.18,-129.17"/>
<polygon fill="#63b8ff" stroke="#63b8ff" points="63.82,-155.74 58.64,-164.98 68.45,-160.99 63.82,-155.74"/>
</a>
</g>
</g>
<!-- Node6 -->
<g id="Node000006" class="node">
<title>Node6</title>
<g id="a_Node000006"><a xlink:href="classAppMpsRegAppCh.html" target="_top" xlink:title=" ">
<polygon fill="white" stroke="#bfbfbf" points="222,-184 116,-184 116,-165 222,-165 222,-184"/>
<text text-anchor="middle" x="169" y="-172" font-family="Helvetica,sans-Serif" font-size="10.00">AppMpsRegAppCh</text>
</a>
</g>
</g>
<!-- Node6&#45;&gt;Node4 -->
<g id="edge5_Node000004_Node000006" class="edge">
<title>Node6&#45;&gt;Node4</title>
<g id="a_edge5_Node000004_Node000006"><a xlink:title=" ">
<path fill="none" stroke="#63b8ff" d="M151.82,-158.32C141.12,-148.87 127.74,-137.06 118.82,-129.17"/>
<polygon fill="#63b8ff" stroke="#63b8ff" points="149.55,-160.99 159.36,-164.98 154.18,-155.74 149.55,-160.99"/>
</a>
</g>
</g>
<!-- Node7 -->
<g id="Node000007" class="node">
<title>Node7</title>
<g id="a_Node000007"><a xlink:href="classAppMpsSelect.html" target="_top" xlink:title=" ">
<polygon fill="white" stroke="#bfbfbf" points="250,-129 164,-129 164,-110 250,-110 250,-129"/>
<text text-anchor="middle" x="207" y="-117" font-family="Helvetica,sans-Serif" font-size="10.00">AppMpsSelect</text>
</a>
</g>
</g>
<!-- Node7&#45;&gt;Node3 -->
<g id="edge6_Node000003_Node000007" class="edge">
<title>Node7&#45;&gt;Node3</title>
<g id="a_edge6_Node000003_Node000007"><a xlink:title=" ">
<path fill="none" stroke="#63b8ff" d="M207,-99.66C207,-90.93 207,-80.99 207,-74.09"/>
<polygon fill="#63b8ff" stroke="#63b8ff" points="203.5,-99.75 207,-109.75 210.5,-99.75 203.5,-99.75"/>
</a>
</g>
</g>
<!-- Node8 -->
<g id="Node000008" class="node">
<title>Node8</title>
<g id="a_Node000008"><a xlink:href="classMpsMsgCore.html" target="_top" xlink:title=" ">
<polygon fill="white" stroke="#bfbfbf" points="348,-129 268,-129 268,-110 348,-110 348,-129"/>
<text text-anchor="middle" x="308" y="-117" font-family="Helvetica,sans-Serif" font-size="10.00">MpsMsgCore</text>
</a>
</g>
</g>
<!-- Node8&#45;&gt;Node3 -->
<g id="edge7_Node000003_Node000008" class="edge">
<title>Node8&#45;&gt;Node3</title>
<g id="a_edge7_Node000003_Node000008"><a xlink:title=" ">
<path fill="none" stroke="#63b8ff" d="M282.72,-105.23C264.2,-95.51 239.58,-82.6 223.52,-74.17"/>
<polygon fill="#63b8ff" stroke="#63b8ff" points="281.29,-108.44 291.77,-109.98 284.54,-102.24 281.29,-108.44"/>
</a>
</g>
</g>
<!-- Node9 -->
<g id="Node000009" class="node">
<title>Node9</title>
<g id="a_Node000009"><a xlink:href="classAppMpsSalt.html" target="_top" xlink:title=" ">
<polygon fill="white" stroke="#bfbfbf" points="347,-74 273,-74 273,-55 347,-55 347,-74"/>
<text text-anchor="middle" x="310" y="-62" font-family="Helvetica,sans-Serif" font-size="10.00">AppMpsSalt</text>
</a>
</g>
</g>
<!-- Node9&#45;&gt;Node1 -->
<g id="edge8_Node000001_Node000009" class="edge">
<title>Node9&#45;&gt;Node1</title>
<g id="a_edge8_Node000001_Node000009"><a xlink:title=" ">
<path fill="none" stroke="#63b8ff" d="M284.48,-50.37C265.56,-40.63 240.3,-27.64 223.85,-19.17"/>
<polygon fill="#63b8ff" stroke="#63b8ff" points="282.96,-53.52 293.45,-54.98 286.16,-47.3 282.96,-53.52"/>
</a>
</g>
</g>
</g>
</svg>
