<?xml version="1.0" encoding="UTF-8" standalone="no"?>
<!DOCTYPE svg PUBLIC "-//W3C//DTD SVG 1.1//EN"
 "http://www.w3.org/Graphics/SVG/1.1/DTD/svg11.dtd">
<!-- Generated by graphviz version 2.43.0 (0)
 -->
<!-- Title: RtmDigitalDebugV2b Pages: 1 -->
<svg width="268pt" height="84pt"
 viewBox="0.00 0.00 267.50 84.00" xmlns="http://www.w3.org/2000/svg" xmlns:xlink="http://www.w3.org/1999/xlink">
<g id="graph0" class="graph" transform="scale(1 1) rotate(0) translate(4 80)">
<title>RtmDigitalDebugV2b</title>
<polygon fill="white" stroke="transparent" points="-4,4 -4,-80 263.5,-80 263.5,4 -4,4"/>
<!-- Node1 -->
<g id="node1" class="node">
<title>Node1</title>
<g id="a_node1"><a xlink:title=" ">
<polygon fill="#bfbfbf" stroke="black" points="68,-0.5 68,-19.5 187,-19.5 187,-0.5 68,-0.5"/>
<text text-anchor="middle" x="127.5" y="-7.5" font-family="Helvetica,sans-Serif" font-size="10.00">RtmDigitalDebugV2b</text>
</a>
</g>
</g>
<!-- Node2 -->
<g id="node2" class="node">
<title>Node2</title>
<g id="a_node2"><a xlink:href="classRtmDigitalDebugDin.html" target="_top" xlink:title=" ">
<polygon fill="white" stroke="black" points="0,-56.5 0,-75.5 117,-75.5 117,-56.5 0,-56.5"/>
<text text-anchor="middle" x="58.5" y="-63.5" font-family="Helvetica,sans-Serif" font-size="10.00">RtmDigitalDebugDin</text>
</a>
</g>
</g>
<!-- Node2&#45;&gt;Node1 -->
<g id="edge1" class="edge">
<title>Node2&#45;&gt;Node1</title>
<path fill="none" stroke="midnightblue" d="M77.54,-50.1C89.96,-40.38 105.74,-28.03 116.21,-19.83"/>
<polygon fill="midnightblue" stroke="midnightblue" points="75.3,-47.4 69.59,-56.32 79.62,-52.92 75.3,-47.4"/>
</g>
<!-- Node3 -->
<g id="node3" class="node">
<title>Node3</title>
<g id="a_node3"><a xlink:href="classRtmDigitalDebugDout.html" target="_top" xlink:title=" ">
<polygon fill="white" stroke="black" points="135.5,-56.5 135.5,-75.5 259.5,-75.5 259.5,-56.5 135.5,-56.5"/>
<text text-anchor="middle" x="197.5" y="-63.5" font-family="Helvetica,sans-Serif" font-size="10.00">RtmDigitalDebugDout</text>
</a>
</g>
</g>
<!-- Node3&#45;&gt;Node1 -->
<g id="edge2" class="edge">
<title>Node3&#45;&gt;Node1</title>
<path fill="none" stroke="midnightblue" d="M178.19,-50.1C165.59,-40.38 149.57,-28.03 138.95,-19.83"/>
<polygon fill="midnightblue" stroke="midnightblue" points="176.2,-52.99 186.25,-56.32 180.47,-47.44 176.2,-52.99"/>
</g>
</g>
</svg>
