<?xml version="1.0" encoding="UTF-8" standalone="no"?>
<!DOCTYPE svg PUBLIC "-//W3C//DTD SVG 1.1//EN"
 "http://www.w3.org/Graphics/SVG/1.1/DTD/svg11.dtd">
<!-- Generated by graphviz version 2.43.0 (0)
 -->
<!-- Title: LvdsDacSigGen Pages: 1 -->
<svg width="194pt" height="84pt"
 viewBox="0.00 0.00 194.00 84.00" xmlns="http://www.w3.org/2000/svg" xmlns:xlink="http://www.w3.org/1999/xlink">
<g id="graph0" class="graph" transform="scale(1 1) rotate(0) translate(4 80)">
<title>LvdsDacSigGen</title>
<polygon fill="white" stroke="transparent" points="-4,4 -4,-80 190,-80 190,4 -4,4"/>
<!-- Node1 -->
<g id="node1" class="node">
<title>Node1</title>
<g id="a_node1"><a xlink:title=" ">
<polygon fill="#bfbfbf" stroke="black" points="48.5,-0.5 48.5,-19.5 140.5,-19.5 140.5,-0.5 48.5,-0.5"/>
<text text-anchor="middle" x="94.5" y="-7.5" font-family="Helvetica,sans-Serif" font-size="10.00">LvdsDacSigGen</text>
</a>
</g>
</g>
<!-- Node2 -->
<g id="node2" class="node">
<title>Node2</title>
<g id="a_node2"><a xlink:href="classLvdsDacRegItf.html" target="_top" xlink:title=" ">
<polygon fill="white" stroke="black" points="0,-56.5 0,-75.5 87,-75.5 87,-56.5 0,-56.5"/>
<text text-anchor="middle" x="43.5" y="-63.5" font-family="Helvetica,sans-Serif" font-size="10.00">LvdsDacRegItf</text>
</a>
</g>
</g>
<!-- Node2&#45;&gt;Node1 -->
<g id="edge1" class="edge">
<title>Node2&#45;&gt;Node1</title>
<path fill="none" stroke="midnightblue" d="M58.88,-48.72C67.87,-39.2 78.86,-27.56 86.24,-19.75"/>
<polygon fill="midnightblue" stroke="midnightblue" points="56.24,-46.41 51.92,-56.08 61.33,-51.22 56.24,-46.41"/>
</g>
<!-- Node3 -->
<g id="node3" class="node">
<title>Node3</title>
<g id="a_node3"><a xlink:href="classLvdsDacLane.html" target="_top" xlink:title=" ">
<polygon fill="white" stroke="black" points="105,-56.5 105,-75.5 186,-75.5 186,-56.5 105,-56.5"/>
<text text-anchor="middle" x="145.5" y="-63.5" font-family="Helvetica,sans-Serif" font-size="10.00">LvdsDacLane</text>
</a>
</g>
</g>
<!-- Node3&#45;&gt;Node1 -->
<g id="edge2" class="edge">
<title>Node3&#45;&gt;Node1</title>
<path fill="none" stroke="midnightblue" d="M130.12,-48.72C121.13,-39.2 110.14,-27.56 102.76,-19.75"/>
<polygon fill="midnightblue" stroke="midnightblue" points="127.67,-51.22 137.08,-56.08 132.76,-46.41 127.67,-51.22"/>
</g>
</g>
</svg>
