<?xml version="1.0" encoding="UTF-8" standalone="no"?>
<!DOCTYPE svg PUBLIC "-//W3C//DTD SVG 1.1//EN"
 "http://www.w3.org/Graphics/SVG/1.1/DTD/svg11.dtd">
<!-- Generated by graphviz version 2.43.0 (0)
 -->
<!-- Title: AppTop Pages: 1 -->
<svg width="428pt" height="249pt"
 viewBox="0.00 0.00 428.00 249.00" xmlns="http://www.w3.org/2000/svg" xmlns:xlink="http://www.w3.org/1999/xlink">
<g id="graph0" class="graph" transform="scale(1 1) rotate(0) translate(4 245)">
<title>AppTop</title>
<!-- Node1 -->
<g id="Node000001" class="node">
<title>Node1</title>
<g id="a_Node000001"><a xlink:title=" ">
<polygon fill="#999999" stroke="#666666" points="420,-111 368,-111 368,-92 420,-92 420,-111"/>
<text text-anchor="middle" x="394" y="-99" font-family="Helvetica,sans-Serif" font-size="10.00">AppTop</text>
</a>
</g>
</g>
<!-- Node2 -->
<g id="Node000002" class="node">
<title>Node2</title>
<g id="a_Node000002"><a xlink:href="classDaqMuxV2.html" target="_top" xlink:title=" ">
<polygon fill="white" stroke="#bfbfbf" points="331,-185 261,-185 261,-166 331,-166 331,-185"/>
<text text-anchor="middle" x="296" y="-173" font-family="Helvetica,sans-Serif" font-size="10.00">DaqMuxV2</text>
</a>
</g>
</g>
<!-- Node2&#45;&gt;Node1 -->
<g id="edge1_Node000001_Node000002" class="edge">
<title>Node2&#45;&gt;Node1</title>
<g id="a_edge1_Node000001_Node000002"><a xlink:title=" ">
<path fill="none" stroke="#63b8ff" d="M317.64,-159.59C336.73,-144.88 364.49,-123.48 380.45,-111.18"/>
<polygon fill="#63b8ff" stroke="#63b8ff" points="315.33,-156.95 309.55,-165.83 319.61,-162.49 315.33,-156.95"/>
</a>
</g>
</g>
<!-- Node3 -->
<g id="Node000003" class="node">
<title>Node3</title>
<g id="a_Node000003"><a xlink:href="classDaqRegItf.html" target="_top" xlink:title=" ">
<polygon fill="white" stroke="#bfbfbf" points="206,-241 141,-241 141,-222 206,-222 206,-241"/>
<text text-anchor="middle" x="173.5" y="-229" font-family="Helvetica,sans-Serif" font-size="10.00">DaqRegItf</text>
</a>
</g>
</g>
<!-- Node3&#45;&gt;Node2 -->
<g id="edge2_Node000002_Node000003" class="edge">
<title>Node3&#45;&gt;Node2</title>
<g id="a_edge2_Node000002_Node000003"><a xlink:title=" ">
<path fill="none" stroke="#63b8ff" d="M212.62,-218.26C216.5,-216.73 220.35,-215.13 224,-213.5 243.28,-204.89 264.51,-193.22 278.69,-185.09"/>
<polygon fill="#63b8ff" stroke="#63b8ff" points="211.15,-215.08 203.05,-221.91 213.64,-221.62 211.15,-215.08"/>
</a>
</g>
</g>
<!-- Node4 -->
<g id="Node000004" class="node">
<title>Node4</title>
<g id="a_Node000004"><a xlink:href="classDaqTrigger.html" target="_top" xlink:title=" ">
<polygon fill="white" stroke="#bfbfbf" points="208,-204 139,-204 139,-185 208,-185 208,-204"/>
<text text-anchor="middle" x="173.5" y="-192" font-family="Helvetica,sans-Serif" font-size="10.00">DaqTrigger</text>
</a>
</g>
</g>
<!-- Node4&#45;&gt;Node2 -->
<g id="edge3_Node000002_Node000004" class="edge">
<title>Node4&#45;&gt;Node2</title>
<g id="a_edge3_Node000002_Node000004"><a xlink:title=" ">
<path fill="none" stroke="#63b8ff" d="M218.03,-187.64C232.09,-185.42 247.48,-182.99 260.78,-180.9"/>
<polygon fill="#63b8ff" stroke="#63b8ff" points="217.4,-184.19 208.07,-189.21 218.49,-191.11 217.4,-184.19"/>
</a>
</g>
</g>
<!-- Node5 -->
<g id="Node000005" class="node">
<title>Node5</title>
<g id="a_Node000005"><a xlink:href="classDaqLane.html" target="_top" xlink:title=" ">
<polygon fill="white" stroke="#bfbfbf" points="203,-167 144,-167 144,-148 203,-148 203,-167"/>
<text text-anchor="middle" x="173.5" y="-155" font-family="Helvetica,sans-Serif" font-size="10.00">DaqLane</text>
</a>
</g>
</g>
<!-- Node5&#45;&gt;Node2 -->
<g id="edge4_Node000002_Node000005" class="edge">
<title>Node5&#45;&gt;Node2</title>
<g id="a_edge4_Node000002_Node000005"><a xlink:title=" ">
<path fill="none" stroke="#63b8ff" d="M213.22,-163.28C228.47,-165.56 245.84,-168.16 260.64,-170.37"/>
<polygon fill="#63b8ff" stroke="#63b8ff" points="213.46,-159.78 203.06,-161.77 212.43,-166.7 213.46,-159.78"/>
</a>
</g>
</g>
<!-- Node6 -->
<g id="Node000006" class="node">
<title>Node6</title>
<g id="a_Node000006"><a xlink:href="classDaqTestSig.html" target="_top" xlink:title=" ">
<polygon fill="white" stroke="#bfbfbf" points="79,-185 8,-185 8,-166 79,-166 79,-185"/>
<text text-anchor="middle" x="43.5" y="-173" font-family="Helvetica,sans-Serif" font-size="10.00">DaqTestSig</text>
</a>
</g>
</g>
<!-- Node6&#45;&gt;Node5 -->
<g id="edge5_Node000005_Node000006" class="edge">
<title>Node6&#45;&gt;Node5</title>
<g id="a_edge5_Node000005_Node000006"><a xlink:title=" ">
<path fill="none" stroke="#63b8ff" d="M89.23,-169.21C107.37,-166.66 127.8,-163.79 143.89,-161.52"/>
<polygon fill="#63b8ff" stroke="#63b8ff" points="88.55,-165.77 79.14,-170.63 89.53,-172.7 88.55,-165.77"/>
</a>
</g>
</g>
<!-- Node7 -->
<g id="Node000007" class="node">
<title>Node7</title>
<g id="a_Node000007"><a xlink:href="classDaqDecimator.html" target="_top" xlink:title=" ">
<polygon fill="white" stroke="#bfbfbf" points="87,-148 0,-148 0,-129 87,-129 87,-148"/>
<text text-anchor="middle" x="43.5" y="-136" font-family="Helvetica,sans-Serif" font-size="10.00">DaqDecimator</text>
</a>
</g>
</g>
<!-- Node7&#45;&gt;Node5 -->
<g id="edge6_Node000005_Node000007" class="edge">
<title>Node7&#45;&gt;Node5</title>
<g id="a_edge6_Node000005_Node000007"><a xlink:title=" ">
<path fill="none" stroke="#63b8ff" d="M97.38,-146.35C113.26,-148.71 130.08,-151.2 143.77,-153.24"/>
<polygon fill="#63b8ff" stroke="#63b8ff" points="97.53,-142.83 87.12,-144.83 96.5,-149.76 97.53,-142.83"/>
</a>
</g>
</g>
<!-- Node8 -->
<g id="Node000008" class="node">
<title>Node8</title>
<g id="a_Node000008"><a xlink:href="classAppTopJesd.html" target="_top" xlink:title=" ">
<polygon fill="white" stroke="#bfbfbf" points="332,-111 260,-111 260,-92 332,-92 332,-111"/>
<text text-anchor="middle" x="296" y="-99" font-family="Helvetica,sans-Serif" font-size="10.00">AppTopJesd</text>
</a>
</g>
</g>
<!-- Node8&#45;&gt;Node1 -->
<g id="edge7_Node000001_Node000008" class="edge">
<title>Node8&#45;&gt;Node1</title>
<g id="a_edge7_Node000001_Node000008"><a xlink:title=" ">
<path fill="none" stroke="#63b8ff" d="M342.33,-101.5C351.06,-101.5 359.91,-101.5 367.72,-101.5"/>
<polygon fill="#63b8ff" stroke="#63b8ff" points="342.2,-98 332.2,-101.5 342.2,-105 342.2,-98"/>
</a>
</g>
</g>
<!-- Node9 -->
<g id="Node000009" class="node">
<title>Node9</title>
<g id="a_Node000009"><a xlink:href="classAmcCarrierIbufGt.html" target="_top" xlink:title=" ">
<polygon fill="white" stroke="#bfbfbf" points="224,-130 123,-130 123,-111 224,-111 224,-130"/>
<text text-anchor="middle" x="173.5" y="-118" font-family="Helvetica,sans-Serif" font-size="10.00">AmcCarrierIbufGt</text>
</a>
</g>
</g>
<!-- Node9&#45;&gt;Node8 -->
<g id="edge8_Node000008_Node000009" class="edge">
<title>Node9&#45;&gt;Node8</title>
<g id="a_edge8_Node000008_Node000009"><a xlink:title=" ">
<path fill="none" stroke="#63b8ff" d="M234.36,-111.06C243.06,-109.69 251.76,-108.32 259.75,-107.06"/>
<polygon fill="#63b8ff" stroke="#63b8ff" points="233.54,-107.65 224.21,-112.66 234.63,-114.56 233.54,-107.65"/>
</a>
</g>
</g>
<!-- Node10 -->
<g id="Node000010" class="node">
<title>Node10</title>
<g id="a_Node000010"><a xlink:href="classAppTopJesd204b.html" target="_top" xlink:title=" ">
<polygon fill="white" stroke="#bfbfbf" points="221.5,-93 125.5,-93 125.5,-74 221.5,-74 221.5,-93"/>
<text text-anchor="middle" x="173.5" y="-81" font-family="Helvetica,sans-Serif" font-size="10.00">AppTopJesd204b</text>
</a>
</g>
</g>
<!-- Node10&#45;&gt;Node8 -->
<g id="edge9_Node000008_Node000010" class="edge">
<title>Node10&#45;&gt;Node8</title>
<g id="a_edge9_Node000008_Node000010"><a xlink:title=" ">
<path fill="none" stroke="#63b8ff" d="M231.69,-92.04C241.27,-93.47 250.96,-94.92 259.78,-96.24"/>
<polygon fill="#63b8ff" stroke="#63b8ff" points="232.19,-88.58 221.78,-90.56 231.15,-95.5 232.19,-88.58"/>
</a>
</g>
</g>
<!-- Node11 -->
<g id="Node000011" class="node">
<title>Node11</title>
<g id="a_Node000011"><a xlink:href="classDacSigGen.html" target="_top" xlink:title=" ">
<polygon fill="white" stroke="#bfbfbf" points="331,-56 261,-56 261,-37 331,-37 331,-56"/>
<text text-anchor="middle" x="296" y="-44" font-family="Helvetica,sans-Serif" font-size="10.00">DacSigGen</text>
</a>
</g>
</g>
<!-- Node11&#45;&gt;Node1 -->
<g id="edge10_Node000001_Node000011" class="edge">
<title>Node11&#45;&gt;Node1</title>
<g id="a_edge10_Node000001_Node000011"><a xlink:title=" ">
<path fill="none" stroke="#63b8ff" d="M322.58,-61.15C339.54,-70.87 361.33,-83.36 376.15,-91.84"/>
<polygon fill="#63b8ff" stroke="#63b8ff" points="324.14,-58.01 313.72,-56.08 320.66,-64.09 324.14,-58.01"/>
</a>
</g>
</g>
<!-- Node12 -->
<g id="Node000012" class="node">
<title>Node12</title>
<g id="a_Node000012"><a xlink:href="classDacSigGenReg.html" target="_top" xlink:title=" ">
<polygon fill="white" stroke="#bfbfbf" points="218,-56 129,-56 129,-37 218,-37 218,-56"/>
<text text-anchor="middle" x="173.5" y="-44" font-family="Helvetica,sans-Serif" font-size="10.00">DacSigGenReg</text>
</a>
</g>
</g>
<!-- Node12&#45;&gt;Node11 -->
<g id="edge11_Node000011_Node000012" class="edge">
<title>Node12&#45;&gt;Node11</title>
<g id="a_edge11_Node000011_Node000012"><a xlink:title=" ">
<path fill="none" stroke="#63b8ff" d="M228.04,-46.5C239.1,-46.5 250.47,-46.5 260.63,-46.5"/>
<polygon fill="#63b8ff" stroke="#63b8ff" points="228,-43 218,-46.5 228,-50 228,-43"/>
</a>
</g>
</g>
<!-- Node13 -->
<g id="Node000013" class="node">
<title>Node13</title>
<g id="a_Node000013"><a xlink:href="classDacSigGenLane.html" target="_top" xlink:title=" ">
<polygon fill="white" stroke="#bfbfbf" points="220,-19 127,-19 127,0 220,0 220,-19"/>
<text text-anchor="middle" x="173.5" y="-7" font-family="Helvetica,sans-Serif" font-size="10.00">DacSigGenLane</text>
</a>
</g>
</g>
<!-- Node13&#45;&gt;Node11 -->
<g id="edge12_Node000011_Node000013" class="edge">
<title>Node13&#45;&gt;Node11</title>
<g id="a_edge12_Node000011_Node000013"><a xlink:title=" ">
<path fill="none" stroke="#63b8ff" d="M215.54,-22.1C231.28,-26.93 248.97,-32.37 263.65,-36.88"/>
<polygon fill="#63b8ff" stroke="#63b8ff" points="216.12,-18.62 205.53,-19.03 214.06,-25.31 216.12,-18.62"/>
</a>
</g>
</g>
</g>
</svg>
