<?xml version="1.0" encoding="UTF-8" standalone="no"?>
<!DOCTYPE svg PUBLIC "-//W3C//DTD SVG 1.1//EN"
 "http://www.w3.org/Graphics/SVG/1.1/DTD/svg11.dtd">
<!-- Generated by graphviz version 2.43.0 (0)
 -->
<!-- Title: AmcCarrierSysReg Pages: 1 -->
<svg width="222pt" height="84pt"
 viewBox="0.00 0.00 222.00 84.00" xmlns="http://www.w3.org/2000/svg" xmlns:xlink="http://www.w3.org/1999/xlink">
<g id="graph0" class="graph" transform="scale(1 1) rotate(0) translate(4 80)">
<title>AmcCarrierSysReg</title>
<polygon fill="white" stroke="transparent" points="-4,4 -4,-80 218,-80 218,4 -4,4"/>
<!-- Node1 -->
<g id="node1" class="node">
<title>Node1</title>
<g id="a_node1"><a xlink:title=" ">
<polygon fill="#bfbfbf" stroke="black" points="59.5,-0.5 59.5,-19.5 166.5,-19.5 166.5,-0.5 59.5,-0.5"/>
<text text-anchor="middle" x="113" y="-7.5" font-family="Helvetica,sans-Serif" font-size="10.00">AmcCarrierSysReg</text>
</a>
</g>
</g>
<!-- Node2 -->
<g id="node2" class="node">
<title>Node2</title>
<g id="a_node2"><a xlink:href="classAmcCarrierSysMon.html" target="_top" xlink:title=" ">
<polygon fill="white" stroke="black" points="0,-56.5 0,-75.5 110,-75.5 110,-56.5 0,-56.5"/>
<text text-anchor="middle" x="55" y="-63.5" font-family="Helvetica,sans-Serif" font-size="10.00">AmcCarrierSysMon</text>
</a>
</g>
</g>
<!-- Node2&#45;&gt;Node1 -->
<g id="edge1" class="edge">
<title>Node2&#45;&gt;Node1</title>
<path fill="none" stroke="midnightblue" d="M71.91,-49.25C82.2,-39.67 94.97,-27.79 103.51,-19.83"/>
<polygon fill="midnightblue" stroke="midnightblue" points="69.25,-46.95 64.32,-56.32 74.02,-52.07 69.25,-46.95"/>
</g>
<!-- Node3 -->
<g id="node3" class="node">
<title>Node3</title>
<g id="a_node3"><a xlink:href="classAmcCarrierBsi.html" target="_top" xlink:title=" ">
<polygon fill="white" stroke="black" points="128,-56.5 128,-75.5 214,-75.5 214,-56.5 128,-56.5"/>
<text text-anchor="middle" x="171" y="-63.5" font-family="Helvetica,sans-Serif" font-size="10.00">AmcCarrierBsi</text>
</a>
</g>
</g>
<!-- Node3&#45;&gt;Node1 -->
<g id="edge2" class="edge">
<title>Node3&#45;&gt;Node1</title>
<path fill="none" stroke="midnightblue" d="M154.09,-49.25C143.8,-39.67 131.03,-27.79 122.49,-19.83"/>
<polygon fill="midnightblue" stroke="midnightblue" points="151.98,-52.07 161.68,-56.32 156.75,-46.95 151.98,-52.07"/>
</g>
</g>
</svg>
