<?xml version="1.0" encoding="UTF-8" standalone="no"?>
<!DOCTYPE svg PUBLIC "-//W3C//DTD SVG 1.1//EN"
 "http://www.w3.org/Graphics/SVG/1.1/DTD/svg11.dtd">
<!-- Generated by graphviz version 2.43.0 (0)
 -->
<!-- Title: AmcMrLlrfGen2UpConvertMapping Pages: 1 -->
<svg width="194pt" height="137pt"
 viewBox="0.00 0.00 194.00 137.00" xmlns="http://www.w3.org/2000/svg" xmlns:xlink="http://www.w3.org/1999/xlink">
<g id="graph0" class="graph" transform="scale(1 1) rotate(0) translate(4 133)">
<title>AmcMrLlrfGen2UpConvertMapping</title>
<!-- Node1 -->
<g id="Node000001" class="node">
<title>Node1</title>
<g id="a_Node000001"><a xlink:title=" ">
<polygon fill="#999999" stroke="#666666" points="186,-74 0,-74 0,-55 186,-55 186,-74"/>
<text text-anchor="middle" x="93" y="-62" font-family="Helvetica,sans-Serif" font-size="10.00">AmcMrLlrfGen2UpConvertMapping</text>
</a>
</g>
</g>
<!-- Node4 -->
<g id="Node000004" class="node">
<title>Node4</title>
<g id="a_Node000004"><a xlink:href="classAmcMrLlrfGen2UpConvert.html" target="_top" xlink:title=" ">
<polygon fill="white" stroke="#bfbfbf" points="165,-19 21,-19 21,0 165,0 165,-19"/>
<text text-anchor="middle" x="93" y="-7" font-family="Helvetica,sans-Serif" font-size="10.00">AmcMrLlrfGen2UpConvert</text>
</a>
</g>
</g>
<!-- Node1&#45;&gt;Node4 -->
<g id="edge3_Node000001_Node000004" class="edge">
<title>Node1&#45;&gt;Node4</title>
<g id="a_edge3_Node000001_Node000004"><a xlink:title=" ">
<path fill="none" stroke="#63b8ff" d="M93,-44.66C93,-35.93 93,-25.99 93,-19.09"/>
<polygon fill="#63b8ff" stroke="#63b8ff" points="89.5,-44.75 93,-54.75 96.5,-44.75 89.5,-44.75"/>
</a>
</g>
</g>
<!-- Node2 -->
<g id="Node000002" class="node">
<title>Node2</title>
<g id="a_Node000002"><a xlink:href="classJesdSyncIn.html" target="_top" xlink:title=" ">
<polygon fill="white" stroke="#bfbfbf" points="82.5,-129 13.5,-129 13.5,-110 82.5,-110 82.5,-129"/>
<text text-anchor="middle" x="48" y="-117" font-family="Helvetica,sans-Serif" font-size="10.00">JesdSyncIn</text>
</a>
</g>
</g>
<!-- Node2&#45;&gt;Node1 -->
<g id="edge1_Node000001_Node000002" class="edge">
<title>Node2&#45;&gt;Node1</title>
<g id="a_edge1_Node000001_Node000002"><a xlink:title=" ">
<path fill="none" stroke="#63b8ff" d="M62.05,-101.96C69.89,-92.72 79.33,-81.6 85.71,-74.09"/>
<polygon fill="#63b8ff" stroke="#63b8ff" points="59.24,-99.86 55.43,-109.75 64.57,-104.39 59.24,-99.86"/>
</a>
</g>
</g>
<!-- Node3 -->
<g id="Node000003" class="node">
<title>Node3</title>
<g id="a_Node000003"><a xlink:href="classJesdSyncOut.html" target="_top" xlink:title=" ">
<polygon fill="white" stroke="#bfbfbf" points="177.5,-129 100.5,-129 100.5,-110 177.5,-110 177.5,-129"/>
<text text-anchor="middle" x="139" y="-117" font-family="Helvetica,sans-Serif" font-size="10.00">JesdSyncOut</text>
</a>
</g>
</g>
<!-- Node3&#45;&gt;Node1 -->
<g id="edge2_Node000001_Node000003" class="edge">
<title>Node3&#45;&gt;Node1</title>
<g id="a_edge2_Node000001_Node000003"><a xlink:title=" ">
<path fill="none" stroke="#63b8ff" d="M124.64,-101.96C116.63,-92.72 106.97,-81.6 100.45,-74.09"/>
<polygon fill="#63b8ff" stroke="#63b8ff" points="122.21,-104.49 131.4,-109.75 127.49,-99.9 122.21,-104.49"/>
</a>
</g>
</g>
</g>
</svg>
