<?xml version="1.0" encoding="UTF-8" standalone="no"?>
<!DOCTYPE svg PUBLIC "-//W3C//DTD SVG 1.1//EN"
 "http://www.w3.org/Graphics/SVG/1.1/DTD/svg11.dtd">
<!-- Generated by graphviz version 2.43.0 (0)
 -->
<!-- Title: AmcCarrierCore Pages: 1 -->
<svg width="1025pt" height="332pt"
 viewBox="0.00 0.00 1025.00 332.00" xmlns="http://www.w3.org/2000/svg" xmlns:xlink="http://www.w3.org/1999/xlink">
<g id="graph0" class="graph" transform="scale(1 1) rotate(0) translate(4 328)">
<title>AmcCarrierCore</title>
<polygon fill="white" stroke="transparent" points="-4,4 -4,-328 1021,-328 1021,4 -4,4"/>
<!-- Node1 -->
<g id="node1" class="node">
<title>Node1</title>
<g id="a_node1"><a xlink:title=" ">
<polygon fill="#bfbfbf" stroke="black" points="769,-228.5 769,-247.5 863,-247.5 863,-228.5 769,-228.5"/>
<text text-anchor="middle" x="816" y="-235.5" font-family="Helvetica,sans-Serif" font-size="10.00">AmcCarrierCore</text>
</a>
</g>
</g>
<!-- Node23 -->
<g id="node23" class="node">
<title>Node23</title>
<g id="a_node23"><a xlink:href="classAmcCarrierCoreAdv.html" target="_top" xlink:title=" ">
<polygon fill="white" stroke="black" points="901.5,-247.5 901.5,-266.5 1014.5,-266.5 1014.5,-247.5 901.5,-247.5"/>
<text text-anchor="middle" x="958" y="-254.5" font-family="Helvetica,sans-Serif" font-size="10.00">AmcCarrierCoreAdv</text>
</a>
</g>
</g>
<!-- Node1&#45;&gt;Node23 -->
<g id="edge24" class="edge">
<title>Node1&#45;&gt;Node23</title>
<path fill="none" stroke="midnightblue" d="M873.37,-245.65C882.5,-246.89 891.95,-248.17 901.07,-249.41"/>
<polygon fill="midnightblue" stroke="midnightblue" points="873.61,-242.15 863.23,-244.27 872.67,-249.09 873.61,-242.15"/>
</g>
<!-- Node24 -->
<g id="node24" class="node">
<title>Node24</title>
<g id="a_node24"><a xlink:href="classAmcCarrierCoreBase.html" target="_top" xlink:title=" ">
<polygon fill="white" stroke="black" points="899,-209.5 899,-228.5 1017,-228.5 1017,-209.5 899,-209.5"/>
<text text-anchor="middle" x="958" y="-216.5" font-family="Helvetica,sans-Serif" font-size="10.00">AmcCarrierCoreBase</text>
</a>
</g>
</g>
<!-- Node1&#45;&gt;Node24 -->
<g id="edge25" class="edge">
<title>Node1&#45;&gt;Node24</title>
<path fill="none" stroke="midnightblue" d="M873.24,-230.37C881.58,-229.24 890.2,-228.07 898.59,-226.93"/>
<polygon fill="midnightblue" stroke="midnightblue" points="872.67,-226.91 863.23,-231.73 873.61,-233.85 872.67,-226.91"/>
</g>
<!-- Node2 -->
<g id="node2" class="node">
<title>Node2</title>
<g id="a_node2"><a xlink:href="classAmcCarrierIbufGt.html" target="_top" xlink:title=" ">
<polygon fill="white" stroke="black" points="456,-304.5 456,-323.5 557,-323.5 557,-304.5 456,-304.5"/>
<text text-anchor="middle" x="506.5" y="-311.5" font-family="Helvetica,sans-Serif" font-size="10.00">AmcCarrierIbufGt</text>
</a>
</g>
</g>
<!-- Node2&#45;&gt;Node1 -->
<g id="edge1" class="edge">
<title>Node2&#45;&gt;Node1</title>
<path fill="none" stroke="midnightblue" d="M567.66,-317.27C614.15,-317.84 679.39,-314.31 733,-295 762.03,-284.54 790.34,-261.07 804.89,-247.74"/>
<polygon fill="midnightblue" stroke="midnightblue" points="567.51,-313.77 557.45,-317.08 567.38,-320.77 567.51,-313.77"/>
</g>
<!-- Node8 -->
<g id="node8" class="node">
<title>Node8</title>
<g id="a_node8"><a xlink:href="classAmcCarrierTiming.html" target="_top" xlink:title=" ">
<polygon fill="white" stroke="black" points="624,-266.5 624,-285.5 729,-285.5 729,-266.5 624,-266.5"/>
<text text-anchor="middle" x="676.5" y="-273.5" font-family="Helvetica,sans-Serif" font-size="10.00">AmcCarrierTiming</text>
</a>
</g>
</g>
<!-- Node2&#45;&gt;Node8 -->
<g id="edge8" class="edge">
<title>Node2&#45;&gt;Node8</title>
<path fill="none" stroke="midnightblue" d="M559.78,-302.18C583.46,-296.82 611.09,-290.57 633.41,-285.52"/>
<polygon fill="midnightblue" stroke="midnightblue" points="558.87,-298.79 549.89,-304.41 560.42,-305.62 558.87,-298.79"/>
</g>
<!-- Node3 -->
<g id="node3" class="node">
<title>Node3</title>
<g id="a_node3"><a xlink:href="classAmcCarrierEth.html" target="_top" xlink:title=" ">
<polygon fill="white" stroke="black" points="633,-228.5 633,-247.5 720,-247.5 720,-228.5 633,-228.5"/>
<text text-anchor="middle" x="676.5" y="-235.5" font-family="Helvetica,sans-Serif" font-size="10.00">AmcCarrierEth</text>
</a>
</g>
</g>
<!-- Node3&#45;&gt;Node1 -->
<g id="edge2" class="edge">
<title>Node3&#45;&gt;Node1</title>
<path fill="none" stroke="midnightblue" d="M730.27,-238C743.01,-238 756.53,-238 768.93,-238"/>
<polygon fill="midnightblue" stroke="midnightblue" points="730.25,-234.5 720.25,-238 730.25,-241.5 730.25,-234.5"/>
</g>
<!-- Node4 -->
<g id="node4" class="node">
<title>Node4</title>
<g id="a_node4"><a xlink:href="classAmcCarrierRssi.html" target="_top" xlink:title=" ">
<polygon fill="white" stroke="black" points="454,-266.5 454,-285.5 559,-285.5 559,-266.5 454,-266.5"/>
<text text-anchor="middle" x="506.5" y="-273.5" font-family="Helvetica,sans-Serif" font-size="10.00">AmcCarrierRssi(2)</text>
</a>
</g>
</g>
<!-- Node4&#45;&gt;Node3 -->
<g id="edge3" class="edge">
<title>Node4&#45;&gt;Node3</title>
<path fill="none" stroke="midnightblue" d="M559.78,-264.18C583.46,-258.82 611.09,-252.57 633.41,-247.52"/>
<polygon fill="midnightblue" stroke="midnightblue" points="558.87,-260.79 549.89,-266.41 560.42,-267.62 558.87,-260.79"/>
</g>
<!-- Node5 -->
<g id="node5" class="node">
<title>Node5</title>
<g id="a_node5"><a xlink:href="classAmcCarrierRssiObFifo.html" target="_top" xlink:title=" ">
<polygon fill="white" stroke="black" points="256,-266.5 256,-285.5 393,-285.5 393,-266.5 256,-266.5"/>
<text text-anchor="middle" x="324.5" y="-273.5" font-family="Helvetica,sans-Serif" font-size="10.00">AmcCarrierRssiObFifo(2)</text>
</a>
</g>
</g>
<!-- Node5&#45;&gt;Node4 -->
<g id="edge4" class="edge">
<title>Node5&#45;&gt;Node4</title>
<path fill="none" stroke="midnightblue" d="M403.07,-276C420.25,-276 438.05,-276 453.9,-276"/>
<polygon fill="midnightblue" stroke="midnightblue" points="403.04,-272.5 393.04,-276 403.04,-279.5 403.04,-272.5"/>
</g>
<!-- Node6 -->
<g id="node6" class="node">
<title>Node6</title>
<g id="a_node6"><a xlink:href="classAmcCarrierRssiInterleave.html" target="_top" xlink:title=" ">
<polygon fill="white" stroke="black" points="429,-228.5 429,-247.5 584,-247.5 584,-228.5 429,-228.5"/>
<text text-anchor="middle" x="506.5" y="-235.5" font-family="Helvetica,sans-Serif" font-size="10.00">AmcCarrierRssiInterleave(2)</text>
</a>
</g>
</g>
<!-- Node6&#45;&gt;Node3 -->
<g id="edge5" class="edge">
<title>Node6&#45;&gt;Node3</title>
<path fill="none" stroke="midnightblue" d="M594.38,-238C607.8,-238 621.12,-238 632.97,-238"/>
<polygon fill="midnightblue" stroke="midnightblue" points="594.13,-234.5 584.13,-238 594.13,-241.5 594.13,-234.5"/>
</g>
<!-- Node7 -->
<g id="node7" class="node">
<title>Node7</title>
<g id="a_node7"><a xlink:href="classAmcCarrierRssiObFifo.html" target="_top" xlink:title=" ">
<polygon fill="white" stroke="black" points="263,-228.5 263,-247.5 386,-247.5 386,-228.5 263,-228.5"/>
<text text-anchor="middle" x="324.5" y="-235.5" font-family="Helvetica,sans-Serif" font-size="10.00">AmcCarrierRssiObFifo</text>
</a>
</g>
</g>
<!-- Node7&#45;&gt;Node6 -->
<g id="edge6" class="edge">
<title>Node7&#45;&gt;Node6</title>
<path fill="none" stroke="midnightblue" d="M396.28,-238C406.95,-238 418,-238 428.79,-238"/>
<polygon fill="midnightblue" stroke="midnightblue" points="396.19,-234.5 386.19,-238 396.19,-241.5 396.19,-234.5"/>
</g>
<!-- Node8&#45;&gt;Node1 -->
<g id="edge7" class="edge">
<title>Node8&#45;&gt;Node1</title>
<path fill="none" stroke="midnightblue" d="M722.07,-263.68C740.96,-258.46 762.65,-252.47 780.31,-247.59"/>
<polygon fill="midnightblue" stroke="midnightblue" points="720.9,-260.37 712.2,-266.41 722.77,-267.12 720.9,-260.37"/>
</g>
<!-- Node9 -->
<g id="node9" class="node">
<title>Node9</title>
<g id="a_node9"><a xlink:href="classAmcCarrierBsa.html" target="_top" xlink:title=" ">
<polygon fill="white" stroke="black" points="632,-133.5 632,-152.5 721,-152.5 721,-133.5 632,-133.5"/>
<text text-anchor="middle" x="676.5" y="-140.5" font-family="Helvetica,sans-Serif" font-size="10.00">AmcCarrierBsa</text>
</a>
</g>
</g>
<!-- Node9&#45;&gt;Node1 -->
<g id="edge9" class="edge">
<title>Node9&#45;&gt;Node1</title>
<path fill="none" stroke="midnightblue" d="M699.98,-158.53C728.61,-178.31 777.22,-211.89 801.02,-228.34"/>
<polygon fill="midnightblue" stroke="midnightblue" points="701.66,-155.44 691.44,-152.63 697.68,-161.2 701.66,-155.44"/>
</g>
<!-- Node10 -->
<g id="node10" class="node">
<title>Node10</title>
<g id="a_node10"><a xlink:href="classBsaWaveformEngine.html" target="_top" xlink:title=" ">
<polygon fill="white" stroke="black" points="441,-190.5 441,-209.5 572,-209.5 572,-190.5 441,-190.5"/>
<text text-anchor="middle" x="506.5" y="-197.5" font-family="Helvetica,sans-Serif" font-size="10.00">BsaWaveformEngine(2)</text>
</a>
</g>
</g>
<!-- Node10&#45;&gt;Node9 -->
<g id="edge10" class="edge">
<title>Node10&#45;&gt;Node9</title>
<path fill="none" stroke="midnightblue" d="M560.61,-187.91C568.51,-185.79 576.51,-183.47 584,-181 608.99,-172.76 636.8,-160.79 655.12,-152.5"/>
<polygon fill="midnightblue" stroke="midnightblue" points="559.52,-184.58 550.71,-190.47 561.27,-191.35 559.52,-184.58"/>
</g>
<!-- Node11 -->
<g id="node11" class="node">
<title>Node11</title>
<g id="a_node11"><a xlink:href="classBsaBufferControl.html" target="_top" xlink:title=" ">
<polygon fill="white" stroke="black" points="457,-152.5 457,-171.5 556,-171.5 556,-152.5 457,-152.5"/>
<text text-anchor="middle" x="506.5" y="-159.5" font-family="Helvetica,sans-Serif" font-size="10.00">BsaBufferControl</text>
</a>
</g>
</g>
<!-- Node11&#45;&gt;Node9 -->
<g id="edge11" class="edge">
<title>Node11&#45;&gt;Node9</title>
<path fill="none" stroke="midnightblue" d="M566.15,-155.37C587.76,-152.92 611.84,-150.2 631.89,-147.93"/>
<polygon fill="midnightblue" stroke="midnightblue" points="565.64,-151.9 556.09,-156.5 566.42,-158.86 565.64,-151.9"/>
</g>
<!-- Node12 -->
<g id="node12" class="node">
<title>Node12</title>
<g id="a_node12"><a xlink:href="classBsaAccumulator.html" target="_top" xlink:title=" ">
<polygon fill="white" stroke="black" points="276.5,-152.5 276.5,-171.5 372.5,-171.5 372.5,-152.5 276.5,-152.5"/>
<text text-anchor="middle" x="324.5" y="-159.5" font-family="Helvetica,sans-Serif" font-size="10.00">BsaAccumulator</text>
</a>
</g>
</g>
<!-- Node12&#45;&gt;Node11 -->
<g id="edge12" class="edge">
<title>Node12&#45;&gt;Node11</title>
<path fill="none" stroke="midnightblue" d="M383.1,-162C406.9,-162 434.19,-162 456.96,-162"/>
<polygon fill="midnightblue" stroke="midnightblue" points="382.79,-158.5 372.79,-162 382.79,-165.5 382.79,-158.5"/>
</g>
<!-- Node13 -->
<g id="node13" class="node">
<title>Node13</title>
<g id="a_node13"><a xlink:href="classBsssWrapper.html" target="_top" xlink:title=" ">
<polygon fill="white" stroke="black" points="466.5,-114.5 466.5,-133.5 546.5,-133.5 546.5,-114.5 466.5,-114.5"/>
<text text-anchor="middle" x="506.5" y="-121.5" font-family="Helvetica,sans-Serif" font-size="10.00">BsssWrapper</text>
</a>
</g>
</g>
<!-- Node13&#45;&gt;Node9 -->
<g id="edge13" class="edge">
<title>Node13&#45;&gt;Node9</title>
<path fill="none" stroke="midnightblue" d="M557.11,-129.61C580.85,-132.3 609.02,-135.48 631.93,-138.07"/>
<polygon fill="midnightblue" stroke="midnightblue" points="557.22,-126.1 546.89,-128.45 556.43,-133.06 557.22,-126.1"/>
</g>
<!-- Node14 -->
<g id="node14" class="node">
<title>Node14</title>
<g id="a_node14"><a xlink:href="classBldAxiStream.html" target="_top" xlink:title=" ">
<polygon fill="white" stroke="black" points="283,-95.5 283,-114.5 366,-114.5 366,-95.5 283,-95.5"/>
<text text-anchor="middle" x="324.5" y="-102.5" font-family="Helvetica,sans-Serif" font-size="10.00">BldAxiStream</text>
</a>
</g>
</g>
<!-- Node14&#45;&gt;Node13 -->
<g id="edge14" class="edge">
<title>Node14&#45;&gt;Node13</title>
<path fill="none" stroke="midnightblue" d="M376.53,-110.39C405.04,-113.4 440.03,-117.09 466.36,-119.87"/>
<polygon fill="midnightblue" stroke="midnightblue" points="376.66,-106.88 366.34,-109.31 375.92,-113.84 376.66,-106.88"/>
</g>
<!-- Node21 -->
<g id="node21" class="node">
<title>Node21</title>
<g id="a_node21"><a xlink:href="classBldWrapper.html" target="_top" xlink:title=" ">
<polygon fill="white" stroke="black" points="469.5,-76.5 469.5,-95.5 543.5,-95.5 543.5,-76.5 469.5,-76.5"/>
<text text-anchor="middle" x="506.5" y="-83.5" font-family="Helvetica,sans-Serif" font-size="10.00">BldWrapper</text>
</a>
</g>
</g>
<!-- Node14&#45;&gt;Node21 -->
<g id="edge22" class="edge">
<title>Node14&#45;&gt;Node21</title>
<path fill="none" stroke="midnightblue" d="M376.5,-99.62C406.13,-96.49 442.75,-92.62 469.39,-89.81"/>
<polygon fill="midnightblue" stroke="midnightblue" points="375.92,-96.16 366.34,-100.69 376.66,-103.12 375.92,-96.16"/>
</g>
<!-- Node15 -->
<g id="node15" class="node">
<title>Node15</title>
<g id="a_node15"><a xlink:href="classBldEventSelect.html" target="_top" xlink:title=" ">
<polygon fill="white" stroke="black" points="124.5,-95.5 124.5,-114.5 214.5,-114.5 214.5,-95.5 124.5,-95.5"/>
<text text-anchor="middle" x="169.5" y="-102.5" font-family="Helvetica,sans-Serif" font-size="10.00">BldEventSelect</text>
</a>
</g>
</g>
<!-- Node15&#45;&gt;Node14 -->
<g id="edge15" class="edge">
<title>Node15&#45;&gt;Node14</title>
<path fill="none" stroke="midnightblue" d="M224.81,-105C243.89,-105 264.98,-105 282.75,-105"/>
<polygon fill="midnightblue" stroke="midnightblue" points="224.75,-101.5 214.75,-105 224.75,-108.5 224.75,-101.5"/>
</g>
<!-- Node16 -->
<g id="node16" class="node">
<title>Node16</title>
<g id="a_node16"><a xlink:href="classBldEventRAM.html" target="_top" xlink:title=" ">
<polygon fill="white" stroke="black" points="0,-95.5 0,-114.5 83,-114.5 83,-95.5 0,-95.5"/>
<text text-anchor="middle" x="41.5" y="-102.5" font-family="Helvetica,sans-Serif" font-size="10.00">BldEventRAM</text>
</a>
</g>
</g>
<!-- Node16&#45;&gt;Node15 -->
<g id="edge16" class="edge">
<title>Node16&#45;&gt;Node15</title>
<path fill="none" stroke="midnightblue" d="M93.12,-105C103.37,-105 114.07,-105 124.09,-105"/>
<polygon fill="midnightblue" stroke="midnightblue" points="93.06,-101.5 83.06,-105 93.06,-108.5 93.06,-101.5"/>
</g>
<!-- Node17 -->
<g id="node17" class="node">
<title>Node17</title>
<g id="a_node17"><a xlink:href="classBsasWrapper.html" target="_top" xlink:title=" ">
<polygon fill="white" stroke="black" points="466,-38.5 466,-57.5 547,-57.5 547,-38.5 466,-38.5"/>
<text text-anchor="middle" x="506.5" y="-45.5" font-family="Helvetica,sans-Serif" font-size="10.00">BsasWrapper</text>
</a>
</g>
</g>
<!-- Node17&#45;&gt;Node9 -->
<g id="edge17" class="edge">
<title>Node17&#45;&gt;Node9</title>
<path fill="none" stroke="midnightblue" d="M557.17,-54.48C566.66,-57.29 576.1,-61.29 584,-67 608.29,-84.54 596.49,-105.42 620,-124 624.87,-127.85 630.58,-130.95 636.44,-133.43"/>
<polygon fill="midnightblue" stroke="midnightblue" points="557.87,-51.05 547.31,-51.97 556.14,-57.83 557.87,-51.05"/>
</g>
<!-- Node18 -->
<g id="node18" class="node">
<title>Node18</title>
<g id="a_node18"><a xlink:href="classBsasModule.html" target="_top" xlink:title=" ">
<polygon fill="white" stroke="black" points="286.5,-38.5 286.5,-57.5 362.5,-57.5 362.5,-38.5 286.5,-38.5"/>
<text text-anchor="middle" x="324.5" y="-45.5" font-family="Helvetica,sans-Serif" font-size="10.00">BsasModule</text>
</a>
</g>
</g>
<!-- Node18&#45;&gt;Node17 -->
<g id="edge18" class="edge">
<title>Node18&#45;&gt;Node17</title>
<path fill="none" stroke="midnightblue" d="M373.07,-48C401.96,-48 438.41,-48 465.75,-48"/>
<polygon fill="midnightblue" stroke="midnightblue" points="372.8,-44.5 362.8,-48 372.8,-51.5 372.8,-44.5"/>
</g>
<!-- Node19 -->
<g id="node19" class="node">
<title>Node19</title>
<g id="a_node19"><a xlink:href="classBsasAccumulator.html" target="_top" xlink:title=" ">
<polygon fill="white" stroke="black" points="119,-38.5 119,-57.5 220,-57.5 220,-38.5 119,-38.5"/>
<text text-anchor="middle" x="169.5" y="-45.5" font-family="Helvetica,sans-Serif" font-size="10.00">BsasAccumulator</text>
</a>
</g>
</g>
<!-- Node19&#45;&gt;Node18 -->
<g id="edge19" class="edge">
<title>Node19&#45;&gt;Node18</title>
<path fill="none" stroke="midnightblue" d="M230.18,-48C249.05,-48 269.36,-48 286.19,-48"/>
<polygon fill="midnightblue" stroke="midnightblue" points="230.17,-44.5 220.17,-48 230.17,-51.5 230.17,-44.5"/>
</g>
<!-- Node20 -->
<g id="node20" class="node">
<title>Node20</title>
<g id="a_node20"><a xlink:href="classBsaAxiInterconnectWrapper.html" target="_top" xlink:title=" ">
<polygon fill="white" stroke="black" points="430.5,-0.5 430.5,-19.5 582.5,-19.5 582.5,-0.5 430.5,-0.5"/>
<text text-anchor="middle" x="506.5" y="-7.5" font-family="Helvetica,sans-Serif" font-size="10.00">BsaAxiInterconnectWrapper</text>
</a>
</g>
</g>
<!-- Node20&#45;&gt;Node9 -->
<g id="edge20" class="edge">
<title>Node20&#45;&gt;Node9</title>
<path fill="none" stroke="midnightblue" d="M578.46,-24.71C580.4,-26.02 582.25,-27.45 584,-29 617.77,-58.98 587.56,-92.59 620,-124 624.02,-127.9 628.88,-131 634.03,-133.46"/>
<polygon fill="midnightblue" stroke="midnightblue" points="579.92,-21.51 569.49,-19.63 576.47,-27.6 579.92,-21.51"/>
</g>
<!-- Node21&#45;&gt;Node9 -->
<g id="edge21" class="edge">
<title>Node21&#45;&gt;Node9</title>
<path fill="none" stroke="midnightblue" d="M553.77,-95.58C563.87,-98.2 574.41,-101.34 584,-105 600.9,-111.45 603.39,-116.83 620,-124 627.95,-127.43 636.74,-130.68 644.93,-133.49"/>
<polygon fill="midnightblue" stroke="midnightblue" points="554.4,-92.13 543.86,-93.13 552.73,-98.92 554.4,-92.13"/>
</g>
<!-- Node22 -->
<g id="node22" class="node">
<title>Node22</title>
<g id="a_node22"><a xlink:href="classAmcCarrierDdrMem.html" target="_top" xlink:title=" ">
<polygon fill="white" stroke="black" points="620,-95.5 620,-114.5 733,-114.5 733,-95.5 620,-95.5"/>
<text text-anchor="middle" x="676.5" y="-102.5" font-family="Helvetica,sans-Serif" font-size="10.00">AmcCarrierDdrMem</text>
</a>
</g>
</g>
<!-- Node22&#45;&gt;Node1 -->
<g id="edge23" class="edge">
<title>Node22&#45;&gt;Node1</title>
<path fill="none" stroke="midnightblue" d="M725.01,-118.94C727.82,-120.47 730.5,-122.15 733,-124 772.15,-153.06 800.18,-206.29 810.57,-228.19"/>
<polygon fill="midnightblue" stroke="midnightblue" points="726.32,-115.69 715.79,-114.59 723.34,-122.02 726.32,-115.69"/>
</g>
</g>
</svg>
