<?xml version="1.0" encoding="UTF-8" standalone="no"?>
<!DOCTYPE svg PUBLIC "-//W3C//DTD SVG 1.1//EN"
 "http://www.w3.org/Graphics/SVG/1.1/DTD/svg11.dtd">
<!-- Generated by graphviz version 2.43.0 (0)
 -->
<!-- Title: AmcCarrierRssiObFifo Pages: 1 -->
<svg width="270pt" height="252pt"
 viewBox="0.00 0.00 270.00 252.00" xmlns="http://www.w3.org/2000/svg" xmlns:xlink="http://www.w3.org/1999/xlink">
<g id="graph0" class="graph" transform="scale(1 1) rotate(0) translate(4 248)">
<title>AmcCarrierRssiObFifo</title>
<polygon fill="white" stroke="transparent" points="-4,4 -4,-248 266,-248 266,4 -4,4"/>
<!-- Node1 -->
<g id="node1" class="node">
<title>Node1</title>
<g id="a_node1"><a xlink:title=" ">
<polygon fill="#bfbfbf" stroke="black" points="62,-224.5 62,-243.5 185,-243.5 185,-224.5 62,-224.5"/>
<text text-anchor="middle" x="123.5" y="-231.5" font-family="Helvetica,sans-Serif" font-size="10.00">AmcCarrierRssiObFifo</text>
</a>
</g>
</g>
<!-- Node2 -->
<g id="node2" class="node">
<title>Node2</title>
<g id="a_node2"><a xlink:href="classAmcCarrierRssi.html" target="_top" xlink:title=" ">
<polygon fill="white" stroke="black" points="10.5,-168.5 10.5,-187.5 102.5,-187.5 102.5,-168.5 10.5,-168.5"/>
<text text-anchor="middle" x="56.5" y="-175.5" font-family="Helvetica,sans-Serif" font-size="10.00">AmcCarrierRssi</text>
</a>
</g>
</g>
<!-- Node1&#45;&gt;Node2 -->
<g id="edge1" class="edge">
<title>Node1&#45;&gt;Node2</title>
<path fill="none" stroke="midnightblue" d="M104.67,-217.82C92.66,-208.15 77.53,-195.95 67.46,-187.83"/>
<polygon fill="midnightblue" stroke="midnightblue" points="102.75,-220.77 112.74,-224.32 107.15,-215.32 102.75,-220.77"/>
</g>
<!-- Node7 -->
<g id="node7" class="node">
<title>Node7</title>
<g id="a_node7"><a xlink:href="classAmcCarrierRssiInterleave.html" target="_top" xlink:title=" ">
<polygon fill="white" stroke="black" points="121,-168.5 121,-187.5 262,-187.5 262,-168.5 121,-168.5"/>
<text text-anchor="middle" x="191.5" y="-175.5" font-family="Helvetica,sans-Serif" font-size="10.00">AmcCarrierRssiInterleave</text>
</a>
</g>
</g>
<!-- Node1&#45;&gt;Node7 -->
<g id="edge6" class="edge">
<title>Node1&#45;&gt;Node7</title>
<path fill="none" stroke="midnightblue" d="M142.26,-218.1C154.5,-208.38 170.06,-196.03 180.38,-187.83"/>
<polygon fill="midnightblue" stroke="midnightblue" points="140.08,-215.36 134.43,-224.32 144.43,-220.85 140.08,-215.36"/>
</g>
<!-- Node3 -->
<g id="node3" class="node">
<title>Node3</title>
<g id="a_node3"><a xlink:href="classAmcCarrierEth.html" target="_top" xlink:title=" ">
<polygon fill="white" stroke="black" points="80,-112.5 80,-131.5 167,-131.5 167,-112.5 80,-112.5"/>
<text text-anchor="middle" x="123.5" y="-119.5" font-family="Helvetica,sans-Serif" font-size="10.00">AmcCarrierEth</text>
</a>
</g>
</g>
<!-- Node2&#45;&gt;Node3 -->
<g id="edge2" class="edge">
<title>Node2&#45;&gt;Node3</title>
<path fill="none" stroke="midnightblue" d="M75.33,-161.82C87.34,-152.15 102.47,-139.95 112.54,-131.83"/>
<polygon fill="midnightblue" stroke="midnightblue" points="72.85,-159.32 67.26,-168.32 77.25,-164.77 72.85,-159.32"/>
</g>
<!-- Node4 -->
<g id="node4" class="node">
<title>Node4</title>
<g id="a_node4"><a xlink:href="classAmcCarrierCore.html" target="_top" xlink:title=" ">
<polygon fill="white" stroke="black" points="76.5,-56.5 76.5,-75.5 170.5,-75.5 170.5,-56.5 76.5,-56.5"/>
<text text-anchor="middle" x="123.5" y="-63.5" font-family="Helvetica,sans-Serif" font-size="10.00">AmcCarrierCore</text>
</a>
</g>
</g>
<!-- Node3&#45;&gt;Node4 -->
<g id="edge3" class="edge">
<title>Node3&#45;&gt;Node4</title>
<path fill="none" stroke="midnightblue" d="M123.5,-101.8C123.5,-92.91 123.5,-82.78 123.5,-75.75"/>
<polygon fill="midnightblue" stroke="midnightblue" points="120,-102.08 123.5,-112.08 127,-102.08 120,-102.08"/>
</g>
<!-- Node5 -->
<g id="node5" class="node">
<title>Node5</title>
<g id="a_node5"><a xlink:href="classAmcCarrierCoreAdv.html" target="_top" xlink:title=" ">
<polygon fill="white" stroke="black" points="0,-0.5 0,-19.5 113,-19.5 113,-0.5 0,-0.5"/>
<text text-anchor="middle" x="56.5" y="-7.5" font-family="Helvetica,sans-Serif" font-size="10.00">AmcCarrierCoreAdv</text>
</a>
</g>
</g>
<!-- Node4&#45;&gt;Node5 -->
<g id="edge4" class="edge">
<title>Node4&#45;&gt;Node5</title>
<path fill="none" stroke="midnightblue" d="M104.67,-49.82C92.66,-40.15 77.53,-27.95 67.46,-19.83"/>
<polygon fill="midnightblue" stroke="midnightblue" points="102.75,-52.77 112.74,-56.32 107.15,-47.32 102.75,-52.77"/>
</g>
<!-- Node6 -->
<g id="node6" class="node">
<title>Node6</title>
<g id="a_node6"><a xlink:href="classAmcCarrierCoreBase.html" target="_top" xlink:title=" ">
<polygon fill="white" stroke="black" points="131.5,-0.5 131.5,-19.5 249.5,-19.5 249.5,-0.5 131.5,-0.5"/>
<text text-anchor="middle" x="190.5" y="-7.5" font-family="Helvetica,sans-Serif" font-size="10.00">AmcCarrierCoreBase</text>
</a>
</g>
</g>
<!-- Node4&#45;&gt;Node6 -->
<g id="edge5" class="edge">
<title>Node4&#45;&gt;Node6</title>
<path fill="none" stroke="midnightblue" d="M142.33,-49.82C154.34,-40.15 169.47,-27.95 179.54,-19.83"/>
<polygon fill="midnightblue" stroke="midnightblue" points="139.85,-47.32 134.26,-56.32 144.25,-52.77 139.85,-47.32"/>
</g>
<!-- Node7&#45;&gt;Node3 -->
<g id="edge7" class="edge">
<title>Node7&#45;&gt;Node3</title>
<path fill="none" stroke="midnightblue" d="M172.74,-162.1C160.5,-152.38 144.94,-140.03 134.62,-131.83"/>
<polygon fill="midnightblue" stroke="midnightblue" points="170.57,-164.85 180.57,-168.32 174.92,-159.36 170.57,-164.85"/>
</g>
</g>
</svg>
