<?xml version="1.0" encoding="UTF-8" standalone="no"?>
<!DOCTYPE svg PUBLIC "-//W3C//DTD SVG 1.1//EN"
 "http://www.w3.org/Graphics/SVG/1.1/DTD/svg11.dtd">
<!-- Generated by graphviz version 2.43.0 (0)
 -->
<!-- Title: AmcMrLlrfUpConvertCore Pages: 1 -->
<svg width="473pt" height="208pt"
 viewBox="0.00 0.00 473.00 208.00" xmlns="http://www.w3.org/2000/svg" xmlns:xlink="http://www.w3.org/1999/xlink">
<g id="graph0" class="graph" transform="scale(1 1) rotate(0) translate(4 204)">
<title>AmcMrLlrfUpConvertCore</title>
<polygon fill="white" stroke="transparent" points="-4,4 -4,-204 469,-204 469,4 -4,4"/>
<!-- Node1 -->
<g id="node1" class="node">
<title>Node1</title>
<g id="a_node1"><a xlink:title=" ">
<polygon fill="#bfbfbf" stroke="black" points="324,-76.5 324,-95.5 465,-95.5 465,-76.5 324,-76.5"/>
<text text-anchor="middle" x="394.5" y="-83.5" font-family="Helvetica,sans-Serif" font-size="10.00">AmcMrLlrfUpConvertCore</text>
</a>
</g>
</g>
<!-- Node2 -->
<g id="node2" class="node">
<title>Node2</title>
<g id="a_node2"><a xlink:href="classAmcMrLlrfUpConvertMapping.html" target="_top" xlink:title=" ">
<polygon fill="white" stroke="black" points="127,-152.5 127,-171.5 288,-171.5 288,-152.5 127,-152.5"/>
<text text-anchor="middle" x="207.5" y="-159.5" font-family="Helvetica,sans-Serif" font-size="10.00">AmcMrLlrfUpConvertMapping</text>
</a>
</g>
</g>
<!-- Node2&#45;&gt;Node1 -->
<g id="edge1" class="edge">
<title>Node2&#45;&gt;Node1</title>
<path fill="none" stroke="midnightblue" d="M267.13,-149.83C274.25,-147.82 281.35,-145.54 288,-143 322.03,-130 358.84,-108.14 378.72,-95.6"/>
<polygon fill="midnightblue" stroke="midnightblue" points="266.21,-146.46 257.46,-152.42 268.02,-153.22 266.21,-146.46"/>
</g>
<!-- Node3 -->
<g id="node3" class="node">
<title>Node3</title>
<g id="a_node3"><a xlink:href="classJesdSyncIn.html" target="_top" xlink:title=" ">
<polygon fill="white" stroke="black" points="4,-180.5 4,-199.5 87,-199.5 87,-180.5 4,-180.5"/>
<text text-anchor="middle" x="45.5" y="-187.5" font-family="Helvetica,sans-Serif" font-size="10.00">JesdSyncIn(2)</text>
</a>
</g>
</g>
<!-- Node3&#45;&gt;Node2 -->
<g id="edge2" class="edge">
<title>Node3&#45;&gt;Node2</title>
<path fill="none" stroke="midnightblue" d="M97.31,-181.11C114.79,-178.05 134.44,-174.61 152.19,-171.5"/>
<polygon fill="midnightblue" stroke="midnightblue" points="96.54,-177.69 87.29,-182.86 97.74,-184.59 96.54,-177.69"/>
</g>
<!-- Node4 -->
<g id="node4" class="node">
<title>Node4</title>
<g id="a_node4"><a xlink:href="classJesdSyncOut.html" target="_top" xlink:title=" ">
<polygon fill="white" stroke="black" points="0,-142.5 0,-161.5 91,-161.5 91,-142.5 0,-142.5"/>
<text text-anchor="middle" x="45.5" y="-149.5" font-family="Helvetica,sans-Serif" font-size="10.00">JesdSyncOut(6)</text>
</a>
</g>
</g>
<!-- Node4&#45;&gt;Node2 -->
<g id="edge3" class="edge">
<title>Node4&#45;&gt;Node2</title>
<path fill="none" stroke="midnightblue" d="M101.31,-155.43C109.59,-155.94 118.27,-156.49 126.94,-157.03"/>
<polygon fill="midnightblue" stroke="midnightblue" points="101.27,-151.92 91.07,-154.79 100.83,-158.9 101.27,-151.92"/>
</g>
<!-- Node5 -->
<g id="node5" class="node">
<title>Node5</title>
<g id="a_node5"><a xlink:href="classAxiSerAttnMaster.html" target="_top" xlink:title=" ">
<polygon fill="white" stroke="black" points="156.5,-114.5 156.5,-133.5 258.5,-133.5 258.5,-114.5 156.5,-114.5"/>
<text text-anchor="middle" x="207.5" y="-121.5" font-family="Helvetica,sans-Serif" font-size="10.00">AxiSerAttnMaster</text>
</a>
</g>
</g>
<!-- Node5&#45;&gt;Node1 -->
<g id="edge4" class="edge">
<title>Node5&#45;&gt;Node1</title>
<path fill="none" stroke="midnightblue" d="M265.02,-112.39C291.33,-106.99 322.24,-100.64 347.15,-95.52"/>
<polygon fill="midnightblue" stroke="midnightblue" points="264.27,-108.97 255.18,-114.41 265.68,-115.83 264.27,-108.97"/>
</g>
<!-- Node6 -->
<g id="node6" class="node">
<title>Node6</title>
<g id="a_node6"><a xlink:href="classLvdsDacSigGen.html" target="_top" xlink:title=" ">
<polygon fill="white" stroke="black" points="161.5,-76.5 161.5,-95.5 253.5,-95.5 253.5,-76.5 161.5,-76.5"/>
<text text-anchor="middle" x="207.5" y="-83.5" font-family="Helvetica,sans-Serif" font-size="10.00">LvdsDacSigGen</text>
</a>
</g>
</g>
<!-- Node6&#45;&gt;Node1 -->
<g id="edge5" class="edge">
<title>Node6&#45;&gt;Node1</title>
<path fill="none" stroke="midnightblue" d="M263.94,-86C282.76,-86 304.04,-86 323.83,-86"/>
<polygon fill="midnightblue" stroke="midnightblue" points="263.76,-82.5 253.76,-86 263.76,-89.5 263.76,-82.5"/>
</g>
<!-- Node7 -->
<g id="node7" class="node">
<title>Node7</title>
<g id="a_node7"><a xlink:href="classLvdsDacRegItf.html" target="_top" xlink:title=" ">
<polygon fill="white" stroke="black" points="2,-95.5 2,-114.5 89,-114.5 89,-95.5 2,-95.5"/>
<text text-anchor="middle" x="45.5" y="-102.5" font-family="Helvetica,sans-Serif" font-size="10.00">LvdsDacRegItf</text>
</a>
</g>
</g>
<!-- Node7&#45;&gt;Node6 -->
<g id="edge6" class="edge">
<title>Node7&#45;&gt;Node6</title>
<path fill="none" stroke="midnightblue" d="M99.56,-98.7C119.54,-96.33 142.06,-93.65 161.27,-91.37"/>
<polygon fill="midnightblue" stroke="midnightblue" points="98.89,-95.25 89.38,-99.91 99.72,-102.2 98.89,-95.25"/>
</g>
<!-- Node8 -->
<g id="node8" class="node">
<title>Node8</title>
<g id="a_node8"><a xlink:href="classLvdsDacLane.html" target="_top" xlink:title=" ">
<polygon fill="white" stroke="black" points="5,-57.5 5,-76.5 86,-76.5 86,-57.5 5,-57.5"/>
<text text-anchor="middle" x="45.5" y="-64.5" font-family="Helvetica,sans-Serif" font-size="10.00">LvdsDacLane</text>
</a>
</g>
</g>
<!-- Node8&#45;&gt;Node6 -->
<g id="edge7" class="edge">
<title>Node8&#45;&gt;Node6</title>
<path fill="none" stroke="midnightblue" d="M96.02,-72.88C116.92,-75.36 141.08,-78.23 161.47,-80.65"/>
<polygon fill="midnightblue" stroke="midnightblue" points="96.39,-69.4 86.05,-71.7 95.57,-76.35 96.39,-69.4"/>
</g>
<!-- Node9 -->
<g id="node9" class="node">
<title>Node9</title>
<g id="a_node9"><a xlink:href="classOutputTapDelay.html" target="_top" xlink:title=" ">
<polygon fill="white" stroke="black" points="160,-38.5 160,-57.5 255,-57.5 255,-38.5 160,-38.5"/>
<text text-anchor="middle" x="207.5" y="-45.5" font-family="Helvetica,sans-Serif" font-size="10.00">OutputTapDelay</text>
</a>
</g>
</g>
<!-- Node9&#45;&gt;Node1 -->
<g id="edge8" class="edge">
<title>Node9&#45;&gt;Node1</title>
<path fill="none" stroke="midnightblue" d="M265.02,-59.61C291.33,-65.01 322.24,-71.36 347.15,-76.48"/>
<polygon fill="midnightblue" stroke="midnightblue" points="265.68,-56.17 255.18,-57.59 264.27,-63.03 265.68,-56.17"/>
</g>
<!-- Node10 -->
<g id="node10" class="node">
<title>Node10</title>
<g id="a_node10"><a xlink:href="classAmcClkFreqReg.html" target="_top" xlink:title=" ">
<polygon fill="white" stroke="black" points="160.5,-0.5 160.5,-19.5 254.5,-19.5 254.5,-0.5 160.5,-0.5"/>
<text text-anchor="middle" x="207.5" y="-7.5" font-family="Helvetica,sans-Serif" font-size="10.00">AmcClkFreqReg</text>
</a>
</g>
</g>
<!-- Node10&#45;&gt;Node1 -->
<g id="edge9" class="edge">
<title>Node10&#45;&gt;Node1</title>
<path fill="none" stroke="midnightblue" d="M264.29,-21.37C272.35,-23.58 280.46,-26.12 288,-29 322.03,-42 358.84,-63.86 378.72,-76.4"/>
<polygon fill="midnightblue" stroke="midnightblue" points="265.08,-17.96 254.52,-18.85 263.33,-24.74 265.08,-17.96"/>
</g>
</g>
</svg>
