<?xml version="1.0" encoding="UTF-8" standalone="no"?>
<!DOCTYPE svg PUBLIC "-//W3C//DTD SVG 1.1//EN"
 "http://www.w3.org/Graphics/SVG/1.1/DTD/svg11.dtd">
<!-- Generated by graphviz version 2.43.0 (0)
 -->
<!-- Title: AmcCarrierCoreAdv Pages: 1 -->
<svg width="1022pt" height="484pt"
 viewBox="0.00 0.00 1022.00 484.00" xmlns="http://www.w3.org/2000/svg" xmlns:xlink="http://www.w3.org/1999/xlink">
<g id="graph0" class="graph" transform="scale(1 1) rotate(0) translate(4 480)">
<title>AmcCarrierCoreAdv</title>
<polygon fill="white" stroke="transparent" points="-4,4 -4,-480 1018,-480 1018,4 -4,4"/>
<!-- Node1 -->
<g id="node1" class="node">
<title>Node1</title>
<g id="a_node1"><a xlink:title=" ">
<polygon fill="#bfbfbf" stroke="black" points="901,-342.5 901,-361.5 1014,-361.5 1014,-342.5 901,-342.5"/>
<text text-anchor="middle" x="957.5" y="-349.5" font-family="Helvetica,sans-Serif" font-size="10.00">AmcCarrierCoreAdv</text>
</a>
</g>
</g>
<!-- Node2 -->
<g id="node2" class="node">
<title>Node2</title>
<g id="a_node2"><a xlink:href="classAmcCarrierSysReg.html" target="_top" xlink:title=" ">
<polygon fill="white" stroke="black" points="758,-418.5 758,-437.5 865,-437.5 865,-418.5 758,-418.5"/>
<text text-anchor="middle" x="811.5" y="-425.5" font-family="Helvetica,sans-Serif" font-size="10.00">AmcCarrierSysReg</text>
</a>
</g>
</g>
<!-- Node2&#45;&gt;Node1 -->
<g id="edge1" class="edge">
<title>Node2&#45;&gt;Node1</title>
<path fill="none" stroke="midnightblue" d="M839.89,-413.54C868.82,-398.28 913.6,-374.64 938.41,-361.55"/>
<polygon fill="midnightblue" stroke="midnightblue" points="837.95,-410.61 830.74,-418.37 841.22,-416.8 837.95,-410.61"/>
</g>
<!-- Node3 -->
<g id="node3" class="node">
<title>Node3</title>
<g id="a_node3"><a xlink:href="classAmcCarrierSysMon.html" target="_top" xlink:title=" ">
<polygon fill="white" stroke="black" points="610.5,-456.5 610.5,-475.5 720.5,-475.5 720.5,-456.5 610.5,-456.5"/>
<text text-anchor="middle" x="665.5" y="-463.5" font-family="Helvetica,sans-Serif" font-size="10.00">AmcCarrierSysMon</text>
</a>
</g>
</g>
<!-- Node3&#45;&gt;Node2 -->
<g id="edge2" class="edge">
<title>Node3&#45;&gt;Node2</title>
<path fill="none" stroke="midnightblue" d="M712.67,-453.82C732.66,-448.54 755.72,-442.46 774.42,-437.52"/>
<polygon fill="midnightblue" stroke="midnightblue" points="711.61,-450.48 702.84,-456.41 713.4,-457.24 711.61,-450.48"/>
</g>
<!-- Node4 -->
<g id="node4" class="node">
<title>Node4</title>
<g id="a_node4"><a xlink:href="classAmcCarrierBsi.html" target="_top" xlink:title=" ">
<polygon fill="white" stroke="black" points="622.5,-418.5 622.5,-437.5 708.5,-437.5 708.5,-418.5 622.5,-418.5"/>
<text text-anchor="middle" x="665.5" y="-425.5" font-family="Helvetica,sans-Serif" font-size="10.00">AmcCarrierBsi</text>
</a>
</g>
</g>
<!-- Node4&#45;&gt;Node2 -->
<g id="edge3" class="edge">
<title>Node4&#45;&gt;Node2</title>
<path fill="none" stroke="midnightblue" d="M718.57,-428C731.37,-428 745.09,-428 757.91,-428"/>
<polygon fill="midnightblue" stroke="midnightblue" points="718.54,-424.5 708.54,-428 718.54,-431.5 718.54,-424.5"/>
</g>
<!-- Node5 -->
<g id="node5" class="node">
<title>Node5</title>
<g id="a_node5"><a xlink:href="classAppMps.html" target="_top" xlink:title=" ">
<polygon fill="white" stroke="black" points="783.5,-342.5 783.5,-361.5 839.5,-361.5 839.5,-342.5 783.5,-342.5"/>
<text text-anchor="middle" x="811.5" y="-349.5" font-family="Helvetica,sans-Serif" font-size="10.00">AppMps</text>
</a>
</g>
</g>
<!-- Node5&#45;&gt;Node1 -->
<g id="edge4" class="edge">
<title>Node5&#45;&gt;Node1</title>
<path fill="none" stroke="midnightblue" d="M849.86,-352C865.42,-352 883.82,-352 900.91,-352"/>
<polygon fill="midnightblue" stroke="midnightblue" points="849.59,-348.5 839.59,-352 849.59,-355.5 849.59,-348.5"/>
</g>
<!-- Node6 -->
<g id="node6" class="node">
<title>Node6</title>
<g id="a_node6"><a xlink:href="classAppMpsClk.html" target="_top" xlink:title=" ">
<polygon fill="white" stroke="black" points="630,-380.5 630,-399.5 701,-399.5 701,-380.5 630,-380.5"/>
<text text-anchor="middle" x="665.5" y="-387.5" font-family="Helvetica,sans-Serif" font-size="10.00">AppMpsClk</text>
</a>
</g>
</g>
<!-- Node6&#45;&gt;Node5 -->
<g id="edge5" class="edge">
<title>Node6&#45;&gt;Node5</title>
<path fill="none" stroke="midnightblue" d="M711.14,-378.22C734.7,-372 762.85,-364.57 783.17,-359.21"/>
<polygon fill="midnightblue" stroke="midnightblue" points="710.13,-374.87 701.36,-380.8 711.92,-381.63 710.13,-374.87"/>
</g>
<!-- Node7 -->
<g id="node7" class="node">
<title>Node7</title>
<g id="a_node7"><a xlink:href="classAppMpsEncoder.html" target="_top" xlink:title=" ">
<polygon fill="white" stroke="black" points="618,-342.5 618,-361.5 713,-361.5 713,-342.5 618,-342.5"/>
<text text-anchor="middle" x="665.5" y="-349.5" font-family="Helvetica,sans-Serif" font-size="10.00">AppMpsEncoder</text>
</a>
</g>
</g>
<!-- Node7&#45;&gt;Node5 -->
<g id="edge6" class="edge">
<title>Node7&#45;&gt;Node5</title>
<path fill="none" stroke="midnightblue" d="M723.51,-352C744.1,-352 766.41,-352 783.28,-352"/>
<polygon fill="midnightblue" stroke="midnightblue" points="723.25,-348.5 713.25,-352 723.25,-355.5 723.25,-348.5"/>
</g>
<!-- Node8 -->
<g id="node8" class="node">
<title>Node8</title>
<g id="a_node8"><a xlink:href="classAppMpsReg.html" target="_top" xlink:title=" ">
<polygon fill="white" stroke="black" points="458.5,-380.5 458.5,-399.5 532.5,-399.5 532.5,-380.5 458.5,-380.5"/>
<text text-anchor="middle" x="495.5" y="-387.5" font-family="Helvetica,sans-Serif" font-size="10.00">AppMpsReg</text>
</a>
</g>
</g>
<!-- Node8&#45;&gt;Node7 -->
<g id="edge7" class="edge">
<title>Node8&#45;&gt;Node7</title>
<path fill="none" stroke="midnightblue" d="M542.49,-379.6C567.41,-373.96 597.98,-367.05 622.29,-361.55"/>
<polygon fill="midnightblue" stroke="midnightblue" points="541.52,-376.23 532.54,-381.85 543.07,-383.06 541.52,-376.23"/>
</g>
<!-- Node9 -->
<g id="node9" class="node">
<title>Node9</title>
<g id="a_node9"><a xlink:href="classAppMpsRegBase.html" target="_top" xlink:title=" ">
<polygon fill="white" stroke="black" points="264.5,-399.5 264.5,-418.5 362.5,-418.5 362.5,-399.5 264.5,-399.5"/>
<text text-anchor="middle" x="313.5" y="-406.5" font-family="Helvetica,sans-Serif" font-size="10.00">AppMpsRegBase</text>
</a>
</g>
</g>
<!-- Node9&#45;&gt;Node8 -->
<g id="edge8" class="edge">
<title>Node9&#45;&gt;Node8</title>
<path fill="none" stroke="midnightblue" d="M372.87,-402.84C401.04,-399.87 433.94,-396.39 458.41,-393.81"/>
<polygon fill="midnightblue" stroke="midnightblue" points="372.31,-399.38 362.74,-403.91 373.05,-406.34 372.31,-399.38"/>
</g>
<!-- Node10 -->
<g id="node10" class="node">
<title>Node10</title>
<g id="a_node10"><a xlink:href="classAppMpsRegAppCh.html" target="_top" xlink:title=" ">
<polygon fill="white" stroke="black" points="260.5,-361.5 260.5,-380.5 366.5,-380.5 366.5,-361.5 260.5,-361.5"/>
<text text-anchor="middle" x="313.5" y="-368.5" font-family="Helvetica,sans-Serif" font-size="10.00">AppMpsRegAppCh</text>
</a>
</g>
</g>
<!-- Node10&#45;&gt;Node8 -->
<g id="edge9" class="edge">
<title>Node10&#45;&gt;Node8</title>
<path fill="none" stroke="midnightblue" d="M376.78,-377.57C403.98,-380.44 434.92,-383.71 458.25,-386.17"/>
<polygon fill="midnightblue" stroke="midnightblue" points="376.88,-374.06 366.56,-376.5 376.14,-381.03 376.88,-374.06"/>
</g>
<!-- Node11 -->
<g id="node11" class="node">
<title>Node11</title>
<g id="a_node11"><a xlink:href="classAppMpsSelect.html" target="_top" xlink:title=" ">
<polygon fill="white" stroke="black" points="452.5,-342.5 452.5,-361.5 538.5,-361.5 538.5,-342.5 452.5,-342.5"/>
<text text-anchor="middle" x="495.5" y="-349.5" font-family="Helvetica,sans-Serif" font-size="10.00">AppMpsSelect</text>
</a>
</g>
</g>
<!-- Node11&#45;&gt;Node7 -->
<g id="edge10" class="edge">
<title>Node11&#45;&gt;Node7</title>
<path fill="none" stroke="midnightblue" d="M549.09,-352C571.16,-352 596.61,-352 617.98,-352"/>
<polygon fill="midnightblue" stroke="midnightblue" points="548.89,-348.5 538.89,-352 548.89,-355.5 548.89,-348.5"/>
</g>
<!-- Node12 -->
<g id="node12" class="node">
<title>Node12</title>
<g id="a_node12"><a xlink:href="classMpsMsgCore.html" target="_top" xlink:title=" ">
<polygon fill="white" stroke="black" points="455.5,-304.5 455.5,-323.5 535.5,-323.5 535.5,-304.5 455.5,-304.5"/>
<text text-anchor="middle" x="495.5" y="-311.5" font-family="Helvetica,sans-Serif" font-size="10.00">MpsMsgCore</text>
</a>
</g>
</g>
<!-- Node12&#45;&gt;Node7 -->
<g id="edge11" class="edge">
<title>Node12&#45;&gt;Node7</title>
<path fill="none" stroke="midnightblue" d="M545.66,-325.12C570.01,-330.63 599.11,-337.21 622.42,-342.48"/>
<polygon fill="midnightblue" stroke="midnightblue" points="546.41,-321.7 535.89,-322.91 544.87,-328.53 546.41,-321.7"/>
</g>
<!-- Node13 -->
<g id="node13" class="node">
<title>Node13</title>
<g id="a_node13"><a xlink:href="classAppMpsSalt.html" target="_top" xlink:title=" ">
<polygon fill="white" stroke="black" points="628.5,-304.5 628.5,-323.5 702.5,-323.5 702.5,-304.5 628.5,-304.5"/>
<text text-anchor="middle" x="665.5" y="-311.5" font-family="Helvetica,sans-Serif" font-size="10.00">AppMpsSalt</text>
</a>
</g>
</g>
<!-- Node13&#45;&gt;Node5 -->
<g id="edge12" class="edge">
<title>Node13&#45;&gt;Node5</title>
<path fill="none" stroke="midnightblue" d="M712.54,-326.15C735.84,-332.3 763.35,-339.56 783.27,-344.81"/>
<polygon fill="midnightblue" stroke="midnightblue" points="713.4,-322.76 702.84,-323.59 711.61,-329.52 713.4,-322.76"/>
</g>
<!-- Node14 -->
<g id="node14" class="node">
<title>Node14</title>
<g id="a_node14"><a xlink:href="classAmcCarrierCore.html" target="_top" xlink:title=" ">
<polygon fill="white" stroke="black" points="764.5,-209.5 764.5,-228.5 858.5,-228.5 858.5,-209.5 764.5,-209.5"/>
<text text-anchor="middle" x="811.5" y="-216.5" font-family="Helvetica,sans-Serif" font-size="10.00">AmcCarrierCore</text>
</a>
</g>
</g>
<!-- Node14&#45;&gt;Node1 -->
<g id="edge13" class="edge">
<title>Node14&#45;&gt;Node1</title>
<path fill="none" stroke="midnightblue" d="M830.58,-235.7C860.97,-263.77 921.39,-319.57 945.85,-342.16"/>
<polygon fill="midnightblue" stroke="midnightblue" points="832.58,-232.78 822.86,-228.57 827.83,-237.92 832.58,-232.78"/>
</g>
<!-- Node15 -->
<g id="node15" class="node">
<title>Node15</title>
<g id="a_node15"><a xlink:href="classAmcCarrierIbufGt.html" target="_top" xlink:title=" ">
<polygon fill="white" stroke="black" points="445,-266.5 445,-285.5 546,-285.5 546,-266.5 445,-266.5"/>
<text text-anchor="middle" x="495.5" y="-273.5" font-family="Helvetica,sans-Serif" font-size="10.00">AmcCarrierIbufGt</text>
</a>
</g>
</g>
<!-- Node15&#45;&gt;Node14 -->
<g id="edge14" class="edge">
<title>Node15&#45;&gt;Node14</title>
<path fill="none" stroke="midnightblue" d="M556.16,-276.16C602.12,-275.04 666.9,-270.77 722,-257 747.63,-250.6 775.34,-237.62 792.79,-228.63"/>
<polygon fill="midnightblue" stroke="midnightblue" points="556,-272.66 546.07,-276.36 556.14,-279.66 556,-272.66"/>
</g>
<!-- Node21 -->
<g id="node21" class="node">
<title>Node21</title>
<g id="a_node21"><a xlink:href="classAmcCarrierTiming.html" target="_top" xlink:title=" ">
<polygon fill="white" stroke="black" points="613,-228.5 613,-247.5 718,-247.5 718,-228.5 613,-228.5"/>
<text text-anchor="middle" x="665.5" y="-235.5" font-family="Helvetica,sans-Serif" font-size="10.00">AmcCarrierTiming</text>
</a>
</g>
</g>
<!-- Node15&#45;&gt;Node21 -->
<g id="edge21" class="edge">
<title>Node15&#45;&gt;Node21</title>
<path fill="none" stroke="midnightblue" d="M548.78,-264.18C572.46,-258.82 600.09,-252.57 622.41,-247.52"/>
<polygon fill="midnightblue" stroke="midnightblue" points="547.87,-260.79 538.89,-266.41 549.42,-267.62 547.87,-260.79"/>
</g>
<!-- Node16 -->
<g id="node16" class="node">
<title>Node16</title>
<g id="a_node16"><a xlink:href="classAmcCarrierEth.html" target="_top" xlink:title=" ">
<polygon fill="white" stroke="black" points="622,-190.5 622,-209.5 709,-209.5 709,-190.5 622,-190.5"/>
<text text-anchor="middle" x="665.5" y="-197.5" font-family="Helvetica,sans-Serif" font-size="10.00">AmcCarrierEth</text>
</a>
</g>
</g>
<!-- Node16&#45;&gt;Node14 -->
<g id="edge15" class="edge">
<title>Node16&#45;&gt;Node14</title>
<path fill="none" stroke="midnightblue" d="M719.31,-206.97C734.07,-208.92 749.99,-211.02 764.34,-212.91"/>
<polygon fill="midnightblue" stroke="midnightblue" points="719.69,-203.49 709.31,-205.65 718.77,-210.43 719.69,-203.49"/>
</g>
<!-- Node17 -->
<g id="node17" class="node">
<title>Node17</title>
<g id="a_node17"><a xlink:href="classAmcCarrierRssi.html" target="_top" xlink:title=" ">
<polygon fill="white" stroke="black" points="443,-228.5 443,-247.5 548,-247.5 548,-228.5 443,-228.5"/>
<text text-anchor="middle" x="495.5" y="-235.5" font-family="Helvetica,sans-Serif" font-size="10.00">AmcCarrierRssi(2)</text>
</a>
</g>
</g>
<!-- Node17&#45;&gt;Node16 -->
<g id="edge16" class="edge">
<title>Node17&#45;&gt;Node16</title>
<path fill="none" stroke="midnightblue" d="M548.78,-226.18C572.46,-220.82 600.09,-214.57 622.41,-209.52"/>
<polygon fill="midnightblue" stroke="midnightblue" points="547.87,-222.79 538.89,-228.41 549.42,-229.62 547.87,-222.79"/>
</g>
<!-- Node18 -->
<g id="node18" class="node">
<title>Node18</title>
<g id="a_node18"><a xlink:href="classAmcCarrierRssiObFifo.html" target="_top" xlink:title=" ">
<polygon fill="white" stroke="black" points="245,-228.5 245,-247.5 382,-247.5 382,-228.5 245,-228.5"/>
<text text-anchor="middle" x="313.5" y="-235.5" font-family="Helvetica,sans-Serif" font-size="10.00">AmcCarrierRssiObFifo(2)</text>
</a>
</g>
</g>
<!-- Node18&#45;&gt;Node17 -->
<g id="edge17" class="edge">
<title>Node18&#45;&gt;Node17</title>
<path fill="none" stroke="midnightblue" d="M392.07,-238C409.25,-238 427.05,-238 442.9,-238"/>
<polygon fill="midnightblue" stroke="midnightblue" points="392.04,-234.5 382.04,-238 392.04,-241.5 392.04,-234.5"/>
</g>
<!-- Node19 -->
<g id="node19" class="node">
<title>Node19</title>
<g id="a_node19"><a xlink:href="classAmcCarrierRssiInterleave.html" target="_top" xlink:title=" ">
<polygon fill="white" stroke="black" points="418,-190.5 418,-209.5 573,-209.5 573,-190.5 418,-190.5"/>
<text text-anchor="middle" x="495.5" y="-197.5" font-family="Helvetica,sans-Serif" font-size="10.00">AmcCarrierRssiInterleave(2)</text>
</a>
</g>
</g>
<!-- Node19&#45;&gt;Node16 -->
<g id="edge18" class="edge">
<title>Node19&#45;&gt;Node16</title>
<path fill="none" stroke="midnightblue" d="M583.38,-200C596.8,-200 610.12,-200 621.97,-200"/>
<polygon fill="midnightblue" stroke="midnightblue" points="583.13,-196.5 573.13,-200 583.13,-203.5 583.13,-196.5"/>
</g>
<!-- Node20 -->
<g id="node20" class="node">
<title>Node20</title>
<g id="a_node20"><a xlink:href="classAmcCarrierRssiObFifo.html" target="_top" xlink:title=" ">
<polygon fill="white" stroke="black" points="252,-190.5 252,-209.5 375,-209.5 375,-190.5 252,-190.5"/>
<text text-anchor="middle" x="313.5" y="-197.5" font-family="Helvetica,sans-Serif" font-size="10.00">AmcCarrierRssiObFifo</text>
</a>
</g>
</g>
<!-- Node20&#45;&gt;Node19 -->
<g id="edge19" class="edge">
<title>Node20&#45;&gt;Node19</title>
<path fill="none" stroke="midnightblue" d="M385.28,-200C395.95,-200 407,-200 417.79,-200"/>
<polygon fill="midnightblue" stroke="midnightblue" points="385.19,-196.5 375.19,-200 385.19,-203.5 385.19,-196.5"/>
</g>
<!-- Node21&#45;&gt;Node14 -->
<g id="edge20" class="edge">
<title>Node21&#45;&gt;Node14</title>
<path fill="none" stroke="midnightblue" d="M728.09,-229.87C740.15,-228.28 752.6,-226.64 764.07,-225.13"/>
<polygon fill="midnightblue" stroke="midnightblue" points="727.54,-226.42 718.08,-231.19 728.45,-233.36 727.54,-226.42"/>
</g>
<!-- Node22 -->
<g id="node22" class="node">
<title>Node22</title>
<g id="a_node22"><a xlink:href="classAmcCarrierBsa.html" target="_top" xlink:title=" ">
<polygon fill="white" stroke="black" points="621,-114.5 621,-133.5 710,-133.5 710,-114.5 621,-114.5"/>
<text text-anchor="middle" x="665.5" y="-121.5" font-family="Helvetica,sans-Serif" font-size="10.00">AmcCarrierBsa</text>
</a>
</g>
</g>
<!-- Node22&#45;&gt;Node14 -->
<g id="edge22" class="edge">
<title>Node22&#45;&gt;Node14</title>
<path fill="none" stroke="midnightblue" d="M689.65,-139.27C719.58,-159.02 770.82,-192.82 795.86,-209.34"/>
<polygon fill="midnightblue" stroke="midnightblue" points="691.37,-136.22 681.1,-133.63 687.52,-142.06 691.37,-136.22"/>
</g>
<!-- Node23 -->
<g id="node23" class="node">
<title>Node23</title>
<g id="a_node23"><a xlink:href="classBsaWaveformEngine.html" target="_top" xlink:title=" ">
<polygon fill="white" stroke="black" points="430,-152.5 430,-171.5 561,-171.5 561,-152.5 430,-152.5"/>
<text text-anchor="middle" x="495.5" y="-159.5" font-family="Helvetica,sans-Serif" font-size="10.00">BsaWaveformEngine(2)</text>
</a>
</g>
</g>
<!-- Node23&#45;&gt;Node22 -->
<g id="edge23" class="edge">
<title>Node23&#45;&gt;Node22</title>
<path fill="none" stroke="midnightblue" d="M548.78,-150.18C572.46,-144.82 600.09,-138.57 622.41,-133.52"/>
<polygon fill="midnightblue" stroke="midnightblue" points="547.87,-146.79 538.89,-152.41 549.42,-153.62 547.87,-146.79"/>
</g>
<!-- Node24 -->
<g id="node24" class="node">
<title>Node24</title>
<g id="a_node24"><a xlink:href="classBsaBufferControl.html" target="_top" xlink:title=" ">
<polygon fill="white" stroke="black" points="446,-114.5 446,-133.5 545,-133.5 545,-114.5 446,-114.5"/>
<text text-anchor="middle" x="495.5" y="-121.5" font-family="Helvetica,sans-Serif" font-size="10.00">BsaBufferControl</text>
</a>
</g>
</g>
<!-- Node24&#45;&gt;Node22 -->
<g id="edge24" class="edge">
<title>Node24&#45;&gt;Node22</title>
<path fill="none" stroke="midnightblue" d="M555.15,-124C576.76,-124 600.84,-124 620.89,-124"/>
<polygon fill="midnightblue" stroke="midnightblue" points="555.09,-120.5 545.09,-124 555.09,-127.5 555.09,-120.5"/>
</g>
<!-- Node25 -->
<g id="node25" class="node">
<title>Node25</title>
<g id="a_node25"><a xlink:href="classBsaAccumulator.html" target="_top" xlink:title=" ">
<polygon fill="white" stroke="black" points="265.5,-114.5 265.5,-133.5 361.5,-133.5 361.5,-114.5 265.5,-114.5"/>
<text text-anchor="middle" x="313.5" y="-121.5" font-family="Helvetica,sans-Serif" font-size="10.00">BsaAccumulator</text>
</a>
</g>
</g>
<!-- Node25&#45;&gt;Node24 -->
<g id="edge25" class="edge">
<title>Node25&#45;&gt;Node24</title>
<path fill="none" stroke="midnightblue" d="M372.1,-124C395.9,-124 423.19,-124 445.96,-124"/>
<polygon fill="midnightblue" stroke="midnightblue" points="371.79,-120.5 361.79,-124 371.79,-127.5 371.79,-120.5"/>
</g>
<!-- Node26 -->
<g id="node26" class="node">
<title>Node26</title>
<g id="a_node26"><a xlink:href="classBsssWrapper.html" target="_top" xlink:title=" ">
<polygon fill="white" stroke="black" points="455.5,-76.5 455.5,-95.5 535.5,-95.5 535.5,-76.5 455.5,-76.5"/>
<text text-anchor="middle" x="495.5" y="-83.5" font-family="Helvetica,sans-Serif" font-size="10.00">BsssWrapper</text>
</a>
</g>
</g>
<!-- Node26&#45;&gt;Node22 -->
<g id="edge26" class="edge">
<title>Node26&#45;&gt;Node22</title>
<path fill="none" stroke="midnightblue" d="M545.66,-97.12C570.01,-102.63 599.11,-109.21 622.42,-114.48"/>
<polygon fill="midnightblue" stroke="midnightblue" points="546.41,-93.7 535.89,-94.91 544.87,-100.53 546.41,-93.7"/>
</g>
<!-- Node27 -->
<g id="node27" class="node">
<title>Node27</title>
<g id="a_node27"><a xlink:href="classBldAxiStream.html" target="_top" xlink:title=" ">
<polygon fill="white" stroke="black" points="272,-57.5 272,-76.5 355,-76.5 355,-57.5 272,-57.5"/>
<text text-anchor="middle" x="313.5" y="-64.5" font-family="Helvetica,sans-Serif" font-size="10.00">BldAxiStream</text>
</a>
</g>
</g>
<!-- Node27&#45;&gt;Node26 -->
<g id="edge27" class="edge">
<title>Node27&#45;&gt;Node26</title>
<path fill="none" stroke="midnightblue" d="M365.53,-72.39C394.04,-75.4 429.03,-79.09 455.36,-81.87"/>
<polygon fill="midnightblue" stroke="midnightblue" points="365.66,-68.88 355.34,-71.31 364.92,-75.84 365.66,-68.88"/>
</g>
<!-- Node31 -->
<g id="node31" class="node">
<title>Node31</title>
<g id="a_node31"><a xlink:href="classBldWrapper.html" target="_top" xlink:title=" ">
<polygon fill="white" stroke="black" points="458.5,-38.5 458.5,-57.5 532.5,-57.5 532.5,-38.5 458.5,-38.5"/>
<text text-anchor="middle" x="495.5" y="-45.5" font-family="Helvetica,sans-Serif" font-size="10.00">BldWrapper</text>
</a>
</g>
</g>
<!-- Node27&#45;&gt;Node31 -->
<g id="edge32" class="edge">
<title>Node27&#45;&gt;Node31</title>
<path fill="none" stroke="midnightblue" d="M365.5,-61.62C395.13,-58.49 431.75,-54.62 458.39,-51.81"/>
<polygon fill="midnightblue" stroke="midnightblue" points="364.92,-58.16 355.34,-62.69 365.66,-65.12 364.92,-58.16"/>
</g>
<!-- Node28 -->
<g id="node28" class="node">
<title>Node28</title>
<g id="a_node28"><a xlink:href="classBldEventSelect.html" target="_top" xlink:title=" ">
<polygon fill="white" stroke="black" points="119,-57.5 119,-76.5 209,-76.5 209,-57.5 119,-57.5"/>
<text text-anchor="middle" x="164" y="-64.5" font-family="Helvetica,sans-Serif" font-size="10.00">BldEventSelect</text>
</a>
</g>
</g>
<!-- Node28&#45;&gt;Node27 -->
<g id="edge28" class="edge">
<title>Node28&#45;&gt;Node27</title>
<path fill="none" stroke="midnightblue" d="M219.27,-67C236.64,-67 255.57,-67 271.8,-67"/>
<polygon fill="midnightblue" stroke="midnightblue" points="219.25,-63.5 209.25,-67 219.25,-70.5 219.25,-63.5"/>
</g>
<!-- Node29 -->
<g id="node29" class="node">
<title>Node29</title>
<g id="a_node29"><a xlink:href="classBldEventRAM.html" target="_top" xlink:title=" ">
<polygon fill="white" stroke="black" points="0,-57.5 0,-76.5 83,-76.5 83,-57.5 0,-57.5"/>
<text text-anchor="middle" x="41.5" y="-64.5" font-family="Helvetica,sans-Serif" font-size="10.00">BldEventRAM</text>
</a>
</g>
</g>
<!-- Node29&#45;&gt;Node28 -->
<g id="edge29" class="edge">
<title>Node29&#45;&gt;Node28</title>
<path fill="none" stroke="midnightblue" d="M93.46,-67C101.93,-67 110.66,-67 118.94,-67"/>
<polygon fill="midnightblue" stroke="midnightblue" points="93.3,-63.5 83.3,-67 93.3,-70.5 93.3,-63.5"/>
</g>
<!-- Node30 -->
<g id="node30" class="node">
<title>Node30</title>
<g id="a_node30"><a xlink:href="classBsaAxiInterconnectWrapper.html" target="_top" xlink:title=" ">
<polygon fill="white" stroke="black" points="419.5,-0.5 419.5,-19.5 571.5,-19.5 571.5,-0.5 419.5,-0.5"/>
<text text-anchor="middle" x="495.5" y="-7.5" font-family="Helvetica,sans-Serif" font-size="10.00">BsaAxiInterconnectWrapper</text>
</a>
</g>
</g>
<!-- Node30&#45;&gt;Node22 -->
<g id="edge30" class="edge">
<title>Node30&#45;&gt;Node22</title>
<path fill="none" stroke="midnightblue" d="M566.54,-24.41C568.8,-25.81 570.96,-27.33 573,-29 601.92,-52.67 581.13,-80.1 609,-105 613.33,-108.87 618.48,-111.95 623.88,-114.42"/>
<polygon fill="midnightblue" stroke="midnightblue" points="567.9,-21.18 557.41,-19.66 564.67,-27.38 567.9,-21.18"/>
</g>
<!-- Node31&#45;&gt;Node22 -->
<g id="edge31" class="edge">
<title>Node31&#45;&gt;Node22</title>
<path fill="none" stroke="midnightblue" d="M542.63,-54.98C553.06,-57.75 563.77,-61.62 573,-67 593.1,-78.72 589.43,-92.42 609,-105 614.91,-108.8 621.67,-111.93 628.39,-114.48"/>
<polygon fill="midnightblue" stroke="midnightblue" points="543.3,-51.54 532.77,-52.64 541.69,-58.35 543.3,-51.54"/>
</g>
<!-- Node32 -->
<g id="node32" class="node">
<title>Node32</title>
<g id="a_node32"><a xlink:href="classAmcCarrierDdrMem.html" target="_top" xlink:title=" ">
<polygon fill="white" stroke="black" points="609,-76.5 609,-95.5 722,-95.5 722,-76.5 609,-76.5"/>
<text text-anchor="middle" x="665.5" y="-83.5" font-family="Helvetica,sans-Serif" font-size="10.00">AmcCarrierDdrMem</text>
</a>
</g>
</g>
<!-- Node32&#45;&gt;Node14 -->
<g id="edge33" class="edge">
<title>Node32&#45;&gt;Node14</title>
<path fill="none" stroke="midnightblue" d="M713.38,-99.76C716.4,-101.33 719.31,-103.08 722,-105 762.78,-134.13 793.86,-187.32 805.5,-209.2"/>
<polygon fill="midnightblue" stroke="midnightblue" points="714.64,-96.48 704.09,-95.52 711.73,-102.85 714.64,-96.48"/>
</g>
</g>
</svg>
