<?xml version="1.0" encoding="UTF-8" standalone="no"?>
<!DOCTYPE svg PUBLIC "-//W3C//DTD SVG 1.1//EN"
 "http://www.w3.org/Graphics/SVG/1.1/DTD/svg11.dtd">
<!-- Generated by graphviz version 2.43.0 (0)
 -->
<!-- Title: DaqMuxV2 Pages: 1 -->
<svg width="299pt" height="137pt"
 viewBox="0.00 0.00 299.00 137.00" xmlns="http://www.w3.org/2000/svg" xmlns:xlink="http://www.w3.org/1999/xlink">

<svg id="main" version="1.1" xmlns="http://www.w3.org/2000/svg" xmlns:xlink="http://www.w3.org/1999/xlink" xml:space="preserve" onload="init(evt)">
<style type="text/css"><![CDATA[
.node, .edge {opacity: 0.7;}
.node.selected, .edge.selected {opacity: 1;}
.edge:hover path { stroke: red; }
.edge:hover polygon { stroke: red; fill: red; }
]]></style>
<script type="application/ecmascript" xlink:href="svg.min.js"/>
<svg id="graph" class="graph">
<g id="graph0" class="graph" transform="scale(1 1) rotate(0) translate(4 133)">
<title>DaqMuxV2</title>
<!-- Node1 -->
<g id="Node000001" class="node">
<title>Node1</title>
<g id="a_Node000001"><a xlink:title=" ">
<polygon fill="#999999" stroke="#666666" points="152.5,-19 82.5,-19 82.5,0 152.5,0 152.5,-19"/>
<text text-anchor="middle" x="117.5" y="-7" font-family="Helvetica,sans-Serif" font-size="10.00">DaqMuxV2</text>
</a>
</g>
</g>
<!-- Node2 -->
<g id="Node000002" class="node">
<title>Node2</title>
<g id="a_Node000002"><a xlink:href="classDaqRegItf.html" target="_top" xlink:title=" ">
<polygon fill="white" stroke="#bfbfbf" points="65,-74 0,-74 0,-55 65,-55 65,-74"/>
<text text-anchor="middle" x="32.5" y="-62" font-family="Helvetica,sans-Serif" font-size="10.00">DaqRegItf</text>
</a>
</g>
</g>
<!-- Node2&#45;&gt;Node1 -->
<g id="edge1_Node000001_Node000002" class="edge">
<title>Node2&#45;&gt;Node1</title>
<g id="a_edge1_Node000001_Node000002"><a xlink:title=" ">
<path fill="none" stroke="#63b8ff" d="M55.07,-49.42C70.5,-39.81 90.45,-27.37 103.59,-19.17"/>
<polygon fill="#63b8ff" stroke="#63b8ff" points="52.79,-46.72 46.16,-54.98 56.49,-52.66 52.79,-46.72"/>
</a>
</g>
</g>
<!-- Node3 -->
<g id="Node000003" class="node">
<title>Node3</title>
<g id="a_Node000003"><a xlink:href="classDaqTrigger.html" target="_top" xlink:title=" ">
<polygon fill="white" stroke="#bfbfbf" points="152,-74 83,-74 83,-55 152,-55 152,-74"/>
<text text-anchor="middle" x="117.5" y="-62" font-family="Helvetica,sans-Serif" font-size="10.00">DaqTrigger</text>
</a>
</g>
</g>
<!-- Node3&#45;&gt;Node1 -->
<g id="edge2_Node000001_Node000003" class="edge">
<title>Node3&#45;&gt;Node1</title>
<g id="a_edge2_Node000001_Node000003"><a xlink:title=" ">
<path fill="none" stroke="#63b8ff" d="M117.5,-44.66C117.5,-35.93 117.5,-25.99 117.5,-19.09"/>
<polygon fill="#63b8ff" stroke="#63b8ff" points="114,-44.75 117.5,-54.75 121,-44.75 114,-44.75"/>
</a>
</g>
</g>
<!-- Node4 -->
<g id="Node000004" class="node">
<title>Node4</title>
<g id="a_Node000004"><a xlink:href="classDaqLane.html" target="_top" xlink:title=" ">
<polygon fill="white" stroke="#bfbfbf" points="229,-74 170,-74 170,-55 229,-55 229,-74"/>
<text text-anchor="middle" x="199.5" y="-62" font-family="Helvetica,sans-Serif" font-size="10.00">DaqLane</text>
</a>
</g>
</g>
<!-- Node4&#45;&gt;Node1 -->
<g id="edge3_Node000001_Node000004" class="edge">
<title>Node4&#45;&gt;Node1</title>
<g id="a_edge3_Node000001_Node000004"><a xlink:title=" ">
<path fill="none" stroke="#63b8ff" d="M177.72,-49.42C162.84,-39.81 143.59,-27.37 130.91,-19.17"/>
<polygon fill="#63b8ff" stroke="#63b8ff" points="176.03,-52.5 186.33,-54.98 179.83,-46.62 176.03,-52.5"/>
</a>
</g>
</g>
<!-- Node5 -->
<g id="Node000005" class="node">
<title>Node5</title>
<g id="a_Node000005"><a xlink:href="classDaqTestSig.html" target="_top" xlink:title=" ">
<polygon fill="white" stroke="#bfbfbf" points="186,-129 115,-129 115,-110 186,-110 186,-129"/>
<text text-anchor="middle" x="150.5" y="-117" font-family="Helvetica,sans-Serif" font-size="10.00">DaqTestSig</text>
</a>
</g>
</g>
<!-- Node5&#45;&gt;Node4 -->
<g id="edge4_Node000004_Node000005" class="edge">
<title>Node5&#45;&gt;Node4</title>
<g id="a_edge4_Node000004_Node000005"><a xlink:title=" ">
<path fill="none" stroke="#63b8ff" d="M165.53,-102.24C174.12,-92.95 184.54,-81.68 191.56,-74.09"/>
<polygon fill="#63b8ff" stroke="#63b8ff" points="162.81,-100.03 158.59,-109.75 167.95,-104.78 162.81,-100.03"/>
</a>
</g>
</g>
<!-- Node6 -->
<g id="Node000006" class="node">
<title>Node6</title>
<g id="a_Node000006"><a xlink:href="classDaqDecimator.html" target="_top" xlink:title=" ">
<polygon fill="white" stroke="#bfbfbf" points="291,-129 204,-129 204,-110 291,-110 291,-129"/>
<text text-anchor="middle" x="247.5" y="-117" font-family="Helvetica,sans-Serif" font-size="10.00">DaqDecimator</text>
</a>
</g>
</g>
<!-- Node6&#45;&gt;Node4 -->
<g id="edge5_Node000004_Node000006" class="edge">
<title>Node6&#45;&gt;Node4</title>
<g id="a_edge5_Node000004_Node000006"><a xlink:title=" ">
<path fill="none" stroke="#63b8ff" d="M232.77,-102.24C224.36,-92.95 214.15,-81.68 207.28,-74.09"/>
<polygon fill="#63b8ff" stroke="#63b8ff" points="230.27,-104.69 239.57,-109.75 235.46,-99.99 230.27,-104.69"/>
</a>
</g>
</g>
</g>
</svg>
</svg>

<style type='text/css'>
<![CDATA[
[data-mouse-over-selected='false'] { opacity: 0.7; }
[data-mouse-over-selected='true']  { opacity: 1.0; }
]]>
</style>
<script type="application/ecmascript"><![CDATA[
document.addEventListener('DOMContentLoaded', (event) => {
  highlightEdges();
  highlightAdjacentNodes();
});
]]></script>
</svg>
