<?xml version="1.0" encoding="UTF-8" standalone="no"?>
<!DOCTYPE svg PUBLIC "-//W3C//DTD SVG 1.1//EN"
 "http://www.w3.org/Graphics/SVG/1.1/DTD/svg11.dtd">
<!-- Generated by graphviz version 2.43.0 (0)
 -->
<!-- Title: DaqMuxV2 Pages: 1 -->
<svg width="299pt" height="192pt"
 viewBox="0.00 0.00 299.00 192.00" xmlns="http://www.w3.org/2000/svg" xmlns:xlink="http://www.w3.org/1999/xlink">
<g id="graph0" class="graph" transform="scale(1 1) rotate(0) translate(4 188)">
<title>DaqMuxV2</title>
<!-- Node1 -->
<g id="Node000001" class="node">
<title>Node1</title>
<g id="a_Node000001"><a xlink:title=" ">
<polygon fill="#999999" stroke="#666666" points="152.5,-74 82.5,-74 82.5,-55 152.5,-55 152.5,-74"/>
<text text-anchor="middle" x="117.5" y="-62" font-family="Helvetica,sans-Serif" font-size="10.00">DaqMuxV2</text>
</a>
</g>
</g>
<!-- Node7 -->
<g id="Node000007" class="node">
<title>Node7</title>
<g id="a_Node000007"><a xlink:href="classAppTop.html" target="_top" xlink:title=" ">
<polygon fill="white" stroke="#bfbfbf" points="101.5,-19 49.5,-19 49.5,0 101.5,0 101.5,-19"/>
<text text-anchor="middle" x="75.5" y="-7" font-family="Helvetica,sans-Serif" font-size="10.00">AppTop</text>
</a>
</g>
</g>
<!-- Node1&#45;&gt;Node7 -->
<g id="edge6_Node000001_Node000007" class="edge">
<title>Node1&#45;&gt;Node7</title>
<g id="a_edge6_Node000001_Node000007"><a xlink:title=" ">
<path fill="none" stroke="#63b8ff" d="M104.17,-46.67C96.89,-37.5 88.2,-26.52 82.31,-19.09"/>
<polygon fill="#63b8ff" stroke="#63b8ff" points="101.61,-49.08 110.56,-54.75 107.1,-44.74 101.61,-49.08"/>
</a>
</g>
</g>
<!-- Node8 -->
<g id="Node000008" class="node">
<title>Node8</title>
<g id="a_Node000008"><a xlink:href="classDaqMuxV2Tb.html" target="_top" xlink:title=" ">
<polygon fill="white" stroke="#bfbfbf" points="201.5,-19 119.5,-19 119.5,0 201.5,0 201.5,-19"/>
<text text-anchor="middle" x="160.5" y="-7" font-family="Helvetica,sans-Serif" font-size="10.00">DaqMuxV2Tb</text>
</a>
</g>
</g>
<!-- Node1&#45;&gt;Node8 -->
<g id="edge7_Node000001_Node000008" class="edge">
<title>Node1&#45;&gt;Node8</title>
<g id="a_edge7_Node000001_Node000008"><a xlink:title=" ">
<path fill="none" stroke="#63b8ff" d="M130.92,-46.96C138.41,-37.72 147.44,-26.6 153.53,-19.09"/>
<polygon fill="#63b8ff" stroke="#63b8ff" points="128.18,-44.78 124.6,-54.75 133.62,-49.19 128.18,-44.78"/>
</a>
</g>
</g>
<!-- Node2 -->
<g id="Node000002" class="node">
<title>Node2</title>
<g id="a_Node000002"><a xlink:href="classDaqRegItf.html" target="_top" xlink:title=" ">
<polygon fill="white" stroke="#bfbfbf" points="65,-129 0,-129 0,-110 65,-110 65,-129"/>
<text text-anchor="middle" x="32.5" y="-117" font-family="Helvetica,sans-Serif" font-size="10.00">DaqRegItf</text>
</a>
</g>
</g>
<!-- Node2&#45;&gt;Node1 -->
<g id="edge1_Node000001_Node000002" class="edge">
<title>Node2&#45;&gt;Node1</title>
<g id="a_edge1_Node000001_Node000002"><a xlink:title=" ">
<path fill="none" stroke="#63b8ff" d="M55.07,-104.42C70.5,-94.81 90.45,-82.37 103.59,-74.17"/>
<polygon fill="#63b8ff" stroke="#63b8ff" points="52.79,-101.72 46.16,-109.98 56.49,-107.66 52.79,-101.72"/>
</a>
</g>
</g>
<!-- Node3 -->
<g id="Node000003" class="node">
<title>Node3</title>
<g id="a_Node000003"><a xlink:href="classDaqTrigger.html" target="_top" xlink:title=" ">
<polygon fill="white" stroke="#bfbfbf" points="152,-129 83,-129 83,-110 152,-110 152,-129"/>
<text text-anchor="middle" x="117.5" y="-117" font-family="Helvetica,sans-Serif" font-size="10.00">DaqTrigger</text>
</a>
</g>
</g>
<!-- Node3&#45;&gt;Node1 -->
<g id="edge2_Node000001_Node000003" class="edge">
<title>Node3&#45;&gt;Node1</title>
<g id="a_edge2_Node000001_Node000003"><a xlink:title=" ">
<path fill="none" stroke="#63b8ff" d="M117.5,-99.66C117.5,-90.93 117.5,-80.99 117.5,-74.09"/>
<polygon fill="#63b8ff" stroke="#63b8ff" points="114,-99.75 117.5,-109.75 121,-99.75 114,-99.75"/>
</a>
</g>
</g>
<!-- Node4 -->
<g id="Node000004" class="node">
<title>Node4</title>
<g id="a_Node000004"><a xlink:href="classDaqLane.html" target="_top" xlink:title=" ">
<polygon fill="white" stroke="#bfbfbf" points="229,-129 170,-129 170,-110 229,-110 229,-129"/>
<text text-anchor="middle" x="199.5" y="-117" font-family="Helvetica,sans-Serif" font-size="10.00">DaqLane</text>
</a>
</g>
</g>
<!-- Node4&#45;&gt;Node1 -->
<g id="edge3_Node000001_Node000004" class="edge">
<title>Node4&#45;&gt;Node1</title>
<g id="a_edge3_Node000001_Node000004"><a xlink:title=" ">
<path fill="none" stroke="#63b8ff" d="M177.72,-104.42C162.84,-94.81 143.59,-82.37 130.91,-74.17"/>
<polygon fill="#63b8ff" stroke="#63b8ff" points="176.03,-107.5 186.33,-109.98 179.83,-101.62 176.03,-107.5"/>
</a>
</g>
</g>
<!-- Node5 -->
<g id="Node000005" class="node">
<title>Node5</title>
<g id="a_Node000005"><a xlink:href="classDaqTestSig.html" target="_top" xlink:title=" ">
<polygon fill="white" stroke="#bfbfbf" points="186,-184 115,-184 115,-165 186,-165 186,-184"/>
<text text-anchor="middle" x="150.5" y="-172" font-family="Helvetica,sans-Serif" font-size="10.00">DaqTestSig</text>
</a>
</g>
</g>
<!-- Node5&#45;&gt;Node4 -->
<g id="edge4_Node000004_Node000005" class="edge">
<title>Node5&#45;&gt;Node4</title>
<g id="a_edge4_Node000004_Node000005"><a xlink:title=" ">
<path fill="none" stroke="#63b8ff" d="M165.53,-157.24C174.12,-147.95 184.54,-136.68 191.56,-129.09"/>
<polygon fill="#63b8ff" stroke="#63b8ff" points="162.81,-155.03 158.59,-164.75 167.95,-159.78 162.81,-155.03"/>
</a>
</g>
</g>
<!-- Node6 -->
<g id="Node000006" class="node">
<title>Node6</title>
<g id="a_Node000006"><a xlink:href="classDaqDecimator.html" target="_top" xlink:title=" ">
<polygon fill="white" stroke="#bfbfbf" points="291,-184 204,-184 204,-165 291,-165 291,-184"/>
<text text-anchor="middle" x="247.5" y="-172" font-family="Helvetica,sans-Serif" font-size="10.00">DaqDecimator</text>
</a>
</g>
</g>
<!-- Node6&#45;&gt;Node4 -->
<g id="edge5_Node000004_Node000006" class="edge">
<title>Node6&#45;&gt;Node4</title>
<g id="a_edge5_Node000004_Node000006"><a xlink:title=" ">
<path fill="none" stroke="#63b8ff" d="M232.77,-157.24C224.36,-147.95 214.15,-136.68 207.28,-129.09"/>
<polygon fill="#63b8ff" stroke="#63b8ff" points="230.27,-159.69 239.57,-164.75 235.46,-154.99 230.27,-159.69"/>
</a>
</g>
</g>
</g>
</svg>
