<?xml version="1.0" encoding="UTF-8" standalone="no"?>
<!DOCTYPE svg PUBLIC "-//W3C//DTD SVG 1.1//EN"
 "http://www.w3.org/Graphics/SVG/1.1/DTD/svg11.dtd">
<!-- Generated by graphviz version 2.43.0 (0)
 -->
<!-- Title: AmcCarrierCoreAdv Pages: 1 -->
<!--zoomable 509 -->

<svg id="main" version="1.1" xmlns="http://www.w3.org/2000/svg" xmlns:xlink="http://www.w3.org/1999/xlink" xml:space="preserve" onload="init(evt)">
<style type="text/css"><![CDATA[
.node, .edge {opacity: 0.7;}
.node.selected, .edge.selected {opacity: 1;}
.edge:hover path { stroke: red; }
.edge:hover polygon { stroke: red; fill: red; }
]]></style>

<defs>
  <circle id="rim" cx="0" cy="0" r="7"/>
  <circle id="rim2" cx="0" cy="0" r="3.5"/>
  <g id="zoomPlus">
    <use xlink:href="#rim" fill="#404040"><set attributeName="fill" to="#808080" begin="zoomplus.mouseover" end="zoomplus.mouseout"/></use>
    <path d="M-4,0h8M0,-4v8" fill="none" stroke="white" stroke-width="1.5" pointer-events="none"/>
  </g>
  <g id="zoomMin">
    <use xlink:href="#rim" fill="#404040"><set attributeName="fill" to="#808080" begin="zoomminus.mouseover" end="zoomminus.mouseout"/></use>
    <path d="M-4,0h8" fill="none" stroke="white" stroke-width="1.5" pointer-events="none"/>
  </g>
  <g id="arrowUp" transform="translate(30 24)">
    <use xlink:href="#rim"/>
    <path pointer-events="none" fill="none" stroke="white" stroke-width="1.5" d="M0,-3.0v7 M-2.5,-0.5L0,-3.0L2.5,-0.5"/>
  </g>
  <g id="arrowRight" transform="rotate(90) translate(36 -43)">
    <use xlink:href="#rim"/>
    <path pointer-events="none" fill="none" stroke="white" stroke-width="1.5" d="M0,-3.0v7 M-2.5,-0.5L0,-3.0L2.5,-0.5"/>
  </g>
  <g id="arrowDown" transform="rotate(180) translate(-30 -48)">
    <use xlink:href="#rim"/>
    <path pointer-events="none" fill="none" stroke="white" stroke-width="1.5" d="M0,-3.0v7 M-2.5,-0.5L0,-3.0L2.5,-0.5"/>
  </g>
  <g id="arrowLeft" transform="rotate(270) translate(-36 17)">
    <use xlink:href="#rim"/>
    <path pointer-events="none" fill="none" stroke="white" stroke-width="1.5" d="M0,-3.0v7 M-2.5,-0.5L0,-3.0L2.5,-0.5"/>
  </g>
  <g id="resetDef">
    <use xlink:href="#rim2" fill="#404040"><set attributeName="fill" to="#808080" begin="reset.mouseover" end="reset.mouseout"/></use>
  </g>
</defs>
<script type="application/ecmascript">
var viewWidth = 1016;
var viewHeight = 509;
var sectionId = 'dynsection-0';
</script>
<script type="application/ecmascript" xlink:href="svg.min.js"/>
<svg id="graph" class="graph">
<g id="viewport">
<title>AmcCarrierCoreAdv</title>
<!-- Node1 -->
<g id="Node000001" class="node">
<title>Node1</title>
<g id="a_Node000001"><a xlink:title=" ">
<polygon fill="#999999" stroke="#666666" points="1008,-390 895,-390 895,-371 1008,-371 1008,-390"/>
<text text-anchor="middle" x="951.5" y="-378" font-family="Helvetica,sans-Serif" font-size="10.00">AmcCarrierCoreAdv</text>
</a>
</g>
</g>
<!-- Node2 -->
<g id="Node000002" class="node">
<title>Node2</title>
<g id="a_Node000002"><a xlink:href="classAmcCarrierSysReg.html" target="_top" xlink:title=" ">
<polygon fill="white" stroke="#bfbfbf" points="859,-464 752,-464 752,-445 859,-445 859,-464"/>
<text text-anchor="middle" x="805.5" y="-452" font-family="Helvetica,sans-Serif" font-size="10.00">AmcCarrierSysReg</text>
</a>
</g>
</g>
<!-- Node2&#45;&gt;Node1 -->
<g id="edge1_Node000001_Node000002" class="edge">
<title>Node2&#45;&gt;Node1</title>
<g id="a_edge1_Node000001_Node000002"><a xlink:title=" ">
<path fill="none" stroke="#63b8ff" d="M834.1,-440.32C862.71,-425.61 906.68,-403.02 931.58,-390.22"/>
<polygon fill="#63b8ff" stroke="#63b8ff" points="832.33,-437.29 825.03,-444.98 835.52,-443.52 832.33,-437.29"/>
</a>
</g>
</g>
<!-- Node3 -->
<g id="Node000003" class="node">
<title>Node3</title>
<g id="a_Node000003"><a xlink:href="classAmcCarrierSysMon.html" target="_top" xlink:title=" ">
<polygon fill="white" stroke="#bfbfbf" points="714.5,-501 604.5,-501 604.5,-482 714.5,-482 714.5,-501"/>
<text text-anchor="middle" x="659.5" y="-489" font-family="Helvetica,sans-Serif" font-size="10.00">AmcCarrierSysMon</text>
</a>
</g>
</g>
<!-- Node3&#45;&gt;Node2 -->
<g id="edge2_Node000002_Node000003" class="edge">
<title>Node3&#45;&gt;Node2</title>
<g id="a_edge2_Node000002_Node000003"><a xlink:title=" ">
<path fill="none" stroke="#63b8ff" d="M707.41,-479.45C726.73,-474.48 748.82,-468.81 767.04,-464.12"/>
<polygon fill="#63b8ff" stroke="#63b8ff" points="706.4,-476.09 697.58,-481.97 708.14,-482.87 706.4,-476.09"/>
</a>
</g>
</g>
<!-- Node4 -->
<g id="Node000004" class="node">
<title>Node4</title>
<g id="a_Node000004"><a xlink:href="classAmcCarrierBsi.html" target="_top" xlink:title=" ">
<polygon fill="white" stroke="#bfbfbf" points="702.5,-464 616.5,-464 616.5,-445 702.5,-445 702.5,-464"/>
<text text-anchor="middle" x="659.5" y="-452" font-family="Helvetica,sans-Serif" font-size="10.00">AmcCarrierBsi</text>
</a>
</g>
</g>
<!-- Node4&#45;&gt;Node2 -->
<g id="edge3_Node000002_Node000004" class="edge">
<title>Node4&#45;&gt;Node2</title>
<g id="a_edge3_Node000002_Node000004"><a xlink:title=" ">
<path fill="none" stroke="#63b8ff" d="M712.57,-454.5C725.37,-454.5 739.09,-454.5 751.91,-454.5"/>
<polygon fill="#63b8ff" stroke="#63b8ff" points="712.54,-451 702.54,-454.5 712.54,-458 712.54,-451"/>
</a>
</g>
</g>
<!-- Node5 -->
<g id="Node000005" class="node">
<title>Node5</title>
<g id="a_Node000005"><a xlink:href="classAppMps.html" target="_top" xlink:title=" ">
<polygon fill="white" stroke="#bfbfbf" points="833.5,-390 777.5,-390 777.5,-371 833.5,-371 833.5,-390"/>
<text text-anchor="middle" x="805.5" y="-378" font-family="Helvetica,sans-Serif" font-size="10.00">AppMps</text>
</a>
</g>
</g>
<!-- Node5&#45;&gt;Node1 -->
<g id="edge4_Node000001_Node000005" class="edge">
<title>Node5&#45;&gt;Node1</title>
<g id="a_edge4_Node000001_Node000005"><a xlink:title=" ">
<path fill="none" stroke="#63b8ff" d="M843.86,-380.5C859.42,-380.5 877.82,-380.5 894.91,-380.5"/>
<polygon fill="#63b8ff" stroke="#63b8ff" points="843.59,-377 833.59,-380.5 843.59,-384 843.59,-377"/>
</a>
</g>
</g>
<!-- Node6 -->
<g id="Node000006" class="node">
<title>Node6</title>
<g id="a_Node000006"><a xlink:href="classAppMpsClk.html" target="_top" xlink:title=" ">
<polygon fill="white" stroke="#bfbfbf" points="695,-427 624,-427 624,-408 695,-408 695,-427"/>
<text text-anchor="middle" x="659.5" y="-415" font-family="Helvetica,sans-Serif" font-size="10.00">AppMpsClk</text>
</a>
</g>
</g>
<!-- Node6&#45;&gt;Node5 -->
<g id="edge5_Node000005_Node000006" class="edge">
<title>Node6&#45;&gt;Node5</title>
<g id="a_edge5_Node000005_Node000006"><a xlink:title=" ">
<path fill="none" stroke="#63b8ff" d="M705.14,-406.03C728.7,-399.98 756.85,-392.74 777.17,-387.52"/>
<polygon fill="#63b8ff" stroke="#63b8ff" points="704.17,-402.66 695.36,-408.54 705.91,-409.44 704.17,-402.66"/>
</a>
</g>
</g>
<!-- Node7 -->
<g id="Node000007" class="node">
<title>Node7</title>
<g id="a_Node000007"><a xlink:href="classAppMpsEncoder.html" target="_top" xlink:title=" ">
<polygon fill="white" stroke="#bfbfbf" points="707,-390 612,-390 612,-371 707,-371 707,-390"/>
<text text-anchor="middle" x="659.5" y="-378" font-family="Helvetica,sans-Serif" font-size="10.00">AppMpsEncoder</text>
</a>
</g>
</g>
<!-- Node7&#45;&gt;Node5 -->
<g id="edge6_Node000005_Node000007" class="edge">
<title>Node7&#45;&gt;Node5</title>
<g id="a_edge6_Node000005_Node000007"><a xlink:title=" ">
<path fill="none" stroke="#63b8ff" d="M717.51,-380.5C738.1,-380.5 760.41,-380.5 777.28,-380.5"/>
<polygon fill="#63b8ff" stroke="#63b8ff" points="717.25,-377 707.25,-380.5 717.25,-384 717.25,-377"/>
</a>
</g>
</g>
<!-- Node8 -->
<g id="Node000008" class="node">
<title>Node8</title>
<g id="a_Node000008"><a xlink:href="classAppMpsReg.html" target="_top" xlink:title=" ">
<polygon fill="white" stroke="#bfbfbf" points="528,-427 454,-427 454,-408 528,-408 528,-427"/>
<text text-anchor="middle" x="491" y="-415" font-family="Helvetica,sans-Serif" font-size="10.00">AppMpsReg</text>
</a>
</g>
</g>
<!-- Node8&#45;&gt;Node7 -->
<g id="edge7_Node000007_Node000008" class="edge">
<title>Node8&#45;&gt;Node7</title>
<g id="a_edge7_Node000007_Node000008"><a xlink:title=" ">
<path fill="none" stroke="#63b8ff" d="M538.16,-407.24C562.41,-401.85 591.93,-395.29 615.66,-390.02"/>
<polygon fill="#63b8ff" stroke="#63b8ff" points="537.13,-403.89 528.13,-409.47 538.65,-410.72 537.13,-403.89"/>
</a>
</g>
</g>
<!-- Node9 -->
<g id="Node000009" class="node">
<title>Node9</title>
<g id="a_Node000009"><a xlink:href="classAppMpsRegBase.html" target="_top" xlink:title=" ">
<polygon fill="white" stroke="#bfbfbf" points="366.5,-445 268.5,-445 268.5,-426 366.5,-426 366.5,-445"/>
<text text-anchor="middle" x="317.5" y="-433" font-family="Helvetica,sans-Serif" font-size="10.00">AppMpsRegBase</text>
</a>
</g>
</g>
<!-- Node9&#45;&gt;Node8 -->
<g id="edge8_Node000008_Node000009" class="edge">
<title>Node9&#45;&gt;Node8</title>
<g id="a_edge8_Node000008_Node000009"><a xlink:title=" ">
<path fill="none" stroke="#63b8ff" d="M376.69,-429.39C402.25,-426.71 431.46,-423.64 453.82,-421.3"/>
<polygon fill="#63b8ff" stroke="#63b8ff" points="376.31,-425.91 366.73,-430.44 377.04,-432.88 376.31,-425.91"/>
</a>
</g>
</g>
<!-- Node10 -->
<g id="Node000010" class="node">
<title>Node10</title>
<g id="a_Node000010"><a xlink:href="classAppMpsRegAppCh.html" target="_top" xlink:title=" ">
<polygon fill="white" stroke="#bfbfbf" points="370.5,-408 264.5,-408 264.5,-389 370.5,-389 370.5,-408"/>
<text text-anchor="middle" x="317.5" y="-396" font-family="Helvetica,sans-Serif" font-size="10.00">AppMpsRegAppCh</text>
</a>
</g>
</g>
<!-- Node10&#45;&gt;Node8 -->
<g id="edge9_Node000008_Node000010" class="edge">
<title>Node10&#45;&gt;Node8</title>
<g id="a_edge9_Node000008_Node000010"><a xlink:title=" ">
<path fill="none" stroke="#63b8ff" d="M380.86,-405.41C405.43,-408.13 432.78,-411.16 453.95,-413.51"/>
<polygon fill="#63b8ff" stroke="#63b8ff" points="381.21,-401.93 370.89,-404.3 380.44,-408.88 381.21,-401.93"/>
</a>
</g>
</g>
<!-- Node11 -->
<g id="Node000011" class="node">
<title>Node11</title>
<g id="a_Node000011"><a xlink:href="classAppMpsSelect.html" target="_top" xlink:title=" ">
<polygon fill="white" stroke="#bfbfbf" points="534,-390 448,-390 448,-371 534,-371 534,-390"/>
<text text-anchor="middle" x="491" y="-378" font-family="Helvetica,sans-Serif" font-size="10.00">AppMpsSelect</text>
</a>
</g>
</g>
<!-- Node11&#45;&gt;Node7 -->
<g id="edge10_Node000007_Node000011" class="edge">
<title>Node11&#45;&gt;Node7</title>
<g id="a_edge10_Node000007_Node000011"><a xlink:title=" ">
<path fill="none" stroke="#63b8ff" d="M544.04,-380.5C565.73,-380.5 590.72,-380.5 611.8,-380.5"/>
<polygon fill="#63b8ff" stroke="#63b8ff" points="544.02,-377 534.01,-380.5 544.01,-384 544.02,-377"/>
</a>
</g>
</g>
<!-- Node12 -->
<g id="Node000012" class="node">
<title>Node12</title>
<g id="a_Node000012"><a xlink:href="classMpsMsgCore.html" target="_top" xlink:title=" ">
<polygon fill="white" stroke="#bfbfbf" points="531,-353 451,-353 451,-334 531,-334 531,-353"/>
<text text-anchor="middle" x="491" y="-341" font-family="Helvetica,sans-Serif" font-size="10.00">MpsMsgCore</text>
</a>
</g>
</g>
<!-- Node12&#45;&gt;Node7 -->
<g id="edge11_Node000007_Node000012" class="edge">
<title>Node12&#45;&gt;Node7</title>
<g id="a_edge11_Node000007_Node000012"><a xlink:title=" ">
<path fill="none" stroke="#63b8ff" d="M540.89,-354.36C564.58,-359.63 592.77,-365.89 615.62,-370.97"/>
<polygon fill="#63b8ff" stroke="#63b8ff" points="541.56,-350.93 531.04,-352.17 540.04,-357.76 541.56,-350.93"/>
</a>
</g>
</g>
<!-- Node13 -->
<g id="Node000013" class="node">
<title>Node13</title>
<g id="a_Node000013"><a xlink:href="classAppMpsSalt.html" target="_top" xlink:title=" ">
<polygon fill="white" stroke="#bfbfbf" points="696.5,-353 622.5,-353 622.5,-334 696.5,-334 696.5,-353"/>
<text text-anchor="middle" x="659.5" y="-341" font-family="Helvetica,sans-Serif" font-size="10.00">AppMpsSalt</text>
</a>
</g>
</g>
<!-- Node13&#45;&gt;Node5 -->
<g id="edge12_Node000005_Node000013" class="edge">
<title>Node13&#45;&gt;Node5</title>
<g id="a_edge12_Node000005_Node000013"><a xlink:title=" ">
<path fill="none" stroke="#63b8ff" d="M706.54,-355.33C729.84,-361.32 757.35,-368.38 777.27,-373.5"/>
<polygon fill="#63b8ff" stroke="#63b8ff" points="707.39,-351.94 696.84,-352.84 705.65,-358.72 707.39,-351.94"/>
</a>
</g>
</g>
<!-- Node14 -->
<g id="Node000014" class="node">
<title>Node14</title>
<g id="a_Node000014"><a xlink:href="classAmcCarrierCore.html" target="_top" xlink:title=" ">
<polygon fill="white" stroke="#bfbfbf" points="852.5,-259 758.5,-259 758.5,-240 852.5,-240 852.5,-259"/>
<text text-anchor="middle" x="805.5" y="-247" font-family="Helvetica,sans-Serif" font-size="10.00">AmcCarrierCore</text>
</a>
</g>
</g>
<!-- Node14&#45;&gt;Node1 -->
<g id="edge13_Node000001_Node000014" class="edge">
<title>Node14&#45;&gt;Node1</title>
<g id="a_edge13_Node000001_Node000014"><a xlink:title=" ">
<path fill="none" stroke="#63b8ff" d="M824.73,-266.09C855.22,-293.82 915.58,-348.74 939.94,-370.9"/>
<polygon fill="#63b8ff" stroke="#63b8ff" points="827.08,-263.49 817.32,-259.35 822.37,-268.66 827.08,-263.49"/>
</a>
</g>
</g>
<!-- Node15 -->
<g id="Node000015" class="node">
<title>Node15</title>
<g id="a_Node000015"><a xlink:href="classAmcCarrierIbufGt.html" target="_top" xlink:title=" ">
<polygon fill="white" stroke="#bfbfbf" points="541.5,-315 440.5,-315 440.5,-296 541.5,-296 541.5,-315"/>
<text text-anchor="middle" x="491" y="-303" font-family="Helvetica,sans-Serif" font-size="10.00">AmcCarrierIbufGt</text>
</a>
</g>
</g>
<!-- Node15&#45;&gt;Node14 -->
<g id="edge14_Node000014_Node000015" class="edge">
<title>Node15&#45;&gt;Node14</title>
<g id="a_edge14_Node000014_Node000015"><a xlink:title=" ">
<path fill="none" stroke="#63b8ff" d="M551.67,-305.46C597.27,-304.22 661.38,-299.89 716,-286.5 741.39,-280.28 768.93,-267.77 786.42,-259.03"/>
<polygon fill="#63b8ff" stroke="#63b8ff" points="551.57,-301.96 541.65,-305.68 551.73,-308.95 551.57,-301.96"/>
</a>
</g>
</g>
<!-- Node20 -->
<g id="Node000020" class="node">
<title>Node20</title>
<g id="a_Node000020"><a xlink:href="classAmcCarrierTiming.html" target="_top" xlink:title=" ">
<polygon fill="white" stroke="#bfbfbf" points="712,-277 607,-277 607,-258 712,-258 712,-277"/>
<text text-anchor="middle" x="659.5" y="-265" font-family="Helvetica,sans-Serif" font-size="10.00">AmcCarrierTiming</text>
</a>
</g>
</g>
<!-- Node15&#45;&gt;Node20 -->
<g id="edge21_Node000020_Node000015" class="edge">
<title>Node15&#45;&gt;Node20</title>
<g id="a_edge21_Node000020_Node000015"><a xlink:title=" ">
<path fill="none" stroke="#63b8ff" d="M543.81,-293.68C567.28,-288.32 594.67,-282.07 616.79,-277.02"/>
<polygon fill="#63b8ff" stroke="#63b8ff" points="542.99,-290.27 534.01,-295.91 544.54,-297.1 542.99,-290.27"/>
</a>
</g>
</g>
<!-- Node16 -->
<g id="Node000016" class="node">
<title>Node16</title>
<g id="a_Node000016"><a xlink:href="classAmcCarrierEth.html" target="_top" xlink:title=" ">
<polygon fill="white" stroke="#bfbfbf" points="703,-240 616,-240 616,-221 703,-221 703,-240"/>
<text text-anchor="middle" x="659.5" y="-228" font-family="Helvetica,sans-Serif" font-size="10.00">AmcCarrierEth</text>
</a>
</g>
</g>
<!-- Node16&#45;&gt;Node14 -->
<g id="edge15_Node000014_Node000016" class="edge">
<title>Node16&#45;&gt;Node14</title>
<g id="a_edge15_Node000014_Node000016"><a xlink:title=" ">
<path fill="none" stroke="#63b8ff" d="M713.31,-237.47C728.07,-239.42 743.99,-241.52 758.34,-243.41"/>
<polygon fill="#63b8ff" stroke="#63b8ff" points="713.69,-233.99 703.31,-236.15 712.77,-240.93 713.69,-233.99"/>
</a>
</g>
</g>
<!-- Node17 -->
<g id="Node000017" class="node">
<title>Node17</title>
<g id="a_Node000017"><a xlink:href="classAmcCarrierRssi.html" target="_top" xlink:title=" ">
<polygon fill="white" stroke="#bfbfbf" points="537,-278 445,-278 445,-259 537,-259 537,-278"/>
<text text-anchor="middle" x="491" y="-266" font-family="Helvetica,sans-Serif" font-size="10.00">AmcCarrierRssi</text>
</a>
</g>
</g>
<!-- Node17&#45;&gt;Node16 -->
<g id="edge16_Node000016_Node000017" class="edge">
<title>Node17&#45;&gt;Node16</title>
<g id="a_edge16_Node000016_Node000017"><a xlink:title=" ">
<path fill="none" stroke="#63b8ff" d="M543.81,-256.68C567.28,-251.32 594.67,-245.07 616.79,-240.02"/>
<polygon fill="#63b8ff" stroke="#63b8ff" points="542.99,-253.27 534.01,-258.91 544.54,-260.1 542.99,-253.27"/>
</a>
</g>
</g>
<!-- Node18 -->
<g id="Node000018" class="node">
<title>Node18</title>
<g id="a_Node000018"><a xlink:href="classAmcCarrierRssiObFifo.html" target="_top" xlink:title=" ">
<polygon fill="white" stroke="#bfbfbf" points="379,-259 256,-259 256,-240 379,-240 379,-259"/>
<text text-anchor="middle" x="317.5" y="-247" font-family="Helvetica,sans-Serif" font-size="10.00">AmcCarrierRssiObFifo</text>
</a>
</g>
</g>
<!-- Node18&#45;&gt;Node17 -->
<g id="edge17_Node000017_Node000018" class="edge">
<title>Node18&#45;&gt;Node17</title>
<g id="a_edge17_Node000017_Node000018"><a xlink:title=" ">
<path fill="none" stroke="#63b8ff" d="M389.44,-257.36C408.19,-259.44 427.92,-261.62 444.88,-263.5"/>
<polygon fill="#63b8ff" stroke="#63b8ff" points="389.77,-253.87 379.45,-256.25 389,-260.83 389.77,-253.87"/>
</a>
</g>
</g>
<!-- Node19 -->
<g id="Node000019" class="node">
<title>Node19</title>
<g id="a_Node000019"><a xlink:href="classAmcCarrierRssiInterleave.html" target="_top" xlink:title=" ">
<polygon fill="white" stroke="#bfbfbf" points="561.5,-241 420.5,-241 420.5,-222 561.5,-222 561.5,-241"/>
<text text-anchor="middle" x="491" y="-229" font-family="Helvetica,sans-Serif" font-size="10.00">AmcCarrierRssiInterleave</text>
</a>
</g>
</g>
<!-- Node18&#45;&gt;Node19 -->
<g id="edge19_Node000019_Node000018" class="edge">
<title>Node18&#45;&gt;Node19</title>
<g id="a_edge19_Node000019_Node000018"><a xlink:title=" ">
<path fill="none" stroke="#63b8ff" d="M389.55,-242.04C399.78,-240.97 410.29,-239.87 420.48,-238.8"/>
<polygon fill="#63b8ff" stroke="#63b8ff" points="389.03,-238.58 379.45,-243.1 389.76,-245.54 389.03,-238.58"/>
</a>
</g>
</g>
<!-- Node19&#45;&gt;Node16 -->
<g id="edge18_Node000016_Node000019" class="edge">
<title>Node19&#45;&gt;Node16</title>
<g id="a_edge18_Node000016_Node000019"><a xlink:title=" ">
<path fill="none" stroke="#63b8ff" d="M572.04,-231.02C587.13,-230.93 602.36,-230.84 615.74,-230.76"/>
<polygon fill="#63b8ff" stroke="#63b8ff" points="571.63,-227.52 561.65,-231.08 571.67,-234.52 571.63,-227.52"/>
</a>
</g>
</g>
<!-- Node20&#45;&gt;Node14 -->
<g id="edge20_Node000014_Node000020" class="edge">
<title>Node20&#45;&gt;Node14</title>
<g id="a_edge20_Node000014_Node000020"><a xlink:title=" ">
<path fill="none" stroke="#63b8ff" d="M722.09,-259.8C734.15,-258.29 746.6,-256.74 758.07,-255.3"/>
<polygon fill="#63b8ff" stroke="#63b8ff" points="721.57,-256.34 712.08,-261.05 722.44,-263.28 721.57,-256.34"/>
</a>
</g>
</g>
<!-- Node21 -->
<g id="Node000021" class="node">
<title>Node21</title>
<g id="a_Node000021"><a xlink:href="classAmcCarrierBsa.html" target="_top" xlink:title=" ">
<polygon fill="white" stroke="#bfbfbf" points="704,-148 615,-148 615,-129 704,-129 704,-148"/>
<text text-anchor="middle" x="659.5" y="-136" font-family="Helvetica,sans-Serif" font-size="10.00">AmcCarrierBsa</text>
</a>
</g>
</g>
<!-- Node21&#45;&gt;Node14 -->
<g id="edge22_Node000014_Node000021" class="edge">
<title>Node21&#45;&gt;Node14</title>
<g id="a_edge22_Node000014_Node000021"><a xlink:title=" ">
<path fill="none" stroke="#63b8ff" d="M681.21,-154.47C711.52,-177.83 767.05,-220.63 791.9,-239.79"/>
<polygon fill="#63b8ff" stroke="#63b8ff" points="683.08,-151.49 673.03,-148.16 678.81,-157.03 683.08,-151.49"/>
</a>
</g>
</g>
<!-- Node22 -->
<g id="Node000022" class="node">
<title>Node22</title>
<g id="a_Node000022"><a xlink:href="classBsaWaveformEngine.html" target="_top" xlink:title=" ">
<polygon fill="white" stroke="#bfbfbf" points="550,-204 432,-204 432,-185 550,-185 550,-204"/>
<text text-anchor="middle" x="491" y="-192" font-family="Helvetica,sans-Serif" font-size="10.00">BsaWaveformEngine</text>
</a>
</g>
</g>
<!-- Node22&#45;&gt;Node21 -->
<g id="edge23_Node000021_Node000022" class="edge">
<title>Node22&#45;&gt;Node21</title>
<g id="a_edge23_Node000021_Node000022"><a xlink:title=" ">
<path fill="none" stroke="#63b8ff" d="M546.74,-182.43C553.61,-180.6 560.5,-178.62 567,-176.5 592.03,-168.36 619.82,-156.37 638.14,-148.05"/>
<polygon fill="#63b8ff" stroke="#63b8ff" points="545.56,-179.12 536.74,-184.99 547.3,-185.9 545.56,-179.12"/>
</a>
</g>
</g>
<!-- Node23 -->
<g id="Node000023" class="node">
<title>Node23</title>
<g id="a_Node000023"><a xlink:href="classBsaBufferControl.html" target="_top" xlink:title=" ">
<polygon fill="white" stroke="#bfbfbf" points="540.5,-167 441.5,-167 441.5,-148 540.5,-148 540.5,-167"/>
<text text-anchor="middle" x="491" y="-155" font-family="Helvetica,sans-Serif" font-size="10.00">BsaBufferControl</text>
</a>
</g>
</g>
<!-- Node23&#45;&gt;Node21 -->
<g id="edge24_Node000021_Node000023" class="edge">
<title>Node23&#45;&gt;Node21</title>
<g id="a_edge24_Node000021_Node000023"><a xlink:title=" ">
<path fill="none" stroke="#63b8ff" d="M550.77,-150.79C571.9,-148.38 595.34,-145.71 614.94,-143.47"/>
<polygon fill="#63b8ff" stroke="#63b8ff" points="550.14,-147.34 540.61,-151.95 550.94,-154.3 550.14,-147.34"/>
</a>
</g>
</g>
<!-- Node24 -->
<g id="Node000024" class="node">
<title>Node24</title>
<g id="a_Node000024"><a xlink:href="classBsaAccumulator.html" target="_top" xlink:title=" ">
<polygon fill="white" stroke="#bfbfbf" points="365.5,-167 269.5,-167 269.5,-148 365.5,-148 365.5,-167"/>
<text text-anchor="middle" x="317.5" y="-155" font-family="Helvetica,sans-Serif" font-size="10.00">BsaAccumulator</text>
</a>
</g>
</g>
<!-- Node24&#45;&gt;Node23 -->
<g id="edge25_Node000023_Node000024" class="edge">
<title>Node24&#45;&gt;Node23</title>
<g id="a_edge25_Node000023_Node000024"><a xlink:title=" ">
<path fill="none" stroke="#63b8ff" d="M375.99,-157.5C397.2,-157.5 421,-157.5 441.35,-157.5"/>
<polygon fill="#63b8ff" stroke="#63b8ff" points="375.82,-154 365.82,-157.5 375.82,-161 375.82,-154"/>
</a>
</g>
</g>
<!-- Node25 -->
<g id="Node000025" class="node">
<title>Node25</title>
<g id="a_Node000025"><a xlink:href="classBsssWrapper.html" target="_top" xlink:title=" ">
<polygon fill="white" stroke="#bfbfbf" points="531,-130 451,-130 451,-111 531,-111 531,-130"/>
<text text-anchor="middle" x="491" y="-118" font-family="Helvetica,sans-Serif" font-size="10.00">BsssWrapper</text>
</a>
</g>
</g>
<!-- Node25&#45;&gt;Node21 -->
<g id="edge26_Node000021_Node000025" class="edge">
<title>Node25&#45;&gt;Node21</title>
<g id="a_edge26_Node000021_Node000025"><a xlink:title=" ">
<path fill="none" stroke="#63b8ff" d="M541.08,-125.81C564.43,-128.33 592.1,-131.32 614.72,-133.77"/>
<polygon fill="#63b8ff" stroke="#63b8ff" points="541.36,-122.32 531.04,-124.72 540.6,-129.27 541.36,-122.32"/>
</a>
</g>
</g>
<!-- Node26 -->
<g id="Node000026" class="node">
<title>Node26</title>
<g id="a_Node000026"><a xlink:href="classBsasWrapper.html" target="_top" xlink:title=" ">
<polygon fill="white" stroke="#bfbfbf" points="531.5,-93 450.5,-93 450.5,-74 531.5,-74 531.5,-93"/>
<text text-anchor="middle" x="491" y="-81" font-family="Helvetica,sans-Serif" font-size="10.00">BsasWrapper</text>
</a>
</g>
</g>
<!-- Node26&#45;&gt;Node21 -->
<g id="edge27_Node000021_Node000026" class="edge">
<title>Node26&#45;&gt;Node21</title>
<g id="a_edge27_Node000021_Node000026"><a xlink:title=" ">
<path fill="none" stroke="#63b8ff" d="M541.7,-94.48C550.23,-96.82 558.95,-99.51 567,-102.5 583.77,-108.73 586.45,-113.72 603,-120.5 610.41,-123.53 618.53,-126.41 626.21,-128.93"/>
<polygon fill="#63b8ff" stroke="#63b8ff" points="542.36,-91.04 531.8,-91.89 540.59,-97.81 542.36,-91.04"/>
</a>
</g>
</g>
<!-- Node27 -->
<g id="Node000027" class="node">
<title>Node27</title>
<g id="a_Node000027"><a xlink:href="classBsasModule.html" target="_top" xlink:title=" ">
<polygon fill="white" stroke="#bfbfbf" points="355.5,-93 279.5,-93 279.5,-74 355.5,-74 355.5,-93"/>
<text text-anchor="middle" x="317.5" y="-81" font-family="Helvetica,sans-Serif" font-size="10.00">BsasModule</text>
</a>
</g>
</g>
<!-- Node27&#45;&gt;Node26 -->
<g id="edge28_Node000026_Node000027" class="edge">
<title>Node27&#45;&gt;Node26</title>
<g id="a_edge28_Node000026_Node000027"><a xlink:title=" ">
<path fill="none" stroke="#63b8ff" d="M365.94,-83.5C392.52,-83.5 425.29,-83.5 450.47,-83.5"/>
<polygon fill="#63b8ff" stroke="#63b8ff" points="365.71,-80 355.71,-83.5 365.71,-87 365.71,-80"/>
</a>
</g>
</g>
<!-- Node28 -->
<g id="Node000028" class="node">
<title>Node28</title>
<g id="a_Node000028"><a xlink:href="classBsasAccumulator.html" target="_top" xlink:title=" ">
<polygon fill="white" stroke="#bfbfbf" points="220,-93 119,-93 119,-74 220,-74 220,-93"/>
<text text-anchor="middle" x="169.5" y="-81" font-family="Helvetica,sans-Serif" font-size="10.00">BsasAccumulator</text>
</a>
</g>
</g>
<!-- Node28&#45;&gt;Node27 -->
<g id="edge29_Node000027_Node000028" class="edge">
<title>Node28&#45;&gt;Node27</title>
<g id="a_edge29_Node000027_Node000028"><a xlink:title=" ">
<path fill="none" stroke="#63b8ff" d="M230.49,-83.5C247.03,-83.5 264.49,-83.5 279.33,-83.5"/>
<polygon fill="#63b8ff" stroke="#63b8ff" points="230.34,-80 220.34,-83.5 230.34,-87 230.34,-80"/>
</a>
</g>
</g>
<!-- Node29 -->
<g id="Node000029" class="node">
<title>Node29</title>
<g id="a_Node000029"><a xlink:href="classBsaAxiInterconnectWrapper.html" target="_top" xlink:title=" ">
<polygon fill="white" stroke="#bfbfbf" points="567,-56 415,-56 415,-37 567,-37 567,-56"/>
<text text-anchor="middle" x="491" y="-44" font-family="Helvetica,sans-Serif" font-size="10.00">BsaAxiInterconnectWrapper</text>
</a>
</g>
</g>
<!-- Node29&#45;&gt;Node21 -->
<g id="edge30_Node000021_Node000029" class="edge">
<title>Node29&#45;&gt;Node21</title>
<g id="a_edge30_Node000021_Node000029"><a xlink:title=" ">
<path fill="none" stroke="#63b8ff" d="M560.4,-60.38C562.69,-61.64 564.9,-63.01 567,-64.5 591.12,-81.63 579.56,-102.44 603,-120.5 607.41,-123.9 612.49,-126.67 617.75,-128.92"/>
<polygon fill="#63b8ff" stroke="#63b8ff" points="561.77,-57.16 551.23,-56.07 558.79,-63.49 561.77,-57.16"/>
</a>
</g>
</g>
<!-- Node30 -->
<g id="Node000030" class="node">
<title>Node30</title>
<g id="a_Node000030"><a xlink:href="classBldWrapper.html" target="_top" xlink:title=" ">
<polygon fill="white" stroke="#bfbfbf" points="528,-19 454,-19 454,0 528,0 528,-19"/>
<text text-anchor="middle" x="491" y="-7" font-family="Helvetica,sans-Serif" font-size="10.00">BldWrapper</text>
</a>
</g>
</g>
<!-- Node30&#45;&gt;Node21 -->
<g id="edge31_Node000021_Node000030" class="edge">
<title>Node30&#45;&gt;Node21</title>
<g id="a_edge31_Node000021_Node000030"><a xlink:title=" ">
<path fill="none" stroke="#63b8ff" d="M538.04,-13.29C548.5,-16.01 558.9,-20.42 567,-27.5 600.37,-56.68 570.8,-90.04 603,-120.5 606.61,-123.91 610.87,-126.67 615.39,-128.92"/>
<polygon fill="#63b8ff" stroke="#63b8ff" points="538.58,-9.83 528.07,-11.17 537.12,-16.68 538.58,-9.83"/>
</a>
</g>
</g>
<!-- Node31 -->
<g id="Node000031" class="node">
<title>Node31</title>
<g id="a_Node000031"><a xlink:href="classBldAxiStream.html" target="_top" xlink:title=" ">
<polygon fill="white" stroke="#bfbfbf" points="359,-19 276,-19 276,0 359,0 359,-19"/>
<text text-anchor="middle" x="317.5" y="-7" font-family="Helvetica,sans-Serif" font-size="10.00">BldAxiStream</text>
</a>
</g>
</g>
<!-- Node31&#45;&gt;Node30 -->
<g id="edge32_Node000030_Node000031" class="edge">
<title>Node31&#45;&gt;Node30</title>
<g id="a_edge32_Node000030_Node000031"><a xlink:title=" ">
<path fill="none" stroke="#63b8ff" d="M369.24,-9.5C396.38,-9.5 429.17,-9.5 453.73,-9.5"/>
<polygon fill="#63b8ff" stroke="#63b8ff" points="369.14,-6 359.14,-9.5 369.14,-13 369.14,-6"/>
</a>
</g>
</g>
<!-- Node32 -->
<g id="Node000032" class="node">
<title>Node32</title>
<g id="a_Node000032"><a xlink:href="classBldEventSelect.html" target="_top" xlink:title=" ">
<polygon fill="white" stroke="#bfbfbf" points="214.5,-19 124.5,-19 124.5,0 214.5,0 214.5,-19"/>
<text text-anchor="middle" x="169.5" y="-7" font-family="Helvetica,sans-Serif" font-size="10.00">BldEventSelect</text>
</a>
</g>
</g>
<!-- Node32&#45;&gt;Node31 -->
<g id="edge33_Node000031_Node000032" class="edge">
<title>Node32&#45;&gt;Node31</title>
<g id="a_edge33_Node000031_Node000032"><a xlink:title=" ">
<path fill="none" stroke="#63b8ff" d="M224.99,-9.5C241.88,-9.5 260.17,-9.5 275.93,-9.5"/>
<polygon fill="#63b8ff" stroke="#63b8ff" points="224.7,-6 214.7,-9.5 224.7,-13 224.7,-6"/>
</a>
</g>
</g>
<!-- Node33 -->
<g id="Node000033" class="node">
<title>Node33</title>
<g id="a_Node000033"><a xlink:href="classBldEventRAM.html" target="_top" xlink:title=" ">
<polygon fill="white" stroke="#bfbfbf" points="83,-19 0,-19 0,0 83,0 83,-19"/>
<text text-anchor="middle" x="41.5" y="-7" font-family="Helvetica,sans-Serif" font-size="10.00">BldEventRAM</text>
</a>
</g>
</g>
<!-- Node33&#45;&gt;Node32 -->
<g id="edge34_Node000032_Node000033" class="edge">
<title>Node33&#45;&gt;Node32</title>
<g id="a_edge34_Node000032_Node000033"><a xlink:title=" ">
<path fill="none" stroke="#63b8ff" d="M93.12,-9.5C103.37,-9.5 114.07,-9.5 124.09,-9.5"/>
<polygon fill="#63b8ff" stroke="#63b8ff" points="93.06,-6 83.06,-9.5 93.06,-13 93.06,-6"/>
</a>
</g>
</g>
<!-- Node34 -->
<g id="Node000034" class="node">
<title>Node34</title>
<g id="a_Node000034"><a xlink:href="classAmcCarrierDdrMem.html" target="_top" xlink:title=" ">
<polygon fill="white" stroke="#bfbfbf" points="716,-111 603,-111 603,-92 716,-92 716,-111"/>
<text text-anchor="middle" x="659.5" y="-99" font-family="Helvetica,sans-Serif" font-size="10.00">AmcCarrierDdrMem</text>
</a>
</g>
</g>
<!-- Node34&#45;&gt;Node14 -->
<g id="edge35_Node000014_Node000034" class="edge">
<title>Node34&#45;&gt;Node14</title>
<g id="a_edge35_Node000014_Node000034"><a xlink:title=" ">
<path fill="none" stroke="#63b8ff" d="M708.2,-115.45C710.94,-116.97 713.56,-118.65 716,-120.5 760.12,-154.02 790.12,-216.03 800.49,-239.84"/>
<polygon fill="#63b8ff" stroke="#63b8ff" points="709.68,-112.28 699.15,-111.12 706.65,-118.59 709.68,-112.28"/>
</a>
</g>
</g>
</g>
</svg>

<g id="navigator" transform="translate(0 0)" fill="#404254">
  <rect fill="#f2f5e9" fill-opacity="0.5" stroke="#606060" stroke-width=".5" x="0" y="0" width="60" height="60"/>
  <use id="zoomplus" xlink:href="#zoomPlus" x="17" y="9" onmousedown="handleZoom(evt,'in')"/>
  <use id="zoomminus" xlink:href="#zoomMin" x="42" y="9" onmousedown="handleZoom(evt,'out')"/>
  <use id="reset" xlink:href="#resetDef" x="30" y="36" onmousedown="handleReset()"/>
   <use id="arrowup" xlink:href="#arrowUp" x="0" y="0" onmousedown="handlePan(0,-1)"/>
  <use id="arrowright" xlink:href="#arrowRight" x="0" y="0" onmousedown="handlePan(1,0)"/>
  <use id="arrowdown" xlink:href="#arrowDown" x="0" y="0" onmousedown="handlePan(0,1)"/>
  <use id="arrowleft" xlink:href="#arrowLeft" x="0" y="0" onmousedown="handlePan(-1,0)"/>
</g>
<svg viewBox="0 0 15 15" width="100%" height="30px" preserveAspectRatio="xMaxYMin meet">
 <g id="arrow_out" transform="scale(0.3 0.3)">
  <a xlink:href="classAmcCarrierCoreAdv__inherit__graph_org.svg" target="_base">
   <rect id="button" ry="5" rx="5" y="6" x="6" height="38" width="38"
        fill="#f2f5e9" fill-opacity="0.5" stroke="#606060" stroke-width="1.0"/>
   <path id="arrow"
     d="M 11.500037,31.436501 C 11.940474,20.09759 22.043105,11.32322 32.158766,21.979434 L 37.068811,17.246167 C 37.068811,17.246167 37.088388,32 37.088388,32 L 22.160133,31.978069 C 22.160133,31.978069 26.997745,27.140456 26.997745,27.140456 C 18.528582,18.264221 13.291696,25.230495 11.500037,31.436501 z"
     style="fill:#404040;"/>
  </a>
 </g>
</svg>

<style type='text/css'>
<![CDATA[
[data-mouse-over-selected='false'] { opacity: 0.7; }
[data-mouse-over-selected='true']  { opacity: 1.0; }
]]>
</style>
<script type="application/ecmascript"><![CDATA[
document.addEventListener('DOMContentLoaded', (event) => {
  highlightEdges();
  highlightAdjacentNodes();
});
]]></script>
</svg>
