<?xml version="1.0" encoding="UTF-8" standalone="no"?>
<!DOCTYPE svg PUBLIC "-//W3C//DTD SVG 1.1//EN"
 "http://www.w3.org/Graphics/SVG/1.1/DTD/svg11.dtd">
<!-- Generated by graphviz version 2.43.0 (0)
 -->
<!-- Title: AmcCarrierCore Pages: 1 -->
<svg width="769pt" height="256pt"
 viewBox="0.00 0.00 769.00 256.00" xmlns="http://www.w3.org/2000/svg" xmlns:xlink="http://www.w3.org/1999/xlink">
<g id="graph0" class="graph" transform="scale(1 1) rotate(0) translate(4 252)">
<title>AmcCarrierCore</title>
<polygon fill="white" stroke="transparent" points="-4,4 -4,-252 765,-252 765,4 -4,4"/>
<!-- Node1 -->
<g id="node1" class="node">
<title>Node1</title>
<g id="a_node1"><a xlink:title=" ">
<polygon fill="#bfbfbf" stroke="black" points="513,-152.5 513,-171.5 607,-171.5 607,-152.5 513,-152.5"/>
<text text-anchor="middle" x="560" y="-159.5" font-family="Helvetica,sans-Serif" font-size="10.00">AmcCarrierCore</text>
</a>
</g>
</g>
<!-- Node16 -->
<g id="node16" class="node">
<title>Node16</title>
<g id="a_node16"><a xlink:href="classAmcCarrierCoreAdv.html" target="_top" xlink:title=" ">
<polygon fill="white" stroke="black" points="645.5,-171.5 645.5,-190.5 758.5,-190.5 758.5,-171.5 645.5,-171.5"/>
<text text-anchor="middle" x="702" y="-178.5" font-family="Helvetica,sans-Serif" font-size="10.00">AmcCarrierCoreAdv</text>
</a>
</g>
</g>
<!-- Node1&#45;&gt;Node16 -->
<g id="edge16" class="edge">
<title>Node1&#45;&gt;Node16</title>
<path fill="none" stroke="midnightblue" d="M617.37,-169.65C626.5,-170.89 635.95,-172.17 645.07,-173.41"/>
<polygon fill="midnightblue" stroke="midnightblue" points="617.61,-166.15 607.23,-168.27 616.67,-173.09 617.61,-166.15"/>
</g>
<!-- Node17 -->
<g id="node17" class="node">
<title>Node17</title>
<g id="a_node17"><a xlink:href="classAmcCarrierCoreBase.html" target="_top" xlink:title=" ">
<polygon fill="white" stroke="black" points="643,-133.5 643,-152.5 761,-152.5 761,-133.5 643,-133.5"/>
<text text-anchor="middle" x="702" y="-140.5" font-family="Helvetica,sans-Serif" font-size="10.00">AmcCarrierCoreBase</text>
</a>
</g>
</g>
<!-- Node1&#45;&gt;Node17 -->
<g id="edge17" class="edge">
<title>Node1&#45;&gt;Node17</title>
<path fill="none" stroke="midnightblue" d="M617.24,-154.37C625.58,-153.24 634.2,-152.07 642.59,-150.93"/>
<polygon fill="midnightblue" stroke="midnightblue" points="616.67,-150.91 607.23,-155.73 617.61,-157.85 616.67,-150.91"/>
</g>
<!-- Node2 -->
<g id="node2" class="node">
<title>Node2</title>
<g id="a_node2"><a xlink:href="classAmcCarrierIbufGt.html" target="_top" xlink:title=" ">
<polygon fill="white" stroke="black" points="200,-228.5 200,-247.5 301,-247.5 301,-228.5 200,-228.5"/>
<text text-anchor="middle" x="250.5" y="-235.5" font-family="Helvetica,sans-Serif" font-size="10.00">AmcCarrierIbufGt</text>
</a>
</g>
</g>
<!-- Node2&#45;&gt;Node1 -->
<g id="edge1" class="edge">
<title>Node2&#45;&gt;Node1</title>
<path fill="none" stroke="midnightblue" d="M311.66,-241.27C358.15,-241.84 423.39,-238.31 477,-219 506.03,-208.54 534.34,-185.07 548.89,-171.74"/>
<polygon fill="midnightblue" stroke="midnightblue" points="311.51,-237.77 301.45,-241.08 311.38,-244.77 311.51,-237.77"/>
</g>
<!-- Node8 -->
<g id="node8" class="node">
<title>Node8</title>
<g id="a_node8"><a xlink:href="classAmcCarrierTiming.html" target="_top" xlink:title=" ">
<polygon fill="white" stroke="black" points="368,-190.5 368,-209.5 473,-209.5 473,-190.5 368,-190.5"/>
<text text-anchor="middle" x="420.5" y="-197.5" font-family="Helvetica,sans-Serif" font-size="10.00">AmcCarrierTiming</text>
</a>
</g>
</g>
<!-- Node2&#45;&gt;Node8 -->
<g id="edge8" class="edge">
<title>Node2&#45;&gt;Node8</title>
<path fill="none" stroke="midnightblue" d="M303.78,-226.18C327.46,-220.82 355.09,-214.57 377.41,-209.52"/>
<polygon fill="midnightblue" stroke="midnightblue" points="302.87,-222.79 293.89,-228.41 304.42,-229.62 302.87,-222.79"/>
</g>
<!-- Node3 -->
<g id="node3" class="node">
<title>Node3</title>
<g id="a_node3"><a xlink:href="classAmcCarrierEth.html" target="_top" xlink:title=" ">
<polygon fill="white" stroke="black" points="377,-152.5 377,-171.5 464,-171.5 464,-152.5 377,-152.5"/>
<text text-anchor="middle" x="420.5" y="-159.5" font-family="Helvetica,sans-Serif" font-size="10.00">AmcCarrierEth</text>
</a>
</g>
</g>
<!-- Node3&#45;&gt;Node1 -->
<g id="edge2" class="edge">
<title>Node3&#45;&gt;Node1</title>
<path fill="none" stroke="midnightblue" d="M474.27,-162C487.01,-162 500.53,-162 512.93,-162"/>
<polygon fill="midnightblue" stroke="midnightblue" points="474.25,-158.5 464.25,-162 474.25,-165.5 474.25,-158.5"/>
</g>
<!-- Node4 -->
<g id="node4" class="node">
<title>Node4</title>
<g id="a_node4"><a xlink:href="classAmcCarrierRssi.html" target="_top" xlink:title=" ">
<polygon fill="white" stroke="black" points="198,-190.5 198,-209.5 303,-209.5 303,-190.5 198,-190.5"/>
<text text-anchor="middle" x="250.5" y="-197.5" font-family="Helvetica,sans-Serif" font-size="10.00">AmcCarrierRssi(2)</text>
</a>
</g>
</g>
<!-- Node4&#45;&gt;Node3 -->
<g id="edge3" class="edge">
<title>Node4&#45;&gt;Node3</title>
<path fill="none" stroke="midnightblue" d="M303.78,-188.18C327.46,-182.82 355.09,-176.57 377.41,-171.52"/>
<polygon fill="midnightblue" stroke="midnightblue" points="302.87,-184.79 293.89,-190.41 304.42,-191.62 302.87,-184.79"/>
</g>
<!-- Node5 -->
<g id="node5" class="node">
<title>Node5</title>
<g id="a_node5"><a xlink:href="classAmcCarrierRssiObFifo.html" target="_top" xlink:title=" ">
<polygon fill="white" stroke="black" points="0,-190.5 0,-209.5 137,-209.5 137,-190.5 0,-190.5"/>
<text text-anchor="middle" x="68.5" y="-197.5" font-family="Helvetica,sans-Serif" font-size="10.00">AmcCarrierRssiObFifo(2)</text>
</a>
</g>
</g>
<!-- Node5&#45;&gt;Node4 -->
<g id="edge4" class="edge">
<title>Node5&#45;&gt;Node4</title>
<path fill="none" stroke="midnightblue" d="M147.07,-200C164.25,-200 182.05,-200 197.9,-200"/>
<polygon fill="midnightblue" stroke="midnightblue" points="147.04,-196.5 137.04,-200 147.04,-203.5 147.04,-196.5"/>
</g>
<!-- Node6 -->
<g id="node6" class="node">
<title>Node6</title>
<g id="a_node6"><a xlink:href="classAmcCarrierRssiInterleave.html" target="_top" xlink:title=" ">
<polygon fill="white" stroke="black" points="173,-152.5 173,-171.5 328,-171.5 328,-152.5 173,-152.5"/>
<text text-anchor="middle" x="250.5" y="-159.5" font-family="Helvetica,sans-Serif" font-size="10.00">AmcCarrierRssiInterleave(2)</text>
</a>
</g>
</g>
<!-- Node6&#45;&gt;Node3 -->
<g id="edge5" class="edge">
<title>Node6&#45;&gt;Node3</title>
<path fill="none" stroke="midnightblue" d="M338.38,-162C351.8,-162 365.12,-162 376.97,-162"/>
<polygon fill="midnightblue" stroke="midnightblue" points="338.13,-158.5 328.13,-162 338.13,-165.5 338.13,-158.5"/>
</g>
<!-- Node7 -->
<g id="node7" class="node">
<title>Node7</title>
<g id="a_node7"><a xlink:href="classAmcCarrierRssiObFifo.html" target="_top" xlink:title=" ">
<polygon fill="white" stroke="black" points="7,-152.5 7,-171.5 130,-171.5 130,-152.5 7,-152.5"/>
<text text-anchor="middle" x="68.5" y="-159.5" font-family="Helvetica,sans-Serif" font-size="10.00">AmcCarrierRssiObFifo</text>
</a>
</g>
</g>
<!-- Node7&#45;&gt;Node6 -->
<g id="edge6" class="edge">
<title>Node7&#45;&gt;Node6</title>
<path fill="none" stroke="midnightblue" d="M140.28,-162C150.95,-162 162,-162 172.79,-162"/>
<polygon fill="midnightblue" stroke="midnightblue" points="140.19,-158.5 130.19,-162 140.19,-165.5 140.19,-158.5"/>
</g>
<!-- Node8&#45;&gt;Node1 -->
<g id="edge7" class="edge">
<title>Node8&#45;&gt;Node1</title>
<path fill="none" stroke="midnightblue" d="M466.07,-187.68C484.96,-182.46 506.65,-176.47 524.31,-171.59"/>
<polygon fill="midnightblue" stroke="midnightblue" points="464.9,-184.37 456.2,-190.41 466.77,-191.12 464.9,-184.37"/>
</g>
<!-- Node9 -->
<g id="node9" class="node">
<title>Node9</title>
<g id="a_node9"><a xlink:href="classAmcCarrierBsa.html" target="_top" xlink:title=" ">
<polygon fill="white" stroke="black" points="376,-95.5 376,-114.5 465,-114.5 465,-95.5 376,-95.5"/>
<text text-anchor="middle" x="420.5" y="-102.5" font-family="Helvetica,sans-Serif" font-size="10.00">AmcCarrierBsa</text>
</a>
</g>
</g>
<!-- Node9&#45;&gt;Node1 -->
<g id="edge9" class="edge">
<title>Node9&#45;&gt;Node1</title>
<path fill="none" stroke="midnightblue" d="M454.02,-118.48C479.2,-128.92 513.48,-143.13 535.91,-152.43"/>
<polygon fill="midnightblue" stroke="midnightblue" points="455.09,-115.14 444.51,-114.54 452.41,-121.6 455.09,-115.14"/>
</g>
<!-- Node10 -->
<g id="node10" class="node">
<title>Node10</title>
<g id="a_node10"><a xlink:href="classBsaWaveformEngine.html" target="_top" xlink:title=" ">
<polygon fill="white" stroke="black" points="185,-114.5 185,-133.5 316,-133.5 316,-114.5 185,-114.5"/>
<text text-anchor="middle" x="250.5" y="-121.5" font-family="Helvetica,sans-Serif" font-size="10.00">BsaWaveformEngine(2)</text>
</a>
</g>
</g>
<!-- Node10&#45;&gt;Node9 -->
<g id="edge10" class="edge">
<title>Node10&#45;&gt;Node9</title>
<path fill="none" stroke="midnightblue" d="M326.85,-115.48C343.68,-113.58 360.97,-111.62 376,-109.92"/>
<polygon fill="midnightblue" stroke="midnightblue" points="326,-112.05 316.45,-116.65 326.78,-119.01 326,-112.05"/>
</g>
<!-- Node11 -->
<g id="node11" class="node">
<title>Node11</title>
<g id="a_node11"><a xlink:href="classBsaBufferControl.html" target="_top" xlink:title=" ">
<polygon fill="white" stroke="black" points="201,-76.5 201,-95.5 300,-95.5 300,-76.5 201,-76.5"/>
<text text-anchor="middle" x="250.5" y="-83.5" font-family="Helvetica,sans-Serif" font-size="10.00">BsaBufferControl</text>
</a>
</g>
</g>
<!-- Node11&#45;&gt;Node9 -->
<g id="edge11" class="edge">
<title>Node11&#45;&gt;Node9</title>
<path fill="none" stroke="midnightblue" d="M310.15,-92.63C331.76,-95.08 355.84,-97.8 375.89,-100.07"/>
<polygon fill="midnightblue" stroke="midnightblue" points="310.42,-89.14 300.09,-91.5 309.64,-96.1 310.42,-89.14"/>
</g>
<!-- Node12 -->
<g id="node12" class="node">
<title>Node12</title>
<g id="a_node12"><a xlink:href="classBsaAccumulator.html" target="_top" xlink:title=" ">
<polygon fill="white" stroke="black" points="20.5,-76.5 20.5,-95.5 116.5,-95.5 116.5,-76.5 20.5,-76.5"/>
<text text-anchor="middle" x="68.5" y="-83.5" font-family="Helvetica,sans-Serif" font-size="10.00">BsaAccumulator</text>
</a>
</g>
</g>
<!-- Node12&#45;&gt;Node11 -->
<g id="edge12" class="edge">
<title>Node12&#45;&gt;Node11</title>
<path fill="none" stroke="midnightblue" d="M127.1,-86C150.9,-86 178.19,-86 200.96,-86"/>
<polygon fill="midnightblue" stroke="midnightblue" points="126.79,-82.5 116.79,-86 126.79,-89.5 126.79,-82.5"/>
</g>
<!-- Node13 -->
<g id="node13" class="node">
<title>Node13</title>
<g id="a_node13"><a xlink:href="classBsaAxiInterconnectWrapper.html" target="_top" xlink:title=" ">
<polygon fill="white" stroke="black" points="174.5,-38.5 174.5,-57.5 326.5,-57.5 326.5,-38.5 174.5,-38.5"/>
<text text-anchor="middle" x="250.5" y="-45.5" font-family="Helvetica,sans-Serif" font-size="10.00">BsaAxiInterconnectWrapper</text>
</a>
</g>
</g>
<!-- Node13&#45;&gt;Node9 -->
<g id="edge13" class="edge">
<title>Node13&#45;&gt;Node9</title>
<path fill="none" stroke="midnightblue" d="M307.81,-60.32C314.69,-62.31 321.56,-64.54 328,-67 344.9,-73.45 347.39,-78.83 364,-86 371.95,-89.43 380.74,-92.68 388.93,-95.49"/>
<polygon fill="midnightblue" stroke="midnightblue" points="308.34,-56.84 297.77,-57.58 306.49,-63.59 308.34,-56.84"/>
</g>
<!-- Node14 -->
<g id="node14" class="node">
<title>Node14</title>
<g id="a_node14"><a xlink:href="classBldAxiStream.html" target="_top" xlink:title=" ">
<polygon fill="white" stroke="black" points="209,-0.5 209,-19.5 292,-19.5 292,-0.5 209,-0.5"/>
<text text-anchor="middle" x="250.5" y="-7.5" font-family="Helvetica,sans-Serif" font-size="10.00">BldAxiStream</text>
</a>
</g>
</g>
<!-- Node14&#45;&gt;Node9 -->
<g id="edge14" class="edge">
<title>Node14&#45;&gt;Node9</title>
<path fill="none" stroke="midnightblue" d="M302.06,-16.75C311.25,-19.54 320.34,-23.47 328,-29 352.29,-46.54 340.49,-67.42 364,-86 368.87,-89.85 374.58,-92.95 380.44,-95.43"/>
<polygon fill="midnightblue" stroke="midnightblue" points="302.66,-13.29 292.1,-14.15 300.89,-20.06 302.66,-13.29"/>
</g>
<!-- Node15 -->
<g id="node15" class="node">
<title>Node15</title>
<g id="a_node15"><a xlink:href="classAmcCarrierDdrMem.html" target="_top" xlink:title=" ">
<polygon fill="white" stroke="black" points="364,-57.5 364,-76.5 477,-76.5 477,-57.5 364,-57.5"/>
<text text-anchor="middle" x="420.5" y="-64.5" font-family="Helvetica,sans-Serif" font-size="10.00">AmcCarrierDdrMem</text>
</a>
</g>
</g>
<!-- Node15&#45;&gt;Node1 -->
<g id="edge15" class="edge">
<title>Node15&#45;&gt;Node1</title>
<path fill="none" stroke="midnightblue" d="M466.07,-80.37C469.86,-82.07 473.56,-83.94 477,-86 508.16,-104.62 537.55,-136.59 551.13,-152.47"/>
<polygon fill="midnightblue" stroke="midnightblue" points="467.13,-77.02 456.54,-76.51 464.5,-83.51 467.13,-77.02"/>
</g>
</g>
</svg>
