<?xml version="1.0" encoding="UTF-8" standalone="no"?>
<!DOCTYPE svg PUBLIC "-//W3C//DTD SVG 1.1//EN"
 "http://www.w3.org/Graphics/SVG/1.1/DTD/svg11.dtd">
<!-- Generated by graphviz version 2.43.0 (0)
 -->
<!-- Title: RtmCryoDet Pages: 1 -->
<svg width="348pt" height="192pt"
 viewBox="0.00 0.00 348.00 192.00" xmlns="http://www.w3.org/2000/svg" xmlns:xlink="http://www.w3.org/1999/xlink">

<svg id="main" version="1.1" xmlns="http://www.w3.org/2000/svg" xmlns:xlink="http://www.w3.org/1999/xlink" xml:space="preserve" onload="init(evt)">
<style type="text/css"><![CDATA[
.node, .edge {opacity: 0.7;}
.node.selected, .edge.selected {opacity: 1;}
.edge:hover path { stroke: red; }
.edge:hover polygon { stroke: red; fill: red; }
]]></style>
<script type="application/ecmascript" xlink:href="svg.min.js"/>
<svg id="graph" class="graph">
<g id="graph0" class="graph" transform="scale(1 1) rotate(0) translate(4 188)">
<title>RtmCryoDet</title>
<!-- Node1 -->
<g id="Node000001" class="node">
<title>Node1</title>
<g id="a_Node000001"><a xlink:title=" ">
<polygon fill="#999999" stroke="#666666" points="213,-74 136,-74 136,-55 213,-55 213,-74"/>
<text text-anchor="middle" x="174.5" y="-62" font-family="Helvetica,sans-Serif" font-size="10.00">RtmCryoDet</text>
</a>
</g>
</g>
<!-- Node6 -->
<g id="Node000006" class="node">
<title>Node6</title>
<g id="a_Node000006"><a xlink:href="classRtmCryoDacLutTb.html" target="_top" xlink:title=" ">
<polygon fill="white" stroke="#bfbfbf" points="227,-19 122,-19 122,0 227,0 227,-19"/>
<text text-anchor="middle" x="174.5" y="-7" font-family="Helvetica,sans-Serif" font-size="10.00">RtmCryoDacLutTb</text>
</a>
</g>
</g>
<!-- Node1&#45;&gt;Node6 -->
<g id="edge5_Node000001_Node000006" class="edge">
<title>Node1&#45;&gt;Node6</title>
<g id="a_edge5_Node000001_Node000006"><a xlink:title=" ">
<path fill="none" stroke="#63b8ff" d="M174.5,-44.66C174.5,-35.93 174.5,-25.99 174.5,-19.09"/>
<polygon fill="#63b8ff" stroke="#63b8ff" points="171,-44.75 174.5,-54.75 178,-44.75 171,-44.75"/>
</a>
</g>
</g>
<!-- Node2 -->
<g id="Node000002" class="node">
<title>Node2</title>
<g id="a_Node000002"><a xlink:href="classRtmCryoDetReg.html" target="_top" xlink:title=" ">
<polygon fill="white" stroke="#bfbfbf" points="102,-129 7,-129 7,-110 102,-110 102,-129"/>
<text text-anchor="middle" x="54.5" y="-117" font-family="Helvetica,sans-Serif" font-size="10.00">RtmCryoDetReg</text>
</a>
</g>
</g>
<!-- Node2&#45;&gt;Node1 -->
<g id="edge1_Node000001_Node000002" class="edge">
<title>Node2&#45;&gt;Node1</title>
<g id="a_edge1_Node000001_Node000002"><a xlink:title=" ">
<path fill="none" stroke="#63b8ff" d="M83.03,-105.9C105.2,-96.11 135.35,-82.79 154.87,-74.17"/>
<polygon fill="#63b8ff" stroke="#63b8ff" points="81.51,-102.74 73.78,-109.98 84.34,-109.15 81.51,-102.74"/>
</a>
</g>
</g>
<!-- Node3 -->
<g id="Node000003" class="node">
<title>Node3</title>
<g id="a_Node000003"><a xlink:href="classRtmCryoDetClkDiv.html" target="_top" xlink:title=" ">
<polygon fill="white" stroke="#bfbfbf" points="109,-184 0,-184 0,-165 109,-165 109,-184"/>
<text text-anchor="middle" x="54.5" y="-172" font-family="Helvetica,sans-Serif" font-size="10.00">RtmCryoDetClkDiv</text>
</a>
</g>
</g>
<!-- Node3&#45;&gt;Node2 -->
<g id="edge2_Node000002_Node000003" class="edge">
<title>Node3&#45;&gt;Node2</title>
<g id="a_edge2_Node000002_Node000003"><a xlink:title=" ">
<path fill="none" stroke="#63b8ff" d="M54.5,-154.66C54.5,-145.93 54.5,-135.99 54.5,-129.09"/>
<polygon fill="#63b8ff" stroke="#63b8ff" points="51,-154.75 54.5,-164.75 58,-154.75 51,-154.75"/>
</a>
</g>
</g>
<!-- Node4 -->
<g id="Node000004" class="node">
<title>Node4</title>
<g id="a_Node000004"><a xlink:href="classRtmCryoSpiMaster.html" target="_top" xlink:title=" ">
<polygon fill="white" stroke="#bfbfbf" points="228.5,-129 120.5,-129 120.5,-110 228.5,-110 228.5,-129"/>
<text text-anchor="middle" x="174.5" y="-117" font-family="Helvetica,sans-Serif" font-size="10.00">RtmCryoSpiMaster</text>
</a>
</g>
</g>
<!-- Node4&#45;&gt;Node1 -->
<g id="edge3_Node000001_Node000004" class="edge">
<title>Node4&#45;&gt;Node1</title>
<g id="a_edge3_Node000001_Node000004"><a xlink:title=" ">
<path fill="none" stroke="#63b8ff" d="M174.5,-99.66C174.5,-90.93 174.5,-80.99 174.5,-74.09"/>
<polygon fill="#63b8ff" stroke="#63b8ff" points="171,-99.75 174.5,-109.75 178,-99.75 171,-99.75"/>
</a>
</g>
</g>
<!-- Node5 -->
<g id="Node000005" class="node">
<title>Node5</title>
<g id="a_Node000005"><a xlink:href="classRtmCryoDacLut.html" target="_top" xlink:title=" ">
<polygon fill="white" stroke="#bfbfbf" points="340,-129 247,-129 247,-110 340,-110 340,-129"/>
<text text-anchor="middle" x="293.5" y="-117" font-family="Helvetica,sans-Serif" font-size="10.00">RtmCryoDacLut</text>
</a>
</g>
</g>
<!-- Node5&#45;&gt;Node1 -->
<g id="edge4_Node000001_Node000005" class="edge">
<title>Node5&#45;&gt;Node1</title>
<g id="a_edge4_Node000001_Node000005"><a xlink:title=" ">
<path fill="none" stroke="#63b8ff" d="M265.2,-105.9C243.22,-96.11 213.32,-82.79 193.97,-74.17"/>
<polygon fill="#63b8ff" stroke="#63b8ff" points="263.82,-109.11 274.38,-109.98 266.67,-102.72 263.82,-109.11"/>
</a>
</g>
</g>
</g>
</svg>
</svg>

<style type='text/css'>
<![CDATA[
[data-mouse-over-selected='false'] { opacity: 0.7; }
[data-mouse-over-selected='true']  { opacity: 1.0; }
]]>
</style>
<script type="application/ecmascript"><![CDATA[
document.addEventListener('DOMContentLoaded', (event) => {
  highlightEdges();
  highlightAdjacentNodes();
});
]]></script>
</svg>
