<?xml version="1.0" encoding="UTF-8" standalone="no"?>
<!DOCTYPE svg PUBLIC "-//W3C//DTD SVG 1.1//EN"
 "http://www.w3.org/Graphics/SVG/1.1/DTD/svg11.dtd">
<!-- Generated by graphviz version 2.43.0 (0)
 -->
<!-- Title: AmcCarrierEth Pages: 1 -->
<svg width="260pt" height="137pt"
 viewBox="0.00 0.00 259.50 137.00" xmlns="http://www.w3.org/2000/svg" xmlns:xlink="http://www.w3.org/1999/xlink">
<g id="graph0" class="graph" transform="scale(1 1) rotate(0) translate(4 133)">
<title>AmcCarrierEth</title>
<!-- Node1 -->
<g id="Node000001" class="node">
<title>Node1</title>
<g id="a_Node000001"><a xlink:title=" ">
<polygon fill="#999999" stroke="#666666" points="156.5,-19 69.5,-19 69.5,0 156.5,0 156.5,-19"/>
<text text-anchor="middle" x="113" y="-7" font-family="Helvetica,sans-Serif" font-size="10.00">AmcCarrierEth</text>
</a>
</g>
</g>
<!-- Node2 -->
<g id="Node000002" class="node">
<title>Node2</title>
<g id="a_Node000002"><a xlink:href="classAmcCarrierRssi.html" target="_top" xlink:title=" ">
<polygon fill="white" stroke="#bfbfbf" points="92,-74 0,-74 0,-55 92,-55 92,-74"/>
<text text-anchor="middle" x="46" y="-62" font-family="Helvetica,sans-Serif" font-size="10.00">AmcCarrierRssi</text>
</a>
</g>
</g>
<!-- Node2&#45;&gt;Node1 -->
<g id="edge1_Node000001_Node000002" class="edge">
<title>Node2&#45;&gt;Node1</title>
<g id="a_edge1_Node000001_Node000002"><a xlink:title=" ">
<path fill="none" stroke="#63b8ff" d="M64.83,-48.6C76.84,-39.11 91.97,-27.13 102.04,-19.17"/>
<polygon fill="#63b8ff" stroke="#63b8ff" points="62.44,-46.04 56.76,-54.98 66.78,-51.53 62.44,-46.04"/>
</a>
</g>
</g>
<!-- Node3 -->
<g id="Node000003" class="node">
<title>Node3</title>
<g id="a_Node000003"><a xlink:href="classAmcCarrierRssiObFifo.html" target="_top" xlink:title=" ">
<polygon fill="white" stroke="#bfbfbf" points="174.5,-129 51.5,-129 51.5,-110 174.5,-110 174.5,-129"/>
<text text-anchor="middle" x="113" y="-117" font-family="Helvetica,sans-Serif" font-size="10.00">AmcCarrierRssiObFifo</text>
</a>
</g>
</g>
<!-- Node3&#45;&gt;Node2 -->
<g id="edge2_Node000002_Node000003" class="edge">
<title>Node3&#45;&gt;Node2</title>
<g id="a_edge2_Node000002_Node000003"><a xlink:title=" ">
<path fill="none" stroke="#63b8ff" d="M94.17,-103.6C82.16,-94.11 67.03,-82.13 56.96,-74.17"/>
<polygon fill="#63b8ff" stroke="#63b8ff" points="92.22,-106.53 102.24,-109.98 96.56,-101.04 92.22,-106.53"/>
</a>
</g>
</g>
<!-- Node4 -->
<g id="Node000004" class="node">
<title>Node4</title>
<g id="a_Node000004"><a xlink:href="classAmcCarrierRssiInterleave.html" target="_top" xlink:title=" ">
<polygon fill="white" stroke="#bfbfbf" points="251.5,-74 110.5,-74 110.5,-55 251.5,-55 251.5,-74"/>
<text text-anchor="middle" x="181" y="-62" font-family="Helvetica,sans-Serif" font-size="10.00">AmcCarrierRssiInterleave</text>
</a>
</g>
</g>
<!-- Node3&#45;&gt;Node4 -->
<g id="edge4_Node000004_Node000003" class="edge">
<title>Node3&#45;&gt;Node4</title>
<g id="a_edge4_Node000004_Node000003"><a xlink:title=" ">
<path fill="none" stroke="#63b8ff" d="M132.12,-103.6C144.3,-94.11 159.66,-82.13 169.88,-74.17"/>
<polygon fill="#63b8ff" stroke="#63b8ff" points="129.66,-101.08 123.93,-109.98 133.96,-106.6 129.66,-101.08"/>
</a>
</g>
</g>
<!-- Node4&#45;&gt;Node1 -->
<g id="edge3_Node000001_Node000004" class="edge">
<title>Node4&#45;&gt;Node1</title>
<g id="a_edge3_Node000001_Node000004"><a xlink:title=" ">
<path fill="none" stroke="#63b8ff" d="M161.88,-48.6C149.7,-39.11 134.34,-27.13 124.12,-19.17"/>
<polygon fill="#63b8ff" stroke="#63b8ff" points="160.04,-51.6 170.07,-54.98 164.34,-46.08 160.04,-51.6"/>
</a>
</g>
</g>
</g>
</svg>
