<?xml version="1.0" encoding="UTF-8" standalone="no"?>
<!DOCTYPE svg PUBLIC "-//W3C//DTD SVG 1.1//EN"
 "http://www.w3.org/Graphics/SVG/1.1/DTD/svg11.dtd">
<!-- Generated by graphviz version 2.43.0 (0)
 -->
<!-- Title: AmcCarrierCoreFsbl Pages: 1 -->
<!--zoomable 408 -->
<svg id="main" version="1.1" xmlns="http://www.w3.org/2000/svg" xmlns:xlink="http://www.w3.org/1999/xlink" xml:space="preserve" onload="init(evt)">
<style type="text/css"><![CDATA[
.edge:hover path { stroke: red; }
.edge:hover polygon { stroke: red; fill: red; }
]]></style>
<script type="text/javascript"><![CDATA[
var edges = document.getElementsByTagName('g');
if (edges && edges.length) {
  for (var i=0;i<edges.length;i++) {
    if (edges[i].id.substr(0,4)=='edge') {
      edges[i].setAttribute('class','edge');
    }
  }
}
]]></script>
        <defs>
                <circle id="rim" cx="0" cy="0" r="7"/>
                <circle id="rim2" cx="0" cy="0" r="3.5"/>
                <g id="zoomPlus">
                        <use xlink:href="#rim" fill="#404040">
                                <set attributeName="fill" to="#808080" begin="zoomplus.mouseover" end="zoomplus.mouseout"/>
                        </use>
                        <path d="M-4,0h8M0,-4v8" fill="none" stroke="white" stroke-width="1.5" pointer-events="none"/>
                </g>
                <g id="zoomMin">
                        <use xlink:href="#rim" fill="#404040">
                                <set attributeName="fill" to="#808080" begin="zoomminus.mouseover" end="zoomminus.mouseout"/>
                        </use>
                        <path d="M-4,0h8" fill="none" stroke="white" stroke-width="1.5" pointer-events="none"/>
                </g>
                <g id="dirArrow">
                        <path fill="none" stroke="white" stroke-width="1.5" d="M0,-3.0v7 M-2.5,-0.5L0,-3.0L2.5,-0.5"/>
                </g>
               <g id="resetDef">
                       <use xlink:href="#rim2" fill="#404040">
                               <set attributeName="fill" to="#808080" begin="reset.mouseover" end="reset.mouseout"/>
                       </use>
               </g>
        </defs>

<script type="text/javascript">
var viewWidth = 989;
var viewHeight = 408;
var sectionId = 'dynsection-1';
</script>
<script xlink:href="svgpan.js"/>
<svg id="graph" class="graph">
<g id="viewport">
<title>AmcCarrierCoreFsbl</title>
<polygon fill="white" stroke="transparent" points="-4,4 -4,-404 985,-404 985,4 -4,4"/>
<!-- Node1 -->
<g id="node1" class="node">
<title>Node1</title>
<g id="a_node1"><a xlink:title=" ">
<polygon fill="#bfbfbf" stroke="black" points="867,-266.5 867,-285.5 981,-285.5 981,-266.5 867,-266.5"/>
<text text-anchor="middle" x="924" y="-273.5" font-family="Helvetica,sans-Serif" font-size="10.00">AmcCarrierCoreFsbl</text>
</a>
</g>
</g>
<!-- Node2 -->
<g id="node2" class="node">
<title>Node2</title>
<g id="a_node2"><a xlink:href="classAmcCarrierSysReg.html" target="_top" xlink:title=" ">
<polygon fill="white" stroke="black" points="724,-342.5 724,-361.5 831,-361.5 831,-342.5 724,-342.5"/>
<text text-anchor="middle" x="777.5" y="-349.5" font-family="Helvetica,sans-Serif" font-size="10.00">AmcCarrierSysReg</text>
</a>
</g>
</g>
<!-- Node2&#45;&gt;Node1 -->
<g id="edge1" class="edge">
<title>Node2&#45;&gt;Node1</title>
<path fill="none" stroke="midnightblue" d="M805.98,-337.54C835.01,-322.28 879.95,-298.64 904.85,-285.55"/>
<polygon fill="midnightblue" stroke="midnightblue" points="804.02,-334.62 796.8,-342.37 807.28,-340.82 804.02,-334.62"/>
</g>
<!-- Node3 -->
<g id="node3" class="node">
<title>Node3</title>
<g id="a_node3"><a xlink:href="classAmcCarrierSysMon.html" target="_top" xlink:title=" ">
<polygon fill="white" stroke="black" points="576.5,-380.5 576.5,-399.5 686.5,-399.5 686.5,-380.5 576.5,-380.5"/>
<text text-anchor="middle" x="631.5" y="-387.5" font-family="Helvetica,sans-Serif" font-size="10.00">AmcCarrierSysMon</text>
</a>
</g>
</g>
<!-- Node3&#45;&gt;Node2 -->
<g id="edge2" class="edge">
<title>Node3&#45;&gt;Node2</title>
<path fill="none" stroke="midnightblue" d="M678.67,-377.82C698.66,-372.54 721.72,-366.46 740.42,-361.52"/>
<polygon fill="midnightblue" stroke="midnightblue" points="677.61,-374.48 668.84,-380.41 679.4,-381.24 677.61,-374.48"/>
</g>
<!-- Node4 -->
<g id="node4" class="node">
<title>Node4</title>
<g id="a_node4"><a xlink:href="classAmcCarrierBsi.html" target="_top" xlink:title=" ">
<polygon fill="white" stroke="black" points="588.5,-342.5 588.5,-361.5 674.5,-361.5 674.5,-342.5 588.5,-342.5"/>
<text text-anchor="middle" x="631.5" y="-349.5" font-family="Helvetica,sans-Serif" font-size="10.00">AmcCarrierBsi</text>
</a>
</g>
</g>
<!-- Node4&#45;&gt;Node2 -->
<g id="edge3" class="edge">
<title>Node4&#45;&gt;Node2</title>
<path fill="none" stroke="midnightblue" d="M684.57,-352C697.37,-352 711.09,-352 723.91,-352"/>
<polygon fill="midnightblue" stroke="midnightblue" points="684.54,-348.5 674.54,-352 684.54,-355.5 684.54,-348.5"/>
</g>
<!-- Node5 -->
<g id="node5" class="node">
<title>Node5</title>
<g id="a_node5"><a xlink:href="classAppMps.html" target="_top" xlink:title=" ">
<polygon fill="white" stroke="black" points="749.5,-266.5 749.5,-285.5 805.5,-285.5 805.5,-266.5 749.5,-266.5"/>
<text text-anchor="middle" x="777.5" y="-273.5" font-family="Helvetica,sans-Serif" font-size="10.00">AppMps</text>
</a>
</g>
</g>
<!-- Node5&#45;&gt;Node1 -->
<g id="edge4" class="edge">
<title>Node5&#45;&gt;Node1</title>
<path fill="none" stroke="midnightblue" d="M815.93,-276C831.47,-276 849.83,-276 866.92,-276"/>
<polygon fill="midnightblue" stroke="midnightblue" points="815.68,-272.5 805.68,-276 815.68,-279.5 815.68,-272.5"/>
</g>
<!-- Node6 -->
<g id="node6" class="node">
<title>Node6</title>
<g id="a_node6"><a xlink:href="classAppMpsClk.html" target="_top" xlink:title=" ">
<polygon fill="white" stroke="black" points="596,-304.5 596,-323.5 667,-323.5 667,-304.5 596,-304.5"/>
<text text-anchor="middle" x="631.5" y="-311.5" font-family="Helvetica,sans-Serif" font-size="10.00">AppMpsClk</text>
</a>
</g>
</g>
<!-- Node6&#45;&gt;Node5 -->
<g id="edge5" class="edge">
<title>Node6&#45;&gt;Node5</title>
<path fill="none" stroke="midnightblue" d="M677.14,-302.22C700.7,-296 728.85,-288.57 749.17,-283.21"/>
<polygon fill="midnightblue" stroke="midnightblue" points="676.13,-298.87 667.36,-304.8 677.92,-305.63 676.13,-298.87"/>
</g>
<!-- Node7 -->
<g id="node7" class="node">
<title>Node7</title>
<g id="a_node7"><a xlink:href="classAppMpsEncoder.html" target="_top" xlink:title=" ">
<polygon fill="white" stroke="black" points="584,-266.5 584,-285.5 679,-285.5 679,-266.5 584,-266.5"/>
<text text-anchor="middle" x="631.5" y="-273.5" font-family="Helvetica,sans-Serif" font-size="10.00">AppMpsEncoder</text>
</a>
</g>
</g>
<!-- Node7&#45;&gt;Node5 -->
<g id="edge6" class="edge">
<title>Node7&#45;&gt;Node5</title>
<path fill="none" stroke="midnightblue" d="M689.51,-276C710.1,-276 732.41,-276 749.28,-276"/>
<polygon fill="midnightblue" stroke="midnightblue" points="689.25,-272.5 679.25,-276 689.25,-279.5 689.25,-272.5"/>
</g>
<!-- Node8 -->
<g id="node8" class="node">
<title>Node8</title>
<g id="a_node8"><a xlink:href="classAppMpsReg.html" target="_top" xlink:title=" ">
<polygon fill="white" stroke="black" points="426,-304.5 426,-323.5 500,-323.5 500,-304.5 426,-304.5"/>
<text text-anchor="middle" x="463" y="-311.5" font-family="Helvetica,sans-Serif" font-size="10.00">AppMpsReg</text>
</a>
</g>
</g>
<!-- Node8&#45;&gt;Node7 -->
<g id="edge7" class="edge">
<title>Node8&#45;&gt;Node7</title>
<path fill="none" stroke="midnightblue" d="M509.99,-303.5C534.68,-297.87 564.88,-290.98 588.87,-285.5"/>
<polygon fill="midnightblue" stroke="midnightblue" points="509.1,-300.12 500.13,-305.75 510.66,-306.94 509.1,-300.12"/>
</g>
<!-- Node9 -->
<g id="node9" class="node">
<title>Node9</title>
<g id="a_node9"><a xlink:href="classAppMpsRegBase.html" target="_top" xlink:title=" ">
<polygon fill="white" stroke="black" points="249,-323.5 249,-342.5 347,-342.5 347,-323.5 249,-323.5"/>
<text text-anchor="middle" x="298" y="-330.5" font-family="Helvetica,sans-Serif" font-size="10.00">AppMpsRegBase</text>
</a>
</g>
</g>
<!-- Node9&#45;&gt;Node8 -->
<g id="edge8" class="edge">
<title>Node9&#45;&gt;Node8</title>
<path fill="none" stroke="midnightblue" d="M357.03,-326.24C380.02,-323.56 405.73,-320.56 425.96,-318.2"/>
<polygon fill="midnightblue" stroke="midnightblue" points="356.55,-322.77 347.02,-327.4 357.36,-329.72 356.55,-322.77"/>
</g>
<!-- Node10 -->
<g id="node10" class="node">
<title>Node10</title>
<g id="a_node10"><a xlink:href="classAppMpsRegAppCh.html" target="_top" xlink:title=" ">
<polygon fill="white" stroke="black" points="245,-285.5 245,-304.5 351,-304.5 351,-285.5 245,-285.5"/>
<text text-anchor="middle" x="298" y="-292.5" font-family="Helvetica,sans-Serif" font-size="10.00">AppMpsRegAppCh</text>
</a>
</g>
</g>
<!-- Node10&#45;&gt;Node8 -->
<g id="edge9" class="edge">
<title>Node10&#45;&gt;Node8</title>
<path fill="none" stroke="midnightblue" d="M361.24,-302.25C383.1,-304.8 406.93,-307.58 425.92,-309.79"/>
<polygon fill="midnightblue" stroke="midnightblue" points="361.36,-298.75 351.02,-301.06 360.55,-305.7 361.36,-298.75"/>
</g>
<!-- Node11 -->
<g id="node11" class="node">
<title>Node11</title>
<g id="a_node11"><a xlink:href="classAppMpsSelect.html" target="_top" xlink:title=" ">
<polygon fill="white" stroke="black" points="420,-266.5 420,-285.5 506,-285.5 506,-266.5 420,-266.5"/>
<text text-anchor="middle" x="463" y="-273.5" font-family="Helvetica,sans-Serif" font-size="10.00">AppMpsSelect</text>
</a>
</g>
</g>
<!-- Node11&#45;&gt;Node7 -->
<g id="edge10" class="edge">
<title>Node11&#45;&gt;Node7</title>
<path fill="none" stroke="midnightblue" d="M516.04,-276C537.73,-276 562.72,-276 583.8,-276"/>
<polygon fill="midnightblue" stroke="midnightblue" points="516.02,-272.5 506.01,-276 516.01,-279.5 516.02,-272.5"/>
</g>
<!-- Node12 -->
<g id="node12" class="node">
<title>Node12</title>
<g id="a_node12"><a xlink:href="classMpsMsgCore.html" target="_top" xlink:title=" ">
<polygon fill="white" stroke="black" points="423,-228.5 423,-247.5 503,-247.5 503,-228.5 423,-228.5"/>
<text text-anchor="middle" x="463" y="-235.5" font-family="Helvetica,sans-Serif" font-size="10.00">MpsMsgCore</text>
</a>
</g>
</g>
<!-- Node12&#45;&gt;Node7 -->
<g id="edge11" class="edge">
<title>Node12&#45;&gt;Node7</title>
<path fill="none" stroke="midnightblue" d="M513.04,-249.19C537.11,-254.69 565.8,-261.23 588.8,-266.48"/>
<polygon fill="midnightblue" stroke="midnightblue" points="513.56,-245.72 503.04,-246.91 512.01,-252.55 513.56,-245.72"/>
</g>
<!-- Node13 -->
<g id="node13" class="node">
<title>Node13</title>
<g id="a_node13"><a xlink:href="classAppMpsSalt.html" target="_top" xlink:title=" ">
<polygon fill="white" stroke="black" points="594.5,-228.5 594.5,-247.5 668.5,-247.5 668.5,-228.5 594.5,-228.5"/>
<text text-anchor="middle" x="631.5" y="-235.5" font-family="Helvetica,sans-Serif" font-size="10.00">AppMpsSalt</text>
</a>
</g>
</g>
<!-- Node13&#45;&gt;Node5 -->
<g id="edge12" class="edge">
<title>Node13&#45;&gt;Node5</title>
<path fill="none" stroke="midnightblue" d="M678.54,-250.15C701.84,-256.3 729.35,-263.56 749.27,-268.81"/>
<polygon fill="midnightblue" stroke="midnightblue" points="679.4,-246.76 668.84,-247.59 677.61,-253.52 679.4,-246.76"/>
</g>
<!-- Node14 -->
<g id="node14" class="node">
<title>Node14</title>
<g id="a_node14"><a xlink:href="classAmcCarrierFsbl.html" target="_top" xlink:title=" ">
<polygon fill="white" stroke="black" points="731.5,-133.5 731.5,-152.5 823.5,-152.5 823.5,-133.5 731.5,-133.5"/>
<text text-anchor="middle" x="777.5" y="-140.5" font-family="Helvetica,sans-Serif" font-size="10.00">AmcCarrierFsbl</text>
</a>
</g>
</g>
<!-- Node14&#45;&gt;Node1 -->
<g id="edge13" class="edge">
<title>Node14&#45;&gt;Node1</title>
<path fill="none" stroke="midnightblue" d="M796.25,-159.34C826.62,-187.29 887.66,-243.48 912.31,-266.16"/>
<polygon fill="midnightblue" stroke="midnightblue" points="798.62,-156.76 788.89,-152.57 793.88,-161.91 798.62,-156.76"/>
</g>
<!-- Node15 -->
<g id="node15" class="node">
<title>Node15</title>
<g id="a_node15"><a xlink:href="classAmcCarrierIbufGt.html" target="_top" xlink:title=" ">
<polygon fill="white" stroke="black" points="412.5,-190.5 412.5,-209.5 513.5,-209.5 513.5,-190.5 412.5,-190.5"/>
<text text-anchor="middle" x="463" y="-197.5" font-family="Helvetica,sans-Serif" font-size="10.00">AmcCarrierIbufGt</text>
</a>
</g>
</g>
<!-- Node15&#45;&gt;Node14 -->
<g id="edge14" class="edge">
<title>Node15&#45;&gt;Node14</title>
<path fill="none" stroke="midnightblue" d="M523.71,-200.11C569.33,-198.95 633.44,-194.65 688,-181 713.63,-174.59 741.33,-161.62 758.79,-152.62"/>
<polygon fill="midnightblue" stroke="midnightblue" points="523.61,-196.61 513.68,-200.32 523.76,-203.6 523.61,-196.61"/>
</g>
<!-- Node17 -->
<g id="node17" class="node">
<title>Node17</title>
<g id="a_node17"><a xlink:href="classAmcCarrierTiming.html" target="_top" xlink:title=" ">
<polygon fill="white" stroke="black" points="579,-152.5 579,-171.5 684,-171.5 684,-152.5 579,-152.5"/>
<text text-anchor="middle" x="631.5" y="-159.5" font-family="Helvetica,sans-Serif" font-size="10.00">AmcCarrierTiming</text>
</a>
</g>
</g>
<!-- Node15&#45;&gt;Node17 -->
<g id="edge17" class="edge">
<title>Node15&#45;&gt;Node17</title>
<path fill="none" stroke="midnightblue" d="M515.81,-188.18C539.28,-182.82 566.67,-176.57 588.79,-171.52"/>
<polygon fill="midnightblue" stroke="midnightblue" points="514.99,-184.77 506.01,-190.41 516.54,-191.6 514.99,-184.77"/>
</g>
<!-- Node16 -->
<g id="node16" class="node">
<title>Node16</title>
<g id="a_node16"><a xlink:href="classAmcCarrierEthFsbl.html" target="_top" xlink:title=" ">
<polygon fill="white" stroke="black" points="578,-114.5 578,-133.5 685,-133.5 685,-114.5 578,-114.5"/>
<text text-anchor="middle" x="631.5" y="-121.5" font-family="Helvetica,sans-Serif" font-size="10.00">AmcCarrierEthFsbl</text>
</a>
</g>
</g>
<!-- Node16&#45;&gt;Node14 -->
<g id="edge15" class="edge">
<title>Node16&#45;&gt;Node14</title>
<path fill="none" stroke="midnightblue" d="M695.35,-132.29C707.44,-133.89 719.89,-135.53 731.29,-137.03"/>
<polygon fill="midnightblue" stroke="midnightblue" points="695.67,-128.81 685.3,-130.97 694.76,-135.75 695.67,-128.81"/>
</g>
<!-- Node17&#45;&gt;Node14 -->
<g id="edge16" class="edge">
<title>Node17&#45;&gt;Node14</title>
<path fill="none" stroke="midnightblue" d="M694.04,-153.88C706.61,-152.22 719.62,-150.51 731.48,-148.94"/>
<polygon fill="midnightblue" stroke="midnightblue" points="693.54,-150.42 684.08,-155.19 694.45,-157.36 693.54,-150.42"/>
</g>
<!-- Node18 -->
<g id="node18" class="node">
<title>Node18</title>
<g id="a_node18"><a xlink:href="classAmcCarrierBsa.html" target="_top" xlink:title=" ">
<polygon fill="white" stroke="black" points="587,-76.5 587,-95.5 676,-95.5 676,-76.5 587,-76.5"/>
<text text-anchor="middle" x="631.5" y="-83.5" font-family="Helvetica,sans-Serif" font-size="10.00">AmcCarrierBsa</text>
</a>
</g>
</g>
<!-- Node18&#45;&gt;Node14 -->
<g id="edge18" class="edge">
<title>Node18&#45;&gt;Node14</title>
<path fill="none" stroke="midnightblue" d="M671.56,-98.96C677.1,-100.92 682.71,-102.96 688,-105 711.41,-114.02 737.77,-125.51 755.58,-133.49"/>
<polygon fill="midnightblue" stroke="midnightblue" points="672.34,-95.52 661.74,-95.55 670.04,-102.13 672.34,-95.52"/>
</g>
<!-- Node19 -->
<g id="node19" class="node">
<title>Node19</title>
<g id="a_node19"><a xlink:href="classBsaWaveformEngine.html" target="_top" xlink:title=" ">
<polygon fill="white" stroke="black" points="397.5,-152.5 397.5,-171.5 528.5,-171.5 528.5,-152.5 397.5,-152.5"/>
<text text-anchor="middle" x="463" y="-159.5" font-family="Helvetica,sans-Serif" font-size="10.00">BsaWaveformEngine(2)</text>
</a>
</g>
</g>
<!-- Node19&#45;&gt;Node18 -->
<g id="edge19" class="edge">
<title>Node19&#45;&gt;Node18</title>
<path fill="none" stroke="midnightblue" d="M527.24,-148.82C531.32,-147.11 535.28,-145.18 539,-143 559.07,-131.23 555.43,-117.58 575,-105 580.91,-101.2 587.67,-98.07 594.39,-95.52"/>
<polygon fill="midnightblue" stroke="midnightblue" points="525.68,-145.66 517.53,-152.43 528.12,-152.22 525.68,-145.66"/>
</g>
<!-- Node20 -->
<g id="node20" class="node">
<title>Node20</title>
<g id="a_node20"><a xlink:href="classBsaBufferControl.html" target="_top" xlink:title=" ">
<polygon fill="white" stroke="black" points="413.5,-114.5 413.5,-133.5 512.5,-133.5 512.5,-114.5 413.5,-114.5"/>
<text text-anchor="middle" x="463" y="-121.5" font-family="Helvetica,sans-Serif" font-size="10.00">BsaBufferControl</text>
</a>
</g>
</g>
<!-- Node20&#45;&gt;Node18 -->
<g id="edge20" class="edge">
<title>Node20&#45;&gt;Node18</title>
<path fill="none" stroke="midnightblue" d="M515.81,-112.18C539.28,-106.82 566.67,-100.57 588.79,-95.52"/>
<polygon fill="midnightblue" stroke="midnightblue" points="514.99,-108.77 506.01,-114.41 516.54,-115.6 514.99,-108.77"/>
</g>
<!-- Node21 -->
<g id="node21" class="node">
<title>Node21</title>
<g id="a_node21"><a xlink:href="classBsaAccumulator.html" target="_top" xlink:title=" ">
<polygon fill="white" stroke="black" points="250,-114.5 250,-133.5 346,-133.5 346,-114.5 250,-114.5"/>
<text text-anchor="middle" x="298" y="-121.5" font-family="Helvetica,sans-Serif" font-size="10.00">BsaAccumulator</text>
</a>
</g>
</g>
<!-- Node21&#45;&gt;Node20 -->
<g id="edge21" class="edge">
<title>Node21&#45;&gt;Node20</title>
<path fill="none" stroke="midnightblue" d="M356.27,-124C374.87,-124 395.33,-124 413.26,-124"/>
<polygon fill="midnightblue" stroke="midnightblue" points="356.15,-120.5 346.15,-124 356.15,-127.5 356.15,-120.5"/>
</g>
<!-- Node22 -->
<g id="node22" class="node">
<title>Node22</title>
<g id="a_node22"><a xlink:href="classBsssWrapper.html" target="_top" xlink:title=" ">
<polygon fill="white" stroke="black" points="423,-76.5 423,-95.5 503,-95.5 503,-76.5 423,-76.5"/>
<text text-anchor="middle" x="463" y="-83.5" font-family="Helvetica,sans-Serif" font-size="10.00">BsssWrapper</text>
</a>
</g>
</g>
<!-- Node22&#45;&gt;Node18 -->
<g id="edge22" class="edge">
<title>Node22&#45;&gt;Node18</title>
<path fill="none" stroke="midnightblue" d="M513.08,-86C536.43,-86 564.1,-86 586.72,-86"/>
<polygon fill="midnightblue" stroke="midnightblue" points="513.04,-82.5 503.04,-86 513.04,-89.5 513.04,-82.5"/>
</g>
<!-- Node23 -->
<g id="node23" class="node">
<title>Node23</title>
<g id="a_node23"><a xlink:href="classBldAxiStream.html" target="_top" xlink:title=" ">
<polygon fill="white" stroke="black" points="256.5,-57.5 256.5,-76.5 339.5,-76.5 339.5,-57.5 256.5,-57.5"/>
<text text-anchor="middle" x="298" y="-64.5" font-family="Helvetica,sans-Serif" font-size="10.00">BldAxiStream</text>
</a>
</g>
</g>
<!-- Node23&#45;&gt;Node22 -->
<g id="edge23" class="edge">
<title>Node23&#45;&gt;Node22</title>
<path fill="none" stroke="midnightblue" d="M349.88,-72.93C373.46,-75.68 401.03,-78.89 422.93,-81.45"/>
<polygon fill="midnightblue" stroke="midnightblue" points="350.05,-69.43 339.71,-71.75 349.24,-76.38 350.05,-69.43"/>
</g>
<!-- Node27 -->
<g id="node27" class="node">
<title>Node27</title>
<g id="a_node27"><a xlink:href="classBldWrapper.html" target="_top" xlink:title=" ">
<polygon fill="white" stroke="black" points="426,-38.5 426,-57.5 500,-57.5 500,-38.5 426,-38.5"/>
<text text-anchor="middle" x="463" y="-45.5" font-family="Helvetica,sans-Serif" font-size="10.00">BldWrapper</text>
</a>
</g>
</g>
<!-- Node23&#45;&gt;Node27 -->
<g id="edge28" class="edge">
<title>Node23&#45;&gt;Node27</title>
<path fill="none" stroke="midnightblue" d="M349.65,-61.1C374.37,-58.21 403.54,-54.81 425.96,-52.2"/>
<polygon fill="midnightblue" stroke="midnightblue" points="349.24,-57.62 339.71,-62.25 350.05,-64.57 349.24,-57.62"/>
</g>
<!-- Node24 -->
<g id="node24" class="node">
<title>Node24</title>
<g id="a_node24"><a xlink:href="classBldEventSelect.html" target="_top" xlink:title=" ">
<polygon fill="white" stroke="black" points="119,-57.5 119,-76.5 209,-76.5 209,-57.5 119,-57.5"/>
<text text-anchor="middle" x="164" y="-64.5" font-family="Helvetica,sans-Serif" font-size="10.00">BldEventSelect</text>
</a>
</g>
</g>
<!-- Node24&#45;&gt;Node23 -->
<g id="edge24" class="edge">
<title>Node24&#45;&gt;Node23</title>
<path fill="none" stroke="midnightblue" d="M219.46,-67C231.72,-67 244.54,-67 256.13,-67"/>
<polygon fill="midnightblue" stroke="midnightblue" points="219.32,-63.5 209.32,-67 219.32,-70.5 219.32,-63.5"/>
</g>
<!-- Node25 -->
<g id="node25" class="node">
<title>Node25</title>
<g id="a_node25"><a xlink:href="classBldEventRAM.html" target="_top" xlink:title=" ">
<polygon fill="white" stroke="black" points="0,-57.5 0,-76.5 83,-76.5 83,-57.5 0,-57.5"/>
<text text-anchor="middle" x="41.5" y="-64.5" font-family="Helvetica,sans-Serif" font-size="10.00">BldEventRAM</text>
</a>
</g>
</g>
<!-- Node25&#45;&gt;Node24 -->
<g id="edge25" class="edge">
<title>Node25&#45;&gt;Node24</title>
<path fill="none" stroke="midnightblue" d="M93.46,-67C101.93,-67 110.66,-67 118.94,-67"/>
<polygon fill="midnightblue" stroke="midnightblue" points="93.3,-63.5 83.3,-67 93.3,-70.5 93.3,-63.5"/>
</g>
<!-- Node26 -->
<g id="node26" class="node">
<title>Node26</title>
<g id="a_node26"><a xlink:href="classBsaAxiInterconnectWrapper.html" target="_top" xlink:title=" ">
<polygon fill="white" stroke="black" points="387,-0.5 387,-19.5 539,-19.5 539,-0.5 387,-0.5"/>
<text text-anchor="middle" x="463" y="-7.5" font-family="Helvetica,sans-Serif" font-size="10.00">BsaAxiInterconnectWrapper</text>
</a>
</g>
</g>
<!-- Node26&#45;&gt;Node18 -->
<g id="edge26" class="edge">
<title>Node26&#45;&gt;Node18</title>
<path fill="none" stroke="midnightblue" d="M527.24,-23.18C531.32,-24.89 535.28,-26.82 539,-29 559.07,-40.77 555.43,-54.42 575,-67 580.91,-70.8 587.67,-73.93 594.39,-76.48"/>
<polygon fill="midnightblue" stroke="midnightblue" points="528.12,-19.78 517.53,-19.57 525.68,-26.34 528.12,-19.78"/>
</g>
<!-- Node27&#45;&gt;Node18 -->
<g id="edge27" class="edge">
<title>Node27&#45;&gt;Node18</title>
<path fill="none" stroke="midnightblue" d="M509.99,-58.5C534.68,-64.13 564.88,-71.02 588.87,-76.5"/>
<polygon fill="midnightblue" stroke="midnightblue" points="510.66,-55.06 500.13,-56.25 509.1,-61.88 510.66,-55.06"/>
</g>
<!-- Node28 -->
<g id="node28" class="node">
<title>Node28</title>
<g id="a_node28"><a xlink:href="classAmcCarrierDdrMem.html" target="_top" xlink:title=" ">
<polygon fill="white" stroke="black" points="575,-38.5 575,-57.5 688,-57.5 688,-38.5 575,-38.5"/>
<text text-anchor="middle" x="631.5" y="-45.5" font-family="Helvetica,sans-Serif" font-size="10.00">AmcCarrierDdrMem</text>
</a>
</g>
</g>
<!-- Node28&#45;&gt;Node14 -->
<g id="edge29" class="edge">
<title>Node28&#45;&gt;Node14</title>
<path fill="none" stroke="midnightblue" d="M676.5,-61.3C680.48,-63.02 684.37,-64.92 688,-67 720.7,-85.71 752.6,-117.35 767.6,-133.26"/>
<polygon fill="midnightblue" stroke="midnightblue" points="677.73,-58.02 667.14,-57.59 675.15,-64.53 677.73,-58.02"/>
</g>
</g>
</svg>
        <g id="navigator" transform="translate(0 0)" fill="#404254">
                <rect fill="#f2f5e9" fill-opacity="0.5" stroke="#606060" stroke-width=".5" x="0" y="0" width="60" height="60"/>
                <use id="zoomplus" xlink:href="#zoomPlus" x="17" y="9" onmousedown="handleZoom(evt,'in')"/>
                <use id="zoomminus" xlink:href="#zoomMin" x="42" y="9" onmousedown="handleZoom(evt,'out')"/>
                <use id="reset" xlink:href="#resetDef" x="30" y="36" onmousedown="handleReset()"/>
                <g id="arrowUp" xlink:href="#dirArrow" transform="translate(30 24)" onmousedown="handlePan(0,-1)">
                  <use xlink:href="#rim" fill="#404040">
                        <set attributeName="fill" to="#808080" begin="arrowUp.mouseover" end="arrowUp.mouseout"/>
                  </use>
                  <path fill="none" stroke="white" stroke-width="1.5" d="M0,-3.0v7 M-2.5,-0.5L0,-3.0L2.5,-0.5"/>
                </g>
                <g id="arrowRight" xlink:href="#dirArrow" transform="rotate(90) translate(36 -43)" onmousedown="handlePan(1,0)">
                  <use xlink:href="#rim" fill="#404040">
                        <set attributeName="fill" to="#808080" begin="arrowRight.mouseover" end="arrowRight.mouseout"/>
                  </use>
                  <path fill="none" stroke="white" stroke-width="1.5" d="M0,-3.0v7 M-2.5,-0.5L0,-3.0L2.5,-0.5"/>
                </g>
                <g id="arrowDown" xlink:href="#dirArrow" transform="rotate(180) translate(-30 -48)" onmousedown="handlePan(0,1)">
                  <use xlink:href="#rim" fill="#404040">
                        <set attributeName="fill" to="#808080" begin="arrowDown.mouseover" end="arrowDown.mouseout"/>
                  </use>
                  <path fill="none" stroke="white" stroke-width="1.5" d="M0,-3.0v7 M-2.5,-0.5L0,-3.0L2.5,-0.5"/>
                </g>
                <g id="arrowLeft" xlink:href="#dirArrow" transform="rotate(270) translate(-36 17)" onmousedown="handlePan(-1,0)">
                  <use xlink:href="#rim" fill="#404040">
                        <set attributeName="fill" to="#808080" begin="arrowLeft.mouseover" end="arrowLeft.mouseout"/>
                  </use>
                  <path fill="none" stroke="white" stroke-width="1.5" d="M0,-3.0v7 M-2.5,-0.5L0,-3.0L2.5,-0.5"/>
                </g>
        </g>
        <svg viewBox="0 0 15 15" width="100%" height="30px" preserveAspectRatio="xMaxYMin meet">
         <g id="arrow_out" transform="scale(0.3 0.3)">
          <a xlink:href="classAmcCarrierCoreFsbl__coll__graph_org.svg" target="_base">
           <rect id="button" ry="5" rx="5" y="6" x="6" height="38" width="38"
                fill="#f2f5e9" fill-opacity="0.5" stroke="#606060" stroke-width="1.0"/>
           <path id="arrow"
             d="M 11.500037,31.436501 C 11.940474,20.09759 22.043105,11.32322 32.158766,21.979434 L 37.068811,17.246167 C 37.068811,17.246167 37.088388,32 37.088388,32 L 22.160133,31.978069 C 22.160133,31.978069 26.997745,27.140456 26.997745,27.140456 C 18.528582,18.264221 13.291696,25.230495 11.500037,31.436501 z"
             style="fill:#404040;"/>
          </a>
         </g>
        </svg>
</svg>
