<?xml version="1.0" encoding="UTF-8" standalone="no"?>
<!DOCTYPE svg PUBLIC "-//W3C//DTD SVG 1.1//EN"
 "http://www.w3.org/Graphics/SVG/1.1/DTD/svg11.dtd">
<!-- Generated by graphviz version 2.43.0 (0)
 -->
<!-- Title: AmcCarrierCoreFsbl Pages: 1 -->
<!--zoomable 446 -->
<svg id="main" version="1.1" xmlns="http://www.w3.org/2000/svg" xmlns:xlink="http://www.w3.org/1999/xlink" xml:space="preserve" onload="init(evt)">
<style type="text/css"><![CDATA[
.edge:hover path { stroke: red; }
.edge:hover polygon { stroke: red; fill: red; }
]]></style>
<script type="text/javascript"><![CDATA[
var edges = document.getElementsByTagName('g');
if (edges && edges.length) {
  for (var i=0;i<edges.length;i++) {
    if (edges[i].id.substr(0,4)=='edge') {
      edges[i].setAttribute('class','edge');
    }
  }
}
]]></script>
        <defs>
                <circle id="rim" cx="0" cy="0" r="7"/>
                <circle id="rim2" cx="0" cy="0" r="3.5"/>
                <g id="zoomPlus">
                        <use xlink:href="#rim" fill="#404040">
                                <set attributeName="fill" to="#808080" begin="zoomplus.mouseover" end="zoomplus.mouseout"/>
                        </use>
                        <path d="M-4,0h8M0,-4v8" fill="none" stroke="white" stroke-width="1.5" pointer-events="none"/>
                </g>
                <g id="zoomMin">
                        <use xlink:href="#rim" fill="#404040">
                                <set attributeName="fill" to="#808080" begin="zoomminus.mouseover" end="zoomminus.mouseout"/>
                        </use>
                        <path d="M-4,0h8" fill="none" stroke="white" stroke-width="1.5" pointer-events="none"/>
                </g>
                <g id="dirArrow">
                        <path fill="none" stroke="white" stroke-width="1.5" d="M0,-3.0v7 M-2.5,-0.5L0,-3.0L2.5,-0.5"/>
                </g>
               <g id="resetDef">
                       <use xlink:href="#rim2" fill="#404040">
                               <set attributeName="fill" to="#808080" begin="reset.mouseover" end="reset.mouseout"/>
                       </use>
               </g>
        </defs>

<script type="text/javascript">
var viewWidth = 1000;
var viewHeight = 446;
var sectionId = 'dynsection-1';
</script>
<script xlink:href="svgpan.js"/>
<svg id="graph" class="graph">
<g id="viewport">
<title>AmcCarrierCoreFsbl</title>
<polygon fill="white" stroke="transparent" points="-4,4 -4,-442 996,-442 996,4 -4,4"/>
<!-- Node1 -->
<g id="node1" class="node">
<title>Node1</title>
<g id="a_node1"><a xlink:title=" ">
<polygon fill="#bfbfbf" stroke="black" points="878,-304.5 878,-323.5 992,-323.5 992,-304.5 878,-304.5"/>
<text text-anchor="middle" x="935" y="-311.5" font-family="Helvetica,sans-Serif" font-size="10.00">AmcCarrierCoreFsbl</text>
</a>
</g>
</g>
<!-- Node2 -->
<g id="node2" class="node">
<title>Node2</title>
<g id="a_node2"><a xlink:href="classAmcCarrierSysReg.html" target="_top" xlink:title=" ">
<polygon fill="white" stroke="black" points="735,-380.5 735,-399.5 842,-399.5 842,-380.5 735,-380.5"/>
<text text-anchor="middle" x="788.5" y="-387.5" font-family="Helvetica,sans-Serif" font-size="10.00">AmcCarrierSysReg</text>
</a>
</g>
</g>
<!-- Node2&#45;&gt;Node1 -->
<g id="edge1" class="edge">
<title>Node2&#45;&gt;Node1</title>
<path fill="none" stroke="midnightblue" d="M816.98,-375.54C846.01,-360.28 890.95,-336.64 915.85,-323.55"/>
<polygon fill="midnightblue" stroke="midnightblue" points="815.02,-372.62 807.8,-380.37 818.28,-378.82 815.02,-372.62"/>
</g>
<!-- Node3 -->
<g id="node3" class="node">
<title>Node3</title>
<g id="a_node3"><a xlink:href="classAmcCarrierSysMon.html" target="_top" xlink:title=" ">
<polygon fill="white" stroke="black" points="587.5,-418.5 587.5,-437.5 697.5,-437.5 697.5,-418.5 587.5,-418.5"/>
<text text-anchor="middle" x="642.5" y="-425.5" font-family="Helvetica,sans-Serif" font-size="10.00">AmcCarrierSysMon</text>
</a>
</g>
</g>
<!-- Node3&#45;&gt;Node2 -->
<g id="edge2" class="edge">
<title>Node3&#45;&gt;Node2</title>
<path fill="none" stroke="midnightblue" d="M689.67,-415.82C709.66,-410.54 732.72,-404.46 751.42,-399.52"/>
<polygon fill="midnightblue" stroke="midnightblue" points="688.61,-412.48 679.84,-418.41 690.4,-419.24 688.61,-412.48"/>
</g>
<!-- Node4 -->
<g id="node4" class="node">
<title>Node4</title>
<g id="a_node4"><a xlink:href="classAmcCarrierBsi.html" target="_top" xlink:title=" ">
<polygon fill="white" stroke="black" points="599.5,-380.5 599.5,-399.5 685.5,-399.5 685.5,-380.5 599.5,-380.5"/>
<text text-anchor="middle" x="642.5" y="-387.5" font-family="Helvetica,sans-Serif" font-size="10.00">AmcCarrierBsi</text>
</a>
</g>
</g>
<!-- Node4&#45;&gt;Node2 -->
<g id="edge3" class="edge">
<title>Node4&#45;&gt;Node2</title>
<path fill="none" stroke="midnightblue" d="M695.57,-390C708.37,-390 722.09,-390 734.91,-390"/>
<polygon fill="midnightblue" stroke="midnightblue" points="695.54,-386.5 685.54,-390 695.54,-393.5 695.54,-386.5"/>
</g>
<!-- Node5 -->
<g id="node5" class="node">
<title>Node5</title>
<g id="a_node5"><a xlink:href="classAppMps.html" target="_top" xlink:title=" ">
<polygon fill="white" stroke="black" points="760.5,-304.5 760.5,-323.5 816.5,-323.5 816.5,-304.5 760.5,-304.5"/>
<text text-anchor="middle" x="788.5" y="-311.5" font-family="Helvetica,sans-Serif" font-size="10.00">AppMps</text>
</a>
</g>
</g>
<!-- Node5&#45;&gt;Node1 -->
<g id="edge4" class="edge">
<title>Node5&#45;&gt;Node1</title>
<path fill="none" stroke="midnightblue" d="M826.93,-314C842.47,-314 860.83,-314 877.92,-314"/>
<polygon fill="midnightblue" stroke="midnightblue" points="826.68,-310.5 816.68,-314 826.68,-317.5 826.68,-310.5"/>
</g>
<!-- Node6 -->
<g id="node6" class="node">
<title>Node6</title>
<g id="a_node6"><a xlink:href="classAppMpsClk.html" target="_top" xlink:title=" ">
<polygon fill="white" stroke="black" points="607,-342.5 607,-361.5 678,-361.5 678,-342.5 607,-342.5"/>
<text text-anchor="middle" x="642.5" y="-349.5" font-family="Helvetica,sans-Serif" font-size="10.00">AppMpsClk</text>
</a>
</g>
</g>
<!-- Node6&#45;&gt;Node5 -->
<g id="edge5" class="edge">
<title>Node6&#45;&gt;Node5</title>
<path fill="none" stroke="midnightblue" d="M688.14,-340.22C711.7,-334 739.85,-326.57 760.17,-321.21"/>
<polygon fill="midnightblue" stroke="midnightblue" points="687.13,-336.87 678.36,-342.8 688.92,-343.63 687.13,-336.87"/>
</g>
<!-- Node7 -->
<g id="node7" class="node">
<title>Node7</title>
<g id="a_node7"><a xlink:href="classAppMpsEncoder.html" target="_top" xlink:title=" ">
<polygon fill="white" stroke="black" points="595,-304.5 595,-323.5 690,-323.5 690,-304.5 595,-304.5"/>
<text text-anchor="middle" x="642.5" y="-311.5" font-family="Helvetica,sans-Serif" font-size="10.00">AppMpsEncoder</text>
</a>
</g>
</g>
<!-- Node7&#45;&gt;Node5 -->
<g id="edge6" class="edge">
<title>Node7&#45;&gt;Node5</title>
<path fill="none" stroke="midnightblue" d="M700.51,-314C721.1,-314 743.41,-314 760.28,-314"/>
<polygon fill="midnightblue" stroke="midnightblue" points="700.25,-310.5 690.25,-314 700.25,-317.5 700.25,-310.5"/>
</g>
<!-- Node8 -->
<g id="node8" class="node">
<title>Node8</title>
<g id="a_node8"><a xlink:href="classAppMpsReg.html" target="_top" xlink:title=" ">
<polygon fill="white" stroke="black" points="437,-342.5 437,-361.5 511,-361.5 511,-342.5 437,-342.5"/>
<text text-anchor="middle" x="474" y="-349.5" font-family="Helvetica,sans-Serif" font-size="10.00">AppMpsReg</text>
</a>
</g>
</g>
<!-- Node8&#45;&gt;Node7 -->
<g id="edge7" class="edge">
<title>Node8&#45;&gt;Node7</title>
<path fill="none" stroke="midnightblue" d="M520.99,-341.5C545.68,-335.87 575.88,-328.98 599.87,-323.5"/>
<polygon fill="midnightblue" stroke="midnightblue" points="520.1,-338.12 511.13,-343.75 521.66,-344.94 520.1,-338.12"/>
</g>
<!-- Node9 -->
<g id="node9" class="node">
<title>Node9</title>
<g id="a_node9"><a xlink:href="classAppMpsRegBase.html" target="_top" xlink:title=" ">
<polygon fill="white" stroke="black" points="260,-361.5 260,-380.5 358,-380.5 358,-361.5 260,-361.5"/>
<text text-anchor="middle" x="309" y="-368.5" font-family="Helvetica,sans-Serif" font-size="10.00">AppMpsRegBase</text>
</a>
</g>
</g>
<!-- Node9&#45;&gt;Node8 -->
<g id="edge8" class="edge">
<title>Node9&#45;&gt;Node8</title>
<path fill="none" stroke="midnightblue" d="M368.03,-364.24C391.02,-361.56 416.73,-358.56 436.96,-356.2"/>
<polygon fill="midnightblue" stroke="midnightblue" points="367.55,-360.77 358.02,-365.4 368.36,-367.72 367.55,-360.77"/>
</g>
<!-- Node10 -->
<g id="node10" class="node">
<title>Node10</title>
<g id="a_node10"><a xlink:href="classAppMpsRegAppCh.html" target="_top" xlink:title=" ">
<polygon fill="white" stroke="black" points="256,-323.5 256,-342.5 362,-342.5 362,-323.5 256,-323.5"/>
<text text-anchor="middle" x="309" y="-330.5" font-family="Helvetica,sans-Serif" font-size="10.00">AppMpsRegAppCh</text>
</a>
</g>
</g>
<!-- Node10&#45;&gt;Node8 -->
<g id="edge9" class="edge">
<title>Node10&#45;&gt;Node8</title>
<path fill="none" stroke="midnightblue" d="M372.24,-340.25C394.1,-342.8 417.93,-345.58 436.92,-347.79"/>
<polygon fill="midnightblue" stroke="midnightblue" points="372.36,-336.75 362.02,-339.06 371.55,-343.7 372.36,-336.75"/>
</g>
<!-- Node11 -->
<g id="node11" class="node">
<title>Node11</title>
<g id="a_node11"><a xlink:href="classAppMpsSelect.html" target="_top" xlink:title=" ">
<polygon fill="white" stroke="black" points="431,-304.5 431,-323.5 517,-323.5 517,-304.5 431,-304.5"/>
<text text-anchor="middle" x="474" y="-311.5" font-family="Helvetica,sans-Serif" font-size="10.00">AppMpsSelect</text>
</a>
</g>
</g>
<!-- Node11&#45;&gt;Node7 -->
<g id="edge10" class="edge">
<title>Node11&#45;&gt;Node7</title>
<path fill="none" stroke="midnightblue" d="M527.04,-314C548.73,-314 573.72,-314 594.8,-314"/>
<polygon fill="midnightblue" stroke="midnightblue" points="527.02,-310.5 517.01,-314 527.01,-317.5 527.02,-310.5"/>
</g>
<!-- Node12 -->
<g id="node12" class="node">
<title>Node12</title>
<g id="a_node12"><a xlink:href="classMpsMsgCore.html" target="_top" xlink:title=" ">
<polygon fill="white" stroke="black" points="434,-266.5 434,-285.5 514,-285.5 514,-266.5 434,-266.5"/>
<text text-anchor="middle" x="474" y="-273.5" font-family="Helvetica,sans-Serif" font-size="10.00">MpsMsgCore</text>
</a>
</g>
</g>
<!-- Node12&#45;&gt;Node7 -->
<g id="edge11" class="edge">
<title>Node12&#45;&gt;Node7</title>
<path fill="none" stroke="midnightblue" d="M524.04,-287.19C548.11,-292.69 576.8,-299.23 599.8,-304.48"/>
<polygon fill="midnightblue" stroke="midnightblue" points="524.56,-283.72 514.04,-284.91 523.01,-290.55 524.56,-283.72"/>
</g>
<!-- Node13 -->
<g id="node13" class="node">
<title>Node13</title>
<g id="a_node13"><a xlink:href="classAppMpsSalt.html" target="_top" xlink:title=" ">
<polygon fill="white" stroke="black" points="605.5,-266.5 605.5,-285.5 679.5,-285.5 679.5,-266.5 605.5,-266.5"/>
<text text-anchor="middle" x="642.5" y="-273.5" font-family="Helvetica,sans-Serif" font-size="10.00">AppMpsSalt</text>
</a>
</g>
</g>
<!-- Node13&#45;&gt;Node5 -->
<g id="edge12" class="edge">
<title>Node13&#45;&gt;Node5</title>
<path fill="none" stroke="midnightblue" d="M689.54,-288.15C712.84,-294.3 740.35,-301.56 760.27,-306.81"/>
<polygon fill="midnightblue" stroke="midnightblue" points="690.4,-284.76 679.84,-285.59 688.61,-291.52 690.4,-284.76"/>
</g>
<!-- Node14 -->
<g id="node14" class="node">
<title>Node14</title>
<g id="a_node14"><a xlink:href="classAmcCarrierFsbl.html" target="_top" xlink:title=" ">
<polygon fill="white" stroke="black" points="742.5,-171.5 742.5,-190.5 834.5,-190.5 834.5,-171.5 742.5,-171.5"/>
<text text-anchor="middle" x="788.5" y="-178.5" font-family="Helvetica,sans-Serif" font-size="10.00">AmcCarrierFsbl</text>
</a>
</g>
</g>
<!-- Node14&#45;&gt;Node1 -->
<g id="edge13" class="edge">
<title>Node14&#45;&gt;Node1</title>
<path fill="none" stroke="midnightblue" d="M807.25,-197.34C837.62,-225.29 898.66,-281.48 923.31,-304.16"/>
<polygon fill="midnightblue" stroke="midnightblue" points="809.62,-194.76 799.89,-190.57 804.88,-199.91 809.62,-194.76"/>
</g>
<!-- Node15 -->
<g id="node15" class="node">
<title>Node15</title>
<g id="a_node15"><a xlink:href="classAmcCarrierIbufGt.html" target="_top" xlink:title=" ">
<polygon fill="white" stroke="black" points="423.5,-228.5 423.5,-247.5 524.5,-247.5 524.5,-228.5 423.5,-228.5"/>
<text text-anchor="middle" x="474" y="-235.5" font-family="Helvetica,sans-Serif" font-size="10.00">AmcCarrierIbufGt</text>
</a>
</g>
</g>
<!-- Node15&#45;&gt;Node14 -->
<g id="edge14" class="edge">
<title>Node15&#45;&gt;Node14</title>
<path fill="none" stroke="midnightblue" d="M534.71,-238.11C580.33,-236.95 644.44,-232.65 699,-219 724.63,-212.59 752.33,-199.62 769.79,-190.62"/>
<polygon fill="midnightblue" stroke="midnightblue" points="534.61,-234.61 524.68,-238.32 534.76,-241.6 534.61,-234.61"/>
</g>
<!-- Node17 -->
<g id="node17" class="node">
<title>Node17</title>
<g id="a_node17"><a xlink:href="classAmcCarrierTiming.html" target="_top" xlink:title=" ">
<polygon fill="white" stroke="black" points="590,-190.5 590,-209.5 695,-209.5 695,-190.5 590,-190.5"/>
<text text-anchor="middle" x="642.5" y="-197.5" font-family="Helvetica,sans-Serif" font-size="10.00">AmcCarrierTiming</text>
</a>
</g>
</g>
<!-- Node15&#45;&gt;Node17 -->
<g id="edge17" class="edge">
<title>Node15&#45;&gt;Node17</title>
<path fill="none" stroke="midnightblue" d="M526.81,-226.18C550.28,-220.82 577.67,-214.57 599.79,-209.52"/>
<polygon fill="midnightblue" stroke="midnightblue" points="525.99,-222.77 517.01,-228.41 527.54,-229.6 525.99,-222.77"/>
</g>
<!-- Node16 -->
<g id="node16" class="node">
<title>Node16</title>
<g id="a_node16"><a xlink:href="classAmcCarrierEthFsbl.html" target="_top" xlink:title=" ">
<polygon fill="white" stroke="black" points="589,-152.5 589,-171.5 696,-171.5 696,-152.5 589,-152.5"/>
<text text-anchor="middle" x="642.5" y="-159.5" font-family="Helvetica,sans-Serif" font-size="10.00">AmcCarrierEthFsbl</text>
</a>
</g>
</g>
<!-- Node16&#45;&gt;Node14 -->
<g id="edge15" class="edge">
<title>Node16&#45;&gt;Node14</title>
<path fill="none" stroke="midnightblue" d="M706.35,-170.29C718.44,-171.89 730.89,-173.53 742.29,-175.03"/>
<polygon fill="midnightblue" stroke="midnightblue" points="706.67,-166.81 696.3,-168.97 705.76,-173.75 706.67,-166.81"/>
</g>
<!-- Node17&#45;&gt;Node14 -->
<g id="edge16" class="edge">
<title>Node17&#45;&gt;Node14</title>
<path fill="none" stroke="midnightblue" d="M705.04,-191.88C717.61,-190.22 730.62,-188.51 742.48,-186.94"/>
<polygon fill="midnightblue" stroke="midnightblue" points="704.54,-188.42 695.08,-193.19 705.45,-195.36 704.54,-188.42"/>
</g>
<!-- Node18 -->
<g id="node18" class="node">
<title>Node18</title>
<g id="a_node18"><a xlink:href="classAmcCarrierBsa.html" target="_top" xlink:title=" ">
<polygon fill="white" stroke="black" points="598,-114.5 598,-133.5 687,-133.5 687,-114.5 598,-114.5"/>
<text text-anchor="middle" x="642.5" y="-121.5" font-family="Helvetica,sans-Serif" font-size="10.00">AmcCarrierBsa</text>
</a>
</g>
</g>
<!-- Node18&#45;&gt;Node14 -->
<g id="edge18" class="edge">
<title>Node18&#45;&gt;Node14</title>
<path fill="none" stroke="midnightblue" d="M682.56,-136.96C688.1,-138.92 693.71,-140.96 699,-143 722.41,-152.02 748.77,-163.51 766.58,-171.49"/>
<polygon fill="midnightblue" stroke="midnightblue" points="683.34,-133.52 672.74,-133.55 681.04,-140.13 683.34,-133.52"/>
</g>
<!-- Node19 -->
<g id="node19" class="node">
<title>Node19</title>
<g id="a_node19"><a xlink:href="classBsaWaveformEngine.html" target="_top" xlink:title=" ">
<polygon fill="white" stroke="black" points="408.5,-190.5 408.5,-209.5 539.5,-209.5 539.5,-190.5 408.5,-190.5"/>
<text text-anchor="middle" x="474" y="-197.5" font-family="Helvetica,sans-Serif" font-size="10.00">BsaWaveformEngine(2)</text>
</a>
</g>
</g>
<!-- Node19&#45;&gt;Node18 -->
<g id="edge19" class="edge">
<title>Node19&#45;&gt;Node18</title>
<path fill="none" stroke="midnightblue" d="M538.24,-186.82C542.32,-185.11 546.28,-183.18 550,-181 570.07,-169.23 566.43,-155.58 586,-143 591.91,-139.2 598.67,-136.07 605.39,-133.52"/>
<polygon fill="midnightblue" stroke="midnightblue" points="536.68,-183.66 528.53,-190.43 539.12,-190.22 536.68,-183.66"/>
</g>
<!-- Node20 -->
<g id="node20" class="node">
<title>Node20</title>
<g id="a_node20"><a xlink:href="classBsaBufferControl.html" target="_top" xlink:title=" ">
<polygon fill="white" stroke="black" points="424.5,-152.5 424.5,-171.5 523.5,-171.5 523.5,-152.5 424.5,-152.5"/>
<text text-anchor="middle" x="474" y="-159.5" font-family="Helvetica,sans-Serif" font-size="10.00">BsaBufferControl</text>
</a>
</g>
</g>
<!-- Node20&#45;&gt;Node18 -->
<g id="edge20" class="edge">
<title>Node20&#45;&gt;Node18</title>
<path fill="none" stroke="midnightblue" d="M526.81,-150.18C550.28,-144.82 577.67,-138.57 599.79,-133.52"/>
<polygon fill="midnightblue" stroke="midnightblue" points="525.99,-146.77 517.01,-152.41 527.54,-153.6 525.99,-146.77"/>
</g>
<!-- Node21 -->
<g id="node21" class="node">
<title>Node21</title>
<g id="a_node21"><a xlink:href="classBsaAccumulator.html" target="_top" xlink:title=" ">
<polygon fill="white" stroke="black" points="261,-152.5 261,-171.5 357,-171.5 357,-152.5 261,-152.5"/>
<text text-anchor="middle" x="309" y="-159.5" font-family="Helvetica,sans-Serif" font-size="10.00">BsaAccumulator</text>
</a>
</g>
</g>
<!-- Node21&#45;&gt;Node20 -->
<g id="edge21" class="edge">
<title>Node21&#45;&gt;Node20</title>
<path fill="none" stroke="midnightblue" d="M367.27,-162C385.87,-162 406.33,-162 424.26,-162"/>
<polygon fill="midnightblue" stroke="midnightblue" points="367.15,-158.5 357.15,-162 367.15,-165.5 367.15,-158.5"/>
</g>
<!-- Node22 -->
<g id="node22" class="node">
<title>Node22</title>
<g id="a_node22"><a xlink:href="classBsssWrapper.html" target="_top" xlink:title=" ">
<polygon fill="white" stroke="black" points="427,-114.5 427,-133.5 521,-133.5 521,-114.5 427,-114.5"/>
<text text-anchor="middle" x="474" y="-121.5" font-family="Helvetica,sans-Serif" font-size="10.00">BsssWrapper(2)</text>
</a>
</g>
</g>
<!-- Node22&#45;&gt;Node18 -->
<g id="edge22" class="edge">
<title>Node22&#45;&gt;Node18</title>
<path fill="none" stroke="midnightblue" d="M531.47,-124C553.18,-124 577.62,-124 597.94,-124"/>
<polygon fill="midnightblue" stroke="midnightblue" points="531.38,-120.5 521.38,-124 531.38,-127.5 531.38,-120.5"/>
</g>
<!-- Node23 -->
<g id="node23" class="node">
<title>Node23</title>
<g id="a_node23"><a xlink:href="classBsasWrapper.html" target="_top" xlink:title=" ">
<polygon fill="white" stroke="black" points="433.5,-76.5 433.5,-95.5 514.5,-95.5 514.5,-76.5 433.5,-76.5"/>
<text text-anchor="middle" x="474" y="-83.5" font-family="Helvetica,sans-Serif" font-size="10.00">BsasWrapper</text>
</a>
</g>
</g>
<!-- Node23&#45;&gt;Node18 -->
<g id="edge23" class="edge">
<title>Node23&#45;&gt;Node18</title>
<path fill="none" stroke="midnightblue" d="M524.8,-97.37C548.65,-102.81 576.89,-109.26 599.62,-114.44"/>
<polygon fill="midnightblue" stroke="midnightblue" points="525.41,-93.91 514.88,-95.1 523.85,-100.74 525.41,-93.91"/>
</g>
<!-- Node24 -->
<g id="node24" class="node">
<title>Node24</title>
<g id="a_node24"><a xlink:href="classBsasModule.html" target="_top" xlink:title=" ">
<polygon fill="white" stroke="black" points="271,-76.5 271,-95.5 347,-95.5 347,-76.5 271,-76.5"/>
<text text-anchor="middle" x="309" y="-83.5" font-family="Helvetica,sans-Serif" font-size="10.00">BsasModule</text>
</a>
</g>
</g>
<!-- Node24&#45;&gt;Node23 -->
<g id="edge24" class="edge">
<title>Node24&#45;&gt;Node23</title>
<path fill="none" stroke="midnightblue" d="M357.7,-86C381.69,-86 410.43,-86 433.22,-86"/>
<polygon fill="midnightblue" stroke="midnightblue" points="357.4,-82.5 347.4,-86 357.4,-89.5 357.4,-82.5"/>
</g>
<!-- Node25 -->
<g id="node25" class="node">
<title>Node25</title>
<g id="a_node25"><a xlink:href="classBsasAccumulator.html" target="_top" xlink:title=" ">
<polygon fill="white" stroke="black" points="119,-76.5 119,-95.5 220,-95.5 220,-76.5 119,-76.5"/>
<text text-anchor="middle" x="169.5" y="-83.5" font-family="Helvetica,sans-Serif" font-size="10.00">BsasAccumulator</text>
</a>
</g>
</g>
<!-- Node25&#45;&gt;Node24 -->
<g id="edge25" class="edge">
<title>Node25&#45;&gt;Node24</title>
<path fill="none" stroke="midnightblue" d="M230.53,-86C244.28,-86 258.5,-86 270.95,-86"/>
<polygon fill="midnightblue" stroke="midnightblue" points="230.14,-82.5 220.14,-86 230.14,-89.5 230.14,-82.5"/>
</g>
<!-- Node26 -->
<g id="node26" class="node">
<title>Node26</title>
<g id="a_node26"><a xlink:href="classBsaAxiInterconnectWrapper.html" target="_top" xlink:title=" ">
<polygon fill="white" stroke="black" points="398,-38.5 398,-57.5 550,-57.5 550,-38.5 398,-38.5"/>
<text text-anchor="middle" x="474" y="-45.5" font-family="Helvetica,sans-Serif" font-size="10.00">BsaAxiInterconnectWrapper</text>
</a>
</g>
</g>
<!-- Node26&#45;&gt;Node18 -->
<g id="edge26" class="edge">
<title>Node26&#45;&gt;Node18</title>
<path fill="none" stroke="midnightblue" d="M538.24,-61.18C542.32,-62.89 546.28,-64.82 550,-67 570.07,-78.77 566.43,-92.42 586,-105 591.91,-108.8 598.67,-111.93 605.39,-114.48"/>
<polygon fill="midnightblue" stroke="midnightblue" points="539.12,-57.78 528.53,-57.57 536.68,-64.34 539.12,-57.78"/>
</g>
<!-- Node27 -->
<g id="node27" class="node">
<title>Node27</title>
<g id="a_node27"><a xlink:href="classBldWrapper.html" target="_top" xlink:title=" ">
<polygon fill="white" stroke="black" points="437,-0.5 437,-19.5 511,-19.5 511,-0.5 437,-0.5"/>
<text text-anchor="middle" x="474" y="-7.5" font-family="Helvetica,sans-Serif" font-size="10.00">BldWrapper</text>
</a>
</g>
</g>
<!-- Node27&#45;&gt;Node18 -->
<g id="edge27" class="edge">
<title>Node27&#45;&gt;Node18</title>
<path fill="none" stroke="midnightblue" d="M521,-14.96C531.38,-17.81 541.75,-22.21 550,-29 578.87,-52.74 558.13,-80.1 586,-105 590.33,-108.87 595.48,-111.95 600.88,-114.42"/>
<polygon fill="midnightblue" stroke="midnightblue" points="521.66,-11.52 511.13,-12.68 520.09,-18.34 521.66,-11.52"/>
</g>
<!-- Node28 -->
<g id="node28" class="node">
<title>Node28</title>
<g id="a_node28"><a xlink:href="classBldAxiStream.html" target="_top" xlink:title=" ">
<polygon fill="white" stroke="black" points="267.5,-0.5 267.5,-19.5 350.5,-19.5 350.5,-0.5 267.5,-0.5"/>
<text text-anchor="middle" x="309" y="-7.5" font-family="Helvetica,sans-Serif" font-size="10.00">BldAxiStream</text>
</a>
</g>
</g>
<!-- Node28&#45;&gt;Node27 -->
<g id="edge28" class="edge">
<title>Node28&#45;&gt;Node27</title>
<path fill="none" stroke="midnightblue" d="M360.98,-10C385.63,-10 414.64,-10 436.96,-10"/>
<polygon fill="midnightblue" stroke="midnightblue" points="360.71,-6.5 350.71,-10 360.71,-13.5 360.71,-6.5"/>
</g>
<!-- Node29 -->
<g id="node29" class="node">
<title>Node29</title>
<g id="a_node29"><a xlink:href="classBldEventSelect.html" target="_top" xlink:title=" ">
<polygon fill="white" stroke="black" points="124.5,-0.5 124.5,-19.5 214.5,-19.5 214.5,-0.5 124.5,-0.5"/>
<text text-anchor="middle" x="169.5" y="-7.5" font-family="Helvetica,sans-Serif" font-size="10.00">BldEventSelect</text>
</a>
</g>
</g>
<!-- Node29&#45;&gt;Node28 -->
<g id="edge29" class="edge">
<title>Node29&#45;&gt;Node28</title>
<path fill="none" stroke="midnightblue" d="M224.83,-10C238.9,-10 253.83,-10 267.09,-10"/>
<polygon fill="midnightblue" stroke="midnightblue" points="224.76,-6.5 214.76,-10 224.76,-13.5 224.76,-6.5"/>
</g>
<!-- Node30 -->
<g id="node30" class="node">
<title>Node30</title>
<g id="a_node30"><a xlink:href="classBldEventRAM.html" target="_top" xlink:title=" ">
<polygon fill="white" stroke="black" points="0,-0.5 0,-19.5 83,-19.5 83,-0.5 0,-0.5"/>
<text text-anchor="middle" x="41.5" y="-7.5" font-family="Helvetica,sans-Serif" font-size="10.00">BldEventRAM</text>
</a>
</g>
</g>
<!-- Node30&#45;&gt;Node29 -->
<g id="edge30" class="edge">
<title>Node30&#45;&gt;Node29</title>
<path fill="none" stroke="midnightblue" d="M93.12,-10C103.37,-10 114.07,-10 124.09,-10"/>
<polygon fill="midnightblue" stroke="midnightblue" points="93.06,-6.5 83.06,-10 93.06,-13.5 93.06,-6.5"/>
</g>
<!-- Node31 -->
<g id="node31" class="node">
<title>Node31</title>
<g id="a_node31"><a xlink:href="classAmcCarrierDdrMem.html" target="_top" xlink:title=" ">
<polygon fill="white" stroke="black" points="586,-76.5 586,-95.5 699,-95.5 699,-76.5 586,-76.5"/>
<text text-anchor="middle" x="642.5" y="-83.5" font-family="Helvetica,sans-Serif" font-size="10.00">AmcCarrierDdrMem</text>
</a>
</g>
</g>
<!-- Node31&#45;&gt;Node14 -->
<g id="edge31" class="edge">
<title>Node31&#45;&gt;Node14</title>
<path fill="none" stroke="midnightblue" d="M687.5,-99.3C691.48,-101.02 695.37,-102.92 699,-105 731.7,-123.71 763.6,-155.35 778.6,-171.26"/>
<polygon fill="midnightblue" stroke="midnightblue" points="688.73,-96.02 678.14,-95.59 686.15,-102.53 688.73,-96.02"/>
</g>
</g>
</svg>
        <g id="navigator" transform="translate(0 0)" fill="#404254">
                <rect fill="#f2f5e9" fill-opacity="0.5" stroke="#606060" stroke-width=".5" x="0" y="0" width="60" height="60"/>
                <use id="zoomplus" xlink:href="#zoomPlus" x="17" y="9" onmousedown="handleZoom(evt,'in')"/>
                <use id="zoomminus" xlink:href="#zoomMin" x="42" y="9" onmousedown="handleZoom(evt,'out')"/>
                <use id="reset" xlink:href="#resetDef" x="30" y="36" onmousedown="handleReset()"/>
                <g id="arrowUp" xlink:href="#dirArrow" transform="translate(30 24)" onmousedown="handlePan(0,-1)">
                  <use xlink:href="#rim" fill="#404040">
                        <set attributeName="fill" to="#808080" begin="arrowUp.mouseover" end="arrowUp.mouseout"/>
                  </use>
                  <path fill="none" stroke="white" stroke-width="1.5" d="M0,-3.0v7 M-2.5,-0.5L0,-3.0L2.5,-0.5"/>
                </g>
                <g id="arrowRight" xlink:href="#dirArrow" transform="rotate(90) translate(36 -43)" onmousedown="handlePan(1,0)">
                  <use xlink:href="#rim" fill="#404040">
                        <set attributeName="fill" to="#808080" begin="arrowRight.mouseover" end="arrowRight.mouseout"/>
                  </use>
                  <path fill="none" stroke="white" stroke-width="1.5" d="M0,-3.0v7 M-2.5,-0.5L0,-3.0L2.5,-0.5"/>
                </g>
                <g id="arrowDown" xlink:href="#dirArrow" transform="rotate(180) translate(-30 -48)" onmousedown="handlePan(0,1)">
                  <use xlink:href="#rim" fill="#404040">
                        <set attributeName="fill" to="#808080" begin="arrowDown.mouseover" end="arrowDown.mouseout"/>
                  </use>
                  <path fill="none" stroke="white" stroke-width="1.5" d="M0,-3.0v7 M-2.5,-0.5L0,-3.0L2.5,-0.5"/>
                </g>
                <g id="arrowLeft" xlink:href="#dirArrow" transform="rotate(270) translate(-36 17)" onmousedown="handlePan(-1,0)">
                  <use xlink:href="#rim" fill="#404040">
                        <set attributeName="fill" to="#808080" begin="arrowLeft.mouseover" end="arrowLeft.mouseout"/>
                  </use>
                  <path fill="none" stroke="white" stroke-width="1.5" d="M0,-3.0v7 M-2.5,-0.5L0,-3.0L2.5,-0.5"/>
                </g>
        </g>
        <svg viewBox="0 0 15 15" width="100%" height="30px" preserveAspectRatio="xMaxYMin meet">
         <g id="arrow_out" transform="scale(0.3 0.3)">
          <a xlink:href="classAmcCarrierCoreFsbl__coll__graph_org.svg" target="_base">
           <rect id="button" ry="5" rx="5" y="6" x="6" height="38" width="38"
                fill="#f2f5e9" fill-opacity="0.5" stroke="#606060" stroke-width="1.0"/>
           <path id="arrow"
             d="M 11.500037,31.436501 C 11.940474,20.09759 22.043105,11.32322 32.158766,21.979434 L 37.068811,17.246167 C 37.068811,17.246167 37.088388,32 37.088388,32 L 22.160133,31.978069 C 22.160133,31.978069 26.997745,27.140456 26.997745,27.140456 C 18.528582,18.264221 13.291696,25.230495 11.500037,31.436501 z"
             style="fill:#404040;"/>
          </a>
         </g>
        </svg>
</svg>
