<?xml version="1.0" encoding="UTF-8" standalone="no"?>
<!DOCTYPE svg PUBLIC "-//W3C//DTD SVG 1.1//EN"
 "http://www.w3.org/Graphics/SVG/1.1/DTD/svg11.dtd">
<!-- Generated by graphviz version 2.43.0 (0)
 -->
<!-- Title: BldEventSelect Pages: 1 -->
<svg width="390pt" height="364pt"
 viewBox="0.00 0.00 389.50 364.00" xmlns="http://www.w3.org/2000/svg" xmlns:xlink="http://www.w3.org/1999/xlink">
<g id="graph0" class="graph" transform="scale(1 1) rotate(0) translate(4 360)">
<title>BldEventSelect</title>
<polygon fill="white" stroke="transparent" points="-4,4 -4,-360 385.5,-360 385.5,4 -4,4"/>
<!-- Node1 -->
<g id="node1" class="node">
<title>Node1</title>
<g id="a_node1"><a xlink:title=" ">
<polygon fill="#bfbfbf" stroke="black" points="200.5,-280.5 200.5,-299.5 290.5,-299.5 290.5,-280.5 200.5,-280.5"/>
<text text-anchor="middle" x="245.5" y="-287.5" font-family="Helvetica,sans-Serif" font-size="10.00">BldEventSelect</text>
</a>
</g>
</g>
<!-- Node3 -->
<g id="node3" class="node">
<title>Node3</title>
<g id="a_node3"><a xlink:href="classBldAxiStream.html" target="_top" xlink:title=" ">
<polygon fill="white" stroke="black" points="204,-224.5 204,-243.5 287,-243.5 287,-224.5 204,-224.5"/>
<text text-anchor="middle" x="245.5" y="-231.5" font-family="Helvetica,sans-Serif" font-size="10.00">BldAxiStream</text>
</a>
</g>
</g>
<!-- Node1&#45;&gt;Node3 -->
<g id="edge2" class="edge">
<title>Node1&#45;&gt;Node3</title>
<path fill="none" stroke="midnightblue" d="M245.5,-269.8C245.5,-260.91 245.5,-250.78 245.5,-243.75"/>
<polygon fill="midnightblue" stroke="midnightblue" points="242,-270.08 245.5,-280.08 249,-270.08 242,-270.08"/>
</g>
<!-- Node2 -->
<g id="node2" class="node">
<title>Node2</title>
<g id="a_node2"><a xlink:href="classBldEventRAM.html" target="_top" xlink:title=" ">
<polygon fill="white" stroke="black" points="204,-336.5 204,-355.5 287,-355.5 287,-336.5 204,-336.5"/>
<text text-anchor="middle" x="245.5" y="-343.5" font-family="Helvetica,sans-Serif" font-size="10.00">BldEventRAM</text>
</a>
</g>
</g>
<!-- Node2&#45;&gt;Node1 -->
<g id="edge1" class="edge">
<title>Node2&#45;&gt;Node1</title>
<path fill="none" stroke="midnightblue" d="M245.5,-325.8C245.5,-316.91 245.5,-306.78 245.5,-299.75"/>
<polygon fill="midnightblue" stroke="midnightblue" points="242,-326.08 245.5,-336.08 249,-326.08 242,-326.08"/>
</g>
<!-- Node4 -->
<g id="node4" class="node">
<title>Node4</title>
<g id="a_node4"><a xlink:href="classBldWrapper.html" target="_top" xlink:title=" ">
<polygon fill="white" stroke="black" points="161.5,-168.5 161.5,-187.5 235.5,-187.5 235.5,-168.5 161.5,-168.5"/>
<text text-anchor="middle" x="198.5" y="-175.5" font-family="Helvetica,sans-Serif" font-size="10.00">BldWrapper</text>
</a>
</g>
</g>
<!-- Node3&#45;&gt;Node4 -->
<g id="edge3" class="edge">
<title>Node3&#45;&gt;Node4</title>
<path fill="none" stroke="midnightblue" d="M231.08,-216.43C222.84,-206.97 212.85,-195.48 206.12,-187.75"/>
<polygon fill="midnightblue" stroke="midnightblue" points="228.53,-218.84 237.74,-224.08 233.81,-214.24 228.53,-218.84"/>
</g>
<!-- Node11 -->
<g id="node11" class="node">
<title>Node11</title>
<g id="a_node11"><a xlink:href="classBsssWrapper.html" target="_top" xlink:title=" ">
<polygon fill="white" stroke="black" points="253.5,-168.5 253.5,-187.5 333.5,-187.5 333.5,-168.5 253.5,-168.5"/>
<text text-anchor="middle" x="293.5" y="-175.5" font-family="Helvetica,sans-Serif" font-size="10.00">BsssWrapper</text>
</a>
</g>
</g>
<!-- Node3&#45;&gt;Node11 -->
<g id="edge10" class="edge">
<title>Node3&#45;&gt;Node11</title>
<path fill="none" stroke="midnightblue" d="M260.23,-216.43C268.64,-206.97 278.85,-195.48 285.72,-187.75"/>
<polygon fill="midnightblue" stroke="midnightblue" points="257.45,-214.28 253.43,-224.08 262.69,-218.93 257.45,-214.28"/>
</g>
<!-- Node5 -->
<g id="node5" class="node">
<title>Node5</title>
<g id="a_node5"><a xlink:href="classAmcCarrierBsa.html" target="_top" xlink:title=" ">
<polygon fill="white" stroke="black" points="201,-112.5 201,-131.5 290,-131.5 290,-112.5 201,-112.5"/>
<text text-anchor="middle" x="245.5" y="-119.5" font-family="Helvetica,sans-Serif" font-size="10.00">AmcCarrierBsa</text>
</a>
</g>
</g>
<!-- Node4&#45;&gt;Node5 -->
<g id="edge4" class="edge">
<title>Node4&#45;&gt;Node5</title>
<path fill="none" stroke="midnightblue" d="M212.92,-160.43C221.16,-150.97 231.15,-139.48 237.88,-131.75"/>
<polygon fill="midnightblue" stroke="midnightblue" points="210.19,-158.24 206.26,-168.08 215.47,-162.84 210.19,-158.24"/>
</g>
<!-- Node6 -->
<g id="node6" class="node">
<title>Node6</title>
<g id="a_node6"><a xlink:href="classAmcCarrierCore.html" target="_top" xlink:title=" ">
<polygon fill="white" stroke="black" points="143.5,-56.5 143.5,-75.5 237.5,-75.5 237.5,-56.5 143.5,-56.5"/>
<text text-anchor="middle" x="190.5" y="-63.5" font-family="Helvetica,sans-Serif" font-size="10.00">AmcCarrierCore</text>
</a>
</g>
</g>
<!-- Node5&#45;&gt;Node6 -->
<g id="edge5" class="edge">
<title>Node5&#45;&gt;Node6</title>
<path fill="none" stroke="midnightblue" d="M229.21,-105C219.46,-95.43 207.45,-83.64 199.41,-75.75"/>
<polygon fill="midnightblue" stroke="midnightblue" points="226.83,-107.57 236.42,-112.08 231.73,-102.58 226.83,-107.57"/>
</g>
<!-- Node9 -->
<g id="node9" class="node">
<title>Node9</title>
<g id="a_node9"><a xlink:href="classAmcCarrierFsbl.html" target="_top" xlink:title=" ">
<polygon fill="white" stroke="black" points="266.5,-56.5 266.5,-75.5 358.5,-75.5 358.5,-56.5 266.5,-56.5"/>
<text text-anchor="middle" x="312.5" y="-63.5" font-family="Helvetica,sans-Serif" font-size="10.00">AmcCarrierFsbl</text>
</a>
</g>
</g>
<!-- Node5&#45;&gt;Node9 -->
<g id="edge8" class="edge">
<title>Node5&#45;&gt;Node9</title>
<path fill="none" stroke="midnightblue" d="M264.33,-105.82C276.34,-96.15 291.47,-83.95 301.54,-75.83"/>
<polygon fill="midnightblue" stroke="midnightblue" points="261.85,-103.32 256.26,-112.32 266.25,-108.77 261.85,-103.32"/>
</g>
<!-- Node7 -->
<g id="node7" class="node">
<title>Node7</title>
<g id="a_node7"><a xlink:href="classAmcCarrierCoreAdv.html" target="_top" xlink:title=" ">
<polygon fill="white" stroke="black" points="0,-0.5 0,-19.5 113,-19.5 113,-0.5 0,-0.5"/>
<text text-anchor="middle" x="56.5" y="-7.5" font-family="Helvetica,sans-Serif" font-size="10.00">AmcCarrierCoreAdv</text>
</a>
</g>
</g>
<!-- Node6&#45;&gt;Node7 -->
<g id="edge6" class="edge">
<title>Node6&#45;&gt;Node7</title>
<path fill="none" stroke="midnightblue" d="M159.82,-52.64C134.68,-42.5 99.75,-28.43 77.63,-19.52"/>
<polygon fill="midnightblue" stroke="midnightblue" points="158.68,-55.95 169.27,-56.44 161.3,-49.46 158.68,-55.95"/>
</g>
<!-- Node8 -->
<g id="node8" class="node">
<title>Node8</title>
<g id="a_node8"><a xlink:href="classAmcCarrierCoreBase.html" target="_top" xlink:title=" ">
<polygon fill="white" stroke="black" points="131.5,-0.5 131.5,-19.5 249.5,-19.5 249.5,-0.5 131.5,-0.5"/>
<text text-anchor="middle" x="190.5" y="-7.5" font-family="Helvetica,sans-Serif" font-size="10.00">AmcCarrierCoreBase</text>
</a>
</g>
</g>
<!-- Node6&#45;&gt;Node8 -->
<g id="edge7" class="edge">
<title>Node6&#45;&gt;Node8</title>
<path fill="none" stroke="midnightblue" d="M190.5,-45.8C190.5,-36.91 190.5,-26.78 190.5,-19.75"/>
<polygon fill="midnightblue" stroke="midnightblue" points="187,-46.08 190.5,-56.08 194,-46.08 187,-46.08"/>
</g>
<!-- Node10 -->
<g id="node10" class="node">
<title>Node10</title>
<g id="a_node10"><a xlink:href="classAmcCarrierCoreFsbl.html" target="_top" xlink:title=" ">
<polygon fill="white" stroke="black" points="267.5,-0.5 267.5,-19.5 381.5,-19.5 381.5,-0.5 267.5,-0.5"/>
<text text-anchor="middle" x="324.5" y="-7.5" font-family="Helvetica,sans-Serif" font-size="10.00">AmcCarrierCoreFsbl</text>
</a>
</g>
</g>
<!-- Node9&#45;&gt;Node10 -->
<g id="edge9" class="edge">
<title>Node9&#45;&gt;Node10</title>
<path fill="none" stroke="midnightblue" d="M316.7,-46.1C318.69,-37.14 320.98,-26.86 322.56,-19.75"/>
<polygon fill="midnightblue" stroke="midnightblue" points="313.23,-45.56 314.48,-56.08 320.07,-47.08 313.23,-45.56"/>
</g>
<!-- Node11&#45;&gt;Node5 -->
<g id="edge11" class="edge">
<title>Node11&#45;&gt;Node5</title>
<path fill="none" stroke="midnightblue" d="M278.77,-160.43C270.36,-150.97 260.15,-139.48 253.28,-131.75"/>
<polygon fill="midnightblue" stroke="midnightblue" points="276.31,-162.93 285.57,-168.08 281.55,-158.28 276.31,-162.93"/>
</g>
</g>
</svg>
