<?xml version="1.0" encoding="UTF-8" standalone="no"?>
<!DOCTYPE svg PUBLIC "-//W3C//DTD SVG 1.1//EN"
 "http://www.w3.org/Graphics/SVG/1.1/DTD/svg11.dtd">
<!-- Generated by graphviz version 2.43.0 (0)
 -->
<!-- Title: AppMsgTb Pages: 1 -->
<svg width="160pt" height="82pt"
 viewBox="0.00 0.00 160.00 82.00" xmlns="http://www.w3.org/2000/svg" xmlns:xlink="http://www.w3.org/1999/xlink">
<g id="graph0" class="graph" transform="scale(1 1) rotate(0) translate(4 78)">
<title>AppMsgTb</title>
<!-- Node1 -->
<g id="Node000001" class="node">
<title>Node1</title>
<g id="a_Node000001"><a xlink:title=" ">
<polygon fill="#999999" stroke="#666666" points="110.5,-19 42.5,-19 42.5,0 110.5,0 110.5,-19"/>
<text text-anchor="middle" x="76.5" y="-7" font-family="Helvetica,sans-Serif" font-size="10.00">AppMsgTb</text>
</a>
</g>
</g>
<!-- Node2 -->
<g id="Node000002" class="node">
<title>Node2</title>
<g id="a_Node000002"><a xlink:href="classAppMsgOb.html" target="_top" xlink:title=" ">
<polygon fill="white" stroke="#bfbfbf" points="69,-74 0,-74 0,-55 69,-55 69,-74"/>
<text text-anchor="middle" x="34.5" y="-62" font-family="Helvetica,sans-Serif" font-size="10.00">AppMsgOb</text>
</a>
</g>
</g>
<!-- Node2&#45;&gt;Node1 -->
<g id="edge1_Node000001_Node000002" class="edge">
<title>Node2&#45;&gt;Node1</title>
<g id="a_edge1_Node000001_Node000002"><a xlink:title=" ">
<path fill="none" stroke="#63b8ff" d="M47.83,-46.67C55.11,-37.5 63.8,-26.52 69.69,-19.09"/>
<polygon fill="#63b8ff" stroke="#63b8ff" points="44.9,-44.74 41.44,-54.75 50.39,-49.08 44.9,-44.74"/>
</a>
</g>
</g>
<!-- Node3 -->
<g id="Node000003" class="node">
<title>Node3</title>
<g id="a_Node000003"><a xlink:href="classAppMsgIb.html" target="_top" xlink:title=" ">
<polygon fill="white" stroke="#bfbfbf" points="152,-74 87,-74 87,-55 152,-55 152,-74"/>
<text text-anchor="middle" x="119.5" y="-62" font-family="Helvetica,sans-Serif" font-size="10.00">AppMsgIb</text>
</a>
</g>
</g>
<!-- Node3&#45;&gt;Node1 -->
<g id="edge2_Node000001_Node000003" class="edge">
<title>Node3&#45;&gt;Node1</title>
<g id="a_edge2_Node000001_Node000003"><a xlink:title=" ">
<path fill="none" stroke="#63b8ff" d="M106.08,-46.96C98.59,-37.72 89.56,-26.6 83.47,-19.09"/>
<polygon fill="#63b8ff" stroke="#63b8ff" points="103.38,-49.19 112.4,-54.75 108.82,-44.78 103.38,-49.19"/>
</a>
</g>
</g>
</g>
</svg>
