<?xml version="1.0" encoding="UTF-8" standalone="no"?>
<!DOCTYPE svg PUBLIC "-//W3C//DTD SVG 1.1//EN"
 "http://www.w3.org/Graphics/SVG/1.1/DTD/svg11.dtd">
<!-- Generated by graphviz version 2.43.0 (0)
 -->
<!-- Title: AmcMrLlrfDownConvertCore Pages: 1 -->
<svg width="599pt" height="180pt"
 viewBox="0.00 0.00 599.00 180.00" xmlns="http://www.w3.org/2000/svg" xmlns:xlink="http://www.w3.org/1999/xlink">
<g id="graph0" class="graph" transform="scale(1 1) rotate(0) translate(4 176)">
<title>AmcMrLlrfDownConvertCore</title>
<polygon fill="white" stroke="transparent" points="-4,4 -4,-176 595,-176 595,4 -4,4"/>
<!-- Node1 -->
<g id="node1" class="node">
<title>Node1</title>
<g id="a_node1"><a xlink:title=" ">
<polygon fill="#bfbfbf" stroke="black" points="436,-76.5 436,-95.5 591,-95.5 591,-76.5 436,-76.5"/>
<text text-anchor="middle" x="513.5" y="-83.5" font-family="Helvetica,sans-Serif" font-size="10.00">AmcMrLlrfDownConvertCore</text>
</a>
</g>
</g>
<!-- Node2 -->
<g id="node2" class="node">
<title>Node2</title>
<g id="a_node2"><a xlink:href="classJesdSyncIn.html" target="_top" xlink:title=" ">
<polygon fill="white" stroke="black" points="279,-152.5 279,-171.5 348,-171.5 348,-152.5 279,-152.5"/>
<text text-anchor="middle" x="313.5" y="-159.5" font-family="Helvetica,sans-Serif" font-size="10.00">JesdSyncIn</text>
</a>
</g>
</g>
<!-- Node2&#45;&gt;Node1 -->
<g id="edge1" class="edge">
<title>Node2&#45;&gt;Node1</title>
<path fill="none" stroke="midnightblue" d="M358.4,-154.45C371.94,-151.53 386.77,-147.74 400,-143 436.07,-130.08 475.4,-108.19 496.67,-95.63"/>
<polygon fill="midnightblue" stroke="midnightblue" points="357.44,-151.07 348.34,-156.5 358.84,-157.93 357.44,-151.07"/>
</g>
<!-- Node3 -->
<g id="node3" class="node">
<title>Node3</title>
<g id="a_node3"><a xlink:href="classJesdSyncOut.html" target="_top" xlink:title=" ">
<polygon fill="white" stroke="black" points="268,-114.5 268,-133.5 359,-133.5 359,-114.5 268,-114.5"/>
<text text-anchor="middle" x="313.5" y="-121.5" font-family="Helvetica,sans-Serif" font-size="10.00">JesdSyncOut(3)</text>
</a>
</g>
</g>
<!-- Node3&#45;&gt;Node1 -->
<g id="edge2" class="edge">
<title>Node3&#45;&gt;Node1</title>
<path fill="none" stroke="midnightblue" d="M369.49,-113.45C398.76,-107.83 434.47,-100.98 462.88,-95.52"/>
<polygon fill="midnightblue" stroke="midnightblue" points="368.59,-110.06 359.43,-115.38 369.91,-116.93 368.59,-110.06"/>
</g>
<!-- Node4 -->
<g id="node4" class="node">
<title>Node4</title>
<g id="a_node4"><a xlink:href="classAxiSerAttnMaster.html" target="_top" xlink:title=" ">
<polygon fill="white" stroke="black" points="255.5,-76.5 255.5,-95.5 371.5,-95.5 371.5,-76.5 255.5,-76.5"/>
<text text-anchor="middle" x="313.5" y="-83.5" font-family="Helvetica,sans-Serif" font-size="10.00">AxiSerAttnMaster(2)</text>
</a>
</g>
</g>
<!-- Node4&#45;&gt;Node1 -->
<g id="edge3" class="edge">
<title>Node4&#45;&gt;Node1</title>
<path fill="none" stroke="midnightblue" d="M381.55,-86C398.94,-86 417.8,-86 435.64,-86"/>
<polygon fill="midnightblue" stroke="midnightblue" points="381.5,-82.5 371.5,-86 381.5,-89.5 381.5,-82.5"/>
</g>
<!-- Node5 -->
<g id="node5" class="node">
<title>Node5</title>
<g id="a_node5"><a xlink:href="classAmcMrLlrfDownConvertDacMux.html" target="_top" xlink:title=" ">
<polygon fill="white" stroke="black" points="227,-38.5 227,-57.5 400,-57.5 400,-38.5 227,-38.5"/>
<text text-anchor="middle" x="313.5" y="-45.5" font-family="Helvetica,sans-Serif" font-size="10.00">AmcMrLlrfDownConvertDacMux</text>
</a>
</g>
</g>
<!-- Node5&#45;&gt;Node1 -->
<g id="edge4" class="edge">
<title>Node5&#45;&gt;Node1</title>
<path fill="none" stroke="midnightblue" d="M374.37,-59.49C402.62,-64.91 435.94,-71.31 462.77,-76.46"/>
<polygon fill="midnightblue" stroke="midnightblue" points="374.69,-55.99 364.21,-57.54 373.37,-62.86 374.69,-55.99"/>
</g>
<!-- Node6 -->
<g id="node6" class="node">
<title>Node6</title>
<g id="a_node6"><a xlink:href="classAmcMrLlrfDownConvertDacMuxReg.html" target="_top" xlink:title=" ">
<polygon fill="white" stroke="black" points="0,-38.5 0,-57.5 191,-57.5 191,-38.5 0,-38.5"/>
<text text-anchor="middle" x="95.5" y="-45.5" font-family="Helvetica,sans-Serif" font-size="10.00">AmcMrLlrfDownConvertDacMuxReg</text>
</a>
</g>
</g>
<!-- Node6&#45;&gt;Node5 -->
<g id="edge5" class="edge">
<title>Node6&#45;&gt;Node5</title>
<path fill="none" stroke="midnightblue" d="M201.5,-48C209.94,-48 218.4,-48 226.68,-48"/>
<polygon fill="midnightblue" stroke="midnightblue" points="201.24,-44.5 191.24,-48 201.24,-51.5 201.24,-44.5"/>
</g>
<!-- Node7 -->
<g id="node7" class="node">
<title>Node7</title>
<g id="a_node7"><a xlink:href="classAmcClkFreqReg.html" target="_top" xlink:title=" ">
<polygon fill="white" stroke="black" points="266.5,-0.5 266.5,-19.5 360.5,-19.5 360.5,-0.5 266.5,-0.5"/>
<text text-anchor="middle" x="313.5" y="-7.5" font-family="Helvetica,sans-Serif" font-size="10.00">AmcClkFreqReg</text>
</a>
</g>
</g>
<!-- Node7&#45;&gt;Node1 -->
<g id="edge6" class="edge">
<title>Node7&#45;&gt;Node1</title>
<path fill="none" stroke="midnightblue" d="M370.61,-20.36C380.52,-22.78 390.66,-25.66 400,-29 436.07,-41.92 475.4,-63.81 496.67,-76.37"/>
<polygon fill="midnightblue" stroke="midnightblue" points="371.34,-16.93 360.8,-18.08 369.75,-23.75 371.34,-16.93"/>
</g>
</g>
</svg>
