<?xml version="1.0" encoding="UTF-8" standalone="no"?>
<!DOCTYPE svg PUBLIC "-//W3C//DTD SVG 1.1//EN"
 "http://www.w3.org/Graphics/SVG/1.1/DTD/svg11.dtd">
<!-- Generated by graphviz version 2.43.0 (0)
 -->
<!-- Title: AmcCarrierFsbl Pages: 1 -->
<svg width="975pt" height="256pt"
 viewBox="0.00 0.00 975.00 256.00" xmlns="http://www.w3.org/2000/svg" xmlns:xlink="http://www.w3.org/1999/xlink">
<g id="graph0" class="graph" transform="scale(1 1) rotate(0) translate(4 252)">
<title>AmcCarrierFsbl</title>
<polygon fill="white" stroke="transparent" points="-4,4 -4,-252 971,-252 971,4 -4,4"/>
<!-- Node1 -->
<g id="node1" class="node">
<title>Node1</title>
<g id="a_node1"><a xlink:title=" ">
<polygon fill="#bfbfbf" stroke="black" points="725,-152.5 725,-171.5 817,-171.5 817,-152.5 725,-152.5"/>
<text text-anchor="middle" x="771" y="-159.5" font-family="Helvetica,sans-Serif" font-size="10.00">AmcCarrierFsbl</text>
</a>
</g>
</g>
<!-- Node19 -->
<g id="node19" class="node">
<title>Node19</title>
<g id="a_node19"><a xlink:href="classAmcCarrierCoreFsbl.html" target="_top" xlink:title=" ">
<polygon fill="white" stroke="black" points="853,-152.5 853,-171.5 967,-171.5 967,-152.5 853,-152.5"/>
<text text-anchor="middle" x="910" y="-159.5" font-family="Helvetica,sans-Serif" font-size="10.00">AmcCarrierCoreFsbl</text>
</a>
</g>
</g>
<!-- Node1&#45;&gt;Node19 -->
<g id="edge20" class="edge">
<title>Node1&#45;&gt;Node19</title>
<path fill="none" stroke="midnightblue" d="M827.31,-162C835.72,-162 844.39,-162 852.81,-162"/>
<polygon fill="midnightblue" stroke="midnightblue" points="827.24,-158.5 817.24,-162 827.24,-165.5 827.24,-158.5"/>
</g>
<!-- Node2 -->
<g id="node2" class="node">
<title>Node2</title>
<g id="a_node2"><a xlink:href="classAmcCarrierIbufGt.html" target="_top" xlink:title=" ">
<polygon fill="white" stroke="black" points="413.5,-228.5 413.5,-247.5 514.5,-247.5 514.5,-228.5 413.5,-228.5"/>
<text text-anchor="middle" x="464" y="-235.5" font-family="Helvetica,sans-Serif" font-size="10.00">AmcCarrierIbufGt</text>
</a>
</g>
</g>
<!-- Node2&#45;&gt;Node1 -->
<g id="edge1" class="edge">
<title>Node2&#45;&gt;Node1</title>
<path fill="none" stroke="midnightblue" d="M524.79,-241.29C570.99,-241.87 635.81,-238.35 689,-219 717.76,-208.54 745.69,-185.07 760.03,-171.74"/>
<polygon fill="midnightblue" stroke="midnightblue" points="524.71,-237.79 514.64,-241.1 524.57,-244.79 524.71,-237.79"/>
</g>
<!-- Node4 -->
<g id="node4" class="node">
<title>Node4</title>
<g id="a_node4"><a xlink:href="classAmcCarrierTiming.html" target="_top" xlink:title=" ">
<polygon fill="white" stroke="black" points="580,-190.5 580,-209.5 685,-209.5 685,-190.5 580,-190.5"/>
<text text-anchor="middle" x="632.5" y="-197.5" font-family="Helvetica,sans-Serif" font-size="10.00">AmcCarrierTiming</text>
</a>
</g>
</g>
<!-- Node2&#45;&gt;Node4 -->
<g id="edge4" class="edge">
<title>Node2&#45;&gt;Node4</title>
<path fill="none" stroke="midnightblue" d="M516.81,-226.18C540.28,-220.82 567.67,-214.57 589.79,-209.52"/>
<polygon fill="midnightblue" stroke="midnightblue" points="515.99,-222.77 507.01,-228.41 517.54,-229.6 515.99,-222.77"/>
</g>
<!-- Node3 -->
<g id="node3" class="node">
<title>Node3</title>
<g id="a_node3"><a xlink:href="classAmcCarrierEthFsbl.html" target="_top" xlink:title=" ">
<polygon fill="white" stroke="black" points="579,-152.5 579,-171.5 686,-171.5 686,-152.5 579,-152.5"/>
<text text-anchor="middle" x="632.5" y="-159.5" font-family="Helvetica,sans-Serif" font-size="10.00">AmcCarrierEthFsbl</text>
</a>
</g>
</g>
<!-- Node3&#45;&gt;Node1 -->
<g id="edge2" class="edge">
<title>Node3&#45;&gt;Node1</title>
<path fill="none" stroke="midnightblue" d="M696.56,-162C706.13,-162 715.83,-162 724.91,-162"/>
<polygon fill="midnightblue" stroke="midnightblue" points="696.27,-158.5 686.27,-162 696.27,-165.5 696.27,-158.5"/>
</g>
<!-- Node4&#45;&gt;Node1 -->
<g id="edge3" class="edge">
<title>Node4&#45;&gt;Node1</title>
<path fill="none" stroke="midnightblue" d="M677.75,-187.68C696.5,-182.46 718.03,-176.47 735.57,-171.59"/>
<polygon fill="midnightblue" stroke="midnightblue" points="676.64,-184.36 667.94,-190.41 678.52,-191.1 676.64,-184.36"/>
</g>
<!-- Node5 -->
<g id="node5" class="node">
<title>Node5</title>
<g id="a_node5"><a xlink:href="classAmcCarrierBsa.html" target="_top" xlink:title=" ">
<polygon fill="white" stroke="black" points="588,-114.5 588,-133.5 677,-133.5 677,-114.5 588,-114.5"/>
<text text-anchor="middle" x="632.5" y="-121.5" font-family="Helvetica,sans-Serif" font-size="10.00">AmcCarrierBsa</text>
</a>
</g>
</g>
<!-- Node5&#45;&gt;Node1 -->
<g id="edge5" class="edge">
<title>Node5&#45;&gt;Node1</title>
<path fill="none" stroke="midnightblue" d="M677.75,-136.32C696.5,-141.54 718.03,-147.53 735.57,-152.41"/>
<polygon fill="midnightblue" stroke="midnightblue" points="678.52,-132.9 667.94,-133.59 676.64,-139.64 678.52,-132.9"/>
</g>
<!-- Node6 -->
<g id="node6" class="node">
<title>Node6</title>
<g id="a_node6"><a xlink:href="classBsaWaveformEngine.html" target="_top" xlink:title=" ">
<polygon fill="white" stroke="black" points="398.5,-190.5 398.5,-209.5 529.5,-209.5 529.5,-190.5 398.5,-190.5"/>
<text text-anchor="middle" x="464" y="-197.5" font-family="Helvetica,sans-Serif" font-size="10.00">BsaWaveformEngine(2)</text>
</a>
</g>
</g>
<!-- Node6&#45;&gt;Node5 -->
<g id="edge6" class="edge">
<title>Node6&#45;&gt;Node5</title>
<path fill="none" stroke="midnightblue" d="M528.24,-186.82C532.32,-185.11 536.28,-183.18 540,-181 560.07,-169.23 556.43,-155.58 576,-143 581.91,-139.2 588.67,-136.07 595.39,-133.52"/>
<polygon fill="midnightblue" stroke="midnightblue" points="526.68,-183.66 518.53,-190.43 529.12,-190.22 526.68,-183.66"/>
</g>
<!-- Node7 -->
<g id="node7" class="node">
<title>Node7</title>
<g id="a_node7"><a xlink:href="classBsaBufferControl.html" target="_top" xlink:title=" ">
<polygon fill="white" stroke="black" points="414.5,-152.5 414.5,-171.5 513.5,-171.5 513.5,-152.5 414.5,-152.5"/>
<text text-anchor="middle" x="464" y="-159.5" font-family="Helvetica,sans-Serif" font-size="10.00">BsaBufferControl</text>
</a>
</g>
</g>
<!-- Node7&#45;&gt;Node5 -->
<g id="edge7" class="edge">
<title>Node7&#45;&gt;Node5</title>
<path fill="none" stroke="midnightblue" d="M516.81,-150.18C540.28,-144.82 567.67,-138.57 589.79,-133.52"/>
<polygon fill="midnightblue" stroke="midnightblue" points="515.99,-146.77 507.01,-152.41 517.54,-153.6 515.99,-146.77"/>
</g>
<!-- Node8 -->
<g id="node8" class="node">
<title>Node8</title>
<g id="a_node8"><a xlink:href="classBsaAccumulator.html" target="_top" xlink:title=" ">
<polygon fill="white" stroke="black" points="256,-152.5 256,-171.5 352,-171.5 352,-152.5 256,-152.5"/>
<text text-anchor="middle" x="304" y="-159.5" font-family="Helvetica,sans-Serif" font-size="10.00">BsaAccumulator</text>
</a>
</g>
</g>
<!-- Node8&#45;&gt;Node7 -->
<g id="edge8" class="edge">
<title>Node8&#45;&gt;Node7</title>
<path fill="none" stroke="midnightblue" d="M362.73,-162C379.64,-162 397.96,-162 414.26,-162"/>
<polygon fill="midnightblue" stroke="midnightblue" points="362.41,-158.5 352.41,-162 362.41,-165.5 362.41,-158.5"/>
</g>
<!-- Node9 -->
<g id="node9" class="node">
<title>Node9</title>
<g id="a_node9"><a xlink:href="classBsssWrapper.html" target="_top" xlink:title=" ">
<polygon fill="white" stroke="black" points="424,-114.5 424,-133.5 504,-133.5 504,-114.5 424,-114.5"/>
<text text-anchor="middle" x="464" y="-121.5" font-family="Helvetica,sans-Serif" font-size="10.00">BsssWrapper</text>
</a>
</g>
</g>
<!-- Node9&#45;&gt;Node5 -->
<g id="edge9" class="edge">
<title>Node9&#45;&gt;Node5</title>
<path fill="none" stroke="midnightblue" d="M514.08,-124C537.43,-124 565.1,-124 587.72,-124"/>
<polygon fill="midnightblue" stroke="midnightblue" points="514.04,-120.5 504.04,-124 514.04,-127.5 514.04,-120.5"/>
</g>
<!-- Node10 -->
<g id="node10" class="node">
<title>Node10</title>
<g id="a_node10"><a xlink:href="classBldAxiStream.html" target="_top" xlink:title=" ">
<polygon fill="white" stroke="black" points="262.5,-95.5 262.5,-114.5 345.5,-114.5 345.5,-95.5 262.5,-95.5"/>
<text text-anchor="middle" x="304" y="-102.5" font-family="Helvetica,sans-Serif" font-size="10.00">BldAxiStream</text>
</a>
</g>
</g>
<!-- Node10&#45;&gt;Node9 -->
<g id="edge10" class="edge">
<title>Node10&#45;&gt;Node9</title>
<path fill="none" stroke="midnightblue" d="M355.87,-111.12C377.9,-113.77 403.28,-116.82 423.81,-119.29"/>
<polygon fill="midnightblue" stroke="midnightblue" points="356.04,-107.61 345.69,-109.89 355.2,-114.56 356.04,-107.61"/>
</g>
<!-- Node17 -->
<g id="node17" class="node">
<title>Node17</title>
<g id="a_node17"><a xlink:href="classBldWrapper.html" target="_top" xlink:title=" ">
<polygon fill="white" stroke="black" points="427,-76.5 427,-95.5 501,-95.5 501,-76.5 427,-76.5"/>
<text text-anchor="middle" x="464" y="-83.5" font-family="Helvetica,sans-Serif" font-size="10.00">BldWrapper</text>
</a>
</g>
</g>
<!-- Node10&#45;&gt;Node17 -->
<g id="edge18" class="edge">
<title>Node10&#45;&gt;Node17</title>
<path fill="none" stroke="midnightblue" d="M355.68,-98.91C378.82,-96.12 405.69,-92.89 426.76,-90.36"/>
<polygon fill="midnightblue" stroke="midnightblue" points="355.2,-95.44 345.69,-100.11 356.04,-102.39 355.2,-95.44"/>
</g>
<!-- Node11 -->
<g id="node11" class="node">
<title>Node11</title>
<g id="a_node11"><a xlink:href="classBldEventSelect.html" target="_top" xlink:title=" ">
<polygon fill="white" stroke="black" points="124.5,-95.5 124.5,-114.5 214.5,-114.5 214.5,-95.5 124.5,-95.5"/>
<text text-anchor="middle" x="169.5" y="-102.5" font-family="Helvetica,sans-Serif" font-size="10.00">BldEventSelect</text>
</a>
</g>
</g>
<!-- Node11&#45;&gt;Node10 -->
<g id="edge11" class="edge">
<title>Node11&#45;&gt;Node10</title>
<path fill="none" stroke="midnightblue" d="M224.92,-105C237.38,-105 250.43,-105 262.2,-105"/>
<polygon fill="midnightblue" stroke="midnightblue" points="224.62,-101.5 214.62,-105 224.62,-108.5 224.62,-101.5"/>
</g>
<!-- Node12 -->
<g id="node12" class="node">
<title>Node12</title>
<g id="a_node12"><a xlink:href="classBldEventRAM.html" target="_top" xlink:title=" ">
<polygon fill="white" stroke="black" points="0,-95.5 0,-114.5 83,-114.5 83,-95.5 0,-95.5"/>
<text text-anchor="middle" x="41.5" y="-102.5" font-family="Helvetica,sans-Serif" font-size="10.00">BldEventRAM</text>
</a>
</g>
</g>
<!-- Node12&#45;&gt;Node11 -->
<g id="edge12" class="edge">
<title>Node12&#45;&gt;Node11</title>
<path fill="none" stroke="midnightblue" d="M93.12,-105C103.37,-105 114.07,-105 124.09,-105"/>
<polygon fill="midnightblue" stroke="midnightblue" points="93.06,-101.5 83.06,-105 93.06,-108.5 93.06,-101.5"/>
</g>
<!-- Node13 -->
<g id="node13" class="node">
<title>Node13</title>
<g id="a_node13"><a xlink:href="classBsasWrapper.html" target="_top" xlink:title=" ">
<polygon fill="white" stroke="black" points="423.5,-38.5 423.5,-57.5 504.5,-57.5 504.5,-38.5 423.5,-38.5"/>
<text text-anchor="middle" x="464" y="-45.5" font-family="Helvetica,sans-Serif" font-size="10.00">BsasWrapper</text>
</a>
</g>
</g>
<!-- Node13&#45;&gt;Node5 -->
<g id="edge13" class="edge">
<title>Node13&#45;&gt;Node5</title>
<path fill="none" stroke="midnightblue" d="M514.64,-56.35C523.44,-58.99 532.25,-62.46 540,-67 560.07,-78.77 556.43,-92.42 576,-105 581.91,-108.8 588.67,-111.93 595.39,-114.48"/>
<polygon fill="midnightblue" stroke="midnightblue" points="515.34,-52.92 504.78,-53.71 513.53,-59.68 515.34,-52.92"/>
</g>
<!-- Node14 -->
<g id="node14" class="node">
<title>Node14</title>
<g id="a_node14"><a xlink:href="classBsasModule.html" target="_top" xlink:title=" ">
<polygon fill="white" stroke="black" points="266,-38.5 266,-57.5 342,-57.5 342,-38.5 266,-38.5"/>
<text text-anchor="middle" x="304" y="-45.5" font-family="Helvetica,sans-Serif" font-size="10.00">BsasModule</text>
</a>
</g>
</g>
<!-- Node14&#45;&gt;Node13 -->
<g id="edge14" class="edge">
<title>Node14&#45;&gt;Node13</title>
<path fill="none" stroke="midnightblue" d="M352.15,-48C374.86,-48 401.8,-48 423.43,-48"/>
<polygon fill="midnightblue" stroke="midnightblue" points="352.04,-44.5 342.04,-48 352.04,-51.5 352.04,-44.5"/>
</g>
<!-- Node15 -->
<g id="node15" class="node">
<title>Node15</title>
<g id="a_node15"><a xlink:href="classBsasAccumulator.html" target="_top" xlink:title=" ">
<polygon fill="white" stroke="black" points="119,-38.5 119,-57.5 220,-57.5 220,-38.5 119,-38.5"/>
<text text-anchor="middle" x="169.5" y="-45.5" font-family="Helvetica,sans-Serif" font-size="10.00">BsasAccumulator</text>
</a>
</g>
</g>
<!-- Node15&#45;&gt;Node14 -->
<g id="edge15" class="edge">
<title>Node15&#45;&gt;Node14</title>
<path fill="none" stroke="midnightblue" d="M230.28,-48C242.39,-48 254.79,-48 265.84,-48"/>
<polygon fill="midnightblue" stroke="midnightblue" points="230.22,-44.5 220.22,-48 230.22,-51.5 230.22,-44.5"/>
</g>
<!-- Node16 -->
<g id="node16" class="node">
<title>Node16</title>
<g id="a_node16"><a xlink:href="classBsaAxiInterconnectWrapper.html" target="_top" xlink:title=" ">
<polygon fill="white" stroke="black" points="388,-0.5 388,-19.5 540,-19.5 540,-0.5 388,-0.5"/>
<text text-anchor="middle" x="464" y="-7.5" font-family="Helvetica,sans-Serif" font-size="10.00">BsaAxiInterconnectWrapper</text>
</a>
</g>
</g>
<!-- Node16&#45;&gt;Node5 -->
<g id="edge16" class="edge">
<title>Node16&#45;&gt;Node5</title>
<path fill="none" stroke="midnightblue" d="M533.52,-24.39C535.79,-25.79 537.96,-27.32 540,-29 568.87,-52.74 548.13,-80.1 576,-105 580.33,-108.87 585.48,-111.95 590.88,-114.42"/>
<polygon fill="midnightblue" stroke="midnightblue" points="534.84,-21.13 524.35,-19.62 531.61,-27.34 534.84,-21.13"/>
</g>
<!-- Node17&#45;&gt;Node5 -->
<g id="edge17" class="edge">
<title>Node17&#45;&gt;Node5</title>
<path fill="none" stroke="midnightblue" d="M510.99,-96.5C535.68,-102.13 565.88,-109.02 589.87,-114.5"/>
<polygon fill="midnightblue" stroke="midnightblue" points="511.66,-93.06 501.13,-94.25 510.1,-99.88 511.66,-93.06"/>
</g>
<!-- Node18 -->
<g id="node18" class="node">
<title>Node18</title>
<g id="a_node18"><a xlink:href="classAmcCarrierDdrMem.html" target="_top" xlink:title=" ">
<polygon fill="white" stroke="black" points="576,-76.5 576,-95.5 689,-95.5 689,-76.5 576,-76.5"/>
<text text-anchor="middle" x="632.5" y="-83.5" font-family="Helvetica,sans-Serif" font-size="10.00">AmcCarrierDdrMem</text>
</a>
</g>
</g>
<!-- Node18&#45;&gt;Node1 -->
<g id="edge19" class="edge">
<title>Node18&#45;&gt;Node1</title>
<path fill="none" stroke="midnightblue" d="M676.11,-99.19C680.54,-100.97 684.91,-102.91 689,-105 715.66,-118.59 743.5,-140.04 758.6,-152.39"/>
<polygon fill="midnightblue" stroke="midnightblue" points="677.01,-95.79 666.42,-95.55 674.55,-102.34 677.01,-95.79"/>
</g>
</g>
</svg>
