<?xml version="1.0" encoding="UTF-8" standalone="no"?>
<!DOCTYPE svg PUBLIC "-//W3C//DTD SVG 1.1//EN"
 "http://www.w3.org/Graphics/SVG/1.1/DTD/svg11.dtd">
<!-- Generated by graphviz version 2.43.0 (0)
 -->
<!-- Title: RtmRfInterlockCore Pages: 1 -->
<svg width="617pt" height="137pt"
 viewBox="0.00 0.00 616.50 137.00" xmlns="http://www.w3.org/2000/svg" xmlns:xlink="http://www.w3.org/1999/xlink">
<g id="graph0" class="graph" transform="scale(1 1) rotate(0) translate(4 133)">
<title>RtmRfInterlockCore</title>
<!-- Node1 -->
<g id="Node000001" class="node">
<title>Node1</title>
<g id="a_Node000001"><a xlink:title=" ">
<polygon fill="#999999" stroke="#666666" points="346.5,-19 233.5,-19 233.5,0 346.5,0 346.5,-19"/>
<text text-anchor="middle" x="290" y="-7" font-family="Helvetica,sans-Serif" font-size="10.00">RtmRfInterlockCore</text>
</a>
</g>
</g>
<!-- Node2 -->
<g id="Node000002" class="node">
<title>Node2</title>
<g id="a_Node000002"><a xlink:href="classAd9229Core.html" target="_top" xlink:title=" ">
<polygon fill="white" stroke="#bfbfbf" points="108,-74 32,-74 32,-55 108,-55 108,-74"/>
<text text-anchor="middle" x="70" y="-62" font-family="Helvetica,sans-Serif" font-size="10.00">Ad9229Core</text>
</a>
</g>
</g>
<!-- Node2&#45;&gt;Node1 -->
<g id="edge1_Node000001_Node000002" class="edge">
<title>Node2&#45;&gt;Node1</title>
<g id="a_edge1_Node000001_Node000002"><a xlink:title=" ">
<path fill="none" stroke="#63b8ff" d="M115.13,-52.63C156.34,-42.7 216.45,-28.22 254.38,-19.08"/>
<polygon fill="#63b8ff" stroke="#63b8ff" points="114.25,-49.24 105.35,-54.98 115.89,-56.05 114.25,-49.24"/>
</a>
</g>
</g>
<!-- Node3 -->
<g id="Node000003" class="node">
<title>Node3</title>
<g id="a_Node000003"><a xlink:href="classAd9229Deserializer.html" target="_top" xlink:title=" ">
<polygon fill="white" stroke="#bfbfbf" points="112,-129 0,-129 0,-110 112,-110 112,-129"/>
<text text-anchor="middle" x="56" y="-117" font-family="Helvetica,sans-Serif" font-size="10.00">Ad9229Deserializer</text>
</a>
</g>
</g>
<!-- Node3&#45;&gt;Node2 -->
<g id="edge2_Node000002_Node000003" class="edge">
<title>Node3&#45;&gt;Node2</title>
<g id="a_edge2_Node000002_Node000003"><a xlink:title=" ">
<path fill="none" stroke="#63b8ff" d="M60.9,-99.95C63.22,-91.15 65.89,-81.06 67.73,-74.09"/>
<polygon fill="#63b8ff" stroke="#63b8ff" points="57.48,-99.19 58.31,-109.75 64.25,-100.97 57.48,-99.19"/>
</a>
</g>
</g>
<!-- Node4 -->
<g id="Node000004" class="node">
<title>Node4</title>
<g id="a_Node000004"><a xlink:href="classAxiSpiAd7682.html" target="_top" xlink:title=" ">
<polygon fill="white" stroke="#bfbfbf" points="217,-74 133,-74 133,-55 217,-55 217,-74"/>
<text text-anchor="middle" x="175" y="-62" font-family="Helvetica,sans-Serif" font-size="10.00">AxiSpiAd7682</text>
</a>
</g>
</g>
<!-- Node4&#45;&gt;Node1 -->
<g id="edge3_Node000001_Node000004" class="edge">
<title>Node4&#45;&gt;Node1</title>
<g id="a_edge3_Node000001_Node000004"><a xlink:title=" ">
<path fill="none" stroke="#63b8ff" d="M202.63,-50.77C223.84,-40.99 252.56,-27.75 271.19,-19.17"/>
<polygon fill="#63b8ff" stroke="#63b8ff" points="201.09,-47.62 193.48,-54.98 204.02,-53.98 201.09,-47.62"/>
</a>
</g>
</g>
<!-- Node5 -->
<g id="Node000005" class="node">
<title>Node5</title>
<g id="a_Node000005"><a xlink:href="classAxiSpiAd7682Reg.html" target="_top" xlink:title=" ">
<polygon fill="white" stroke="#bfbfbf" points="233.5,-129 130.5,-129 130.5,-110 233.5,-110 233.5,-129"/>
<text text-anchor="middle" x="182" y="-117" font-family="Helvetica,sans-Serif" font-size="10.00">AxiSpiAd7682Reg</text>
</a>
</g>
</g>
<!-- Node5&#45;&gt;Node4 -->
<g id="edge4_Node000004_Node000005" class="edge">
<title>Node5&#45;&gt;Node4</title>
<g id="a_edge4_Node000004_Node000005"><a xlink:title=" ">
<path fill="none" stroke="#63b8ff" d="M179.51,-99.66C178.36,-90.93 177.05,-80.99 176.13,-74.09"/>
<polygon fill="#63b8ff" stroke="#63b8ff" points="176.06,-100.29 180.84,-109.75 183,-99.38 176.06,-100.29"/>
</a>
</g>
</g>
<!-- Node6 -->
<g id="Node000006" class="node">
<title>Node6</title>
<g id="a_Node000006"><a xlink:href="classRtmRfInterlockReg.html" target="_top" xlink:title=" ">
<polygon fill="white" stroke="#bfbfbf" points="344.5,-74 235.5,-74 235.5,-55 344.5,-55 344.5,-74"/>
<text text-anchor="middle" x="290" y="-62" font-family="Helvetica,sans-Serif" font-size="10.00">RtmRfInterlockReg</text>
</a>
</g>
</g>
<!-- Node6&#45;&gt;Node1 -->
<g id="edge5_Node000001_Node000006" class="edge">
<title>Node6&#45;&gt;Node1</title>
<g id="a_edge5_Node000001_Node000006"><a xlink:title=" ">
<path fill="none" stroke="#63b8ff" d="M290,-44.66C290,-35.93 290,-25.99 290,-19.09"/>
<polygon fill="#63b8ff" stroke="#63b8ff" points="286.5,-44.75 290,-54.75 293.5,-44.75 286.5,-44.75"/>
</a>
</g>
</g>
<!-- Node7 -->
<g id="Node000007" class="node">
<title>Node7</title>
<g id="a_Node000007"><a xlink:href="classRingBufferCtrl.html" target="_top" xlink:title=" ">
<polygon fill="white" stroke="#bfbfbf" points="447.5,-74 362.5,-74 362.5,-55 447.5,-55 447.5,-74"/>
<text text-anchor="middle" x="405" y="-62" font-family="Helvetica,sans-Serif" font-size="10.00">RingBufferCtrl</text>
</a>
</g>
</g>
<!-- Node7&#45;&gt;Node1 -->
<g id="edge6_Node000001_Node000007" class="edge">
<title>Node7&#45;&gt;Node1</title>
<g id="a_edge6_Node000001_Node000007"><a xlink:title=" ">
<path fill="none" stroke="#63b8ff" d="M377.37,-50.77C356.16,-40.99 327.44,-27.75 308.81,-19.17"/>
<polygon fill="#63b8ff" stroke="#63b8ff" points="375.98,-53.98 386.52,-54.98 378.91,-47.62 375.98,-53.98"/>
</a>
</g>
</g>
<!-- Node8 -->
<g id="Node000008" class="node">
<title>Node8</title>
<g id="a_Node000008"><a xlink:href="classRtmRfInterlockFaultBuffer.html" target="_top" xlink:title=" ">
<polygon fill="white" stroke="#bfbfbf" points="608.5,-74 465.5,-74 465.5,-55 608.5,-55 608.5,-74"/>
<text text-anchor="middle" x="537" y="-62" font-family="Helvetica,sans-Serif" font-size="10.00">RtmRfInterlockFaultBuffer</text>
</a>
</g>
</g>
<!-- Node8&#45;&gt;Node1 -->
<g id="edge7_Node000001_Node000008" class="edge">
<title>Node8&#45;&gt;Node1</title>
<g id="a_edge7_Node000001_Node000008"><a xlink:title=" ">
<path fill="none" stroke="#63b8ff" d="M487.5,-52.88C441.2,-42.94 372.93,-28.3 330,-19.08"/>
<polygon fill="#63b8ff" stroke="#63b8ff" points="486.8,-56.31 497.32,-54.98 488.27,-49.46 486.8,-56.31"/>
</a>
</g>
</g>
</g>
</svg>
