<?xml version="1.0" encoding="UTF-8" standalone="no"?>
<!DOCTYPE svg PUBLIC "-//W3C//DTD SVG 1.1//EN"
 "http://www.w3.org/Graphics/SVG/1.1/DTD/svg11.dtd">
<!-- Generated by graphviz version 2.43.0 (0)
 -->
<!-- Title: AmcCarrierIbufGt Pages: 1 -->
<svg width="391pt" height="192pt"
 viewBox="0.00 0.00 391.00 192.00" xmlns="http://www.w3.org/2000/svg" xmlns:xlink="http://www.w3.org/1999/xlink">
<g id="graph0" class="graph" transform="scale(1 1) rotate(0) translate(4 188)">
<title>AmcCarrierIbufGt</title>
<!-- Node1 -->
<g id="Node000001" class="node">
<title>Node1</title>
<g id="a_Node000001"><a xlink:title=" ">
<polygon fill="#999999" stroke="#666666" points="227.5,-184 126.5,-184 126.5,-165 227.5,-165 227.5,-184"/>
<text text-anchor="middle" x="177" y="-172" font-family="Helvetica,sans-Serif" font-size="10.00">AmcCarrierIbufGt</text>
</a>
</g>
</g>
<!-- Node2 -->
<g id="Node000002" class="node">
<title>Node2</title>
<g id="a_Node000002"><a xlink:href="classAmcCarrierTiming.html" target="_top" xlink:title=" ">
<polygon fill="white" stroke="#bfbfbf" points="189.5,-129 84.5,-129 84.5,-110 189.5,-110 189.5,-129"/>
<text text-anchor="middle" x="137" y="-117" font-family="Helvetica,sans-Serif" font-size="10.00">AmcCarrierTiming</text>
</a>
</g>
</g>
<!-- Node1&#45;&gt;Node2 -->
<g id="edge1_Node000001_Node000002" class="edge">
<title>Node1&#45;&gt;Node2</title>
<g id="a_edge1_Node000001_Node000002"><a xlink:title=" ">
<path fill="none" stroke="#63b8ff" d="M164.3,-156.67C157.37,-147.5 149.09,-136.52 143.48,-129.09"/>
<polygon fill="#63b8ff" stroke="#63b8ff" points="161.58,-158.87 170.39,-164.75 167.16,-154.66 161.58,-158.87"/>
</a>
</g>
</g>
<!-- Node3 -->
<g id="Node000003" class="node">
<title>Node3</title>
<g id="a_Node000003"><a xlink:href="classAmcCarrierFsbl.html" target="_top" xlink:title=" ">
<polygon fill="white" stroke="#bfbfbf" points="103,-74 11,-74 11,-55 103,-55 103,-74"/>
<text text-anchor="middle" x="57" y="-62" font-family="Helvetica,sans-Serif" font-size="10.00">AmcCarrierFsbl</text>
</a>
</g>
</g>
<!-- Node1&#45;&gt;Node3 -->
<g id="edge7_Node000001_Node000003" class="edge">
<title>Node1&#45;&gt;Node3</title>
<g id="a_edge7_Node000001_Node000003"><a xlink:title=" ">
<path fill="none" stroke="#63b8ff" d="M127.76,-161.78C108.92,-155.04 88.69,-144.68 75,-129 61.28,-113.29 57.97,-87.82 57.2,-74.41"/>
<polygon fill="#63b8ff" stroke="#63b8ff" points="126.85,-165.17 137.44,-164.99 129.05,-158.53 126.85,-165.17"/>
</a>
</g>
</g>
<!-- Node5 -->
<g id="Node000005" class="node">
<title>Node5</title>
<g id="a_Node000005"><a xlink:href="classAmcCarrierCore.html" target="_top" xlink:title=" ">
<polygon fill="white" stroke="#bfbfbf" points="237,-74 143,-74 143,-55 237,-55 237,-74"/>
<text text-anchor="middle" x="190" y="-62" font-family="Helvetica,sans-Serif" font-size="10.00">AmcCarrierCore</text>
</a>
</g>
</g>
<!-- Node1&#45;&gt;Node5 -->
<g id="edge8_Node000001_Node000005" class="edge">
<title>Node1&#45;&gt;Node5</title>
<g id="a_edge8_Node000001_Node000005"><a xlink:title=" ">
<path fill="none" stroke="#63b8ff" d="M187.93,-156.09C192.29,-148.15 196.8,-138.43 199,-129 203.51,-109.7 197.4,-86.54 193.25,-74.22"/>
<polygon fill="#63b8ff" stroke="#63b8ff" points="184.88,-154.36 182.84,-164.76 190.92,-157.91 184.88,-154.36"/>
</a>
</g>
</g>
<!-- Node8 -->
<g id="Node000008" class="node">
<title>Node8</title>
<g id="a_Node000008"><a xlink:href="classAppTopJesd.html" target="_top" xlink:title=" ">
<polygon fill="white" stroke="#bfbfbf" points="318,-129 246,-129 246,-110 318,-110 318,-129"/>
<text text-anchor="middle" x="282" y="-117" font-family="Helvetica,sans-Serif" font-size="10.00">AppTopJesd</text>
</a>
</g>
</g>
<!-- Node1&#45;&gt;Node8 -->
<g id="edge9_Node000001_Node000008" class="edge">
<title>Node1&#45;&gt;Node8</title>
<g id="a_edge9_Node000001_Node000008"><a xlink:title=" ">
<path fill="none" stroke="#63b8ff" d="M203.02,-160.37C222.3,-150.63 248.05,-137.64 264.82,-129.17"/>
<polygon fill="#63b8ff" stroke="#63b8ff" points="201.22,-157.35 193.87,-164.98 204.37,-163.6 201.22,-157.35"/>
</a>
</g>
</g>
<!-- Node2&#45;&gt;Node3 -->
<g id="edge2_Node000002_Node000003" class="edge">
<title>Node2&#45;&gt;Node3</title>
<g id="a_edge2_Node000002_Node000003"><a xlink:title=" ">
<path fill="none" stroke="#63b8ff" d="M115.75,-104.42C101.24,-94.81 82.46,-82.37 70.09,-74.17"/>
<polygon fill="#63b8ff" stroke="#63b8ff" points="113.88,-107.38 124.15,-109.98 117.74,-101.54 113.88,-107.38"/>
</a>
</g>
</g>
<!-- Node2&#45;&gt;Node5 -->
<g id="edge4_Node000002_Node000005" class="edge">
<title>Node2&#45;&gt;Node5</title>
<g id="a_edge4_Node000002_Node000005"><a xlink:title=" ">
<path fill="none" stroke="#63b8ff" d="M152.98,-102.52C162.32,-93.18 173.75,-81.75 181.41,-74.09"/>
<polygon fill="#63b8ff" stroke="#63b8ff" points="150.35,-100.2 145.75,-109.75 155.3,-105.15 150.35,-100.2"/>
</a>
</g>
</g>
<!-- Node4 -->
<g id="Node000004" class="node">
<title>Node4</title>
<g id="a_Node000004"><a xlink:href="classAmcCarrierCoreFsbl.html" target="_top" xlink:title=" ">
<polygon fill="white" stroke="#bfbfbf" points="114,-19 0,-19 0,0 114,0 114,-19"/>
<text text-anchor="middle" x="57" y="-7" font-family="Helvetica,sans-Serif" font-size="10.00">AmcCarrierCoreFsbl</text>
</a>
</g>
</g>
<!-- Node3&#45;&gt;Node4 -->
<g id="edge3_Node000003_Node000004" class="edge">
<title>Node3&#45;&gt;Node4</title>
<g id="a_edge3_Node000003_Node000004"><a xlink:title=" ">
<path fill="none" stroke="#63b8ff" d="M57,-44.66C57,-35.93 57,-25.99 57,-19.09"/>
<polygon fill="#63b8ff" stroke="#63b8ff" points="53.5,-44.75 57,-54.75 60.5,-44.75 53.5,-44.75"/>
</a>
</g>
</g>
<!-- Node6 -->
<g id="Node000006" class="node">
<title>Node6</title>
<g id="a_Node000006"><a xlink:href="classAmcCarrierCoreAdv.html" target="_top" xlink:title=" ">
<polygon fill="white" stroke="#bfbfbf" points="246.5,-19 133.5,-19 133.5,0 246.5,0 246.5,-19"/>
<text text-anchor="middle" x="190" y="-7" font-family="Helvetica,sans-Serif" font-size="10.00">AmcCarrierCoreAdv</text>
</a>
</g>
</g>
<!-- Node5&#45;&gt;Node6 -->
<g id="edge5_Node000005_Node000006" class="edge">
<title>Node5&#45;&gt;Node6</title>
<g id="a_edge5_Node000005_Node000006"><a xlink:title=" ">
<path fill="none" stroke="#63b8ff" d="M190,-44.66C190,-35.93 190,-25.99 190,-19.09"/>
<polygon fill="#63b8ff" stroke="#63b8ff" points="186.5,-44.75 190,-54.75 193.5,-44.75 186.5,-44.75"/>
</a>
</g>
</g>
<!-- Node7 -->
<g id="Node000007" class="node">
<title>Node7</title>
<g id="a_Node000007"><a xlink:href="classAmcCarrierCoreBase.html" target="_top" xlink:title=" ">
<polygon fill="white" stroke="#bfbfbf" points="383,-19 265,-19 265,0 383,0 383,-19"/>
<text text-anchor="middle" x="324" y="-7" font-family="Helvetica,sans-Serif" font-size="10.00">AmcCarrierCoreBase</text>
</a>
</g>
</g>
<!-- Node5&#45;&gt;Node7 -->
<g id="edge6_Node000005_Node000007" class="edge">
<title>Node5&#45;&gt;Node7</title>
<g id="a_edge6_Node000005_Node000007"><a xlink:title=" ">
<path fill="none" stroke="#63b8ff" d="M220.87,-51.29C245.7,-41.47 279.99,-27.91 302.08,-19.17"/>
<polygon fill="#63b8ff" stroke="#63b8ff" points="219.54,-48.05 211.53,-54.98 222.12,-54.56 219.54,-48.05"/>
</a>
</g>
</g>
<!-- Node9 -->
<g id="Node000009" class="node">
<title>Node9</title>
<g id="a_Node000009"><a xlink:href="classAppTop.html" target="_top" xlink:title=" ">
<polygon fill="white" stroke="#bfbfbf" points="308,-74 256,-74 256,-55 308,-55 308,-74"/>
<text text-anchor="middle" x="282" y="-62" font-family="Helvetica,sans-Serif" font-size="10.00">AppTop</text>
</a>
</g>
</g>
<!-- Node8&#45;&gt;Node9 -->
<g id="edge10_Node000008_Node000009" class="edge">
<title>Node8&#45;&gt;Node9</title>
<g id="a_edge10_Node000008_Node000009"><a xlink:title=" ">
<path fill="none" stroke="#63b8ff" d="M282,-99.66C282,-90.93 282,-80.99 282,-74.09"/>
<polygon fill="#63b8ff" stroke="#63b8ff" points="278.5,-99.75 282,-109.75 285.5,-99.75 278.5,-99.75"/>
</a>
</g>
</g>
</g>
</svg>
