<?xml version="1.0" encoding="UTF-8" standalone="no"?>
<!DOCTYPE svg PUBLIC "-//W3C//DTD SVG 1.1//EN"
 "http://www.w3.org/Graphics/SVG/1.1/DTD/svg11.dtd">
<!-- Generated by graphviz version 2.43.0 (0)
 -->
<!-- Title: AmcCarrierBsa Pages: 1 -->
<svg width="662pt" height="180pt"
 viewBox="0.00 0.00 662.00 180.00" xmlns="http://www.w3.org/2000/svg" xmlns:xlink="http://www.w3.org/1999/xlink">
<g id="graph0" class="graph" transform="scale(1 1) rotate(0) translate(4 176)">
<title>AmcCarrierBsa</title>
<polygon fill="white" stroke="transparent" points="-4,4 -4,-176 658,-176 658,4 -4,4"/>
<!-- Node1 -->
<g id="node1" class="node">
<title>Node1</title>
<g id="a_node1"><a xlink:title=" ">
<polygon fill="#bfbfbf" stroke="black" points="565,-76.5 565,-95.5 654,-95.5 654,-76.5 565,-76.5"/>
<text text-anchor="middle" x="609.5" y="-83.5" font-family="Helvetica,sans-Serif" font-size="10.00">AmcCarrierBsa</text>
</a>
</g>
</g>
<!-- Node2 -->
<g id="node2" class="node">
<title>Node2</title>
<g id="a_node2"><a xlink:href="classBsaWaveformEngine.html" target="_top" xlink:title=" ">
<polygon fill="white" stroke="black" points="387.5,-152.5 387.5,-171.5 518.5,-171.5 518.5,-152.5 387.5,-152.5"/>
<text text-anchor="middle" x="453" y="-159.5" font-family="Helvetica,sans-Serif" font-size="10.00">BsaWaveformEngine(2)</text>
</a>
</g>
</g>
<!-- Node2&#45;&gt;Node1 -->
<g id="edge1" class="edge">
<title>Node2&#45;&gt;Node1</title>
<path fill="none" stroke="midnightblue" d="M512.52,-149.47C518.19,-147.58 523.77,-145.43 529,-143 556.11,-130.4 583.52,-108.18 598,-95.53"/>
<polygon fill="midnightblue" stroke="midnightblue" points="511.46,-146.14 502.93,-152.43 513.52,-152.83 511.46,-146.14"/>
</g>
<!-- Node3 -->
<g id="node3" class="node">
<title>Node3</title>
<g id="a_node3"><a xlink:href="classBsaBufferControl.html" target="_top" xlink:title=" ">
<polygon fill="white" stroke="black" points="403.5,-114.5 403.5,-133.5 502.5,-133.5 502.5,-114.5 403.5,-114.5"/>
<text text-anchor="middle" x="453" y="-121.5" font-family="Helvetica,sans-Serif" font-size="10.00">BsaBufferControl</text>
</a>
</g>
</g>
<!-- Node3&#45;&gt;Node1 -->
<g id="edge2" class="edge">
<title>Node3&#45;&gt;Node1</title>
<path fill="none" stroke="midnightblue" d="M502.95,-111.96C524.54,-106.65 549.54,-100.5 569.79,-95.52"/>
<polygon fill="midnightblue" stroke="midnightblue" points="501.86,-108.62 492.99,-114.41 503.53,-115.42 501.86,-108.62"/>
</g>
<!-- Node4 -->
<g id="node4" class="node">
<title>Node4</title>
<g id="a_node4"><a xlink:href="classBsaAccumulator.html" target="_top" xlink:title=" ">
<polygon fill="white" stroke="black" points="245,-114.5 245,-133.5 341,-133.5 341,-114.5 245,-114.5"/>
<text text-anchor="middle" x="293" y="-121.5" font-family="Helvetica,sans-Serif" font-size="10.00">BsaAccumulator</text>
</a>
</g>
</g>
<!-- Node4&#45;&gt;Node3 -->
<g id="edge3" class="edge">
<title>Node4&#45;&gt;Node3</title>
<path fill="none" stroke="midnightblue" d="M351.73,-124C368.64,-124 386.96,-124 403.26,-124"/>
<polygon fill="midnightblue" stroke="midnightblue" points="351.41,-120.5 341.41,-124 351.41,-127.5 351.41,-120.5"/>
</g>
<!-- Node5 -->
<g id="node5" class="node">
<title>Node5</title>
<g id="a_node5"><a xlink:href="classBsssWrapper.html" target="_top" xlink:title=" ">
<polygon fill="white" stroke="black" points="413,-76.5 413,-95.5 493,-95.5 493,-76.5 413,-76.5"/>
<text text-anchor="middle" x="453" y="-83.5" font-family="Helvetica,sans-Serif" font-size="10.00">BsssWrapper</text>
</a>
</g>
</g>
<!-- Node5&#45;&gt;Node1 -->
<g id="edge4" class="edge">
<title>Node5&#45;&gt;Node1</title>
<path fill="none" stroke="midnightblue" d="M503.42,-86C523.16,-86 545.7,-86 564.83,-86"/>
<polygon fill="midnightblue" stroke="midnightblue" points="503.39,-82.5 493.39,-86 503.39,-89.5 503.39,-82.5"/>
</g>
<!-- Node6 -->
<g id="node6" class="node">
<title>Node6</title>
<g id="a_node6"><a xlink:href="classBldAxiStream.html" target="_top" xlink:title=" ">
<polygon fill="white" stroke="black" points="251.5,-57.5 251.5,-76.5 334.5,-76.5 334.5,-57.5 251.5,-57.5"/>
<text text-anchor="middle" x="293" y="-64.5" font-family="Helvetica,sans-Serif" font-size="10.00">BldAxiStream</text>
</a>
</g>
</g>
<!-- Node6&#45;&gt;Node5 -->
<g id="edge5" class="edge">
<title>Node6&#45;&gt;Node5</title>
<path fill="none" stroke="midnightblue" d="M344.87,-73.12C366.9,-75.77 392.28,-78.82 412.81,-81.29"/>
<polygon fill="midnightblue" stroke="midnightblue" points="345.04,-69.61 334.69,-71.89 344.2,-76.56 345.04,-69.61"/>
</g>
<!-- Node10 -->
<g id="node10" class="node">
<title>Node10</title>
<g id="a_node10"><a xlink:href="classBldWrapper.html" target="_top" xlink:title=" ">
<polygon fill="white" stroke="black" points="416,-38.5 416,-57.5 490,-57.5 490,-38.5 416,-38.5"/>
<text text-anchor="middle" x="453" y="-45.5" font-family="Helvetica,sans-Serif" font-size="10.00">BldWrapper</text>
</a>
</g>
</g>
<!-- Node6&#45;&gt;Node10 -->
<g id="edge10" class="edge">
<title>Node6&#45;&gt;Node10</title>
<path fill="none" stroke="midnightblue" d="M344.68,-60.91C367.82,-58.12 394.69,-54.89 415.76,-52.36"/>
<polygon fill="midnightblue" stroke="midnightblue" points="344.2,-57.44 334.69,-62.11 345.04,-64.39 344.2,-57.44"/>
</g>
<!-- Node7 -->
<g id="node7" class="node">
<title>Node7</title>
<g id="a_node7"><a xlink:href="classBldEventSelect.html" target="_top" xlink:title=" ">
<polygon fill="white" stroke="black" points="119,-57.5 119,-76.5 209,-76.5 209,-57.5 119,-57.5"/>
<text text-anchor="middle" x="164" y="-64.5" font-family="Helvetica,sans-Serif" font-size="10.00">BldEventSelect</text>
</a>
</g>
</g>
<!-- Node7&#45;&gt;Node6 -->
<g id="edge6" class="edge">
<title>Node7&#45;&gt;Node6</title>
<path fill="none" stroke="midnightblue" d="M219.25,-67C230.04,-67 241.19,-67 251.42,-67"/>
<polygon fill="midnightblue" stroke="midnightblue" points="219.06,-63.5 209.06,-67 219.06,-70.5 219.06,-63.5"/>
</g>
<!-- Node8 -->
<g id="node8" class="node">
<title>Node8</title>
<g id="a_node8"><a xlink:href="classBldEventRAM.html" target="_top" xlink:title=" ">
<polygon fill="white" stroke="black" points="0,-57.5 0,-76.5 83,-76.5 83,-57.5 0,-57.5"/>
<text text-anchor="middle" x="41.5" y="-64.5" font-family="Helvetica,sans-Serif" font-size="10.00">BldEventRAM</text>
</a>
</g>
</g>
<!-- Node8&#45;&gt;Node7 -->
<g id="edge7" class="edge">
<title>Node8&#45;&gt;Node7</title>
<path fill="none" stroke="midnightblue" d="M93.46,-67C101.93,-67 110.66,-67 118.94,-67"/>
<polygon fill="midnightblue" stroke="midnightblue" points="93.3,-63.5 83.3,-67 93.3,-70.5 93.3,-63.5"/>
</g>
<!-- Node9 -->
<g id="node9" class="node">
<title>Node9</title>
<g id="a_node9"><a xlink:href="classBsaAxiInterconnectWrapper.html" target="_top" xlink:title=" ">
<polygon fill="white" stroke="black" points="377,-0.5 377,-19.5 529,-19.5 529,-0.5 377,-0.5"/>
<text text-anchor="middle" x="453" y="-7.5" font-family="Helvetica,sans-Serif" font-size="10.00">BsaAxiInterconnectWrapper</text>
</a>
</g>
</g>
<!-- Node9&#45;&gt;Node1 -->
<g id="edge8" class="edge">
<title>Node9&#45;&gt;Node1</title>
<path fill="none" stroke="midnightblue" d="M512.52,-22.53C518.19,-24.42 523.77,-26.57 529,-29 556.11,-41.6 583.52,-63.82 598,-76.47"/>
<polygon fill="midnightblue" stroke="midnightblue" points="513.52,-19.17 502.93,-19.57 511.46,-25.86 513.52,-19.17"/>
</g>
<!-- Node10&#45;&gt;Node1 -->
<g id="edge9" class="edge">
<title>Node10&#45;&gt;Node1</title>
<path fill="none" stroke="midnightblue" d="M500.1,-59.34C522.32,-64.8 548.65,-71.28 569.8,-76.48"/>
<polygon fill="midnightblue" stroke="midnightblue" points="500.77,-55.9 490.22,-56.91 499.1,-62.7 500.77,-55.9"/>
</g>
</g>
</svg>
