<?xml version="1.0" encoding="UTF-8" standalone="no"?>
<!DOCTYPE svg PUBLIC "-//W3C//DTD SVG 1.1//EN"
 "http://www.w3.org/Graphics/SVG/1.1/DTD/svg11.dtd">
<!-- Generated by graphviz version 2.43.0 (0)
 -->
<!-- Title: DaqLane Pages: 1 -->
<svg width="184pt" height="192pt"
 viewBox="0.00 0.00 184.00 192.00" xmlns="http://www.w3.org/2000/svg" xmlns:xlink="http://www.w3.org/1999/xlink">
<g id="graph0" class="graph" transform="scale(1 1) rotate(0) translate(4 188)">
<title>DaqLane</title>
<!-- Node1 -->
<g id="Node000001" class="node">
<title>Node1</title>
<g id="a_Node000001"><a xlink:title=" ">
<polygon fill="#999999" stroke="#666666" points="113,-129 54,-129 54,-110 113,-110 113,-129"/>
<text text-anchor="middle" x="83.5" y="-117" font-family="Helvetica,sans-Serif" font-size="10.00">DaqLane</text>
</a>
</g>
</g>
<!-- Node4 -->
<g id="Node000004" class="node">
<title>Node4</title>
<g id="a_Node000004"><a xlink:href="classDaqMuxV2.html" target="_top" xlink:title=" ">
<polygon fill="white" stroke="#bfbfbf" points="118.5,-74 48.5,-74 48.5,-55 118.5,-55 118.5,-74"/>
<text text-anchor="middle" x="83.5" y="-62" font-family="Helvetica,sans-Serif" font-size="10.00">DaqMuxV2</text>
</a>
</g>
</g>
<!-- Node1&#45;&gt;Node4 -->
<g id="edge3_Node000001_Node000004" class="edge">
<title>Node1&#45;&gt;Node4</title>
<g id="a_edge3_Node000001_Node000004"><a xlink:title=" ">
<path fill="none" stroke="#63b8ff" d="M83.5,-99.66C83.5,-90.93 83.5,-80.99 83.5,-74.09"/>
<polygon fill="#63b8ff" stroke="#63b8ff" points="80,-99.75 83.5,-109.75 87,-99.75 80,-99.75"/>
</a>
</g>
</g>
<!-- Node2 -->
<g id="Node000002" class="node">
<title>Node2</title>
<g id="a_Node000002"><a xlink:href="classDaqTestSig.html" target="_top" xlink:title=" ">
<polygon fill="white" stroke="#bfbfbf" points="71,-184 0,-184 0,-165 71,-165 71,-184"/>
<text text-anchor="middle" x="35.5" y="-172" font-family="Helvetica,sans-Serif" font-size="10.00">DaqTestSig</text>
</a>
</g>
</g>
<!-- Node2&#45;&gt;Node1 -->
<g id="edge1_Node000001_Node000002" class="edge">
<title>Node2&#45;&gt;Node1</title>
<g id="a_edge1_Node000001_Node000002"><a xlink:title=" ">
<path fill="none" stroke="#63b8ff" d="M50.23,-157.24C58.64,-147.95 68.85,-136.68 75.72,-129.09"/>
<polygon fill="#63b8ff" stroke="#63b8ff" points="47.54,-154.99 43.43,-164.75 52.73,-159.69 47.54,-154.99"/>
</a>
</g>
</g>
<!-- Node3 -->
<g id="Node000003" class="node">
<title>Node3</title>
<g id="a_Node000003"><a xlink:href="classDaqDecimator.html" target="_top" xlink:title=" ">
<polygon fill="white" stroke="#bfbfbf" points="176,-184 89,-184 89,-165 176,-165 176,-184"/>
<text text-anchor="middle" x="132.5" y="-172" font-family="Helvetica,sans-Serif" font-size="10.00">DaqDecimator</text>
</a>
</g>
</g>
<!-- Node3&#45;&gt;Node1 -->
<g id="edge2_Node000001_Node000003" class="edge">
<title>Node3&#45;&gt;Node1</title>
<g id="a_edge2_Node000001_Node000003"><a xlink:title=" ">
<path fill="none" stroke="#63b8ff" d="M117.47,-157.24C108.88,-147.95 98.46,-136.68 91.44,-129.09"/>
<polygon fill="#63b8ff" stroke="#63b8ff" points="115.05,-159.78 124.41,-164.75 120.19,-155.03 115.05,-159.78"/>
</a>
</g>
</g>
<!-- Node5 -->
<g id="Node000005" class="node">
<title>Node5</title>
<g id="a_Node000005"><a xlink:href="classAppTop.html" target="_top" xlink:title=" ">
<polygon fill="white" stroke="#bfbfbf" points="67.5,-19 15.5,-19 15.5,0 67.5,0 67.5,-19"/>
<text text-anchor="middle" x="41.5" y="-7" font-family="Helvetica,sans-Serif" font-size="10.00">AppTop</text>
</a>
</g>
</g>
<!-- Node4&#45;&gt;Node5 -->
<g id="edge4_Node000004_Node000005" class="edge">
<title>Node4&#45;&gt;Node5</title>
<g id="a_edge4_Node000004_Node000005"><a xlink:title=" ">
<path fill="none" stroke="#63b8ff" d="M70.17,-46.67C62.89,-37.5 54.2,-26.52 48.31,-19.09"/>
<polygon fill="#63b8ff" stroke="#63b8ff" points="67.61,-49.08 76.56,-54.75 73.1,-44.74 67.61,-49.08"/>
</a>
</g>
</g>
<!-- Node6 -->
<g id="Node000006" class="node">
<title>Node6</title>
<g id="a_Node000006"><a xlink:href="classDaqMuxV2Tb.html" target="_top" xlink:title=" ">
<polygon fill="white" stroke="#bfbfbf" points="167.5,-19 85.5,-19 85.5,0 167.5,0 167.5,-19"/>
<text text-anchor="middle" x="126.5" y="-7" font-family="Helvetica,sans-Serif" font-size="10.00">DaqMuxV2Tb</text>
</a>
</g>
</g>
<!-- Node4&#45;&gt;Node6 -->
<g id="edge5_Node000004_Node000006" class="edge">
<title>Node4&#45;&gt;Node6</title>
<g id="a_edge5_Node000004_Node000006"><a xlink:title=" ">
<path fill="none" stroke="#63b8ff" d="M96.92,-46.96C104.41,-37.72 113.44,-26.6 119.53,-19.09"/>
<polygon fill="#63b8ff" stroke="#63b8ff" points="94.18,-44.78 90.6,-54.75 99.62,-49.19 94.18,-44.78"/>
</a>
</g>
</g>
</g>
</svg>
