<?xml version="1.0" encoding="UTF-8" standalone="no"?>
<!DOCTYPE svg PUBLIC "-//W3C//DTD SVG 1.1//EN"
 "http://www.w3.org/Graphics/SVG/1.1/DTD/svg11.dtd">
<!-- Generated by graphviz version 2.43.0 (0)
 -->
<!-- Title: AmcCarrierCoreBase Pages: 1 -->
<svg width="1038pt" height="522pt"
 viewBox="0.00 0.00 1038.00 522.00" xmlns="http://www.w3.org/2000/svg" xmlns:xlink="http://www.w3.org/1999/xlink">
<g id="graph0" class="graph" transform="scale(1 1) rotate(0) translate(4 518)">
<title>AmcCarrierCoreBase</title>
<polygon fill="white" stroke="transparent" points="-4,4 -4,-518 1034,-518 1034,4 -4,4"/>
<!-- Node1 -->
<g id="node1" class="node">
<title>Node1</title>
<g id="a_node1"><a xlink:title=" ">
<polygon fill="#bfbfbf" stroke="black" points="912,-380.5 912,-399.5 1030,-399.5 1030,-380.5 912,-380.5"/>
<text text-anchor="middle" x="971" y="-387.5" font-family="Helvetica,sans-Serif" font-size="10.00">AmcCarrierCoreBase</text>
</a>
</g>
</g>
<!-- Node2 -->
<g id="node2" class="node">
<title>Node2</title>
<g id="a_node2"><a xlink:href="classAmcCarrierSysReg.html" target="_top" xlink:title=" ">
<polygon fill="white" stroke="black" points="769,-456.5 769,-475.5 876,-475.5 876,-456.5 769,-456.5"/>
<text text-anchor="middle" x="822.5" y="-463.5" font-family="Helvetica,sans-Serif" font-size="10.00">AmcCarrierSysReg</text>
</a>
</g>
</g>
<!-- Node2&#45;&gt;Node1 -->
<g id="edge1" class="edge">
<title>Node2&#45;&gt;Node1</title>
<path fill="none" stroke="midnightblue" d="M850.98,-451.74C880.4,-436.48 926.25,-412.7 951.6,-399.55"/>
<polygon fill="midnightblue" stroke="midnightblue" points="849.32,-448.66 842.05,-456.37 852.54,-454.88 849.32,-448.66"/>
</g>
<!-- Node3 -->
<g id="node3" class="node">
<title>Node3</title>
<g id="a_node3"><a xlink:href="classAmcCarrierSysMon.html" target="_top" xlink:title=" ">
<polygon fill="white" stroke="black" points="621.5,-494.5 621.5,-513.5 731.5,-513.5 731.5,-494.5 621.5,-494.5"/>
<text text-anchor="middle" x="676.5" y="-501.5" font-family="Helvetica,sans-Serif" font-size="10.00">AmcCarrierSysMon</text>
</a>
</g>
</g>
<!-- Node3&#45;&gt;Node2 -->
<g id="edge2" class="edge">
<title>Node3&#45;&gt;Node2</title>
<path fill="none" stroke="midnightblue" d="M723.67,-491.82C743.66,-486.54 766.72,-480.46 785.42,-475.52"/>
<polygon fill="midnightblue" stroke="midnightblue" points="722.61,-488.48 713.84,-494.41 724.4,-495.24 722.61,-488.48"/>
</g>
<!-- Node4 -->
<g id="node4" class="node">
<title>Node4</title>
<g id="a_node4"><a xlink:href="classAmcCarrierBsi.html" target="_top" xlink:title=" ">
<polygon fill="white" stroke="black" points="633.5,-456.5 633.5,-475.5 719.5,-475.5 719.5,-456.5 633.5,-456.5"/>
<text text-anchor="middle" x="676.5" y="-463.5" font-family="Helvetica,sans-Serif" font-size="10.00">AmcCarrierBsi</text>
</a>
</g>
</g>
<!-- Node4&#45;&gt;Node2 -->
<g id="edge3" class="edge">
<title>Node4&#45;&gt;Node2</title>
<path fill="none" stroke="midnightblue" d="M729.57,-466C742.37,-466 756.09,-466 768.91,-466"/>
<polygon fill="midnightblue" stroke="midnightblue" points="729.54,-462.5 719.54,-466 729.54,-469.5 729.54,-462.5"/>
</g>
<!-- Node5 -->
<g id="node5" class="node">
<title>Node5</title>
<g id="a_node5"><a xlink:href="classAppMps.html" target="_top" xlink:title=" ">
<polygon fill="white" stroke="black" points="794.5,-380.5 794.5,-399.5 850.5,-399.5 850.5,-380.5 794.5,-380.5"/>
<text text-anchor="middle" x="822.5" y="-387.5" font-family="Helvetica,sans-Serif" font-size="10.00">AppMps</text>
</a>
</g>
</g>
<!-- Node5&#45;&gt;Node1 -->
<g id="edge4" class="edge">
<title>Node5&#45;&gt;Node1</title>
<path fill="none" stroke="midnightblue" d="M860.95,-390C876.45,-390 894.8,-390 911.98,-390"/>
<polygon fill="midnightblue" stroke="midnightblue" points="860.71,-386.5 850.71,-390 860.71,-393.5 860.71,-386.5"/>
</g>
<!-- Node6 -->
<g id="node6" class="node">
<title>Node6</title>
<g id="a_node6"><a xlink:href="classAppMpsClk.html" target="_top" xlink:title=" ">
<polygon fill="white" stroke="black" points="641,-418.5 641,-437.5 712,-437.5 712,-418.5 641,-418.5"/>
<text text-anchor="middle" x="676.5" y="-425.5" font-family="Helvetica,sans-Serif" font-size="10.00">AppMpsClk</text>
</a>
</g>
</g>
<!-- Node6&#45;&gt;Node5 -->
<g id="edge5" class="edge">
<title>Node6&#45;&gt;Node5</title>
<path fill="none" stroke="midnightblue" d="M722.14,-416.22C745.7,-410 773.85,-402.57 794.17,-397.21"/>
<polygon fill="midnightblue" stroke="midnightblue" points="721.13,-412.87 712.36,-418.8 722.92,-419.63 721.13,-412.87"/>
</g>
<!-- Node7 -->
<g id="node7" class="node">
<title>Node7</title>
<g id="a_node7"><a xlink:href="classAppMpsEncoder.html" target="_top" xlink:title=" ">
<polygon fill="white" stroke="black" points="629,-380.5 629,-399.5 724,-399.5 724,-380.5 629,-380.5"/>
<text text-anchor="middle" x="676.5" y="-387.5" font-family="Helvetica,sans-Serif" font-size="10.00">AppMpsEncoder</text>
</a>
</g>
</g>
<!-- Node7&#45;&gt;Node5 -->
<g id="edge6" class="edge">
<title>Node7&#45;&gt;Node5</title>
<path fill="none" stroke="midnightblue" d="M734.51,-390C755.1,-390 777.41,-390 794.28,-390"/>
<polygon fill="midnightblue" stroke="midnightblue" points="734.25,-386.5 724.25,-390 734.25,-393.5 734.25,-386.5"/>
</g>
<!-- Node8 -->
<g id="node8" class="node">
<title>Node8</title>
<g id="a_node8"><a xlink:href="classAppMpsReg.html" target="_top" xlink:title=" ">
<polygon fill="white" stroke="black" points="469.5,-418.5 469.5,-437.5 543.5,-437.5 543.5,-418.5 469.5,-418.5"/>
<text text-anchor="middle" x="506.5" y="-425.5" font-family="Helvetica,sans-Serif" font-size="10.00">AppMpsReg</text>
</a>
</g>
</g>
<!-- Node8&#45;&gt;Node7 -->
<g id="edge7" class="edge">
<title>Node8&#45;&gt;Node7</title>
<path fill="none" stroke="midnightblue" d="M553.49,-417.6C578.41,-411.96 608.98,-405.05 633.29,-399.55"/>
<polygon fill="midnightblue" stroke="midnightblue" points="552.52,-414.23 543.54,-419.85 554.07,-421.06 552.52,-414.23"/>
</g>
<!-- Node9 -->
<g id="node9" class="node">
<title>Node9</title>
<g id="a_node9"><a xlink:href="classAppMpsRegBase.html" target="_top" xlink:title=" ">
<polygon fill="white" stroke="black" points="275.5,-437.5 275.5,-456.5 373.5,-456.5 373.5,-437.5 275.5,-437.5"/>
<text text-anchor="middle" x="324.5" y="-444.5" font-family="Helvetica,sans-Serif" font-size="10.00">AppMpsRegBase</text>
</a>
</g>
</g>
<!-- Node9&#45;&gt;Node8 -->
<g id="edge8" class="edge">
<title>Node9&#45;&gt;Node8</title>
<path fill="none" stroke="midnightblue" d="M383.87,-440.84C412.04,-437.87 444.94,-434.39 469.41,-431.81"/>
<polygon fill="midnightblue" stroke="midnightblue" points="383.31,-437.38 373.74,-441.91 384.05,-444.34 383.31,-437.38"/>
</g>
<!-- Node10 -->
<g id="node10" class="node">
<title>Node10</title>
<g id="a_node10"><a xlink:href="classAppMpsRegAppCh.html" target="_top" xlink:title=" ">
<polygon fill="white" stroke="black" points="271.5,-399.5 271.5,-418.5 377.5,-418.5 377.5,-399.5 271.5,-399.5"/>
<text text-anchor="middle" x="324.5" y="-406.5" font-family="Helvetica,sans-Serif" font-size="10.00">AppMpsRegAppCh</text>
</a>
</g>
</g>
<!-- Node10&#45;&gt;Node8 -->
<g id="edge9" class="edge">
<title>Node10&#45;&gt;Node8</title>
<path fill="none" stroke="midnightblue" d="M387.78,-415.57C414.98,-418.44 445.92,-421.71 469.25,-424.17"/>
<polygon fill="midnightblue" stroke="midnightblue" points="387.88,-412.06 377.56,-414.5 387.14,-419.03 387.88,-412.06"/>
</g>
<!-- Node11 -->
<g id="node11" class="node">
<title>Node11</title>
<g id="a_node11"><a xlink:href="classAppMpsSelect.html" target="_top" xlink:title=" ">
<polygon fill="white" stroke="black" points="463.5,-380.5 463.5,-399.5 549.5,-399.5 549.5,-380.5 463.5,-380.5"/>
<text text-anchor="middle" x="506.5" y="-387.5" font-family="Helvetica,sans-Serif" font-size="10.00">AppMpsSelect</text>
</a>
</g>
</g>
<!-- Node11&#45;&gt;Node7 -->
<g id="edge10" class="edge">
<title>Node11&#45;&gt;Node7</title>
<path fill="none" stroke="midnightblue" d="M560.09,-390C582.16,-390 607.61,-390 628.98,-390"/>
<polygon fill="midnightblue" stroke="midnightblue" points="559.89,-386.5 549.89,-390 559.89,-393.5 559.89,-386.5"/>
</g>
<!-- Node12 -->
<g id="node12" class="node">
<title>Node12</title>
<g id="a_node12"><a xlink:href="classMpsMsgCore.html" target="_top" xlink:title=" ">
<polygon fill="white" stroke="black" points="466.5,-342.5 466.5,-361.5 546.5,-361.5 546.5,-342.5 466.5,-342.5"/>
<text text-anchor="middle" x="506.5" y="-349.5" font-family="Helvetica,sans-Serif" font-size="10.00">MpsMsgCore</text>
</a>
</g>
</g>
<!-- Node12&#45;&gt;Node7 -->
<g id="edge11" class="edge">
<title>Node12&#45;&gt;Node7</title>
<path fill="none" stroke="midnightblue" d="M556.66,-363.12C581.01,-368.63 610.11,-375.21 633.42,-380.48"/>
<polygon fill="midnightblue" stroke="midnightblue" points="557.41,-359.7 546.89,-360.91 555.87,-366.53 557.41,-359.7"/>
</g>
<!-- Node13 -->
<g id="node13" class="node">
<title>Node13</title>
<g id="a_node13"><a xlink:href="classAppMpsSalt.html" target="_top" xlink:title=" ">
<polygon fill="white" stroke="black" points="639.5,-342.5 639.5,-361.5 713.5,-361.5 713.5,-342.5 639.5,-342.5"/>
<text text-anchor="middle" x="676.5" y="-349.5" font-family="Helvetica,sans-Serif" font-size="10.00">AppMpsSalt</text>
</a>
</g>
</g>
<!-- Node13&#45;&gt;Node5 -->
<g id="edge12" class="edge">
<title>Node13&#45;&gt;Node5</title>
<path fill="none" stroke="midnightblue" d="M723.54,-364.15C746.84,-370.3 774.35,-377.56 794.27,-382.81"/>
<polygon fill="midnightblue" stroke="midnightblue" points="724.4,-360.76 713.84,-361.59 722.61,-367.52 724.4,-360.76"/>
</g>
<!-- Node14 -->
<g id="node14" class="node">
<title>Node14</title>
<g id="a_node14"><a xlink:href="classAmcCarrierCore.html" target="_top" xlink:title=" ">
<polygon fill="white" stroke="black" points="775.5,-247.5 775.5,-266.5 869.5,-266.5 869.5,-247.5 775.5,-247.5"/>
<text text-anchor="middle" x="822.5" y="-254.5" font-family="Helvetica,sans-Serif" font-size="10.00">AmcCarrierCore</text>
</a>
</g>
</g>
<!-- Node14&#45;&gt;Node1 -->
<g id="edge13" class="edge">
<title>Node14&#45;&gt;Node1</title>
<path fill="none" stroke="midnightblue" d="M841.5,-273.34C872.29,-301.29 934.17,-357.48 959.16,-380.16"/>
<polygon fill="midnightblue" stroke="midnightblue" points="843.79,-270.7 834.04,-266.57 839.09,-275.88 843.79,-270.7"/>
</g>
<!-- Node15 -->
<g id="node15" class="node">
<title>Node15</title>
<g id="a_node15"><a xlink:href="classAmcCarrierIbufGt.html" target="_top" xlink:title=" ">
<polygon fill="white" stroke="black" points="456,-304.5 456,-323.5 557,-323.5 557,-304.5 456,-304.5"/>
<text text-anchor="middle" x="506.5" y="-311.5" font-family="Helvetica,sans-Serif" font-size="10.00">AmcCarrierIbufGt</text>
</a>
</g>
</g>
<!-- Node15&#45;&gt;Node14 -->
<g id="edge14" class="edge">
<title>Node15&#45;&gt;Node14</title>
<path fill="none" stroke="midnightblue" d="M567.16,-314.16C613.12,-313.04 677.9,-308.77 733,-295 758.63,-288.6 786.34,-275.62 803.79,-266.63"/>
<polygon fill="midnightblue" stroke="midnightblue" points="567,-310.66 557.07,-314.36 567.14,-317.66 567,-310.66"/>
</g>
<!-- Node21 -->
<g id="node21" class="node">
<title>Node21</title>
<g id="a_node21"><a xlink:href="classAmcCarrierTiming.html" target="_top" xlink:title=" ">
<polygon fill="white" stroke="black" points="624,-266.5 624,-285.5 729,-285.5 729,-266.5 624,-266.5"/>
<text text-anchor="middle" x="676.5" y="-273.5" font-family="Helvetica,sans-Serif" font-size="10.00">AmcCarrierTiming</text>
</a>
</g>
</g>
<!-- Node15&#45;&gt;Node21 -->
<g id="edge21" class="edge">
<title>Node15&#45;&gt;Node21</title>
<path fill="none" stroke="midnightblue" d="M559.78,-302.18C583.46,-296.82 611.09,-290.57 633.41,-285.52"/>
<polygon fill="midnightblue" stroke="midnightblue" points="558.87,-298.79 549.89,-304.41 560.42,-305.62 558.87,-298.79"/>
</g>
<!-- Node16 -->
<g id="node16" class="node">
<title>Node16</title>
<g id="a_node16"><a xlink:href="classAmcCarrierEth.html" target="_top" xlink:title=" ">
<polygon fill="white" stroke="black" points="633,-228.5 633,-247.5 720,-247.5 720,-228.5 633,-228.5"/>
<text text-anchor="middle" x="676.5" y="-235.5" font-family="Helvetica,sans-Serif" font-size="10.00">AmcCarrierEth</text>
</a>
</g>
</g>
<!-- Node16&#45;&gt;Node14 -->
<g id="edge15" class="edge">
<title>Node16&#45;&gt;Node14</title>
<path fill="none" stroke="midnightblue" d="M730.31,-244.97C745.07,-246.92 760.99,-249.02 775.34,-250.91"/>
<polygon fill="midnightblue" stroke="midnightblue" points="730.69,-241.49 720.31,-243.65 729.77,-248.43 730.69,-241.49"/>
</g>
<!-- Node17 -->
<g id="node17" class="node">
<title>Node17</title>
<g id="a_node17"><a xlink:href="classAmcCarrierRssi.html" target="_top" xlink:title=" ">
<polygon fill="white" stroke="black" points="454,-266.5 454,-285.5 559,-285.5 559,-266.5 454,-266.5"/>
<text text-anchor="middle" x="506.5" y="-273.5" font-family="Helvetica,sans-Serif" font-size="10.00">AmcCarrierRssi(2)</text>
</a>
</g>
</g>
<!-- Node17&#45;&gt;Node16 -->
<g id="edge16" class="edge">
<title>Node17&#45;&gt;Node16</title>
<path fill="none" stroke="midnightblue" d="M559.78,-264.18C583.46,-258.82 611.09,-252.57 633.41,-247.52"/>
<polygon fill="midnightblue" stroke="midnightblue" points="558.87,-260.79 549.89,-266.41 560.42,-267.62 558.87,-260.79"/>
</g>
<!-- Node18 -->
<g id="node18" class="node">
<title>Node18</title>
<g id="a_node18"><a xlink:href="classAmcCarrierRssiObFifo.html" target="_top" xlink:title=" ">
<polygon fill="white" stroke="black" points="256,-266.5 256,-285.5 393,-285.5 393,-266.5 256,-266.5"/>
<text text-anchor="middle" x="324.5" y="-273.5" font-family="Helvetica,sans-Serif" font-size="10.00">AmcCarrierRssiObFifo(2)</text>
</a>
</g>
</g>
<!-- Node18&#45;&gt;Node17 -->
<g id="edge17" class="edge">
<title>Node18&#45;&gt;Node17</title>
<path fill="none" stroke="midnightblue" d="M403.07,-276C420.25,-276 438.05,-276 453.9,-276"/>
<polygon fill="midnightblue" stroke="midnightblue" points="403.04,-272.5 393.04,-276 403.04,-279.5 403.04,-272.5"/>
</g>
<!-- Node19 -->
<g id="node19" class="node">
<title>Node19</title>
<g id="a_node19"><a xlink:href="classAmcCarrierRssiInterleave.html" target="_top" xlink:title=" ">
<polygon fill="white" stroke="black" points="429,-228.5 429,-247.5 584,-247.5 584,-228.5 429,-228.5"/>
<text text-anchor="middle" x="506.5" y="-235.5" font-family="Helvetica,sans-Serif" font-size="10.00">AmcCarrierRssiInterleave(2)</text>
</a>
</g>
</g>
<!-- Node19&#45;&gt;Node16 -->
<g id="edge18" class="edge">
<title>Node19&#45;&gt;Node16</title>
<path fill="none" stroke="midnightblue" d="M594.38,-238C607.8,-238 621.12,-238 632.97,-238"/>
<polygon fill="midnightblue" stroke="midnightblue" points="594.13,-234.5 584.13,-238 594.13,-241.5 594.13,-234.5"/>
</g>
<!-- Node20 -->
<g id="node20" class="node">
<title>Node20</title>
<g id="a_node20"><a xlink:href="classAmcCarrierRssiObFifo.html" target="_top" xlink:title=" ">
<polygon fill="white" stroke="black" points="263,-228.5 263,-247.5 386,-247.5 386,-228.5 263,-228.5"/>
<text text-anchor="middle" x="324.5" y="-235.5" font-family="Helvetica,sans-Serif" font-size="10.00">AmcCarrierRssiObFifo</text>
</a>
</g>
</g>
<!-- Node20&#45;&gt;Node19 -->
<g id="edge19" class="edge">
<title>Node20&#45;&gt;Node19</title>
<path fill="none" stroke="midnightblue" d="M396.28,-238C406.95,-238 418,-238 428.79,-238"/>
<polygon fill="midnightblue" stroke="midnightblue" points="396.19,-234.5 386.19,-238 396.19,-241.5 396.19,-234.5"/>
</g>
<!-- Node21&#45;&gt;Node14 -->
<g id="edge20" class="edge">
<title>Node21&#45;&gt;Node14</title>
<path fill="none" stroke="midnightblue" d="M739.09,-267.87C751.15,-266.28 763.6,-264.64 775.07,-263.13"/>
<polygon fill="midnightblue" stroke="midnightblue" points="738.54,-264.42 729.08,-269.19 739.45,-271.36 738.54,-264.42"/>
</g>
<!-- Node22 -->
<g id="node22" class="node">
<title>Node22</title>
<g id="a_node22"><a xlink:href="classAmcCarrierBsa.html" target="_top" xlink:title=" ">
<polygon fill="white" stroke="black" points="632,-133.5 632,-152.5 721,-152.5 721,-133.5 632,-133.5"/>
<text text-anchor="middle" x="676.5" y="-140.5" font-family="Helvetica,sans-Serif" font-size="10.00">AmcCarrierBsa</text>
</a>
</g>
</g>
<!-- Node22&#45;&gt;Node14 -->
<g id="edge22" class="edge">
<title>Node22&#45;&gt;Node14</title>
<path fill="none" stroke="midnightblue" d="M697.97,-159.21C728.37,-183.27 784.52,-227.72 809.25,-247.31"/>
<polygon fill="midnightblue" stroke="midnightblue" points="699.79,-156.18 689.78,-152.72 695.45,-161.67 699.79,-156.18"/>
</g>
<!-- Node23 -->
<g id="node23" class="node">
<title>Node23</title>
<g id="a_node23"><a xlink:href="classBsaWaveformEngine.html" target="_top" xlink:title=" ">
<polygon fill="white" stroke="black" points="441,-190.5 441,-209.5 572,-209.5 572,-190.5 441,-190.5"/>
<text text-anchor="middle" x="506.5" y="-197.5" font-family="Helvetica,sans-Serif" font-size="10.00">BsaWaveformEngine(2)</text>
</a>
</g>
</g>
<!-- Node23&#45;&gt;Node22 -->
<g id="edge23" class="edge">
<title>Node23&#45;&gt;Node22</title>
<path fill="none" stroke="midnightblue" d="M560.61,-187.91C568.51,-185.79 576.51,-183.47 584,-181 608.99,-172.76 636.8,-160.79 655.12,-152.5"/>
<polygon fill="midnightblue" stroke="midnightblue" points="559.52,-184.58 550.71,-190.47 561.27,-191.35 559.52,-184.58"/>
</g>
<!-- Node24 -->
<g id="node24" class="node">
<title>Node24</title>
<g id="a_node24"><a xlink:href="classBsaBufferControl.html" target="_top" xlink:title=" ">
<polygon fill="white" stroke="black" points="457,-152.5 457,-171.5 556,-171.5 556,-152.5 457,-152.5"/>
<text text-anchor="middle" x="506.5" y="-159.5" font-family="Helvetica,sans-Serif" font-size="10.00">BsaBufferControl</text>
</a>
</g>
</g>
<!-- Node24&#45;&gt;Node22 -->
<g id="edge24" class="edge">
<title>Node24&#45;&gt;Node22</title>
<path fill="none" stroke="midnightblue" d="M566.15,-155.37C587.76,-152.92 611.84,-150.2 631.89,-147.93"/>
<polygon fill="midnightblue" stroke="midnightblue" points="565.64,-151.9 556.09,-156.5 566.42,-158.86 565.64,-151.9"/>
</g>
<!-- Node25 -->
<g id="node25" class="node">
<title>Node25</title>
<g id="a_node25"><a xlink:href="classBsaAccumulator.html" target="_top" xlink:title=" ">
<polygon fill="white" stroke="black" points="276.5,-152.5 276.5,-171.5 372.5,-171.5 372.5,-152.5 276.5,-152.5"/>
<text text-anchor="middle" x="324.5" y="-159.5" font-family="Helvetica,sans-Serif" font-size="10.00">BsaAccumulator</text>
</a>
</g>
</g>
<!-- Node25&#45;&gt;Node24 -->
<g id="edge25" class="edge">
<title>Node25&#45;&gt;Node24</title>
<path fill="none" stroke="midnightblue" d="M383.1,-162C406.9,-162 434.19,-162 456.96,-162"/>
<polygon fill="midnightblue" stroke="midnightblue" points="382.79,-158.5 372.79,-162 382.79,-165.5 382.79,-158.5"/>
</g>
<!-- Node26 -->
<g id="node26" class="node">
<title>Node26</title>
<g id="a_node26"><a xlink:href="classBsssWrapper.html" target="_top" xlink:title=" ">
<polygon fill="white" stroke="black" points="459.5,-114.5 459.5,-133.5 553.5,-133.5 553.5,-114.5 459.5,-114.5"/>
<text text-anchor="middle" x="506.5" y="-121.5" font-family="Helvetica,sans-Serif" font-size="10.00">BsssWrapper(2)</text>
</a>
</g>
</g>
<!-- Node26&#45;&gt;Node22 -->
<g id="edge26" class="edge">
<title>Node26&#45;&gt;Node22</title>
<path fill="none" stroke="midnightblue" d="M563.82,-130.37C586.02,-132.88 611.12,-135.72 631.9,-138.07"/>
<polygon fill="midnightblue" stroke="midnightblue" points="564.18,-126.89 553.85,-129.24 563.39,-133.84 564.18,-126.89"/>
</g>
<!-- Node27 -->
<g id="node27" class="node">
<title>Node27</title>
<g id="a_node27"><a xlink:href="classBsasWrapper.html" target="_top" xlink:title=" ">
<polygon fill="white" stroke="black" points="466,-76.5 466,-95.5 547,-95.5 547,-76.5 466,-76.5"/>
<text text-anchor="middle" x="506.5" y="-83.5" font-family="Helvetica,sans-Serif" font-size="10.00">BsasWrapper</text>
</a>
</g>
</g>
<!-- Node27&#45;&gt;Node22 -->
<g id="edge27" class="edge">
<title>Node27&#45;&gt;Node22</title>
<path fill="none" stroke="midnightblue" d="M557.09,-96.45C566.16,-98.89 575.46,-101.74 584,-105 600.9,-111.45 603.39,-116.83 620,-124 627.95,-127.43 636.74,-130.68 644.93,-133.49"/>
<polygon fill="midnightblue" stroke="midnightblue" points="557.93,-93.05 547.37,-93.97 556.2,-99.84 557.93,-93.05"/>
</g>
<!-- Node28 -->
<g id="node28" class="node">
<title>Node28</title>
<g id="a_node28"><a xlink:href="classBsasModule.html" target="_top" xlink:title=" ">
<polygon fill="white" stroke="black" points="286.5,-76.5 286.5,-95.5 362.5,-95.5 362.5,-76.5 286.5,-76.5"/>
<text text-anchor="middle" x="324.5" y="-83.5" font-family="Helvetica,sans-Serif" font-size="10.00">BsasModule</text>
</a>
</g>
</g>
<!-- Node28&#45;&gt;Node27 -->
<g id="edge28" class="edge">
<title>Node28&#45;&gt;Node27</title>
<path fill="none" stroke="midnightblue" d="M373.07,-86C401.96,-86 438.41,-86 465.75,-86"/>
<polygon fill="midnightblue" stroke="midnightblue" points="372.8,-82.5 362.8,-86 372.8,-89.5 372.8,-82.5"/>
</g>
<!-- Node29 -->
<g id="node29" class="node">
<title>Node29</title>
<g id="a_node29"><a xlink:href="classBsasAccumulator.html" target="_top" xlink:title=" ">
<polygon fill="white" stroke="black" points="119,-76.5 119,-95.5 220,-95.5 220,-76.5 119,-76.5"/>
<text text-anchor="middle" x="169.5" y="-83.5" font-family="Helvetica,sans-Serif" font-size="10.00">BsasAccumulator</text>
</a>
</g>
</g>
<!-- Node29&#45;&gt;Node28 -->
<g id="edge29" class="edge">
<title>Node29&#45;&gt;Node28</title>
<path fill="none" stroke="midnightblue" d="M230.18,-86C249.05,-86 269.36,-86 286.19,-86"/>
<polygon fill="midnightblue" stroke="midnightblue" points="230.17,-82.5 220.17,-86 230.17,-89.5 230.17,-82.5"/>
</g>
<!-- Node30 -->
<g id="node30" class="node">
<title>Node30</title>
<g id="a_node30"><a xlink:href="classBsaAxiInterconnectWrapper.html" target="_top" xlink:title=" ">
<polygon fill="white" stroke="black" points="430.5,-38.5 430.5,-57.5 582.5,-57.5 582.5,-38.5 430.5,-38.5"/>
<text text-anchor="middle" x="506.5" y="-45.5" font-family="Helvetica,sans-Serif" font-size="10.00">BsaAxiInterconnectWrapper</text>
</a>
</g>
</g>
<!-- Node30&#45;&gt;Node22 -->
<g id="edge30" class="edge">
<title>Node30&#45;&gt;Node22</title>
<path fill="none" stroke="midnightblue" d="M575.55,-61.79C578.5,-63.35 581.34,-65.08 584,-67 608.29,-84.54 596.49,-105.42 620,-124 624.87,-127.85 630.58,-130.95 636.44,-133.43"/>
<polygon fill="midnightblue" stroke="midnightblue" points="576.95,-58.58 566.39,-57.63 574.05,-64.96 576.95,-58.58"/>
</g>
<!-- Node31 -->
<g id="node31" class="node">
<title>Node31</title>
<g id="a_node31"><a xlink:href="classBldWrapper.html" target="_top" xlink:title=" ">
<polygon fill="white" stroke="black" points="469.5,-0.5 469.5,-19.5 543.5,-19.5 543.5,-0.5 469.5,-0.5"/>
<text text-anchor="middle" x="506.5" y="-7.5" font-family="Helvetica,sans-Serif" font-size="10.00">BldWrapper</text>
</a>
</g>
</g>
<!-- Node31&#45;&gt;Node22 -->
<g id="edge31" class="edge">
<title>Node31&#45;&gt;Node22</title>
<path fill="none" stroke="midnightblue" d="M553.58,-14C564.56,-16.85 575.54,-21.49 584,-29 617.77,-58.98 587.56,-92.59 620,-124 624.02,-127.9 628.88,-131 634.03,-133.46"/>
<polygon fill="midnightblue" stroke="midnightblue" points="554.07,-10.53 543.56,-11.87 552.61,-17.38 554.07,-10.53"/>
</g>
<!-- Node32 -->
<g id="node32" class="node">
<title>Node32</title>
<g id="a_node32"><a xlink:href="classBldAxiStream.html" target="_top" xlink:title=" ">
<polygon fill="white" stroke="black" points="283,-0.5 283,-19.5 366,-19.5 366,-0.5 283,-0.5"/>
<text text-anchor="middle" x="324.5" y="-7.5" font-family="Helvetica,sans-Serif" font-size="10.00">BldAxiStream</text>
</a>
</g>
</g>
<!-- Node32&#45;&gt;Node31 -->
<g id="edge32" class="edge">
<title>Node32&#45;&gt;Node31</title>
<path fill="none" stroke="midnightblue" d="M376.5,-10C406.13,-10 442.75,-10 469.39,-10"/>
<polygon fill="midnightblue" stroke="midnightblue" points="376.34,-6.5 366.34,-10 376.34,-13.5 376.34,-6.5"/>
</g>
<!-- Node33 -->
<g id="node33" class="node">
<title>Node33</title>
<g id="a_node33"><a xlink:href="classBldEventSelect.html" target="_top" xlink:title=" ">
<polygon fill="white" stroke="black" points="124.5,-0.5 124.5,-19.5 214.5,-19.5 214.5,-0.5 124.5,-0.5"/>
<text text-anchor="middle" x="169.5" y="-7.5" font-family="Helvetica,sans-Serif" font-size="10.00">BldEventSelect</text>
</a>
</g>
</g>
<!-- Node33&#45;&gt;Node32 -->
<g id="edge33" class="edge">
<title>Node33&#45;&gt;Node32</title>
<path fill="none" stroke="midnightblue" d="M224.81,-10C243.89,-10 264.98,-10 282.75,-10"/>
<polygon fill="midnightblue" stroke="midnightblue" points="224.75,-6.5 214.75,-10 224.75,-13.5 224.75,-6.5"/>
</g>
<!-- Node34 -->
<g id="node34" class="node">
<title>Node34</title>
<g id="a_node34"><a xlink:href="classBldEventRAM.html" target="_top" xlink:title=" ">
<polygon fill="white" stroke="black" points="0,-0.5 0,-19.5 83,-19.5 83,-0.5 0,-0.5"/>
<text text-anchor="middle" x="41.5" y="-7.5" font-family="Helvetica,sans-Serif" font-size="10.00">BldEventRAM</text>
</a>
</g>
</g>
<!-- Node34&#45;&gt;Node33 -->
<g id="edge34" class="edge">
<title>Node34&#45;&gt;Node33</title>
<path fill="none" stroke="midnightblue" d="M93.12,-10C103.37,-10 114.07,-10 124.09,-10"/>
<polygon fill="midnightblue" stroke="midnightblue" points="93.06,-6.5 83.06,-10 93.06,-13.5 93.06,-6.5"/>
</g>
<!-- Node35 -->
<g id="node35" class="node">
<title>Node35</title>
<g id="a_node35"><a xlink:href="classAmcCarrierDdrMem.html" target="_top" xlink:title=" ">
<polygon fill="white" stroke="black" points="620,-95.5 620,-114.5 733,-114.5 733,-95.5 620,-95.5"/>
<text text-anchor="middle" x="676.5" y="-102.5" font-family="Helvetica,sans-Serif" font-size="10.00">AmcCarrierDdrMem</text>
</a>
</g>
</g>
<!-- Node35&#45;&gt;Node14 -->
<g id="edge35" class="edge">
<title>Node35&#45;&gt;Node14</title>
<path fill="none" stroke="midnightblue" d="M725.23,-118.91C727.96,-120.44 730.58,-122.13 733,-124 778.03,-158.71 807.69,-223.12 817.72,-247.4"/>
<polygon fill="midnightblue" stroke="midnightblue" points="726.72,-115.75 716.2,-114.55 723.68,-122.05 726.72,-115.75"/>
</g>
</g>
</svg>
