<?xml version="1.0" encoding="UTF-8" standalone="no"?>
<!DOCTYPE svg PUBLIC "-//W3C//DTD SVG 1.1//EN"
 "http://www.w3.org/Graphics/SVG/1.1/DTD/svg11.dtd">
<!-- Generated by graphviz version 2.43.0 (0)
 -->
<!-- Title: AmcCarrierBsa Pages: 1 -->
<!--zoomable 212 -->

<svg id="main" version="1.1" xmlns="http://www.w3.org/2000/svg" xmlns:xlink="http://www.w3.org/1999/xlink" xml:space="preserve" onload="init(evt)">
<style type="text/css"><![CDATA[
.node, .edge {opacity: 0.7;}
.node.selected, .edge.selected {opacity: 1;}
.edge:hover path { stroke: red; }
.edge:hover polygon { stroke: red; fill: red; }
]]></style>

<defs>
  <circle id="rim" cx="0" cy="0" r="7"/>
  <circle id="rim2" cx="0" cy="0" r="3.5"/>
  <g id="zoomPlus">
    <use xlink:href="#rim" fill="#404040"><set attributeName="fill" to="#808080" begin="zoomplus.mouseover" end="zoomplus.mouseout"/></use>
    <path d="M-4,0h8M0,-4v8" fill="none" stroke="white" stroke-width="1.5" pointer-events="none"/>
  </g>
  <g id="zoomMin">
    <use xlink:href="#rim" fill="#404040"><set attributeName="fill" to="#808080" begin="zoomminus.mouseover" end="zoomminus.mouseout"/></use>
    <path d="M-4,0h8" fill="none" stroke="white" stroke-width="1.5" pointer-events="none"/>
  </g>
  <g id="arrowUp" transform="translate(30 24)">
    <use xlink:href="#rim"/>
    <path pointer-events="none" fill="none" stroke="white" stroke-width="1.5" d="M0,-3.0v7 M-2.5,-0.5L0,-3.0L2.5,-0.5"/>
  </g>
  <g id="arrowRight" transform="rotate(90) translate(36 -43)">
    <use xlink:href="#rim"/>
    <path pointer-events="none" fill="none" stroke="white" stroke-width="1.5" d="M0,-3.0v7 M-2.5,-0.5L0,-3.0L2.5,-0.5"/>
  </g>
  <g id="arrowDown" transform="rotate(180) translate(-30 -48)">
    <use xlink:href="#rim"/>
    <path pointer-events="none" fill="none" stroke="white" stroke-width="1.5" d="M0,-3.0v7 M-2.5,-0.5L0,-3.0L2.5,-0.5"/>
  </g>
  <g id="arrowLeft" transform="rotate(270) translate(-36 17)">
    <use xlink:href="#rim"/>
    <path pointer-events="none" fill="none" stroke="white" stroke-width="1.5" d="M0,-3.0v7 M-2.5,-0.5L0,-3.0L2.5,-0.5"/>
  </g>
  <g id="resetDef">
    <use xlink:href="#rim2" fill="#404040"><set attributeName="fill" to="#808080" begin="reset.mouseover" end="reset.mouseout"/></use>
  </g>
</defs>
<script type="application/ecmascript">
var viewWidth = 957;
var viewHeight = 212;
var sectionId = 'dynsection-0';
</script>
<script type="application/ecmascript" xlink:href="svg.min.js"/>
<svg id="graph" class="graph">
<g id="viewport">
<title>AmcCarrierBsa</title>
<!-- Node1 -->
<g id="Node000001" class="node">
<title>Node1</title>
<g id="a_Node000001"><a xlink:title=" ">
<polygon fill="#999999" stroke="#666666" points="665,-111 576,-111 576,-92 665,-92 665,-111"/>
<text text-anchor="middle" x="620.5" y="-99" font-family="Helvetica,sans-Serif" font-size="10.00">AmcCarrierBsa</text>
</a>
</g>
</g>
<!-- Node14 -->
<g id="Node000014" class="node">
<title>Node14</title>
<g id="a_Node000014"><a xlink:href="classAmcCarrierFsbl.html" target="_top" xlink:title=" ">
<polygon fill="white" stroke="#bfbfbf" points="794,-130 702,-130 702,-111 794,-111 794,-130"/>
<text text-anchor="middle" x="748" y="-118" font-family="Helvetica,sans-Serif" font-size="10.00">AmcCarrierFsbl</text>
</a>
</g>
</g>
<!-- Node1&#45;&gt;Node14 -->
<g id="edge13_Node000001_Node000014" class="edge">
<title>Node1&#45;&gt;Node14</title>
<g id="a_edge13_Node000001_Node000014"><a xlink:title=" ">
<path fill="none" stroke="#63b8ff" d="M674.99,-109.6C683.93,-110.95 693.12,-112.34 701.83,-113.66"/>
<polygon fill="#63b8ff" stroke="#63b8ff" points="675.45,-106.13 665.04,-108.09 674.4,-113.05 675.45,-106.13"/>
</a>
</g>
</g>
<!-- Node16 -->
<g id="Node000016" class="node">
<title>Node16</title>
<g id="a_Node000016"><a xlink:href="classAmcCarrierCore.html" target="_top" xlink:title=" ">
<polygon fill="white" stroke="#bfbfbf" points="795,-93 701,-93 701,-74 795,-74 795,-93"/>
<text text-anchor="middle" x="748" y="-81" font-family="Helvetica,sans-Serif" font-size="10.00">AmcCarrierCore</text>
</a>
</g>
</g>
<!-- Node1&#45;&gt;Node16 -->
<g id="edge15_Node000001_Node000016" class="edge">
<title>Node1&#45;&gt;Node16</title>
<g id="a_edge15_Node000001_Node000016"><a xlink:title=" ">
<path fill="none" stroke="#63b8ff" d="M675.03,-93.82C683.66,-92.58 692.54,-91.31 700.97,-90.1"/>
<polygon fill="#63b8ff" stroke="#63b8ff" points="674.44,-90.37 665.04,-95.25 675.44,-97.3 674.44,-90.37"/>
</a>
</g>
</g>
<!-- Node2 -->
<g id="Node000002" class="node">
<title>Node2</title>
<g id="a_Node000002"><a xlink:href="classBsaWaveformEngine.html" target="_top" xlink:title=" ">
<polygon fill="white" stroke="#bfbfbf" points="523,-204 405,-204 405,-185 523,-185 523,-204"/>
<text text-anchor="middle" x="464" y="-192" font-family="Helvetica,sans-Serif" font-size="10.00">BsaWaveformEngine</text>
</a>
</g>
</g>
<!-- Node2&#45;&gt;Node1 -->
<g id="edge1_Node000001_Node000002" class="edge">
<title>Node2&#45;&gt;Node1</title>
<g id="a_edge1_Node000001_Node000002"><a xlink:title=" ">
<path fill="none" stroke="#63b8ff" d="M529.07,-181.58C532.85,-180.07 536.52,-178.38 540,-176.5 571.21,-159.62 599.24,-127.38 612.09,-111.23"/>
<polygon fill="#63b8ff" stroke="#63b8ff" points="527.76,-178.33 519.52,-184.99 530.11,-184.93 527.76,-178.33"/>
</a>
</g>
</g>
<!-- Node3 -->
<g id="Node000003" class="node">
<title>Node3</title>
<g id="a_Node000003"><a xlink:href="classBsaBufferControl.html" target="_top" xlink:title=" ">
<polygon fill="white" stroke="#bfbfbf" points="513.5,-167 414.5,-167 414.5,-148 513.5,-148 513.5,-167"/>
<text text-anchor="middle" x="464" y="-155" font-family="Helvetica,sans-Serif" font-size="10.00">BsaBufferControl</text>
</a>
</g>
</g>
<!-- Node3&#45;&gt;Node1 -->
<g id="edge2_Node000001_Node000003" class="edge">
<title>Node3&#45;&gt;Node1</title>
<g id="a_edge2_Node000001_Node000003"><a xlink:title=" ">
<path fill="none" stroke="#63b8ff" d="M521.38,-145.33C527.72,-143.56 534.04,-141.61 540,-139.5 562.2,-131.63 586.46,-119.48 602.27,-111.04"/>
<polygon fill="#63b8ff" stroke="#63b8ff" points="520.22,-142.02 511.46,-147.96 522.02,-148.78 520.22,-142.02"/>
</a>
</g>
</g>
<!-- Node4 -->
<g id="Node000004" class="node">
<title>Node4</title>
<g id="a_Node000004"><a xlink:href="classBsaAccumulator.html" target="_top" xlink:title=" ">
<polygon fill="white" stroke="#bfbfbf" points="352,-167 256,-167 256,-148 352,-148 352,-167"/>
<text text-anchor="middle" x="304" y="-155" font-family="Helvetica,sans-Serif" font-size="10.00">BsaAccumulator</text>
</a>
</g>
</g>
<!-- Node4&#45;&gt;Node3 -->
<g id="edge3_Node000003_Node000004" class="edge">
<title>Node4&#45;&gt;Node3</title>
<g id="a_edge3_Node000003_Node000004"><a xlink:title=" ">
<path fill="none" stroke="#63b8ff" d="M362.73,-157.5C379.64,-157.5 397.96,-157.5 414.26,-157.5"/>
<polygon fill="#63b8ff" stroke="#63b8ff" points="362.41,-154 352.41,-157.5 362.41,-161 362.41,-154"/>
</a>
</g>
</g>
<!-- Node5 -->
<g id="Node000005" class="node">
<title>Node5</title>
<g id="a_Node000005"><a xlink:href="classBsssWrapper.html" target="_top" xlink:title=" ">
<polygon fill="white" stroke="#bfbfbf" points="504,-130 424,-130 424,-111 504,-111 504,-130"/>
<text text-anchor="middle" x="464" y="-118" font-family="Helvetica,sans-Serif" font-size="10.00">BsssWrapper</text>
</a>
</g>
</g>
<!-- Node5&#45;&gt;Node1 -->
<g id="edge4_Node000001_Node000005" class="edge">
<title>Node5&#45;&gt;Node1</title>
<g id="a_edge4_Node000001_Node000005"><a xlink:title=" ">
<path fill="none" stroke="#63b8ff" d="M514.42,-114.42C534.16,-111.99 556.7,-109.22 575.83,-106.87"/>
<polygon fill="#63b8ff" stroke="#63b8ff" points="513.88,-110.96 504.39,-115.66 514.74,-117.91 513.88,-110.96"/>
</a>
</g>
</g>
<!-- Node6 -->
<g id="Node000006" class="node">
<title>Node6</title>
<g id="a_Node000006"><a xlink:href="classBsasWrapper.html" target="_top" xlink:title=" ">
<polygon fill="white" stroke="#bfbfbf" points="504.5,-93 423.5,-93 423.5,-74 504.5,-74 504.5,-93"/>
<text text-anchor="middle" x="464" y="-81" font-family="Helvetica,sans-Serif" font-size="10.00">BsasWrapper</text>
</a>
</g>
</g>
<!-- Node6&#45;&gt;Node1 -->
<g id="edge5_Node000001_Node000006" class="edge">
<title>Node6&#45;&gt;Node1</title>
<g id="a_edge5_Node000001_Node000006"><a xlink:title=" ">
<path fill="none" stroke="#63b8ff" d="M514.78,-89.3C534.41,-91.59 556.77,-94.19 575.77,-96.41"/>
<polygon fill="#63b8ff" stroke="#63b8ff" points="515.13,-85.82 504.79,-88.14 514.32,-92.77 515.13,-85.82"/>
</a>
</g>
</g>
<!-- Node7 -->
<g id="Node000007" class="node">
<title>Node7</title>
<g id="a_Node000007"><a xlink:href="classBsasModule.html" target="_top" xlink:title=" ">
<polygon fill="white" stroke="#bfbfbf" points="342,-93 266,-93 266,-74 342,-74 342,-93"/>
<text text-anchor="middle" x="304" y="-81" font-family="Helvetica,sans-Serif" font-size="10.00">BsasModule</text>
</a>
</g>
</g>
<!-- Node7&#45;&gt;Node6 -->
<g id="edge6_Node000006_Node000007" class="edge">
<title>Node7&#45;&gt;Node6</title>
<g id="a_edge6_Node000006_Node000007"><a xlink:title=" ">
<path fill="none" stroke="#63b8ff" d="M352.15,-83.5C374.86,-83.5 401.8,-83.5 423.43,-83.5"/>
<polygon fill="#63b8ff" stroke="#63b8ff" points="352.04,-80 342.04,-83.5 352.04,-87 352.04,-80"/>
</a>
</g>
</g>
<!-- Node8 -->
<g id="Node000008" class="node">
<title>Node8</title>
<g id="a_Node000008"><a xlink:href="classBsasAccumulator.html" target="_top" xlink:title=" ">
<polygon fill="white" stroke="#bfbfbf" points="220,-93 119,-93 119,-74 220,-74 220,-93"/>
<text text-anchor="middle" x="169.5" y="-81" font-family="Helvetica,sans-Serif" font-size="10.00">BsasAccumulator</text>
</a>
</g>
</g>
<!-- Node8&#45;&gt;Node7 -->
<g id="edge7_Node000007_Node000008" class="edge">
<title>Node8&#45;&gt;Node7</title>
<g id="a_edge7_Node000007_Node000008"><a xlink:title=" ">
<path fill="none" stroke="#63b8ff" d="M230.28,-83.5C242.39,-83.5 254.79,-83.5 265.84,-83.5"/>
<polygon fill="#63b8ff" stroke="#63b8ff" points="230.22,-80 220.22,-83.5 230.22,-87 230.22,-80"/>
</a>
</g>
</g>
<!-- Node9 -->
<g id="Node000009" class="node">
<title>Node9</title>
<g id="a_Node000009"><a xlink:href="classBsaAxiInterconnectWrapper.html" target="_top" xlink:title=" ">
<polygon fill="white" stroke="#bfbfbf" points="540,-56 388,-56 388,-37 540,-37 540,-56"/>
<text text-anchor="middle" x="464" y="-44" font-family="Helvetica,sans-Serif" font-size="10.00">BsaAxiInterconnectWrapper</text>
</a>
</g>
</g>
<!-- Node9&#45;&gt;Node1 -->
<g id="edge8_Node000001_Node000009" class="edge">
<title>Node9&#45;&gt;Node1</title>
<g id="a_edge8_Node000001_Node000009"><a xlink:title=" ">
<path fill="none" stroke="#63b8ff" d="M517.95,-58.66C525.42,-60.74 532.95,-63.03 540,-65.5 561.45,-73.01 585.06,-84.08 600.93,-91.96"/>
<polygon fill="#63b8ff" stroke="#63b8ff" points="518.79,-55.26 508.22,-56.06 516.98,-62.02 518.79,-55.26"/>
</a>
</g>
</g>
<!-- Node10 -->
<g id="Node000010" class="node">
<title>Node10</title>
<g id="a_Node000010"><a xlink:href="classBldWrapper.html" target="_top" xlink:title=" ">
<polygon fill="white" stroke="#bfbfbf" points="501,-19 427,-19 427,0 501,0 501,-19"/>
<text text-anchor="middle" x="464" y="-7" font-family="Helvetica,sans-Serif" font-size="10.00">BldWrapper</text>
</a>
</g>
</g>
<!-- Node10&#45;&gt;Node1 -->
<g id="edge9_Node000001_Node000010" class="edge">
<title>Node10&#45;&gt;Node1</title>
<g id="a_edge9_Node000001_Node000010"><a xlink:title=" ">
<path fill="none" stroke="#63b8ff" d="M510.87,-17.3C520.83,-20.02 531.05,-23.66 540,-28.5 570.66,-45.07 598.74,-76.1 611.8,-91.83"/>
<polygon fill="#63b8ff" stroke="#63b8ff" points="511.61,-13.88 501.06,-14.87 509.93,-20.67 511.61,-13.88"/>
</a>
</g>
</g>
<!-- Node11 -->
<g id="Node000011" class="node">
<title>Node11</title>
<g id="a_Node000011"><a xlink:href="classBldAxiStream.html" target="_top" xlink:title=" ">
<polygon fill="white" stroke="#bfbfbf" points="345.5,-19 262.5,-19 262.5,0 345.5,0 345.5,-19"/>
<text text-anchor="middle" x="304" y="-7" font-family="Helvetica,sans-Serif" font-size="10.00">BldAxiStream</text>
</a>
</g>
</g>
<!-- Node11&#45;&gt;Node10 -->
<g id="edge10_Node000010_Node000011" class="edge">
<title>Node11&#45;&gt;Node10</title>
<g id="a_edge10_Node000010_Node000011"><a xlink:title=" ">
<path fill="none" stroke="#63b8ff" d="M356,-9.5C379.06,-9.5 405.79,-9.5 426.76,-9.5"/>
<polygon fill="#63b8ff" stroke="#63b8ff" points="355.69,-6 345.69,-9.5 355.69,-13 355.69,-6"/>
</a>
</g>
</g>
<!-- Node12 -->
<g id="Node000012" class="node">
<title>Node12</title>
<g id="a_Node000012"><a xlink:href="classBldEventSelect.html" target="_top" xlink:title=" ">
<polygon fill="white" stroke="#bfbfbf" points="214.5,-19 124.5,-19 124.5,0 214.5,0 214.5,-19"/>
<text text-anchor="middle" x="169.5" y="-7" font-family="Helvetica,sans-Serif" font-size="10.00">BldEventSelect</text>
</a>
</g>
</g>
<!-- Node12&#45;&gt;Node11 -->
<g id="edge11_Node000011_Node000012" class="edge">
<title>Node12&#45;&gt;Node11</title>
<g id="a_edge11_Node000011_Node000012"><a xlink:title=" ">
<path fill="none" stroke="#63b8ff" d="M224.92,-9.5C237.38,-9.5 250.43,-9.5 262.2,-9.5"/>
<polygon fill="#63b8ff" stroke="#63b8ff" points="224.62,-6 214.62,-9.5 224.62,-13 224.62,-6"/>
</a>
</g>
</g>
<!-- Node13 -->
<g id="Node000013" class="node">
<title>Node13</title>
<g id="a_Node000013"><a xlink:href="classBldEventRAM.html" target="_top" xlink:title=" ">
<polygon fill="white" stroke="#bfbfbf" points="83,-19 0,-19 0,0 83,0 83,-19"/>
<text text-anchor="middle" x="41.5" y="-7" font-family="Helvetica,sans-Serif" font-size="10.00">BldEventRAM</text>
</a>
</g>
</g>
<!-- Node13&#45;&gt;Node12 -->
<g id="edge12_Node000012_Node000013" class="edge">
<title>Node13&#45;&gt;Node12</title>
<g id="a_edge12_Node000012_Node000013"><a xlink:title=" ">
<path fill="none" stroke="#63b8ff" d="M93.12,-9.5C103.37,-9.5 114.07,-9.5 124.09,-9.5"/>
<polygon fill="#63b8ff" stroke="#63b8ff" points="93.06,-6 83.06,-9.5 93.06,-13 93.06,-6"/>
</a>
</g>
</g>
<!-- Node15 -->
<g id="Node000015" class="node">
<title>Node15</title>
<g id="a_Node000015"><a xlink:href="classAmcCarrierCoreFsbl.html" target="_top" xlink:title=" ">
<polygon fill="white" stroke="#bfbfbf" points="947,-130 833,-130 833,-111 947,-111 947,-130"/>
<text text-anchor="middle" x="890" y="-118" font-family="Helvetica,sans-Serif" font-size="10.00">AmcCarrierCoreFsbl</text>
</a>
</g>
</g>
<!-- Node14&#45;&gt;Node15 -->
<g id="edge14_Node000014_Node000015" class="edge">
<title>Node14&#45;&gt;Node15</title>
<g id="a_edge14_Node000014_Node000015"><a xlink:title=" ">
<path fill="none" stroke="#63b8ff" d="M804.16,-120.5C813.63,-120.5 823.48,-120.5 832.97,-120.5"/>
<polygon fill="#63b8ff" stroke="#63b8ff" points="804.07,-117 794.07,-120.5 804.07,-124 804.07,-117"/>
</a>
</g>
</g>
<!-- Node17 -->
<g id="Node000017" class="node">
<title>Node17</title>
<g id="a_Node000017"><a xlink:href="classAmcCarrierCoreAdv.html" target="_top" xlink:title=" ">
<polygon fill="white" stroke="#bfbfbf" points="946.5,-93 833.5,-93 833.5,-74 946.5,-74 946.5,-93"/>
<text text-anchor="middle" x="890" y="-81" font-family="Helvetica,sans-Serif" font-size="10.00">AmcCarrierCoreAdv</text>
</a>
</g>
</g>
<!-- Node16&#45;&gt;Node17 -->
<g id="edge16_Node000016_Node000017" class="edge">
<title>Node16&#45;&gt;Node17</title>
<g id="a_edge16_Node000016_Node000017"><a xlink:title=" ">
<path fill="none" stroke="#63b8ff" d="M805.37,-83.5C814.5,-83.5 823.95,-83.5 833.07,-83.5"/>
<polygon fill="#63b8ff" stroke="#63b8ff" points="805.23,-80 795.23,-83.5 805.23,-87 805.23,-80"/>
</a>
</g>
</g>
<!-- Node18 -->
<g id="Node000018" class="node">
<title>Node18</title>
<g id="a_Node000018"><a xlink:href="classAmcCarrierCoreBase.html" target="_top" xlink:title=" ">
<polygon fill="white" stroke="#bfbfbf" points="949,-56 831,-56 831,-37 949,-37 949,-56"/>
<text text-anchor="middle" x="890" y="-44" font-family="Helvetica,sans-Serif" font-size="10.00">AmcCarrierCoreBase</text>
</a>
</g>
</g>
<!-- Node16&#45;&gt;Node18 -->
<g id="edge17_Node000016_Node000018" class="edge">
<title>Node16&#45;&gt;Node18</title>
<g id="a_edge17_Node000016_Node000018"><a xlink:title=" ">
<path fill="none" stroke="#63b8ff" d="M794.86,-71.38C813.59,-66.43 834.95,-60.78 852.58,-56.12"/>
<polygon fill="#63b8ff" stroke="#63b8ff" points="793.83,-68.03 785.05,-73.97 795.62,-74.8 793.83,-68.03"/>
</a>
</g>
</g>
</g>
</svg>

<g id="navigator" transform="translate(0 0)" fill="#404254">
  <rect fill="#f2f5e9" fill-opacity="0.5" stroke="#606060" stroke-width=".5" x="0" y="0" width="60" height="60"/>
  <use id="zoomplus" xlink:href="#zoomPlus" x="17" y="9" onmousedown="handleZoom(evt,'in')"/>
  <use id="zoomminus" xlink:href="#zoomMin" x="42" y="9" onmousedown="handleZoom(evt,'out')"/>
  <use id="reset" xlink:href="#resetDef" x="30" y="36" onmousedown="handleReset()"/>
   <use id="arrowup" xlink:href="#arrowUp" x="0" y="0" onmousedown="handlePan(0,-1)"/>
  <use id="arrowright" xlink:href="#arrowRight" x="0" y="0" onmousedown="handlePan(1,0)"/>
  <use id="arrowdown" xlink:href="#arrowDown" x="0" y="0" onmousedown="handlePan(0,1)"/>
  <use id="arrowleft" xlink:href="#arrowLeft" x="0" y="0" onmousedown="handlePan(-1,0)"/>
</g>
<svg viewBox="0 0 15 15" width="100%" height="30px" preserveAspectRatio="xMaxYMin meet">
 <g id="arrow_out" transform="scale(0.3 0.3)">
  <a xlink:href="classAmcCarrierBsa__inherit__graph_org.svg" target="_base">
   <rect id="button" ry="5" rx="5" y="6" x="6" height="38" width="38"
        fill="#f2f5e9" fill-opacity="0.5" stroke="#606060" stroke-width="1.0"/>
   <path id="arrow"
     d="M 11.500037,31.436501 C 11.940474,20.09759 22.043105,11.32322 32.158766,21.979434 L 37.068811,17.246167 C 37.068811,17.246167 37.088388,32 37.088388,32 L 22.160133,31.978069 C 22.160133,31.978069 26.997745,27.140456 26.997745,27.140456 C 18.528582,18.264221 13.291696,25.230495 11.500037,31.436501 z"
     style="fill:#404040;"/>
  </a>
 </g>
</svg>

<style type='text/css'>
<![CDATA[
[data-mouse-over-selected='false'] { opacity: 0.7; }
[data-mouse-over-selected='true']  { opacity: 1.0; }
]]>
</style>
<script type="application/ecmascript"><![CDATA[
document.addEventListener('DOMContentLoaded', (event) => {
  highlightEdges();
  highlightAdjacentNodes();
});
]]></script>
</svg>
