<?xml version="1.0" encoding="UTF-8" standalone="no"?>
<!DOCTYPE svg PUBLIC "-//W3C//DTD SVG 1.1//EN"
 "http://www.w3.org/Graphics/SVG/1.1/DTD/svg11.dtd">
<!-- Generated by graphviz version 2.43.0 (0)
 -->
<!-- Title: DacSigGenLane Pages: 1 -->
<svg width="160pt" height="140pt"
 viewBox="0.00 0.00 160.00 140.00" xmlns="http://www.w3.org/2000/svg" xmlns:xlink="http://www.w3.org/1999/xlink">
<g id="graph0" class="graph" transform="scale(1 1) rotate(0) translate(4 136)">
<title>DacSigGenLane</title>
<polygon fill="white" stroke="transparent" points="-4,4 -4,-136 156,-136 156,4 -4,4"/>
<!-- Node1 -->
<g id="node1" class="node">
<title>Node1</title>
<g id="a_node1"><a xlink:title=" ">
<polygon fill="#bfbfbf" stroke="black" points="21.5,-112.5 21.5,-131.5 114.5,-131.5 114.5,-112.5 21.5,-112.5"/>
<text text-anchor="middle" x="68" y="-119.5" font-family="Helvetica,sans-Serif" font-size="10.00">DacSigGenLane</text>
</a>
</g>
</g>
<!-- Node2 -->
<g id="node2" class="node">
<title>Node2</title>
<g id="a_node2"><a xlink:href="classDacSigGen.html" target="_top" xlink:title=" ">
<polygon fill="white" stroke="black" points="33,-56.5 33,-75.5 103,-75.5 103,-56.5 33,-56.5"/>
<text text-anchor="middle" x="68" y="-63.5" font-family="Helvetica,sans-Serif" font-size="10.00">DacSigGen</text>
</a>
</g>
</g>
<!-- Node1&#45;&gt;Node2 -->
<g id="edge1" class="edge">
<title>Node1&#45;&gt;Node2</title>
<path fill="none" stroke="midnightblue" d="M68,-101.8C68,-92.91 68,-82.78 68,-75.75"/>
<polygon fill="midnightblue" stroke="midnightblue" points="64.5,-102.08 68,-112.08 71.5,-102.08 64.5,-102.08"/>
</g>
<!-- Node3 -->
<g id="node3" class="node">
<title>Node3</title>
<g id="a_node3"><a xlink:href="classAppTop.html" target="_top" xlink:title=" ">
<polygon fill="white" stroke="black" points="0,-0.5 0,-19.5 52,-19.5 52,-0.5 0,-0.5"/>
<text text-anchor="middle" x="26" y="-7.5" font-family="Helvetica,sans-Serif" font-size="10.00">AppTop</text>
</a>
</g>
</g>
<!-- Node2&#45;&gt;Node3 -->
<g id="edge2" class="edge">
<title>Node2&#45;&gt;Node3</title>
<path fill="none" stroke="midnightblue" d="M54.89,-48.14C47.57,-38.74 38.76,-27.4 32.81,-19.75"/>
<polygon fill="midnightblue" stroke="midnightblue" points="52.16,-50.34 61.06,-56.08 57.69,-46.04 52.16,-50.34"/>
</g>
<!-- Node4 -->
<g id="node4" class="node">
<title>Node4</title>
<g id="a_node4"><a xlink:href="classDacSigGenTb.html" target="_top" xlink:title=" ">
<polygon fill="white" stroke="black" points="70,-0.5 70,-19.5 152,-19.5 152,-0.5 70,-0.5"/>
<text text-anchor="middle" x="111" y="-7.5" font-family="Helvetica,sans-Serif" font-size="10.00">DacSigGenTb</text>
</a>
</g>
</g>
<!-- Node2&#45;&gt;Node4 -->
<g id="edge3" class="edge">
<title>Node2&#45;&gt;Node4</title>
<path fill="none" stroke="midnightblue" d="M81.42,-48.14C88.91,-38.74 97.94,-27.4 104.03,-19.75"/>
<polygon fill="midnightblue" stroke="midnightblue" points="78.59,-46.08 75.1,-56.08 84.07,-50.44 78.59,-46.08"/>
</g>
</g>
</svg>
