<?xml version="1.0" encoding="UTF-8" standalone="no"?>
<!DOCTYPE svg PUBLIC "-//W3C//DTD SVG 1.1//EN"
 "http://www.w3.org/Graphics/SVG/1.1/DTD/svg11.dtd">
<!-- Generated by graphviz version 2.43.0 (0)
 -->
<!-- Title: Graphical Class Hierarchy Pages: 1 -->
<svg width="615pt" height="623pt"
 viewBox="0.00 0.00 615.00 623.00" xmlns="http://www.w3.org/2000/svg" xmlns:xlink="http://www.w3.org/1999/xlink">
<g id="graph0" class="graph" transform="scale(1 1) rotate(0) translate(4 619)">
<title>Graphical Class Hierarchy</title>
<!-- Node0 -->
<g id="Node000000" class="node">
<title>Node0</title>
<g id="a_Node000000"><a xlink:href="classadf5355.html" target="_top" xlink:title=" ">
<polygon fill="white" stroke="#666666" points="123.5,-615 67.5,-615 67.5,-596 123.5,-596 123.5,-615"/>
<text text-anchor="middle" x="95.5" y="-603" font-family="Helvetica,sans-Serif" font-size="10.00">adf5355</text>
</a>
</g>
</g>
<!-- Node1 -->
<g id="Node000001" class="node">
<title>Node1</title>
<g id="a_Node000001"><a xlink:href="classAmcMicrowaveMuxCore.html" target="_top" xlink:title=" ">
<polygon fill="white" stroke="#666666" points="387.5,-541 252.5,-541 252.5,-522 387.5,-522 387.5,-541"/>
<text text-anchor="middle" x="320" y="-529" font-family="Helvetica,sans-Serif" font-size="10.00">AmcMicrowaveMuxCore</text>
</a>
</g>
</g>
<!-- Node0&#45;&gt;Node1 -->
<g id="edge9_Node000000_Node000001" class="edge">
<title>Node0&#45;&gt;Node1</title>
<g id="a_edge9_Node000000_Node000001"><a xlink:title=" ">
<path fill="none" stroke="#63b8ff" d="M133.68,-600.39C151.28,-597.48 172.46,-593.24 191,-587.5 231.32,-575.01 275.96,-553.63 300.42,-541.21"/>
<polygon fill="#63b8ff" stroke="#63b8ff" points="133.11,-596.94 123.78,-601.96 134.2,-603.86 133.11,-596.94"/>
</a>
</g>
</g>
<!-- Node33 -->
<g id="Node000033" class="node">
<title>Node33</title>
<g id="a_Node000033"><a xlink:href="classAdf5355Tb.html" target="_top" xlink:title=" ">
<polygon fill="white" stroke="#666666" points="354.5,-615 285.5,-615 285.5,-596 354.5,-596 354.5,-615"/>
<text text-anchor="middle" x="320" y="-603" font-family="Helvetica,sans-Serif" font-size="10.00">Adf5355Tb</text>
</a>
</g>
</g>
<!-- Node0&#45;&gt;Node33 -->
<g id="edge11_Node000000_Node000033" class="edge">
<title>Node0&#45;&gt;Node33</title>
<g id="a_edge11_Node000000_Node000033"><a xlink:title=" ">
<path fill="none" stroke="#63b8ff" d="M133.95,-605.5C176.29,-605.5 244.6,-605.5 285.31,-605.5"/>
<polygon fill="#63b8ff" stroke="#63b8ff" points="133.78,-602 123.78,-605.5 133.78,-609 133.78,-602"/>
</a>
</g>
</g>
<!-- Node2 -->
<g id="Node000002" class="node">
<title>Node2</title>
<g id="a_Node000002"><a xlink:href="classAmcMicrowaveMuxDualCore.html" target="_top" xlink:title=" ">
<polygon fill="white" stroke="#666666" points="607,-541 449,-541 449,-522 607,-522 607,-541"/>
<text text-anchor="middle" x="528" y="-529" font-family="Helvetica,sans-Serif" font-size="10.00">AmcMicrowaveMuxDualCore</text>
</a>
</g>
</g>
<!-- Node1&#45;&gt;Node2 -->
<g id="edge10_Node000001_Node000002" class="edge">
<title>Node1&#45;&gt;Node2</title>
<g id="a_edge10_Node000001_Node000002"><a xlink:title=" ">
<path fill="none" stroke="#63b8ff" d="M397.82,-531.5C414.47,-531.5 432.09,-531.5 448.79,-531.5"/>
<polygon fill="#63b8ff" stroke="#63b8ff" points="397.6,-528 387.6,-531.5 397.6,-535 397.6,-528"/>
</a>
</g>
</g>
<!-- Node31 -->
<g id="Node000031" class="node">
<title>Node31</title>
<g id="a_Node000031"><a xlink:href="classAmcBpmCtrl.html" target="_top" xlink:title=" ">
<polygon fill="white" stroke="#666666" points="134.5,-504 56.5,-504 56.5,-485 134.5,-485 134.5,-504"/>
<text text-anchor="middle" x="95.5" y="-492" font-family="Helvetica,sans-Serif" font-size="10.00">AmcBpmCtrl</text>
</a>
</g>
</g>
<!-- Node29 -->
<g id="Node000029" class="node">
<title>Node29</title>
<g id="a_Node000029"><a xlink:href="classAmcStriplineBpmCore.html" target="_top" xlink:title=" ">
<polygon fill="white" stroke="#666666" points="382,-504 258,-504 258,-485 382,-485 382,-504"/>
<text text-anchor="middle" x="320" y="-492" font-family="Helvetica,sans-Serif" font-size="10.00">AmcStriplineBpmCore</text>
</a>
</g>
</g>
<!-- Node31&#45;&gt;Node29 -->
<g id="edge12_Node000031_Node000029" class="edge">
<title>Node31&#45;&gt;Node29</title>
<g id="a_edge12_Node000031_Node000029"><a xlink:title=" ">
<path fill="none" stroke="#63b8ff" d="M145.09,-494.5C178.19,-494.5 222.28,-494.5 257.78,-494.5"/>
<polygon fill="#63b8ff" stroke="#63b8ff" points="144.75,-491 134.75,-494.5 144.75,-498 144.75,-491"/>
</a>
</g>
</g>
<!-- Node30 -->
<g id="Node000030" class="node">
<title>Node30</title>
<g id="a_Node000030"><a xlink:href="classAmcStriplineBpmDualCore.html" target="_top" xlink:title=" ">
<polygon fill="white" stroke="#666666" points="601,-504 455,-504 455,-485 601,-485 601,-504"/>
<text text-anchor="middle" x="528" y="-492" font-family="Helvetica,sans-Serif" font-size="10.00">AmcStriplineBpmDualCore</text>
</a>
</g>
</g>
<!-- Node29&#45;&gt;Node30 -->
<g id="edge13_Node000029_Node000030" class="edge">
<title>Node29&#45;&gt;Node30</title>
<g id="a_edge13_Node000029_Node000030"><a xlink:title=" ">
<path fill="none" stroke="#63b8ff" d="M392.31,-494.5C412.5,-494.5 434.49,-494.5 454.73,-494.5"/>
<polygon fill="#63b8ff" stroke="#63b8ff" points="392.25,-491 382.25,-494.5 392.25,-498 392.25,-491"/>
</a>
</g>
</g>
<!-- Node32 -->
<g id="Node000032" class="node">
<title>Node32</title>
<g id="a_Node000032"><a xlink:href="classAmcBpmDacVcoSpi.html" target="_top" xlink:title=" ">
<polygon fill="white" stroke="#666666" points="152,-467 39,-467 39,-448 152,-448 152,-467"/>
<text text-anchor="middle" x="95.5" y="-455" font-family="Helvetica,sans-Serif" font-size="10.00">AmcBpmDacVcoSpi</text>
</a>
</g>
</g>
<!-- Node32&#45;&gt;Node29 -->
<g id="edge14_Node000032_Node000029" class="edge">
<title>Node32&#45;&gt;Node29</title>
<g id="a_edge14_Node000032_Node000029"><a xlink:title=" ">
<path fill="none" stroke="#63b8ff" d="M162.12,-468.41C193.76,-473.67 231.36,-479.93 261.81,-484.99"/>
<polygon fill="#63b8ff" stroke="#63b8ff" points="162.51,-464.93 152.07,-466.74 161.36,-471.83 162.51,-464.93"/>
</a>
</g>
</g>
<!-- Node17 -->
<g id="Node000017" class="node">
<title>Node17</title>
<g id="a_Node000017"><a xlink:href="classAmcClkFreqReg.html" target="_top" xlink:title=" ">
<polygon fill="white" stroke="#666666" points="367,-317 273,-317 273,-298 367,-298 367,-317"/>
<text text-anchor="middle" x="320" y="-305" font-family="Helvetica,sans-Serif" font-size="10.00">AmcClkFreqReg</text>
</a>
</g>
</g>
<!-- Node16 -->
<g id="Node000016" class="node">
<title>Node16</title>
<g id="a_Node000016"><a xlink:href="classAmcMrLlrfDownConvertCore.html" target="_top" xlink:title=" ">
<polygon fill="white" stroke="#666666" points="605.5,-280 450.5,-280 450.5,-261 605.5,-261 605.5,-280"/>
<text text-anchor="middle" x="528" y="-268" font-family="Helvetica,sans-Serif" font-size="10.00">AmcMrLlrfDownConvertCore</text>
</a>
</g>
</g>
<!-- Node17&#45;&gt;Node16 -->
<g id="edge15_Node000017_Node000016" class="edge">
<title>Node17&#45;&gt;Node16</title>
<g id="a_edge15_Node000017_Node000016"><a xlink:title=" ">
<path fill="none" stroke="#63b8ff" d="M377.18,-297.41C407.36,-291.99 444.35,-285.35 474.02,-280.02"/>
<polygon fill="#63b8ff" stroke="#63b8ff" points="376.45,-293.98 367.23,-299.2 377.69,-300.87 376.45,-293.98"/>
</a>
</g>
</g>
<!-- Node18 -->
<g id="Node000018" class="node">
<title>Node18</title>
<g id="a_Node000018"><a xlink:href="classAmcMrLlrfGen2UpConvert.html" target="_top" xlink:title=" ">
<polygon fill="white" stroke="#666666" points="600,-317 456,-317 456,-298 600,-298 600,-317"/>
<text text-anchor="middle" x="528" y="-305" font-family="Helvetica,sans-Serif" font-size="10.00">AmcMrLlrfGen2UpConvert</text>
</a>
</g>
</g>
<!-- Node17&#45;&gt;Node18 -->
<g id="edge16_Node000017_Node000018" class="edge">
<title>Node17&#45;&gt;Node18</title>
<g id="a_edge16_Node000017_Node000018"><a xlink:title=" ">
<path fill="none" stroke="#63b8ff" d="M377.33,-307.5C401.56,-307.5 430.16,-307.5 455.84,-307.5"/>
<polygon fill="#63b8ff" stroke="#63b8ff" points="377.23,-304 367.23,-307.5 377.23,-311 377.23,-304"/>
</a>
</g>
</g>
<!-- Node20 -->
<g id="Node000020" class="node">
<title>Node20</title>
<g id="a_Node000020"><a xlink:href="classAmcMrLlrfUpConvertCore.html" target="_top" xlink:title=" ">
<polygon fill="white" stroke="#666666" points="598.5,-243 457.5,-243 457.5,-224 598.5,-224 598.5,-243"/>
<text text-anchor="middle" x="528" y="-231" font-family="Helvetica,sans-Serif" font-size="10.00">AmcMrLlrfUpConvertCore</text>
</a>
</g>
</g>
<!-- Node17&#45;&gt;Node20 -->
<g id="edge17_Node000017_Node000020" class="edge">
<title>Node17&#45;&gt;Node20</title>
<g id="a_edge17_Node000017_Node000020"><a xlink:title=" ">
<path fill="none" stroke="#63b8ff" d="M377.46,-302.03C389.67,-299.34 402.15,-295.37 413,-289.5 433.18,-278.58 429.08,-263.88 449,-252.5 455.78,-248.63 463.32,-245.54 470.97,-243.08"/>
<polygon fill="#63b8ff" stroke="#63b8ff" points="376.47,-298.65 367.32,-303.99 377.8,-305.53 376.47,-298.65"/>
</a>
</g>
</g>
<!-- Node8 -->
<g id="Node000008" class="node">
<title>Node8</title>
<g id="a_Node000008"><a xlink:href="classAmcCryoCoreCtrl.html" target="_top" xlink:title=" ">
<polygon fill="white" stroke="#666666" points="146,-430 45,-430 45,-411 146,-411 146,-430"/>
<text text-anchor="middle" x="95.5" y="-418" font-family="Helvetica,sans-Serif" font-size="10.00">AmcCryoCoreCtrl</text>
</a>
</g>
</g>
<!-- Node6 -->
<g id="Node000006" class="node">
<title>Node6</title>
<g id="a_Node000006"><a xlink:href="classAmcCryoCore.html" target="_top" xlink:title=" ">
<polygon fill="white" stroke="#666666" points="361.5,-467 278.5,-467 278.5,-448 361.5,-448 361.5,-467"/>
<text text-anchor="middle" x="320" y="-455" font-family="Helvetica,sans-Serif" font-size="10.00">AmcCryoCore</text>
</a>
</g>
</g>
<!-- Node8&#45;&gt;Node6 -->
<g id="edge18_Node000008_Node000006" class="edge">
<title>Node8&#45;&gt;Node6</title>
<g id="a_edge18_Node000008_Node000006"><a xlink:title=" ">
<path fill="none" stroke="#63b8ff" d="M156.25,-430.44C194.93,-436.87 244.26,-445.07 278.42,-450.75"/>
<polygon fill="#63b8ff" stroke="#63b8ff" points="156.6,-426.95 146.16,-428.76 155.45,-433.85 156.6,-426.95"/>
</a>
</g>
</g>
<!-- Node7 -->
<g id="Node000007" class="node">
<title>Node7</title>
<g id="a_Node000007"><a xlink:href="classAmcCryoDualCore.html" target="_top" xlink:title=" ">
<polygon fill="white" stroke="#666666" points="581,-467 475,-467 475,-448 581,-448 581,-467"/>
<text text-anchor="middle" x="528" y="-455" font-family="Helvetica,sans-Serif" font-size="10.00">AmcCryoDualCore</text>
</a>
</g>
</g>
<!-- Node6&#45;&gt;Node7 -->
<g id="edge19_Node000006_Node000007" class="edge">
<title>Node6&#45;&gt;Node7</title>
<g id="a_edge19_Node000006_Node000007"><a xlink:title=" ">
<path fill="none" stroke="#63b8ff" d="M371.94,-457.5C403.2,-457.5 443.13,-457.5 474.64,-457.5"/>
<polygon fill="#63b8ff" stroke="#63b8ff" points="371.7,-454 361.7,-457.5 371.7,-461 371.7,-454"/>
</a>
</g>
</g>
<!-- Node14 -->
<g id="Node000014" class="node">
<title>Node14</title>
<g id="a_Node000014"><a xlink:href="classAmcGenericAdcDacCtrl.html" target="_top" xlink:title=" ">
<polygon fill="white" stroke="#666666" points="160.5,-93 30.5,-93 30.5,-74 160.5,-74 160.5,-93"/>
<text text-anchor="middle" x="95.5" y="-81" font-family="Helvetica,sans-Serif" font-size="10.00">AmcGenericAdcDacCtrl</text>
</a>
</g>
</g>
<!-- Node12 -->
<g id="Node000012" class="node">
<title>Node12</title>
<g id="a_Node000012"><a xlink:href="classAmcGenericAdcDacCore.html" target="_top" xlink:title=" ">
<polygon fill="white" stroke="#666666" points="387.5,-93 252.5,-93 252.5,-74 387.5,-74 387.5,-93"/>
<text text-anchor="middle" x="320" y="-81" font-family="Helvetica,sans-Serif" font-size="10.00">AmcGenericAdcDacCore</text>
</a>
</g>
</g>
<!-- Node14&#45;&gt;Node12 -->
<g id="edge20_Node000014_Node000012" class="edge">
<title>Node14&#45;&gt;Node12</title>
<g id="a_edge20_Node000014_Node000012"><a xlink:title=" ">
<path fill="none" stroke="#63b8ff" d="M170.86,-83.5C197.2,-83.5 226.64,-83.5 252.3,-83.5"/>
<polygon fill="#63b8ff" stroke="#63b8ff" points="170.56,-80 160.56,-83.5 170.56,-87 170.56,-80"/>
</a>
</g>
</g>
<!-- Node13 -->
<g id="Node000013" class="node">
<title>Node13</title>
<g id="a_Node000013"><a xlink:href="classAmcGenericAdcDacDualCore.html" target="_top" xlink:title=" ">
<polygon fill="white" stroke="#666666" points="607,-93 449,-93 449,-74 607,-74 607,-93"/>
<text text-anchor="middle" x="528" y="-81" font-family="Helvetica,sans-Serif" font-size="10.00">AmcGenericAdcDacDualCore</text>
</a>
</g>
</g>
<!-- Node12&#45;&gt;Node13 -->
<g id="edge21_Node000012_Node000013" class="edge">
<title>Node12&#45;&gt;Node13</title>
<g id="a_edge21_Node000012_Node000013"><a xlink:title=" ">
<path fill="none" stroke="#63b8ff" d="M397.82,-83.5C414.47,-83.5 432.09,-83.5 448.79,-83.5"/>
<polygon fill="#63b8ff" stroke="#63b8ff" points="397.6,-80 387.6,-83.5 397.6,-87 397.6,-80"/>
</a>
</g>
</g>
<!-- Node15 -->
<g id="Node000015" class="node">
<title>Node15</title>
<g id="a_Node000015"><a xlink:href="classAmcGenericAdcDacVcoSpi.html" target="_top" xlink:title=" ">
<polygon fill="white" stroke="#666666" points="168.5,-130 22.5,-130 22.5,-111 168.5,-111 168.5,-130"/>
<text text-anchor="middle" x="95.5" y="-118" font-family="Helvetica,sans-Serif" font-size="10.00">AmcGenericAdcDacVcoSpi</text>
</a>
</g>
</g>
<!-- Node15&#45;&gt;Node12 -->
<g id="edge22_Node000015_Node000012" class="edge">
<title>Node15&#45;&gt;Node12</title>
<g id="a_edge22_Node000015_Node000012"><a xlink:title=" ">
<path fill="none" stroke="#63b8ff" d="M163.72,-109.32C194.92,-104.13 231.62,-98.03 261.51,-93.06"/>
<polygon fill="#63b8ff" stroke="#63b8ff" points="163.09,-105.88 153.8,-110.97 164.24,-112.78 163.09,-105.88"/>
</a>
</g>
</g>
<!-- Node3 -->
<g id="Node000003" class="node">
<title>Node3</title>
<g id="a_Node000003"><a xlink:href="classAmcMicrowaveMuxCoreCtrl.html" target="_top" xlink:title=" ">
<polygon fill="white" stroke="#666666" points="171.5,-578 19.5,-578 19.5,-559 171.5,-559 171.5,-578"/>
<text text-anchor="middle" x="95.5" y="-566" font-family="Helvetica,sans-Serif" font-size="10.00">AmcMicrowaveMuxCoreCtrl</text>
</a>
</g>
</g>
<!-- Node3&#45;&gt;Node1 -->
<g id="edge23_Node000003_Node000001" class="edge">
<title>Node3&#45;&gt;Node1</title>
<g id="a_edge23_Node000003_Node000001"><a xlink:title=" ">
<path fill="none" stroke="#63b8ff" d="M163.72,-557.32C194.92,-552.13 231.62,-546.03 261.51,-541.06"/>
<polygon fill="#63b8ff" stroke="#63b8ff" points="163.09,-553.88 153.8,-558.97 164.24,-560.78 163.09,-553.88"/>
</a>
</g>
</g>
<!-- Node28 -->
<g id="Node000028" class="node">
<title>Node28</title>
<g id="a_Node000028"><a xlink:href="classAmcMrLlrfDownConvertDacMuxReg.html" target="_top" xlink:title=" ">
<polygon fill="white" stroke="#666666" points="191,-167 0,-167 0,-148 191,-148 191,-167"/>
<text text-anchor="middle" x="95.5" y="-155" font-family="Helvetica,sans-Serif" font-size="10.00">AmcMrLlrfDownConvertDacMuxReg</text>
</a>
</g>
</g>
<!-- Node27 -->
<g id="Node000027" class="node">
<title>Node27</title>
<g id="a_Node000027"><a xlink:href="classAmcMrLlrfDownConvertDacMux.html" target="_top" xlink:title=" ">
<polygon fill="white" stroke="#666666" points="406.5,-167 233.5,-167 233.5,-148 406.5,-148 406.5,-167"/>
<text text-anchor="middle" x="320" y="-155" font-family="Helvetica,sans-Serif" font-size="10.00">AmcMrLlrfDownConvertDacMux</text>
</a>
</g>
</g>
<!-- Node28&#45;&gt;Node27 -->
<g id="edge24_Node000028_Node000027" class="edge">
<title>Node28&#45;&gt;Node27</title>
<g id="a_edge24_Node000028_Node000027"><a xlink:title=" ">
<path fill="none" stroke="#63b8ff" d="M201.37,-157.5C212.04,-157.5 222.79,-157.5 233.22,-157.5"/>
<polygon fill="#63b8ff" stroke="#63b8ff" points="201.18,-154 191.18,-157.5 201.18,-161 201.18,-154"/>
</a>
</g>
</g>
<!-- Node27&#45;&gt;Node16 -->
<g id="edge25_Node000027_Node000016" class="edge">
<title>Node27&#45;&gt;Node16</title>
<g id="a_edge25_Node000027_Node000016"><a xlink:title=" ">
<path fill="none" stroke="#63b8ff" d="M395.53,-170.87C401.79,-173.75 407.73,-177.25 413,-181.5 440.55,-203.7 421.14,-230.69 449,-252.5 453.38,-255.93 458.29,-258.72 463.47,-261"/>
<polygon fill="#63b8ff" stroke="#63b8ff" points="396.75,-167.59 386.17,-167.06 394.12,-174.07 396.75,-167.59"/>
</a>
</g>
</g>
<!-- Node19 -->
<g id="Node000019" class="node">
<title>Node19</title>
<g id="a_Node000019"><a xlink:href="classAxiSerAttnMaster.html" target="_top" xlink:title=" ">
<polygon fill="white" stroke="#666666" points="371,-280 269,-280 269,-261 371,-261 371,-280"/>
<text text-anchor="middle" x="320" y="-268" font-family="Helvetica,sans-Serif" font-size="10.00">AxiSerAttnMaster</text>
</a>
</g>
</g>
<!-- Node19&#45;&gt;Node16 -->
<g id="edge26_Node000019_Node000016" class="edge">
<title>Node19&#45;&gt;Node16</title>
<g id="a_edge26_Node000019_Node000016"><a xlink:title=" ">
<path fill="none" stroke="#63b8ff" d="M381.17,-270.5C402.83,-270.5 427.57,-270.5 450.44,-270.5"/>
<polygon fill="#63b8ff" stroke="#63b8ff" points="381.13,-267 371.13,-270.5 381.13,-274 381.13,-267"/>
</a>
</g>
</g>
<!-- Node19&#45;&gt;Node18 -->
<g id="edge27_Node000019_Node000018" class="edge">
<title>Node19&#45;&gt;Node18</title>
<g id="a_edge27_Node000019_Node000018"><a xlink:title=" ">
<path fill="none" stroke="#63b8ff" d="M381.24,-281.32C410.54,-286.58 445.45,-292.85 473.76,-297.94"/>
<polygon fill="#63b8ff" stroke="#63b8ff" points="381.59,-277.83 371.13,-279.5 380.35,-284.72 381.59,-277.83"/>
</a>
</g>
</g>
<!-- Node19&#45;&gt;Node20 -->
<g id="edge28_Node000019_Node000020" class="edge">
<title>Node19&#45;&gt;Node20</title>
<g id="a_edge28_Node000019_Node000020"><a xlink:title=" ">
<path fill="none" stroke="#63b8ff" d="M381.24,-259.68C410.54,-254.42 445.45,-248.15 473.76,-243.06"/>
<polygon fill="#63b8ff" stroke="#63b8ff" points="380.35,-256.28 371.13,-261.5 381.59,-263.17 380.35,-256.28"/>
</a>
</g>
</g>
<!-- Node4 -->
<g id="Node000004" class="node">
<title>Node4</title>
<g id="a_Node000004"><a xlink:href="classhmc305.html" target="_top" xlink:title=" ">
<polygon fill="white" stroke="#666666" points="123.5,-541 67.5,-541 67.5,-522 123.5,-522 123.5,-541"/>
<text text-anchor="middle" x="95.5" y="-529" font-family="Helvetica,sans-Serif" font-size="10.00">hmc305</text>
</a>
</g>
</g>
<!-- Node4&#45;&gt;Node1 -->
<g id="edge29_Node000004_Node000001" class="edge">
<title>Node4&#45;&gt;Node1</title>
<g id="a_edge29_Node000004_Node000001"><a xlink:title=" ">
<path fill="none" stroke="#63b8ff" d="M134.11,-531.5C166.37,-531.5 213.62,-531.5 252.28,-531.5"/>
<polygon fill="#63b8ff" stroke="#63b8ff" points="133.78,-528 123.78,-531.5 133.78,-535 133.78,-528"/>
</a>
</g>
</g>
<!-- Node5 -->
<g id="Node000005" class="node">
<title>Node5</title>
<g id="a_Node000005"><a xlink:href="classJesdSyncIn.html" target="_top" xlink:title=" ">
<polygon fill="white" stroke="#666666" points="130,-392 61,-392 61,-373 130,-373 130,-392"/>
<text text-anchor="middle" x="95.5" y="-380" font-family="Helvetica,sans-Serif" font-size="10.00">JesdSyncIn</text>
</a>
</g>
</g>
<!-- Node5&#45;&gt;Node1 -->
<g id="edge34_Node000005_Node000001" class="edge">
<title>Node5&#45;&gt;Node1</title>
<g id="a_edge34_Node000005_Node000001"><a xlink:title=" ">
<path fill="none" stroke="#63b8ff" d="M140.51,-382.58C158.09,-384.78 177.35,-390.21 191,-402.5 229.55,-437.2 188.19,-479.1 227,-513.5 234.19,-519.87 242.95,-524.26 252.17,-527.24"/>
<polygon fill="#63b8ff" stroke="#63b8ff" points="140.69,-379.09 130.41,-381.64 140.04,-386.05 140.69,-379.09"/>
</a>
</g>
</g>
<!-- Node5&#45;&gt;Node29 -->
<g id="edge40_Node000005_Node000029" class="edge">
<title>Node5&#45;&gt;Node29</title>
<g id="a_edge40_Node000005_Node000029"><a xlink:title=" ">
<path fill="none" stroke="#63b8ff" d="M140.1,-383.6C157.44,-385.98 176.64,-391.28 191,-402.5 219.82,-425.02 198.01,-454.2 227,-476.5 235.9,-483.35 246.69,-487.81 257.7,-490.68"/>
<polygon fill="#63b8ff" stroke="#63b8ff" points="140.48,-380.12 130.16,-382.51 139.72,-387.08 140.48,-380.12"/>
</a>
</g>
</g>
<!-- Node5&#45;&gt;Node16 -->
<g id="edge35_Node000005_Node000016" class="edge">
<title>Node5&#45;&gt;Node16</title>
<g id="a_edge35_Node000005_Node000016"><a xlink:title=" ">
<path fill="none" stroke="#63b8ff" d="M140.55,-391.64C217.14,-406.48 370.75,-431.21 413,-400.5 454.95,-370 410.98,-324.78 449,-289.5 453.09,-285.71 457.8,-282.64 462.85,-280.15"/>
<polygon fill="#63b8ff" stroke="#63b8ff" points="140.76,-388.12 130.27,-389.62 139.41,-394.99 140.76,-388.12"/>
</a>
</g>
</g>
<!-- Node5&#45;&gt;Node6 -->
<g id="edge30_Node000005_Node000006" class="edge">
<title>Node5&#45;&gt;Node6</title>
<g id="a_edge30_Node000005_Node000006"><a xlink:title=" ">
<path fill="none" stroke="#63b8ff" d="M140.19,-387.07C156.72,-389.98 175.32,-394.74 191,-402.5 209.92,-411.87 208.3,-423.69 227,-433.5 242.79,-441.78 261.63,-447.35 278.14,-451.01"/>
<polygon fill="#63b8ff" stroke="#63b8ff" points="140.63,-383.59 130.21,-385.48 139.54,-390.51 140.63,-383.59"/>
</a>
</g>
</g>
<!-- Node5&#45;&gt;Node12 -->
<g id="edge33_Node000005_Node000012" class="edge">
<title>Node5&#45;&gt;Node12</title>
<g id="a_edge33_Node000005_Node000012"><a xlink:title=" ">
<path fill="none" stroke="#63b8ff" d="M140.52,-384.18C158.58,-382.47 178.2,-377.12 191,-363.5 271.5,-277.86 146.28,-186.93 227,-101.5 233.82,-94.28 242.61,-89.48 252.05,-86.36"/>
<polygon fill="#63b8ff" stroke="#63b8ff" points="140.2,-380.69 130.43,-384.79 140.62,-387.68 140.2,-380.69"/>
</a>
</g>
</g>
<!-- Node10 -->
<g id="Node000010" class="node">
<title>Node10</title>
<g id="a_Node000010"><a xlink:href="classAmcCryoDemoCore.html" target="_top" xlink:title=" ">
<polygon fill="white" stroke="#666666" points="376.5,-391 263.5,-391 263.5,-372 376.5,-372 376.5,-391"/>
<text text-anchor="middle" x="320" y="-379" font-family="Helvetica,sans-Serif" font-size="10.00">AmcCryoDemoCore</text>
</a>
</g>
</g>
<!-- Node5&#45;&gt;Node10 -->
<g id="edge31_Node000005_Node000010" class="edge">
<title>Node5&#45;&gt;Node10</title>
<g id="a_edge31_Node000005_Node000010"><a xlink:title=" ">
<path fill="none" stroke="#63b8ff" d="M140.72,-382.3C175.9,-382.14 225.33,-381.92 263.22,-381.75"/>
<polygon fill="#63b8ff" stroke="#63b8ff" points="140.28,-378.8 130.29,-382.35 140.31,-385.8 140.28,-378.8"/>
</a>
</g>
</g>
<!-- Node26 -->
<g id="Node000026" class="node">
<title>Node26</title>
<g id="a_Node000026"><a xlink:href="classAmcMrLlrfGen2UpConvertMapping.html" target="_top" xlink:title=" ">
<polygon fill="white" stroke="#666666" points="413,-354 227,-354 227,-335 413,-335 413,-354"/>
<text text-anchor="middle" x="320" y="-342" font-family="Helvetica,sans-Serif" font-size="10.00">AmcMrLlrfGen2UpConvertMapping</text>
</a>
</g>
</g>
<!-- Node5&#45;&gt;Node26 -->
<g id="edge36_Node000005_Node000026" class="edge">
<title>Node5&#45;&gt;Node26</title>
<g id="a_edge36_Node000005_Node000026"><a xlink:title=" ">
<path fill="none" stroke="#63b8ff" d="M140.27,-375.02C175.47,-369.01 225.16,-360.53 263.22,-354.03"/>
<polygon fill="#63b8ff" stroke="#63b8ff" points="139.56,-371.59 130.29,-376.73 140.74,-378.5 139.56,-371.59"/>
</a>
</g>
</g>
<!-- Node21 -->
<g id="Node000021" class="node">
<title>Node21</title>
<g id="a_Node000021"><a xlink:href="classAmcMrLlrfUpConvertMapping.html" target="_top" xlink:title=" ">
<polygon fill="white" stroke="#666666" points="400.5,-243 239.5,-243 239.5,-224 400.5,-224 400.5,-243"/>
<text text-anchor="middle" x="320" y="-231" font-family="Helvetica,sans-Serif" font-size="10.00">AmcMrLlrfUpConvertMapping</text>
</a>
</g>
</g>
<!-- Node5&#45;&gt;Node21 -->
<g id="edge38_Node000005_Node000021" class="edge">
<title>Node5&#45;&gt;Node21</title>
<g id="a_edge38_Node000005_Node000021"><a xlink:title=" ">
<path fill="none" stroke="#63b8ff" d="M140.48,-382.93C158.05,-380.93 177.32,-375.69 191,-363.5 229.72,-329 188.37,-287.1 227,-252.5 231.25,-248.69 236.06,-245.57 241.2,-243.02"/>
<polygon fill="#63b8ff" stroke="#63b8ff" points="140.06,-379.45 130.38,-383.76 140.64,-386.43 140.06,-379.45"/>
</a>
</g>
</g>
<!-- Node11 -->
<g id="Node000011" class="node">
<title>Node11</title>
<g id="a_Node000011"><a xlink:href="classAmcCryoDemoDualCore.html" target="_top" xlink:title=" ">
<polygon fill="white" stroke="#666666" points="595.5,-391 460.5,-391 460.5,-372 595.5,-372 595.5,-391"/>
<text text-anchor="middle" x="528" y="-379" font-family="Helvetica,sans-Serif" font-size="10.00">AmcCryoDemoDualCore</text>
</a>
</g>
</g>
<!-- Node10&#45;&gt;Node11 -->
<g id="edge32_Node000010_Node000011" class="edge">
<title>Node10&#45;&gt;Node11</title>
<g id="a_edge32_Node000010_Node000011"><a xlink:title=" ">
<path fill="none" stroke="#63b8ff" d="M386.93,-381.5C410.35,-381.5 436.72,-381.5 460.22,-381.5"/>
<polygon fill="#63b8ff" stroke="#63b8ff" points="386.75,-378 376.75,-381.5 386.75,-385 386.75,-378"/>
</a>
</g>
</g>
<!-- Node26&#45;&gt;Node18 -->
<g id="edge37_Node000026_Node000018" class="edge">
<title>Node26&#45;&gt;Node18</title>
<g id="a_edge37_Node000026_Node000018"><a xlink:title=" ">
<path fill="none" stroke="#63b8ff" d="M383.99,-333.19C412.7,-328.03 446.34,-321.99 473.77,-317.06"/>
<polygon fill="#63b8ff" stroke="#63b8ff" points="383.27,-329.76 374.05,-334.97 384.51,-336.65 383.27,-329.76"/>
</a>
</g>
</g>
<!-- Node21&#45;&gt;Node20 -->
<g id="edge39_Node000021_Node000020" class="edge">
<title>Node21&#45;&gt;Node20</title>
<g id="a_edge39_Node000021_Node000020"><a xlink:title=" ">
<path fill="none" stroke="#63b8ff" d="M410.8,-233.5C426.38,-233.5 442.36,-233.5 457.3,-233.5"/>
<polygon fill="#63b8ff" stroke="#63b8ff" points="410.65,-230 400.64,-233.5 410.64,-237 410.65,-230"/>
</a>
</g>
</g>
<!-- Node9 -->
<g id="Node000009" class="node">
<title>Node9</title>
<g id="a_Node000009"><a xlink:href="classJesdSyncOut.html" target="_top" xlink:title=" ">
<polygon fill="white" stroke="#666666" points="134,-354 57,-354 57,-335 134,-335 134,-354"/>
<text text-anchor="middle" x="95.5" y="-342" font-family="Helvetica,sans-Serif" font-size="10.00">JesdSyncOut</text>
</a>
</g>
</g>
<!-- Node9&#45;&gt;Node1 -->
<g id="edge44_Node000009_Node000001" class="edge">
<title>Node9&#45;&gt;Node1</title>
<g id="a_edge44_Node000009_Node000001"><a xlink:title=" ">
<path fill="none" stroke="#63b8ff" d="M144.3,-344.51C161,-346.91 178.65,-352.5 191,-364.5 239.86,-411.98 177.78,-466.39 227,-513.5 234.05,-520.25 242.86,-524.83 252.2,-527.88"/>
<polygon fill="#63b8ff" stroke="#63b8ff" points="144.39,-341 134.07,-343.41 143.64,-347.96 144.39,-341"/>
</a>
</g>
</g>
<!-- Node9&#45;&gt;Node29 -->
<g id="edge48_Node000009_Node000029" class="edge">
<title>Node9&#45;&gt;Node29</title>
<g id="a_edge48_Node000009_Node000029"><a xlink:title=" ">
<path fill="none" stroke="#63b8ff" d="M144.23,-345.07C160.77,-347.55 178.32,-353.06 191,-364.5 229.82,-399.53 187.92,-441.77 227,-476.5 235.64,-484.18 246.56,-488.98 257.84,-491.91"/>
<polygon fill="#63b8ff" stroke="#63b8ff" points="144.46,-341.58 134.12,-343.9 143.65,-348.53 144.46,-341.58"/>
</a>
</g>
</g>
<!-- Node9&#45;&gt;Node16 -->
<g id="edge45_Node000009_Node000016" class="edge">
<title>Node9&#45;&gt;Node16</title>
<g id="a_edge45_Node000009_Node000016"><a xlink:title=" ">
<path fill="none" stroke="#63b8ff" d="M107.85,-326.13C127.67,-296.04 171.79,-237.31 227,-214.5 303.4,-182.94 337.06,-181.84 413,-214.5 434.37,-223.69 428.81,-240.95 449,-252.5 455.03,-255.95 461.68,-258.74 468.48,-260.99"/>
<polygon fill="#63b8ff" stroke="#63b8ff" points="104.74,-324.51 102.29,-334.81 110.63,-328.28 104.74,-324.51"/>
</a>
</g>
</g>
<!-- Node9&#45;&gt;Node6 -->
<g id="edge41_Node000009_Node000006" class="edge">
<title>Node9&#45;&gt;Node6</title>
<g id="a_edge41_Node000009_Node000006"><a xlink:title=" ">
<path fill="none" stroke="#63b8ff" d="M144.13,-349.1C159.74,-352.01 176.73,-356.76 191,-364.5 210.89,-375.29 209.26,-386.45 227,-400.5 251.01,-419.52 281.74,-437.43 300.9,-447.93"/>
<polygon fill="#63b8ff" stroke="#63b8ff" points="144.55,-345.63 134.11,-347.44 143.41,-352.53 144.55,-345.63"/>
</a>
</g>
</g>
<!-- Node9&#45;&gt;Node12 -->
<g id="edge43_Node000009_Node000012" class="edge">
<title>Node9&#45;&gt;Node12</title>
<g id="a_edge43_Node000009_Node000012"><a xlink:title=" ">
<path fill="none" stroke="#63b8ff" d="M107.37,-325.88C125.33,-294.94 162.07,-230.89 191,-175.5 207.93,-143.08 198.01,-123.8 227,-101.5 234.48,-95.75 243.3,-91.67 252.46,-88.82"/>
<polygon fill="#63b8ff" stroke="#63b8ff" points="104.24,-324.3 102.24,-334.7 110.29,-327.82 104.24,-324.3"/>
</a>
</g>
</g>
<!-- Node9&#45;&gt;Node10 -->
<g id="edge42_Node000009_Node000010" class="edge">
<title>Node9&#45;&gt;Node10</title>
<g id="a_edge42_Node000009_Node000010"><a xlink:title=" ">
<path fill="none" stroke="#63b8ff" d="M144.18,-352.43C179.04,-358.23 226.44,-366.11 263.09,-372.2"/>
<polygon fill="#63b8ff" stroke="#63b8ff" points="144.68,-348.96 134.24,-350.78 143.53,-355.87 144.68,-348.96"/>
</a>
</g>
</g>
<!-- Node9&#45;&gt;Node26 -->
<g id="edge46_Node000009_Node000026" class="edge">
<title>Node9&#45;&gt;Node26</title>
<g id="a_edge46_Node000009_Node000026"><a xlink:title=" ">
<path fill="none" stroke="#63b8ff" d="M144.51,-344.5C168.57,-344.5 198.53,-344.5 226.8,-344.5"/>
<polygon fill="#63b8ff" stroke="#63b8ff" points="144.24,-341 134.24,-344.5 144.24,-348 144.24,-341"/>
</a>
</g>
</g>
<!-- Node9&#45;&gt;Node21 -->
<g id="edge47_Node000009_Node000021" class="edge">
<title>Node9&#45;&gt;Node21</title>
<g id="a_edge47_Node000009_Node000021"><a xlink:title=" ">
<path fill="none" stroke="#63b8ff" d="M114.29,-328.29C138.14,-307.46 182.63,-271.72 227,-252.5 235.98,-248.61 245.8,-245.5 255.58,-243.02"/>
<polygon fill="#63b8ff" stroke="#63b8ff" points="111.91,-325.72 106.75,-334.98 116.55,-330.96 111.91,-325.72"/>
</a>
</g>
</g>
<!-- Node23 -->
<g id="Node000023" class="node">
<title>Node23</title>
<g id="a_Node000023"><a xlink:href="classLvdsDacLane.html" target="_top" xlink:title=" ">
<polygon fill="white" stroke="#666666" points="136,-19 55,-19 55,0 136,0 136,-19"/>
<text text-anchor="middle" x="95.5" y="-7" font-family="Helvetica,sans-Serif" font-size="10.00">LvdsDacLane</text>
</a>
</g>
</g>
<!-- Node22 -->
<g id="Node000022" class="node">
<title>Node22</title>
<g id="a_Node000022"><a xlink:href="classLvdsDacSigGen.html" target="_top" xlink:title=" ">
<polygon fill="white" stroke="#666666" points="366,-56 274,-56 274,-37 366,-37 366,-56"/>
<text text-anchor="middle" x="320" y="-44" font-family="Helvetica,sans-Serif" font-size="10.00">LvdsDacSigGen</text>
</a>
</g>
</g>
<!-- Node23&#45;&gt;Node22 -->
<g id="edge49_Node000023_Node000022" class="edge">
<title>Node23&#45;&gt;Node22</title>
<g id="a_edge49_Node000023_Node000022"><a xlink:title=" ">
<path fill="none" stroke="#63b8ff" d="M145.9,-17.72C184.11,-24.07 236.58,-32.8 273.71,-38.97"/>
<polygon fill="#63b8ff" stroke="#63b8ff" points="146.46,-14.26 136.02,-16.07 145.31,-21.17 146.46,-14.26"/>
</a>
</g>
</g>
<!-- Node22&#45;&gt;Node20 -->
<g id="edge50_Node000022_Node000020" class="edge">
<title>Node22&#45;&gt;Node20</title>
<g id="a_edge50_Node000022_Node000020"><a xlink:title=" ">
<path fill="none" stroke="#63b8ff" d="M376.42,-50.16C389.19,-52.89 402.19,-57.33 413,-64.5 444.86,-85.62 504.11,-191.41 521.85,-223.96"/>
<polygon fill="#63b8ff" stroke="#63b8ff" points="376.73,-46.66 366.27,-48.32 375.49,-53.55 376.73,-46.66"/>
</a>
</g>
</g>
<!-- Node24 -->
<g id="Node000024" class="node">
<title>Node24</title>
<g id="a_Node000024"><a xlink:href="classLvdsDacRegItf.html" target="_top" xlink:title=" ">
<polygon fill="white" stroke="#666666" points="139,-56 52,-56 52,-37 139,-37 139,-56"/>
<text text-anchor="middle" x="95.5" y="-44" font-family="Helvetica,sans-Serif" font-size="10.00">LvdsDacRegItf</text>
</a>
</g>
</g>
<!-- Node24&#45;&gt;Node22 -->
<g id="edge51_Node000024_Node000022" class="edge">
<title>Node24&#45;&gt;Node22</title>
<g id="a_edge51_Node000024_Node000022"><a xlink:title=" ">
<path fill="none" stroke="#63b8ff" d="M149.47,-46.5C187.37,-46.5 237.84,-46.5 273.83,-46.5"/>
<polygon fill="#63b8ff" stroke="#63b8ff" points="149.14,-43 139.14,-46.5 149.14,-50 149.14,-43"/>
</a>
</g>
</g>
<!-- Node25 -->
<g id="Node000025" class="node">
<title>Node25</title>
<g id="a_Node000025"><a xlink:href="classOutputTapDelay.html" target="_top" xlink:title=" ">
<polygon fill="white" stroke="#666666" points="367.5,-130 272.5,-130 272.5,-111 367.5,-111 367.5,-130"/>
<text text-anchor="middle" x="320" y="-118" font-family="Helvetica,sans-Serif" font-size="10.00">OutputTapDelay</text>
</a>
</g>
</g>
<!-- Node25&#45;&gt;Node20 -->
<g id="edge52_Node000025_Node000020" class="edge">
<title>Node25&#45;&gt;Node20</title>
<g id="a_edge52_Node000025_Node000020"><a xlink:title=" ">
<path fill="none" stroke="#63b8ff" d="M377.79,-126.99C389.78,-129.62 402.09,-133.31 413,-138.5 458.6,-160.19 501.2,-204.35 518.66,-223.86"/>
<polygon fill="#63b8ff" stroke="#63b8ff" points="378.32,-123.53 367.83,-125.02 376.96,-130.39 378.32,-123.53"/>
</a>
</g>
</g>
</g>
</svg>
