<?xml version="1.0" encoding="UTF-8" standalone="no"?>
<!DOCTYPE svg PUBLIC "-//W3C//DTD SVG 1.1//EN"
 "http://www.w3.org/Graphics/SVG/1.1/DTD/svg11.dtd">
<!-- Generated by graphviz version 2.43.0 (0)
 -->
<!-- Title: Graphical Class Hierarchy Pages: 1 -->
<svg width="480pt" height="64pt"
 viewBox="0.00 0.00 480.00 64.00" xmlns="http://www.w3.org/2000/svg" xmlns:xlink="http://www.w3.org/1999/xlink">
<g id="graph0" class="graph" transform="scale(1 1) rotate(0) translate(4 60)">
<title>Graphical Class Hierarchy</title>
<!-- Node0 -->
<g id="Node000000" class="node">
<title>Node0</title>
<g id="a_Node000000"><a xlink:href="classAxisBramFlashBufferRdFsm.html" target="_top" xlink:title=" ">
<polygon fill="white" stroke="#666666" points="153.5,-56 0.5,-56 0.5,-37 153.5,-37 153.5,-56"/>
<text text-anchor="middle" x="77" y="-44" font-family="Helvetica,sans-Serif" font-size="10.00">AxisBramFlashBufferRdFsm</text>
</a>
</g>
</g>
<!-- Node1 -->
<g id="Node000001" class="node">
<title>Node1</title>
<g id="a_Node000001"><a xlink:href="classAxisBramFlashBuffer.html" target="_top" xlink:title=" ">
<polygon fill="white" stroke="#666666" points="309,-37 190,-37 190,-18 309,-18 309,-37"/>
<text text-anchor="middle" x="249.5" y="-25" font-family="Helvetica,sans-Serif" font-size="10.00">AxisBramFlashBuffer</text>
</a>
</g>
</g>
<!-- Node0&#45;&gt;Node1 -->
<g id="edge129_Node000000_Node000001" class="edge">
<title>Node0&#45;&gt;Node1</title>
<g id="a_edge129_Node000000_Node000001"><a xlink:title=" ">
<path fill="none" stroke="#63b8ff" d="M163.74,-36.95C172.57,-35.96 181.4,-34.98 189.85,-34.04"/>
<polygon fill="#63b8ff" stroke="#63b8ff" points="163.33,-33.47 153.78,-38.06 164.1,-40.43 163.33,-33.47"/>
</a>
</g>
</g>
<!-- Node2 -->
<g id="Node000002" class="node">
<title>Node2</title>
<g id="a_Node000002"><a xlink:href="classAxisBramRingBufferTb.html" target="_top" xlink:title=" ">
<polygon fill="white" stroke="#666666" points="472,-37 345,-37 345,-18 472,-18 472,-37"/>
<text text-anchor="middle" x="408.5" y="-25" font-family="Helvetica,sans-Serif" font-size="10.00">AxisBramRingBufferTb</text>
</a>
</g>
</g>
<!-- Node1&#45;&gt;Node2 -->
<g id="edge130_Node000001_Node000002" class="edge">
<title>Node1&#45;&gt;Node2</title>
<g id="a_edge130_Node000001_Node000002"><a xlink:title=" ">
<path fill="none" stroke="#63b8ff" d="M319.57,-27.5C327.98,-27.5 336.54,-27.5 344.85,-27.5"/>
<polygon fill="#63b8ff" stroke="#63b8ff" points="319.41,-24 309.41,-27.5 319.41,-31 319.41,-24"/>
</a>
</g>
</g>
<!-- Node3 -->
<g id="Node000003" class="node">
<title>Node3</title>
<g id="a_Node000003"><a xlink:href="classAxisBramFlashBufferWrFsm.html" target="_top" xlink:title=" ">
<polygon fill="white" stroke="#666666" points="154,-19 0,-19 0,0 154,0 154,-19"/>
<text text-anchor="middle" x="77" y="-7" font-family="Helvetica,sans-Serif" font-size="10.00">AxisBramFlashBufferWrFsm</text>
</a>
</g>
</g>
<!-- Node3&#45;&gt;Node1 -->
<g id="edge131_Node000003_Node000001" class="edge">
<title>Node3&#45;&gt;Node1</title>
<g id="a_edge131_Node000003_Node000001"><a xlink:title=" ">
<path fill="none" stroke="#63b8ff" d="M164.41,-18.62C173.05,-19.54 181.68,-20.45 189.94,-21.32"/>
<polygon fill="#63b8ff" stroke="#63b8ff" points="164.59,-15.12 154.27,-17.55 163.85,-22.08 164.59,-15.12"/>
</a>
</g>
</g>
</g>
</svg>
