<?xml version="1.0" encoding="UTF-8" standalone="no"?>
<!DOCTYPE svg PUBLIC "-//W3C//DTD SVG 1.1//EN"
 "http://www.w3.org/Graphics/SVG/1.1/DTD/svg11.dtd">
<!-- Generated by graphviz version 2.43.0 (0)
 -->
<!-- Title: Graphical Class Hierarchy Pages: 1 -->
<svg width="574pt" height="180pt"
 viewBox="0.00 0.00 574.00 180.00" xmlns="http://www.w3.org/2000/svg" xmlns:xlink="http://www.w3.org/1999/xlink">
<g id="graph0" class="graph" transform="scale(1 1) rotate(0) translate(4 176)">
<title>Graphical Class Hierarchy</title>
<polygon fill="white" stroke="transparent" points="-4,4 -4,-176 570,-176 570,4 -4,4"/>
<!-- Node127 -->
<g id="node1" class="node">
<title>Node127</title>
<g id="a_node1"><a xlink:href="classAd9229Deserializer.html" target="_top" xlink:title=" ">
<polygon fill="white" stroke="black" points="0,-152.5 0,-171.5 112,-171.5 112,-152.5 0,-152.5"/>
<text text-anchor="middle" x="56" y="-159.5" font-family="Helvetica,sans-Serif" font-size="10.00">Ad9229Deserializer</text>
</a>
</g>
</g>
<!-- Node128 -->
<g id="node2" class="node">
<title>Node128</title>
<g id="a_node2"><a xlink:href="classAd9229Core.html" target="_top" xlink:title=" ">
<polygon fill="white" stroke="black" points="181.5,-152.5 181.5,-171.5 257.5,-171.5 257.5,-152.5 181.5,-152.5"/>
<text text-anchor="middle" x="219.5" y="-159.5" font-family="Helvetica,sans-Serif" font-size="10.00">Ad9229Core</text>
</a>
</g>
</g>
<!-- Node127&#45;&gt;Node128 -->
<g id="edge1" class="edge">
<title>Node127&#45;&gt;Node128</title>
<path fill="none" stroke="midnightblue" d="M122.2,-162C142.35,-162 163.83,-162 181.39,-162"/>
<polygon fill="midnightblue" stroke="midnightblue" points="122.13,-158.5 112.13,-162 122.13,-165.5 122.13,-158.5"/>
</g>
<!-- Node1 -->
<g id="node3" class="node">
<title>Node1</title>
<g id="a_node3"><a xlink:href="classRtmRfInterlockCore.html" target="_top" xlink:title=" ">
<polygon fill="white" stroke="black" points="327,-76.5 327,-95.5 440,-95.5 440,-76.5 327,-76.5"/>
<text text-anchor="middle" x="383.5" y="-83.5" font-family="Helvetica,sans-Serif" font-size="10.00">RtmRfInterlockCore</text>
</a>
</g>
</g>
<!-- Node128&#45;&gt;Node1 -->
<g id="edge2" class="edge">
<title>Node128&#45;&gt;Node1</title>
<path fill="none" stroke="midnightblue" d="M267.44,-151.43C275.44,-149.04 283.56,-146.23 291,-143 321.04,-129.94 352.76,-108.1 369.84,-95.59"/>
<polygon fill="midnightblue" stroke="midnightblue" points="266.47,-148.06 257.79,-154.13 268.36,-154.8 266.47,-148.06"/>
</g>
<!-- Node2 -->
<g id="node4" class="node">
<title>Node2</title>
<g id="a_node4"><a xlink:href="classRtmRfInterlock.html" target="_top" xlink:title=" ">
<polygon fill="white" stroke="black" points="476,-76.5 476,-95.5 566,-95.5 566,-76.5 476,-76.5"/>
<text text-anchor="middle" x="521" y="-83.5" font-family="Helvetica,sans-Serif" font-size="10.00">RtmRfInterlock</text>
</a>
</g>
</g>
<!-- Node1&#45;&gt;Node2 -->
<g id="edge3" class="edge">
<title>Node1&#45;&gt;Node2</title>
<path fill="none" stroke="midnightblue" d="M450.21,-86C458.95,-86 467.73,-86 475.98,-86"/>
<polygon fill="midnightblue" stroke="midnightblue" points="450,-82.5 440,-86 450,-89.5 450,-82.5"/>
</g>
<!-- Node78 -->
<g id="node5" class="node">
<title>Node78</title>
<g id="a_node5"><a xlink:href="classAxiSpiAd7682Reg.html" target="_top" xlink:title=" ">
<polygon fill="white" stroke="black" points="4.5,-114.5 4.5,-133.5 107.5,-133.5 107.5,-114.5 4.5,-114.5"/>
<text text-anchor="middle" x="56" y="-121.5" font-family="Helvetica,sans-Serif" font-size="10.00">AxiSpiAd7682Reg</text>
</a>
</g>
</g>
<!-- Node79 -->
<g id="node6" class="node">
<title>Node79</title>
<g id="a_node6"><a xlink:href="classAxiSpiAd7682.html" target="_top" xlink:title=" ">
<polygon fill="white" stroke="black" points="177.5,-114.5 177.5,-133.5 261.5,-133.5 261.5,-114.5 177.5,-114.5"/>
<text text-anchor="middle" x="219.5" y="-121.5" font-family="Helvetica,sans-Serif" font-size="10.00">AxiSpiAd7682</text>
</a>
</g>
</g>
<!-- Node78&#45;&gt;Node79 -->
<g id="edge4" class="edge">
<title>Node78&#45;&gt;Node79</title>
<path fill="none" stroke="midnightblue" d="M117.88,-124C137.78,-124 159.4,-124 177.48,-124"/>
<polygon fill="midnightblue" stroke="midnightblue" points="117.66,-120.5 107.66,-124 117.66,-127.5 117.66,-120.5"/>
</g>
<!-- Node79&#45;&gt;Node1 -->
<g id="edge5" class="edge">
<title>Node79&#45;&gt;Node1</title>
<path fill="none" stroke="midnightblue" d="M271.21,-112.1C293.99,-106.76 320.49,-100.55 341.91,-95.52"/>
<polygon fill="midnightblue" stroke="midnightblue" points="270.32,-108.72 261.38,-114.41 271.91,-115.53 270.32,-108.72"/>
</g>
<!-- Node25 -->
<g id="node7" class="node">
<title>Node25</title>
<g id="a_node7"><a xlink:href="classRingBufferCtrl.html" target="_top" xlink:title=" ">
<polygon fill="white" stroke="black" points="177,-76.5 177,-95.5 262,-95.5 262,-76.5 177,-76.5"/>
<text text-anchor="middle" x="219.5" y="-83.5" font-family="Helvetica,sans-Serif" font-size="10.00">RingBufferCtrl</text>
</a>
</g>
</g>
<!-- Node25&#45;&gt;Node1 -->
<g id="edge6" class="edge">
<title>Node25&#45;&gt;Node1</title>
<path fill="none" stroke="midnightblue" d="M272.7,-86C290,-86 309.32,-86 326.87,-86"/>
<polygon fill="midnightblue" stroke="midnightblue" points="272.22,-82.5 262.22,-86 272.22,-89.5 272.22,-82.5"/>
</g>
<!-- Node9 -->
<g id="node8" class="node">
<title>Node9</title>
<g id="a_node8"><a xlink:href="classRtmRfInterlockFaultBuffer.html" target="_top" xlink:title=" ">
<polygon fill="white" stroke="black" points="148,-38.5 148,-57.5 291,-57.5 291,-38.5 148,-38.5"/>
<text text-anchor="middle" x="219.5" y="-45.5" font-family="Helvetica,sans-Serif" font-size="10.00">RtmRfInterlockFaultBuffer</text>
</a>
</g>
</g>
<!-- Node9&#45;&gt;Node1 -->
<g id="edge7" class="edge">
<title>Node9&#45;&gt;Node1</title>
<path fill="none" stroke="midnightblue" d="M271.21,-59.9C293.99,-65.24 320.49,-71.45 341.91,-76.48"/>
<polygon fill="midnightblue" stroke="midnightblue" points="271.91,-56.47 261.38,-57.59 270.32,-63.28 271.91,-56.47"/>
</g>
<!-- Node0 -->
<g id="node9" class="node">
<title>Node0</title>
<g id="a_node9"><a xlink:href="classRtmRfInterlockReg.html" target="_top" xlink:title=" ">
<polygon fill="white" stroke="black" points="165,-0.5 165,-19.5 274,-19.5 274,-0.5 165,-0.5"/>
<text text-anchor="middle" x="219.5" y="-7.5" font-family="Helvetica,sans-Serif" font-size="10.00">RtmRfInterlockReg</text>
</a>
</g>
</g>
<!-- Node0&#45;&gt;Node1 -->
<g id="edge8" class="edge">
<title>Node0&#45;&gt;Node1</title>
<path fill="none" stroke="midnightblue" d="M273.91,-22.59C279.76,-24.5 285.56,-26.64 291,-29 321.04,-42.06 352.76,-63.9 369.84,-76.41"/>
<polygon fill="midnightblue" stroke="midnightblue" points="274.65,-19.16 264.06,-19.59 272.61,-25.85 274.65,-19.16"/>
</g>
</g>
</svg>
