<?xml version="1.0" encoding="UTF-8" standalone="no"?>
<!DOCTYPE svg PUBLIC "-//W3C//DTD SVG 1.1//EN"
 "http://www.w3.org/Graphics/SVG/1.1/DTD/svg11.dtd">
<!-- Generated by graphviz version 2.43.0 (0)
 -->
<!-- Title: Graphical Class Hierarchy Pages: 1 -->
<svg width="1021pt" height="788pt"
 viewBox="0.00 0.00 1021.00 788.00" xmlns="http://www.w3.org/2000/svg" xmlns:xlink="http://www.w3.org/1999/xlink">
<g id="graph0" class="graph" transform="scale(1 1) rotate(0) translate(4 784)">
<title>Graphical Class Hierarchy</title>
<polygon fill="white" stroke="transparent" points="-4,4 -4,-784 1017,-784 1017,4 -4,4"/>
<!-- Node130 -->
<g id="node1" class="node">
<title>Node130</title>
<g id="a_node1"><a xlink:href="classAmcCarrierBsi.html" target="_top" xlink:title=" ">
<polygon fill="white" stroke="black" points="616.5,-684.5 616.5,-703.5 702.5,-703.5 702.5,-684.5 616.5,-684.5"/>
<text text-anchor="middle" x="659.5" y="-691.5" font-family="Helvetica,sans-Serif" font-size="10.00">AmcCarrierBsi</text>
</a>
</g>
</g>
<!-- Node121 -->
<g id="node2" class="node">
<title>Node121</title>
<g id="a_node2"><a xlink:href="classAmcCarrierSysReg.html" target="_top" xlink:title=" ">
<polygon fill="white" stroke="black" points="752,-589.5 752,-608.5 859,-608.5 859,-589.5 752,-589.5"/>
<text text-anchor="middle" x="805.5" y="-596.5" font-family="Helvetica,sans-Serif" font-size="10.00">AmcCarrierSysReg</text>
</a>
</g>
</g>
<!-- Node130&#45;&gt;Node121 -->
<g id="edge1" class="edge">
<title>Node130&#45;&gt;Node121</title>
<path fill="none" stroke="midnightblue" d="M704.5,-680.7C708.48,-678.98 712.37,-677.08 716,-675 748.7,-656.29 780.6,-624.65 795.6,-608.74"/>
<polygon fill="midnightblue" stroke="midnightblue" points="703.15,-677.47 695.14,-684.41 705.73,-683.98 703.15,-677.47"/>
</g>
<!-- Node3 -->
<g id="node3" class="node">
<title>Node3</title>
<g id="a_node3"><a xlink:href="classAmcCarrierCoreAdv.html" target="_top" xlink:title=" ">
<polygon fill="white" stroke="black" points="897.5,-532.5 897.5,-551.5 1010.5,-551.5 1010.5,-532.5 897.5,-532.5"/>
<text text-anchor="middle" x="954" y="-539.5" font-family="Helvetica,sans-Serif" font-size="10.00">AmcCarrierCoreAdv</text>
</a>
</g>
</g>
<!-- Node121&#45;&gt;Node3 -->
<g id="edge2" class="edge">
<title>Node121&#45;&gt;Node3</title>
<path fill="none" stroke="midnightblue" d="M844.86,-585.82C849.66,-583.96 854.47,-582 859,-580 875.55,-572.68 878.34,-568.06 895,-561 903.1,-557.57 912.04,-554.36 920.43,-551.6"/>
<polygon fill="midnightblue" stroke="midnightblue" points="843.26,-582.68 835.12,-589.45 845.71,-589.23 843.26,-582.68"/>
</g>
<!-- Node4 -->
<g id="node4" class="node">
<title>Node4</title>
<g id="a_node4"><a xlink:href="classAmcCarrierCoreBase.html" target="_top" xlink:title=" ">
<polygon fill="white" stroke="black" points="895,-570.5 895,-589.5 1013,-589.5 1013,-570.5 895,-570.5"/>
<text text-anchor="middle" x="954" y="-577.5" font-family="Helvetica,sans-Serif" font-size="10.00">AmcCarrierCoreBase</text>
</a>
</g>
</g>
<!-- Node121&#45;&gt;Node4 -->
<g id="edge3" class="edge">
<title>Node121&#45;&gt;Node4</title>
<path fill="none" stroke="midnightblue" d="M869.49,-590.83C877.87,-589.74 886.44,-588.63 894.73,-587.56"/>
<polygon fill="midnightblue" stroke="midnightblue" points="868.86,-587.38 859.39,-592.14 869.76,-594.33 868.86,-587.38"/>
</g>
<!-- Node5 -->
<g id="node5" class="node">
<title>Node5</title>
<g id="a_node5"><a xlink:href="classAmcCarrierCoreFsbl.html" target="_top" xlink:title=" ">
<polygon fill="white" stroke="black" points="897,-494.5 897,-513.5 1011,-513.5 1011,-494.5 897,-494.5"/>
<text text-anchor="middle" x="954" y="-501.5" font-family="Helvetica,sans-Serif" font-size="10.00">AmcCarrierCoreFsbl</text>
</a>
</g>
</g>
<!-- Node121&#45;&gt;Node5 -->
<g id="edge4" class="edge">
<title>Node121&#45;&gt;Node5</title>
<path fill="none" stroke="midnightblue" d="M852.08,-584.76C854.52,-583.32 856.84,-581.73 859,-580 882.35,-561.22 871.37,-541.42 895,-523 899.93,-519.16 905.67,-516.08 911.58,-513.61"/>
<polygon fill="midnightblue" stroke="midnightblue" points="850.25,-581.77 842.91,-589.41 853.41,-588.01 850.25,-581.77"/>
</g>
<!-- Node129 -->
<g id="node6" class="node">
<title>Node129</title>
<g id="a_node6"><a xlink:href="classAmcCarrierDdrMem.html" target="_top" xlink:title=" ">
<polygon fill="white" stroke="black" points="603,-532.5 603,-551.5 716,-551.5 716,-532.5 603,-532.5"/>
<text text-anchor="middle" x="659.5" y="-539.5" font-family="Helvetica,sans-Serif" font-size="10.00">AmcCarrierDdrMem</text>
</a>
</g>
</g>
<!-- Node72 -->
<g id="node7" class="node">
<title>Node72</title>
<g id="a_node7"><a xlink:href="classAmcCarrierCore.html" target="_top" xlink:title=" ">
<polygon fill="white" stroke="black" points="758.5,-551.5 758.5,-570.5 852.5,-570.5 852.5,-551.5 758.5,-551.5"/>
<text text-anchor="middle" x="805.5" y="-558.5" font-family="Helvetica,sans-Serif" font-size="10.00">AmcCarrierCore</text>
</a>
</g>
</g>
<!-- Node129&#45;&gt;Node72 -->
<g id="edge5" class="edge">
<title>Node129&#45;&gt;Node72</title>
<path fill="none" stroke="midnightblue" d="M726.41,-550.7C737.19,-552.12 748.14,-553.56 758.31,-554.9"/>
<polygon fill="midnightblue" stroke="midnightblue" points="726.55,-547.18 716.17,-549.35 725.63,-554.12 726.55,-547.18"/>
</g>
<!-- Node73 -->
<g id="node8" class="node">
<title>Node73</title>
<g id="a_node8"><a xlink:href="classAmcCarrierFsbl.html" target="_top" xlink:title=" ">
<polygon fill="white" stroke="black" points="759.5,-494.5 759.5,-513.5 851.5,-513.5 851.5,-494.5 759.5,-494.5"/>
<text text-anchor="middle" x="805.5" y="-501.5" font-family="Helvetica,sans-Serif" font-size="10.00">AmcCarrierFsbl</text>
</a>
</g>
</g>
<!-- Node129&#45;&gt;Node73 -->
<g id="edge8" class="edge">
<title>Node129&#45;&gt;Node73</title>
<path fill="none" stroke="midnightblue" d="M706.67,-529.82C726.66,-524.54 749.72,-518.46 768.42,-513.52"/>
<polygon fill="midnightblue" stroke="midnightblue" points="705.61,-526.48 696.84,-532.41 707.4,-533.24 705.61,-526.48"/>
</g>
<!-- Node72&#45;&gt;Node3 -->
<g id="edge6" class="edge">
<title>Node72&#45;&gt;Node3</title>
<path fill="none" stroke="midnightblue" d="M863.04,-553.67C874.34,-552.2 886.19,-550.66 897.46,-549.2"/>
<polygon fill="midnightblue" stroke="midnightblue" points="862.32,-550.23 852.85,-554.99 863.22,-557.17 862.32,-550.23"/>
</g>
<!-- Node72&#45;&gt;Node4 -->
<g id="edge7" class="edge">
<title>Node72&#45;&gt;Node4</title>
<path fill="none" stroke="midnightblue" d="M863.08,-568.34C873.49,-569.69 884.38,-571.1 894.84,-572.46"/>
<polygon fill="midnightblue" stroke="midnightblue" points="863.22,-564.83 852.85,-567.01 862.32,-571.77 863.22,-564.83"/>
</g>
<!-- Node73&#45;&gt;Node5 -->
<g id="edge9" class="edge">
<title>Node73&#45;&gt;Node5</title>
<path fill="none" stroke="midnightblue" d="M861.94,-504C873.38,-504 885.42,-504 896.88,-504"/>
<polygon fill="midnightblue" stroke="midnightblue" points="861.65,-500.5 851.65,-504 861.65,-507.5 861.65,-500.5"/>
</g>
<!-- Node128 -->
<g id="node9" class="node">
<title>Node128</title>
<g id="a_node9"><a xlink:href="classAmcCarrierEthFsbl.html" target="_top" xlink:title=" ">
<polygon fill="white" stroke="black" points="606,-418.5 606,-437.5 713,-437.5 713,-418.5 606,-418.5"/>
<text text-anchor="middle" x="659.5" y="-425.5" font-family="Helvetica,sans-Serif" font-size="10.00">AmcCarrierEthFsbl</text>
</a>
</g>
</g>
<!-- Node128&#45;&gt;Node73 -->
<g id="edge10" class="edge">
<title>Node128&#45;&gt;Node73</title>
<path fill="none" stroke="midnightblue" d="M693.49,-441.47C700.97,-444.75 708.83,-448.36 716,-452 742.54,-465.47 772.11,-483.49 789.47,-494.4"/>
<polygon fill="midnightblue" stroke="midnightblue" points="694.86,-438.25 684.29,-437.53 692.1,-444.69 694.86,-438.25"/>
</g>
<!-- Node126 -->
<g id="node10" class="node">
<title>Node126</title>
<g id="a_node10"><a xlink:href="classAmcCarrierIbufGt.html" target="_top" xlink:title=" ">
<polygon fill="white" stroke="black" points="440.5,-456.5 440.5,-475.5 541.5,-475.5 541.5,-456.5 440.5,-456.5"/>
<text text-anchor="middle" x="491" y="-463.5" font-family="Helvetica,sans-Serif" font-size="10.00">AmcCarrierIbufGt</text>
</a>
</g>
</g>
<!-- Node126&#45;&gt;Node72 -->
<g id="edge11" class="edge">
<title>Node126&#45;&gt;Node72</title>
<path fill="none" stroke="midnightblue" d="M551.41,-475.65C557.02,-478.11 562.35,-481.17 567,-485 595.87,-508.74 571.42,-541.01 603,-561 655.17,-594.02 731.19,-581.51 773.37,-570.55"/>
<polygon fill="midnightblue" stroke="midnightblue" points="552.34,-472.26 541.74,-472.06 549.9,-478.82 552.34,-472.26"/>
</g>
<!-- Node126&#45;&gt;Node73 -->
<g id="edge12" class="edge">
<title>Node126&#45;&gt;Node73</title>
<path fill="none" stroke="midnightblue" d="M551.82,-469.01C597.08,-471.78 660.67,-476.75 716,-485 732.16,-487.41 749.8,-491 765.05,-494.41"/>
<polygon fill="midnightblue" stroke="midnightblue" points="551.78,-465.5 541.59,-468.4 551.36,-472.49 551.78,-465.5"/>
</g>
<!-- Node127 -->
<g id="node11" class="node">
<title>Node127</title>
<g id="a_node11"><a xlink:href="classAmcCarrierTiming.html" target="_top" xlink:title=" ">
<polygon fill="white" stroke="black" points="607,-494.5 607,-513.5 712,-513.5 712,-494.5 607,-494.5"/>
<text text-anchor="middle" x="659.5" y="-501.5" font-family="Helvetica,sans-Serif" font-size="10.00">AmcCarrierTiming</text>
</a>
</g>
</g>
<!-- Node126&#45;&gt;Node127 -->
<g id="edge13" class="edge">
<title>Node126&#45;&gt;Node127</title>
<path fill="none" stroke="midnightblue" d="M543.81,-477.82C567.28,-483.18 594.67,-489.43 616.79,-494.48"/>
<polygon fill="midnightblue" stroke="midnightblue" points="544.54,-474.4 534.01,-475.59 542.99,-481.23 544.54,-474.4"/>
</g>
<!-- Node94 -->
<g id="node12" class="node">
<title>Node94</title>
<g id="a_node12"><a xlink:href="classAppTopJesd.html" target="_top" xlink:title=" ">
<polygon fill="white" stroke="black" points="623.5,-304.5 623.5,-323.5 695.5,-323.5 695.5,-304.5 623.5,-304.5"/>
<text text-anchor="middle" x="659.5" y="-311.5" font-family="Helvetica,sans-Serif" font-size="10.00">AppTopJesd</text>
</a>
</g>
</g>
<!-- Node126&#45;&gt;Node94 -->
<g id="edge16" class="edge">
<title>Node126&#45;&gt;Node94</title>
<path fill="none" stroke="midnightblue" d="M506.01,-448.15C533.07,-413.84 590.94,-341.29 603,-333 609.13,-328.79 616.27,-325.43 623.35,-322.79"/>
<polygon fill="midnightblue" stroke="midnightblue" points="502.98,-446.34 499.55,-456.36 508.48,-450.67 502.98,-446.34"/>
</g>
<!-- Node127&#45;&gt;Node72 -->
<g id="edge14" class="edge">
<title>Node127&#45;&gt;Node72</title>
<path fill="none" stroke="midnightblue" d="M699.56,-516.96C705.1,-518.92 710.71,-520.96 716,-523 739.41,-532.02 765.77,-543.51 783.58,-551.49"/>
<polygon fill="midnightblue" stroke="midnightblue" points="700.34,-513.52 689.74,-513.55 698.04,-520.13 700.34,-513.52"/>
</g>
<!-- Node127&#45;&gt;Node73 -->
<g id="edge15" class="edge">
<title>Node127&#45;&gt;Node73</title>
<path fill="none" stroke="midnightblue" d="M722.41,-504C734.87,-504 747.73,-504 759.48,-504"/>
<polygon fill="midnightblue" stroke="midnightblue" points="722.08,-500.5 712.08,-504 722.08,-507.5 722.08,-500.5"/>
</g>
<!-- Node59 -->
<g id="node13" class="node">
<title>Node59</title>
<g id="a_node13"><a xlink:href="classAppTop.html" target="_top" xlink:title=" ">
<polygon fill="white" stroke="black" points="779.5,-152.5 779.5,-171.5 831.5,-171.5 831.5,-152.5 779.5,-152.5"/>
<text text-anchor="middle" x="805.5" y="-159.5" font-family="Helvetica,sans-Serif" font-size="10.00">AppTop</text>
</a>
</g>
</g>
<!-- Node94&#45;&gt;Node59 -->
<g id="edge17" class="edge">
<title>Node94&#45;&gt;Node59</title>
<path fill="none" stroke="midnightblue" d="M704.91,-303.25C708.99,-301 712.79,-298.29 716,-295 753.12,-256.98 715.21,-219.34 752,-181 759.25,-173.45 769.72,-168.88 779.41,-166.13"/>
<polygon fill="midnightblue" stroke="midnightblue" points="703.29,-300.14 695.63,-307.46 706.19,-306.52 703.29,-300.14"/>
</g>
<!-- Node122 -->
<g id="node14" class="node">
<title>Node122</title>
<g id="a_node14"><a xlink:href="classAmcCarrierRssiObFifo.html" target="_top" xlink:title=" ">
<polygon fill="white" stroke="black" points="256,-741.5 256,-760.5 379,-760.5 379,-741.5 256,-741.5"/>
<text text-anchor="middle" x="317.5" y="-748.5" font-family="Helvetica,sans-Serif" font-size="10.00">AmcCarrierRssiObFifo</text>
</a>
</g>
</g>
<!-- Node123 -->
<g id="node15" class="node">
<title>Node123</title>
<g id="a_node15"><a xlink:href="classAmcCarrierRssi.html" target="_top" xlink:title=" ">
<polygon fill="white" stroke="black" points="445,-722.5 445,-741.5 537,-741.5 537,-722.5 445,-722.5"/>
<text text-anchor="middle" x="491" y="-729.5" font-family="Helvetica,sans-Serif" font-size="10.00">AmcCarrierRssi</text>
</a>
</g>
</g>
<!-- Node122&#45;&gt;Node123 -->
<g id="edge18" class="edge">
<title>Node122&#45;&gt;Node123</title>
<path fill="none" stroke="midnightblue" d="M389.44,-743.14C408.19,-741.06 427.92,-738.88 444.88,-737"/>
<polygon fill="midnightblue" stroke="midnightblue" points="389,-739.67 379.45,-744.25 389.77,-746.63 389,-739.67"/>
</g>
<!-- Node125 -->
<g id="node17" class="node">
<title>Node125</title>
<g id="a_node17"><a xlink:href="classAmcCarrierRssiInterleave.html" target="_top" xlink:title=" ">
<polygon fill="white" stroke="black" points="420.5,-760.5 420.5,-779.5 561.5,-779.5 561.5,-760.5 420.5,-760.5"/>
<text text-anchor="middle" x="491" y="-767.5" font-family="Helvetica,sans-Serif" font-size="10.00">AmcCarrierRssiInterleave</text>
</a>
</g>
</g>
<!-- Node122&#45;&gt;Node125 -->
<g id="edge21" class="edge">
<title>Node122&#45;&gt;Node125</title>
<path fill="none" stroke="midnightblue" d="M389.55,-758.87C399.78,-760 410.29,-761.17 420.48,-762.3"/>
<polygon fill="midnightblue" stroke="midnightblue" points="389.77,-755.37 379.45,-757.75 389,-762.33 389.77,-755.37"/>
</g>
<!-- Node124 -->
<g id="node16" class="node">
<title>Node124</title>
<g id="a_node16"><a xlink:href="classAmcCarrierEth.html" target="_top" xlink:title=" ">
<polygon fill="white" stroke="black" points="616,-646.5 616,-665.5 703,-665.5 703,-646.5 616,-646.5"/>
<text text-anchor="middle" x="659.5" y="-653.5" font-family="Helvetica,sans-Serif" font-size="10.00">AmcCarrierEth</text>
</a>
</g>
</g>
<!-- Node123&#45;&gt;Node124 -->
<g id="edge19" class="edge">
<title>Node123&#45;&gt;Node124</title>
<path fill="none" stroke="midnightblue" d="M546.86,-721.98C553.88,-719.59 560.79,-716.64 567,-713 587.07,-701.23 583.43,-687.58 603,-675 608.91,-671.2 615.67,-668.07 622.39,-665.52"/>
<polygon fill="midnightblue" stroke="midnightblue" points="545.8,-718.65 537.25,-724.9 547.83,-725.34 545.8,-718.65"/>
</g>
<!-- Node124&#45;&gt;Node72 -->
<g id="edge20" class="edge">
<title>Node124&#45;&gt;Node72</title>
<path fill="none" stroke="midnightblue" d="M708.67,-641.93C711.25,-640.44 713.72,-638.81 716,-637 739.51,-618.42 728.65,-598.78 752,-580 756.76,-576.17 762.35,-573.08 768.09,-570.59"/>
<polygon fill="midnightblue" stroke="midnightblue" points="706.98,-638.86 699.56,-646.43 710.08,-645.14 706.98,-638.86"/>
</g>
<!-- Node125&#45;&gt;Node124 -->
<g id="edge22" class="edge">
<title>Node125&#45;&gt;Node124</title>
<path fill="none" stroke="midnightblue" d="M560.52,-755.61C562.79,-754.21 564.96,-752.68 567,-751 595.87,-727.26 575.13,-699.9 603,-675 607.33,-671.13 612.48,-668.05 617.88,-665.58"/>
<polygon fill="midnightblue" stroke="midnightblue" points="558.61,-752.66 551.35,-760.38 561.84,-758.87 558.61,-752.66"/>
</g>
<!-- Node120 -->
<g id="node18" class="node">
<title>Node120</title>
<g id="a_node18"><a xlink:href="classAmcCarrierSysMon.html" target="_top" xlink:title=" ">
<polygon fill="white" stroke="black" points="604.5,-722.5 604.5,-741.5 714.5,-741.5 714.5,-722.5 604.5,-722.5"/>
<text text-anchor="middle" x="659.5" y="-729.5" font-family="Helvetica,sans-Serif" font-size="10.00">AmcCarrierSysMon</text>
</a>
</g>
</g>
<!-- Node120&#45;&gt;Node121 -->
<g id="edge23" class="edge">
<title>Node120&#45;&gt;Node121</title>
<path fill="none" stroke="midnightblue" d="M707.38,-718.24C710.4,-716.67 713.31,-714.92 716,-713 756.78,-683.87 787.86,-630.68 799.5,-608.8"/>
<polygon fill="midnightblue" stroke="midnightblue" points="705.73,-715.15 698.09,-722.48 708.64,-721.52 705.73,-715.15"/>
</g>
<!-- Node103 -->
<g id="node19" class="node">
<title>Node103</title>
<g id="a_node19"><a xlink:href="classAppMpsClk.html" target="_top" xlink:title=" ">
<polygon fill="white" stroke="black" points="624,-380.5 624,-399.5 695,-399.5 695,-380.5 624,-380.5"/>
<text text-anchor="middle" x="659.5" y="-387.5" font-family="Helvetica,sans-Serif" font-size="10.00">AppMpsClk</text>
</a>
</g>
</g>
<!-- Node2 -->
<g id="node20" class="node">
<title>Node2</title>
<g id="a_node20"><a xlink:href="classAppMps.html" target="_top" xlink:title=" ">
<polygon fill="white" stroke="black" points="777.5,-418.5 777.5,-437.5 833.5,-437.5 833.5,-418.5 777.5,-418.5"/>
<text text-anchor="middle" x="805.5" y="-425.5" font-family="Helvetica,sans-Serif" font-size="10.00">AppMps</text>
</a>
</g>
</g>
<!-- Node103&#45;&gt;Node2 -->
<g id="edge24" class="edge">
<title>Node103&#45;&gt;Node2</title>
<path fill="none" stroke="midnightblue" d="M705.14,-401.78C728.7,-408 756.85,-415.43 777.17,-420.79"/>
<polygon fill="midnightblue" stroke="midnightblue" points="705.92,-398.37 695.36,-399.2 704.13,-405.13 705.92,-398.37"/>
</g>
<!-- Node2&#45;&gt;Node3 -->
<g id="edge25" class="edge">
<title>Node2&#45;&gt;Node3</title>
<path fill="none" stroke="midnightblue" d="M822.32,-445.2C847.18,-472.19 892.79,-521.59 895,-523 900.98,-526.82 907.81,-529.95 914.62,-532.47"/>
<polygon fill="midnightblue" stroke="midnightblue" points="824.7,-442.61 815.35,-437.62 819.55,-447.35 824.7,-442.61"/>
</g>
<!-- Node2&#45;&gt;Node4 -->
<g id="edge26" class="edge">
<title>Node2&#45;&gt;Node4</title>
<path fill="none" stroke="midnightblue" d="M824.54,-444.81C835.43,-455.59 849.07,-470.28 859,-485 879.9,-515.99 866.96,-536.29 895,-561 899.37,-564.85 904.54,-567.93 909.97,-570.38"/>
<polygon fill="midnightblue" stroke="midnightblue" points="826.81,-442.14 817.19,-437.71 821.95,-447.17 826.81,-442.14"/>
</g>
<!-- Node2&#45;&gt;Node5 -->
<g id="edge27" class="edge">
<title>Node2&#45;&gt;Node5</title>
<path fill="none" stroke="midnightblue" d="M833.98,-442.26C863.4,-457.52 909.25,-481.3 934.6,-494.45"/>
<polygon fill="midnightblue" stroke="midnightblue" points="835.54,-439.12 825.05,-437.63 832.32,-445.34 835.54,-439.12"/>
</g>
<!-- Node102 -->
<g id="node21" class="node">
<title>Node102</title>
<g id="a_node21"><a xlink:href="classAppMpsRegAppCh.html" target="_top" xlink:title=" ">
<polygon fill="white" stroke="black" points="264.5,-285.5 264.5,-304.5 370.5,-304.5 370.5,-285.5 264.5,-285.5"/>
<text text-anchor="middle" x="317.5" y="-292.5" font-family="Helvetica,sans-Serif" font-size="10.00">AppMpsRegAppCh</text>
</a>
</g>
</g>
<!-- Node101 -->
<g id="node22" class="node">
<title>Node101</title>
<g id="a_node22"><a xlink:href="classAppMpsReg.html" target="_top" xlink:title=" ">
<polygon fill="white" stroke="black" points="454,-266.5 454,-285.5 528,-285.5 528,-266.5 454,-266.5"/>
<text text-anchor="middle" x="491" y="-273.5" font-family="Helvetica,sans-Serif" font-size="10.00">AppMpsReg</text>
</a>
</g>
</g>
<!-- Node102&#45;&gt;Node101 -->
<g id="edge28" class="edge">
<title>Node102&#45;&gt;Node101</title>
<path fill="none" stroke="midnightblue" d="M380.86,-288.09C405.43,-285.37 432.78,-282.34 453.95,-279.99"/>
<polygon fill="midnightblue" stroke="midnightblue" points="380.44,-284.62 370.89,-289.2 381.21,-291.57 380.44,-284.62"/>
</g>
<!-- Node1 -->
<g id="node23" class="node">
<title>Node1</title>
<g id="a_node23"><a xlink:href="classAppMpsEncoder.html" target="_top" xlink:title=" ">
<polygon fill="white" stroke="black" points="612,-266.5 612,-285.5 707,-285.5 707,-266.5 612,-266.5"/>
<text text-anchor="middle" x="659.5" y="-273.5" font-family="Helvetica,sans-Serif" font-size="10.00">AppMpsEncoder</text>
</a>
</g>
</g>
<!-- Node101&#45;&gt;Node1 -->
<g id="edge29" class="edge">
<title>Node101&#45;&gt;Node1</title>
<path fill="none" stroke="midnightblue" d="M538.32,-276C561.3,-276 588.98,-276 611.99,-276"/>
<polygon fill="midnightblue" stroke="midnightblue" points="538.13,-272.5 528.13,-276 538.13,-279.5 538.13,-272.5"/>
</g>
<!-- Node1&#45;&gt;Node2 -->
<g id="edge30" class="edge">
<title>Node1&#45;&gt;Node2</title>
<path fill="none" stroke="midnightblue" d="M708.23,-289.91C710.96,-291.44 713.58,-293.13 716,-295 761.03,-329.71 790.69,-394.12 800.72,-418.4"/>
<polygon fill="midnightblue" stroke="midnightblue" points="709.72,-286.75 699.2,-285.55 706.68,-293.05 709.72,-286.75"/>
</g>
<!-- Node100 -->
<g id="node24" class="node">
<title>Node100</title>
<g id="a_node24"><a xlink:href="classAppMpsRegBase.html" target="_top" xlink:title=" ">
<polygon fill="white" stroke="black" points="268.5,-247.5 268.5,-266.5 366.5,-266.5 366.5,-247.5 268.5,-247.5"/>
<text text-anchor="middle" x="317.5" y="-254.5" font-family="Helvetica,sans-Serif" font-size="10.00">AppMpsRegBase</text>
</a>
</g>
</g>
<!-- Node100&#45;&gt;Node101 -->
<g id="edge31" class="edge">
<title>Node100&#45;&gt;Node101</title>
<path fill="none" stroke="midnightblue" d="M376.69,-263.45C402.25,-266.28 431.46,-269.51 453.82,-271.99"/>
<polygon fill="midnightblue" stroke="midnightblue" points="377.05,-259.97 366.73,-262.34 376.28,-266.92 377.05,-259.97"/>
</g>
<!-- Node99 -->
<g id="node25" class="node">
<title>Node99</title>
<g id="a_node25"><a xlink:href="classAppMpsSalt.html" target="_top" xlink:title=" ">
<polygon fill="white" stroke="black" points="622.5,-342.5 622.5,-361.5 696.5,-361.5 696.5,-342.5 622.5,-342.5"/>
<text text-anchor="middle" x="659.5" y="-349.5" font-family="Helvetica,sans-Serif" font-size="10.00">AppMpsSalt</text>
</a>
</g>
</g>
<!-- Node99&#45;&gt;Node2 -->
<g id="edge32" class="edge">
<title>Node99&#45;&gt;Node2</title>
<path fill="none" stroke="midnightblue" d="M702.31,-365.08C707,-366.91 711.65,-368.89 716,-371 744.62,-384.86 775.22,-406.21 791.89,-418.47"/>
<polygon fill="midnightblue" stroke="midnightblue" points="703.32,-361.73 692.73,-361.56 700.91,-368.3 703.32,-361.73"/>
</g>
<!-- Node98 -->
<g id="node26" class="node">
<title>Node98</title>
<g id="a_node26"><a xlink:href="classAppMpsSelect.html" target="_top" xlink:title=" ">
<polygon fill="white" stroke="black" points="448,-228.5 448,-247.5 534,-247.5 534,-228.5 448,-228.5"/>
<text text-anchor="middle" x="491" y="-235.5" font-family="Helvetica,sans-Serif" font-size="10.00">AppMpsSelect</text>
</a>
</g>
</g>
<!-- Node98&#45;&gt;Node1 -->
<g id="edge33" class="edge">
<title>Node98&#45;&gt;Node1</title>
<path fill="none" stroke="midnightblue" d="M543.81,-249.82C567.28,-255.18 594.67,-261.43 616.79,-266.48"/>
<polygon fill="midnightblue" stroke="midnightblue" points="544.54,-246.4 534.01,-247.59 542.99,-253.23 544.54,-246.4"/>
</g>
<!-- Node93 -->
<g id="node27" class="node">
<title>Node93</title>
<g id="a_node27"><a xlink:href="classAppTopJesd204b.html" target="_top" xlink:title=" ">
<polygon fill="white" stroke="black" points="443,-342.5 443,-361.5 539,-361.5 539,-342.5 443,-342.5"/>
<text text-anchor="middle" x="491" y="-349.5" font-family="Helvetica,sans-Serif" font-size="10.00">AppTopJesd204b</text>
</a>
</g>
</g>
<!-- Node93&#45;&gt;Node94 -->
<g id="edge34" class="edge">
<title>Node93&#45;&gt;Node94</title>
<path fill="none" stroke="midnightblue" d="M544.01,-340.13C569.78,-334.25 600.24,-327.3 623.25,-322.04"/>
<polygon fill="midnightblue" stroke="midnightblue" points="542.99,-336.77 534.01,-342.41 544.54,-343.6 542.99,-336.77"/>
</g>
<!-- Node82 -->
<g id="node28" class="node">
<title>Node82</title>
<g id="a_node28"><a xlink:href="classBldEventRAM.html" target="_top" xlink:title=" ">
<polygon fill="white" stroke="black" points="0,-646.5 0,-665.5 83,-665.5 83,-646.5 0,-646.5"/>
<text text-anchor="middle" x="41.5" y="-653.5" font-family="Helvetica,sans-Serif" font-size="10.00">BldEventRAM</text>
</a>
</g>
</g>
<!-- Node83 -->
<g id="node29" class="node">
<title>Node83</title>
<g id="a_node29"><a xlink:href="classBldEventSelect.html" target="_top" xlink:title=" ">
<polygon fill="white" stroke="black" points="124.5,-646.5 124.5,-665.5 214.5,-665.5 214.5,-646.5 124.5,-646.5"/>
<text text-anchor="middle" x="169.5" y="-653.5" font-family="Helvetica,sans-Serif" font-size="10.00">BldEventSelect</text>
</a>
</g>
</g>
<!-- Node82&#45;&gt;Node83 -->
<g id="edge35" class="edge">
<title>Node82&#45;&gt;Node83</title>
<path fill="none" stroke="midnightblue" d="M93.12,-656C103.37,-656 114.07,-656 124.09,-656"/>
<polygon fill="midnightblue" stroke="midnightblue" points="93.06,-652.5 83.06,-656 93.06,-659.5 93.06,-652.5"/>
</g>
<!-- Node84 -->
<g id="node30" class="node">
<title>Node84</title>
<g id="a_node30"><a xlink:href="classBldAxiStream.html" target="_top" xlink:title=" ">
<polygon fill="white" stroke="black" points="276,-646.5 276,-665.5 359,-665.5 359,-646.5 276,-646.5"/>
<text text-anchor="middle" x="317.5" y="-653.5" font-family="Helvetica,sans-Serif" font-size="10.00">BldAxiStream</text>
</a>
</g>
</g>
<!-- Node83&#45;&gt;Node84 -->
<g id="edge36" class="edge">
<title>Node83&#45;&gt;Node84</title>
<path fill="none" stroke="midnightblue" d="M224.99,-656C241.88,-656 260.17,-656 275.93,-656"/>
<polygon fill="midnightblue" stroke="midnightblue" points="224.7,-652.5 214.7,-656 224.7,-659.5 224.7,-652.5"/>
</g>
<!-- Node85 -->
<g id="node31" class="node">
<title>Node85</title>
<g id="a_node31"><a xlink:href="classBldWrapper.html" target="_top" xlink:title=" ">
<polygon fill="white" stroke="black" points="454,-646.5 454,-665.5 528,-665.5 528,-646.5 454,-646.5"/>
<text text-anchor="middle" x="491" y="-653.5" font-family="Helvetica,sans-Serif" font-size="10.00">BldWrapper</text>
</a>
</g>
</g>
<!-- Node84&#45;&gt;Node85 -->
<g id="edge37" class="edge">
<title>Node84&#45;&gt;Node85</title>
<path fill="none" stroke="midnightblue" d="M369.24,-656C396.38,-656 429.17,-656 453.73,-656"/>
<polygon fill="midnightblue" stroke="midnightblue" points="369.14,-652.5 359.14,-656 369.14,-659.5 369.14,-652.5"/>
</g>
<!-- Node71 -->
<g id="node32" class="node">
<title>Node71</title>
<g id="a_node32"><a xlink:href="classAmcCarrierBsa.html" target="_top" xlink:title=" ">
<polygon fill="white" stroke="black" points="615,-608.5 615,-627.5 704,-627.5 704,-608.5 615,-608.5"/>
<text text-anchor="middle" x="659.5" y="-615.5" font-family="Helvetica,sans-Serif" font-size="10.00">AmcCarrierBsa</text>
</a>
</g>
</g>
<!-- Node85&#45;&gt;Node71 -->
<g id="edge38" class="edge">
<title>Node85&#45;&gt;Node71</title>
<path fill="none" stroke="midnightblue" d="M537.99,-645.5C562.68,-639.87 592.88,-632.98 616.87,-627.5"/>
<polygon fill="midnightblue" stroke="midnightblue" points="537.1,-642.12 528.13,-647.75 538.66,-648.94 537.1,-642.12"/>
</g>
<!-- Node71&#45;&gt;Node72 -->
<g id="edge39" class="edge">
<title>Node71&#45;&gt;Node72</title>
<path fill="none" stroke="midnightblue" d="M691.81,-604.57C709.42,-597.13 731.84,-587.83 752,-580 760.22,-576.81 769.23,-573.48 777.43,-570.52"/>
<polygon fill="midnightblue" stroke="midnightblue" points="690.41,-601.37 682.57,-608.5 693.14,-607.81 690.41,-601.37"/>
</g>
<!-- Node71&#45;&gt;Node73 -->
<g id="edge40" class="edge">
<title>Node71&#45;&gt;Node73</title>
<path fill="none" stroke="midnightblue" d="M679.19,-601.86C697.47,-586.21 726.25,-561.98 752,-542 764.8,-532.07 779.81,-521.29 790.5,-513.75"/>
<polygon fill="midnightblue" stroke="midnightblue" points="676.88,-599.22 671.57,-608.4 681.44,-604.54 676.88,-599.22"/>
</g>
<!-- Node80 -->
<g id="node33" class="node">
<title>Node80</title>
<g id="a_node33"><a xlink:href="classBsaAccumulator.html" target="_top" xlink:title=" ">
<polygon fill="white" stroke="black" points="269.5,-608.5 269.5,-627.5 365.5,-627.5 365.5,-608.5 269.5,-608.5"/>
<text text-anchor="middle" x="317.5" y="-615.5" font-family="Helvetica,sans-Serif" font-size="10.00">BsaAccumulator</text>
</a>
</g>
</g>
<!-- Node81 -->
<g id="node34" class="node">
<title>Node81</title>
<g id="a_node34"><a xlink:href="classBsaBufferControl.html" target="_top" xlink:title=" ">
<polygon fill="white" stroke="black" points="441.5,-608.5 441.5,-627.5 540.5,-627.5 540.5,-608.5 441.5,-608.5"/>
<text text-anchor="middle" x="491" y="-615.5" font-family="Helvetica,sans-Serif" font-size="10.00">BsaBufferControl</text>
</a>
</g>
</g>
<!-- Node80&#45;&gt;Node81 -->
<g id="edge41" class="edge">
<title>Node80&#45;&gt;Node81</title>
<path fill="none" stroke="midnightblue" d="M375.99,-618C397.2,-618 421,-618 441.35,-618"/>
<polygon fill="midnightblue" stroke="midnightblue" points="375.82,-614.5 365.82,-618 375.82,-621.5 375.82,-614.5"/>
</g>
<!-- Node81&#45;&gt;Node71 -->
<g id="edge42" class="edge">
<title>Node81&#45;&gt;Node71</title>
<path fill="none" stroke="midnightblue" d="M550.77,-618C571.9,-618 595.34,-618 614.94,-618"/>
<polygon fill="midnightblue" stroke="midnightblue" points="550.61,-614.5 540.61,-618 550.61,-621.5 550.61,-614.5"/>
</g>
<!-- Node79 -->
<g id="node35" class="node">
<title>Node79</title>
<g id="a_node35"><a xlink:href="classBsaAxiInterconnectWrapper.html" target="_top" xlink:title=" ">
<polygon fill="white" stroke="black" points="415,-570.5 415,-589.5 567,-589.5 567,-570.5 415,-570.5"/>
<text text-anchor="middle" x="491" y="-577.5" font-family="Helvetica,sans-Serif" font-size="10.00">BsaAxiInterconnectWrapper</text>
</a>
</g>
</g>
<!-- Node79&#45;&gt;Node71 -->
<g id="edge43" class="edge">
<title>Node79&#45;&gt;Node71</title>
<path fill="none" stroke="midnightblue" d="M543.81,-591.82C567.28,-597.18 594.67,-603.43 616.79,-608.48"/>
<polygon fill="midnightblue" stroke="midnightblue" points="544.54,-588.4 534.01,-589.59 542.99,-595.23 544.54,-588.4"/>
</g>
<!-- Node76 -->
<g id="node36" class="node">
<title>Node76</title>
<g id="a_node36"><a xlink:href="classBsasAccumulator.html" target="_top" xlink:title=" ">
<polygon fill="white" stroke="black" points="119,-532.5 119,-551.5 220,-551.5 220,-532.5 119,-532.5"/>
<text text-anchor="middle" x="169.5" y="-539.5" font-family="Helvetica,sans-Serif" font-size="10.00">BsasAccumulator</text>
</a>
</g>
</g>
<!-- Node77 -->
<g id="node37" class="node">
<title>Node77</title>
<g id="a_node37"><a xlink:href="classBsasModule.html" target="_top" xlink:title=" ">
<polygon fill="white" stroke="black" points="279.5,-532.5 279.5,-551.5 355.5,-551.5 355.5,-532.5 279.5,-532.5"/>
<text text-anchor="middle" x="317.5" y="-539.5" font-family="Helvetica,sans-Serif" font-size="10.00">BsasModule</text>
</a>
</g>
</g>
<!-- Node76&#45;&gt;Node77 -->
<g id="edge44" class="edge">
<title>Node76&#45;&gt;Node77</title>
<path fill="none" stroke="midnightblue" d="M230.49,-542C247.03,-542 264.49,-542 279.33,-542"/>
<polygon fill="midnightblue" stroke="midnightblue" points="230.34,-538.5 220.34,-542 230.34,-545.5 230.34,-538.5"/>
</g>
<!-- Node78 -->
<g id="node38" class="node">
<title>Node78</title>
<g id="a_node38"><a xlink:href="classBsasWrapper.html" target="_top" xlink:title=" ">
<polygon fill="white" stroke="black" points="450.5,-532.5 450.5,-551.5 531.5,-551.5 531.5,-532.5 450.5,-532.5"/>
<text text-anchor="middle" x="491" y="-539.5" font-family="Helvetica,sans-Serif" font-size="10.00">BsasWrapper</text>
</a>
</g>
</g>
<!-- Node77&#45;&gt;Node78 -->
<g id="edge45" class="edge">
<title>Node77&#45;&gt;Node78</title>
<path fill="none" stroke="midnightblue" d="M365.94,-542C392.52,-542 425.29,-542 450.47,-542"/>
<polygon fill="midnightblue" stroke="midnightblue" points="365.71,-538.5 355.71,-542 365.71,-545.5 365.71,-538.5"/>
</g>
<!-- Node78&#45;&gt;Node71 -->
<g id="edge46" class="edge">
<title>Node78&#45;&gt;Node71</title>
<path fill="none" stroke="midnightblue" d="M541.39,-550.8C550.21,-553.4 559.1,-556.73 567,-561 586.1,-571.31 584.79,-582.2 603,-594 611.81,-599.71 622.21,-604.62 631.6,-608.49"/>
<polygon fill="midnightblue" stroke="midnightblue" points="542.08,-547.37 531.51,-548.17 540.28,-554.13 542.08,-547.37"/>
</g>
<!-- Node74 -->
<g id="node39" class="node">
<title>Node74</title>
<g id="a_node39"><a xlink:href="classBsaWaveformEngine.html" target="_top" xlink:title=" ">
<polygon fill="white" stroke="black" points="432,-494.5 432,-513.5 550,-513.5 550,-494.5 432,-494.5"/>
<text text-anchor="middle" x="491" y="-501.5" font-family="Helvetica,sans-Serif" font-size="10.00">BsaWaveformEngine</text>
</a>
</g>
</g>
<!-- Node74&#45;&gt;Node71 -->
<g id="edge47" class="edge">
<title>Node74&#45;&gt;Node71</title>
<path fill="none" stroke="midnightblue" d="M559.21,-517.72C561.95,-519.3 564.56,-521.05 567,-523 594.63,-545.1 577.23,-569.76 603,-594 609.58,-600.19 618,-604.92 626.28,-608.49"/>
<polygon fill="midnightblue" stroke="midnightblue" points="560.63,-514.52 550.11,-513.27 557.55,-520.81 560.63,-514.52"/>
</g>
<!-- Node70 -->
<g id="node40" class="node">
<title>Node70</title>
<g id="a_node40"><a xlink:href="classBsssWrapper.html" target="_top" xlink:title=" ">
<polygon fill="white" stroke="black" points="451,-684.5 451,-703.5 531,-703.5 531,-684.5 451,-684.5"/>
<text text-anchor="middle" x="491" y="-691.5" font-family="Helvetica,sans-Serif" font-size="10.00">BsssWrapper</text>
</a>
</g>
</g>
<!-- Node70&#45;&gt;Node71 -->
<g id="edge48" class="edge">
<title>Node70&#45;&gt;Node71</title>
<path fill="none" stroke="midnightblue" d="M540.78,-685.9C549.86,-683.23 559,-679.69 567,-675 587.07,-663.23 583.43,-649.58 603,-637 608.91,-633.2 615.67,-630.07 622.39,-627.52"/>
<polygon fill="midnightblue" stroke="midnightblue" points="539.79,-682.55 531,-688.48 541.57,-689.32 539.79,-682.55"/>
</g>
<!-- Node69 -->
<g id="node41" class="node">
<title>Node69</title>
<g id="a_node41"><a xlink:href="classDacSigGenLane.html" target="_top" xlink:title=" ">
<polygon fill="white" stroke="black" points="444.5,-152.5 444.5,-171.5 537.5,-171.5 537.5,-152.5 444.5,-152.5"/>
<text text-anchor="middle" x="491" y="-159.5" font-family="Helvetica,sans-Serif" font-size="10.00">DacSigGenLane</text>
</a>
</g>
</g>
<!-- Node67 -->
<g id="node42" class="node">
<title>Node67</title>
<g id="a_node42"><a xlink:href="classDacSigGen.html" target="_top" xlink:title=" ">
<polygon fill="white" stroke="black" points="624.5,-171.5 624.5,-190.5 694.5,-190.5 694.5,-171.5 624.5,-171.5"/>
<text text-anchor="middle" x="659.5" y="-178.5" font-family="Helvetica,sans-Serif" font-size="10.00">DacSigGen</text>
</a>
</g>
</g>
<!-- Node69&#45;&gt;Node67 -->
<g id="edge49" class="edge">
<title>Node69&#45;&gt;Node67</title>
<path fill="none" stroke="midnightblue" d="M548.14,-168.41C573.4,-171.29 602.4,-174.6 624.33,-177.1"/>
<polygon fill="midnightblue" stroke="midnightblue" points="548.27,-164.9 537.94,-167.24 547.48,-171.85 548.27,-164.9"/>
</g>
<!-- Node67&#45;&gt;Node59 -->
<g id="edge50" class="edge">
<title>Node67&#45;&gt;Node59</title>
<path fill="none" stroke="midnightblue" d="M704.75,-175.16C729.17,-171.94 758.63,-168.05 779.18,-165.34"/>
<polygon fill="midnightblue" stroke="midnightblue" points="704.08,-171.72 694.63,-176.5 705,-178.66 704.08,-171.72"/>
</g>
<!-- Node68 -->
<g id="node43" class="node">
<title>Node68</title>
<g id="a_node43"><a xlink:href="classDacSigGenTb.html" target="_top" xlink:title=" ">
<polygon fill="white" stroke="black" points="764.5,-190.5 764.5,-209.5 846.5,-209.5 846.5,-190.5 764.5,-190.5"/>
<text text-anchor="middle" x="805.5" y="-197.5" font-family="Helvetica,sans-Serif" font-size="10.00">DacSigGenTb</text>
</a>
</g>
</g>
<!-- Node67&#45;&gt;Node68 -->
<g id="edge51" class="edge">
<title>Node67&#45;&gt;Node68</title>
<path fill="none" stroke="midnightblue" d="M704.58,-186.82C723.68,-189.34 745.87,-192.26 764.49,-194.72"/>
<polygon fill="midnightblue" stroke="midnightblue" points="705,-183.34 694.63,-185.5 704.08,-190.28 705,-183.34"/>
</g>
<!-- Node66 -->
<g id="node44" class="node">
<title>Node66</title>
<g id="a_node44"><a xlink:href="classDacSigGenReg.html" target="_top" xlink:title=" ">
<polygon fill="white" stroke="black" points="446.5,-190.5 446.5,-209.5 535.5,-209.5 535.5,-190.5 446.5,-190.5"/>
<text text-anchor="middle" x="491" y="-197.5" font-family="Helvetica,sans-Serif" font-size="10.00">DacSigGenReg</text>
</a>
</g>
</g>
<!-- Node66&#45;&gt;Node67 -->
<g id="edge52" class="edge">
<title>Node66&#45;&gt;Node67</title>
<path fill="none" stroke="midnightblue" d="M545.75,-193.87C571.52,-190.93 601.62,-187.49 624.24,-184.91"/>
<polygon fill="midnightblue" stroke="midnightblue" points="545.28,-190.4 535.75,-195.01 546.08,-197.35 545.28,-190.4"/>
</g>
<!-- Node64 -->
<g id="node45" class="node">
<title>Node64</title>
<g id="a_node45"><a xlink:href="classDaqDecimator.html" target="_top" xlink:title=" ">
<polygon fill="white" stroke="black" points="274,-19.5 274,-38.5 361,-38.5 361,-19.5 274,-19.5"/>
<text text-anchor="middle" x="317.5" y="-26.5" font-family="Helvetica,sans-Serif" font-size="10.00">DaqDecimator</text>
</a>
</g>
</g>
<!-- Node65 -->
<g id="node46" class="node">
<title>Node65</title>
<g id="a_node46"><a xlink:href="classDaqDecimatorTb.html" target="_top" xlink:title=" ">
<polygon fill="white" stroke="black" points="441.5,-0.5 441.5,-19.5 540.5,-19.5 540.5,-0.5 441.5,-0.5"/>
<text text-anchor="middle" x="491" y="-7.5" font-family="Helvetica,sans-Serif" font-size="10.00">DaqDecimatorTb</text>
</a>
</g>
</g>
<!-- Node64&#45;&gt;Node65 -->
<g id="edge53" class="edge">
<title>Node64&#45;&gt;Node65</title>
<path fill="none" stroke="midnightblue" d="M371.32,-23.15C393.65,-20.67 419.5,-17.81 441.35,-15.39"/>
<polygon fill="midnightblue" stroke="midnightblue" points="370.89,-19.67 361.33,-24.25 371.66,-26.63 370.89,-19.67"/>
</g>
<!-- Node62 -->
<g id="node47" class="node">
<title>Node62</title>
<g id="a_node47"><a xlink:href="classDaqLane.html" target="_top" xlink:title=" ">
<polygon fill="white" stroke="black" points="461.5,-76.5 461.5,-95.5 520.5,-95.5 520.5,-76.5 461.5,-76.5"/>
<text text-anchor="middle" x="491" y="-83.5" font-family="Helvetica,sans-Serif" font-size="10.00">DaqLane</text>
</a>
</g>
</g>
<!-- Node64&#45;&gt;Node62 -->
<g id="edge54" class="edge">
<title>Node64&#45;&gt;Node62</title>
<path fill="none" stroke="midnightblue" d="M349.67,-42.44C368.4,-50.22 392.82,-59.85 415,-67 430.09,-71.86 447.2,-76.28 461.27,-79.63"/>
<polygon fill="midnightblue" stroke="midnightblue" points="351.02,-39.21 340.44,-38.56 348.31,-45.66 351.02,-39.21"/>
</g>
<!-- Node58 -->
<g id="node48" class="node">
<title>Node58</title>
<g id="a_node48"><a xlink:href="classDaqMuxV2.html" target="_top" xlink:title=" ">
<polygon fill="white" stroke="black" points="624.5,-95.5 624.5,-114.5 694.5,-114.5 694.5,-95.5 624.5,-95.5"/>
<text text-anchor="middle" x="659.5" y="-102.5" font-family="Helvetica,sans-Serif" font-size="10.00">DaqMuxV2</text>
</a>
</g>
</g>
<!-- Node62&#45;&gt;Node58 -->
<g id="edge55" class="edge">
<title>Node62&#45;&gt;Node58</title>
<path fill="none" stroke="midnightblue" d="M530.57,-90.4C558.87,-93.63 596.97,-97.98 624.21,-101.09"/>
<polygon fill="midnightblue" stroke="midnightblue" points="530.95,-86.92 520.62,-89.27 530.16,-93.88 530.95,-86.92"/>
</g>
<!-- Node58&#45;&gt;Node59 -->
<g id="edge56" class="edge">
<title>Node58&#45;&gt;Node59</title>
<path fill="none" stroke="midnightblue" d="M694.2,-118.34C720.61,-128.8 756.72,-143.09 780.32,-152.43"/>
<polygon fill="midnightblue" stroke="midnightblue" points="695.19,-114.97 684.6,-114.54 692.61,-121.48 695.19,-114.97"/>
</g>
<!-- Node60 -->
<g id="node49" class="node">
<title>Node60</title>
<g id="a_node49"><a xlink:href="classDaqMuxV2Tb.html" target="_top" xlink:title=" ">
<polygon fill="white" stroke="black" points="764.5,-95.5 764.5,-114.5 846.5,-114.5 846.5,-95.5 764.5,-95.5"/>
<text text-anchor="middle" x="805.5" y="-102.5" font-family="Helvetica,sans-Serif" font-size="10.00">DaqMuxV2Tb</text>
</a>
</g>
</g>
<!-- Node58&#45;&gt;Node60 -->
<g id="edge57" class="edge">
<title>Node58&#45;&gt;Node60</title>
<path fill="none" stroke="midnightblue" d="M704.85,-105C723.88,-105 745.96,-105 764.49,-105"/>
<polygon fill="midnightblue" stroke="midnightblue" points="704.63,-101.5 694.63,-105 704.63,-108.5 704.63,-101.5"/>
</g>
<!-- Node63 -->
<g id="node50" class="node">
<title>Node63</title>
<g id="a_node50"><a xlink:href="classDaqRegItf.html" target="_top" xlink:title=" ">
<polygon fill="white" stroke="black" points="458.5,-38.5 458.5,-57.5 523.5,-57.5 523.5,-38.5 458.5,-38.5"/>
<text text-anchor="middle" x="491" y="-45.5" font-family="Helvetica,sans-Serif" font-size="10.00">DaqRegItf</text>
</a>
</g>
</g>
<!-- Node63&#45;&gt;Node58 -->
<g id="edge58" class="edge">
<title>Node63&#45;&gt;Node58</title>
<path fill="none" stroke="midnightblue" d="M533.49,-57.36C544.48,-60.16 556.26,-63.43 567,-67 591.81,-75.25 619.42,-87.1 637.75,-95.36"/>
<polygon fill="midnightblue" stroke="midnightblue" points="534.22,-53.94 523.68,-54.94 532.55,-60.74 534.22,-53.94"/>
</g>
<!-- Node61 -->
<g id="node51" class="node">
<title>Node61</title>
<g id="a_node51"><a xlink:href="classDaqTestSig.html" target="_top" xlink:title=" ">
<polygon fill="white" stroke="black" points="282,-76.5 282,-95.5 353,-95.5 353,-76.5 282,-76.5"/>
<text text-anchor="middle" x="317.5" y="-83.5" font-family="Helvetica,sans-Serif" font-size="10.00">DaqTestSig</text>
</a>
</g>
</g>
<!-- Node61&#45;&gt;Node62 -->
<g id="edge59" class="edge">
<title>Node61&#45;&gt;Node62</title>
<path fill="none" stroke="midnightblue" d="M363.32,-86C394.3,-86 434.58,-86 461.32,-86"/>
<polygon fill="midnightblue" stroke="midnightblue" points="363.21,-82.5 353.21,-86 363.21,-89.5 363.21,-82.5"/>
</g>
<!-- Node57 -->
<g id="node52" class="node">
<title>Node57</title>
<g id="a_node52"><a xlink:href="classDaqTrigger.html" target="_top" xlink:title=" ">
<polygon fill="white" stroke="black" points="456.5,-114.5 456.5,-133.5 525.5,-133.5 525.5,-114.5 456.5,-114.5"/>
<text text-anchor="middle" x="491" y="-121.5" font-family="Helvetica,sans-Serif" font-size="10.00">DaqTrigger</text>
</a>
</g>
</g>
<!-- Node57&#45;&gt;Node58 -->
<g id="edge60" class="edge">
<title>Node57&#45;&gt;Node58</title>
<path fill="none" stroke="midnightblue" d="M535.89,-118.99C563.53,-115.84 598.71,-111.82 624.28,-108.9"/>
<polygon fill="midnightblue" stroke="midnightblue" points="535.23,-115.54 525.69,-120.16 536.03,-122.5 535.23,-115.54"/>
</g>
<!-- Node0 -->
<g id="node53" class="node">
<title>Node0</title>
<g id="a_node53"><a xlink:href="classMpsMsgCore.html" target="_top" xlink:title=" ">
<polygon fill="white" stroke="black" points="451,-304.5 451,-323.5 531,-323.5 531,-304.5 451,-304.5"/>
<text text-anchor="middle" x="491" y="-311.5" font-family="Helvetica,sans-Serif" font-size="10.00">MpsMsgCore</text>
</a>
</g>
</g>
<!-- Node0&#45;&gt;Node1 -->
<g id="edge61" class="edge">
<title>Node0&#45;&gt;Node1</title>
<path fill="none" stroke="midnightblue" d="M541.04,-302.81C565.11,-297.31 593.8,-290.77 616.8,-285.52"/>
<polygon fill="midnightblue" stroke="midnightblue" points="540.01,-299.45 531.04,-305.09 541.56,-306.28 540.01,-299.45"/>
</g>
</g>
</svg>
