<?xml version="1.0" encoding="UTF-8" standalone="no"?>
<!DOCTYPE svg PUBLIC "-//W3C//DTD SVG 1.1//EN"
 "http://www.w3.org/Graphics/SVG/1.1/DTD/svg11.dtd">
<!-- Generated by graphviz version 2.43.0 (0)
 -->
<!-- Title: Graphical Class Hierarchy Pages: 1 -->
<svg width="443pt" height="180pt"
 viewBox="0.00 0.00 443.00 180.00" xmlns="http://www.w3.org/2000/svg" xmlns:xlink="http://www.w3.org/1999/xlink">
<g id="graph0" class="graph" transform="scale(1 1) rotate(0) translate(4 176)">
<title>Graphical Class Hierarchy</title>
<polygon fill="white" stroke="transparent" points="-4,4 -4,-176 439,-176 439,4 -4,4"/>
<!-- Node100 -->
<g id="node1" class="node">
<title>Node100</title>
<g id="a_node1"><a xlink:href="classAmcMpsSfpHsRepeater.html" target="_top" xlink:title=" ">
<polygon fill="white" stroke="black" points="0,-152.5 0,-171.5 131,-171.5 131,-152.5 0,-152.5"/>
<text text-anchor="middle" x="65.5" y="-159.5" font-family="Helvetica,sans-Serif" font-size="10.00">AmcMpsSfpHsRepeater</text>
</a>
</g>
</g>
<!-- Node1 -->
<g id="node2" class="node">
<title>Node1</title>
<g id="a_node2"><a xlink:href="classAmcMpsSfpCore.html" target="_top" xlink:title=" ">
<polygon fill="white" stroke="black" points="175,-114.5 175,-133.5 272,-133.5 272,-114.5 175,-114.5"/>
<text text-anchor="middle" x="223.5" y="-121.5" font-family="Helvetica,sans-Serif" font-size="10.00">AmcMpsSfpCore</text>
</a>
</g>
</g>
<!-- Node100&#45;&gt;Node1 -->
<g id="edge1" class="edge">
<title>Node100&#45;&gt;Node1</title>
<path fill="none" stroke="midnightblue" d="M115.63,-150.03C137.49,-144.71 162.88,-138.52 183.42,-133.52"/>
<polygon fill="midnightblue" stroke="midnightblue" points="114.75,-146.64 105.87,-152.41 116.41,-153.44 114.75,-146.64"/>
</g>
<!-- Node2 -->
<g id="node3" class="node">
<title>Node2</title>
<g id="a_node3"><a xlink:href="classAmcMpsSfpDualCore.html" target="_top" xlink:title=" ">
<polygon fill="white" stroke="black" points="316,-114.5 316,-133.5 435,-133.5 435,-114.5 316,-114.5"/>
<text text-anchor="middle" x="375.5" y="-121.5" font-family="Helvetica,sans-Serif" font-size="10.00">AmcMpsSfpDualCore</text>
</a>
</g>
</g>
<!-- Node1&#45;&gt;Node2 -->
<g id="edge2" class="edge">
<title>Node1&#45;&gt;Node2</title>
<path fill="none" stroke="midnightblue" d="M282.62,-124C293.5,-124 304.88,-124 315.78,-124"/>
<polygon fill="midnightblue" stroke="midnightblue" points="282.37,-120.5 272.37,-124 282.37,-127.5 282.37,-120.5"/>
</g>
<!-- Node99 -->
<g id="node4" class="node">
<title>Node99</title>
<g id="a_node4"><a xlink:href="classAmcMpsSfpMon.html" target="_top" xlink:title=" ">
<polygon fill="white" stroke="black" points="18,-114.5 18,-133.5 113,-133.5 113,-114.5 18,-114.5"/>
<text text-anchor="middle" x="65.5" y="-121.5" font-family="Helvetica,sans-Serif" font-size="10.00">AmcMpsSfpMon</text>
</a>
</g>
</g>
<!-- Node99&#45;&gt;Node1 -->
<g id="edge3" class="edge">
<title>Node99&#45;&gt;Node1</title>
<path fill="none" stroke="midnightblue" d="M123.59,-124C140.45,-124 158.72,-124 174.92,-124"/>
<polygon fill="midnightblue" stroke="midnightblue" points="123.31,-120.5 113.31,-124 123.31,-127.5 123.31,-120.5"/>
</g>
<!-- Node17 -->
<g id="node5" class="node">
<title>Node17</title>
<g id="a_node5"><a xlink:href="classRtmDigitalDebugDin.html" target="_top" xlink:title=" ">
<polygon fill="white" stroke="black" points="7,-38.5 7,-57.5 124,-57.5 124,-38.5 7,-38.5"/>
<text text-anchor="middle" x="65.5" y="-45.5" font-family="Helvetica,sans-Serif" font-size="10.00">RtmDigitalDebugDin</text>
</a>
</g>
</g>
<!-- Node3 -->
<g id="node6" class="node">
<title>Node3</title>
<g id="a_node6"><a xlink:href="classRtmDigitalDebugV2.html" target="_top" xlink:title=" ">
<polygon fill="white" stroke="black" points="167,-38.5 167,-57.5 280,-57.5 280,-38.5 167,-38.5"/>
<text text-anchor="middle" x="223.5" y="-45.5" font-family="Helvetica,sans-Serif" font-size="10.00">RtmDigitalDebugV2</text>
</a>
</g>
</g>
<!-- Node17&#45;&gt;Node3 -->
<g id="edge4" class="edge">
<title>Node17&#45;&gt;Node3</title>
<path fill="none" stroke="midnightblue" d="M134.44,-48C145.28,-48 156.39,-48 166.91,-48"/>
<polygon fill="midnightblue" stroke="midnightblue" points="134.15,-44.5 124.15,-48 134.15,-51.5 134.15,-44.5"/>
</g>
<!-- Node16 -->
<g id="node7" class="node">
<title>Node16</title>
<g id="a_node7"><a xlink:href="classRtmDigitalDebugDout.html" target="_top" xlink:title=" ">
<polygon fill="white" stroke="black" points="3.5,-0.5 3.5,-19.5 127.5,-19.5 127.5,-0.5 3.5,-0.5"/>
<text text-anchor="middle" x="65.5" y="-7.5" font-family="Helvetica,sans-Serif" font-size="10.00">RtmDigitalDebugDout</text>
</a>
</g>
</g>
<!-- Node16&#45;&gt;Node3 -->
<g id="edge5" class="edge">
<title>Node16&#45;&gt;Node3</title>
<path fill="none" stroke="midnightblue" d="M115.63,-21.97C137.49,-27.29 162.88,-33.48 183.42,-38.48"/>
<polygon fill="midnightblue" stroke="midnightblue" points="116.41,-18.56 105.87,-19.59 114.75,-25.36 116.41,-18.56"/>
</g>
<!-- Node0 -->
<g id="node8" class="node">
<title>Node0</title>
<g id="a_node8"><a xlink:href="classSi5317a.html" target="_top" xlink:title=" ">
<polygon fill="white" stroke="black" points="37.5,-76.5 37.5,-95.5 93.5,-95.5 93.5,-76.5 37.5,-76.5"/>
<text text-anchor="middle" x="65.5" y="-83.5" font-family="Helvetica,sans-Serif" font-size="10.00">Si5317a</text>
</a>
</g>
</g>
<!-- Node0&#45;&gt;Node1 -->
<g id="edge6" class="edge">
<title>Node0&#45;&gt;Node1</title>
<path fill="none" stroke="midnightblue" d="M103.5,-95.01C127.56,-100.87 158.89,-108.5 183.36,-114.47"/>
<polygon fill="midnightblue" stroke="midnightblue" points="104.22,-91.59 93.67,-92.62 102.56,-98.39 104.22,-91.59"/>
</g>
<!-- Node0&#45;&gt;Node3 -->
<g id="edge7" class="edge">
<title>Node0&#45;&gt;Node3</title>
<path fill="none" stroke="midnightblue" d="M103.5,-76.99C127.56,-71.13 158.89,-63.5 183.36,-57.53"/>
<polygon fill="midnightblue" stroke="midnightblue" points="102.56,-73.61 93.67,-79.38 104.22,-80.41 102.56,-73.61"/>
</g>
</g>
</svg>
