<?xml version="1.0" encoding="UTF-8" standalone="no"?>
<!DOCTYPE svg PUBLIC "-//W3C//DTD SVG 1.1//EN"
 "http://www.w3.org/Graphics/SVG/1.1/DTD/svg11.dtd">
<!-- Generated by graphviz version 2.43.0 (0)
 -->
<!-- Title: Graphical Class Hierarchy Pages: 1 -->
<svg width="480pt" height="66pt"
 viewBox="0.00 0.00 480.00 66.00" xmlns="http://www.w3.org/2000/svg" xmlns:xlink="http://www.w3.org/1999/xlink">
<g id="graph0" class="graph" transform="scale(1 1) rotate(0) translate(4 62)">
<title>Graphical Class Hierarchy</title>
<polygon fill="white" stroke="transparent" points="-4,4 -4,-62 476,-62 476,4 -4,4"/>
<!-- Node92 -->
<g id="node1" class="node">
<title>Node92</title>
<g id="a_node1"><a xlink:href="classAxisBramFlashBufferRdFsm.html" target="_top" xlink:title=" ">
<polygon fill="white" stroke="black" points="0.5,-38.5 0.5,-57.5 153.5,-57.5 153.5,-38.5 0.5,-38.5"/>
<text text-anchor="middle" x="77" y="-45.5" font-family="Helvetica,sans-Serif" font-size="10.00">AxisBramFlashBufferRdFsm</text>
</a>
</g>
</g>
<!-- Node1 -->
<g id="node2" class="node">
<title>Node1</title>
<g id="a_node2"><a xlink:href="classAxisBramFlashBuffer.html" target="_top" xlink:title=" ">
<polygon fill="white" stroke="black" points="190,-19.5 190,-38.5 309,-38.5 309,-19.5 190,-19.5"/>
<text text-anchor="middle" x="249.5" y="-26.5" font-family="Helvetica,sans-Serif" font-size="10.00">AxisBramFlashBuffer</text>
</a>
</g>
</g>
<!-- Node92&#45;&gt;Node1 -->
<g id="edge1" class="edge">
<title>Node92&#45;&gt;Node1</title>
<path fill="none" stroke="midnightblue" d="M163.74,-38.45C172.57,-37.46 181.4,-36.48 189.85,-35.54"/>
<polygon fill="midnightblue" stroke="midnightblue" points="163.33,-34.97 153.78,-39.56 164.1,-41.93 163.33,-34.97"/>
</g>
<!-- Node2 -->
<g id="node3" class="node">
<title>Node2</title>
<g id="a_node3"><a xlink:href="classAxisBramRingBufferTb.html" target="_top" xlink:title=" ">
<polygon fill="white" stroke="black" points="345,-19.5 345,-38.5 472,-38.5 472,-19.5 345,-19.5"/>
<text text-anchor="middle" x="408.5" y="-26.5" font-family="Helvetica,sans-Serif" font-size="10.00">AxisBramRingBufferTb</text>
</a>
</g>
</g>
<!-- Node1&#45;&gt;Node2 -->
<g id="edge2" class="edge">
<title>Node1&#45;&gt;Node2</title>
<path fill="none" stroke="midnightblue" d="M319.57,-29C327.98,-29 336.54,-29 344.85,-29"/>
<polygon fill="midnightblue" stroke="midnightblue" points="319.41,-25.5 309.41,-29 319.41,-32.5 319.41,-25.5"/>
</g>
<!-- Node0 -->
<g id="node4" class="node">
<title>Node0</title>
<g id="a_node4"><a xlink:href="classAxisBramFlashBufferWrFsm.html" target="_top" xlink:title=" ">
<polygon fill="white" stroke="black" points="0,-0.5 0,-19.5 154,-19.5 154,-0.5 0,-0.5"/>
<text text-anchor="middle" x="77" y="-7.5" font-family="Helvetica,sans-Serif" font-size="10.00">AxisBramFlashBufferWrFsm</text>
</a>
</g>
</g>
<!-- Node0&#45;&gt;Node1 -->
<g id="edge3" class="edge">
<title>Node0&#45;&gt;Node1</title>
<path fill="none" stroke="midnightblue" d="M164.41,-19.63C173.05,-20.59 181.68,-21.55 189.94,-22.47"/>
<polygon fill="midnightblue" stroke="midnightblue" points="164.6,-16.13 154.27,-18.5 163.82,-23.09 164.6,-16.13"/>
</g>
</g>
</svg>
