<?xml version="1.0" encoding="UTF-8" standalone="no"?>
<!DOCTYPE svg PUBLIC "-//W3C//DTD SVG 1.1//EN"
 "http://www.w3.org/Graphics/SVG/1.1/DTD/svg11.dtd">
<!-- Generated by graphviz version 2.43.0 (0)
 -->
<!-- Title: Graphical Class Hierarchy Pages: 1 -->
<svg width="1010pt" height="750pt"
 viewBox="0.00 0.00 1010.00 750.00" xmlns="http://www.w3.org/2000/svg" xmlns:xlink="http://www.w3.org/1999/xlink">
<g id="graph0" class="graph" transform="scale(1 1) rotate(0) translate(4 746)">
<title>Graphical Class Hierarchy</title>
<polygon fill="white" stroke="transparent" points="-4,4 -4,-746 1006,-746 1006,4 -4,4"/>
<!-- Node126 -->
<g id="node1" class="node">
<title>Node126</title>
<g id="a_node1"><a xlink:href="classAmcCarrierBsi.html" target="_top" xlink:title=" ">
<polygon fill="white" stroke="black" points="605.5,-684.5 605.5,-703.5 691.5,-703.5 691.5,-684.5 605.5,-684.5"/>
<text text-anchor="middle" x="648.5" y="-691.5" font-family="Helvetica,sans-Serif" font-size="10.00">AmcCarrierBsi</text>
</a>
</g>
</g>
<!-- Node117 -->
<g id="node2" class="node">
<title>Node117</title>
<g id="a_node2"><a xlink:href="classAmcCarrierSysReg.html" target="_top" xlink:title=" ">
<polygon fill="white" stroke="black" points="741,-589.5 741,-608.5 848,-608.5 848,-589.5 741,-589.5"/>
<text text-anchor="middle" x="794.5" y="-596.5" font-family="Helvetica,sans-Serif" font-size="10.00">AmcCarrierSysReg</text>
</a>
</g>
</g>
<!-- Node126&#45;&gt;Node117 -->
<g id="edge1" class="edge">
<title>Node126&#45;&gt;Node117</title>
<path fill="none" stroke="midnightblue" d="M693.5,-680.7C697.48,-678.98 701.37,-677.08 705,-675 737.7,-656.29 769.6,-624.65 784.6,-608.74"/>
<polygon fill="midnightblue" stroke="midnightblue" points="692.15,-677.47 684.14,-684.41 694.73,-683.98 692.15,-677.47"/>
</g>
<!-- Node3 -->
<g id="node3" class="node">
<title>Node3</title>
<g id="a_node3"><a xlink:href="classAmcCarrierCoreAdv.html" target="_top" xlink:title=" ">
<polygon fill="white" stroke="black" points="886.5,-532.5 886.5,-551.5 999.5,-551.5 999.5,-532.5 886.5,-532.5"/>
<text text-anchor="middle" x="943" y="-539.5" font-family="Helvetica,sans-Serif" font-size="10.00">AmcCarrierCoreAdv</text>
</a>
</g>
</g>
<!-- Node117&#45;&gt;Node3 -->
<g id="edge2" class="edge">
<title>Node117&#45;&gt;Node3</title>
<path fill="none" stroke="midnightblue" d="M833.86,-585.82C838.66,-583.96 843.47,-582 848,-580 864.55,-572.68 867.34,-568.06 884,-561 892.1,-557.57 901.04,-554.36 909.43,-551.6"/>
<polygon fill="midnightblue" stroke="midnightblue" points="832.26,-582.68 824.12,-589.45 834.71,-589.23 832.26,-582.68"/>
</g>
<!-- Node4 -->
<g id="node4" class="node">
<title>Node4</title>
<g id="a_node4"><a xlink:href="classAmcCarrierCoreBase.html" target="_top" xlink:title=" ">
<polygon fill="white" stroke="black" points="884,-570.5 884,-589.5 1002,-589.5 1002,-570.5 884,-570.5"/>
<text text-anchor="middle" x="943" y="-577.5" font-family="Helvetica,sans-Serif" font-size="10.00">AmcCarrierCoreBase</text>
</a>
</g>
</g>
<!-- Node117&#45;&gt;Node4 -->
<g id="edge3" class="edge">
<title>Node117&#45;&gt;Node4</title>
<path fill="none" stroke="midnightblue" d="M858.49,-590.83C866.87,-589.74 875.44,-588.63 883.73,-587.56"/>
<polygon fill="midnightblue" stroke="midnightblue" points="857.86,-587.38 848.39,-592.14 858.76,-594.33 857.86,-587.38"/>
</g>
<!-- Node5 -->
<g id="node5" class="node">
<title>Node5</title>
<g id="a_node5"><a xlink:href="classAmcCarrierCoreFsbl.html" target="_top" xlink:title=" ">
<polygon fill="white" stroke="black" points="886,-494.5 886,-513.5 1000,-513.5 1000,-494.5 886,-494.5"/>
<text text-anchor="middle" x="943" y="-501.5" font-family="Helvetica,sans-Serif" font-size="10.00">AmcCarrierCoreFsbl</text>
</a>
</g>
</g>
<!-- Node117&#45;&gt;Node5 -->
<g id="edge4" class="edge">
<title>Node117&#45;&gt;Node5</title>
<path fill="none" stroke="midnightblue" d="M841.08,-584.76C843.52,-583.32 845.84,-581.73 848,-580 871.35,-561.22 860.37,-541.42 884,-523 888.93,-519.16 894.67,-516.08 900.58,-513.61"/>
<polygon fill="midnightblue" stroke="midnightblue" points="839.25,-581.77 831.91,-589.41 842.41,-588.01 839.25,-581.77"/>
</g>
<!-- Node125 -->
<g id="node6" class="node">
<title>Node125</title>
<g id="a_node6"><a xlink:href="classAmcCarrierDdrMem.html" target="_top" xlink:title=" ">
<polygon fill="white" stroke="black" points="592,-532.5 592,-551.5 705,-551.5 705,-532.5 592,-532.5"/>
<text text-anchor="middle" x="648.5" y="-539.5" font-family="Helvetica,sans-Serif" font-size="10.00">AmcCarrierDdrMem</text>
</a>
</g>
</g>
<!-- Node72 -->
<g id="node7" class="node">
<title>Node72</title>
<g id="a_node7"><a xlink:href="classAmcCarrierCore.html" target="_top" xlink:title=" ">
<polygon fill="white" stroke="black" points="747.5,-551.5 747.5,-570.5 841.5,-570.5 841.5,-551.5 747.5,-551.5"/>
<text text-anchor="middle" x="794.5" y="-558.5" font-family="Helvetica,sans-Serif" font-size="10.00">AmcCarrierCore</text>
</a>
</g>
</g>
<!-- Node125&#45;&gt;Node72 -->
<g id="edge5" class="edge">
<title>Node125&#45;&gt;Node72</title>
<path fill="none" stroke="midnightblue" d="M715.41,-550.7C726.19,-552.12 737.14,-553.56 747.31,-554.9"/>
<polygon fill="midnightblue" stroke="midnightblue" points="715.55,-547.18 705.17,-549.35 714.63,-554.12 715.55,-547.18"/>
</g>
<!-- Node73 -->
<g id="node8" class="node">
<title>Node73</title>
<g id="a_node8"><a xlink:href="classAmcCarrierFsbl.html" target="_top" xlink:title=" ">
<polygon fill="white" stroke="black" points="748.5,-494.5 748.5,-513.5 840.5,-513.5 840.5,-494.5 748.5,-494.5"/>
<text text-anchor="middle" x="794.5" y="-501.5" font-family="Helvetica,sans-Serif" font-size="10.00">AmcCarrierFsbl</text>
</a>
</g>
</g>
<!-- Node125&#45;&gt;Node73 -->
<g id="edge8" class="edge">
<title>Node125&#45;&gt;Node73</title>
<path fill="none" stroke="midnightblue" d="M695.67,-529.82C715.66,-524.54 738.72,-518.46 757.42,-513.52"/>
<polygon fill="midnightblue" stroke="midnightblue" points="694.61,-526.48 685.84,-532.41 696.4,-533.24 694.61,-526.48"/>
</g>
<!-- Node72&#45;&gt;Node3 -->
<g id="edge6" class="edge">
<title>Node72&#45;&gt;Node3</title>
<path fill="none" stroke="midnightblue" d="M852.04,-553.67C863.34,-552.2 875.19,-550.66 886.46,-549.2"/>
<polygon fill="midnightblue" stroke="midnightblue" points="851.32,-550.23 841.85,-554.99 852.22,-557.17 851.32,-550.23"/>
</g>
<!-- Node72&#45;&gt;Node4 -->
<g id="edge7" class="edge">
<title>Node72&#45;&gt;Node4</title>
<path fill="none" stroke="midnightblue" d="M852.08,-568.34C862.49,-569.69 873.38,-571.1 883.84,-572.46"/>
<polygon fill="midnightblue" stroke="midnightblue" points="852.22,-564.83 841.85,-567.01 851.32,-571.77 852.22,-564.83"/>
</g>
<!-- Node73&#45;&gt;Node5 -->
<g id="edge9" class="edge">
<title>Node73&#45;&gt;Node5</title>
<path fill="none" stroke="midnightblue" d="M850.94,-504C862.38,-504 874.42,-504 885.88,-504"/>
<polygon fill="midnightblue" stroke="midnightblue" points="850.65,-500.5 840.65,-504 850.65,-507.5 850.65,-500.5"/>
</g>
<!-- Node124 -->
<g id="node9" class="node">
<title>Node124</title>
<g id="a_node9"><a xlink:href="classAmcCarrierEthFsbl.html" target="_top" xlink:title=" ">
<polygon fill="white" stroke="black" points="595,-418.5 595,-437.5 702,-437.5 702,-418.5 595,-418.5"/>
<text text-anchor="middle" x="648.5" y="-425.5" font-family="Helvetica,sans-Serif" font-size="10.00">AmcCarrierEthFsbl</text>
</a>
</g>
</g>
<!-- Node124&#45;&gt;Node73 -->
<g id="edge10" class="edge">
<title>Node124&#45;&gt;Node73</title>
<path fill="none" stroke="midnightblue" d="M682.49,-441.47C689.97,-444.75 697.83,-448.36 705,-452 731.54,-465.47 761.11,-483.49 778.47,-494.4"/>
<polygon fill="midnightblue" stroke="midnightblue" points="683.86,-438.25 673.29,-437.53 681.1,-444.69 683.86,-438.25"/>
</g>
<!-- Node122 -->
<g id="node10" class="node">
<title>Node122</title>
<g id="a_node10"><a xlink:href="classAmcCarrierIbufGt.html" target="_top" xlink:title=" ">
<polygon fill="white" stroke="black" points="429.5,-456.5 429.5,-475.5 530.5,-475.5 530.5,-456.5 429.5,-456.5"/>
<text text-anchor="middle" x="480" y="-463.5" font-family="Helvetica,sans-Serif" font-size="10.00">AmcCarrierIbufGt</text>
</a>
</g>
</g>
<!-- Node122&#45;&gt;Node72 -->
<g id="edge11" class="edge">
<title>Node122&#45;&gt;Node72</title>
<path fill="none" stroke="midnightblue" d="M540.41,-475.65C546.02,-478.11 551.35,-481.17 556,-485 584.87,-508.74 560.42,-541.01 592,-561 644.17,-594.02 720.19,-581.51 762.37,-570.55"/>
<polygon fill="midnightblue" stroke="midnightblue" points="541.34,-472.26 530.74,-472.06 538.9,-478.82 541.34,-472.26"/>
</g>
<!-- Node122&#45;&gt;Node73 -->
<g id="edge12" class="edge">
<title>Node122&#45;&gt;Node73</title>
<path fill="none" stroke="midnightblue" d="M540.82,-469.01C586.08,-471.78 649.67,-476.75 705,-485 721.16,-487.41 738.8,-491 754.05,-494.41"/>
<polygon fill="midnightblue" stroke="midnightblue" points="540.78,-465.5 530.59,-468.4 540.36,-472.49 540.78,-465.5"/>
</g>
<!-- Node123 -->
<g id="node11" class="node">
<title>Node123</title>
<g id="a_node11"><a xlink:href="classAmcCarrierTiming.html" target="_top" xlink:title=" ">
<polygon fill="white" stroke="black" points="596,-494.5 596,-513.5 701,-513.5 701,-494.5 596,-494.5"/>
<text text-anchor="middle" x="648.5" y="-501.5" font-family="Helvetica,sans-Serif" font-size="10.00">AmcCarrierTiming</text>
</a>
</g>
</g>
<!-- Node122&#45;&gt;Node123 -->
<g id="edge13" class="edge">
<title>Node122&#45;&gt;Node123</title>
<path fill="none" stroke="midnightblue" d="M532.81,-477.82C556.28,-483.18 583.67,-489.43 605.79,-494.48"/>
<polygon fill="midnightblue" stroke="midnightblue" points="533.54,-474.4 523.01,-475.59 531.99,-481.23 533.54,-474.4"/>
</g>
<!-- Node90 -->
<g id="node12" class="node">
<title>Node90</title>
<g id="a_node12"><a xlink:href="classAppTopJesd.html" target="_top" xlink:title=" ">
<polygon fill="white" stroke="black" points="612.5,-304.5 612.5,-323.5 684.5,-323.5 684.5,-304.5 612.5,-304.5"/>
<text text-anchor="middle" x="648.5" y="-311.5" font-family="Helvetica,sans-Serif" font-size="10.00">AppTopJesd</text>
</a>
</g>
</g>
<!-- Node122&#45;&gt;Node90 -->
<g id="edge16" class="edge">
<title>Node122&#45;&gt;Node90</title>
<path fill="none" stroke="midnightblue" d="M495.01,-448.15C522.07,-413.84 579.94,-341.29 592,-333 598.13,-328.79 605.27,-325.43 612.35,-322.79"/>
<polygon fill="midnightblue" stroke="midnightblue" points="491.98,-446.34 488.55,-456.36 497.48,-450.67 491.98,-446.34"/>
</g>
<!-- Node123&#45;&gt;Node72 -->
<g id="edge14" class="edge">
<title>Node123&#45;&gt;Node72</title>
<path fill="none" stroke="midnightblue" d="M688.56,-516.96C694.1,-518.92 699.71,-520.96 705,-523 728.41,-532.02 754.77,-543.51 772.58,-551.49"/>
<polygon fill="midnightblue" stroke="midnightblue" points="689.34,-513.52 678.74,-513.55 687.04,-520.13 689.34,-513.52"/>
</g>
<!-- Node123&#45;&gt;Node73 -->
<g id="edge15" class="edge">
<title>Node123&#45;&gt;Node73</title>
<path fill="none" stroke="midnightblue" d="M711.41,-504C723.87,-504 736.73,-504 748.48,-504"/>
<polygon fill="midnightblue" stroke="midnightblue" points="711.08,-500.5 701.08,-504 711.08,-507.5 711.08,-500.5"/>
</g>
<!-- Node59 -->
<g id="node13" class="node">
<title>Node59</title>
<g id="a_node13"><a xlink:href="classAppTop.html" target="_top" xlink:title=" ">
<polygon fill="white" stroke="black" points="768.5,-152.5 768.5,-171.5 820.5,-171.5 820.5,-152.5 768.5,-152.5"/>
<text text-anchor="middle" x="794.5" y="-159.5" font-family="Helvetica,sans-Serif" font-size="10.00">AppTop</text>
</a>
</g>
</g>
<!-- Node90&#45;&gt;Node59 -->
<g id="edge17" class="edge">
<title>Node90&#45;&gt;Node59</title>
<path fill="none" stroke="midnightblue" d="M693.91,-303.25C697.99,-301 701.79,-298.29 705,-295 742.12,-256.98 704.21,-219.34 741,-181 748.25,-173.45 758.72,-168.88 768.41,-166.13"/>
<polygon fill="midnightblue" stroke="midnightblue" points="692.29,-300.14 684.63,-307.46 695.19,-306.52 692.29,-300.14"/>
</g>
<!-- Node118 -->
<g id="node14" class="node">
<title>Node118</title>
<g id="a_node14"><a xlink:href="classAmcCarrierRssiObFifo.html" target="_top" xlink:title=" ">
<polygon fill="white" stroke="black" points="245,-703.5 245,-722.5 368,-722.5 368,-703.5 245,-703.5"/>
<text text-anchor="middle" x="306.5" y="-710.5" font-family="Helvetica,sans-Serif" font-size="10.00">AmcCarrierRssiObFifo</text>
</a>
</g>
</g>
<!-- Node119 -->
<g id="node15" class="node">
<title>Node119</title>
<g id="a_node15"><a xlink:href="classAmcCarrierRssi.html" target="_top" xlink:title=" ">
<polygon fill="white" stroke="black" points="434,-722.5 434,-741.5 526,-741.5 526,-722.5 434,-722.5"/>
<text text-anchor="middle" x="480" y="-729.5" font-family="Helvetica,sans-Serif" font-size="10.00">AmcCarrierRssi</text>
</a>
</g>
</g>
<!-- Node118&#45;&gt;Node119 -->
<g id="edge18" class="edge">
<title>Node118&#45;&gt;Node119</title>
<path fill="none" stroke="midnightblue" d="M378.44,-720.86C397.19,-722.94 416.92,-725.12 433.88,-727"/>
<polygon fill="midnightblue" stroke="midnightblue" points="378.77,-717.37 368.45,-719.75 378,-724.33 378.77,-717.37"/>
</g>
<!-- Node121 -->
<g id="node17" class="node">
<title>Node121</title>
<g id="a_node17"><a xlink:href="classAmcCarrierRssiInterleave.html" target="_top" xlink:title=" ">
<polygon fill="white" stroke="black" points="409.5,-684.5 409.5,-703.5 550.5,-703.5 550.5,-684.5 409.5,-684.5"/>
<text text-anchor="middle" x="480" y="-691.5" font-family="Helvetica,sans-Serif" font-size="10.00">AmcCarrierRssiInterleave</text>
</a>
</g>
</g>
<!-- Node118&#45;&gt;Node121 -->
<g id="edge21" class="edge">
<title>Node118&#45;&gt;Node121</title>
<path fill="none" stroke="midnightblue" d="M378.55,-705.13C388.78,-704 399.29,-702.83 409.48,-701.7"/>
<polygon fill="midnightblue" stroke="midnightblue" points="378,-701.67 368.45,-706.25 378.77,-708.63 378,-701.67"/>
</g>
<!-- Node120 -->
<g id="node16" class="node">
<title>Node120</title>
<g id="a_node16"><a xlink:href="classAmcCarrierEth.html" target="_top" xlink:title=" ">
<polygon fill="white" stroke="black" points="605,-646.5 605,-665.5 692,-665.5 692,-646.5 605,-646.5"/>
<text text-anchor="middle" x="648.5" y="-653.5" font-family="Helvetica,sans-Serif" font-size="10.00">AmcCarrierEth</text>
</a>
</g>
</g>
<!-- Node119&#45;&gt;Node120 -->
<g id="edge19" class="edge">
<title>Node119&#45;&gt;Node120</title>
<path fill="none" stroke="midnightblue" d="M535.86,-721.98C542.88,-719.59 549.79,-716.64 556,-713 576.07,-701.23 572.43,-687.58 592,-675 597.91,-671.2 604.67,-668.07 611.39,-665.52"/>
<polygon fill="midnightblue" stroke="midnightblue" points="534.8,-718.65 526.25,-724.9 536.83,-725.34 534.8,-718.65"/>
</g>
<!-- Node120&#45;&gt;Node72 -->
<g id="edge20" class="edge">
<title>Node120&#45;&gt;Node72</title>
<path fill="none" stroke="midnightblue" d="M697.67,-641.93C700.25,-640.44 702.72,-638.81 705,-637 728.51,-618.42 717.65,-598.78 741,-580 745.76,-576.17 751.35,-573.08 757.09,-570.59"/>
<polygon fill="midnightblue" stroke="midnightblue" points="695.98,-638.86 688.56,-646.43 699.08,-645.14 695.98,-638.86"/>
</g>
<!-- Node121&#45;&gt;Node120 -->
<g id="edge22" class="edge">
<title>Node121&#45;&gt;Node120</title>
<path fill="none" stroke="midnightblue" d="M532.81,-682.18C556.28,-676.82 583.67,-670.57 605.79,-665.52"/>
<polygon fill="midnightblue" stroke="midnightblue" points="531.99,-678.77 523.01,-684.41 533.54,-685.6 531.99,-678.77"/>
</g>
<!-- Node116 -->
<g id="node18" class="node">
<title>Node116</title>
<g id="a_node18"><a xlink:href="classAmcCarrierSysMon.html" target="_top" xlink:title=" ">
<polygon fill="white" stroke="black" points="593.5,-722.5 593.5,-741.5 703.5,-741.5 703.5,-722.5 593.5,-722.5"/>
<text text-anchor="middle" x="648.5" y="-729.5" font-family="Helvetica,sans-Serif" font-size="10.00">AmcCarrierSysMon</text>
</a>
</g>
</g>
<!-- Node116&#45;&gt;Node117 -->
<g id="edge23" class="edge">
<title>Node116&#45;&gt;Node117</title>
<path fill="none" stroke="midnightblue" d="M696.38,-718.24C699.4,-716.67 702.31,-714.92 705,-713 745.78,-683.87 776.86,-630.68 788.5,-608.8"/>
<polygon fill="midnightblue" stroke="midnightblue" points="694.73,-715.15 687.09,-722.48 697.64,-721.52 694.73,-715.15"/>
</g>
<!-- Node99 -->
<g id="node19" class="node">
<title>Node99</title>
<g id="a_node19"><a xlink:href="classAppMpsClk.html" target="_top" xlink:title=" ">
<polygon fill="white" stroke="black" points="613,-380.5 613,-399.5 684,-399.5 684,-380.5 613,-380.5"/>
<text text-anchor="middle" x="648.5" y="-387.5" font-family="Helvetica,sans-Serif" font-size="10.00">AppMpsClk</text>
</a>
</g>
</g>
<!-- Node2 -->
<g id="node20" class="node">
<title>Node2</title>
<g id="a_node20"><a xlink:href="classAppMps.html" target="_top" xlink:title=" ">
<polygon fill="white" stroke="black" points="766.5,-418.5 766.5,-437.5 822.5,-437.5 822.5,-418.5 766.5,-418.5"/>
<text text-anchor="middle" x="794.5" y="-425.5" font-family="Helvetica,sans-Serif" font-size="10.00">AppMps</text>
</a>
</g>
</g>
<!-- Node99&#45;&gt;Node2 -->
<g id="edge24" class="edge">
<title>Node99&#45;&gt;Node2</title>
<path fill="none" stroke="midnightblue" d="M694.14,-401.78C717.7,-408 745.85,-415.43 766.17,-420.79"/>
<polygon fill="midnightblue" stroke="midnightblue" points="694.92,-398.37 684.36,-399.2 693.13,-405.13 694.92,-398.37"/>
</g>
<!-- Node2&#45;&gt;Node3 -->
<g id="edge25" class="edge">
<title>Node2&#45;&gt;Node3</title>
<path fill="none" stroke="midnightblue" d="M811.32,-445.2C836.18,-472.19 881.79,-521.59 884,-523 889.98,-526.82 896.81,-529.95 903.62,-532.47"/>
<polygon fill="midnightblue" stroke="midnightblue" points="813.7,-442.61 804.35,-437.62 808.55,-447.35 813.7,-442.61"/>
</g>
<!-- Node2&#45;&gt;Node4 -->
<g id="edge26" class="edge">
<title>Node2&#45;&gt;Node4</title>
<path fill="none" stroke="midnightblue" d="M813.54,-444.81C824.43,-455.59 838.07,-470.28 848,-485 868.9,-515.99 855.96,-536.29 884,-561 888.37,-564.85 893.54,-567.93 898.97,-570.38"/>
<polygon fill="midnightblue" stroke="midnightblue" points="815.81,-442.14 806.19,-437.71 810.95,-447.17 815.81,-442.14"/>
</g>
<!-- Node2&#45;&gt;Node5 -->
<g id="edge27" class="edge">
<title>Node2&#45;&gt;Node5</title>
<path fill="none" stroke="midnightblue" d="M822.98,-442.26C852.4,-457.52 898.25,-481.3 923.6,-494.45"/>
<polygon fill="midnightblue" stroke="midnightblue" points="824.54,-439.12 814.05,-437.63 821.32,-445.34 824.54,-439.12"/>
</g>
<!-- Node98 -->
<g id="node21" class="node">
<title>Node98</title>
<g id="a_node21"><a xlink:href="classAppMpsRegAppCh.html" target="_top" xlink:title=" ">
<polygon fill="white" stroke="black" points="253.5,-285.5 253.5,-304.5 359.5,-304.5 359.5,-285.5 253.5,-285.5"/>
<text text-anchor="middle" x="306.5" y="-292.5" font-family="Helvetica,sans-Serif" font-size="10.00">AppMpsRegAppCh</text>
</a>
</g>
</g>
<!-- Node97 -->
<g id="node22" class="node">
<title>Node97</title>
<g id="a_node22"><a xlink:href="classAppMpsReg.html" target="_top" xlink:title=" ">
<polygon fill="white" stroke="black" points="443,-304.5 443,-323.5 517,-323.5 517,-304.5 443,-304.5"/>
<text text-anchor="middle" x="480" y="-311.5" font-family="Helvetica,sans-Serif" font-size="10.00">AppMpsReg</text>
</a>
</g>
</g>
<!-- Node98&#45;&gt;Node97 -->
<g id="edge28" class="edge">
<title>Node98&#45;&gt;Node97</title>
<path fill="none" stroke="midnightblue" d="M369.86,-301.91C394.43,-304.63 421.78,-307.66 442.95,-310.01"/>
<polygon fill="midnightblue" stroke="midnightblue" points="370.21,-298.43 359.89,-300.8 369.44,-305.38 370.21,-298.43"/>
</g>
<!-- Node1 -->
<g id="node23" class="node">
<title>Node1</title>
<g id="a_node23"><a xlink:href="classAppMpsEncoder.html" target="_top" xlink:title=" ">
<polygon fill="white" stroke="black" points="601,-266.5 601,-285.5 696,-285.5 696,-266.5 601,-266.5"/>
<text text-anchor="middle" x="648.5" y="-273.5" font-family="Helvetica,sans-Serif" font-size="10.00">AppMpsEncoder</text>
</a>
</g>
</g>
<!-- Node97&#45;&gt;Node1 -->
<g id="edge29" class="edge">
<title>Node97&#45;&gt;Node1</title>
<path fill="none" stroke="midnightblue" d="M526.99,-303.5C551.68,-297.87 581.88,-290.98 605.87,-285.5"/>
<polygon fill="midnightblue" stroke="midnightblue" points="526.1,-300.12 517.13,-305.75 527.66,-306.94 526.1,-300.12"/>
</g>
<!-- Node1&#45;&gt;Node2 -->
<g id="edge30" class="edge">
<title>Node1&#45;&gt;Node2</title>
<path fill="none" stroke="midnightblue" d="M697.23,-289.91C699.96,-291.44 702.58,-293.13 705,-295 750.03,-329.71 779.69,-394.12 789.72,-418.4"/>
<polygon fill="midnightblue" stroke="midnightblue" points="698.72,-286.75 688.2,-285.55 695.68,-293.05 698.72,-286.75"/>
</g>
<!-- Node96 -->
<g id="node24" class="node">
<title>Node96</title>
<g id="a_node24"><a xlink:href="classAppMpsRegBase.html" target="_top" xlink:title=" ">
<polygon fill="white" stroke="black" points="257.5,-323.5 257.5,-342.5 355.5,-342.5 355.5,-323.5 257.5,-323.5"/>
<text text-anchor="middle" x="306.5" y="-330.5" font-family="Helvetica,sans-Serif" font-size="10.00">AppMpsRegBase</text>
</a>
</g>
</g>
<!-- Node96&#45;&gt;Node97 -->
<g id="edge31" class="edge">
<title>Node96&#45;&gt;Node97</title>
<path fill="none" stroke="midnightblue" d="M365.69,-326.55C391.25,-323.72 420.46,-320.49 442.82,-318.01"/>
<polygon fill="midnightblue" stroke="midnightblue" points="365.28,-323.08 355.73,-327.66 366.05,-330.03 365.28,-323.08"/>
</g>
<!-- Node95 -->
<g id="node25" class="node">
<title>Node95</title>
<g id="a_node25"><a xlink:href="classAppMpsSalt.html" target="_top" xlink:title=" ">
<polygon fill="white" stroke="black" points="611.5,-342.5 611.5,-361.5 685.5,-361.5 685.5,-342.5 611.5,-342.5"/>
<text text-anchor="middle" x="648.5" y="-349.5" font-family="Helvetica,sans-Serif" font-size="10.00">AppMpsSalt</text>
</a>
</g>
</g>
<!-- Node95&#45;&gt;Node2 -->
<g id="edge32" class="edge">
<title>Node95&#45;&gt;Node2</title>
<path fill="none" stroke="midnightblue" d="M691.31,-365.08C696,-366.91 700.65,-368.89 705,-371 733.62,-384.86 764.22,-406.21 780.89,-418.47"/>
<polygon fill="midnightblue" stroke="midnightblue" points="692.32,-361.73 681.73,-361.56 689.91,-368.3 692.32,-361.73"/>
</g>
<!-- Node94 -->
<g id="node26" class="node">
<title>Node94</title>
<g id="a_node26"><a xlink:href="classAppMpsSelect.html" target="_top" xlink:title=" ">
<polygon fill="white" stroke="black" points="437,-266.5 437,-285.5 523,-285.5 523,-266.5 437,-266.5"/>
<text text-anchor="middle" x="480" y="-273.5" font-family="Helvetica,sans-Serif" font-size="10.00">AppMpsSelect</text>
</a>
</g>
</g>
<!-- Node94&#45;&gt;Node1 -->
<g id="edge33" class="edge">
<title>Node94&#45;&gt;Node1</title>
<path fill="none" stroke="midnightblue" d="M533.04,-276C554.73,-276 579.72,-276 600.8,-276"/>
<polygon fill="midnightblue" stroke="midnightblue" points="533.02,-272.5 523.01,-276 533.01,-279.5 533.02,-272.5"/>
</g>
<!-- Node89 -->
<g id="node27" class="node">
<title>Node89</title>
<g id="a_node27"><a xlink:href="classAppTopJesd204b.html" target="_top" xlink:title=" ">
<polygon fill="white" stroke="black" points="432,-342.5 432,-361.5 528,-361.5 528,-342.5 432,-342.5"/>
<text text-anchor="middle" x="480" y="-349.5" font-family="Helvetica,sans-Serif" font-size="10.00">AppTopJesd204b</text>
</a>
</g>
</g>
<!-- Node89&#45;&gt;Node90 -->
<g id="edge34" class="edge">
<title>Node89&#45;&gt;Node90</title>
<path fill="none" stroke="midnightblue" d="M533.01,-340.13C558.78,-334.25 589.24,-327.3 612.25,-322.04"/>
<polygon fill="midnightblue" stroke="midnightblue" points="531.99,-336.77 523.01,-342.41 533.54,-343.6 531.99,-336.77"/>
</g>
<!-- Node77 -->
<g id="node28" class="node">
<title>Node77</title>
<g id="a_node28"><a xlink:href="classBldEventRAM.html" target="_top" xlink:title=" ">
<polygon fill="white" stroke="black" points="0,-513.5 0,-532.5 83,-532.5 83,-513.5 0,-513.5"/>
<text text-anchor="middle" x="41.5" y="-520.5" font-family="Helvetica,sans-Serif" font-size="10.00">BldEventRAM</text>
</a>
</g>
</g>
<!-- Node78 -->
<g id="node29" class="node">
<title>Node78</title>
<g id="a_node29"><a xlink:href="classBldEventSelect.html" target="_top" xlink:title=" ">
<polygon fill="white" stroke="black" points="119,-513.5 119,-532.5 209,-532.5 209,-513.5 119,-513.5"/>
<text text-anchor="middle" x="164" y="-520.5" font-family="Helvetica,sans-Serif" font-size="10.00">BldEventSelect</text>
</a>
</g>
</g>
<!-- Node77&#45;&gt;Node78 -->
<g id="edge35" class="edge">
<title>Node77&#45;&gt;Node78</title>
<path fill="none" stroke="midnightblue" d="M93.46,-523C101.93,-523 110.66,-523 118.94,-523"/>
<polygon fill="midnightblue" stroke="midnightblue" points="93.3,-519.5 83.3,-523 93.3,-526.5 93.3,-519.5"/>
</g>
<!-- Node79 -->
<g id="node30" class="node">
<title>Node79</title>
<g id="a_node30"><a xlink:href="classBldAxiStream.html" target="_top" xlink:title=" ">
<polygon fill="white" stroke="black" points="265,-513.5 265,-532.5 348,-532.5 348,-513.5 265,-513.5"/>
<text text-anchor="middle" x="306.5" y="-520.5" font-family="Helvetica,sans-Serif" font-size="10.00">BldAxiStream</text>
</a>
</g>
</g>
<!-- Node78&#45;&gt;Node79 -->
<g id="edge36" class="edge">
<title>Node78&#45;&gt;Node79</title>
<path fill="none" stroke="midnightblue" d="M219.36,-523C234.52,-523 250.72,-523 264.93,-523"/>
<polygon fill="midnightblue" stroke="midnightblue" points="219.07,-519.5 209.07,-523 219.07,-526.5 219.07,-519.5"/>
</g>
<!-- Node80 -->
<g id="node31" class="node">
<title>Node80</title>
<g id="a_node31"><a xlink:href="classBldWrapper.html" target="_top" xlink:title=" ">
<polygon fill="white" stroke="black" points="443,-532.5 443,-551.5 517,-551.5 517,-532.5 443,-532.5"/>
<text text-anchor="middle" x="480" y="-539.5" font-family="Helvetica,sans-Serif" font-size="10.00">BldWrapper</text>
</a>
</g>
</g>
<!-- Node79&#45;&gt;Node80 -->
<g id="edge37" class="edge">
<title>Node79&#45;&gt;Node80</title>
<path fill="none" stroke="midnightblue" d="M358.24,-528.62C385.38,-531.63 418.17,-535.26 442.73,-537.98"/>
<polygon fill="midnightblue" stroke="midnightblue" points="358.47,-525.13 348.14,-527.5 357.7,-532.08 358.47,-525.13"/>
</g>
<!-- Node81 -->
<g id="node33" class="node">
<title>Node81</title>
<g id="a_node33"><a xlink:href="classBsssWrapper.html" target="_top" xlink:title=" ">
<polygon fill="white" stroke="black" points="440,-494.5 440,-513.5 520,-513.5 520,-494.5 440,-494.5"/>
<text text-anchor="middle" x="480" y="-501.5" font-family="Helvetica,sans-Serif" font-size="10.00">BsssWrapper</text>
</a>
</g>
</g>
<!-- Node79&#45;&gt;Node81 -->
<g id="edge41" class="edge">
<title>Node79&#45;&gt;Node81</title>
<path fill="none" stroke="midnightblue" d="M358.23,-517.38C384.32,-514.49 415.63,-511.02 439.83,-508.34"/>
<polygon fill="midnightblue" stroke="midnightblue" points="357.7,-513.92 348.14,-518.5 358.47,-520.87 357.7,-513.92"/>
</g>
<!-- Node71 -->
<g id="node32" class="node">
<title>Node71</title>
<g id="a_node32"><a xlink:href="classAmcCarrierBsa.html" target="_top" xlink:title=" ">
<polygon fill="white" stroke="black" points="604,-608.5 604,-627.5 693,-627.5 693,-608.5 604,-608.5"/>
<text text-anchor="middle" x="648.5" y="-615.5" font-family="Helvetica,sans-Serif" font-size="10.00">AmcCarrierBsa</text>
</a>
</g>
</g>
<!-- Node80&#45;&gt;Node71 -->
<g id="edge38" class="edge">
<title>Node80&#45;&gt;Node71</title>
<path fill="none" stroke="midnightblue" d="M526.87,-549.8C536.83,-552.53 547.05,-556.17 556,-561 575.1,-571.31 573.79,-582.2 592,-594 600.81,-599.71 611.21,-604.62 620.6,-608.49"/>
<polygon fill="midnightblue" stroke="midnightblue" points="527.61,-546.38 517.06,-547.37 525.92,-553.18 527.61,-546.38"/>
</g>
<!-- Node71&#45;&gt;Node72 -->
<g id="edge39" class="edge">
<title>Node71&#45;&gt;Node72</title>
<path fill="none" stroke="midnightblue" d="M680.81,-604.57C698.42,-597.13 720.84,-587.83 741,-580 749.22,-576.81 758.23,-573.48 766.43,-570.52"/>
<polygon fill="midnightblue" stroke="midnightblue" points="679.41,-601.37 671.57,-608.5 682.14,-607.81 679.41,-601.37"/>
</g>
<!-- Node71&#45;&gt;Node73 -->
<g id="edge40" class="edge">
<title>Node71&#45;&gt;Node73</title>
<path fill="none" stroke="midnightblue" d="M668.19,-601.86C686.47,-586.21 715.25,-561.98 741,-542 753.8,-532.07 768.81,-521.29 779.5,-513.75"/>
<polygon fill="midnightblue" stroke="midnightblue" points="665.88,-599.22 660.57,-608.4 670.44,-604.54 665.88,-599.22"/>
</g>
<!-- Node81&#45;&gt;Node71 -->
<g id="edge42" class="edge">
<title>Node81&#45;&gt;Node71</title>
<path fill="none" stroke="midnightblue" d="M529.84,-509.97C539.21,-512.81 548.45,-516.96 556,-523 583.63,-545.1 566.23,-569.76 592,-594 598.58,-600.19 607,-604.92 615.28,-608.49"/>
<polygon fill="midnightblue" stroke="midnightblue" points="530.64,-506.57 520.08,-507.46 528.9,-513.34 530.64,-506.57"/>
</g>
<!-- Node75 -->
<g id="node34" class="node">
<title>Node75</title>
<g id="a_node34"><a xlink:href="classBsaAccumulator.html" target="_top" xlink:title=" ">
<polygon fill="white" stroke="black" points="258.5,-646.5 258.5,-665.5 354.5,-665.5 354.5,-646.5 258.5,-646.5"/>
<text text-anchor="middle" x="306.5" y="-653.5" font-family="Helvetica,sans-Serif" font-size="10.00">BsaAccumulator</text>
</a>
</g>
</g>
<!-- Node76 -->
<g id="node35" class="node">
<title>Node76</title>
<g id="a_node35"><a xlink:href="classBsaBufferControl.html" target="_top" xlink:title=" ">
<polygon fill="white" stroke="black" points="430.5,-646.5 430.5,-665.5 529.5,-665.5 529.5,-646.5 430.5,-646.5"/>
<text text-anchor="middle" x="480" y="-653.5" font-family="Helvetica,sans-Serif" font-size="10.00">BsaBufferControl</text>
</a>
</g>
</g>
<!-- Node75&#45;&gt;Node76 -->
<g id="edge43" class="edge">
<title>Node75&#45;&gt;Node76</title>
<path fill="none" stroke="midnightblue" d="M364.99,-656C386.2,-656 410,-656 430.35,-656"/>
<polygon fill="midnightblue" stroke="midnightblue" points="364.82,-652.5 354.82,-656 364.82,-659.5 364.82,-652.5"/>
</g>
<!-- Node76&#45;&gt;Node71 -->
<g id="edge44" class="edge">
<title>Node76&#45;&gt;Node71</title>
<path fill="none" stroke="midnightblue" d="M532.81,-644.18C556.28,-638.82 583.67,-632.57 605.79,-627.52"/>
<polygon fill="midnightblue" stroke="midnightblue" points="531.99,-640.77 523.01,-646.41 533.54,-647.6 531.99,-640.77"/>
</g>
<!-- Node74 -->
<g id="node36" class="node">
<title>Node74</title>
<g id="a_node36"><a xlink:href="classBsaAxiInterconnectWrapper.html" target="_top" xlink:title=" ">
<polygon fill="white" stroke="black" points="404,-608.5 404,-627.5 556,-627.5 556,-608.5 404,-608.5"/>
<text text-anchor="middle" x="480" y="-615.5" font-family="Helvetica,sans-Serif" font-size="10.00">BsaAxiInterconnectWrapper</text>
</a>
</g>
</g>
<!-- Node74&#45;&gt;Node71 -->
<g id="edge45" class="edge">
<title>Node74&#45;&gt;Node71</title>
<path fill="none" stroke="midnightblue" d="M566.72,-618C579.53,-618 592.26,-618 603.7,-618"/>
<polygon fill="midnightblue" stroke="midnightblue" points="566.46,-614.5 556.46,-618 566.46,-621.5 566.46,-614.5"/>
</g>
<!-- Node70 -->
<g id="node37" class="node">
<title>Node70</title>
<g id="a_node37"><a xlink:href="classBsaWaveformEngine.html" target="_top" xlink:title=" ">
<polygon fill="white" stroke="black" points="421,-570.5 421,-589.5 539,-589.5 539,-570.5 421,-570.5"/>
<text text-anchor="middle" x="480" y="-577.5" font-family="Helvetica,sans-Serif" font-size="10.00">BsaWaveformEngine</text>
</a>
</g>
</g>
<!-- Node70&#45;&gt;Node71 -->
<g id="edge46" class="edge">
<title>Node70&#45;&gt;Node71</title>
<path fill="none" stroke="midnightblue" d="M532.81,-591.82C556.28,-597.18 583.67,-603.43 605.79,-608.48"/>
<polygon fill="midnightblue" stroke="midnightblue" points="533.54,-588.4 523.01,-589.59 531.99,-595.23 533.54,-588.4"/>
</g>
<!-- Node69 -->
<g id="node38" class="node">
<title>Node69</title>
<g id="a_node38"><a xlink:href="classDacSigGenLane.html" target="_top" xlink:title=" ">
<polygon fill="white" stroke="black" points="433.5,-190.5 433.5,-209.5 526.5,-209.5 526.5,-190.5 433.5,-190.5"/>
<text text-anchor="middle" x="480" y="-197.5" font-family="Helvetica,sans-Serif" font-size="10.00">DacSigGenLane</text>
</a>
</g>
</g>
<!-- Node67 -->
<g id="node39" class="node">
<title>Node67</title>
<g id="a_node39"><a xlink:href="classDacSigGen.html" target="_top" xlink:title=" ">
<polygon fill="white" stroke="black" points="613.5,-171.5 613.5,-190.5 683.5,-190.5 683.5,-171.5 613.5,-171.5"/>
<text text-anchor="middle" x="648.5" y="-178.5" font-family="Helvetica,sans-Serif" font-size="10.00">DacSigGen</text>
</a>
</g>
</g>
<!-- Node69&#45;&gt;Node67 -->
<g id="edge47" class="edge">
<title>Node69&#45;&gt;Node67</title>
<path fill="none" stroke="midnightblue" d="M537.14,-193.59C562.4,-190.71 591.4,-187.4 613.33,-184.9"/>
<polygon fill="midnightblue" stroke="midnightblue" points="536.48,-190.15 526.94,-194.76 537.27,-197.1 536.48,-190.15"/>
</g>
<!-- Node67&#45;&gt;Node59 -->
<g id="edge48" class="edge">
<title>Node67&#45;&gt;Node59</title>
<path fill="none" stroke="midnightblue" d="M693.75,-175.16C718.17,-171.94 747.63,-168.05 768.18,-165.34"/>
<polygon fill="midnightblue" stroke="midnightblue" points="693.08,-171.72 683.63,-176.5 694,-178.66 693.08,-171.72"/>
</g>
<!-- Node68 -->
<g id="node40" class="node">
<title>Node68</title>
<g id="a_node40"><a xlink:href="classDacSigGenTb.html" target="_top" xlink:title=" ">
<polygon fill="white" stroke="black" points="753.5,-190.5 753.5,-209.5 835.5,-209.5 835.5,-190.5 753.5,-190.5"/>
<text text-anchor="middle" x="794.5" y="-197.5" font-family="Helvetica,sans-Serif" font-size="10.00">DacSigGenTb</text>
</a>
</g>
</g>
<!-- Node67&#45;&gt;Node68 -->
<g id="edge49" class="edge">
<title>Node67&#45;&gt;Node68</title>
<path fill="none" stroke="midnightblue" d="M693.58,-186.82C712.68,-189.34 734.87,-192.26 753.49,-194.72"/>
<polygon fill="midnightblue" stroke="midnightblue" points="694,-183.34 683.63,-185.5 693.08,-190.28 694,-183.34"/>
</g>
<!-- Node66 -->
<g id="node41" class="node">
<title>Node66</title>
<g id="a_node41"><a xlink:href="classDacSigGenReg.html" target="_top" xlink:title=" ">
<polygon fill="white" stroke="black" points="435.5,-152.5 435.5,-171.5 524.5,-171.5 524.5,-152.5 435.5,-152.5"/>
<text text-anchor="middle" x="480" y="-159.5" font-family="Helvetica,sans-Serif" font-size="10.00">DacSigGenReg</text>
</a>
</g>
</g>
<!-- Node66&#45;&gt;Node67 -->
<g id="edge50" class="edge">
<title>Node66&#45;&gt;Node67</title>
<path fill="none" stroke="midnightblue" d="M534.75,-168.13C560.52,-171.07 590.62,-174.51 613.24,-177.09"/>
<polygon fill="midnightblue" stroke="midnightblue" points="535.08,-164.65 524.75,-166.99 534.28,-171.6 535.08,-164.65"/>
</g>
<!-- Node64 -->
<g id="node42" class="node">
<title>Node64</title>
<g id="a_node42"><a xlink:href="classDaqDecimator.html" target="_top" xlink:title=" ">
<polygon fill="white" stroke="black" points="263,-38.5 263,-57.5 350,-57.5 350,-38.5 263,-38.5"/>
<text text-anchor="middle" x="306.5" y="-45.5" font-family="Helvetica,sans-Serif" font-size="10.00">DaqDecimator</text>
</a>
</g>
</g>
<!-- Node65 -->
<g id="node43" class="node">
<title>Node65</title>
<g id="a_node43"><a xlink:href="classDaqDecimatorTb.html" target="_top" xlink:title=" ">
<polygon fill="white" stroke="black" points="430.5,-0.5 430.5,-19.5 529.5,-19.5 529.5,-0.5 430.5,-0.5"/>
<text text-anchor="middle" x="480" y="-7.5" font-family="Helvetica,sans-Serif" font-size="10.00">DaqDecimatorTb</text>
</a>
</g>
</g>
<!-- Node64&#45;&gt;Node65 -->
<g id="edge51" class="edge">
<title>Node64&#45;&gt;Node65</title>
<path fill="none" stroke="midnightblue" d="M360.14,-36.34C384.51,-30.94 413.09,-24.6 436.12,-19.5"/>
<polygon fill="midnightblue" stroke="midnightblue" points="359.34,-32.93 350.33,-38.51 360.85,-39.76 359.34,-32.93"/>
</g>
<!-- Node62 -->
<g id="node44" class="node">
<title>Node62</title>
<g id="a_node44"><a xlink:href="classDaqLane.html" target="_top" xlink:title=" ">
<polygon fill="white" stroke="black" points="450.5,-114.5 450.5,-133.5 509.5,-133.5 509.5,-114.5 450.5,-114.5"/>
<text text-anchor="middle" x="480" y="-121.5" font-family="Helvetica,sans-Serif" font-size="10.00">DaqLane</text>
</a>
</g>
</g>
<!-- Node64&#45;&gt;Node62 -->
<g id="edge52" class="edge">
<title>Node64&#45;&gt;Node62</title>
<path fill="none" stroke="midnightblue" d="M329.41,-63.41C348.37,-76.13 376.94,-93.85 404,-105 418.78,-111.09 436.02,-115.62 450.25,-118.73"/>
<polygon fill="midnightblue" stroke="midnightblue" points="331.15,-60.36 320.91,-57.61 327.2,-66.14 331.15,-60.36"/>
</g>
<!-- Node58 -->
<g id="node45" class="node">
<title>Node58</title>
<g id="a_node45"><a xlink:href="classDaqMuxV2.html" target="_top" xlink:title=" ">
<polygon fill="white" stroke="black" points="613.5,-95.5 613.5,-114.5 683.5,-114.5 683.5,-95.5 613.5,-95.5"/>
<text text-anchor="middle" x="648.5" y="-102.5" font-family="Helvetica,sans-Serif" font-size="10.00">DaqMuxV2</text>
</a>
</g>
</g>
<!-- Node62&#45;&gt;Node58 -->
<g id="edge53" class="edge">
<title>Node62&#45;&gt;Node58</title>
<path fill="none" stroke="midnightblue" d="M519.57,-119.6C547.87,-116.37 585.97,-112.02 613.21,-108.91"/>
<polygon fill="midnightblue" stroke="midnightblue" points="519.16,-116.12 509.62,-120.73 519.95,-123.08 519.16,-116.12"/>
</g>
<!-- Node58&#45;&gt;Node59 -->
<g id="edge54" class="edge">
<title>Node58&#45;&gt;Node59</title>
<path fill="none" stroke="midnightblue" d="M683.2,-118.34C709.61,-128.8 745.72,-143.09 769.32,-152.43"/>
<polygon fill="midnightblue" stroke="midnightblue" points="684.19,-114.97 673.6,-114.54 681.61,-121.48 684.19,-114.97"/>
</g>
<!-- Node60 -->
<g id="node46" class="node">
<title>Node60</title>
<g id="a_node46"><a xlink:href="classDaqMuxV2Tb.html" target="_top" xlink:title=" ">
<polygon fill="white" stroke="black" points="753.5,-95.5 753.5,-114.5 835.5,-114.5 835.5,-95.5 753.5,-95.5"/>
<text text-anchor="middle" x="794.5" y="-102.5" font-family="Helvetica,sans-Serif" font-size="10.00">DaqMuxV2Tb</text>
</a>
</g>
</g>
<!-- Node58&#45;&gt;Node60 -->
<g id="edge55" class="edge">
<title>Node58&#45;&gt;Node60</title>
<path fill="none" stroke="midnightblue" d="M693.85,-105C712.88,-105 734.96,-105 753.49,-105"/>
<polygon fill="midnightblue" stroke="midnightblue" points="693.63,-101.5 683.63,-105 693.63,-108.5 693.63,-101.5"/>
</g>
<!-- Node63 -->
<g id="node47" class="node">
<title>Node63</title>
<g id="a_node47"><a xlink:href="classDaqRegItf.html" target="_top" xlink:title=" ">
<polygon fill="white" stroke="black" points="447.5,-76.5 447.5,-95.5 512.5,-95.5 512.5,-76.5 447.5,-76.5"/>
<text text-anchor="middle" x="480" y="-83.5" font-family="Helvetica,sans-Serif" font-size="10.00">DaqRegItf</text>
</a>
</g>
</g>
<!-- Node63&#45;&gt;Node58 -->
<g id="edge56" class="edge">
<title>Node63&#45;&gt;Node58</title>
<path fill="none" stroke="midnightblue" d="M522.97,-90.79C550.91,-93.98 587.15,-98.11 613.33,-101.1"/>
<polygon fill="midnightblue" stroke="midnightblue" points="523.04,-87.27 512.71,-89.62 522.25,-94.23 523.04,-87.27"/>
</g>
<!-- Node61 -->
<g id="node48" class="node">
<title>Node61</title>
<g id="a_node48"><a xlink:href="classDaqTestSig.html" target="_top" xlink:title=" ">
<polygon fill="white" stroke="black" points="271,-114.5 271,-133.5 342,-133.5 342,-114.5 271,-114.5"/>
<text text-anchor="middle" x="306.5" y="-121.5" font-family="Helvetica,sans-Serif" font-size="10.00">DaqTestSig</text>
</a>
</g>
</g>
<!-- Node61&#45;&gt;Node62 -->
<g id="edge57" class="edge">
<title>Node61&#45;&gt;Node62</title>
<path fill="none" stroke="midnightblue" d="M352.32,-124C383.3,-124 423.58,-124 450.32,-124"/>
<polygon fill="midnightblue" stroke="midnightblue" points="352.21,-120.5 342.21,-124 352.21,-127.5 352.21,-120.5"/>
</g>
<!-- Node57 -->
<g id="node49" class="node">
<title>Node57</title>
<g id="a_node49"><a xlink:href="classDaqTrigger.html" target="_top" xlink:title=" ">
<polygon fill="white" stroke="black" points="445.5,-38.5 445.5,-57.5 514.5,-57.5 514.5,-38.5 445.5,-38.5"/>
<text text-anchor="middle" x="480" y="-45.5" font-family="Helvetica,sans-Serif" font-size="10.00">DaqTrigger</text>
</a>
</g>
</g>
<!-- Node57&#45;&gt;Node58 -->
<g id="edge58" class="edge">
<title>Node57&#45;&gt;Node58</title>
<path fill="none" stroke="midnightblue" d="M524.31,-57.83C534.77,-60.52 545.86,-63.63 556,-67 580.81,-75.25 608.42,-87.1 626.75,-95.36"/>
<polygon fill="midnightblue" stroke="midnightblue" points="525.08,-54.41 514.53,-55.39 523.38,-61.21 525.08,-54.41"/>
</g>
<!-- Node0 -->
<g id="node50" class="node">
<title>Node0</title>
<g id="a_node50"><a xlink:href="classMpsMsgCore.html" target="_top" xlink:title=" ">
<polygon fill="white" stroke="black" points="440,-228.5 440,-247.5 520,-247.5 520,-228.5 440,-228.5"/>
<text text-anchor="middle" x="480" y="-235.5" font-family="Helvetica,sans-Serif" font-size="10.00">MpsMsgCore</text>
</a>
</g>
</g>
<!-- Node0&#45;&gt;Node1 -->
<g id="edge59" class="edge">
<title>Node0&#45;&gt;Node1</title>
<path fill="none" stroke="midnightblue" d="M530.04,-249.19C554.11,-254.69 582.8,-261.23 605.8,-266.48"/>
<polygon fill="midnightblue" stroke="midnightblue" points="530.56,-245.72 520.04,-246.91 529.01,-252.55 530.56,-245.72"/>
</g>
</g>
</svg>
