<?xml version="1.0" encoding="UTF-8" standalone="no"?>
<!DOCTYPE svg PUBLIC "-//W3C//DTD SVG 1.1//EN"
 "http://www.w3.org/Graphics/SVG/1.1/DTD/svg11.dtd">
<!-- Generated by graphviz version 2.43.0 (0)
 -->
<!-- Title: Graphical Class Hierarchy Pages: 1 -->
<svg width="615pt" height="636pt"
 viewBox="0.00 0.00 615.00 636.00" xmlns="http://www.w3.org/2000/svg" xmlns:xlink="http://www.w3.org/1999/xlink">
<g id="graph0" class="graph" transform="scale(1 1) rotate(0) translate(4 632)">
<title>Graphical Class Hierarchy</title>
<polygon fill="white" stroke="transparent" points="-4,4 -4,-632 611,-632 611,4 -4,4"/>
<!-- Node134 -->
<g id="node1" class="node">
<title>Node134</title>
<g id="a_node1"><a xlink:href="classadf5355.html" target="_top" xlink:title=" ">
<polygon fill="white" stroke="black" points="67.5,-608.5 67.5,-627.5 123.5,-627.5 123.5,-608.5 67.5,-608.5"/>
<text text-anchor="middle" x="95.5" y="-615.5" font-family="Helvetica,sans-Serif" font-size="10.00">adf5355</text>
</a>
</g>
</g>
<!-- Node135 -->
<g id="node2" class="node">
<title>Node135</title>
<g id="a_node2"><a xlink:href="classAdf5355Tb.html" target="_top" xlink:title=" ">
<polygon fill="white" stroke="black" points="285.5,-608.5 285.5,-627.5 354.5,-627.5 354.5,-608.5 285.5,-608.5"/>
<text text-anchor="middle" x="320" y="-615.5" font-family="Helvetica,sans-Serif" font-size="10.00">Adf5355Tb</text>
</a>
</g>
</g>
<!-- Node134&#45;&gt;Node135 -->
<g id="edge1" class="edge">
<title>Node134&#45;&gt;Node135</title>
<path fill="none" stroke="midnightblue" d="M133.95,-618C176.29,-618 244.6,-618 285.31,-618"/>
<polygon fill="midnightblue" stroke="midnightblue" points="133.78,-614.5 123.78,-618 133.78,-621.5 133.78,-614.5"/>
</g>
<!-- Node47 -->
<g id="node3" class="node">
<title>Node47</title>
<g id="a_node3"><a xlink:href="classAmcMicrowaveMuxCore.html" target="_top" xlink:title=" ">
<polygon fill="white" stroke="black" points="252.5,-532.5 252.5,-551.5 387.5,-551.5 387.5,-532.5 252.5,-532.5"/>
<text text-anchor="middle" x="320" y="-539.5" font-family="Helvetica,sans-Serif" font-size="10.00">AmcMicrowaveMuxCore</text>
</a>
</g>
</g>
<!-- Node134&#45;&gt;Node47 -->
<g id="edge2" class="edge">
<title>Node134&#45;&gt;Node47</title>
<path fill="none" stroke="midnightblue" d="M133.69,-612.47C151.3,-609.37 172.47,-604.91 191,-599 231.56,-586.07 276.48,-564.18 300.85,-551.62"/>
<polygon fill="midnightblue" stroke="midnightblue" points="133.06,-609.03 123.79,-614.15 134.23,-615.93 133.06,-609.03"/>
</g>
<!-- Node48 -->
<g id="node4" class="node">
<title>Node48</title>
<g id="a_node4"><a xlink:href="classAmcMicrowaveMuxDualCore.html" target="_top" xlink:title=" ">
<polygon fill="white" stroke="black" points="449,-532.5 449,-551.5 607,-551.5 607,-532.5 449,-532.5"/>
<text text-anchor="middle" x="528" y="-539.5" font-family="Helvetica,sans-Serif" font-size="10.00">AmcMicrowaveMuxDualCore</text>
</a>
</g>
</g>
<!-- Node47&#45;&gt;Node48 -->
<g id="edge3" class="edge">
<title>Node47&#45;&gt;Node48</title>
<path fill="none" stroke="midnightblue" d="M397.82,-542C414.47,-542 432.09,-542 448.79,-542"/>
<polygon fill="midnightblue" stroke="midnightblue" points="397.6,-538.5 387.6,-542 397.6,-545.5 397.6,-538.5"/>
</g>
<!-- Node133 -->
<g id="node5" class="node">
<title>Node133</title>
<g id="a_node5"><a xlink:href="classAmcBpmCtrl.html" target="_top" xlink:title=" ">
<polygon fill="white" stroke="black" points="56.5,-494.5 56.5,-513.5 134.5,-513.5 134.5,-494.5 56.5,-494.5"/>
<text text-anchor="middle" x="95.5" y="-501.5" font-family="Helvetica,sans-Serif" font-size="10.00">AmcBpmCtrl</text>
</a>
</g>
</g>
<!-- Node53 -->
<g id="node6" class="node">
<title>Node53</title>
<g id="a_node6"><a xlink:href="classAmcStriplineBpmCore.html" target="_top" xlink:title=" ">
<polygon fill="white" stroke="black" points="258,-494.5 258,-513.5 382,-513.5 382,-494.5 258,-494.5"/>
<text text-anchor="middle" x="320" y="-501.5" font-family="Helvetica,sans-Serif" font-size="10.00">AmcStriplineBpmCore</text>
</a>
</g>
</g>
<!-- Node133&#45;&gt;Node53 -->
<g id="edge4" class="edge">
<title>Node133&#45;&gt;Node53</title>
<path fill="none" stroke="midnightblue" d="M145.09,-504C178.19,-504 222.28,-504 257.78,-504"/>
<polygon fill="midnightblue" stroke="midnightblue" points="144.75,-500.5 134.75,-504 144.75,-507.5 144.75,-500.5"/>
</g>
<!-- Node54 -->
<g id="node7" class="node">
<title>Node54</title>
<g id="a_node7"><a xlink:href="classAmcStriplineBpmDualCore.html" target="_top" xlink:title=" ">
<polygon fill="white" stroke="black" points="455,-494.5 455,-513.5 601,-513.5 601,-494.5 455,-494.5"/>
<text text-anchor="middle" x="528" y="-501.5" font-family="Helvetica,sans-Serif" font-size="10.00">AmcStriplineBpmDualCore</text>
</a>
</g>
</g>
<!-- Node53&#45;&gt;Node54 -->
<g id="edge5" class="edge">
<title>Node53&#45;&gt;Node54</title>
<path fill="none" stroke="midnightblue" d="M392.31,-504C412.5,-504 434.49,-504 454.73,-504"/>
<polygon fill="midnightblue" stroke="midnightblue" points="392.25,-500.5 382.25,-504 392.25,-507.5 392.25,-500.5"/>
</g>
<!-- Node132 -->
<g id="node8" class="node">
<title>Node132</title>
<g id="a_node8"><a xlink:href="classAmcBpmDacVcoSpi.html" target="_top" xlink:title=" ">
<polygon fill="white" stroke="black" points="39,-456.5 39,-475.5 152,-475.5 152,-456.5 39,-456.5"/>
<text text-anchor="middle" x="95.5" y="-463.5" font-family="Helvetica,sans-Serif" font-size="10.00">AmcBpmDacVcoSpi</text>
</a>
</g>
</g>
<!-- Node132&#45;&gt;Node53 -->
<g id="edge6" class="edge">
<title>Node132&#45;&gt;Node53</title>
<path fill="none" stroke="midnightblue" d="M162.28,-477.23C194.43,-482.72 232.69,-489.26 263.37,-494.5"/>
<polygon fill="midnightblue" stroke="midnightblue" points="162.52,-473.72 152.07,-475.49 161.34,-480.62 162.52,-473.72"/>
</g>
<!-- Node120 -->
<g id="node9" class="node">
<title>Node120</title>
<g id="a_node9"><a xlink:href="classAmcClkFreqReg.html" target="_top" xlink:title=" ">
<polygon fill="white" stroke="black" points="273,-304.5 273,-323.5 367,-323.5 367,-304.5 273,-304.5"/>
<text text-anchor="middle" x="320" y="-311.5" font-family="Helvetica,sans-Serif" font-size="10.00">AmcClkFreqReg</text>
</a>
</g>
</g>
<!-- Node49 -->
<g id="node10" class="node">
<title>Node49</title>
<g id="a_node10"><a xlink:href="classAmcMrLlrfDownConvertCore.html" target="_top" xlink:title=" ">
<polygon fill="white" stroke="black" points="450.5,-266.5 450.5,-285.5 605.5,-285.5 605.5,-266.5 450.5,-266.5"/>
<text text-anchor="middle" x="528" y="-273.5" font-family="Helvetica,sans-Serif" font-size="10.00">AmcMrLlrfDownConvertCore</text>
</a>
</g>
</g>
<!-- Node120&#45;&gt;Node49 -->
<g id="edge7" class="edge">
<title>Node120&#45;&gt;Node49</title>
<path fill="none" stroke="midnightblue" d="M377.34,-303.61C407.99,-297.95 445.63,-291.01 475.5,-285.5"/>
<polygon fill="midnightblue" stroke="midnightblue" points="376.43,-300.22 367.23,-305.47 377.7,-307.1 376.43,-300.22"/>
</g>
<!-- Node51 -->
<g id="node11" class="node">
<title>Node51</title>
<g id="a_node11"><a xlink:href="classAmcMrLlrfGen2UpConvert.html" target="_top" xlink:title=" ">
<polygon fill="white" stroke="black" points="456,-304.5 456,-323.5 600,-323.5 600,-304.5 456,-304.5"/>
<text text-anchor="middle" x="528" y="-311.5" font-family="Helvetica,sans-Serif" font-size="10.00">AmcMrLlrfGen2UpConvert</text>
</a>
</g>
</g>
<!-- Node120&#45;&gt;Node51 -->
<g id="edge8" class="edge">
<title>Node120&#45;&gt;Node51</title>
<path fill="none" stroke="midnightblue" d="M377.33,-314C401.56,-314 430.16,-314 455.84,-314"/>
<polygon fill="midnightblue" stroke="midnightblue" points="377.23,-310.5 367.23,-314 377.23,-317.5 377.23,-310.5"/>
</g>
<!-- Node1 -->
<g id="node12" class="node">
<title>Node1</title>
<g id="a_node12"><a xlink:href="classAmcMrLlrfUpConvertCore.html" target="_top" xlink:title=" ">
<polygon fill="white" stroke="black" points="457.5,-228.5 457.5,-247.5 598.5,-247.5 598.5,-228.5 457.5,-228.5"/>
<text text-anchor="middle" x="528" y="-235.5" font-family="Helvetica,sans-Serif" font-size="10.00">AmcMrLlrfUpConvertCore</text>
</a>
</g>
</g>
<!-- Node120&#45;&gt;Node1 -->
<g id="edge9" class="edge">
<title>Node120&#45;&gt;Node1</title>
<path fill="none" stroke="midnightblue" d="M377.53,-307.95C389.73,-305.13 402.2,-301.01 413,-295 433.33,-283.68 428.88,-268.67 449,-257 455.63,-253.15 463.01,-250.08 470.52,-247.63"/>
<polygon fill="midnightblue" stroke="midnightblue" points="376.48,-304.59 367.39,-310.02 377.89,-311.45 376.48,-304.59"/>
</g>
<!-- Node119 -->
<g id="node13" class="node">
<title>Node119</title>
<g id="a_node13"><a xlink:href="classAmcCryoCoreCtrl.html" target="_top" xlink:title=" ">
<polygon fill="white" stroke="black" points="45,-418.5 45,-437.5 146,-437.5 146,-418.5 45,-418.5"/>
<text text-anchor="middle" x="95.5" y="-425.5" font-family="Helvetica,sans-Serif" font-size="10.00">AmcCryoCoreCtrl</text>
</a>
</g>
</g>
<!-- Node41 -->
<g id="node14" class="node">
<title>Node41</title>
<g id="a_node14"><a xlink:href="classAmcCryoCore.html" target="_top" xlink:title=" ">
<polygon fill="white" stroke="black" points="278.5,-456.5 278.5,-475.5 361.5,-475.5 361.5,-456.5 278.5,-456.5"/>
<text text-anchor="middle" x="320" y="-463.5" font-family="Helvetica,sans-Serif" font-size="10.00">AmcCryoCore</text>
</a>
</g>
</g>
<!-- Node119&#45;&gt;Node41 -->
<g id="edge10" class="edge">
<title>Node119&#45;&gt;Node41</title>
<path fill="none" stroke="midnightblue" d="M156.25,-438.2C194.93,-444.81 244.26,-453.23 278.42,-459.07"/>
<polygon fill="midnightblue" stroke="midnightblue" points="156.6,-434.71 146.16,-436.48 155.42,-441.61 156.6,-434.71"/>
</g>
<!-- Node42 -->
<g id="node15" class="node">
<title>Node42</title>
<g id="a_node15"><a xlink:href="classAmcCryoDualCore.html" target="_top" xlink:title=" ">
<polygon fill="white" stroke="black" points="475,-456.5 475,-475.5 581,-475.5 581,-456.5 475,-456.5"/>
<text text-anchor="middle" x="528" y="-463.5" font-family="Helvetica,sans-Serif" font-size="10.00">AmcCryoDualCore</text>
</a>
</g>
</g>
<!-- Node41&#45;&gt;Node42 -->
<g id="edge11" class="edge">
<title>Node41&#45;&gt;Node42</title>
<path fill="none" stroke="midnightblue" d="M371.94,-466C403.2,-466 443.13,-466 474.64,-466"/>
<polygon fill="midnightblue" stroke="midnightblue" points="371.7,-462.5 361.7,-466 371.7,-469.5 371.7,-462.5"/>
</g>
<!-- Node116 -->
<g id="node16" class="node">
<title>Node116</title>
<g id="a_node16"><a xlink:href="classAmcGenericAdcDacCtrl.html" target="_top" xlink:title=" ">
<polygon fill="white" stroke="black" points="30.5,-76.5 30.5,-95.5 160.5,-95.5 160.5,-76.5 30.5,-76.5"/>
<text text-anchor="middle" x="95.5" y="-83.5" font-family="Helvetica,sans-Serif" font-size="10.00">AmcGenericAdcDacCtrl</text>
</a>
</g>
</g>
<!-- Node45 -->
<g id="node17" class="node">
<title>Node45</title>
<g id="a_node17"><a xlink:href="classAmcGenericAdcDacCore.html" target="_top" xlink:title=" ">
<polygon fill="white" stroke="black" points="252.5,-76.5 252.5,-95.5 387.5,-95.5 387.5,-76.5 252.5,-76.5"/>
<text text-anchor="middle" x="320" y="-83.5" font-family="Helvetica,sans-Serif" font-size="10.00">AmcGenericAdcDacCore</text>
</a>
</g>
</g>
<!-- Node116&#45;&gt;Node45 -->
<g id="edge12" class="edge">
<title>Node116&#45;&gt;Node45</title>
<path fill="none" stroke="midnightblue" d="M170.86,-86C197.2,-86 226.64,-86 252.3,-86"/>
<polygon fill="midnightblue" stroke="midnightblue" points="170.56,-82.5 160.56,-86 170.56,-89.5 170.56,-82.5"/>
</g>
<!-- Node46 -->
<g id="node18" class="node">
<title>Node46</title>
<g id="a_node18"><a xlink:href="classAmcGenericAdcDacDualCore.html" target="_top" xlink:title=" ">
<polygon fill="white" stroke="black" points="449,-76.5 449,-95.5 607,-95.5 607,-76.5 449,-76.5"/>
<text text-anchor="middle" x="528" y="-83.5" font-family="Helvetica,sans-Serif" font-size="10.00">AmcGenericAdcDacDualCore</text>
</a>
</g>
</g>
<!-- Node45&#45;&gt;Node46 -->
<g id="edge13" class="edge">
<title>Node45&#45;&gt;Node46</title>
<path fill="none" stroke="midnightblue" d="M397.82,-86C414.47,-86 432.09,-86 448.79,-86"/>
<polygon fill="midnightblue" stroke="midnightblue" points="397.6,-82.5 387.6,-86 397.6,-89.5 397.6,-82.5"/>
</g>
<!-- Node115 -->
<g id="node19" class="node">
<title>Node115</title>
<g id="a_node19"><a xlink:href="classAmcGenericAdcDacVcoSpi.html" target="_top" xlink:title=" ">
<polygon fill="white" stroke="black" points="22.5,-114.5 22.5,-133.5 168.5,-133.5 168.5,-114.5 22.5,-114.5"/>
<text text-anchor="middle" x="95.5" y="-121.5" font-family="Helvetica,sans-Serif" font-size="10.00">AmcGenericAdcDacVcoSpi</text>
</a>
</g>
</g>
<!-- Node115&#45;&gt;Node45 -->
<g id="edge14" class="edge">
<title>Node115&#45;&gt;Node45</title>
<path fill="none" stroke="midnightblue" d="M162.52,-112.72C194.53,-107.26 232.57,-100.76 263.12,-95.54"/>
<polygon fill="midnightblue" stroke="midnightblue" points="161.63,-109.33 152.36,-114.46 162.81,-116.23 161.63,-109.33"/>
</g>
<!-- Node112 -->
<g id="node20" class="node">
<title>Node112</title>
<g id="a_node20"><a xlink:href="classAmcMicrowaveMuxCoreCtrl.html" target="_top" xlink:title=" ">
<polygon fill="white" stroke="black" points="19.5,-570.5 19.5,-589.5 171.5,-589.5 171.5,-570.5 19.5,-570.5"/>
<text text-anchor="middle" x="95.5" y="-577.5" font-family="Helvetica,sans-Serif" font-size="10.00">AmcMicrowaveMuxCoreCtrl</text>
</a>
</g>
</g>
<!-- Node112&#45;&gt;Node47 -->
<g id="edge15" class="edge">
<title>Node112&#45;&gt;Node47</title>
<path fill="none" stroke="midnightblue" d="M162.52,-568.72C194.53,-563.26 232.57,-556.76 263.12,-551.54"/>
<polygon fill="midnightblue" stroke="midnightblue" points="161.63,-565.33 152.36,-570.46 162.81,-572.23 161.63,-565.33"/>
</g>
<!-- Node106 -->
<g id="node21" class="node">
<title>Node106</title>
<g id="a_node21"><a xlink:href="classAmcMrLlrfDownConvertDacMuxReg.html" target="_top" xlink:title=" ">
<polygon fill="white" stroke="black" points="0,-152.5 0,-171.5 191,-171.5 191,-152.5 0,-152.5"/>
<text text-anchor="middle" x="95.5" y="-159.5" font-family="Helvetica,sans-Serif" font-size="10.00">AmcMrLlrfDownConvertDacMuxReg</text>
</a>
</g>
</g>
<!-- Node107 -->
<g id="node22" class="node">
<title>Node107</title>
<g id="a_node22"><a xlink:href="classAmcMrLlrfDownConvertDacMux.html" target="_top" xlink:title=" ">
<polygon fill="white" stroke="black" points="233.5,-152.5 233.5,-171.5 406.5,-171.5 406.5,-152.5 233.5,-152.5"/>
<text text-anchor="middle" x="320" y="-159.5" font-family="Helvetica,sans-Serif" font-size="10.00">AmcMrLlrfDownConvertDacMux</text>
</a>
</g>
</g>
<!-- Node106&#45;&gt;Node107 -->
<g id="edge16" class="edge">
<title>Node106&#45;&gt;Node107</title>
<path fill="none" stroke="midnightblue" d="M201.37,-162C212.04,-162 222.79,-162 233.22,-162"/>
<polygon fill="midnightblue" stroke="midnightblue" points="201.18,-158.5 191.18,-162 201.18,-165.5 201.18,-158.5"/>
</g>
<!-- Node107&#45;&gt;Node49 -->
<g id="edge17" class="edge">
<title>Node107&#45;&gt;Node49</title>
<path fill="none" stroke="midnightblue" d="M395.53,-175.37C401.79,-178.25 407.73,-181.75 413,-186 440.55,-208.2 421.27,-235.02 449,-257 453.92,-260.9 459.51,-264.01 465.4,-266.49"/>
<polygon fill="midnightblue" stroke="midnightblue" points="396.75,-172.09 386.17,-171.56 394.12,-178.57 396.75,-172.09"/>
</g>
<!-- Node88 -->
<g id="node23" class="node">
<title>Node88</title>
<g id="a_node23"><a xlink:href="classAxiSerAttnMaster.html" target="_top" xlink:title=" ">
<polygon fill="white" stroke="black" points="269,-266.5 269,-285.5 371,-285.5 371,-266.5 269,-266.5"/>
<text text-anchor="middle" x="320" y="-273.5" font-family="Helvetica,sans-Serif" font-size="10.00">AxiSerAttnMaster</text>
</a>
</g>
</g>
<!-- Node88&#45;&gt;Node49 -->
<g id="edge18" class="edge">
<title>Node88&#45;&gt;Node49</title>
<path fill="none" stroke="midnightblue" d="M381.17,-276C402.83,-276 427.57,-276 450.44,-276"/>
<polygon fill="midnightblue" stroke="midnightblue" points="381.13,-272.5 371.13,-276 381.13,-279.5 381.13,-272.5"/>
</g>
<!-- Node88&#45;&gt;Node51 -->
<g id="edge19" class="edge">
<title>Node88&#45;&gt;Node51</title>
<path fill="none" stroke="midnightblue" d="M381.01,-287.07C410.86,-292.58 446.57,-299.16 475.21,-304.45"/>
<polygon fill="midnightblue" stroke="midnightblue" points="381.6,-283.62 371.13,-285.25 380.33,-290.5 381.6,-283.62"/>
</g>
<!-- Node88&#45;&gt;Node1 -->
<g id="edge20" class="edge">
<title>Node88&#45;&gt;Node1</title>
<path fill="none" stroke="midnightblue" d="M381.01,-264.93C410.86,-259.42 446.57,-252.84 475.21,-247.55"/>
<polygon fill="midnightblue" stroke="midnightblue" points="380.33,-261.5 371.13,-266.75 381.6,-268.38 380.33,-261.5"/>
</g>
<!-- Node56 -->
<g id="node24" class="node">
<title>Node56</title>
<g id="a_node24"><a xlink:href="classhmc305.html" target="_top" xlink:title=" ">
<polygon fill="white" stroke="black" points="67.5,-532.5 67.5,-551.5 123.5,-551.5 123.5,-532.5 67.5,-532.5"/>
<text text-anchor="middle" x="95.5" y="-539.5" font-family="Helvetica,sans-Serif" font-size="10.00">hmc305</text>
</a>
</g>
</g>
<!-- Node56&#45;&gt;Node47 -->
<g id="edge21" class="edge">
<title>Node56&#45;&gt;Node47</title>
<path fill="none" stroke="midnightblue" d="M134.11,-542C166.37,-542 213.62,-542 252.28,-542"/>
<polygon fill="midnightblue" stroke="midnightblue" points="133.78,-538.5 123.78,-542 133.78,-545.5 133.78,-538.5"/>
</g>
<!-- Node55 -->
<g id="node25" class="node">
<title>Node55</title>
<g id="a_node25"><a xlink:href="classJesdSyncIn.html" target="_top" xlink:title=" ">
<polygon fill="white" stroke="black" points="61,-380.5 61,-399.5 130,-399.5 130,-380.5 61,-380.5"/>
<text text-anchor="middle" x="95.5" y="-387.5" font-family="Helvetica,sans-Serif" font-size="10.00">JesdSyncIn</text>
</a>
</g>
</g>
<!-- Node55&#45;&gt;Node47 -->
<g id="edge26" class="edge">
<title>Node55&#45;&gt;Node47</title>
<path fill="none" stroke="midnightblue" d="M140.52,-389.52C158.1,-391.51 177.36,-396.76 191,-409 230.53,-444.5 187.56,-487.4 227,-523 234.14,-529.45 242.88,-533.93 252.1,-537.02"/>
<polygon fill="midnightblue" stroke="midnightblue" points="140.67,-386.02 130.42,-388.69 140.1,-392.99 140.67,-386.02"/>
</g>
<!-- Node55&#45;&gt;Node53 -->
<g id="edge32" class="edge">
<title>Node55&#45;&gt;Node53</title>
<path fill="none" stroke="midnightblue" d="M140.62,-390.57C157.84,-392.78 176.81,-397.91 191,-409 220.45,-432.02 197.61,-461.91 227,-485 235.85,-491.95 246.61,-496.54 257.61,-499.53"/>
<polygon fill="midnightblue" stroke="midnightblue" points="140.48,-387.04 130.19,-389.54 139.79,-394.01 140.48,-387.04"/>
</g>
<!-- Node55&#45;&gt;Node49 -->
<g id="edge27" class="edge">
<title>Node55&#45;&gt;Node49</title>
<path fill="none" stroke="midnightblue" d="M140.28,-399.29C216.81,-414.46 370.81,-439.92 413,-409 455.86,-377.59 410.19,-331.29 449,-295 453.07,-291.19 457.78,-288.11 462.81,-285.62"/>
<polygon fill="midnightblue" stroke="midnightblue" points="140.51,-395.76 130.01,-397.22 139.13,-402.63 140.51,-395.76"/>
</g>
<!-- Node55&#45;&gt;Node41 -->
<g id="edge22" class="edge">
<title>Node55&#45;&gt;Node41</title>
<path fill="none" stroke="midnightblue" d="M140.31,-393.77C156.86,-396.47 175.43,-401.09 191,-409 210.35,-418.83 207.94,-431.62 227,-442 242.8,-450.6 261.83,-456.23 278.46,-459.86"/>
<polygon fill="midnightblue" stroke="midnightblue" points="140.71,-390.3 130.32,-392.33 139.71,-397.22 140.71,-390.3"/>
</g>
<!-- Node55&#45;&gt;Node45 -->
<g id="edge25" class="edge">
<title>Node55&#45;&gt;Node45</title>
<path fill="none" stroke="midnightblue" d="M140.54,-391.69C158.59,-389.99 178.21,-384.63 191,-371 272.62,-283.99 145.61,-192.22 227,-105 233.9,-97.61 242.85,-92.68 252.46,-89.46"/>
<polygon fill="midnightblue" stroke="midnightblue" points="140.21,-388.2 130.44,-392.3 140.63,-395.19 140.21,-388.2"/>
</g>
<!-- Node43 -->
<g id="node26" class="node">
<title>Node43</title>
<g id="a_node26"><a xlink:href="classAmcCryoDemoCore.html" target="_top" xlink:title=" ">
<polygon fill="white" stroke="black" points="263.5,-380.5 263.5,-399.5 376.5,-399.5 376.5,-380.5 263.5,-380.5"/>
<text text-anchor="middle" x="320" y="-387.5" font-family="Helvetica,sans-Serif" font-size="10.00">AmcCryoDemoCore</text>
</a>
</g>
</g>
<!-- Node55&#45;&gt;Node43 -->
<g id="edge23" class="edge">
<title>Node55&#45;&gt;Node43</title>
<path fill="none" stroke="midnightblue" d="M140.72,-390C175.9,-390 225.33,-390 263.22,-390"/>
<polygon fill="midnightblue" stroke="midnightblue" points="140.29,-386.5 130.29,-390 140.29,-393.5 140.29,-386.5"/>
</g>
<!-- Node50 -->
<g id="node28" class="node">
<title>Node50</title>
<g id="a_node28"><a xlink:href="classAmcMrLlrfGen2UpConvertMapping.html" target="_top" xlink:title=" ">
<polygon fill="white" stroke="black" points="227,-342.5 227,-361.5 413,-361.5 413,-342.5 227,-342.5"/>
<text text-anchor="middle" x="320" y="-349.5" font-family="Helvetica,sans-Serif" font-size="10.00">AmcMrLlrfGen2UpConvertMapping</text>
</a>
</g>
</g>
<!-- Node55&#45;&gt;Node50 -->
<g id="edge28" class="edge">
<title>Node55&#45;&gt;Node50</title>
<path fill="none" stroke="midnightblue" d="M140.27,-382.52C175.47,-376.51 225.16,-368.03 263.22,-361.53"/>
<polygon fill="midnightblue" stroke="midnightblue" points="139.56,-379.09 130.29,-384.23 140.74,-386 139.56,-379.09"/>
</g>
<!-- Node52 -->
<g id="node29" class="node">
<title>Node52</title>
<g id="a_node29"><a xlink:href="classAmcMrLlrfUpConvertMapping.html" target="_top" xlink:title=" ">
<polygon fill="white" stroke="black" points="239.5,-228.5 239.5,-247.5 400.5,-247.5 400.5,-228.5 239.5,-228.5"/>
<text text-anchor="middle" x="320" y="-235.5" font-family="Helvetica,sans-Serif" font-size="10.00">AmcMrLlrfUpConvertMapping</text>
</a>
</g>
</g>
<!-- Node55&#45;&gt;Node52 -->
<g id="edge30" class="edge">
<title>Node55&#45;&gt;Node52</title>
<path fill="none" stroke="midnightblue" d="M140.52,-390.48C158.1,-388.49 177.36,-383.24 191,-371 230.53,-335.5 187.56,-292.6 227,-257 231.12,-253.28 235.76,-250.22 240.72,-247.7"/>
<polygon fill="midnightblue" stroke="midnightblue" points="140.1,-387.01 130.42,-391.31 140.67,-393.98 140.1,-387.01"/>
</g>
<!-- Node44 -->
<g id="node27" class="node">
<title>Node44</title>
<g id="a_node27"><a xlink:href="classAmcCryoDemoDualCore.html" target="_top" xlink:title=" ">
<polygon fill="white" stroke="black" points="460.5,-380.5 460.5,-399.5 595.5,-399.5 595.5,-380.5 460.5,-380.5"/>
<text text-anchor="middle" x="528" y="-387.5" font-family="Helvetica,sans-Serif" font-size="10.00">AmcCryoDemoDualCore</text>
</a>
</g>
</g>
<!-- Node43&#45;&gt;Node44 -->
<g id="edge24" class="edge">
<title>Node43&#45;&gt;Node44</title>
<path fill="none" stroke="midnightblue" d="M386.93,-390C410.35,-390 436.72,-390 460.22,-390"/>
<polygon fill="midnightblue" stroke="midnightblue" points="386.75,-386.5 376.75,-390 386.75,-393.5 386.75,-386.5"/>
</g>
<!-- Node50&#45;&gt;Node51 -->
<g id="edge29" class="edge">
<title>Node50&#45;&gt;Node51</title>
<path fill="none" stroke="midnightblue" d="M382.9,-340.58C412.37,-335.14 447.22,-328.72 475.26,-323.54"/>
<polygon fill="midnightblue" stroke="midnightblue" points="381.92,-337.2 372.72,-342.46 383.19,-344.09 381.92,-337.2"/>
</g>
<!-- Node52&#45;&gt;Node1 -->
<g id="edge31" class="edge">
<title>Node52&#45;&gt;Node1</title>
<path fill="none" stroke="midnightblue" d="M410.8,-238C426.38,-238 442.36,-238 457.3,-238"/>
<polygon fill="midnightblue" stroke="midnightblue" points="410.65,-234.5 400.64,-238 410.64,-241.5 410.65,-234.5"/>
</g>
<!-- Node40 -->
<g id="node30" class="node">
<title>Node40</title>
<g id="a_node30"><a xlink:href="classJesdSyncOut.html" target="_top" xlink:title=" ">
<polygon fill="white" stroke="black" points="57,-342.5 57,-361.5 134,-361.5 134,-342.5 57,-342.5"/>
<text text-anchor="middle" x="95.5" y="-349.5" font-family="Helvetica,sans-Serif" font-size="10.00">JesdSyncOut</text>
</a>
</g>
</g>
<!-- Node40&#45;&gt;Node47 -->
<g id="edge36" class="edge">
<title>Node40&#45;&gt;Node47</title>
<path fill="none" stroke="midnightblue" d="M144.29,-351.43C160.99,-353.64 178.64,-359.06 191,-371 240.92,-419.25 177.21,-474.62 227,-523 234.02,-529.82 242.8,-534.48 252.13,-537.63"/>
<polygon fill="midnightblue" stroke="midnightblue" points="144.35,-347.92 134.06,-350.44 143.68,-354.89 144.35,-347.92"/>
</g>
<!-- Node40&#45;&gt;Node53 -->
<g id="edge40" class="edge">
<title>Node40&#45;&gt;Node53</title>
<path fill="none" stroke="midnightblue" d="M144.23,-351.98C160.77,-354.28 178.32,-359.61 191,-371 230.53,-406.5 187.56,-449.4 227,-485 235.6,-492.76 246.5,-497.68 257.77,-500.73"/>
<polygon fill="midnightblue" stroke="midnightblue" points="144.43,-348.49 134.12,-350.92 143.7,-355.45 144.43,-348.49"/>
</g>
<!-- Node40&#45;&gt;Node49 -->
<g id="edge37" class="edge">
<title>Node40&#45;&gt;Node49</title>
<path fill="none" stroke="midnightblue" d="M107.46,-333.66C126.98,-303.03 171.02,-242.5 227,-219 303.22,-187 337.06,-186.34 413,-219 434.37,-228.19 428.88,-245.33 449,-257 455.63,-260.85 463.01,-263.92 470.52,-266.37"/>
<polygon fill="midnightblue" stroke="midnightblue" points="104.29,-332.13 102,-342.47 110.24,-335.82 104.29,-332.13"/>
</g>
<!-- Node40&#45;&gt;Node41 -->
<g id="edge33" class="edge">
<title>Node40&#45;&gt;Node41</title>
<path fill="none" stroke="midnightblue" d="M144.24,-355.81C159.86,-358.53 176.83,-363.16 191,-371 211.36,-382.26 208.96,-394.31 227,-409 250.6,-428.22 281.17,-445.94 300.44,-456.36"/>
<polygon fill="midnightblue" stroke="midnightblue" points="144.63,-352.32 134.21,-354.28 143.57,-359.24 144.63,-352.32"/>
</g>
<!-- Node40&#45;&gt;Node45 -->
<g id="edge35" class="edge">
<title>Node40&#45;&gt;Node45</title>
<path fill="none" stroke="midnightblue" d="M107.15,-333.62C125.07,-302.52 162.1,-237.38 191,-181 208.05,-147.74 197.61,-128.09 227,-105 234.44,-99.16 243.23,-94.98 252.38,-92.03"/>
<polygon fill="midnightblue" stroke="midnightblue" points="104.01,-332.06 102.04,-342.47 110.07,-335.56 104.01,-332.06"/>
</g>
<!-- Node40&#45;&gt;Node43 -->
<g id="edge34" class="edge">
<title>Node40&#45;&gt;Node43</title>
<path fill="none" stroke="midnightblue" d="M144.18,-360.14C179.04,-366.1 226.44,-374.19 263.09,-380.45"/>
<polygon fill="midnightblue" stroke="midnightblue" points="144.69,-356.68 134.24,-358.45 143.51,-363.58 144.69,-356.68"/>
</g>
<!-- Node40&#45;&gt;Node50 -->
<g id="edge38" class="edge">
<title>Node40&#45;&gt;Node50</title>
<path fill="none" stroke="midnightblue" d="M144.51,-352C168.57,-352 198.53,-352 226.8,-352"/>
<polygon fill="midnightblue" stroke="midnightblue" points="144.24,-348.5 134.24,-352 144.24,-355.5 144.24,-348.5"/>
</g>
<!-- Node40&#45;&gt;Node52 -->
<g id="edge39" class="edge">
<title>Node40&#45;&gt;Node52</title>
<path fill="none" stroke="midnightblue" d="M113.82,-335.57C137.47,-314.09 182.07,-276.88 227,-257 235.8,-253.11 245.43,-250 255.04,-247.52"/>
<polygon fill="midnightblue" stroke="midnightblue" points="111.34,-333.1 106.37,-342.45 116.09,-338.24 111.34,-333.1"/>
</g>
<!-- Node39 -->
<g id="node31" class="node">
<title>Node39</title>
<g id="a_node31"><a xlink:href="classLvdsDacLane.html" target="_top" xlink:title=" ">
<polygon fill="white" stroke="black" points="55,-0.5 55,-19.5 136,-19.5 136,-0.5 55,-0.5"/>
<text text-anchor="middle" x="95.5" y="-7.5" font-family="Helvetica,sans-Serif" font-size="10.00">LvdsDacLane</text>
</a>
</g>
</g>
<!-- Node38 -->
<g id="node32" class="node">
<title>Node38</title>
<g id="a_node32"><a xlink:href="classLvdsDacSigGen.html" target="_top" xlink:title=" ">
<polygon fill="white" stroke="black" points="274,-38.5 274,-57.5 366,-57.5 366,-38.5 274,-38.5"/>
<text text-anchor="middle" x="320" y="-45.5" font-family="Helvetica,sans-Serif" font-size="10.00">LvdsDacSigGen</text>
</a>
</g>
</g>
<!-- Node39&#45;&gt;Node38 -->
<g id="edge41" class="edge">
<title>Node39&#45;&gt;Node38</title>
<path fill="none" stroke="midnightblue" d="M145.9,-18.44C184.11,-24.96 236.58,-33.92 273.71,-40.27"/>
<polygon fill="midnightblue" stroke="midnightblue" points="146.47,-14.98 136.02,-16.75 145.29,-21.88 146.47,-14.98"/>
</g>
<!-- Node38&#45;&gt;Node1 -->
<g id="edge42" class="edge">
<title>Node38&#45;&gt;Node1</title>
<path fill="none" stroke="midnightblue" d="M376.47,-52.28C389.24,-55.15 402.22,-59.73 413,-67 444.95,-88.54 504.14,-195.47 521.86,-228.36"/>
<polygon fill="midnightblue" stroke="midnightblue" points="376.8,-48.78 366.32,-50.33 375.48,-55.66 376.8,-48.78"/>
</g>
<!-- Node37 -->
<g id="node33" class="node">
<title>Node37</title>
<g id="a_node33"><a xlink:href="classLvdsDacRegItf.html" target="_top" xlink:title=" ">
<polygon fill="white" stroke="black" points="52,-38.5 52,-57.5 139,-57.5 139,-38.5 52,-38.5"/>
<text text-anchor="middle" x="95.5" y="-45.5" font-family="Helvetica,sans-Serif" font-size="10.00">LvdsDacRegItf</text>
</a>
</g>
</g>
<!-- Node37&#45;&gt;Node38 -->
<g id="edge43" class="edge">
<title>Node37&#45;&gt;Node38</title>
<path fill="none" stroke="midnightblue" d="M149.47,-48C187.37,-48 237.84,-48 273.83,-48"/>
<polygon fill="midnightblue" stroke="midnightblue" points="149.14,-44.5 139.14,-48 149.14,-51.5 149.14,-44.5"/>
</g>
<!-- Node0 -->
<g id="node34" class="node">
<title>Node0</title>
<g id="a_node34"><a xlink:href="classOutputTapDelay.html" target="_top" xlink:title=" ">
<polygon fill="white" stroke="black" points="272.5,-114.5 272.5,-133.5 367.5,-133.5 367.5,-114.5 272.5,-114.5"/>
<text text-anchor="middle" x="320" y="-121.5" font-family="Helvetica,sans-Serif" font-size="10.00">OutputTapDelay</text>
</a>
</g>
</g>
<!-- Node0&#45;&gt;Node1 -->
<g id="edge44" class="edge">
<title>Node0&#45;&gt;Node1</title>
<path fill="none" stroke="midnightblue" d="M377.79,-131.18C389.78,-133.94 402.1,-137.74 413,-143 458.49,-164.93 501.15,-208.97 518.64,-228.4"/>
<polygon fill="midnightblue" stroke="midnightblue" points="378.34,-127.72 367.83,-129.11 376.91,-134.58 378.34,-127.72"/>
</g>
</g>
</svg>
