<?xml version="1.0" encoding="UTF-8" standalone="no"?>
<!DOCTYPE svg PUBLIC "-//W3C//DTD SVG 1.1//EN"
 "http://www.w3.org/Graphics/SVG/1.1/DTD/svg11.dtd">
<!-- Generated by graphviz version 2.43.0 (0)
 -->
<!-- Title: Graphical Class Hierarchy Pages: 1 -->
<svg width="765pt" height="750pt"
 viewBox="0.00 0.00 765.00 750.00" xmlns="http://www.w3.org/2000/svg" xmlns:xlink="http://www.w3.org/1999/xlink">
<g id="graph0" class="graph" transform="scale(1 1) rotate(0) translate(4 746)">
<title>Graphical Class Hierarchy</title>
<polygon fill="white" stroke="transparent" points="-4,4 -4,-746 761,-746 761,4 -4,4"/>
<!-- Node121 -->
<g id="node1" class="node">
<title>Node121</title>
<g id="a_node1"><a xlink:href="classAmcCarrierBsi.html" target="_top" xlink:title=" ">
<polygon fill="white" stroke="black" points="360.5,-684.5 360.5,-703.5 446.5,-703.5 446.5,-684.5 360.5,-684.5"/>
<text text-anchor="middle" x="403.5" y="-691.5" font-family="Helvetica,sans-Serif" font-size="10.00">AmcCarrierBsi</text>
</a>
</g>
</g>
<!-- Node112 -->
<g id="node2" class="node">
<title>Node112</title>
<g id="a_node2"><a xlink:href="classAmcCarrierSysReg.html" target="_top" xlink:title=" ">
<polygon fill="white" stroke="black" points="496,-589.5 496,-608.5 603,-608.5 603,-589.5 496,-589.5"/>
<text text-anchor="middle" x="549.5" y="-596.5" font-family="Helvetica,sans-Serif" font-size="10.00">AmcCarrierSysReg</text>
</a>
</g>
</g>
<!-- Node121&#45;&gt;Node112 -->
<g id="edge1" class="edge">
<title>Node121&#45;&gt;Node112</title>
<path fill="none" stroke="midnightblue" d="M448.5,-680.7C452.48,-678.98 456.37,-677.08 460,-675 492.7,-656.29 524.6,-624.65 539.6,-608.74"/>
<polygon fill="midnightblue" stroke="midnightblue" points="447.15,-677.47 439.14,-684.41 449.73,-683.98 447.15,-677.47"/>
</g>
<!-- Node3 -->
<g id="node3" class="node">
<title>Node3</title>
<g id="a_node3"><a xlink:href="classAmcCarrierCoreAdv.html" target="_top" xlink:title=" ">
<polygon fill="white" stroke="black" points="641.5,-532.5 641.5,-551.5 754.5,-551.5 754.5,-532.5 641.5,-532.5"/>
<text text-anchor="middle" x="698" y="-539.5" font-family="Helvetica,sans-Serif" font-size="10.00">AmcCarrierCoreAdv</text>
</a>
</g>
</g>
<!-- Node112&#45;&gt;Node3 -->
<g id="edge2" class="edge">
<title>Node112&#45;&gt;Node3</title>
<path fill="none" stroke="midnightblue" d="M588.86,-585.82C593.66,-583.96 598.47,-582 603,-580 619.55,-572.68 622.34,-568.06 639,-561 647.1,-557.57 656.04,-554.36 664.43,-551.6"/>
<polygon fill="midnightblue" stroke="midnightblue" points="587.26,-582.68 579.12,-589.45 589.71,-589.23 587.26,-582.68"/>
</g>
<!-- Node4 -->
<g id="node4" class="node">
<title>Node4</title>
<g id="a_node4"><a xlink:href="classAmcCarrierCoreBase.html" target="_top" xlink:title=" ">
<polygon fill="white" stroke="black" points="639,-570.5 639,-589.5 757,-589.5 757,-570.5 639,-570.5"/>
<text text-anchor="middle" x="698" y="-577.5" font-family="Helvetica,sans-Serif" font-size="10.00">AmcCarrierCoreBase</text>
</a>
</g>
</g>
<!-- Node112&#45;&gt;Node4 -->
<g id="edge3" class="edge">
<title>Node112&#45;&gt;Node4</title>
<path fill="none" stroke="midnightblue" d="M613.49,-590.83C621.87,-589.74 630.44,-588.63 638.73,-587.56"/>
<polygon fill="midnightblue" stroke="midnightblue" points="612.86,-587.38 603.39,-592.14 613.76,-594.33 612.86,-587.38"/>
</g>
<!-- Node5 -->
<g id="node5" class="node">
<title>Node5</title>
<g id="a_node5"><a xlink:href="classAmcCarrierCoreFsbl.html" target="_top" xlink:title=" ">
<polygon fill="white" stroke="black" points="641,-494.5 641,-513.5 755,-513.5 755,-494.5 641,-494.5"/>
<text text-anchor="middle" x="698" y="-501.5" font-family="Helvetica,sans-Serif" font-size="10.00">AmcCarrierCoreFsbl</text>
</a>
</g>
</g>
<!-- Node112&#45;&gt;Node5 -->
<g id="edge4" class="edge">
<title>Node112&#45;&gt;Node5</title>
<path fill="none" stroke="midnightblue" d="M596.08,-584.76C598.52,-583.32 600.84,-581.73 603,-580 626.35,-561.22 615.37,-541.42 639,-523 643.93,-519.16 649.67,-516.08 655.58,-513.61"/>
<polygon fill="midnightblue" stroke="midnightblue" points="594.25,-581.77 586.91,-589.41 597.41,-588.01 594.25,-581.77"/>
</g>
<!-- Node120 -->
<g id="node6" class="node">
<title>Node120</title>
<g id="a_node6"><a xlink:href="classAmcCarrierDdrMem.html" target="_top" xlink:title=" ">
<polygon fill="white" stroke="black" points="347,-532.5 347,-551.5 460,-551.5 460,-532.5 347,-532.5"/>
<text text-anchor="middle" x="403.5" y="-539.5" font-family="Helvetica,sans-Serif" font-size="10.00">AmcCarrierDdrMem</text>
</a>
</g>
</g>
<!-- Node71 -->
<g id="node7" class="node">
<title>Node71</title>
<g id="a_node7"><a xlink:href="classAmcCarrierCore.html" target="_top" xlink:title=" ">
<polygon fill="white" stroke="black" points="502.5,-551.5 502.5,-570.5 596.5,-570.5 596.5,-551.5 502.5,-551.5"/>
<text text-anchor="middle" x="549.5" y="-558.5" font-family="Helvetica,sans-Serif" font-size="10.00">AmcCarrierCore</text>
</a>
</g>
</g>
<!-- Node120&#45;&gt;Node71 -->
<g id="edge5" class="edge">
<title>Node120&#45;&gt;Node71</title>
<path fill="none" stroke="midnightblue" d="M470.41,-550.7C481.19,-552.12 492.14,-553.56 502.31,-554.9"/>
<polygon fill="midnightblue" stroke="midnightblue" points="470.55,-547.18 460.17,-549.35 469.63,-554.12 470.55,-547.18"/>
</g>
<!-- Node72 -->
<g id="node8" class="node">
<title>Node72</title>
<g id="a_node8"><a xlink:href="classAmcCarrierFsbl.html" target="_top" xlink:title=" ">
<polygon fill="white" stroke="black" points="503.5,-494.5 503.5,-513.5 595.5,-513.5 595.5,-494.5 503.5,-494.5"/>
<text text-anchor="middle" x="549.5" y="-501.5" font-family="Helvetica,sans-Serif" font-size="10.00">AmcCarrierFsbl</text>
</a>
</g>
</g>
<!-- Node120&#45;&gt;Node72 -->
<g id="edge8" class="edge">
<title>Node120&#45;&gt;Node72</title>
<path fill="none" stroke="midnightblue" d="M450.67,-529.82C470.66,-524.54 493.72,-518.46 512.42,-513.52"/>
<polygon fill="midnightblue" stroke="midnightblue" points="449.61,-526.48 440.84,-532.41 451.4,-533.24 449.61,-526.48"/>
</g>
<!-- Node71&#45;&gt;Node3 -->
<g id="edge6" class="edge">
<title>Node71&#45;&gt;Node3</title>
<path fill="none" stroke="midnightblue" d="M607.04,-553.67C618.34,-552.2 630.19,-550.66 641.46,-549.2"/>
<polygon fill="midnightblue" stroke="midnightblue" points="606.32,-550.23 596.85,-554.99 607.22,-557.17 606.32,-550.23"/>
</g>
<!-- Node71&#45;&gt;Node4 -->
<g id="edge7" class="edge">
<title>Node71&#45;&gt;Node4</title>
<path fill="none" stroke="midnightblue" d="M607.08,-568.34C617.49,-569.69 628.38,-571.1 638.84,-572.46"/>
<polygon fill="midnightblue" stroke="midnightblue" points="607.22,-564.83 596.85,-567.01 606.32,-571.77 607.22,-564.83"/>
</g>
<!-- Node72&#45;&gt;Node5 -->
<g id="edge9" class="edge">
<title>Node72&#45;&gt;Node5</title>
<path fill="none" stroke="midnightblue" d="M605.94,-504C617.38,-504 629.42,-504 640.88,-504"/>
<polygon fill="midnightblue" stroke="midnightblue" points="605.65,-500.5 595.65,-504 605.65,-507.5 605.65,-500.5"/>
</g>
<!-- Node119 -->
<g id="node9" class="node">
<title>Node119</title>
<g id="a_node9"><a xlink:href="classAmcCarrierEthFsbl.html" target="_top" xlink:title=" ">
<polygon fill="white" stroke="black" points="350,-418.5 350,-437.5 457,-437.5 457,-418.5 350,-418.5"/>
<text text-anchor="middle" x="403.5" y="-425.5" font-family="Helvetica,sans-Serif" font-size="10.00">AmcCarrierEthFsbl</text>
</a>
</g>
</g>
<!-- Node119&#45;&gt;Node72 -->
<g id="edge10" class="edge">
<title>Node119&#45;&gt;Node72</title>
<path fill="none" stroke="midnightblue" d="M437.49,-441.47C444.97,-444.75 452.83,-448.36 460,-452 486.54,-465.47 516.11,-483.49 533.47,-494.4"/>
<polygon fill="midnightblue" stroke="midnightblue" points="438.86,-438.25 428.29,-437.53 436.1,-444.69 438.86,-438.25"/>
</g>
<!-- Node117 -->
<g id="node10" class="node">
<title>Node117</title>
<g id="a_node10"><a xlink:href="classAmcCarrierIbufGt.html" target="_top" xlink:title=" ">
<polygon fill="white" stroke="black" points="184.5,-475.5 184.5,-494.5 285.5,-494.5 285.5,-475.5 184.5,-475.5"/>
<text text-anchor="middle" x="235" y="-482.5" font-family="Helvetica,sans-Serif" font-size="10.00">AmcCarrierIbufGt</text>
</a>
</g>
</g>
<!-- Node117&#45;&gt;Node71 -->
<g id="edge11" class="edge">
<title>Node117&#45;&gt;Node71</title>
<path fill="none" stroke="midnightblue" d="M283.53,-498.07C293.16,-501.97 302.82,-506.88 311,-513 332.35,-528.97 323.15,-549.07 347,-561 399.1,-587.05 468.66,-579.21 510.94,-570.55"/>
<polygon fill="midnightblue" stroke="midnightblue" points="284.57,-494.72 273.98,-494.51 282.12,-501.28 284.57,-494.72"/>
</g>
<!-- Node117&#45;&gt;Node72 -->
<g id="edge12" class="edge">
<title>Node117&#45;&gt;Node72</title>
<path fill="none" stroke="midnightblue" d="M295.76,-481.58C340.99,-479.82 404.57,-479.12 460,-485 477.5,-486.86 496.63,-490.73 512.61,-494.49"/>
<polygon fill="midnightblue" stroke="midnightblue" points="295.38,-478.09 285.54,-482.01 295.68,-485.09 295.38,-478.09"/>
</g>
<!-- Node118 -->
<g id="node11" class="node">
<title>Node118</title>
<g id="a_node11"><a xlink:href="classAmcCarrierTiming.html" target="_top" xlink:title=" ">
<polygon fill="white" stroke="black" points="351,-494.5 351,-513.5 456,-513.5 456,-494.5 351,-494.5"/>
<text text-anchor="middle" x="403.5" y="-501.5" font-family="Helvetica,sans-Serif" font-size="10.00">AmcCarrierTiming</text>
</a>
</g>
</g>
<!-- Node117&#45;&gt;Node118 -->
<g id="edge13" class="edge">
<title>Node117&#45;&gt;Node118</title>
<path fill="none" stroke="midnightblue" d="M295.64,-491.81C313.7,-493.87 333.38,-496.11 350.87,-498.11"/>
<polygon fill="midnightblue" stroke="midnightblue" points="295.84,-488.31 285.5,-490.65 295.04,-495.26 295.84,-488.31"/>
</g>
<!-- Node85 -->
<g id="node12" class="node">
<title>Node85</title>
<g id="a_node12"><a xlink:href="classAppTopJesd.html" target="_top" xlink:title=" ">
<polygon fill="white" stroke="black" points="367.5,-304.5 367.5,-323.5 439.5,-323.5 439.5,-304.5 367.5,-304.5"/>
<text text-anchor="middle" x="403.5" y="-311.5" font-family="Helvetica,sans-Serif" font-size="10.00">AppTopJesd</text>
</a>
</g>
</g>
<!-- Node117&#45;&gt;Node85 -->
<g id="edge16" class="edge">
<title>Node117&#45;&gt;Node85</title>
<path fill="none" stroke="midnightblue" d="M247.35,-466.73C270.1,-430.62 321.28,-351.95 347,-333 353.07,-328.53 360.26,-325.06 367.43,-322.38"/>
<polygon fill="midnightblue" stroke="midnightblue" points="244.31,-464.99 241.97,-475.32 250.25,-468.7 244.31,-464.99"/>
</g>
<!-- Node118&#45;&gt;Node71 -->
<g id="edge14" class="edge">
<title>Node118&#45;&gt;Node71</title>
<path fill="none" stroke="midnightblue" d="M443.56,-516.96C449.1,-518.92 454.71,-520.96 460,-523 483.41,-532.02 509.77,-543.51 527.58,-551.49"/>
<polygon fill="midnightblue" stroke="midnightblue" points="444.34,-513.52 433.74,-513.55 442.04,-520.13 444.34,-513.52"/>
</g>
<!-- Node118&#45;&gt;Node72 -->
<g id="edge15" class="edge">
<title>Node118&#45;&gt;Node72</title>
<path fill="none" stroke="midnightblue" d="M466.41,-504C478.87,-504 491.73,-504 503.48,-504"/>
<polygon fill="midnightblue" stroke="midnightblue" points="466.08,-500.5 456.08,-504 466.08,-507.5 466.08,-500.5"/>
</g>
<!-- Node58 -->
<g id="node13" class="node">
<title>Node58</title>
<g id="a_node13"><a xlink:href="classAppTop.html" target="_top" xlink:title=" ">
<polygon fill="white" stroke="black" points="523.5,-152.5 523.5,-171.5 575.5,-171.5 575.5,-152.5 523.5,-152.5"/>
<text text-anchor="middle" x="549.5" y="-159.5" font-family="Helvetica,sans-Serif" font-size="10.00">AppTop</text>
</a>
</g>
</g>
<!-- Node85&#45;&gt;Node58 -->
<g id="edge17" class="edge">
<title>Node85&#45;&gt;Node58</title>
<path fill="none" stroke="midnightblue" d="M448.91,-303.25C452.99,-301 456.79,-298.29 460,-295 497.12,-256.98 459.21,-219.34 496,-181 503.25,-173.45 513.72,-168.88 523.41,-166.13"/>
<polygon fill="midnightblue" stroke="midnightblue" points="447.29,-300.14 439.63,-307.46 450.19,-306.52 447.29,-300.14"/>
</g>
<!-- Node113 -->
<g id="node14" class="node">
<title>Node113</title>
<g id="a_node14"><a xlink:href="classAmcCarrierRssiObFifo.html" target="_top" xlink:title=" ">
<polygon fill="white" stroke="black" points="0,-693.5 0,-712.5 123,-712.5 123,-693.5 0,-693.5"/>
<text text-anchor="middle" x="61.5" y="-700.5" font-family="Helvetica,sans-Serif" font-size="10.00">AmcCarrierRssiObFifo</text>
</a>
</g>
</g>
<!-- Node114 -->
<g id="node15" class="node">
<title>Node114</title>
<g id="a_node15"><a xlink:href="classAmcCarrierRssi.html" target="_top" xlink:title=" ">
<polygon fill="white" stroke="black" points="189,-674.5 189,-693.5 281,-693.5 281,-674.5 189,-674.5"/>
<text text-anchor="middle" x="235" y="-681.5" font-family="Helvetica,sans-Serif" font-size="10.00">AmcCarrierRssi</text>
</a>
</g>
</g>
<!-- Node113&#45;&gt;Node114 -->
<g id="edge18" class="edge">
<title>Node113&#45;&gt;Node114</title>
<path fill="none" stroke="midnightblue" d="M133.44,-695.14C152.19,-693.06 171.92,-690.88 188.88,-689"/>
<polygon fill="midnightblue" stroke="midnightblue" points="133,-691.67 123.45,-696.25 133.77,-698.63 133,-691.67"/>
</g>
<!-- Node116 -->
<g id="node17" class="node">
<title>Node116</title>
<g id="a_node17"><a xlink:href="classAmcCarrierRssiInterleave.html" target="_top" xlink:title=" ">
<polygon fill="white" stroke="black" points="164.5,-712.5 164.5,-731.5 305.5,-731.5 305.5,-712.5 164.5,-712.5"/>
<text text-anchor="middle" x="235" y="-719.5" font-family="Helvetica,sans-Serif" font-size="10.00">AmcCarrierRssiInterleave</text>
</a>
</g>
</g>
<!-- Node113&#45;&gt;Node116 -->
<g id="edge21" class="edge">
<title>Node113&#45;&gt;Node116</title>
<path fill="none" stroke="midnightblue" d="M133.55,-710.87C143.78,-712 154.29,-713.17 164.48,-714.3"/>
<polygon fill="midnightblue" stroke="midnightblue" points="133.77,-707.37 123.45,-709.75 133,-714.33 133.77,-707.37"/>
</g>
<!-- Node115 -->
<g id="node16" class="node">
<title>Node115</title>
<g id="a_node16"><a xlink:href="classAmcCarrierEth.html" target="_top" xlink:title=" ">
<polygon fill="white" stroke="black" points="360,-646.5 360,-665.5 447,-665.5 447,-646.5 360,-646.5"/>
<text text-anchor="middle" x="403.5" y="-653.5" font-family="Helvetica,sans-Serif" font-size="10.00">AmcCarrierEth</text>
</a>
</g>
</g>
<!-- Node114&#45;&gt;Node115 -->
<g id="edge19" class="edge">
<title>Node114&#45;&gt;Node115</title>
<path fill="none" stroke="midnightblue" d="M291.11,-674.73C313.54,-670.96 339.04,-666.67 359.99,-663.15"/>
<polygon fill="midnightblue" stroke="midnightblue" points="290.34,-671.31 281.06,-676.42 291.5,-678.22 290.34,-671.31"/>
</g>
<!-- Node115&#45;&gt;Node71 -->
<g id="edge20" class="edge">
<title>Node115&#45;&gt;Node71</title>
<path fill="none" stroke="midnightblue" d="M452.67,-641.93C455.25,-640.44 457.72,-638.81 460,-637 483.51,-618.42 472.65,-598.78 496,-580 500.76,-576.17 506.35,-573.08 512.09,-570.59"/>
<polygon fill="midnightblue" stroke="midnightblue" points="450.98,-638.86 443.56,-646.43 454.08,-645.14 450.98,-638.86"/>
</g>
<!-- Node116&#45;&gt;Node115 -->
<g id="edge22" class="edge">
<title>Node116&#45;&gt;Node115</title>
<path fill="none" stroke="midnightblue" d="M295.52,-709.37C300.86,-707.51 306.1,-705.4 311,-703 329.21,-694.1 329.17,-684.64 347,-675 353.81,-671.32 361.47,-668.15 368.87,-665.51"/>
<polygon fill="midnightblue" stroke="midnightblue" points="294.31,-706.08 285.85,-712.45 296.44,-712.75 294.31,-706.08"/>
</g>
<!-- Node111 -->
<g id="node18" class="node">
<title>Node111</title>
<g id="a_node18"><a xlink:href="classAmcCarrierSysMon.html" target="_top" xlink:title=" ">
<polygon fill="white" stroke="black" points="348.5,-722.5 348.5,-741.5 458.5,-741.5 458.5,-722.5 348.5,-722.5"/>
<text text-anchor="middle" x="403.5" y="-729.5" font-family="Helvetica,sans-Serif" font-size="10.00">AmcCarrierSysMon</text>
</a>
</g>
</g>
<!-- Node111&#45;&gt;Node112 -->
<g id="edge23" class="edge">
<title>Node111&#45;&gt;Node112</title>
<path fill="none" stroke="midnightblue" d="M451.38,-718.24C454.4,-716.67 457.31,-714.92 460,-713 500.78,-683.87 531.86,-630.68 543.5,-608.8"/>
<polygon fill="midnightblue" stroke="midnightblue" points="449.73,-715.15 442.09,-722.48 452.64,-721.52 449.73,-715.15"/>
</g>
<!-- Node94 -->
<g id="node19" class="node">
<title>Node94</title>
<g id="a_node19"><a xlink:href="classAppMpsClk.html" target="_top" xlink:title=" ">
<polygon fill="white" stroke="black" points="368,-380.5 368,-399.5 439,-399.5 439,-380.5 368,-380.5"/>
<text text-anchor="middle" x="403.5" y="-387.5" font-family="Helvetica,sans-Serif" font-size="10.00">AppMpsClk</text>
</a>
</g>
</g>
<!-- Node2 -->
<g id="node20" class="node">
<title>Node2</title>
<g id="a_node20"><a xlink:href="classAppMps.html" target="_top" xlink:title=" ">
<polygon fill="white" stroke="black" points="521.5,-418.5 521.5,-437.5 577.5,-437.5 577.5,-418.5 521.5,-418.5"/>
<text text-anchor="middle" x="549.5" y="-425.5" font-family="Helvetica,sans-Serif" font-size="10.00">AppMps</text>
</a>
</g>
</g>
<!-- Node94&#45;&gt;Node2 -->
<g id="edge24" class="edge">
<title>Node94&#45;&gt;Node2</title>
<path fill="none" stroke="midnightblue" d="M449.14,-401.78C472.7,-408 500.85,-415.43 521.17,-420.79"/>
<polygon fill="midnightblue" stroke="midnightblue" points="449.92,-398.37 439.36,-399.2 448.13,-405.13 449.92,-398.37"/>
</g>
<!-- Node2&#45;&gt;Node3 -->
<g id="edge25" class="edge">
<title>Node2&#45;&gt;Node3</title>
<path fill="none" stroke="midnightblue" d="M566.32,-445.2C591.18,-472.19 636.79,-521.59 639,-523 644.98,-526.82 651.81,-529.95 658.62,-532.47"/>
<polygon fill="midnightblue" stroke="midnightblue" points="568.7,-442.61 559.35,-437.62 563.55,-447.35 568.7,-442.61"/>
</g>
<!-- Node2&#45;&gt;Node4 -->
<g id="edge26" class="edge">
<title>Node2&#45;&gt;Node4</title>
<path fill="none" stroke="midnightblue" d="M568.54,-444.81C579.43,-455.59 593.07,-470.28 603,-485 623.9,-515.99 610.96,-536.29 639,-561 643.37,-564.85 648.54,-567.93 653.97,-570.38"/>
<polygon fill="midnightblue" stroke="midnightblue" points="570.81,-442.14 561.19,-437.71 565.95,-447.17 570.81,-442.14"/>
</g>
<!-- Node2&#45;&gt;Node5 -->
<g id="edge27" class="edge">
<title>Node2&#45;&gt;Node5</title>
<path fill="none" stroke="midnightblue" d="M577.98,-442.26C607.4,-457.52 653.25,-481.3 678.6,-494.45"/>
<polygon fill="midnightblue" stroke="midnightblue" points="579.54,-439.12 569.05,-437.63 576.32,-445.34 579.54,-439.12"/>
</g>
<!-- Node93 -->
<g id="node21" class="node">
<title>Node93</title>
<g id="a_node21"><a xlink:href="classAppMpsRegAppCh.html" target="_top" xlink:title=" ">
<polygon fill="white" stroke="black" points="8.5,-247.5 8.5,-266.5 114.5,-266.5 114.5,-247.5 8.5,-247.5"/>
<text text-anchor="middle" x="61.5" y="-254.5" font-family="Helvetica,sans-Serif" font-size="10.00">AppMpsRegAppCh</text>
</a>
</g>
</g>
<!-- Node92 -->
<g id="node22" class="node">
<title>Node92</title>
<g id="a_node22"><a xlink:href="classAppMpsReg.html" target="_top" xlink:title=" ">
<polygon fill="white" stroke="black" points="198,-228.5 198,-247.5 272,-247.5 272,-228.5 198,-228.5"/>
<text text-anchor="middle" x="235" y="-235.5" font-family="Helvetica,sans-Serif" font-size="10.00">AppMpsReg</text>
</a>
</g>
</g>
<!-- Node93&#45;&gt;Node92 -->
<g id="edge28" class="edge">
<title>Node93&#45;&gt;Node92</title>
<path fill="none" stroke="midnightblue" d="M124.86,-250.09C149.43,-247.37 176.78,-244.34 197.95,-241.99"/>
<polygon fill="midnightblue" stroke="midnightblue" points="124.44,-246.62 114.89,-251.2 125.21,-253.57 124.44,-246.62"/>
</g>
<!-- Node1 -->
<g id="node23" class="node">
<title>Node1</title>
<g id="a_node23"><a xlink:href="classAppMpsEncoder.html" target="_top" xlink:title=" ">
<polygon fill="white" stroke="black" points="356,-266.5 356,-285.5 451,-285.5 451,-266.5 356,-266.5"/>
<text text-anchor="middle" x="403.5" y="-273.5" font-family="Helvetica,sans-Serif" font-size="10.00">AppMpsEncoder</text>
</a>
</g>
</g>
<!-- Node92&#45;&gt;Node1 -->
<g id="edge29" class="edge">
<title>Node92&#45;&gt;Node1</title>
<path fill="none" stroke="midnightblue" d="M281.99,-248.5C306.68,-254.13 336.88,-261.02 360.87,-266.5"/>
<polygon fill="midnightblue" stroke="midnightblue" points="282.66,-245.06 272.13,-246.25 281.1,-251.88 282.66,-245.06"/>
</g>
<!-- Node1&#45;&gt;Node2 -->
<g id="edge30" class="edge">
<title>Node1&#45;&gt;Node2</title>
<path fill="none" stroke="midnightblue" d="M452.23,-289.91C454.96,-291.44 457.58,-293.13 460,-295 505.03,-329.71 534.69,-394.12 544.72,-418.4"/>
<polygon fill="midnightblue" stroke="midnightblue" points="453.72,-286.75 443.2,-285.55 450.68,-293.05 453.72,-286.75"/>
</g>
<!-- Node91 -->
<g id="node24" class="node">
<title>Node91</title>
<g id="a_node24"><a xlink:href="classAppMpsRegBase.html" target="_top" xlink:title=" ">
<polygon fill="white" stroke="black" points="12.5,-209.5 12.5,-228.5 110.5,-228.5 110.5,-209.5 12.5,-209.5"/>
<text text-anchor="middle" x="61.5" y="-216.5" font-family="Helvetica,sans-Serif" font-size="10.00">AppMpsRegBase</text>
</a>
</g>
</g>
<!-- Node91&#45;&gt;Node92 -->
<g id="edge31" class="edge">
<title>Node91&#45;&gt;Node92</title>
<path fill="none" stroke="midnightblue" d="M120.69,-225.45C146.25,-228.28 175.46,-231.51 197.82,-233.99"/>
<polygon fill="midnightblue" stroke="midnightblue" points="121.05,-221.97 110.73,-224.34 120.28,-228.92 121.05,-221.97"/>
</g>
<!-- Node90 -->
<g id="node25" class="node">
<title>Node90</title>
<g id="a_node25"><a xlink:href="classAppMpsSalt.html" target="_top" xlink:title=" ">
<polygon fill="white" stroke="black" points="366.5,-342.5 366.5,-361.5 440.5,-361.5 440.5,-342.5 366.5,-342.5"/>
<text text-anchor="middle" x="403.5" y="-349.5" font-family="Helvetica,sans-Serif" font-size="10.00">AppMpsSalt</text>
</a>
</g>
</g>
<!-- Node90&#45;&gt;Node2 -->
<g id="edge32" class="edge">
<title>Node90&#45;&gt;Node2</title>
<path fill="none" stroke="midnightblue" d="M446.31,-365.08C451,-366.91 455.65,-368.89 460,-371 488.62,-384.86 519.22,-406.21 535.89,-418.47"/>
<polygon fill="midnightblue" stroke="midnightblue" points="447.32,-361.73 436.73,-361.56 444.91,-368.3 447.32,-361.73"/>
</g>
<!-- Node89 -->
<g id="node26" class="node">
<title>Node89</title>
<g id="a_node26"><a xlink:href="classAppMpsSelect.html" target="_top" xlink:title=" ">
<polygon fill="white" stroke="black" points="192,-304.5 192,-323.5 278,-323.5 278,-304.5 192,-304.5"/>
<text text-anchor="middle" x="235" y="-311.5" font-family="Helvetica,sans-Serif" font-size="10.00">AppMpsSelect</text>
</a>
</g>
</g>
<!-- Node89&#45;&gt;Node1 -->
<g id="edge33" class="edge">
<title>Node89&#45;&gt;Node1</title>
<path fill="none" stroke="midnightblue" d="M287.81,-302.18C311.28,-296.82 338.67,-290.57 360.79,-285.52"/>
<polygon fill="midnightblue" stroke="midnightblue" points="286.99,-298.77 278.01,-304.41 288.54,-305.6 286.99,-298.77"/>
</g>
<!-- Node84 -->
<g id="node27" class="node">
<title>Node84</title>
<g id="a_node27"><a xlink:href="classAppTopJesd204b.html" target="_top" xlink:title=" ">
<polygon fill="white" stroke="black" points="187,-342.5 187,-361.5 283,-361.5 283,-342.5 187,-342.5"/>
<text text-anchor="middle" x="235" y="-349.5" font-family="Helvetica,sans-Serif" font-size="10.00">AppTopJesd204b</text>
</a>
</g>
</g>
<!-- Node84&#45;&gt;Node85 -->
<g id="edge34" class="edge">
<title>Node84&#45;&gt;Node85</title>
<path fill="none" stroke="midnightblue" d="M288.01,-340.13C313.78,-334.25 344.24,-327.3 367.25,-322.04"/>
<polygon fill="midnightblue" stroke="midnightblue" points="286.99,-336.77 278.01,-342.41 288.54,-343.6 286.99,-336.77"/>
</g>
<!-- Node76 -->
<g id="node28" class="node">
<title>Node76</title>
<g id="a_node28"><a xlink:href="classBldAxiStream.html" target="_top" xlink:title=" ">
<polygon fill="white" stroke="black" points="193.5,-598.5 193.5,-617.5 276.5,-617.5 276.5,-598.5 193.5,-598.5"/>
<text text-anchor="middle" x="235" y="-605.5" font-family="Helvetica,sans-Serif" font-size="10.00">BldAxiStream</text>
</a>
</g>
</g>
<!-- Node70 -->
<g id="node29" class="node">
<title>Node70</title>
<g id="a_node29"><a xlink:href="classAmcCarrierBsa.html" target="_top" xlink:title=" ">
<polygon fill="white" stroke="black" points="359,-608.5 359,-627.5 448,-627.5 448,-608.5 359,-608.5"/>
<text text-anchor="middle" x="403.5" y="-615.5" font-family="Helvetica,sans-Serif" font-size="10.00">AmcCarrierBsa</text>
</a>
</g>
</g>
<!-- Node76&#45;&gt;Node70 -->
<g id="edge35" class="edge">
<title>Node76&#45;&gt;Node70</title>
<path fill="none" stroke="midnightblue" d="M287,-611.06C310.02,-612.45 336.93,-614.06 358.99,-615.39"/>
<polygon fill="midnightblue" stroke="midnightblue" points="286.92,-607.55 276.73,-610.45 286.5,-614.54 286.92,-607.55"/>
</g>
<!-- Node70&#45;&gt;Node71 -->
<g id="edge36" class="edge">
<title>Node70&#45;&gt;Node71</title>
<path fill="none" stroke="midnightblue" d="M435.81,-604.57C453.42,-597.13 475.84,-587.83 496,-580 504.22,-576.81 513.23,-573.48 521.43,-570.52"/>
<polygon fill="midnightblue" stroke="midnightblue" points="434.41,-601.37 426.57,-608.5 437.14,-607.81 434.41,-601.37"/>
</g>
<!-- Node70&#45;&gt;Node72 -->
<g id="edge37" class="edge">
<title>Node70&#45;&gt;Node72</title>
<path fill="none" stroke="midnightblue" d="M423.19,-601.86C441.47,-586.21 470.25,-561.98 496,-542 508.8,-532.07 523.81,-521.29 534.5,-513.75"/>
<polygon fill="midnightblue" stroke="midnightblue" points="420.88,-599.22 415.57,-608.4 425.44,-604.54 420.88,-599.22"/>
</g>
<!-- Node74 -->
<g id="node30" class="node">
<title>Node74</title>
<g id="a_node30"><a xlink:href="classBsaAccumulator.html" target="_top" xlink:title=" ">
<polygon fill="white" stroke="black" points="13.5,-560.5 13.5,-579.5 109.5,-579.5 109.5,-560.5 13.5,-560.5"/>
<text text-anchor="middle" x="61.5" y="-567.5" font-family="Helvetica,sans-Serif" font-size="10.00">BsaAccumulator</text>
</a>
</g>
</g>
<!-- Node75 -->
<g id="node31" class="node">
<title>Node75</title>
<g id="a_node31"><a xlink:href="classBsaBufferControl.html" target="_top" xlink:title=" ">
<polygon fill="white" stroke="black" points="185.5,-560.5 185.5,-579.5 284.5,-579.5 284.5,-560.5 185.5,-560.5"/>
<text text-anchor="middle" x="235" y="-567.5" font-family="Helvetica,sans-Serif" font-size="10.00">BsaBufferControl</text>
</a>
</g>
</g>
<!-- Node74&#45;&gt;Node75 -->
<g id="edge38" class="edge">
<title>Node74&#45;&gt;Node75</title>
<path fill="none" stroke="midnightblue" d="M119.99,-570C141.2,-570 165,-570 185.35,-570"/>
<polygon fill="midnightblue" stroke="midnightblue" points="119.82,-566.5 109.82,-570 119.82,-573.5 119.82,-566.5"/>
</g>
<!-- Node75&#45;&gt;Node70 -->
<g id="edge39" class="edge">
<title>Node75&#45;&gt;Node70</title>
<path fill="none" stroke="midnightblue" d="M285.34,-582.06C293.92,-584.28 302.74,-586.65 311,-589 332.16,-595.03 355.82,-602.55 373.78,-608.42"/>
<polygon fill="midnightblue" stroke="midnightblue" points="285.99,-578.61 275.43,-579.53 284.25,-585.39 285.99,-578.61"/>
</g>
<!-- Node73 -->
<g id="node32" class="node">
<title>Node73</title>
<g id="a_node32"><a xlink:href="classBsaAxiInterconnectWrapper.html" target="_top" xlink:title=" ">
<polygon fill="white" stroke="black" points="159,-522.5 159,-541.5 311,-541.5 311,-522.5 159,-522.5"/>
<text text-anchor="middle" x="235" y="-529.5" font-family="Helvetica,sans-Serif" font-size="10.00">BsaAxiInterconnectWrapper</text>
</a>
</g>
</g>
<!-- Node73&#45;&gt;Node70 -->
<g id="edge40" class="edge">
<title>Node73&#45;&gt;Node70</title>
<path fill="none" stroke="midnightblue" d="M300.35,-545.35C304.06,-547.01 307.64,-548.89 311,-551 332.1,-564.26 327.02,-579.1 347,-594 354.91,-599.9 364.49,-604.7 373.46,-608.42"/>
<polygon fill="midnightblue" stroke="midnightblue" points="301.51,-542.04 290.92,-541.61 298.93,-548.55 301.51,-542.04"/>
</g>
<!-- Node69 -->
<g id="node33" class="node">
<title>Node69</title>
<g id="a_node33"><a xlink:href="classBsaWaveformEngine.html" target="_top" xlink:title=" ">
<polygon fill="white" stroke="black" points="176,-636.5 176,-655.5 294,-655.5 294,-636.5 176,-636.5"/>
<text text-anchor="middle" x="235" y="-643.5" font-family="Helvetica,sans-Serif" font-size="10.00">BsaWaveformEngine</text>
</a>
</g>
</g>
<!-- Node69&#45;&gt;Node70 -->
<g id="edge41" class="edge">
<title>Node69&#45;&gt;Node70</title>
<path fill="none" stroke="midnightblue" d="M302.85,-634.76C321.69,-631.59 341.69,-628.23 358.8,-625.35"/>
<polygon fill="midnightblue" stroke="midnightblue" points="302.12,-631.33 292.83,-636.44 303.28,-638.24 302.12,-631.33"/>
</g>
<!-- Node68 -->
<g id="node34" class="node">
<title>Node68</title>
<g id="a_node34"><a xlink:href="classDacSigGenLane.html" target="_top" xlink:title=" ">
<polygon fill="white" stroke="black" points="188.5,-152.5 188.5,-171.5 281.5,-171.5 281.5,-152.5 188.5,-152.5"/>
<text text-anchor="middle" x="235" y="-159.5" font-family="Helvetica,sans-Serif" font-size="10.00">DacSigGenLane</text>
</a>
</g>
</g>
<!-- Node66 -->
<g id="node35" class="node">
<title>Node66</title>
<g id="a_node35"><a xlink:href="classDacSigGen.html" target="_top" xlink:title=" ">
<polygon fill="white" stroke="black" points="368.5,-171.5 368.5,-190.5 438.5,-190.5 438.5,-171.5 368.5,-171.5"/>
<text text-anchor="middle" x="403.5" y="-178.5" font-family="Helvetica,sans-Serif" font-size="10.00">DacSigGen</text>
</a>
</g>
</g>
<!-- Node68&#45;&gt;Node66 -->
<g id="edge42" class="edge">
<title>Node68&#45;&gt;Node66</title>
<path fill="none" stroke="midnightblue" d="M292.14,-168.41C317.4,-171.29 346.4,-174.6 368.33,-177.1"/>
<polygon fill="midnightblue" stroke="midnightblue" points="292.27,-164.9 281.94,-167.24 291.48,-171.85 292.27,-164.9"/>
</g>
<!-- Node66&#45;&gt;Node58 -->
<g id="edge43" class="edge">
<title>Node66&#45;&gt;Node58</title>
<path fill="none" stroke="midnightblue" d="M448.75,-175.16C473.17,-171.94 502.63,-168.05 523.18,-165.34"/>
<polygon fill="midnightblue" stroke="midnightblue" points="448.08,-171.72 438.63,-176.5 449,-178.66 448.08,-171.72"/>
</g>
<!-- Node67 -->
<g id="node36" class="node">
<title>Node67</title>
<g id="a_node36"><a xlink:href="classDacSigGenTb.html" target="_top" xlink:title=" ">
<polygon fill="white" stroke="black" points="508.5,-190.5 508.5,-209.5 590.5,-209.5 590.5,-190.5 508.5,-190.5"/>
<text text-anchor="middle" x="549.5" y="-197.5" font-family="Helvetica,sans-Serif" font-size="10.00">DacSigGenTb</text>
</a>
</g>
</g>
<!-- Node66&#45;&gt;Node67 -->
<g id="edge44" class="edge">
<title>Node66&#45;&gt;Node67</title>
<path fill="none" stroke="midnightblue" d="M448.58,-186.82C467.68,-189.34 489.87,-192.26 508.49,-194.72"/>
<polygon fill="midnightblue" stroke="midnightblue" points="449,-183.34 438.63,-185.5 448.08,-190.28 449,-183.34"/>
</g>
<!-- Node65 -->
<g id="node37" class="node">
<title>Node65</title>
<g id="a_node37"><a xlink:href="classDacSigGenReg.html" target="_top" xlink:title=" ">
<polygon fill="white" stroke="black" points="190.5,-190.5 190.5,-209.5 279.5,-209.5 279.5,-190.5 190.5,-190.5"/>
<text text-anchor="middle" x="235" y="-197.5" font-family="Helvetica,sans-Serif" font-size="10.00">DacSigGenReg</text>
</a>
</g>
</g>
<!-- Node65&#45;&gt;Node66 -->
<g id="edge45" class="edge">
<title>Node65&#45;&gt;Node66</title>
<path fill="none" stroke="midnightblue" d="M289.75,-193.87C315.52,-190.93 345.62,-187.49 368.24,-184.91"/>
<polygon fill="midnightblue" stroke="midnightblue" points="289.28,-190.4 279.75,-195.01 290.08,-197.35 289.28,-190.4"/>
</g>
<!-- Node63 -->
<g id="node38" class="node">
<title>Node63</title>
<g id="a_node38"><a xlink:href="classDaqDecimator.html" target="_top" xlink:title=" ">
<polygon fill="white" stroke="black" points="18,-0.5 18,-19.5 105,-19.5 105,-0.5 18,-0.5"/>
<text text-anchor="middle" x="61.5" y="-7.5" font-family="Helvetica,sans-Serif" font-size="10.00">DaqDecimator</text>
</a>
</g>
</g>
<!-- Node64 -->
<g id="node39" class="node">
<title>Node64</title>
<g id="a_node39"><a xlink:href="classDaqDecimatorTb.html" target="_top" xlink:title=" ">
<polygon fill="white" stroke="black" points="185.5,-0.5 185.5,-19.5 284.5,-19.5 284.5,-0.5 185.5,-0.5"/>
<text text-anchor="middle" x="235" y="-7.5" font-family="Helvetica,sans-Serif" font-size="10.00">DaqDecimatorTb</text>
</a>
</g>
</g>
<!-- Node63&#45;&gt;Node64 -->
<g id="edge46" class="edge">
<title>Node63&#45;&gt;Node64</title>
<path fill="none" stroke="midnightblue" d="M115.62,-10C137.88,-10 163.59,-10 185.35,-10"/>
<polygon fill="midnightblue" stroke="midnightblue" points="115.33,-6.5 105.33,-10 115.33,-13.5 115.33,-6.5"/>
</g>
<!-- Node61 -->
<g id="node40" class="node">
<title>Node61</title>
<g id="a_node40"><a xlink:href="classDaqLane.html" target="_top" xlink:title=" ">
<polygon fill="white" stroke="black" points="205.5,-38.5 205.5,-57.5 264.5,-57.5 264.5,-38.5 205.5,-38.5"/>
<text text-anchor="middle" x="235" y="-45.5" font-family="Helvetica,sans-Serif" font-size="10.00">DaqLane</text>
</a>
</g>
</g>
<!-- Node63&#45;&gt;Node61 -->
<g id="edge47" class="edge">
<title>Node63&#45;&gt;Node61</title>
<path fill="none" stroke="midnightblue" d="M115.15,-21.67C144.87,-28.25 180.86,-36.23 205.39,-41.66"/>
<polygon fill="midnightblue" stroke="midnightblue" points="115.85,-18.24 105.33,-19.49 114.34,-25.07 115.85,-18.24"/>
</g>
<!-- Node57 -->
<g id="node41" class="node">
<title>Node57</title>
<g id="a_node41"><a xlink:href="classDaqMuxV2.html" target="_top" xlink:title=" ">
<polygon fill="white" stroke="black" points="368.5,-95.5 368.5,-114.5 438.5,-114.5 438.5,-95.5 368.5,-95.5"/>
<text text-anchor="middle" x="403.5" y="-102.5" font-family="Helvetica,sans-Serif" font-size="10.00">DaqMuxV2</text>
</a>
</g>
</g>
<!-- Node61&#45;&gt;Node57 -->
<g id="edge48" class="edge">
<title>Node61&#45;&gt;Node57</title>
<path fill="none" stroke="midnightblue" d="M274.75,-56.67C286.5,-59.61 299.37,-63.13 311,-67 335.81,-75.25 363.42,-87.1 381.75,-95.36"/>
<polygon fill="midnightblue" stroke="midnightblue" points="275.32,-53.21 264.77,-54.25 273.67,-60.01 275.32,-53.21"/>
</g>
<!-- Node57&#45;&gt;Node58 -->
<g id="edge49" class="edge">
<title>Node57&#45;&gt;Node58</title>
<path fill="none" stroke="midnightblue" d="M438.2,-118.34C464.61,-128.8 500.72,-143.09 524.32,-152.43"/>
<polygon fill="midnightblue" stroke="midnightblue" points="439.19,-114.97 428.6,-114.54 436.61,-121.48 439.19,-114.97"/>
</g>
<!-- Node59 -->
<g id="node42" class="node">
<title>Node59</title>
<g id="a_node42"><a xlink:href="classDaqMuxV2Tb.html" target="_top" xlink:title=" ">
<polygon fill="white" stroke="black" points="508.5,-95.5 508.5,-114.5 590.5,-114.5 590.5,-95.5 508.5,-95.5"/>
<text text-anchor="middle" x="549.5" y="-102.5" font-family="Helvetica,sans-Serif" font-size="10.00">DaqMuxV2Tb</text>
</a>
</g>
</g>
<!-- Node57&#45;&gt;Node59 -->
<g id="edge50" class="edge">
<title>Node57&#45;&gt;Node59</title>
<path fill="none" stroke="midnightblue" d="M448.85,-105C467.88,-105 489.96,-105 508.49,-105"/>
<polygon fill="midnightblue" stroke="midnightblue" points="448.63,-101.5 438.63,-105 448.63,-108.5 448.63,-101.5"/>
</g>
<!-- Node62 -->
<g id="node43" class="node">
<title>Node62</title>
<g id="a_node43"><a xlink:href="classDaqRegItf.html" target="_top" xlink:title=" ">
<polygon fill="white" stroke="black" points="202.5,-114.5 202.5,-133.5 267.5,-133.5 267.5,-114.5 202.5,-114.5"/>
<text text-anchor="middle" x="235" y="-121.5" font-family="Helvetica,sans-Serif" font-size="10.00">DaqRegItf</text>
</a>
</g>
</g>
<!-- Node62&#45;&gt;Node57 -->
<g id="edge51" class="edge">
<title>Node62&#45;&gt;Node57</title>
<path fill="none" stroke="midnightblue" d="M277.97,-119.21C305.91,-116.02 342.15,-111.89 368.33,-108.9"/>
<polygon fill="midnightblue" stroke="midnightblue" points="277.25,-115.77 267.71,-120.38 278.04,-122.73 277.25,-115.77"/>
</g>
<!-- Node60 -->
<g id="node44" class="node">
<title>Node60</title>
<g id="a_node44"><a xlink:href="classDaqTestSig.html" target="_top" xlink:title=" ">
<polygon fill="white" stroke="black" points="26,-38.5 26,-57.5 97,-57.5 97,-38.5 26,-38.5"/>
<text text-anchor="middle" x="61.5" y="-45.5" font-family="Helvetica,sans-Serif" font-size="10.00">DaqTestSig</text>
</a>
</g>
</g>
<!-- Node60&#45;&gt;Node61 -->
<g id="edge52" class="edge">
<title>Node60&#45;&gt;Node61</title>
<path fill="none" stroke="midnightblue" d="M107.32,-48C138.3,-48 178.58,-48 205.32,-48"/>
<polygon fill="midnightblue" stroke="midnightblue" points="107.21,-44.5 97.21,-48 107.21,-51.5 107.21,-44.5"/>
</g>
<!-- Node56 -->
<g id="node45" class="node">
<title>Node56</title>
<g id="a_node45"><a xlink:href="classDaqTrigger.html" target="_top" xlink:title=" ">
<polygon fill="white" stroke="black" points="200.5,-76.5 200.5,-95.5 269.5,-95.5 269.5,-76.5 200.5,-76.5"/>
<text text-anchor="middle" x="235" y="-83.5" font-family="Helvetica,sans-Serif" font-size="10.00">DaqTrigger</text>
</a>
</g>
</g>
<!-- Node56&#45;&gt;Node57 -->
<g id="edge53" class="edge">
<title>Node56&#45;&gt;Node57</title>
<path fill="none" stroke="midnightblue" d="M279.89,-91.01C307.53,-94.16 342.71,-98.18 368.28,-101.1"/>
<polygon fill="midnightblue" stroke="midnightblue" points="280.03,-87.5 269.69,-89.84 279.23,-94.46 280.03,-87.5"/>
</g>
<!-- Node0 -->
<g id="node46" class="node">
<title>Node0</title>
<g id="a_node46"><a xlink:href="classMpsMsgCore.html" target="_top" xlink:title=" ">
<polygon fill="white" stroke="black" points="195,-266.5 195,-285.5 275,-285.5 275,-266.5 195,-266.5"/>
<text text-anchor="middle" x="235" y="-273.5" font-family="Helvetica,sans-Serif" font-size="10.00">MpsMsgCore</text>
</a>
</g>
</g>
<!-- Node0&#45;&gt;Node1 -->
<g id="edge54" class="edge">
<title>Node0&#45;&gt;Node1</title>
<path fill="none" stroke="midnightblue" d="M285.29,-276C307.56,-276 333.75,-276 355.71,-276"/>
<polygon fill="midnightblue" stroke="midnightblue" points="285.04,-272.5 275.04,-276 285.04,-279.5 285.04,-272.5"/>
</g>
</g>
</svg>
