<?xml version="1.0" encoding="UTF-8" standalone="no"?>
<!DOCTYPE svg PUBLIC "-//W3C//DTD SVG 1.1//EN"
 "http://www.w3.org/Graphics/SVG/1.1/DTD/svg11.dtd">
<!-- Generated by graphviz version 2.43.0 (0)
 -->
<!-- Title: Graphical Class Hierarchy Pages: 1 -->
<svg width="449pt" height="175pt"
 viewBox="0.00 0.00 449.00 175.00" xmlns="http://www.w3.org/2000/svg" xmlns:xlink="http://www.w3.org/1999/xlink">
<g id="graph0" class="graph" transform="scale(1 1) rotate(0) translate(4 171)">
<title>Graphical Class Hierarchy</title>
<!-- Node0 -->
<g id="Node000000" class="node">
<title>Node0</title>
<g id="a_Node000000"><a xlink:href="classAmcMpsSfpHsRepeater.html" target="_top" xlink:title=" ">
<polygon fill="white" stroke="#666666" points="131,-130 0,-130 0,-111 131,-111 131,-130"/>
<text text-anchor="middle" x="65.5" y="-118" font-family="Helvetica,sans-Serif" font-size="10.00">AmcMpsSfpHsRepeater</text>
</a>
</g>
</g>
<!-- Node1 -->
<g id="Node000001" class="node">
<title>Node1</title>
<g id="a_Node000001"><a xlink:href="classAmcMpsSfpCore.html" target="_top" xlink:title=" ">
<polygon fill="white" stroke="#666666" points="275,-130 178,-130 178,-111 275,-111 275,-130"/>
<text text-anchor="middle" x="226.5" y="-118" font-family="Helvetica,sans-Serif" font-size="10.00">AmcMpsSfpCore</text>
</a>
</g>
</g>
<!-- Node0&#45;&gt;Node1 -->
<g id="edge117_Node000000_Node000001" class="edge">
<title>Node0&#45;&gt;Node1</title>
<g id="a_edge117_Node000000_Node000001"><a xlink:title=" ">
<path fill="none" stroke="#63b8ff" d="M141.53,-120.5C153.93,-120.5 166.48,-120.5 177.96,-120.5"/>
<polygon fill="#63b8ff" stroke="#63b8ff" points="141.17,-117 131.17,-120.5 141.17,-124 141.17,-117"/>
</a>
</g>
</g>
<!-- Node2 -->
<g id="Node000002" class="node">
<title>Node2</title>
<g id="a_Node000002"><a xlink:href="classAmcMpsSfpDualCore.html" target="_top" xlink:title=" ">
<polygon fill="white" stroke="#666666" points="441,-130 322,-130 322,-111 441,-111 441,-130"/>
<text text-anchor="middle" x="381.5" y="-118" font-family="Helvetica,sans-Serif" font-size="10.00">AmcMpsSfpDualCore</text>
</a>
</g>
</g>
<!-- Node1&#45;&gt;Node2 -->
<g id="edge118_Node000001_Node000002" class="edge">
<title>Node1&#45;&gt;Node2</title>
<g id="a_edge118_Node000001_Node000002"><a xlink:title=" ">
<path fill="none" stroke="#63b8ff" d="M285.38,-120.5C297.33,-120.5 309.93,-120.5 321.91,-120.5"/>
<polygon fill="#63b8ff" stroke="#63b8ff" points="285.07,-117 275.07,-120.5 285.07,-124 285.07,-117"/>
</a>
</g>
</g>
<!-- Node3 -->
<g id="Node000003" class="node">
<title>Node3</title>
<g id="a_Node000003"><a xlink:href="classAmcMpsSfpMon.html" target="_top" xlink:title=" ">
<polygon fill="white" stroke="#666666" points="113,-167 18,-167 18,-148 113,-148 113,-167"/>
<text text-anchor="middle" x="65.5" y="-155" font-family="Helvetica,sans-Serif" font-size="10.00">AmcMpsSfpMon</text>
</a>
</g>
</g>
<!-- Node3&#45;&gt;Node1 -->
<g id="edge119_Node000003_Node000001" class="edge">
<title>Node3&#45;&gt;Node1</title>
<g id="a_edge119_Node000003_Node000001"><a xlink:title=" ">
<path fill="none" stroke="#63b8ff" d="M117.45,-145.64C139.09,-140.61 163.98,-134.82 184.42,-130.06"/>
<polygon fill="#63b8ff" stroke="#63b8ff" points="116.39,-142.3 107.45,-147.97 117.98,-149.11 116.39,-142.3"/>
</a>
</g>
</g>
<!-- Node6 -->
<g id="Node000006" class="node">
<title>Node6</title>
<g id="a_Node000006"><a xlink:href="classRtmDigitalDebugDin.html" target="_top" xlink:title=" ">
<polygon fill="white" stroke="#666666" points="124,-19 7,-19 7,0 124,0 124,-19"/>
<text text-anchor="middle" x="65.5" y="-7" font-family="Helvetica,sans-Serif" font-size="10.00">RtmDigitalDebugDin</text>
</a>
</g>
</g>
<!-- Node5 -->
<g id="Node000005" class="node">
<title>Node5</title>
<g id="a_Node000005"><a xlink:href="classRtmDigitalDebugV2.html" target="_top" xlink:title=" ">
<polygon fill="white" stroke="#666666" points="283,-56 170,-56 170,-37 283,-37 283,-56"/>
<text text-anchor="middle" x="226.5" y="-44" font-family="Helvetica,sans-Serif" font-size="10.00">RtmDigitalDebugV2</text>
</a>
</g>
</g>
<!-- Node6&#45;&gt;Node5 -->
<g id="edge120_Node000006_Node000005" class="edge">
<title>Node6&#45;&gt;Node5</title>
<g id="a_edge120_Node000006_Node000005"><a xlink:title=" ">
<path fill="none" stroke="#63b8ff" d="M117.45,-21.36C139.09,-26.39 163.98,-32.18 184.42,-36.94"/>
<polygon fill="#63b8ff" stroke="#63b8ff" points="117.98,-17.89 107.45,-19.03 116.39,-24.7 117.98,-17.89"/>
</a>
</g>
</g>
<!-- Node7 -->
<g id="Node000007" class="node">
<title>Node7</title>
<g id="a_Node000007"><a xlink:href="classRtmDigitalDebugV2b.html" target="_top" xlink:title=" ">
<polygon fill="white" stroke="#666666" points="286,-19 167,-19 167,0 286,0 286,-19"/>
<text text-anchor="middle" x="226.5" y="-7" font-family="Helvetica,sans-Serif" font-size="10.00">RtmDigitalDebugV2b</text>
</a>
</g>
</g>
<!-- Node6&#45;&gt;Node7 -->
<g id="edge121_Node000006_Node000007" class="edge">
<title>Node6&#45;&gt;Node7</title>
<g id="a_edge121_Node000006_Node000007"><a xlink:title=" ">
<path fill="none" stroke="#63b8ff" d="M134.56,-9.5C145.32,-9.5 156.37,-9.5 166.89,-9.5"/>
<polygon fill="#63b8ff" stroke="#63b8ff" points="134.35,-6 124.35,-9.5 134.35,-13 134.35,-6"/>
</a>
</g>
</g>
<!-- Node8 -->
<g id="Node000008" class="node">
<title>Node8</title>
<g id="a_Node000008"><a xlink:href="classRtmDigitalDebugDout.html" target="_top" xlink:title=" ">
<polygon fill="white" stroke="#666666" points="127.5,-56 3.5,-56 3.5,-37 127.5,-37 127.5,-56"/>
<text text-anchor="middle" x="65.5" y="-44" font-family="Helvetica,sans-Serif" font-size="10.00">RtmDigitalDebugDout</text>
</a>
</g>
</g>
<!-- Node8&#45;&gt;Node5 -->
<g id="edge122_Node000008_Node000005" class="edge">
<title>Node8&#45;&gt;Node5</title>
<g id="a_edge122_Node000008_Node000005"><a xlink:title=" ">
<path fill="none" stroke="#63b8ff" d="M137.75,-46.5C148.52,-46.5 159.48,-46.5 169.85,-46.5"/>
<polygon fill="#63b8ff" stroke="#63b8ff" points="137.52,-43 127.52,-46.5 137.52,-50 137.52,-43"/>
</a>
</g>
</g>
<!-- Node8&#45;&gt;Node7 -->
<g id="edge123_Node000008_Node000007" class="edge">
<title>Node8&#45;&gt;Node7</title>
<g id="a_edge123_Node000008_Node000007"><a xlink:title=" ">
<path fill="none" stroke="#63b8ff" d="M117.45,-34.64C139.09,-29.61 163.98,-23.82 184.42,-19.06"/>
<polygon fill="#63b8ff" stroke="#63b8ff" points="116.39,-31.3 107.45,-36.97 117.98,-38.11 116.39,-31.3"/>
</a>
</g>
</g>
<!-- Node4 -->
<g id="Node000004" class="node">
<title>Node4</title>
<g id="a_Node000004"><a xlink:href="classSi5317a.html" target="_top" xlink:title=" ">
<polygon fill="white" stroke="#666666" points="93.5,-93 37.5,-93 37.5,-74 93.5,-74 93.5,-93"/>
<text text-anchor="middle" x="65.5" y="-81" font-family="Helvetica,sans-Serif" font-size="10.00">Si5317a</text>
</a>
</g>
</g>
<!-- Node4&#45;&gt;Node1 -->
<g id="edge124_Node000004_Node000001" class="edge">
<title>Node4&#45;&gt;Node1</title>
<g id="a_edge124_Node000004_Node000001"><a xlink:title=" ">
<path fill="none" stroke="#63b8ff" d="M103.72,-92.16C127.95,-97.8 159.57,-105.16 184.52,-110.96"/>
<polygon fill="#63b8ff" stroke="#63b8ff" points="104.37,-88.72 93.83,-89.86 102.78,-95.54 104.37,-88.72"/>
</a>
</g>
</g>
<!-- Node4&#45;&gt;Node5 -->
<g id="edge125_Node000004_Node000005" class="edge">
<title>Node4&#45;&gt;Node5</title>
<g id="a_edge125_Node000004_Node000005"><a xlink:title=" ">
<path fill="none" stroke="#63b8ff" d="M103.72,-74.84C127.95,-69.2 159.57,-61.84 184.52,-56.04"/>
<polygon fill="#63b8ff" stroke="#63b8ff" points="102.78,-71.46 93.83,-77.14 104.37,-78.28 102.78,-71.46"/>
</a>
</g>
</g>
</g>
</svg>
