<?xml version="1.0" encoding="UTF-8" standalone="no"?>
<!DOCTYPE svg PUBLIC "-//W3C//DTD SVG 1.1//EN"
 "http://www.w3.org/Graphics/SVG/1.1/DTD/svg11.dtd">
<!-- Generated by graphviz version 2.43.0 (0)
 -->
<!-- Title: Graphical Class Hierarchy Pages: 1 -->
<svg width="515pt" height="104pt"
 viewBox="0.00 0.00 515.00 104.00" xmlns="http://www.w3.org/2000/svg" xmlns:xlink="http://www.w3.org/1999/xlink">
<g id="graph0" class="graph" transform="scale(1 1) rotate(0) translate(4 100)">
<title>Graphical Class Hierarchy</title>
<polygon fill="white" stroke="transparent" points="-4,4 -4,-100 511,-100 511,4 -4,4"/>
<!-- Node23 -->
<g id="node1" class="node">
<title>Node23</title>
<g id="a_node1"><a xlink:href="classRtmCryoDacLut.html" target="_top" xlink:title=" ">
<polygon fill="white" stroke="black" points="152.5,-76.5 152.5,-95.5 245.5,-95.5 245.5,-76.5 152.5,-76.5"/>
<text text-anchor="middle" x="199" y="-83.5" font-family="Helvetica,sans-Serif" font-size="10.00">RtmCryoDacLut</text>
</a>
</g>
</g>
<!-- Node1 -->
<g id="node2" class="node">
<title>Node1</title>
<g id="a_node2"><a xlink:href="classRtmCryoDet.html" target="_top" xlink:title=" ">
<polygon fill="white" stroke="black" points="289,-38.5 289,-57.5 366,-57.5 366,-38.5 289,-38.5"/>
<text text-anchor="middle" x="327.5" y="-45.5" font-family="Helvetica,sans-Serif" font-size="10.00">RtmCryoDet</text>
</a>
</g>
</g>
<!-- Node23&#45;&gt;Node1 -->
<g id="edge1" class="edge">
<title>Node23&#45;&gt;Node1</title>
<path fill="none" stroke="midnightblue" d="M241.73,-73.46C258.94,-68.3 278.56,-62.4 294.59,-57.59"/>
<polygon fill="midnightblue" stroke="midnightblue" points="240.49,-70.18 231.92,-76.41 242.51,-76.89 240.49,-70.18"/>
</g>
<!-- Node2 -->
<g id="node3" class="node">
<title>Node2</title>
<g id="a_node3"><a xlink:href="classRtmCryoDacLutTb.html" target="_top" xlink:title=" ">
<polygon fill="white" stroke="black" points="402,-38.5 402,-57.5 507,-57.5 507,-38.5 402,-38.5"/>
<text text-anchor="middle" x="454.5" y="-45.5" font-family="Helvetica,sans-Serif" font-size="10.00">RtmCryoDacLutTb</text>
</a>
</g>
</g>
<!-- Node1&#45;&gt;Node2 -->
<g id="edge2" class="edge">
<title>Node1&#45;&gt;Node2</title>
<path fill="none" stroke="midnightblue" d="M376.01,-48C384.41,-48 393.19,-48 401.69,-48"/>
<polygon fill="midnightblue" stroke="midnightblue" points="376,-44.5 366,-48 376,-51.5 376,-44.5"/>
</g>
<!-- Node21 -->
<g id="node4" class="node">
<title>Node21</title>
<g id="a_node4"><a xlink:href="classRtmCryoDetClkDiv.html" target="_top" xlink:title=" ">
<polygon fill="white" stroke="black" points="0,-38.5 0,-57.5 109,-57.5 109,-38.5 0,-38.5"/>
<text text-anchor="middle" x="54.5" y="-45.5" font-family="Helvetica,sans-Serif" font-size="10.00">RtmCryoDetClkDiv</text>
</a>
</g>
</g>
<!-- Node22 -->
<g id="node5" class="node">
<title>Node22</title>
<g id="a_node5"><a xlink:href="classRtmCryoDetReg.html" target="_top" xlink:title=" ">
<polygon fill="white" stroke="black" points="151.5,-38.5 151.5,-57.5 246.5,-57.5 246.5,-38.5 151.5,-38.5"/>
<text text-anchor="middle" x="199" y="-45.5" font-family="Helvetica,sans-Serif" font-size="10.00">RtmCryoDetReg</text>
</a>
</g>
</g>
<!-- Node21&#45;&gt;Node22 -->
<g id="edge3" class="edge">
<title>Node21&#45;&gt;Node22</title>
<path fill="none" stroke="midnightblue" d="M119.47,-48C130.1,-48 140.95,-48 151.05,-48"/>
<polygon fill="midnightblue" stroke="midnightblue" points="119.37,-44.5 109.37,-48 119.37,-51.5 119.37,-44.5"/>
</g>
<!-- Node22&#45;&gt;Node1 -->
<g id="edge4" class="edge">
<title>Node22&#45;&gt;Node1</title>
<path fill="none" stroke="midnightblue" d="M256.92,-48C267.66,-48 278.65,-48 288.62,-48"/>
<polygon fill="midnightblue" stroke="midnightblue" points="256.74,-44.5 246.74,-48 256.74,-51.5 256.74,-44.5"/>
</g>
<!-- Node0 -->
<g id="node6" class="node">
<title>Node0</title>
<g id="a_node6"><a xlink:href="classRtmCryoSpiMaster.html" target="_top" xlink:title=" ">
<polygon fill="white" stroke="black" points="145,-0.5 145,-19.5 253,-19.5 253,-0.5 145,-0.5"/>
<text text-anchor="middle" x="199" y="-7.5" font-family="Helvetica,sans-Serif" font-size="10.00">RtmCryoSpiMaster</text>
</a>
</g>
</g>
<!-- Node0&#45;&gt;Node1 -->
<g id="edge5" class="edge">
<title>Node0&#45;&gt;Node1</title>
<path fill="none" stroke="midnightblue" d="M241.73,-22.54C258.94,-27.7 278.56,-33.6 294.59,-38.41"/>
<polygon fill="midnightblue" stroke="midnightblue" points="242.51,-19.11 231.92,-19.59 240.49,-25.82 242.51,-19.11"/>
</g>
</g>
</svg>
