<?xml version="1.0" encoding="UTF-8" standalone="no"?>
<!DOCTYPE svg PUBLIC "-//W3C//DTD SVG 1.1//EN"
 "http://www.w3.org/Graphics/SVG/1.1/DTD/svg11.dtd">
<!-- Generated by graphviz version 2.43.0 (0)
 -->
<!-- Title: Graphical Class Hierarchy Pages: 1 -->
<svg width="1021pt" height="734pt"
 viewBox="0.00 0.00 1021.00 734.00" xmlns="http://www.w3.org/2000/svg" xmlns:xlink="http://www.w3.org/1999/xlink">
<g id="graph0" class="graph" transform="scale(1 1) rotate(0) translate(4 730)">
<title>Graphical Class Hierarchy</title>
<!-- Node0 -->
<g id="Node000000" class="node">
<title>Node0</title>
<g id="a_Node000000"><a xlink:href="classAmcCarrierBsi.html" target="_top" xlink:title=" ">
<polygon fill="white" stroke="#666666" points="702.5,-689 616.5,-689 616.5,-670 702.5,-670 702.5,-689"/>
<text text-anchor="middle" x="659.5" y="-677" font-family="Helvetica,sans-Serif" font-size="10.00">AmcCarrierBsi</text>
</a>
</g>
</g>
<!-- Node1 -->
<g id="Node000001" class="node">
<title>Node1</title>
<g id="a_Node000001"><a xlink:href="classAmcCarrierSysReg.html" target="_top" xlink:title=" ">
<polygon fill="white" stroke="#666666" points="859,-595 752,-595 752,-576 859,-576 859,-595"/>
<text text-anchor="middle" x="805.5" y="-583" font-family="Helvetica,sans-Serif" font-size="10.00">AmcCarrierSysReg</text>
</a>
</g>
</g>
<!-- Node0&#45;&gt;Node1 -->
<g id="edge53_Node000000_Node000001" class="edge">
<title>Node0&#45;&gt;Node1</title>
<g id="a_edge53_Node000000_Node000001"><a xlink:title=" ">
<path fill="none" stroke="#63b8ff" d="M706.39,-666.24C709.71,-664.79 712.95,-663.21 716,-661.5 749.02,-642.96 781.02,-610.95 795.88,-595.05"/>
<polygon fill="#63b8ff" stroke="#63b8ff" points="704.92,-663.06 696.91,-669.99 707.5,-669.57 704.92,-663.06"/>
</a>
</g>
</g>
<!-- Node2 -->
<g id="Node000002" class="node">
<title>Node2</title>
<g id="a_Node000002"><a xlink:href="classAmcCarrierCoreFsbl.html" target="_top" xlink:title=" ">
<polygon fill="white" stroke="#666666" points="1011,-558 897,-558 897,-539 1011,-539 1011,-558"/>
<text text-anchor="middle" x="954" y="-546" font-family="Helvetica,sans-Serif" font-size="10.00">AmcCarrierCoreFsbl</text>
</a>
</g>
</g>
<!-- Node1&#45;&gt;Node2 -->
<g id="edge54_Node000001_Node000002" class="edge">
<title>Node1&#45;&gt;Node2</title>
<g id="a_edge54_Node000001_Node000002"><a xlink:title=" ">
<path fill="none" stroke="#63b8ff" d="M853.99,-573.51C873.8,-568.5 896.49,-562.77 915.15,-558.06"/>
<polygon fill="#63b8ff" stroke="#63b8ff" points="853.07,-570.13 844.23,-575.97 854.78,-576.92 853.07,-570.13"/>
</a>
</g>
</g>
<!-- Node6 -->
<g id="Node000006" class="node">
<title>Node6</title>
<g id="a_Node000006"><a xlink:href="classAmcCarrierCoreAdv.html" target="_top" xlink:title=" ">
<polygon fill="white" stroke="#666666" points="1010.5,-511 897.5,-511 897.5,-492 1010.5,-492 1010.5,-511"/>
<text text-anchor="middle" x="954" y="-499" font-family="Helvetica,sans-Serif" font-size="10.00">AmcCarrierCoreAdv</text>
</a>
</g>
</g>
<!-- Node1&#45;&gt;Node6 -->
<g id="edge55_Node000001_Node000006" class="edge">
<title>Node1&#45;&gt;Node6</title>
<g id="a_edge55_Node000001_Node000006"><a xlink:title=" ">
<path fill="none" stroke="#63b8ff" d="M851.32,-571.84C853.99,-570.51 856.57,-569.06 859,-567.5 878.57,-554.92 876.22,-543.23 895,-529.5 905.11,-522.11 917.48,-515.83 928.19,-511.1"/>
<polygon fill="#63b8ff" stroke="#63b8ff" points="849.77,-568.7 842.04,-575.94 852.6,-575.1 849.77,-568.7"/>
</a>
</g>
</g>
<!-- Node8 -->
<g id="Node000008" class="node">
<title>Node8</title>
<g id="a_Node000008"><a xlink:href="classAmcCarrierCoreBase.html" target="_top" xlink:title=" ">
<polygon fill="white" stroke="#666666" points="1013,-474 895,-474 895,-455 1013,-455 1013,-474"/>
<text text-anchor="middle" x="954" y="-462" font-family="Helvetica,sans-Serif" font-size="10.00">AmcCarrierCoreBase</text>
</a>
</g>
</g>
<!-- Node1&#45;&gt;Node8 -->
<g id="edge56_Node000001_Node000008" class="edge">
<title>Node1&#45;&gt;Node8</title>
<g id="a_edge56_Node000001_Node000008"><a xlink:title=" ">
<path fill="none" stroke="#63b8ff" d="M855,-570.8C856.4,-569.77 857.74,-568.67 859,-567.5 889.01,-539.53 864.58,-510.03 895,-482.5 898.75,-479.1 903.14,-476.35 907.78,-474.11"/>
<polygon fill="#63b8ff" stroke="#63b8ff" points="853.19,-567.8 846.4,-575.93 856.78,-573.81 853.19,-567.8"/>
</a>
</g>
</g>
<!-- Node4 -->
<g id="Node000004" class="node">
<title>Node4</title>
<g id="a_Node000004"><a xlink:href="classAmcCarrierDdrMem.html" target="_top" xlink:title=" ">
<polygon fill="white" stroke="#666666" points="716,-539 603,-539 603,-520 716,-520 716,-539"/>
<text text-anchor="middle" x="659.5" y="-527" font-family="Helvetica,sans-Serif" font-size="10.00">AmcCarrierDdrMem</text>
</a>
</g>
</g>
<!-- Node3 -->
<g id="Node000003" class="node">
<title>Node3</title>
<g id="a_Node000003"><a xlink:href="classAmcCarrierFsbl.html" target="_top" xlink:title=" ">
<polygon fill="white" stroke="#666666" points="851.5,-558 759.5,-558 759.5,-539 851.5,-539 851.5,-558"/>
<text text-anchor="middle" x="805.5" y="-546" font-family="Helvetica,sans-Serif" font-size="10.00">AmcCarrierFsbl</text>
</a>
</g>
</g>
<!-- Node4&#45;&gt;Node3 -->
<g id="edge57_Node000004_Node000003" class="edge">
<title>Node4&#45;&gt;Node3</title>
<g id="a_edge57_Node000004_Node000003"><a xlink:title=" ">
<path fill="none" stroke="#63b8ff" d="M726.31,-538.18C737.44,-539.65 748.77,-541.15 759.22,-542.53"/>
<polygon fill="#63b8ff" stroke="#63b8ff" points="726.55,-534.68 716.17,-536.85 725.63,-541.62 726.55,-534.68"/>
</a>
</g>
</g>
<!-- Node5 -->
<g id="Node000005" class="node">
<title>Node5</title>
<g id="a_Node000005"><a xlink:href="classAmcCarrierCore.html" target="_top" xlink:title=" ">
<polygon fill="white" stroke="#666666" points="852.5,-502 758.5,-502 758.5,-483 852.5,-483 852.5,-502"/>
<text text-anchor="middle" x="805.5" y="-490" font-family="Helvetica,sans-Serif" font-size="10.00">AmcCarrierCore</text>
</a>
</g>
</g>
<!-- Node4&#45;&gt;Node5 -->
<g id="edge59_Node000004_Node000005" class="edge">
<title>Node4&#45;&gt;Node5</title>
<g id="a_edge59_Node000004_Node000005"><a xlink:title=" ">
<path fill="none" stroke="#63b8ff" d="M707.41,-517.45C726.73,-512.48 748.82,-506.81 767.04,-502.12"/>
<polygon fill="#63b8ff" stroke="#63b8ff" points="706.4,-514.09 697.58,-519.97 708.14,-520.87 706.4,-514.09"/>
</a>
</g>
</g>
<!-- Node3&#45;&gt;Node2 -->
<g id="edge58_Node000003_Node000002" class="edge">
<title>Node3&#45;&gt;Node2</title>
<g id="a_edge58_Node000003_Node000002"><a xlink:title=" ">
<path fill="none" stroke="#63b8ff" d="M861.94,-548.5C873.38,-548.5 885.42,-548.5 896.88,-548.5"/>
<polygon fill="#63b8ff" stroke="#63b8ff" points="861.65,-545 851.65,-548.5 861.65,-552 861.65,-545"/>
</a>
</g>
</g>
<!-- Node5&#45;&gt;Node6 -->
<g id="edge60_Node000005_Node000006" class="edge">
<title>Node5&#45;&gt;Node6</title>
<g id="a_edge60_Node000005_Node000006"><a xlink:title=" ">
<path fill="none" stroke="#63b8ff" d="M863.04,-495.97C874.34,-496.67 886.19,-497.4 897.46,-498.09"/>
<polygon fill="#63b8ff" stroke="#63b8ff" points="863.05,-492.47 852.85,-495.35 862.62,-499.45 863.05,-492.47"/>
</a>
</g>
</g>
<!-- Node5&#45;&gt;Node8 -->
<g id="edge61_Node000005_Node000008" class="edge">
<title>Node5&#45;&gt;Node8</title>
<g id="a_edge61_Node000005_Node000008"><a xlink:title=" ">
<path fill="none" stroke="#63b8ff" d="M862.83,-481.73C876.11,-479.2 890.17,-476.51 903.15,-474.03"/>
<polygon fill="#63b8ff" stroke="#63b8ff" points="862.02,-478.33 852.85,-483.64 863.33,-485.2 862.02,-478.33"/>
</a>
</g>
</g>
<!-- Node51 -->
<g id="Node000051" class="node">
<title>Node51</title>
<g id="a_Node000051"><a xlink:href="classAmcCarrierEthFsbl.html" target="_top" xlink:title=" ">
<polygon fill="white" stroke="#666666" points="713,-652 606,-652 606,-633 713,-633 713,-652"/>
<text text-anchor="middle" x="659.5" y="-640" font-family="Helvetica,sans-Serif" font-size="10.00">AmcCarrierEthFsbl</text>
</a>
</g>
</g>
<!-- Node51&#45;&gt;Node3 -->
<g id="edge62_Node000051_Node000003" class="edge">
<title>Node51&#45;&gt;Node3</title>
<g id="a_edge62_Node000051_Node000003"><a xlink:title=" ">
<path fill="none" stroke="#63b8ff" d="M710.34,-628.36C712.31,-627.17 714.21,-625.89 716,-624.5 739.66,-606.12 728.65,-586.28 752,-567.5 756.76,-563.67 762.35,-560.58 768.09,-558.09"/>
<polygon fill="#63b8ff" stroke="#63b8ff" points="708.61,-625.31 701.28,-632.96 711.78,-631.55 708.61,-625.31"/>
</a>
</g>
</g>
<!-- Node18 -->
<g id="Node000018" class="node">
<title>Node18</title>
<g id="a_Node000018"><a xlink:href="classAmcCarrierIbufGt.html" target="_top" xlink:title=" ">
<polygon fill="white" stroke="#666666" points="541.5,-484 440.5,-484 440.5,-465 541.5,-465 541.5,-484"/>
<text text-anchor="middle" x="491" y="-472" font-family="Helvetica,sans-Serif" font-size="10.00">AmcCarrierIbufGt</text>
</a>
</g>
</g>
<!-- Node18&#45;&gt;Node3 -->
<g id="edge66_Node000018_Node000003" class="edge">
<title>Node18&#45;&gt;Node3</title>
<g id="a_edge66_Node000018_Node000003"><a xlink:title=" ">
<path fill="none" stroke="#63b8ff" d="M551.14,-484.92C556.77,-487.23 562.17,-490.05 567,-493.5 590.78,-510.47 577.3,-534.61 603,-548.5 655.31,-576.78 727.01,-567.5 769.27,-558.08"/>
<polygon fill="#63b8ff" stroke="#63b8ff" points="552.11,-481.55 541.51,-481.49 549.76,-488.14 552.11,-481.55"/>
</a>
</g>
</g>
<!-- Node18&#45;&gt;Node5 -->
<g id="edge67_Node000018_Node000005" class="edge">
<title>Node18&#45;&gt;Node5</title>
<g id="a_edge67_Node000018_Node000005"><a xlink:title=" ">
<path fill="none" stroke="#63b8ff" d="M551.76,-470.67C596.99,-468.64 660.57,-467.62 716,-473.5 733.5,-475.36 752.63,-479.23 768.61,-482.99"/>
<polygon fill="#63b8ff" stroke="#63b8ff" points="551.36,-467.19 541.54,-471.16 551.69,-474.18 551.36,-467.19"/>
</a>
</g>
</g>
<!-- Node17 -->
<g id="Node000017" class="node">
<title>Node17</title>
<g id="a_Node000017"><a xlink:href="classAmcCarrierTiming.html" target="_top" xlink:title=" ">
<polygon fill="white" stroke="#666666" points="712,-502 607,-502 607,-483 712,-483 712,-502"/>
<text text-anchor="middle" x="659.5" y="-490" font-family="Helvetica,sans-Serif" font-size="10.00">AmcCarrierTiming</text>
</a>
</g>
</g>
<!-- Node18&#45;&gt;Node17 -->
<g id="edge63_Node000018_Node000017" class="edge">
<title>Node18&#45;&gt;Node17</title>
<g id="a_edge63_Node000018_Node000017"><a xlink:title=" ">
<path fill="none" stroke="#63b8ff" d="M551.64,-480.95C569.7,-482.9 589.38,-485.03 606.87,-486.92"/>
<polygon fill="#63b8ff" stroke="#63b8ff" points="551.82,-477.45 541.5,-479.85 551.07,-484.41 551.82,-477.45"/>
</a>
</g>
</g>
<!-- Node19 -->
<g id="Node000019" class="node">
<title>Node19</title>
<g id="a_Node000019"><a xlink:href="classAppTopJesd.html" target="_top" xlink:title=" ">
<polygon fill="white" stroke="#666666" points="695.5,-204 623.5,-204 623.5,-185 695.5,-185 695.5,-204"/>
<text text-anchor="middle" x="659.5" y="-192" font-family="Helvetica,sans-Serif" font-size="10.00">AppTopJesd</text>
</a>
</g>
</g>
<!-- Node18&#45;&gt;Node19 -->
<g id="edge68_Node000018_Node000019" class="edge">
<title>Node18&#45;&gt;Node19</title>
<g id="a_edge68_Node000018_Node000019"><a xlink:title=" ">
<path fill="none" stroke="#63b8ff" d="M531.93,-460.84C544.81,-454.64 558.05,-446.04 567,-434.5 608.49,-381.01 577.22,-349.09 603,-286.5 616.21,-254.42 639.52,-220.39 651.28,-204.18"/>
<polygon fill="#63b8ff" stroke="#63b8ff" points="530.41,-457.69 522.69,-464.94 533.25,-464.09 530.41,-457.69"/>
</a>
</g>
</g>
<!-- Node17&#45;&gt;Node3 -->
<g id="edge64_Node000017_Node000003" class="edge">
<title>Node17&#45;&gt;Node3</title>
<g id="a_edge64_Node000017_Node000003"><a xlink:title=" ">
<path fill="none" stroke="#63b8ff" d="M701.66,-505.38C706.52,-507.04 711.38,-508.76 716,-510.5 739.48,-519.33 765.83,-530.86 783.62,-538.89"/>
<polygon fill="#63b8ff" stroke="#63b8ff" points="702.38,-501.93 691.79,-502.09 700.17,-508.57 702.38,-501.93"/>
</a>
</g>
</g>
<!-- Node17&#45;&gt;Node5 -->
<g id="edge65_Node000017_Node000005" class="edge">
<title>Node17&#45;&gt;Node5</title>
<g id="a_edge65_Node000017_Node000005"><a xlink:title=" ">
<path fill="none" stroke="#63b8ff" d="M722.09,-492.5C734.15,-492.5 746.6,-492.5 758.07,-492.5"/>
<polygon fill="#63b8ff" stroke="#63b8ff" points="722.08,-489 712.08,-492.5 722.08,-496 722.08,-489"/>
</a>
</g>
</g>
<!-- Node20 -->
<g id="Node000020" class="node">
<title>Node20</title>
<g id="a_Node000020"><a xlink:href="classAppTop.html" target="_top" xlink:title=" ">
<polygon fill="white" stroke="#666666" points="831.5,-185 779.5,-185 779.5,-166 831.5,-166 831.5,-185"/>
<text text-anchor="middle" x="805.5" y="-173" font-family="Helvetica,sans-Serif" font-size="10.00">AppTop</text>
</a>
</g>
</g>
<!-- Node19&#45;&gt;Node20 -->
<g id="edge69_Node000019_Node000020" class="edge">
<title>Node19&#45;&gt;Node20</title>
<g id="a_edge69_Node000019_Node000020"><a xlink:title=" ">
<path fill="none" stroke="#63b8ff" d="M705.77,-188.53C729.97,-185.33 758.86,-181.52 779.12,-178.85"/>
<polygon fill="#63b8ff" stroke="#63b8ff" points="705.18,-185.07 695.73,-189.85 706.1,-192.01 705.18,-185.07"/>
</a>
</g>
</g>
<!-- Node36 -->
<g id="Node000036" class="node">
<title>Node36</title>
<g id="a_Node000036"><a xlink:href="classAmcCarrierRssiObFifo.html" target="_top" xlink:title=" ">
<polygon fill="white" stroke="#666666" points="379,-287 256,-287 256,-268 379,-268 379,-287"/>
<text text-anchor="middle" x="317.5" y="-275" font-family="Helvetica,sans-Serif" font-size="10.00">AmcCarrierRssiObFifo</text>
</a>
</g>
</g>
<!-- Node35 -->
<g id="Node000035" class="node">
<title>Node35</title>
<g id="a_Node000035"><a xlink:href="classAmcCarrierRssi.html" target="_top" xlink:title=" ">
<polygon fill="white" stroke="#666666" points="537,-315 445,-315 445,-296 537,-296 537,-315"/>
<text text-anchor="middle" x="491" y="-303" font-family="Helvetica,sans-Serif" font-size="10.00">AmcCarrierRssi</text>
</a>
</g>
</g>
<!-- Node36&#45;&gt;Node35 -->
<g id="edge70_Node000036_Node000035" class="edge">
<title>Node36&#45;&gt;Node35</title>
<g id="a_edge70_Node000036_Node000035"><a xlink:title=" ">
<path fill="none" stroke="#63b8ff" d="M387.09,-288.7C406.57,-291.88 427.29,-295.26 444.99,-298.15"/>
<polygon fill="#63b8ff" stroke="#63b8ff" points="387.47,-285.21 377.04,-287.06 386.35,-292.12 387.47,-285.21"/>
</a>
</g>
</g>
<!-- Node37 -->
<g id="Node000037" class="node">
<title>Node37</title>
<g id="a_Node000037"><a xlink:href="classAmcCarrierRssiInterleave.html" target="_top" xlink:title=" ">
<polygon fill="white" stroke="#666666" points="561.5,-278 420.5,-278 420.5,-259 561.5,-259 561.5,-278"/>
<text text-anchor="middle" x="491" y="-266" font-family="Helvetica,sans-Serif" font-size="10.00">AmcCarrierRssiInterleave</text>
</a>
</g>
</g>
<!-- Node36&#45;&gt;Node37 -->
<g id="edge73_Node000036_Node000037" class="edge">
<title>Node36&#45;&gt;Node37</title>
<g id="a_edge73_Node000036_Node000037"><a xlink:title=" ">
<path fill="none" stroke="#63b8ff" d="M389.55,-273.77C399.78,-273.23 410.29,-272.68 420.48,-272.15"/>
<polygon fill="#63b8ff" stroke="#63b8ff" points="389.25,-270.28 379.45,-274.3 389.62,-277.27 389.25,-270.28"/>
</a>
</g>
</g>
<!-- Node34 -->
<g id="Node000034" class="node">
<title>Node34</title>
<g id="a_Node000034"><a xlink:href="classAmcCarrierEth.html" target="_top" xlink:title=" ">
<polygon fill="white" stroke="#666666" points="703,-315 616,-315 616,-296 703,-296 703,-315"/>
<text text-anchor="middle" x="659.5" y="-303" font-family="Helvetica,sans-Serif" font-size="10.00">AmcCarrierEth</text>
</a>
</g>
</g>
<!-- Node35&#45;&gt;Node34 -->
<g id="edge71_Node000035_Node000034" class="edge">
<title>Node35&#45;&gt;Node34</title>
<g id="a_edge71_Node000035_Node000034"><a xlink:title=" ">
<path fill="none" stroke="#63b8ff" d="M547.11,-305.5C569.54,-305.5 595.04,-305.5 615.99,-305.5"/>
<polygon fill="#63b8ff" stroke="#63b8ff" points="547.06,-302 537.06,-305.5 547.06,-309 547.06,-302"/>
</a>
</g>
</g>
<!-- Node34&#45;&gt;Node5 -->
<g id="edge72_Node000034_Node000005" class="edge">
<title>Node34&#45;&gt;Node5</title>
<g id="a_edge72_Node000034_Node000005"><a xlink:title=" ">
<path fill="none" stroke="#63b8ff" d="M711.98,-319.85C713.4,-320.98 714.75,-322.19 716,-323.5 757.71,-367.15 717.6,-404.88 752,-454.5 760.46,-466.71 774.16,-476.43 785.44,-482.98"/>
<polygon fill="#63b8ff" stroke="#63b8ff" points="713.46,-316.65 703.13,-314.32 709.75,-322.59 713.46,-316.65"/>
</a>
</g>
</g>
<!-- Node37&#45;&gt;Node34 -->
<g id="edge74_Node000037_Node000034" class="edge">
<title>Node37&#45;&gt;Node34</title>
<g id="a_edge74_Node000037_Node000034"><a xlink:title=" ">
<path fill="none" stroke="#63b8ff" d="M544.78,-280.23C567.67,-285.32 594.13,-291.2 615.77,-296"/>
<polygon fill="#63b8ff" stroke="#63b8ff" points="545.4,-276.78 534.88,-278.03 543.88,-283.61 545.4,-276.78"/>
</a>
</g>
</g>
<!-- Node52 -->
<g id="Node000052" class="node">
<title>Node52</title>
<g id="a_Node000052"><a xlink:href="classAmcCarrierSysMon.html" target="_top" xlink:title=" ">
<polygon fill="white" stroke="#666666" points="714.5,-726 604.5,-726 604.5,-707 714.5,-707 714.5,-726"/>
<text text-anchor="middle" x="659.5" y="-714" font-family="Helvetica,sans-Serif" font-size="10.00">AmcCarrierSysMon</text>
</a>
</g>
</g>
<!-- Node52&#45;&gt;Node1 -->
<g id="edge75_Node000052_Node000001" class="edge">
<title>Node52&#45;&gt;Node1</title>
<g id="a_edge75_Node000052_Node000001"><a xlink:title=" ">
<path fill="none" stroke="#63b8ff" d="M709.34,-702.58C711.66,-701.33 713.89,-699.97 716,-698.5 756.85,-669.95 787.89,-617.04 799.51,-595.26"/>
<polygon fill="#63b8ff" stroke="#63b8ff" points="707.68,-699.49 700.1,-706.89 710.64,-705.84 707.68,-699.49"/>
</a>
</g>
</g>
<!-- Node9 -->
<g id="Node000009" class="node">
<title>Node9</title>
<g id="a_Node000009"><a xlink:href="classAppMpsClk.html" target="_top" xlink:title=" ">
<polygon fill="white" stroke="#666666" points="695,-389 624,-389 624,-370 695,-370 695,-389"/>
<text text-anchor="middle" x="659.5" y="-377" font-family="Helvetica,sans-Serif" font-size="10.00">AppMpsClk</text>
</a>
</g>
</g>
<!-- Node7 -->
<g id="Node000007" class="node">
<title>Node7</title>
<g id="a_Node000007"><a xlink:href="classAppMps.html" target="_top" xlink:title=" ">
<polygon fill="white" stroke="#666666" points="833.5,-446 777.5,-446 777.5,-427 833.5,-427 833.5,-446"/>
<text text-anchor="middle" x="805.5" y="-434" font-family="Helvetica,sans-Serif" font-size="10.00">AppMps</text>
</a>
</g>
</g>
<!-- Node9&#45;&gt;Node7 -->
<g id="edge76_Node000009_Node000007" class="edge">
<title>Node9&#45;&gt;Node7</title>
<g id="a_edge76_Node000009_Node000007"><a xlink:title=" ">
<path fill="none" stroke="#63b8ff" d="M701.68,-392.34C706.53,-394 711.39,-395.74 716,-397.5 739.85,-406.59 766.57,-418.64 784.36,-426.92"/>
<polygon fill="#63b8ff" stroke="#63b8ff" points="702.4,-388.89 691.81,-389.04 700.18,-395.53 702.4,-388.89"/>
</a>
</g>
</g>
<!-- Node7&#45;&gt;Node2 -->
<g id="edge77_Node000007_Node000002" class="edge">
<title>Node7&#45;&gt;Node2</title>
<g id="a_edge77_Node000007_Node000002"><a xlink:title=" ">
<path fill="none" stroke="#63b8ff" d="M831.01,-451.59C840.24,-457.82 850.55,-465.46 859,-473.5 877.81,-491.39 874.9,-503.07 895,-519.5 904.85,-527.55 917.31,-534.14 928.15,-539"/>
<polygon fill="#63b8ff" stroke="#63b8ff" points="832.86,-448.62 822.57,-446.08 829.03,-454.48 832.86,-448.62"/>
</a>
</g>
</g>
<!-- Node7&#45;&gt;Node6 -->
<g id="edge78_Node000007_Node000006" class="edge">
<title>Node7&#45;&gt;Node6</title>
<g id="a_edge78_Node000007_Node000006"><a xlink:title=" ">
<path fill="none" stroke="#63b8ff" d="M832.03,-451.18C849.43,-460.84 873.18,-473.33 895,-482.5 903.21,-485.95 912.27,-489.18 920.75,-491.97"/>
<polygon fill="#63b8ff" stroke="#63b8ff" points="833.51,-448 823.07,-446.15 830.08,-454.1 833.51,-448"/>
</a>
</g>
</g>
<!-- Node7&#45;&gt;Node8 -->
<g id="edge79_Node000007_Node000008" class="edge">
<title>Node7&#45;&gt;Node8</title>
<g id="a_edge79_Node000007_Node000008"><a xlink:title=" ">
<path fill="none" stroke="#63b8ff" d="M843.57,-443.59C861.63,-447.04 883.6,-451.24 903.11,-454.96"/>
<polygon fill="#63b8ff" stroke="#63b8ff" points="844.19,-440.14 833.71,-441.7 842.88,-447.02 844.19,-440.14"/>
</a>
</g>
</g>
<!-- Node12 -->
<g id="Node000012" class="node">
<title>Node12</title>
<g id="a_Node000012"><a xlink:href="classAppMpsRegAppCh.html" target="_top" xlink:title=" ">
<polygon fill="white" stroke="#666666" points="370.5,-334 264.5,-334 264.5,-315 370.5,-315 370.5,-334"/>
<text text-anchor="middle" x="317.5" y="-322" font-family="Helvetica,sans-Serif" font-size="10.00">AppMpsRegAppCh</text>
</a>
</g>
</g>
<!-- Node11 -->
<g id="Node000011" class="node">
<title>Node11</title>
<g id="a_Node000011"><a xlink:href="classAppMpsReg.html" target="_top" xlink:title=" ">
<polygon fill="white" stroke="#666666" points="528,-352 454,-352 454,-333 528,-333 528,-352"/>
<text text-anchor="middle" x="491" y="-340" font-family="Helvetica,sans-Serif" font-size="10.00">AppMpsReg</text>
</a>
</g>
</g>
<!-- Node12&#45;&gt;Node11 -->
<g id="edge80_Node000012_Node000011" class="edge">
<title>Node12&#45;&gt;Node11</title>
<g id="a_edge80_Node000012_Node000011"><a xlink:title=" ">
<path fill="none" stroke="#63b8ff" d="M380.86,-331.05C405.43,-333.62 432.78,-336.49 453.95,-338.72"/>
<polygon fill="#63b8ff" stroke="#63b8ff" points="381.2,-327.56 370.89,-330 380.47,-334.52 381.2,-327.56"/>
</a>
</g>
</g>
<!-- Node10 -->
<g id="Node000010" class="node">
<title>Node10</title>
<g id="a_Node000010"><a xlink:href="classAppMpsEncoder.html" target="_top" xlink:title=" ">
<polygon fill="white" stroke="#666666" points="707,-352 612,-352 612,-333 707,-333 707,-352"/>
<text text-anchor="middle" x="659.5" y="-340" font-family="Helvetica,sans-Serif" font-size="10.00">AppMpsEncoder</text>
</a>
</g>
</g>
<!-- Node11&#45;&gt;Node10 -->
<g id="edge81_Node000011_Node000010" class="edge">
<title>Node11&#45;&gt;Node10</title>
<g id="a_edge81_Node000011_Node000010"><a xlink:title=" ">
<path fill="none" stroke="#63b8ff" d="M538.32,-342.5C561.3,-342.5 588.98,-342.5 611.99,-342.5"/>
<polygon fill="#63b8ff" stroke="#63b8ff" points="538.13,-339 528.13,-342.5 538.13,-346 538.13,-339"/>
</a>
</g>
</g>
<!-- Node10&#45;&gt;Node7 -->
<g id="edge82_Node000010_Node000007" class="edge">
<title>Node10&#45;&gt;Node7</title>
<g id="a_edge82_Node000010_Node000007"><a xlink:title=" ">
<path fill="none" stroke="#63b8ff" d="M706.39,-355.76C709.71,-357.21 712.95,-358.79 716,-360.5 749.02,-379.04 781.02,-411.05 795.88,-426.95"/>
<polygon fill="#63b8ff" stroke="#63b8ff" points="707.5,-352.43 696.91,-352.01 704.92,-358.94 707.5,-352.43"/>
</a>
</g>
</g>
<!-- Node13 -->
<g id="Node000013" class="node">
<title>Node13</title>
<g id="a_Node000013"><a xlink:href="classAppMpsRegBase.html" target="_top" xlink:title=" ">
<polygon fill="white" stroke="#666666" points="366.5,-371 268.5,-371 268.5,-352 366.5,-352 366.5,-371"/>
<text text-anchor="middle" x="317.5" y="-359" font-family="Helvetica,sans-Serif" font-size="10.00">AppMpsRegBase</text>
</a>
</g>
</g>
<!-- Node13&#45;&gt;Node11 -->
<g id="edge83_Node000013_Node000011" class="edge">
<title>Node13&#45;&gt;Node11</title>
<g id="a_edge83_Node000013_Node000011"><a xlink:title=" ">
<path fill="none" stroke="#63b8ff" d="M376.69,-355.05C402.25,-352.22 431.46,-348.99 453.82,-346.51"/>
<polygon fill="#63b8ff" stroke="#63b8ff" points="376.28,-351.58 366.73,-356.16 377.05,-358.53 376.28,-351.58"/>
</a>
</g>
</g>
<!-- Node16 -->
<g id="Node000016" class="node">
<title>Node16</title>
<g id="a_Node000016"><a xlink:href="classAppMpsSalt.html" target="_top" xlink:title=" ">
<polygon fill="white" stroke="#666666" points="696.5,-426 622.5,-426 622.5,-407 696.5,-407 696.5,-426"/>
<text text-anchor="middle" x="659.5" y="-414" font-family="Helvetica,sans-Serif" font-size="10.00">AppMpsSalt</text>
</a>
</g>
</g>
<!-- Node16&#45;&gt;Node7 -->
<g id="edge84_Node000016_Node000007" class="edge">
<title>Node16&#45;&gt;Node7</title>
<g id="a_edge84_Node000016_Node000007"><a xlink:title=" ">
<path fill="none" stroke="#63b8ff" d="M706.85,-422.94C730.09,-426.17 757.43,-429.96 777.27,-432.72"/>
<polygon fill="#63b8ff" stroke="#63b8ff" points="707.22,-419.46 696.84,-421.55 706.26,-426.39 707.22,-419.46"/>
</a>
</g>
</g>
<!-- Node14 -->
<g id="Node000014" class="node">
<title>Node14</title>
<g id="a_Node000014"><a xlink:href="classAppMpsSelect.html" target="_top" xlink:title=" ">
<polygon fill="white" stroke="#666666" points="534,-426 448,-426 448,-407 534,-407 534,-426"/>
<text text-anchor="middle" x="491" y="-414" font-family="Helvetica,sans-Serif" font-size="10.00">AppMpsSelect</text>
</a>
</g>
</g>
<!-- Node14&#45;&gt;Node10 -->
<g id="edge85_Node000014_Node000010" class="edge">
<title>Node14&#45;&gt;Node10</title>
<g id="a_edge85_Node000014_Node000010"><a xlink:title=" ">
<path fill="none" stroke="#63b8ff" d="M543.85,-407.37C551.89,-404.83 559.89,-401.61 567,-397.5 586.87,-386.03 583.52,-372.62 603,-360.5 608.42,-357.13 614.53,-354.33 620.67,-352.02"/>
<polygon fill="#63b8ff" stroke="#63b8ff" points="542.73,-404.05 534.06,-410.13 544.63,-410.79 542.73,-404.05"/>
</a>
</g>
</g>
<!-- Node33 -->
<g id="Node000033" class="node">
<title>Node33</title>
<g id="a_Node000033"><a xlink:href="classAppTopJesd204b.html" target="_top" xlink:title=" ">
<polygon fill="white" stroke="#666666" points="539,-204 443,-204 443,-185 539,-185 539,-204"/>
<text text-anchor="middle" x="491" y="-192" font-family="Helvetica,sans-Serif" font-size="10.00">AppTopJesd204b</text>
</a>
</g>
</g>
<!-- Node33&#45;&gt;Node19 -->
<g id="edge86_Node000033_Node000019" class="edge">
<title>Node33&#45;&gt;Node19</title>
<g id="a_edge86_Node000033_Node000019"><a xlink:title=" ">
<path fill="none" stroke="#63b8ff" d="M549.55,-194.5C574.08,-194.5 601.91,-194.5 623.3,-194.5"/>
<polygon fill="#63b8ff" stroke="#63b8ff" points="549.27,-191 539.27,-194.5 549.27,-198 549.27,-191"/>
</a>
</g>
</g>
<!-- Node42 -->
<g id="Node000042" class="node">
<title>Node42</title>
<g id="a_Node000042"><a xlink:href="classBldEventRAM.html" target="_top" xlink:title=" ">
<polygon fill="white" stroke="#666666" points="83,-596 0,-596 0,-577 83,-577 83,-596"/>
<text text-anchor="middle" x="41.5" y="-584" font-family="Helvetica,sans-Serif" font-size="10.00">BldEventRAM</text>
</a>
</g>
</g>
<!-- Node41 -->
<g id="Node000041" class="node">
<title>Node41</title>
<g id="a_Node000041"><a xlink:href="classBldEventSelect.html" target="_top" xlink:title=" ">
<polygon fill="white" stroke="#666666" points="214.5,-596 124.5,-596 124.5,-577 214.5,-577 214.5,-596"/>
<text text-anchor="middle" x="169.5" y="-584" font-family="Helvetica,sans-Serif" font-size="10.00">BldEventSelect</text>
</a>
</g>
</g>
<!-- Node42&#45;&gt;Node41 -->
<g id="edge87_Node000042_Node000041" class="edge">
<title>Node42&#45;&gt;Node41</title>
<g id="a_edge87_Node000042_Node000041"><a xlink:title=" ">
<path fill="none" stroke="#63b8ff" d="M93.12,-586.5C103.37,-586.5 114.07,-586.5 124.09,-586.5"/>
<polygon fill="#63b8ff" stroke="#63b8ff" points="93.06,-583 83.06,-586.5 93.06,-590 93.06,-583"/>
</a>
</g>
</g>
<!-- Node40 -->
<g id="Node000040" class="node">
<title>Node40</title>
<g id="a_Node000040"><a xlink:href="classBldAxiStream.html" target="_top" xlink:title=" ">
<polygon fill="white" stroke="#666666" points="359,-596 276,-596 276,-577 359,-577 359,-596"/>
<text text-anchor="middle" x="317.5" y="-584" font-family="Helvetica,sans-Serif" font-size="10.00">BldAxiStream</text>
</a>
</g>
</g>
<!-- Node41&#45;&gt;Node40 -->
<g id="edge88_Node000041_Node000040" class="edge">
<title>Node41&#45;&gt;Node40</title>
<g id="a_edge88_Node000041_Node000040"><a xlink:title=" ">
<path fill="none" stroke="#63b8ff" d="M224.99,-586.5C241.88,-586.5 260.17,-586.5 275.93,-586.5"/>
<polygon fill="#63b8ff" stroke="#63b8ff" points="224.7,-583 214.7,-586.5 224.7,-590 224.7,-583"/>
</a>
</g>
</g>
<!-- Node39 -->
<g id="Node000039" class="node">
<title>Node39</title>
<g id="a_Node000039"><a xlink:href="classBldWrapper.html" target="_top" xlink:title=" ">
<polygon fill="white" stroke="#666666" points="528,-596 454,-596 454,-577 528,-577 528,-596"/>
<text text-anchor="middle" x="491" y="-584" font-family="Helvetica,sans-Serif" font-size="10.00">BldWrapper</text>
</a>
</g>
</g>
<!-- Node40&#45;&gt;Node39 -->
<g id="edge89_Node000040_Node000039" class="edge">
<title>Node40&#45;&gt;Node39</title>
<g id="a_edge89_Node000040_Node000039"><a xlink:title=" ">
<path fill="none" stroke="#63b8ff" d="M369.24,-586.5C396.38,-586.5 429.17,-586.5 453.73,-586.5"/>
<polygon fill="#63b8ff" stroke="#63b8ff" points="369.14,-583 359.14,-586.5 369.14,-590 369.14,-583"/>
</a>
</g>
</g>
<!-- Node38 -->
<g id="Node000038" class="node">
<title>Node38</title>
<g id="a_Node000038"><a xlink:href="classAmcCarrierBsa.html" target="_top" xlink:title=" ">
<polygon fill="white" stroke="#666666" points="704,-615 615,-615 615,-596 704,-596 704,-615"/>
<text text-anchor="middle" x="659.5" y="-603" font-family="Helvetica,sans-Serif" font-size="10.00">AmcCarrierBsa</text>
</a>
</g>
</g>
<!-- Node39&#45;&gt;Node38 -->
<g id="edge90_Node000039_Node000038" class="edge">
<title>Node39&#45;&gt;Node38</title>
<g id="a_edge90_Node000039_Node000038"><a xlink:title=" ">
<path fill="none" stroke="#63b8ff" d="M538.37,-591.79C562.27,-594.52 591.24,-597.83 614.75,-600.51"/>
<polygon fill="#63b8ff" stroke="#63b8ff" points="538.46,-588.28 528.13,-590.62 537.67,-595.23 538.46,-588.28"/>
</a>
</g>
</g>
<!-- Node38&#45;&gt;Node3 -->
<g id="edge91_Node000038_Node000003" class="edge">
<title>Node38&#45;&gt;Node3</title>
<g id="a_edge91_Node000038_Node000003"><a xlink:title=" ">
<path fill="none" stroke="#63b8ff" d="M691.81,-592.07C709.42,-584.63 731.84,-575.33 752,-567.5 760.22,-564.31 769.23,-560.98 777.43,-558.02"/>
<polygon fill="#63b8ff" stroke="#63b8ff" points="690.41,-588.87 682.57,-596 693.14,-595.31 690.41,-588.87"/>
</a>
</g>
</g>
<!-- Node38&#45;&gt;Node5 -->
<g id="edge92_Node000038_Node000005" class="edge">
<title>Node38&#45;&gt;Node5</title>
<g id="a_edge92_Node000038_Node000005"><a xlink:title=" ">
<path fill="none" stroke="#63b8ff" d="M679.13,-589.28C697.38,-573.58 726.12,-549.32 752,-529.5 764.57,-519.87 779.35,-509.54 790.02,-502.25"/>
<polygon fill="#63b8ff" stroke="#63b8ff" points="676.81,-586.66 671.54,-595.85 681.39,-591.96 676.81,-586.66"/>
</a>
</g>
</g>
<!-- Node44 -->
<g id="Node000044" class="node">
<title>Node44</title>
<g id="a_Node000044"><a xlink:href="classBsaAccumulator.html" target="_top" xlink:title=" ">
<polygon fill="white" stroke="#666666" points="365.5,-559 269.5,-559 269.5,-540 365.5,-540 365.5,-559"/>
<text text-anchor="middle" x="317.5" y="-547" font-family="Helvetica,sans-Serif" font-size="10.00">BsaAccumulator</text>
</a>
</g>
</g>
<!-- Node43 -->
<g id="Node000043" class="node">
<title>Node43</title>
<g id="a_Node000043"><a xlink:href="classBsaBufferControl.html" target="_top" xlink:title=" ">
<polygon fill="white" stroke="#666666" points="540.5,-559 441.5,-559 441.5,-540 540.5,-540 540.5,-559"/>
<text text-anchor="middle" x="491" y="-547" font-family="Helvetica,sans-Serif" font-size="10.00">BsaBufferControl</text>
</a>
</g>
</g>
<!-- Node44&#45;&gt;Node43 -->
<g id="edge93_Node000044_Node000043" class="edge">
<title>Node44&#45;&gt;Node43</title>
<g id="a_edge93_Node000044_Node000043"><a xlink:title=" ">
<path fill="none" stroke="#63b8ff" d="M375.99,-549.5C397.2,-549.5 421,-549.5 441.35,-549.5"/>
<polygon fill="#63b8ff" stroke="#63b8ff" points="375.82,-546 365.82,-549.5 375.82,-553 375.82,-546"/>
</a>
</g>
</g>
<!-- Node43&#45;&gt;Node38 -->
<g id="edge94_Node000043_Node000038" class="edge">
<title>Node43&#45;&gt;Node38</title>
<g id="a_edge94_Node000043_Node000038"><a xlink:title=" ">
<path fill="none" stroke="#63b8ff" d="M543.76,-561.63C551.6,-563.75 559.55,-566.06 567,-568.5 591.59,-576.55 619.01,-587.97 637.36,-595.99"/>
<polygon fill="#63b8ff" stroke="#63b8ff" points="544.5,-558.21 533.94,-559.05 542.73,-564.98 544.5,-558.21"/>
</a>
</g>
</g>
<!-- Node45 -->
<g id="Node000045" class="node">
<title>Node45</title>
<g id="a_Node000045"><a xlink:href="classBsaAxiInterconnectWrapper.html" target="_top" xlink:title=" ">
<polygon fill="white" stroke="#666666" points="567,-522 415,-522 415,-503 567,-503 567,-522"/>
<text text-anchor="middle" x="491" y="-510" font-family="Helvetica,sans-Serif" font-size="10.00">BsaAxiInterconnectWrapper</text>
</a>
</g>
</g>
<!-- Node45&#45;&gt;Node38 -->
<g id="edge95_Node000045_Node000038" class="edge">
<title>Node45&#45;&gt;Node38</title>
<g id="a_edge95_Node000045_Node000038"><a xlink:title=" ">
<path fill="none" stroke="#63b8ff" d="M559.91,-526.28C562.36,-527.57 564.74,-528.97 567,-530.5 589.96,-546.07 581.46,-564.01 603,-581.5 610.42,-587.52 619.57,-592.3 628.29,-595.95"/>
<polygon fill="#63b8ff" stroke="#63b8ff" points="561.25,-523.05 550.7,-522.14 558.38,-529.43 561.25,-523.05"/>
</a>
</g>
</g>
<!-- Node48 -->
<g id="Node000048" class="node">
<title>Node48</title>
<g id="a_Node000048"><a xlink:href="classBsasAccumulator.html" target="_top" xlink:title=" ">
<polygon fill="white" stroke="#666666" points="220,-707 119,-707 119,-688 220,-688 220,-707"/>
<text text-anchor="middle" x="169.5" y="-695" font-family="Helvetica,sans-Serif" font-size="10.00">BsasAccumulator</text>
</a>
</g>
</g>
<!-- Node47 -->
<g id="Node000047" class="node">
<title>Node47</title>
<g id="a_Node000047"><a xlink:href="classBsasModule.html" target="_top" xlink:title=" ">
<polygon fill="white" stroke="#666666" points="355.5,-707 279.5,-707 279.5,-688 355.5,-688 355.5,-707"/>
<text text-anchor="middle" x="317.5" y="-695" font-family="Helvetica,sans-Serif" font-size="10.00">BsasModule</text>
</a>
</g>
</g>
<!-- Node48&#45;&gt;Node47 -->
<g id="edge96_Node000048_Node000047" class="edge">
<title>Node48&#45;&gt;Node47</title>
<g id="a_edge96_Node000048_Node000047"><a xlink:title=" ">
<path fill="none" stroke="#63b8ff" d="M230.49,-697.5C247.03,-697.5 264.49,-697.5 279.33,-697.5"/>
<polygon fill="#63b8ff" stroke="#63b8ff" points="230.34,-694 220.34,-697.5 230.34,-701 230.34,-694"/>
</a>
</g>
</g>
<!-- Node46 -->
<g id="Node000046" class="node">
<title>Node46</title>
<g id="a_Node000046"><a xlink:href="classBsasWrapper.html" target="_top" xlink:title=" ">
<polygon fill="white" stroke="#666666" points="531.5,-707 450.5,-707 450.5,-688 531.5,-688 531.5,-707"/>
<text text-anchor="middle" x="491" y="-695" font-family="Helvetica,sans-Serif" font-size="10.00">BsasWrapper</text>
</a>
</g>
</g>
<!-- Node47&#45;&gt;Node46 -->
<g id="edge97_Node000047_Node000046" class="edge">
<title>Node47&#45;&gt;Node46</title>
<g id="a_edge97_Node000047_Node000046"><a xlink:title=" ">
<path fill="none" stroke="#63b8ff" d="M365.94,-697.5C392.52,-697.5 425.29,-697.5 450.47,-697.5"/>
<polygon fill="#63b8ff" stroke="#63b8ff" points="365.71,-694 355.71,-697.5 365.71,-701 365.71,-694"/>
</a>
</g>
</g>
<!-- Node46&#45;&gt;Node38 -->
<g id="edge98_Node000046_Node000038" class="edge">
<title>Node46&#45;&gt;Node38</title>
<g id="a_edge98_Node000046_Node000038"><a xlink:title=" ">
<path fill="none" stroke="#63b8ff" d="M541.49,-691.24C550.51,-688.58 559.44,-684.82 567,-679.5 590.89,-662.68 579.93,-642.42 603,-624.5 607.99,-620.63 613.81,-617.51 619.78,-615.02"/>
<polygon fill="#63b8ff" stroke="#63b8ff" points="540.56,-687.86 531.73,-693.7 542.28,-694.65 540.56,-687.86"/>
</a>
</g>
</g>
<!-- Node49 -->
<g id="Node000049" class="node">
<title>Node49</title>
<g id="a_Node000049"><a xlink:href="classBsaWaveformEngine.html" target="_top" xlink:title=" ">
<polygon fill="white" stroke="#666666" points="550,-670 432,-670 432,-651 550,-651 550,-670"/>
<text text-anchor="middle" x="491" y="-658" font-family="Helvetica,sans-Serif" font-size="10.00">BsaWaveformEngine</text>
</a>
</g>
</g>
<!-- Node49&#45;&gt;Node38 -->
<g id="edge99_Node000049_Node000038" class="edge">
<title>Node49&#45;&gt;Node38</title>
<g id="a_edge99_Node000049_Node000038"><a xlink:title=" ">
<path fill="none" stroke="#63b8ff" d="M548.68,-648.36C554.93,-646.59 561.14,-644.64 567,-642.5 583.81,-636.37 586.5,-631.41 603,-624.5 611.08,-621.12 619.99,-617.86 628.27,-615.03"/>
<polygon fill="#63b8ff" stroke="#63b8ff" points="547.65,-645.02 538.9,-650.99 549.46,-651.78 547.65,-645.02"/>
</a>
</g>
</g>
<!-- Node50 -->
<g id="Node000050" class="node">
<title>Node50</title>
<g id="a_Node000050"><a xlink:href="classBsssWrapper.html" target="_top" xlink:title=" ">
<polygon fill="white" stroke="#666666" points="531,-633 451,-633 451,-614 531,-614 531,-633"/>
<text text-anchor="middle" x="491" y="-621" font-family="Helvetica,sans-Serif" font-size="10.00">BsssWrapper</text>
</a>
</g>
</g>
<!-- Node50&#45;&gt;Node38 -->
<g id="edge100_Node000050_Node000038" class="edge">
<title>Node50&#45;&gt;Node38</title>
<g id="a_edge100_Node000050_Node000038"><a xlink:title=" ">
<path fill="none" stroke="#63b8ff" d="M541.08,-618.19C564.43,-615.67 592.1,-612.68 614.72,-610.23"/>
<polygon fill="#63b8ff" stroke="#63b8ff" points="540.6,-614.73 531.04,-619.28 541.36,-621.68 540.6,-614.73"/>
</a>
</g>
</g>
<!-- Node23 -->
<g id="Node000023" class="node">
<title>Node23</title>
<g id="a_Node000023"><a xlink:href="classDacSigGenLane.html" target="_top" xlink:title=" ">
<polygon fill="white" stroke="#666666" points="537.5,-130 444.5,-130 444.5,-111 537.5,-111 537.5,-130"/>
<text text-anchor="middle" x="491" y="-118" font-family="Helvetica,sans-Serif" font-size="10.00">DacSigGenLane</text>
</a>
</g>
</g>
<!-- Node21 -->
<g id="Node000021" class="node">
<title>Node21</title>
<g id="a_Node000021"><a xlink:href="classDacSigGen.html" target="_top" xlink:title=" ">
<polygon fill="white" stroke="#666666" points="694.5,-148 624.5,-148 624.5,-129 694.5,-129 694.5,-148"/>
<text text-anchor="middle" x="659.5" y="-136" font-family="Helvetica,sans-Serif" font-size="10.00">DacSigGen</text>
</a>
</g>
</g>
<!-- Node23&#45;&gt;Node21 -->
<g id="edge101_Node000023_Node000021" class="edge">
<title>Node23&#45;&gt;Node21</title>
<g id="a_edge101_Node000023_Node000021"><a xlink:title=" ">
<path fill="none" stroke="#63b8ff" d="M548.14,-126.57C573.4,-129.3 602.4,-132.44 624.33,-134.81"/>
<polygon fill="#63b8ff" stroke="#63b8ff" points="548.26,-123.06 537.94,-125.47 547.5,-130.02 548.26,-123.06"/>
</a>
</g>
</g>
<!-- Node21&#45;&gt;Node20 -->
<g id="edge102_Node000021_Node000020" class="edge">
<title>Node21&#45;&gt;Node20</title>
<g id="a_edge102_Node000021_Node000020"><a xlink:title=" ">
<path fill="none" stroke="#63b8ff" d="M704.42,-149.78C728.91,-156.08 758.54,-163.69 779.18,-168.99"/>
<polygon fill="#63b8ff" stroke="#63b8ff" points="705.18,-146.37 694.63,-147.27 703.44,-153.15 705.18,-146.37"/>
</a>
</g>
</g>
<!-- Node22 -->
<g id="Node000022" class="node">
<title>Node22</title>
<g id="a_Node000022"><a xlink:href="classDacSigGenTb.html" target="_top" xlink:title=" ">
<polygon fill="white" stroke="#666666" points="846.5,-148 764.5,-148 764.5,-129 846.5,-129 846.5,-148"/>
<text text-anchor="middle" x="805.5" y="-136" font-family="Helvetica,sans-Serif" font-size="10.00">DacSigGenTb</text>
</a>
</g>
</g>
<!-- Node21&#45;&gt;Node22 -->
<g id="edge103_Node000021_Node000022" class="edge">
<title>Node21&#45;&gt;Node22</title>
<g id="a_edge103_Node000021_Node000022"><a xlink:title=" ">
<path fill="none" stroke="#63b8ff" d="M704.85,-138.5C723.88,-138.5 745.96,-138.5 764.49,-138.5"/>
<polygon fill="#63b8ff" stroke="#63b8ff" points="704.63,-135 694.63,-138.5 704.63,-142 704.63,-135"/>
</a>
</g>
</g>
<!-- Node24 -->
<g id="Node000024" class="node">
<title>Node24</title>
<g id="a_Node000024"><a xlink:href="classDacSigGenReg.html" target="_top" xlink:title=" ">
<polygon fill="white" stroke="#666666" points="535.5,-167 446.5,-167 446.5,-148 535.5,-148 535.5,-167"/>
<text text-anchor="middle" x="491" y="-155" font-family="Helvetica,sans-Serif" font-size="10.00">DacSigGenReg</text>
</a>
</g>
</g>
<!-- Node24&#45;&gt;Node21 -->
<g id="edge104_Node000024_Node000021" class="edge">
<title>Node24&#45;&gt;Node21</title>
<g id="a_edge104_Node000024_Node000021"><a xlink:title=" ">
<path fill="none" stroke="#63b8ff" d="M545.75,-151.37C571.52,-148.43 601.62,-144.99 624.24,-142.41"/>
<polygon fill="#63b8ff" stroke="#63b8ff" points="545.28,-147.9 535.75,-152.51 546.08,-154.85 545.28,-147.9"/>
</a>
</g>
</g>
<!-- Node28 -->
<g id="Node000028" class="node">
<title>Node28</title>
<g id="a_Node000028"><a xlink:href="classDaqDecimator.html" target="_top" xlink:title=" ">
<polygon fill="white" stroke="#666666" points="361,-186 274,-186 274,-167 361,-167 361,-186"/>
<text text-anchor="middle" x="317.5" y="-174" font-family="Helvetica,sans-Serif" font-size="10.00">DaqDecimator</text>
</a>
</g>
</g>
<!-- Node27 -->
<g id="Node000027" class="node">
<title>Node27</title>
<g id="a_Node000027"><a xlink:href="classDaqLane.html" target="_top" xlink:title=" ">
<polygon fill="white" stroke="#666666" points="520.5,-93 461.5,-93 461.5,-74 520.5,-74 520.5,-93"/>
<text text-anchor="middle" x="491" y="-81" font-family="Helvetica,sans-Serif" font-size="10.00">DaqLane</text>
</a>
</g>
</g>
<!-- Node28&#45;&gt;Node27 -->
<g id="edge105_Node000028_Node000027" class="edge">
<title>Node28&#45;&gt;Node27</title>
<g id="a_edge105_Node000028_Node000027"><a xlink:title=" ">
<path fill="none" stroke="#63b8ff" d="M335.39,-159.67C353.54,-142.52 383.99,-116.41 415,-101.5 429.48,-94.54 446.87,-90.15 461.25,-87.45"/>
<polygon fill="#63b8ff" stroke="#63b8ff" points="332.72,-157.38 327.96,-166.84 337.59,-162.41 332.72,-157.38"/>
</a>
</g>
</g>
<!-- Node29 -->
<g id="Node000029" class="node">
<title>Node29</title>
<g id="a_Node000029"><a xlink:href="classDaqDecimatorTb.html" target="_top" xlink:title=" ">
<polygon fill="white" stroke="#666666" points="540.5,-241 441.5,-241 441.5,-222 540.5,-222 540.5,-241"/>
<text text-anchor="middle" x="491" y="-229" font-family="Helvetica,sans-Serif" font-size="10.00">DaqDecimatorTb</text>
</a>
</g>
</g>
<!-- Node28&#45;&gt;Node29 -->
<g id="edge109_Node000028_Node000029" class="edge">
<title>Node28&#45;&gt;Node29</title>
<g id="a_edge109_Node000028_Node000029"><a xlink:title=" ">
<path fill="none" stroke="#63b8ff" d="M351.48,-189.82C369.99,-197.04 393.59,-205.82 415,-212.5 425.9,-215.9 437.83,-219.14 448.9,-221.95"/>
<polygon fill="#63b8ff" stroke="#63b8ff" points="352.63,-186.51 342.05,-186.1 350.07,-193.03 352.63,-186.51"/>
</a>
</g>
</g>
<!-- Node25 -->
<g id="Node000025" class="node">
<title>Node25</title>
<g id="a_Node000025"><a xlink:href="classDaqMuxV2.html" target="_top" xlink:title=" ">
<polygon fill="white" stroke="#666666" points="694.5,-75 624.5,-75 624.5,-56 694.5,-56 694.5,-75"/>
<text text-anchor="middle" x="659.5" y="-63" font-family="Helvetica,sans-Serif" font-size="10.00">DaqMuxV2</text>
</a>
</g>
</g>
<!-- Node27&#45;&gt;Node25 -->
<g id="edge106_Node000027_Node000025" class="edge">
<title>Node27&#45;&gt;Node25</title>
<g id="a_edge106_Node000027_Node000025"><a xlink:title=" ">
<path fill="none" stroke="#63b8ff" d="M530.57,-79.33C558.87,-76.27 596.97,-72.15 624.21,-69.21"/>
<polygon fill="#63b8ff" stroke="#63b8ff" points="530.19,-75.85 520.62,-80.41 530.94,-82.81 530.19,-75.85"/>
</a>
</g>
</g>
<!-- Node25&#45;&gt;Node20 -->
<g id="edge107_Node000025_Node000020" class="edge">
<title>Node25&#45;&gt;Node20</title>
<g id="a_edge107_Node000025_Node000020"><a xlink:title=" ">
<path fill="none" stroke="#63b8ff" d="M678.13,-82.41C689.1,-92.99 703.45,-106.95 716,-119.5 732.22,-135.72 732.72,-144.06 752,-156.5 760.31,-161.86 770.33,-165.97 779.38,-168.97"/>
<polygon fill="#63b8ff" stroke="#63b8ff" points="680.44,-79.78 670.81,-75.37 675.59,-84.83 680.44,-79.78"/>
</a>
</g>
</g>
<!-- Node26 -->
<g id="Node000026" class="node">
<title>Node26</title>
<g id="a_Node000026"><a xlink:href="classDaqMuxV2Tb.html" target="_top" xlink:title=" ">
<polygon fill="white" stroke="#666666" points="846.5,-75 764.5,-75 764.5,-56 846.5,-56 846.5,-75"/>
<text text-anchor="middle" x="805.5" y="-63" font-family="Helvetica,sans-Serif" font-size="10.00">DaqMuxV2Tb</text>
</a>
</g>
</g>
<!-- Node25&#45;&gt;Node26 -->
<g id="edge108_Node000025_Node000026" class="edge">
<title>Node25&#45;&gt;Node26</title>
<g id="a_edge108_Node000025_Node000026"><a xlink:title=" ">
<path fill="none" stroke="#63b8ff" d="M704.85,-65.5C723.88,-65.5 745.96,-65.5 764.49,-65.5"/>
<polygon fill="#63b8ff" stroke="#63b8ff" points="704.63,-62 694.63,-65.5 704.63,-69 704.63,-62"/>
</a>
</g>
</g>
<!-- Node31 -->
<g id="Node000031" class="node">
<title>Node31</title>
<g id="a_Node000031"><a xlink:href="classDaqRegItf.html" target="_top" xlink:title=" ">
<polygon fill="white" stroke="#666666" points="523.5,-19 458.5,-19 458.5,0 523.5,0 523.5,-19"/>
<text text-anchor="middle" x="491" y="-7" font-family="Helvetica,sans-Serif" font-size="10.00">DaqRegItf</text>
</a>
</g>
</g>
<!-- Node31&#45;&gt;Node25 -->
<g id="edge110_Node000031_Node000025" class="edge">
<title>Node31&#45;&gt;Node25</title>
<g id="a_edge110_Node000031_Node000025"><a xlink:title=" ">
<path fill="none" stroke="#63b8ff" d="M533.5,-18.22C544.49,-20.87 556.28,-24.01 567,-27.5 592.03,-35.64 619.82,-47.63 638.14,-55.95"/>
<polygon fill="#63b8ff" stroke="#63b8ff" points="534.22,-14.8 523.69,-15.94 532.64,-21.62 534.22,-14.8"/>
</a>
</g>
</g>
<!-- Node30 -->
<g id="Node000030" class="node">
<title>Node30</title>
<g id="a_Node000030"><a xlink:href="classDaqTestSig.html" target="_top" xlink:title=" ">
<polygon fill="white" stroke="#666666" points="353,-93 282,-93 282,-74 353,-74 353,-93"/>
<text text-anchor="middle" x="317.5" y="-81" font-family="Helvetica,sans-Serif" font-size="10.00">DaqTestSig</text>
</a>
</g>
</g>
<!-- Node30&#45;&gt;Node27 -->
<g id="edge111_Node000030_Node000027" class="edge">
<title>Node30&#45;&gt;Node27</title>
<g id="a_edge111_Node000030_Node000027"><a xlink:title=" ">
<path fill="none" stroke="#63b8ff" d="M363.32,-83.5C394.3,-83.5 434.58,-83.5 461.32,-83.5"/>
<polygon fill="#63b8ff" stroke="#63b8ff" points="363.21,-80 353.21,-83.5 363.21,-87 363.21,-80"/>
</a>
</g>
</g>
<!-- Node32 -->
<g id="Node000032" class="node">
<title>Node32</title>
<g id="a_Node000032"><a xlink:href="classDaqTrigger.html" target="_top" xlink:title=" ">
<polygon fill="white" stroke="#666666" points="525.5,-56 456.5,-56 456.5,-37 525.5,-37 525.5,-56"/>
<text text-anchor="middle" x="491" y="-44" font-family="Helvetica,sans-Serif" font-size="10.00">DaqTrigger</text>
</a>
</g>
</g>
<!-- Node32&#45;&gt;Node25 -->
<g id="edge112_Node000032_Node000025" class="edge">
<title>Node32&#45;&gt;Node25</title>
<g id="a_edge112_Node000032_Node000025"><a xlink:title=" ">
<path fill="none" stroke="#63b8ff" d="M535.89,-51.51C563.53,-54.66 598.71,-58.68 624.28,-61.6"/>
<polygon fill="#63b8ff" stroke="#63b8ff" points="536.03,-48 525.69,-50.34 535.23,-54.96 536.03,-48"/>
</a>
</g>
</g>
<!-- Node15 -->
<g id="Node000015" class="node">
<title>Node15</title>
<g id="a_Node000015"><a xlink:href="classMpsMsgCore.html" target="_top" xlink:title=" ">
<polygon fill="white" stroke="#666666" points="531,-389 451,-389 451,-370 531,-370 531,-389"/>
<text text-anchor="middle" x="491" y="-377" font-family="Helvetica,sans-Serif" font-size="10.00">MpsMsgCore</text>
</a>
</g>
</g>
<!-- Node15&#45;&gt;Node10 -->
<g id="edge113_Node000015_Node000010" class="edge">
<title>Node15&#45;&gt;Node10</title>
<g id="a_edge113_Node000015_Node000010"><a xlink:title=" ">
<path fill="none" stroke="#63b8ff" d="M540.89,-368.64C564.58,-363.37 592.77,-357.11 615.62,-352.03"/>
<polygon fill="#63b8ff" stroke="#63b8ff" points="540.04,-365.24 531.04,-370.83 541.56,-372.07 540.04,-365.24"/>
</a>
</g>
</g>
</g>
</svg>
