<?xml version="1.0" encoding="UTF-8" standalone="no"?>
<!DOCTYPE svg PUBLIC "-//W3C//DTD SVG 1.1//EN"
 "http://www.w3.org/Graphics/SVG/1.1/DTD/svg11.dtd">
<!-- Generated by graphviz version 2.43.0 (0)
 -->
<!-- Title: Graphical Class Hierarchy Pages: 1 -->
<svg width="181pt" height="66pt"
 viewBox="0.00 0.00 181.00 66.00" xmlns="http://www.w3.org/2000/svg" xmlns:xlink="http://www.w3.org/1999/xlink">
<g id="graph0" class="graph" transform="scale(1 1) rotate(0) translate(4 62)">
<title>Graphical Class Hierarchy</title>
<polygon fill="white" stroke="transparent" points="-4,4 -4,-62 177,-62 177,4 -4,4"/>
<!-- Node88 -->
<g id="node1" class="node">
<title>Node88</title>
<g id="a_node1"><a xlink:href="classAppMsgIb.html" target="_top" xlink:title=" ">
<polygon fill="white" stroke="black" points="2,-38.5 2,-57.5 67,-57.5 67,-38.5 2,-38.5"/>
<text text-anchor="middle" x="34.5" y="-45.5" font-family="Helvetica,sans-Serif" font-size="10.00">AppMsgIb</text>
</a>
</g>
</g>
<!-- Node1 -->
<g id="node2" class="node">
<title>Node1</title>
<g id="a_node2"><a xlink:href="classAppMsgTb.html" target="_top" xlink:title=" ">
<polygon fill="white" stroke="black" points="105,-19.5 105,-38.5 173,-38.5 173,-19.5 105,-19.5"/>
<text text-anchor="middle" x="139" y="-26.5" font-family="Helvetica,sans-Serif" font-size="10.00">AppMsgTb</text>
</a>
</g>
</g>
<!-- Node88&#45;&gt;Node1 -->
<g id="edge1" class="edge">
<title>Node88&#45;&gt;Node1</title>
<path fill="none" stroke="midnightblue" d="M76.95,-40.32C86.25,-38.59 96.01,-36.78 104.92,-35.13"/>
<polygon fill="midnightblue" stroke="midnightblue" points="76.28,-36.88 67.09,-42.14 77.56,-43.76 76.28,-36.88"/>
</g>
<!-- Node0 -->
<g id="node3" class="node">
<title>Node0</title>
<g id="a_node3"><a xlink:href="classAppMsgOb.html" target="_top" xlink:title=" ">
<polygon fill="white" stroke="black" points="0,-0.5 0,-19.5 69,-19.5 69,-0.5 0,-0.5"/>
<text text-anchor="middle" x="34.5" y="-7.5" font-family="Helvetica,sans-Serif" font-size="10.00">AppMsgOb</text>
</a>
</g>
</g>
<!-- Node0&#45;&gt;Node1 -->
<g id="edge2" class="edge">
<title>Node0&#45;&gt;Node1</title>
<path fill="none" stroke="midnightblue" d="M78.98,-18.06C87.59,-19.66 96.5,-21.31 104.71,-22.83"/>
<polygon fill="midnightblue" stroke="midnightblue" points="79.53,-14.6 69.06,-16.22 78.26,-21.49 79.53,-14.6"/>
</g>
</g>
</svg>
