<?xml version="1.0" encoding="UTF-8" standalone="no"?>
<!DOCTYPE svg PUBLIC "-//W3C//DTD SVG 1.1//EN"
 "http://www.w3.org/Graphics/SVG/1.1/DTD/svg11.dtd">
<!-- Generated by graphviz version 2.43.0 (0)
 -->
<!-- Title: Graphical Class Hierarchy Pages: 1 -->
<svg width="574pt" height="175pt"
 viewBox="0.00 0.00 574.00 175.00" xmlns="http://www.w3.org/2000/svg" xmlns:xlink="http://www.w3.org/1999/xlink">
<g id="graph0" class="graph" transform="scale(1 1) rotate(0) translate(4 171)">
<title>Graphical Class Hierarchy</title>
<!-- Node0 -->
<g id="Node000000" class="node">
<title>Node0</title>
<g id="a_Node000000"><a xlink:href="classAd9229Deserializer.html" target="_top" xlink:title=" ">
<polygon fill="white" stroke="#666666" points="112,-167 0,-167 0,-148 112,-148 112,-167"/>
<text text-anchor="middle" x="56" y="-155" font-family="Helvetica,sans-Serif" font-size="10.00">Ad9229Deserializer</text>
</a>
</g>
</g>
<!-- Node1 -->
<g id="Node000001" class="node">
<title>Node1</title>
<g id="a_Node000001"><a xlink:href="classAd9229Core.html" target="_top" xlink:title=" ">
<polygon fill="white" stroke="#666666" points="257.5,-167 181.5,-167 181.5,-148 257.5,-148 257.5,-167"/>
<text text-anchor="middle" x="219.5" y="-155" font-family="Helvetica,sans-Serif" font-size="10.00">Ad9229Core</text>
</a>
</g>
</g>
<!-- Node0&#45;&gt;Node1 -->
<g id="edge1_Node000000_Node000001" class="edge">
<title>Node0&#45;&gt;Node1</title>
<g id="a_edge1_Node000000_Node000001"><a xlink:title=" ">
<path fill="none" stroke="#63b8ff" d="M122.2,-157.5C142.35,-157.5 163.83,-157.5 181.39,-157.5"/>
<polygon fill="#63b8ff" stroke="#63b8ff" points="122.13,-154 112.13,-157.5 122.13,-161 122.13,-154"/>
</a>
</g>
</g>
<!-- Node2 -->
<g id="Node000002" class="node">
<title>Node2</title>
<g id="a_Node000002"><a xlink:href="classRtmRfInterlockCore.html" target="_top" xlink:title=" ">
<polygon fill="white" stroke="#666666" points="440,-93 327,-93 327,-74 440,-74 440,-93"/>
<text text-anchor="middle" x="383.5" y="-81" font-family="Helvetica,sans-Serif" font-size="10.00">RtmRfInterlockCore</text>
</a>
</g>
</g>
<!-- Node1&#45;&gt;Node2 -->
<g id="edge2_Node000001_Node000002" class="edge">
<title>Node1&#45;&gt;Node2</title>
<g id="a_edge2_Node000001_Node000002"><a xlink:title=" ">
<path fill="none" stroke="#63b8ff" d="M267.69,-147.54C275.6,-145.28 283.64,-142.61 291,-139.5 320.85,-126.89 352.4,-105.55 369.54,-93.18"/>
<polygon fill="#63b8ff" stroke="#63b8ff" points="266.53,-144.23 257.77,-150.19 268.34,-150.99 266.53,-144.23"/>
</a>
</g>
</g>
<!-- Node3 -->
<g id="Node000003" class="node">
<title>Node3</title>
<g id="a_Node000003"><a xlink:href="classRtmRfInterlock.html" target="_top" xlink:title=" ">
<polygon fill="white" stroke="#666666" points="566,-93 476,-93 476,-74 566,-74 566,-93"/>
<text text-anchor="middle" x="521" y="-81" font-family="Helvetica,sans-Serif" font-size="10.00">RtmRfInterlock</text>
</a>
</g>
</g>
<!-- Node2&#45;&gt;Node3 -->
<g id="edge3_Node000002_Node000003" class="edge">
<title>Node2&#45;&gt;Node3</title>
<g id="a_edge3_Node000002_Node000003"><a xlink:title=" ">
<path fill="none" stroke="#63b8ff" d="M450.21,-83.5C458.95,-83.5 467.73,-83.5 475.98,-83.5"/>
<polygon fill="#63b8ff" stroke="#63b8ff" points="450,-80 440,-83.5 450,-87 450,-80"/>
</a>
</g>
</g>
<!-- Node5 -->
<g id="Node000005" class="node">
<title>Node5</title>
<g id="a_Node000005"><a xlink:href="classAxiSpiAd7682Reg.html" target="_top" xlink:title=" ">
<polygon fill="white" stroke="#666666" points="107.5,-130 4.5,-130 4.5,-111 107.5,-111 107.5,-130"/>
<text text-anchor="middle" x="56" y="-118" font-family="Helvetica,sans-Serif" font-size="10.00">AxiSpiAd7682Reg</text>
</a>
</g>
</g>
<!-- Node4 -->
<g id="Node000004" class="node">
<title>Node4</title>
<g id="a_Node000004"><a xlink:href="classAxiSpiAd7682.html" target="_top" xlink:title=" ">
<polygon fill="white" stroke="#666666" points="261.5,-130 177.5,-130 177.5,-111 261.5,-111 261.5,-130"/>
<text text-anchor="middle" x="219.5" y="-118" font-family="Helvetica,sans-Serif" font-size="10.00">AxiSpiAd7682</text>
</a>
</g>
</g>
<!-- Node5&#45;&gt;Node4 -->
<g id="edge4_Node000005_Node000004" class="edge">
<title>Node5&#45;&gt;Node4</title>
<g id="a_edge4_Node000005_Node000004"><a xlink:title=" ">
<path fill="none" stroke="#63b8ff" d="M117.88,-120.5C137.78,-120.5 159.4,-120.5 177.48,-120.5"/>
<polygon fill="#63b8ff" stroke="#63b8ff" points="117.66,-117 107.66,-120.5 117.66,-124 117.66,-117"/>
</a>
</g>
</g>
<!-- Node4&#45;&gt;Node2 -->
<g id="edge5_Node000004_Node000002" class="edge">
<title>Node4&#45;&gt;Node2</title>
<g id="a_edge5_Node000004_Node000002"><a xlink:title=" ">
<path fill="none" stroke="#63b8ff" d="M271.74,-108.8C293.97,-103.72 319.67,-97.85 340.71,-93.04"/>
<polygon fill="#63b8ff" stroke="#63b8ff" points="270.77,-105.43 261.8,-111.07 272.33,-112.25 270.77,-105.43"/>
</a>
</g>
</g>
<!-- Node6 -->
<g id="Node000006" class="node">
<title>Node6</title>
<g id="a_Node000006"><a xlink:href="classRingBufferCtrl.html" target="_top" xlink:title=" ">
<polygon fill="white" stroke="#666666" points="262,-93 177,-93 177,-74 262,-74 262,-93"/>
<text text-anchor="middle" x="219.5" y="-81" font-family="Helvetica,sans-Serif" font-size="10.00">RingBufferCtrl</text>
</a>
</g>
</g>
<!-- Node6&#45;&gt;Node2 -->
<g id="edge6_Node000006_Node000002" class="edge">
<title>Node6&#45;&gt;Node2</title>
<g id="a_edge6_Node000006_Node000002"><a xlink:title=" ">
<path fill="none" stroke="#63b8ff" d="M272.7,-83.5C290,-83.5 309.32,-83.5 326.87,-83.5"/>
<polygon fill="#63b8ff" stroke="#63b8ff" points="272.22,-80 262.22,-83.5 272.22,-87 272.22,-80"/>
</a>
</g>
</g>
<!-- Node7 -->
<g id="Node000007" class="node">
<title>Node7</title>
<g id="a_Node000007"><a xlink:href="classRtmRfInterlockFaultBuffer.html" target="_top" xlink:title=" ">
<polygon fill="white" stroke="#666666" points="291,-56 148,-56 148,-37 291,-37 291,-56"/>
<text text-anchor="middle" x="219.5" y="-44" font-family="Helvetica,sans-Serif" font-size="10.00">RtmRfInterlockFaultBuffer</text>
</a>
</g>
</g>
<!-- Node7&#45;&gt;Node2 -->
<g id="edge7_Node000007_Node000002" class="edge">
<title>Node7&#45;&gt;Node2</title>
<g id="a_edge7_Node000007_Node000002"><a xlink:title=" ">
<path fill="none" stroke="#63b8ff" d="M272.11,-58.29C294.23,-63.34 319.73,-69.16 340.64,-73.94"/>
<polygon fill="#63b8ff" stroke="#63b8ff" points="272.75,-54.84 262.22,-56.03 271.19,-61.67 272.75,-54.84"/>
</a>
</g>
</g>
<!-- Node8 -->
<g id="Node000008" class="node">
<title>Node8</title>
<g id="a_Node000008"><a xlink:href="classRtmRfInterlockReg.html" target="_top" xlink:title=" ">
<polygon fill="white" stroke="#666666" points="274,-19 165,-19 165,0 274,0 274,-19"/>
<text text-anchor="middle" x="219.5" y="-7" font-family="Helvetica,sans-Serif" font-size="10.00">RtmRfInterlockReg</text>
</a>
</g>
</g>
<!-- Node8&#45;&gt;Node2 -->
<g id="edge8_Node000008_Node000002" class="edge">
<title>Node8&#45;&gt;Node2</title>
<g id="a_edge8_Node000008_Node000002"><a xlink:title=" ">
<path fill="none" stroke="#63b8ff" d="M276.12,-22.02C281.22,-23.67 286.25,-25.49 291,-27.5 320.85,-40.11 352.4,-61.45 369.54,-73.82"/>
<polygon fill="#63b8ff" stroke="#63b8ff" points="276.88,-18.59 266.29,-19.06 274.86,-25.29 276.88,-18.59"/>
</a>
</g>
</g>
</g>
</svg>
