<?xml version="1.0" encoding="UTF-8" standalone="no"?>
<!DOCTYPE svg PUBLIC "-//W3C//DTD SVG 1.1//EN"
 "http://www.w3.org/Graphics/SVG/1.1/DTD/svg11.dtd">
<!-- Generated by graphviz version 2.43.0 (0)
 -->
<!-- Title: Graphical Class Hierarchy Pages: 1 -->
<svg width="449pt" height="180pt"
 viewBox="0.00 0.00 449.00 180.00" xmlns="http://www.w3.org/2000/svg" xmlns:xlink="http://www.w3.org/1999/xlink">
<g id="graph0" class="graph" transform="scale(1 1) rotate(0) translate(4 176)">
<title>Graphical Class Hierarchy</title>
<polygon fill="white" stroke="transparent" points="-4,4 -4,-176 445,-176 445,4 -4,4"/>
<!-- Node109 -->
<g id="node1" class="node">
<title>Node109</title>
<g id="a_node1"><a xlink:href="classAmcMpsSfpHsRepeater.html" target="_top" xlink:title=" ">
<polygon fill="white" stroke="black" points="0,-114.5 0,-133.5 131,-133.5 131,-114.5 0,-114.5"/>
<text text-anchor="middle" x="65.5" y="-121.5" font-family="Helvetica,sans-Serif" font-size="10.00">AmcMpsSfpHsRepeater</text>
</a>
</g>
</g>
<!-- Node1 -->
<g id="node2" class="node">
<title>Node1</title>
<g id="a_node2"><a xlink:href="classAmcMpsSfpCore.html" target="_top" xlink:title=" ">
<polygon fill="white" stroke="black" points="178,-114.5 178,-133.5 275,-133.5 275,-114.5 178,-114.5"/>
<text text-anchor="middle" x="226.5" y="-121.5" font-family="Helvetica,sans-Serif" font-size="10.00">AmcMpsSfpCore</text>
</a>
</g>
</g>
<!-- Node109&#45;&gt;Node1 -->
<g id="edge1" class="edge">
<title>Node109&#45;&gt;Node1</title>
<path fill="none" stroke="midnightblue" d="M141.53,-124C153.93,-124 166.48,-124 177.96,-124"/>
<polygon fill="midnightblue" stroke="midnightblue" points="141.17,-120.5 131.17,-124 141.17,-127.5 141.17,-120.5"/>
</g>
<!-- Node2 -->
<g id="node3" class="node">
<title>Node2</title>
<g id="a_node3"><a xlink:href="classAmcMpsSfpDualCore.html" target="_top" xlink:title=" ">
<polygon fill="white" stroke="black" points="322,-114.5 322,-133.5 441,-133.5 441,-114.5 322,-114.5"/>
<text text-anchor="middle" x="381.5" y="-121.5" font-family="Helvetica,sans-Serif" font-size="10.00">AmcMpsSfpDualCore</text>
</a>
</g>
</g>
<!-- Node1&#45;&gt;Node2 -->
<g id="edge2" class="edge">
<title>Node1&#45;&gt;Node2</title>
<path fill="none" stroke="midnightblue" d="M285.38,-124C297.33,-124 309.93,-124 321.91,-124"/>
<polygon fill="midnightblue" stroke="midnightblue" points="285.07,-120.5 275.07,-124 285.07,-127.5 285.07,-120.5"/>
</g>
<!-- Node108 -->
<g id="node4" class="node">
<title>Node108</title>
<g id="a_node4"><a xlink:href="classAmcMpsSfpMon.html" target="_top" xlink:title=" ">
<polygon fill="white" stroke="black" points="18,-152.5 18,-171.5 113,-171.5 113,-152.5 18,-152.5"/>
<text text-anchor="middle" x="65.5" y="-159.5" font-family="Helvetica,sans-Serif" font-size="10.00">AmcMpsSfpMon</text>
</a>
</g>
</g>
<!-- Node108&#45;&gt;Node1 -->
<g id="edge3" class="edge">
<title>Node108&#45;&gt;Node1</title>
<path fill="none" stroke="midnightblue" d="M116.58,-150.03C138.86,-144.71 164.73,-138.52 185.67,-133.52"/>
<polygon fill="midnightblue" stroke="midnightblue" points="115.53,-146.68 106.62,-152.41 117.16,-153.49 115.53,-146.68"/>
</g>
<!-- Node18 -->
<g id="node5" class="node">
<title>Node18</title>
<g id="a_node5"><a xlink:href="classRtmDigitalDebugDin.html" target="_top" xlink:title=" ">
<polygon fill="white" stroke="black" points="7,-0.5 7,-19.5 124,-19.5 124,-0.5 7,-0.5"/>
<text text-anchor="middle" x="65.5" y="-7.5" font-family="Helvetica,sans-Serif" font-size="10.00">RtmDigitalDebugDin</text>
</a>
</g>
</g>
<!-- Node3 -->
<g id="node6" class="node">
<title>Node3</title>
<g id="a_node6"><a xlink:href="classRtmDigitalDebugV2.html" target="_top" xlink:title=" ">
<polygon fill="white" stroke="black" points="170,-38.5 170,-57.5 283,-57.5 283,-38.5 170,-38.5"/>
<text text-anchor="middle" x="226.5" y="-45.5" font-family="Helvetica,sans-Serif" font-size="10.00">RtmDigitalDebugV2</text>
</a>
</g>
</g>
<!-- Node18&#45;&gt;Node3 -->
<g id="edge4" class="edge">
<title>Node18&#45;&gt;Node3</title>
<path fill="none" stroke="midnightblue" d="M116.58,-21.97C138.86,-27.29 164.73,-33.48 185.67,-38.48"/>
<polygon fill="midnightblue" stroke="midnightblue" points="117.16,-18.51 106.62,-19.59 115.53,-25.32 117.16,-18.51"/>
</g>
<!-- Node17 -->
<g id="node7" class="node">
<title>Node17</title>
<g id="a_node7"><a xlink:href="classRtmDigitalDebugV2b.html" target="_top" xlink:title=" ">
<polygon fill="white" stroke="black" points="167,-0.5 167,-19.5 286,-19.5 286,-0.5 167,-0.5"/>
<text text-anchor="middle" x="226.5" y="-7.5" font-family="Helvetica,sans-Serif" font-size="10.00">RtmDigitalDebugV2b</text>
</a>
</g>
</g>
<!-- Node18&#45;&gt;Node17 -->
<g id="edge5" class="edge">
<title>Node18&#45;&gt;Node17</title>
<path fill="none" stroke="midnightblue" d="M134.56,-10C145.32,-10 156.37,-10 166.89,-10"/>
<polygon fill="midnightblue" stroke="midnightblue" points="134.35,-6.5 124.35,-10 134.35,-13.5 134.35,-6.5"/>
</g>
<!-- Node16 -->
<g id="node8" class="node">
<title>Node16</title>
<g id="a_node8"><a xlink:href="classRtmDigitalDebugDout.html" target="_top" xlink:title=" ">
<polygon fill="white" stroke="black" points="3.5,-38.5 3.5,-57.5 127.5,-57.5 127.5,-38.5 3.5,-38.5"/>
<text text-anchor="middle" x="65.5" y="-45.5" font-family="Helvetica,sans-Serif" font-size="10.00">RtmDigitalDebugDout</text>
</a>
</g>
</g>
<!-- Node16&#45;&gt;Node3 -->
<g id="edge6" class="edge">
<title>Node16&#45;&gt;Node3</title>
<path fill="none" stroke="midnightblue" d="M137.75,-48C148.52,-48 159.48,-48 169.85,-48"/>
<polygon fill="midnightblue" stroke="midnightblue" points="137.52,-44.5 127.52,-48 137.52,-51.5 137.52,-44.5"/>
</g>
<!-- Node16&#45;&gt;Node17 -->
<g id="edge7" class="edge">
<title>Node16&#45;&gt;Node17</title>
<path fill="none" stroke="midnightblue" d="M116.58,-36.03C138.86,-30.71 164.73,-24.52 185.67,-19.52"/>
<polygon fill="midnightblue" stroke="midnightblue" points="115.53,-32.68 106.62,-38.41 117.16,-39.49 115.53,-32.68"/>
</g>
<!-- Node0 -->
<g id="node9" class="node">
<title>Node0</title>
<g id="a_node9"><a xlink:href="classSi5317a.html" target="_top" xlink:title=" ">
<polygon fill="white" stroke="black" points="37.5,-76.5 37.5,-95.5 93.5,-95.5 93.5,-76.5 37.5,-76.5"/>
<text text-anchor="middle" x="65.5" y="-83.5" font-family="Helvetica,sans-Serif" font-size="10.00">Si5317a</text>
</a>
</g>
</g>
<!-- Node0&#45;&gt;Node1 -->
<g id="edge8" class="edge">
<title>Node0&#45;&gt;Node1</title>
<path fill="none" stroke="midnightblue" d="M103.87,-94.93C128.48,-100.81 160.65,-108.5 185.73,-114.49"/>
<polygon fill="midnightblue" stroke="midnightblue" points="104.37,-91.45 93.83,-92.53 102.75,-98.26 104.37,-91.45"/>
</g>
<!-- Node0&#45;&gt;Node3 -->
<g id="edge9" class="edge">
<title>Node0&#45;&gt;Node3</title>
<path fill="none" stroke="midnightblue" d="M103.87,-77.07C128.48,-71.19 160.65,-63.5 185.73,-57.51"/>
<polygon fill="midnightblue" stroke="midnightblue" points="102.75,-73.74 93.83,-79.47 104.37,-80.55 102.75,-73.74"/>
</g>
</g>
</svg>
