<?xml version="1.0" encoding="UTF-8" standalone="no"?>
<!DOCTYPE svg PUBLIC "-//W3C//DTD SVG 1.1//EN"
 "http://www.w3.org/Graphics/SVG/1.1/DTD/svg11.dtd">
<!-- Generated by graphviz version 2.43.0 (0)
 -->
<!-- Title: Graphical Class Hierarchy Pages: 1 -->
<svg width="181pt" height="64pt"
 viewBox="0.00 0.00 181.00 64.00" xmlns="http://www.w3.org/2000/svg" xmlns:xlink="http://www.w3.org/1999/xlink">
<g id="graph0" class="graph" transform="scale(1 1) rotate(0) translate(4 60)">
<title>Graphical Class Hierarchy</title>
<!-- Node0 -->
<g id="Node000000" class="node">
<title>Node0</title>
<g id="a_Node000000"><a xlink:href="classAppMsgIb.html" target="_top" xlink:title=" ">
<polygon fill="white" stroke="#666666" points="67,-56 2,-56 2,-37 67,-37 67,-56"/>
<text text-anchor="middle" x="34.5" y="-44" font-family="Helvetica,sans-Serif" font-size="10.00">AppMsgIb</text>
</a>
</g>
</g>
<!-- Node1 -->
<g id="Node000001" class="node">
<title>Node1</title>
<g id="a_Node000001"><a xlink:href="classAppMsgTb.html" target="_top" xlink:title=" ">
<polygon fill="white" stroke="#666666" points="173,-37 105,-37 105,-18 173,-18 173,-37"/>
<text text-anchor="middle" x="139" y="-25" font-family="Helvetica,sans-Serif" font-size="10.00">AppMsgTb</text>
</a>
</g>
</g>
<!-- Node0&#45;&gt;Node1 -->
<g id="edge127_Node000000_Node000001" class="edge">
<title>Node0&#45;&gt;Node1</title>
<g id="a_edge127_Node000000_Node000001"><a xlink:title=" ">
<path fill="none" stroke="#63b8ff" d="M76.95,-38.82C86.25,-37.09 96.01,-35.28 104.92,-33.63"/>
<polygon fill="#63b8ff" stroke="#63b8ff" points="76.28,-35.38 67.09,-40.64 77.56,-42.26 76.28,-35.38"/>
</a>
</g>
</g>
<!-- Node2 -->
<g id="Node000002" class="node">
<title>Node2</title>
<g id="a_Node000002"><a xlink:href="classAppMsgOb.html" target="_top" xlink:title=" ">
<polygon fill="white" stroke="#666666" points="69,-19 0,-19 0,0 69,0 69,-19"/>
<text text-anchor="middle" x="34.5" y="-7" font-family="Helvetica,sans-Serif" font-size="10.00">AppMsgOb</text>
</a>
</g>
</g>
<!-- Node2&#45;&gt;Node1 -->
<g id="edge128_Node000002_Node000001" class="edge">
<title>Node2&#45;&gt;Node1</title>
<g id="a_edge128_Node000002_Node000001"><a xlink:title=" ">
<path fill="none" stroke="#63b8ff" d="M78.98,-17.13C87.59,-18.65 96.5,-20.21 104.71,-21.65"/>
<polygon fill="#63b8ff" stroke="#63b8ff" points="79.52,-13.68 69.06,-15.39 78.31,-20.57 79.52,-13.68"/>
</a>
</g>
</g>
</g>
</svg>
