<?xml version="1.0" encoding="UTF-8" standalone="no"?>
<!DOCTYPE svg PUBLIC "-//W3C//DTD SVG 1.1//EN"
 "http://www.w3.org/Graphics/SVG/1.1/DTD/svg11.dtd">
<!-- Generated by graphviz version 2.43.0 (0)
 -->
<!-- Title: Graphical Class Hierarchy Pages: 1 -->
<svg width="615pt" height="560pt"
 viewBox="0.00 0.00 615.00 560.00" xmlns="http://www.w3.org/2000/svg" xmlns:xlink="http://www.w3.org/1999/xlink">
<g id="graph0" class="graph" transform="scale(1 1) rotate(0) translate(4 556)">
<title>Graphical Class Hierarchy</title>
<polygon fill="white" stroke="transparent" points="-4,4 -4,-556 611,-556 611,4 -4,4"/>
<!-- Node125 -->
<g id="node1" class="node">
<title>Node125</title>
<g id="a_node1"><a xlink:href="classadf5355.html" target="_top" xlink:title=" ">
<polygon fill="white" stroke="black" points="67.5,-532.5 67.5,-551.5 123.5,-551.5 123.5,-532.5 67.5,-532.5"/>
<text text-anchor="middle" x="95.5" y="-539.5" font-family="Helvetica,sans-Serif" font-size="10.00">adf5355</text>
</a>
</g>
</g>
<!-- Node126 -->
<g id="node2" class="node">
<title>Node126</title>
<g id="a_node2"><a xlink:href="classAdf5355Tb.html" target="_top" xlink:title=" ">
<polygon fill="white" stroke="black" points="285.5,-532.5 285.5,-551.5 354.5,-551.5 354.5,-532.5 285.5,-532.5"/>
<text text-anchor="middle" x="320" y="-539.5" font-family="Helvetica,sans-Serif" font-size="10.00">Adf5355Tb</text>
</a>
</g>
</g>
<!-- Node125&#45;&gt;Node126 -->
<g id="edge1" class="edge">
<title>Node125&#45;&gt;Node126</title>
<path fill="none" stroke="midnightblue" d="M133.95,-542C176.29,-542 244.6,-542 285.31,-542"/>
<polygon fill="midnightblue" stroke="midnightblue" points="133.78,-538.5 123.78,-542 133.78,-545.5 133.78,-538.5"/>
</g>
<!-- Node47 -->
<g id="node3" class="node">
<title>Node47</title>
<g id="a_node3"><a xlink:href="classAmcMicrowaveMuxCore.html" target="_top" xlink:title=" ">
<polygon fill="white" stroke="black" points="252.5,-456.5 252.5,-475.5 387.5,-475.5 387.5,-456.5 252.5,-456.5"/>
<text text-anchor="middle" x="320" y="-463.5" font-family="Helvetica,sans-Serif" font-size="10.00">AmcMicrowaveMuxCore</text>
</a>
</g>
</g>
<!-- Node125&#45;&gt;Node47 -->
<g id="edge2" class="edge">
<title>Node125&#45;&gt;Node47</title>
<path fill="none" stroke="midnightblue" d="M133.69,-536.47C151.3,-533.37 172.47,-528.91 191,-523 231.56,-510.07 276.48,-488.18 300.85,-475.62"/>
<polygon fill="midnightblue" stroke="midnightblue" points="133.06,-533.03 123.79,-538.15 134.23,-539.93 133.06,-533.03"/>
</g>
<!-- Node48 -->
<g id="node4" class="node">
<title>Node48</title>
<g id="a_node4"><a xlink:href="classAmcMicrowaveMuxDualCore.html" target="_top" xlink:title=" ">
<polygon fill="white" stroke="black" points="449,-456.5 449,-475.5 607,-475.5 607,-456.5 449,-456.5"/>
<text text-anchor="middle" x="528" y="-463.5" font-family="Helvetica,sans-Serif" font-size="10.00">AmcMicrowaveMuxDualCore</text>
</a>
</g>
</g>
<!-- Node47&#45;&gt;Node48 -->
<g id="edge3" class="edge">
<title>Node47&#45;&gt;Node48</title>
<path fill="none" stroke="midnightblue" d="M397.82,-466C414.47,-466 432.09,-466 448.79,-466"/>
<polygon fill="midnightblue" stroke="midnightblue" points="397.6,-462.5 387.6,-466 397.6,-469.5 397.6,-462.5"/>
</g>
<!-- Node124 -->
<g id="node5" class="node">
<title>Node124</title>
<g id="a_node5"><a xlink:href="classAmcBpmCtrl.html" target="_top" xlink:title=" ">
<polygon fill="white" stroke="black" points="56.5,-380.5 56.5,-399.5 134.5,-399.5 134.5,-380.5 56.5,-380.5"/>
<text text-anchor="middle" x="95.5" y="-387.5" font-family="Helvetica,sans-Serif" font-size="10.00">AmcBpmCtrl</text>
</a>
</g>
</g>
<!-- Node53 -->
<g id="node6" class="node">
<title>Node53</title>
<g id="a_node6"><a xlink:href="classAmcStriplineBpmCore.html" target="_top" xlink:title=" ">
<polygon fill="white" stroke="black" points="258,-418.5 258,-437.5 382,-437.5 382,-418.5 258,-418.5"/>
<text text-anchor="middle" x="320" y="-425.5" font-family="Helvetica,sans-Serif" font-size="10.00">AmcStriplineBpmCore</text>
</a>
</g>
</g>
<!-- Node124&#45;&gt;Node53 -->
<g id="edge4" class="edge">
<title>Node124&#45;&gt;Node53</title>
<path fill="none" stroke="midnightblue" d="M144.7,-398.23C179.59,-404.19 226.84,-412.26 263.34,-418.49"/>
<polygon fill="midnightblue" stroke="midnightblue" points="145.2,-394.77 134.75,-396.53 144.02,-401.67 145.2,-394.77"/>
</g>
<!-- Node54 -->
<g id="node7" class="node">
<title>Node54</title>
<g id="a_node7"><a xlink:href="classAmcStriplineBpmDualCore.html" target="_top" xlink:title=" ">
<polygon fill="white" stroke="black" points="455,-418.5 455,-437.5 601,-437.5 601,-418.5 455,-418.5"/>
<text text-anchor="middle" x="528" y="-425.5" font-family="Helvetica,sans-Serif" font-size="10.00">AmcStriplineBpmDualCore</text>
</a>
</g>
</g>
<!-- Node53&#45;&gt;Node54 -->
<g id="edge5" class="edge">
<title>Node53&#45;&gt;Node54</title>
<path fill="none" stroke="midnightblue" d="M392.31,-428C412.5,-428 434.49,-428 454.73,-428"/>
<polygon fill="midnightblue" stroke="midnightblue" points="392.25,-424.5 382.25,-428 392.25,-431.5 392.25,-424.5"/>
</g>
<!-- Node123 -->
<g id="node8" class="node">
<title>Node123</title>
<g id="a_node8"><a xlink:href="classAmcBpmDacVcoSpi.html" target="_top" xlink:title=" ">
<polygon fill="white" stroke="black" points="39,-418.5 39,-437.5 152,-437.5 152,-418.5 39,-418.5"/>
<text text-anchor="middle" x="95.5" y="-425.5" font-family="Helvetica,sans-Serif" font-size="10.00">AmcBpmDacVcoSpi</text>
</a>
</g>
</g>
<!-- Node123&#45;&gt;Node53 -->
<g id="edge6" class="edge">
<title>Node123&#45;&gt;Node53</title>
<path fill="none" stroke="midnightblue" d="M162.12,-428C192.41,-428 228.16,-428 257.88,-428"/>
<polygon fill="midnightblue" stroke="midnightblue" points="162.07,-424.5 152.07,-428 162.07,-431.5 162.07,-424.5"/>
</g>
<!-- Node111 -->
<g id="node9" class="node">
<title>Node111</title>
<g id="a_node9"><a xlink:href="classAmcCryoCoreCtrl.html" target="_top" xlink:title=" ">
<polygon fill="white" stroke="black" points="45,-342.5 45,-361.5 146,-361.5 146,-342.5 45,-342.5"/>
<text text-anchor="middle" x="95.5" y="-349.5" font-family="Helvetica,sans-Serif" font-size="10.00">AmcCryoCoreCtrl</text>
</a>
</g>
</g>
<!-- Node41 -->
<g id="node10" class="node">
<title>Node41</title>
<g id="a_node10"><a xlink:href="classAmcCryoCore.html" target="_top" xlink:title=" ">
<polygon fill="white" stroke="black" points="278.5,-380.5 278.5,-399.5 361.5,-399.5 361.5,-380.5 278.5,-380.5"/>
<text text-anchor="middle" x="320" y="-387.5" font-family="Helvetica,sans-Serif" font-size="10.00">AmcCryoCore</text>
</a>
</g>
</g>
<!-- Node111&#45;&gt;Node41 -->
<g id="edge7" class="edge">
<title>Node111&#45;&gt;Node41</title>
<path fill="none" stroke="midnightblue" d="M156.25,-362.2C194.93,-368.81 244.26,-377.23 278.42,-383.07"/>
<polygon fill="midnightblue" stroke="midnightblue" points="156.6,-358.71 146.16,-360.48 155.42,-365.61 156.6,-358.71"/>
</g>
<!-- Node42 -->
<g id="node11" class="node">
<title>Node42</title>
<g id="a_node11"><a xlink:href="classAmcCryoDualCore.html" target="_top" xlink:title=" ">
<polygon fill="white" stroke="black" points="475,-380.5 475,-399.5 581,-399.5 581,-380.5 475,-380.5"/>
<text text-anchor="middle" x="528" y="-387.5" font-family="Helvetica,sans-Serif" font-size="10.00">AmcCryoDualCore</text>
</a>
</g>
</g>
<!-- Node41&#45;&gt;Node42 -->
<g id="edge8" class="edge">
<title>Node41&#45;&gt;Node42</title>
<path fill="none" stroke="midnightblue" d="M371.94,-390C403.2,-390 443.13,-390 474.64,-390"/>
<polygon fill="midnightblue" stroke="midnightblue" points="371.7,-386.5 361.7,-390 371.7,-393.5 371.7,-386.5"/>
</g>
<!-- Node108 -->
<g id="node12" class="node">
<title>Node108</title>
<g id="a_node12"><a xlink:href="classAmcGenericAdcDacCtrl.html" target="_top" xlink:title=" ">
<polygon fill="white" stroke="black" points="30.5,-114.5 30.5,-133.5 160.5,-133.5 160.5,-114.5 30.5,-114.5"/>
<text text-anchor="middle" x="95.5" y="-121.5" font-family="Helvetica,sans-Serif" font-size="10.00">AmcGenericAdcDacCtrl</text>
</a>
</g>
</g>
<!-- Node45 -->
<g id="node13" class="node">
<title>Node45</title>
<g id="a_node13"><a xlink:href="classAmcGenericAdcDacCore.html" target="_top" xlink:title=" ">
<polygon fill="white" stroke="black" points="252.5,-114.5 252.5,-133.5 387.5,-133.5 387.5,-114.5 252.5,-114.5"/>
<text text-anchor="middle" x="320" y="-121.5" font-family="Helvetica,sans-Serif" font-size="10.00">AmcGenericAdcDacCore</text>
</a>
</g>
</g>
<!-- Node108&#45;&gt;Node45 -->
<g id="edge9" class="edge">
<title>Node108&#45;&gt;Node45</title>
<path fill="none" stroke="midnightblue" d="M170.86,-124C197.2,-124 226.64,-124 252.3,-124"/>
<polygon fill="midnightblue" stroke="midnightblue" points="170.56,-120.5 160.56,-124 170.56,-127.5 170.56,-120.5"/>
</g>
<!-- Node46 -->
<g id="node14" class="node">
<title>Node46</title>
<g id="a_node14"><a xlink:href="classAmcGenericAdcDacDualCore.html" target="_top" xlink:title=" ">
<polygon fill="white" stroke="black" points="449,-114.5 449,-133.5 607,-133.5 607,-114.5 449,-114.5"/>
<text text-anchor="middle" x="528" y="-121.5" font-family="Helvetica,sans-Serif" font-size="10.00">AmcGenericAdcDacDualCore</text>
</a>
</g>
</g>
<!-- Node45&#45;&gt;Node46 -->
<g id="edge10" class="edge">
<title>Node45&#45;&gt;Node46</title>
<path fill="none" stroke="midnightblue" d="M397.82,-124C414.47,-124 432.09,-124 448.79,-124"/>
<polygon fill="midnightblue" stroke="midnightblue" points="397.6,-120.5 387.6,-124 397.6,-127.5 397.6,-120.5"/>
</g>
<!-- Node107 -->
<g id="node15" class="node">
<title>Node107</title>
<g id="a_node15"><a xlink:href="classAmcGenericAdcDacVcoSpi.html" target="_top" xlink:title=" ">
<polygon fill="white" stroke="black" points="22.5,-152.5 22.5,-171.5 168.5,-171.5 168.5,-152.5 22.5,-152.5"/>
<text text-anchor="middle" x="95.5" y="-159.5" font-family="Helvetica,sans-Serif" font-size="10.00">AmcGenericAdcDacVcoSpi</text>
</a>
</g>
</g>
<!-- Node107&#45;&gt;Node45 -->
<g id="edge11" class="edge">
<title>Node107&#45;&gt;Node45</title>
<path fill="none" stroke="midnightblue" d="M162.52,-150.72C194.53,-145.26 232.57,-138.76 263.12,-133.54"/>
<polygon fill="midnightblue" stroke="midnightblue" points="161.63,-147.33 152.36,-152.46 162.81,-154.23 161.63,-147.33"/>
</g>
<!-- Node104 -->
<g id="node16" class="node">
<title>Node104</title>
<g id="a_node16"><a xlink:href="classAmcMicrowaveMuxCoreCtrl.html" target="_top" xlink:title=" ">
<polygon fill="white" stroke="black" points="19.5,-456.5 19.5,-475.5 171.5,-475.5 171.5,-456.5 19.5,-456.5"/>
<text text-anchor="middle" x="95.5" y="-463.5" font-family="Helvetica,sans-Serif" font-size="10.00">AmcMicrowaveMuxCoreCtrl</text>
</a>
</g>
</g>
<!-- Node104&#45;&gt;Node47 -->
<g id="edge12" class="edge">
<title>Node104&#45;&gt;Node47</title>
<path fill="none" stroke="midnightblue" d="M181.75,-466C205.08,-466 230.01,-466 252.15,-466"/>
<polygon fill="midnightblue" stroke="midnightblue" points="181.52,-462.5 171.52,-466 181.52,-469.5 181.52,-462.5"/>
</g>
<!-- Node98 -->
<g id="node17" class="node">
<title>Node98</title>
<g id="a_node17"><a xlink:href="classAmcMrLlrfDownConvertDacMuxReg.html" target="_top" xlink:title=" ">
<polygon fill="white" stroke="black" points="0,-76.5 0,-95.5 191,-95.5 191,-76.5 0,-76.5"/>
<text text-anchor="middle" x="95.5" y="-83.5" font-family="Helvetica,sans-Serif" font-size="10.00">AmcMrLlrfDownConvertDacMuxReg</text>
</a>
</g>
</g>
<!-- Node99 -->
<g id="node18" class="node">
<title>Node99</title>
<g id="a_node18"><a xlink:href="classAmcMrLlrfDownConvertDacMux.html" target="_top" xlink:title=" ">
<polygon fill="white" stroke="black" points="233.5,-76.5 233.5,-95.5 406.5,-95.5 406.5,-76.5 233.5,-76.5"/>
<text text-anchor="middle" x="320" y="-83.5" font-family="Helvetica,sans-Serif" font-size="10.00">AmcMrLlrfDownConvertDacMux</text>
</a>
</g>
</g>
<!-- Node98&#45;&gt;Node99 -->
<g id="edge13" class="edge">
<title>Node98&#45;&gt;Node99</title>
<path fill="none" stroke="midnightblue" d="M201.37,-86C212.04,-86 222.79,-86 233.22,-86"/>
<polygon fill="midnightblue" stroke="midnightblue" points="201.18,-82.5 191.18,-86 201.18,-89.5 201.18,-82.5"/>
</g>
<!-- Node49 -->
<g id="node19" class="node">
<title>Node49</title>
<g id="a_node19"><a xlink:href="classAmcMrLlrfDownConvertCore.html" target="_top" xlink:title=" ">
<polygon fill="white" stroke="black" points="450.5,-190.5 450.5,-209.5 605.5,-209.5 605.5,-190.5 450.5,-190.5"/>
<text text-anchor="middle" x="528" y="-197.5" font-family="Helvetica,sans-Serif" font-size="10.00">AmcMrLlrfDownConvertCore</text>
</a>
</g>
</g>
<!-- Node99&#45;&gt;Node49 -->
<g id="edge14" class="edge">
<title>Node99&#45;&gt;Node49</title>
<path fill="none" stroke="midnightblue" d="M406.04,-100.22C408.46,-101.68 410.79,-103.26 413,-105 442.39,-128.09 420.02,-157.39 449,-181 453.75,-184.87 459.18,-187.98 464.9,-190.46"/>
<polygon fill="midnightblue" stroke="midnightblue" points="407.41,-96.99 396.92,-95.54 404.22,-103.22 407.41,-96.99"/>
</g>
<!-- Node80 -->
<g id="node20" class="node">
<title>Node80</title>
<g id="a_node20"><a xlink:href="classAxiSerAttnMaster.html" target="_top" xlink:title=" ">
<polygon fill="white" stroke="black" points="269,-228.5 269,-247.5 371,-247.5 371,-228.5 269,-228.5"/>
<text text-anchor="middle" x="320" y="-235.5" font-family="Helvetica,sans-Serif" font-size="10.00">AxiSerAttnMaster</text>
</a>
</g>
</g>
<!-- Node80&#45;&gt;Node49 -->
<g id="edge15" class="edge">
<title>Node80&#45;&gt;Node49</title>
<path fill="none" stroke="midnightblue" d="M381.01,-226.93C410.86,-221.42 446.57,-214.84 475.21,-209.55"/>
<polygon fill="midnightblue" stroke="midnightblue" points="380.33,-223.5 371.13,-228.75 381.6,-230.38 380.33,-223.5"/>
</g>
<!-- Node51 -->
<g id="node21" class="node">
<title>Node51</title>
<g id="a_node21"><a xlink:href="classAmcMrLlrfGen2UpConvert.html" target="_top" xlink:title=" ">
<polygon fill="white" stroke="black" points="456,-247.5 456,-266.5 600,-266.5 600,-247.5 456,-247.5"/>
<text text-anchor="middle" x="528" y="-254.5" font-family="Helvetica,sans-Serif" font-size="10.00">AmcMrLlrfGen2UpConvert</text>
</a>
</g>
</g>
<!-- Node80&#45;&gt;Node51 -->
<g id="edge16" class="edge">
<title>Node80&#45;&gt;Node51</title>
<path fill="none" stroke="midnightblue" d="M381.26,-243.56C404.66,-245.72 431.63,-248.2 455.96,-250.45"/>
<polygon fill="midnightblue" stroke="midnightblue" points="381.41,-240.06 371.13,-242.62 380.77,-247.03 381.41,-240.06"/>
</g>
<!-- Node1 -->
<g id="node22" class="node">
<title>Node1</title>
<g id="a_node22"><a xlink:href="classAmcMrLlrfUpConvertCore.html" target="_top" xlink:title=" ">
<polygon fill="white" stroke="black" points="457.5,-152.5 457.5,-171.5 598.5,-171.5 598.5,-152.5 457.5,-152.5"/>
<text text-anchor="middle" x="528" y="-159.5" font-family="Helvetica,sans-Serif" font-size="10.00">AmcMrLlrfUpConvertCore</text>
</a>
</g>
</g>
<!-- Node80&#45;&gt;Node1 -->
<g id="edge17" class="edge">
<title>Node80&#45;&gt;Node1</title>
<path fill="none" stroke="midnightblue" d="M381.23,-231.06C392.23,-228.28 403.29,-224.41 413,-219 433.33,-207.68 428.88,-192.67 449,-181 455.63,-177.15 463.01,-174.08 470.52,-171.63"/>
<polygon fill="midnightblue" stroke="midnightblue" points="380.17,-227.7 371.18,-233.31 381.71,-234.54 380.17,-227.7"/>
</g>
<!-- Node56 -->
<g id="node23" class="node">
<title>Node56</title>
<g id="a_node23"><a xlink:href="classhmc305.html" target="_top" xlink:title=" ">
<polygon fill="white" stroke="black" points="67.5,-494.5 67.5,-513.5 123.5,-513.5 123.5,-494.5 67.5,-494.5"/>
<text text-anchor="middle" x="95.5" y="-501.5" font-family="Helvetica,sans-Serif" font-size="10.00">hmc305</text>
</a>
</g>
</g>
<!-- Node56&#45;&gt;Node47 -->
<g id="edge18" class="edge">
<title>Node56&#45;&gt;Node47</title>
<path fill="none" stroke="midnightblue" d="M133.7,-497.65C169.1,-491.6 222.82,-482.43 263.32,-475.51"/>
<polygon fill="midnightblue" stroke="midnightblue" points="133.05,-494.21 123.78,-499.34 134.23,-501.11 133.05,-494.21"/>
</g>
<!-- Node55 -->
<g id="node24" class="node">
<title>Node55</title>
<g id="a_node24"><a xlink:href="classJesdSyncIn.html" target="_top" xlink:title=" ">
<polygon fill="white" stroke="black" points="61,-266.5 61,-285.5 130,-285.5 130,-266.5 61,-266.5"/>
<text text-anchor="middle" x="95.5" y="-273.5" font-family="Helvetica,sans-Serif" font-size="10.00">JesdSyncIn</text>
</a>
</g>
</g>
<!-- Node55&#45;&gt;Node47 -->
<g id="edge23" class="edge">
<title>Node55&#45;&gt;Node47</title>
<path fill="none" stroke="midnightblue" d="M140.57,-274.99C158.33,-276.87 177.72,-282.17 191,-295 240.92,-343.25 177.21,-398.62 227,-447 234.02,-453.82 242.8,-458.48 252.13,-461.63"/>
<polygon fill="midnightblue" stroke="midnightblue" points="140.58,-271.48 130.36,-274.25 140.08,-278.46 140.58,-271.48"/>
</g>
<!-- Node55&#45;&gt;Node53 -->
<g id="edge29" class="edge">
<title>Node55&#45;&gt;Node53</title>
<path fill="none" stroke="midnightblue" d="M140.52,-275.52C158.1,-277.51 177.36,-282.76 191,-295 230.53,-330.5 187.56,-373.4 227,-409 235.6,-416.76 246.5,-421.68 257.77,-424.73"/>
<polygon fill="midnightblue" stroke="midnightblue" points="140.67,-272.02 130.42,-274.69 140.1,-278.99 140.67,-272.02"/>
</g>
<!-- Node55&#45;&gt;Node41 -->
<g id="edge19" class="edge">
<title>Node55&#45;&gt;Node41</title>
<path fill="none" stroke="midnightblue" d="M140.22,-279.14C156.9,-281.75 175.6,-286.48 191,-295 211.36,-306.26 208.96,-318.31 227,-333 250.6,-352.22 281.17,-369.94 300.44,-380.36"/>
<polygon fill="midnightblue" stroke="midnightblue" points="140.52,-275.65 130.14,-277.77 139.58,-282.59 140.52,-275.65"/>
</g>
<!-- Node55&#45;&gt;Node45 -->
<g id="edge22" class="edge">
<title>Node55&#45;&gt;Node45</title>
<path fill="none" stroke="midnightblue" d="M113.39,-258.97C147.13,-225.03 220.23,-151.84 227,-148 238.06,-141.73 250.79,-137.07 263.18,-133.6"/>
<polygon fill="midnightblue" stroke="midnightblue" points="110.66,-256.76 106.09,-266.32 115.62,-261.69 110.66,-256.76"/>
</g>
<!-- Node55&#45;&gt;Node49 -->
<g id="edge24" class="edge">
<title>Node55&#45;&gt;Node49</title>
<path fill="none" stroke="midnightblue" d="M112.59,-258.87C135.45,-235.94 179.8,-196.36 227,-181 305.61,-155.42 330.62,-174.18 413,-181 435.4,-182.85 460.02,-186.72 480.63,-190.49"/>
<polygon fill="midnightblue" stroke="midnightblue" points="109.9,-256.62 105.44,-266.22 114.92,-261.5 109.9,-256.62"/>
</g>
<!-- Node43 -->
<g id="node25" class="node">
<title>Node43</title>
<g id="a_node25"><a xlink:href="classAmcCryoDemoCore.html" target="_top" xlink:title=" ">
<polygon fill="white" stroke="black" points="263.5,-304.5 263.5,-323.5 376.5,-323.5 376.5,-304.5 263.5,-304.5"/>
<text text-anchor="middle" x="320" y="-311.5" font-family="Helvetica,sans-Serif" font-size="10.00">AmcCryoDemoCore</text>
</a>
</g>
</g>
<!-- Node55&#45;&gt;Node43 -->
<g id="edge20" class="edge">
<title>Node55&#45;&gt;Node43</title>
<path fill="none" stroke="midnightblue" d="M140.27,-283.48C175.47,-289.49 225.16,-297.97 263.22,-304.47"/>
<polygon fill="midnightblue" stroke="midnightblue" points="140.74,-280 130.29,-281.77 139.56,-286.91 140.74,-280"/>
</g>
<!-- Node50 -->
<g id="node27" class="node">
<title>Node50</title>
<g id="a_node27"><a xlink:href="classAmcMrLlrfGen2UpConvertMapping.html" target="_top" xlink:title=" ">
<polygon fill="white" stroke="black" points="227,-266.5 227,-285.5 413,-285.5 413,-266.5 227,-266.5"/>
<text text-anchor="middle" x="320" y="-273.5" font-family="Helvetica,sans-Serif" font-size="10.00">AmcMrLlrfGen2UpConvertMapping</text>
</a>
</g>
</g>
<!-- Node55&#45;&gt;Node50 -->
<g id="edge25" class="edge">
<title>Node55&#45;&gt;Node50</title>
<path fill="none" stroke="midnightblue" d="M140.4,-276C165.05,-276 196.77,-276 226.62,-276"/>
<polygon fill="midnightblue" stroke="midnightblue" points="140.29,-272.5 130.29,-276 140.29,-279.5 140.29,-272.5"/>
</g>
<!-- Node52 -->
<g id="node28" class="node">
<title>Node52</title>
<g id="a_node28"><a xlink:href="classAmcMrLlrfUpConvertMapping.html" target="_top" xlink:title=" ">
<polygon fill="white" stroke="black" points="239.5,-190.5 239.5,-209.5 400.5,-209.5 400.5,-190.5 239.5,-190.5"/>
<text text-anchor="middle" x="320" y="-197.5" font-family="Helvetica,sans-Serif" font-size="10.00">AmcMrLlrfUpConvertMapping</text>
</a>
</g>
</g>
<!-- Node55&#45;&gt;Node52 -->
<g id="edge27" class="edge">
<title>Node55&#45;&gt;Node52</title>
<path fill="none" stroke="midnightblue" d="M124.27,-261.85C150.25,-249.1 190.44,-230.62 227,-219 238.66,-215.29 251.38,-212.13 263.54,-209.51"/>
<polygon fill="midnightblue" stroke="midnightblue" points="122.44,-258.85 115.04,-266.43 125.56,-265.12 122.44,-258.85"/>
</g>
<!-- Node44 -->
<g id="node26" class="node">
<title>Node44</title>
<g id="a_node26"><a xlink:href="classAmcCryoDemoDualCore.html" target="_top" xlink:title=" ">
<polygon fill="white" stroke="black" points="460.5,-304.5 460.5,-323.5 595.5,-323.5 595.5,-304.5 460.5,-304.5"/>
<text text-anchor="middle" x="528" y="-311.5" font-family="Helvetica,sans-Serif" font-size="10.00">AmcCryoDemoDualCore</text>
</a>
</g>
</g>
<!-- Node43&#45;&gt;Node44 -->
<g id="edge21" class="edge">
<title>Node43&#45;&gt;Node44</title>
<path fill="none" stroke="midnightblue" d="M386.93,-314C410.35,-314 436.72,-314 460.22,-314"/>
<polygon fill="midnightblue" stroke="midnightblue" points="386.75,-310.5 376.75,-314 386.75,-317.5 386.75,-310.5"/>
</g>
<!-- Node50&#45;&gt;Node51 -->
<g id="edge26" class="edge">
<title>Node50&#45;&gt;Node51</title>
<path fill="none" stroke="midnightblue" d="M423.28,-266.57C434.33,-265.55 445.38,-264.53 455.94,-263.55"/>
<polygon fill="midnightblue" stroke="midnightblue" points="422.79,-263.1 413.15,-267.5 423.43,-270.07 422.79,-263.1"/>
</g>
<!-- Node52&#45;&gt;Node1 -->
<g id="edge28" class="edge">
<title>Node52&#45;&gt;Node1</title>
<path fill="none" stroke="midnightblue" d="M382.9,-188.58C412.37,-183.14 447.22,-176.72 475.26,-171.54"/>
<polygon fill="midnightblue" stroke="midnightblue" points="381.92,-185.2 372.72,-190.46 383.19,-192.09 381.92,-185.2"/>
</g>
<!-- Node40 -->
<g id="node29" class="node">
<title>Node40</title>
<g id="a_node29"><a xlink:href="classJesdSyncOut.html" target="_top" xlink:title=" ">
<polygon fill="white" stroke="black" points="57,-304.5 57,-323.5 134,-323.5 134,-304.5 57,-304.5"/>
<text text-anchor="middle" x="95.5" y="-311.5" font-family="Helvetica,sans-Serif" font-size="10.00">JesdSyncOut</text>
</a>
</g>
</g>
<!-- Node40&#45;&gt;Node47 -->
<g id="edge33" class="edge">
<title>Node40&#45;&gt;Node47</title>
<path fill="none" stroke="midnightblue" d="M144.23,-313.98C160.77,-316.28 178.32,-321.61 191,-333 230.53,-368.5 187.56,-411.4 227,-447 234.14,-453.45 242.88,-457.93 252.1,-461.02"/>
<polygon fill="midnightblue" stroke="midnightblue" points="144.43,-310.49 134.12,-312.92 143.7,-317.45 144.43,-310.49"/>
</g>
<!-- Node40&#45;&gt;Node53 -->
<g id="edge37" class="edge">
<title>Node40&#45;&gt;Node53</title>
<path fill="none" stroke="midnightblue" d="M144.68,-315.14C160.77,-317.62 177.91,-322.77 191,-333 220.45,-356.02 197.61,-385.91 227,-409 235.85,-415.95 246.61,-420.54 257.61,-423.53"/>
<polygon fill="midnightblue" stroke="midnightblue" points="144.66,-311.61 134.31,-313.88 143.81,-318.56 144.66,-311.61"/>
</g>
<!-- Node40&#45;&gt;Node41 -->
<g id="edge30" class="edge">
<title>Node40&#45;&gt;Node41</title>
<path fill="none" stroke="midnightblue" d="M144.33,-318.46C159.82,-321.23 176.68,-325.72 191,-333 210.35,-342.83 207.94,-355.62 227,-366 242.8,-374.6 261.83,-380.23 278.46,-383.86"/>
<polygon fill="midnightblue" stroke="midnightblue" points="144.81,-314.99 134.39,-316.88 143.71,-321.91 144.81,-314.99"/>
</g>
<!-- Node40&#45;&gt;Node45 -->
<g id="edge32" class="edge">
<title>Node40&#45;&gt;Node45</title>
<path fill="none" stroke="midnightblue" d="M144.23,-314.02C160.77,-311.72 178.32,-306.39 191,-295 230.53,-259.5 194.38,-222.94 227,-181 244.42,-158.6 273.3,-142.8 294.06,-133.6"/>
<polygon fill="midnightblue" stroke="midnightblue" points="143.7,-310.55 134.12,-315.08 144.43,-317.51 143.7,-310.55"/>
</g>
<!-- Node40&#45;&gt;Node49 -->
<g id="edge34" class="edge">
<title>Node40&#45;&gt;Node49</title>
<path fill="none" stroke="midnightblue" d="M144.03,-323.8C221.51,-338.66 370.68,-362.22 413,-333 450.16,-307.35 418.56,-271.35 449,-238 461.08,-224.76 478.79,-215.62 494.28,-209.63"/>
<polygon fill="midnightblue" stroke="midnightblue" points="144.52,-320.33 134.04,-321.86 143.19,-327.21 144.52,-320.33"/>
</g>
<!-- Node40&#45;&gt;Node43 -->
<g id="edge31" class="edge">
<title>Node40&#45;&gt;Node43</title>
<path fill="none" stroke="midnightblue" d="M144.63,-314C179.45,-314 226.6,-314 263.09,-314"/>
<polygon fill="midnightblue" stroke="midnightblue" points="144.24,-310.5 134.24,-314 144.24,-317.5 144.24,-310.5"/>
</g>
<!-- Node40&#45;&gt;Node50 -->
<g id="edge35" class="edge">
<title>Node40&#45;&gt;Node50</title>
<path fill="none" stroke="midnightblue" d="M144.18,-305.86C179.04,-299.9 226.44,-291.81 263.09,-285.55"/>
<polygon fill="midnightblue" stroke="midnightblue" points="143.51,-302.42 134.24,-307.55 144.69,-309.32 143.51,-302.42"/>
</g>
<!-- Node40&#45;&gt;Node52 -->
<g id="edge36" class="edge">
<title>Node40&#45;&gt;Node52</title>
<path fill="none" stroke="midnightblue" d="M144.68,-312.86C160.77,-310.38 177.91,-305.23 191,-295 220.45,-271.98 197.61,-242.09 227,-219 231.87,-215.17 237.33,-212.06 243.08,-209.54"/>
<polygon fill="midnightblue" stroke="midnightblue" points="143.81,-309.44 134.31,-314.12 144.66,-316.39 143.81,-309.44"/>
</g>
<!-- Node39 -->
<g id="node30" class="node">
<title>Node39</title>
<g id="a_node30"><a xlink:href="classLvdsDacLane.html" target="_top" xlink:title=" ">
<polygon fill="white" stroke="black" points="55,-0.5 55,-19.5 136,-19.5 136,-0.5 55,-0.5"/>
<text text-anchor="middle" x="95.5" y="-7.5" font-family="Helvetica,sans-Serif" font-size="10.00">LvdsDacLane</text>
</a>
</g>
</g>
<!-- Node38 -->
<g id="node31" class="node">
<title>Node38</title>
<g id="a_node31"><a xlink:href="classLvdsDacSigGen.html" target="_top" xlink:title=" ">
<polygon fill="white" stroke="black" points="274,-38.5 274,-57.5 366,-57.5 366,-38.5 274,-38.5"/>
<text text-anchor="middle" x="320" y="-45.5" font-family="Helvetica,sans-Serif" font-size="10.00">LvdsDacSigGen</text>
</a>
</g>
</g>
<!-- Node39&#45;&gt;Node38 -->
<g id="edge38" class="edge">
<title>Node39&#45;&gt;Node38</title>
<path fill="none" stroke="midnightblue" d="M145.9,-18.44C184.11,-24.96 236.58,-33.92 273.71,-40.27"/>
<polygon fill="midnightblue" stroke="midnightblue" points="146.47,-14.98 136.02,-16.75 145.29,-21.88 146.47,-14.98"/>
</g>
<!-- Node38&#45;&gt;Node1 -->
<g id="edge39" class="edge">
<title>Node38&#45;&gt;Node1</title>
<path fill="none" stroke="midnightblue" d="M376.12,-50.94C389.24,-53.81 402.47,-58.73 413,-67 442.39,-90.09 420.02,-119.39 449,-143 453.75,-146.87 459.18,-149.98 464.9,-152.46"/>
<polygon fill="midnightblue" stroke="midnightblue" points="376.62,-47.47 366.15,-49.13 375.36,-54.36 376.62,-47.47"/>
</g>
<!-- Node37 -->
<g id="node32" class="node">
<title>Node37</title>
<g id="a_node32"><a xlink:href="classLvdsDacRegItf.html" target="_top" xlink:title=" ">
<polygon fill="white" stroke="black" points="52,-38.5 52,-57.5 139,-57.5 139,-38.5 52,-38.5"/>
<text text-anchor="middle" x="95.5" y="-45.5" font-family="Helvetica,sans-Serif" font-size="10.00">LvdsDacRegItf</text>
</a>
</g>
</g>
<!-- Node37&#45;&gt;Node38 -->
<g id="edge40" class="edge">
<title>Node37&#45;&gt;Node38</title>
<path fill="none" stroke="midnightblue" d="M149.47,-48C187.37,-48 237.84,-48 273.83,-48"/>
<polygon fill="midnightblue" stroke="midnightblue" points="149.14,-44.5 139.14,-48 149.14,-51.5 149.14,-44.5"/>
</g>
<!-- Node0 -->
<g id="node33" class="node">
<title>Node0</title>
<g id="a_node33"><a xlink:href="classOutputTapDelay.html" target="_top" xlink:title=" ">
<polygon fill="white" stroke="black" points="272.5,-0.5 272.5,-19.5 367.5,-19.5 367.5,-0.5 272.5,-0.5"/>
<text text-anchor="middle" x="320" y="-7.5" font-family="Helvetica,sans-Serif" font-size="10.00">OutputTapDelay</text>
</a>
</g>
</g>
<!-- Node0&#45;&gt;Node1 -->
<g id="edge41" class="edge">
<title>Node0&#45;&gt;Node1</title>
<path fill="none" stroke="midnightblue" d="M378.07,-12.23C390.79,-15.16 403.35,-20.29 413,-29 452.44,-64.6 410.19,-106.71 449,-143 453.07,-146.81 457.78,-149.89 462.81,-152.38"/>
<polygon fill="midnightblue" stroke="midnightblue" points="378.36,-8.72 367.89,-10.32 377.08,-15.6 378.36,-8.72"/>
</g>
</g>
</svg>
