<?xml version="1.0" encoding="UTF-8" standalone="no"?>
<!DOCTYPE svg PUBLIC "-//W3C//DTD SVG 1.1//EN"
 "http://www.w3.org/Graphics/SVG/1.1/DTD/svg11.dtd">
<!-- Generated by graphviz version 2.43.0 (0)
 -->
<!-- Title: Graphical Class Hierarchy Pages: 1 -->
<svg width="515pt" height="101pt"
 viewBox="0.00 0.00 515.00 101.00" xmlns="http://www.w3.org/2000/svg" xmlns:xlink="http://www.w3.org/1999/xlink">
<g id="graph0" class="graph" transform="scale(1 1) rotate(0) translate(4 97)">
<title>Graphical Class Hierarchy</title>
<!-- Node0 -->
<g id="Node000000" class="node">
<title>Node0</title>
<g id="a_Node000000"><a xlink:href="classRtmCryoDacLut.html" target="_top" xlink:title=" ">
<polygon fill="white" stroke="#666666" points="245.5,-93 152.5,-93 152.5,-74 245.5,-74 245.5,-93"/>
<text text-anchor="middle" x="199" y="-81" font-family="Helvetica,sans-Serif" font-size="10.00">RtmCryoDacLut</text>
</a>
</g>
</g>
<!-- Node1 -->
<g id="Node000001" class="node">
<title>Node1</title>
<g id="a_Node000001"><a xlink:href="classRtmCryoDet.html" target="_top" xlink:title=" ">
<polygon fill="white" stroke="#666666" points="366,-56 289,-56 289,-37 366,-37 366,-56"/>
<text text-anchor="middle" x="327.5" y="-44" font-family="Helvetica,sans-Serif" font-size="10.00">RtmCryoDet</text>
</a>
</g>
</g>
<!-- Node0&#45;&gt;Node1 -->
<g id="edge132_Node000000_Node000001" class="edge">
<title>Node0&#45;&gt;Node1</title>
<g id="a_edge132_Node000000_Node000001"><a xlink:title=" ">
<path fill="none" stroke="#63b8ff" d="M242.61,-71.04C259.25,-66.17 278.03,-60.68 293.59,-56.12"/>
<polygon fill="#63b8ff" stroke="#63b8ff" points="241.19,-67.8 232.58,-73.97 243.16,-74.52 241.19,-67.8"/>
</a>
</g>
</g>
<!-- Node2 -->
<g id="Node000002" class="node">
<title>Node2</title>
<g id="a_Node000002"><a xlink:href="classRtmCryoDacLutTb.html" target="_top" xlink:title=" ">
<polygon fill="white" stroke="#666666" points="507,-56 402,-56 402,-37 507,-37 507,-56"/>
<text text-anchor="middle" x="454.5" y="-44" font-family="Helvetica,sans-Serif" font-size="10.00">RtmCryoDacLutTb</text>
</a>
</g>
</g>
<!-- Node1&#45;&gt;Node2 -->
<g id="edge133_Node000001_Node000002" class="edge">
<title>Node1&#45;&gt;Node2</title>
<g id="a_edge133_Node000001_Node000002"><a xlink:title=" ">
<path fill="none" stroke="#63b8ff" d="M376.01,-46.5C384.41,-46.5 393.19,-46.5 401.69,-46.5"/>
<polygon fill="#63b8ff" stroke="#63b8ff" points="376,-43 366,-46.5 376,-50 376,-43"/>
</a>
</g>
</g>
<!-- Node4 -->
<g id="Node000004" class="node">
<title>Node4</title>
<g id="a_Node000004"><a xlink:href="classRtmCryoDetClkDiv.html" target="_top" xlink:title=" ">
<polygon fill="white" stroke="#666666" points="109,-56 0,-56 0,-37 109,-37 109,-56"/>
<text text-anchor="middle" x="54.5" y="-44" font-family="Helvetica,sans-Serif" font-size="10.00">RtmCryoDetClkDiv</text>
</a>
</g>
</g>
<!-- Node3 -->
<g id="Node000003" class="node">
<title>Node3</title>
<g id="a_Node000003"><a xlink:href="classRtmCryoDetReg.html" target="_top" xlink:title=" ">
<polygon fill="white" stroke="#666666" points="246.5,-56 151.5,-56 151.5,-37 246.5,-37 246.5,-56"/>
<text text-anchor="middle" x="199" y="-44" font-family="Helvetica,sans-Serif" font-size="10.00">RtmCryoDetReg</text>
</a>
</g>
</g>
<!-- Node4&#45;&gt;Node3 -->
<g id="edge134_Node000004_Node000003" class="edge">
<title>Node4&#45;&gt;Node3</title>
<g id="a_edge134_Node000004_Node000003"><a xlink:title=" ">
<path fill="none" stroke="#63b8ff" d="M119.47,-46.5C130.1,-46.5 140.95,-46.5 151.05,-46.5"/>
<polygon fill="#63b8ff" stroke="#63b8ff" points="119.37,-43 109.37,-46.5 119.37,-50 119.37,-43"/>
</a>
</g>
</g>
<!-- Node3&#45;&gt;Node1 -->
<g id="edge135_Node000003_Node000001" class="edge">
<title>Node3&#45;&gt;Node1</title>
<g id="a_edge135_Node000003_Node000001"><a xlink:title=" ">
<path fill="none" stroke="#63b8ff" d="M256.92,-46.5C267.66,-46.5 278.65,-46.5 288.62,-46.5"/>
<polygon fill="#63b8ff" stroke="#63b8ff" points="256.74,-43 246.74,-46.5 256.74,-50 256.74,-43"/>
</a>
</g>
</g>
<!-- Node5 -->
<g id="Node000005" class="node">
<title>Node5</title>
<g id="a_Node000005"><a xlink:href="classRtmCryoSpiMaster.html" target="_top" xlink:title=" ">
<polygon fill="white" stroke="#666666" points="253,-19 145,-19 145,0 253,0 253,-19"/>
<text text-anchor="middle" x="199" y="-7" font-family="Helvetica,sans-Serif" font-size="10.00">RtmCryoSpiMaster</text>
</a>
</g>
</g>
<!-- Node5&#45;&gt;Node1 -->
<g id="edge136_Node000005_Node000001" class="edge">
<title>Node5&#45;&gt;Node1</title>
<g id="a_edge136_Node000005_Node000001"><a xlink:title=" ">
<path fill="none" stroke="#63b8ff" d="M242.61,-21.96C259.25,-26.83 278.03,-32.32 293.59,-36.88"/>
<polygon fill="#63b8ff" stroke="#63b8ff" points="243.16,-18.48 232.58,-19.03 241.19,-25.2 243.16,-18.48"/>
</a>
</g>
</g>
</g>
</svg>
