<?xml version="1.0" encoding="UTF-8" standalone="no"?>
<!DOCTYPE svg PUBLIC "-//W3C//DTD SVG 1.1//EN"
 "http://www.w3.org/Graphics/SVG/1.1/DTD/svg11.dtd">
<!-- Generated by graphviz version 2.40.1 (20161225.0304)
 -->
<!-- Title: AmcCarrierCoreFsbl Pages: 1 -->
<!--zoomable 398 -->
<svg id="main" version="1.1" xmlns="http://www.w3.org/2000/svg" xmlns:xlink="http://www.w3.org/1999/xlink" xml:space="preserve" onload="init(evt)">
<style type="text/css"><![CDATA[
.edge:hover path { stroke: red; }
.edge:hover polygon { stroke: red; fill: red; }
]]></style>
<script type="text/javascript"><![CDATA[
var edges = document.getElementsByTagName('g');
if (edges && edges.length) {
  for (var i=0;i<edges.length;i++) {
    if (edges[i].id.substr(0,4)=='edge') {
      edges[i].setAttribute('class','edge');
    }
  }
}
]]></script>
        <defs>
                <circle id="rim" cx="0" cy="0" r="7"/>
                <circle id="rim2" cx="0" cy="0" r="3.5"/>
                <g id="zoomPlus">
                        <use xlink:href="#rim" fill="#404040">
                                <set attributeName="fill" to="#808080" begin="zoomplus.mouseover" end="zoomplus.mouseout"/>
                        </use>
                        <path d="M-4,0h8M0,-4v8" fill="none" stroke="white" stroke-width="1.5" pointer-events="none"/>
                </g>
                <g id="zoomMin">
                        <use xlink:href="#rim" fill="#404040">
                                <set attributeName="fill" to="#808080" begin="zoomminus.mouseover" end="zoomminus.mouseout"/>
                        </use>
                        <path d="M-4,0h8" fill="none" stroke="white" stroke-width="1.5" pointer-events="none"/>
                </g>
                <g id="dirArrow">
                        <path fill="none" stroke="white" stroke-width="1.5" d="M0,-3.0v7 M-2.5,-0.5L0,-3.0L2.5,-0.5"/>
                </g>
               <g id="resetDef">
                       <use xlink:href="#rim2" fill="#404040">
                               <set attributeName="fill" to="#808080" begin="reset.mouseover" end="reset.mouseout"/>
                       </use>
               </g>
        </defs>

<script type="text/javascript">
var viewWidth = 741;
var viewHeight = 398;
var sectionId = 'dynsection-0';
</script>
<script xlink:href="svgpan.js"/>
<svg id="graph" class="graph">
<g id="viewport">
<title>AmcCarrierCoreFsbl</title>
<polygon fill="#ffffff" stroke="transparent" points="-4,4 -4,-394 737,-394 737,4 -4,4"/>
<!-- Node0 -->
<g id="node1" class="node">
<title>Node0</title>
<polygon fill="#bfbfbf" stroke="#000000" points="620,-256.5 620,-275.5 733,-275.5 733,-256.5 620,-256.5"/>
<text text-anchor="middle" x="676.5" y="-263.5" font-family="Helvetica,sans-Serif" font-size="10.00" fill="#000000">AmcCarrierCoreFsbl</text>
</g>
<!-- Node1 -->
<g id="node2" class="node">
<title>Node1</title>
<g id="a_node2"><a xlink:href="classAmcCarrierSysReg.html" target="_top" xlink:title="AmcCarrierSysReg">
<polygon fill="#ffffff" stroke="#000000" points="477,-332.5 477,-351.5 584,-351.5 584,-332.5 477,-332.5"/>
<text text-anchor="middle" x="530.5" y="-339.5" font-family="Helvetica,sans-Serif" font-size="10.00" fill="#000000">AmcCarrierSysReg</text>
</a>
</g>
</g>
<!-- Node1&#45;&gt;Node0 -->
<g id="edge1" class="edge">
<title>Node1&#45;&gt;Node0</title>
<path fill="none" stroke="#191970" d="M557.8874,-327.7435C587.2046,-312.4826 632.8986,-288.6966 658.1591,-275.5473"/>
<polygon fill="#191970" stroke="#191970" points="556.2451,-324.6526 548.991,-332.3745 559.4773,-330.8617 556.2451,-324.6526"/>
</g>
<!-- Node2 -->
<g id="node3" class="node">
<title>Node2</title>
<g id="a_node3"><a xlink:href="classAmcCarrierSysMon.html" target="_top" xlink:title="AmcCarrierSysMon">
<polygon fill="#ffffff" stroke="#000000" points="330,-370.5 330,-389.5 439,-389.5 439,-370.5 330,-370.5"/>
<text text-anchor="middle" x="384.5" y="-377.5" font-family="Helvetica,sans-Serif" font-size="10.00" fill="#000000">AmcCarrierSysMon</text>
</a>
</g>
</g>
<!-- Node2&#45;&gt;Node1 -->
<g id="edge2" class="edge">
<title>Node2&#45;&gt;Node1</title>
<path fill="none" stroke="#191970" d="M431.036,-367.8879C451.3696,-362.5956 474.8713,-356.4787 493.923,-351.5201"/>
<polygon fill="#191970" stroke="#191970" points="430.1379,-364.5049 421.342,-370.411 431.9012,-371.2793 430.1379,-364.5049"/>
</g>
<!-- Node3 -->
<g id="node4" class="node">
<title>Node3</title>
<g id="a_node4"><a xlink:href="classAmcCarrierBsi.html" target="_top" xlink:title="AmcCarrierBsi">
<polygon fill="#ffffff" stroke="#000000" points="341.5,-332.5 341.5,-351.5 427.5,-351.5 427.5,-332.5 341.5,-332.5"/>
<text text-anchor="middle" x="384.5" y="-339.5" font-family="Helvetica,sans-Serif" font-size="10.00" fill="#000000">AmcCarrierBsi</text>
</a>
</g>
</g>
<!-- Node3&#45;&gt;Node1 -->
<g id="edge3" class="edge">
<title>Node3&#45;&gt;Node1</title>
<path fill="none" stroke="#191970" d="M437.5663,-342C450.378,-342 464.0768,-342 476.9123,-342"/>
<polygon fill="#191970" stroke="#191970" points="437.5152,-338.5001 427.5152,-342 437.5151,-345.5001 437.5152,-338.5001"/>
</g>
<!-- Node4 -->
<g id="node5" class="node">
<title>Node4</title>
<g id="a_node5"><a xlink:href="classAppMps.html" target="_top" xlink:title="AppMps">
<polygon fill="#ffffff" stroke="#000000" points="503,-256.5 503,-275.5 558,-275.5 558,-256.5 503,-256.5"/>
<text text-anchor="middle" x="530.5" y="-263.5" font-family="Helvetica,sans-Serif" font-size="10.00" fill="#000000">AppMps</text>
</a>
</g>
</g>
<!-- Node4&#45;&gt;Node0 -->
<g id="edge4" class="edge">
<title>Node4&#45;&gt;Node0</title>
<path fill="none" stroke="#191970" d="M568.6225,-266C584.2395,-266 602.6405,-266 619.7799,-266"/>
<polygon fill="#191970" stroke="#191970" points="568.3052,-262.5001 558.3051,-266 568.3051,-269.5001 568.3052,-262.5001"/>
</g>
<!-- Node5 -->
<g id="node6" class="node">
<title>Node5</title>
<g id="a_node6"><a xlink:href="classAppMpsClk.html" target="_top" xlink:title="AppMpsClk">
<polygon fill="#ffffff" stroke="#000000" points="349,-294.5 349,-313.5 420,-313.5 420,-294.5 349,-294.5"/>
<text text-anchor="middle" x="384.5" y="-301.5" font-family="Helvetica,sans-Serif" font-size="10.00" fill="#000000">AppMpsClk</text>
</a>
</g>
</g>
<!-- Node5&#45;&gt;Node4 -->
<g id="edge5" class="edge">
<title>Node5&#45;&gt;Node4</title>
<path fill="none" stroke="#191970" d="M430.1285,-292.1241C453.9957,-285.9121 482.4276,-278.512 502.9273,-273.1765"/>
<polygon fill="#191970" stroke="#191970" points="429.0116,-288.7981 420.2156,-294.7042 430.7748,-295.5724 429.0116,-288.7981"/>
</g>
<!-- Node6 -->
<g id="node7" class="node">
<title>Node6</title>
<g id="a_node7"><a xlink:href="classAppMpsEncoder.html" target="_top" xlink:title="AppMpsEncoder">
<polygon fill="#ffffff" stroke="#000000" points="337.5,-256.5 337.5,-275.5 431.5,-275.5 431.5,-256.5 337.5,-256.5"/>
<text text-anchor="middle" x="384.5" y="-263.5" font-family="Helvetica,sans-Serif" font-size="10.00" fill="#000000">AppMpsEncoder</text>
</a>
</g>
</g>
<!-- Node6&#45;&gt;Node4 -->
<g id="edge6" class="edge">
<title>Node6&#45;&gt;Node4</title>
<path fill="none" stroke="#191970" d="M442.0156,-266C462.9751,-266 485.7197,-266 502.9004,-266"/>
<polygon fill="#191970" stroke="#191970" points="441.9021,-262.5001 431.902,-266 441.902,-269.5001 441.9021,-262.5001"/>
</g>
<!-- Node7 -->
<g id="node8" class="node">
<title>Node7</title>
<g id="a_node8"><a xlink:href="classAppMpsReg.html" target="_top" xlink:title="AppMpsReg">
<polygon fill="#ffffff" stroke="#000000" points="179.5,-294.5 179.5,-313.5 252.5,-313.5 252.5,-294.5 179.5,-294.5"/>
<text text-anchor="middle" x="216" y="-301.5" font-family="Helvetica,sans-Serif" font-size="10.00" fill="#000000">AppMpsReg</text>
</a>
</g>
</g>
<!-- Node7&#45;&gt;Node6 -->
<g id="edge7" class="edge">
<title>Node7&#45;&gt;Node6</title>
<path fill="none" stroke="#191970" d="M262.5409,-293.5041C287.5265,-287.8694 318.0871,-280.9774 342.3658,-275.5021"/>
<polygon fill="#191970" stroke="#191970" points="261.547,-290.1403 252.562,-295.7546 263.087,-296.9688 261.547,-290.1403"/>
</g>
<!-- Node8 -->
<g id="node9" class="node">
<title>Node8</title>
<g id="a_node9"><a xlink:href="classAppMpsRegBase.html" target="_top" xlink:title="AppMpsRegBase">
<polygon fill="#ffffff" stroke="#000000" points="3.5,-313.5 3.5,-332.5 100.5,-332.5 100.5,-313.5 3.5,-313.5"/>
<text text-anchor="middle" x="52" y="-320.5" font-family="Helvetica,sans-Serif" font-size="10.00" fill="#000000">AppMpsRegBase</text>
</a>
</g>
</g>
<!-- Node8&#45;&gt;Node7 -->
<g id="edge8" class="edge">
<title>Node8&#45;&gt;Node7</title>
<path fill="none" stroke="#191970" d="M110.7361,-316.1952C133.6541,-313.5401 159.2152,-310.5787 179.4097,-308.2391"/>
<polygon fill="#191970" stroke="#191970" points="110.2921,-312.7231 100.7614,-317.3508 111.0978,-319.6766 110.2921,-312.7231"/>
</g>
<!-- Node9 -->
<g id="node10" class="node">
<title>Node9</title>
<g id="a_node10"><a xlink:href="classAppMpsRegAppCh.html" target="_top" xlink:title="AppMpsRegAppCh">
<polygon fill="#ffffff" stroke="#000000" points="0,-275.5 0,-294.5 104,-294.5 104,-275.5 0,-275.5"/>
<text text-anchor="middle" x="52" y="-282.5" font-family="Helvetica,sans-Serif" font-size="10.00" fill="#000000">AppMpsRegAppCh</text>
</a>
</g>
</g>
<!-- Node9&#45;&gt;Node7 -->
<g id="edge9" class="edge">
<title>Node9&#45;&gt;Node7</title>
<path fill="none" stroke="#191970" d="M114.2808,-292.2155C136.2749,-294.7636 160.2811,-297.5448 179.4463,-299.7651"/>
<polygon fill="#191970" stroke="#191970" points="114.6779,-288.7381 104.3415,-291.064 113.8723,-295.6916 114.6779,-288.7381"/>
</g>
<!-- Node10 -->
<g id="node11" class="node">
<title>Node10</title>
<g id="a_node11"><a xlink:href="classAppMpsSelect.html" target="_top" xlink:title="AppMpsSelect">
<polygon fill="#ffffff" stroke="#000000" points="173.5,-256.5 173.5,-275.5 258.5,-275.5 258.5,-256.5 173.5,-256.5"/>
<text text-anchor="middle" x="216" y="-263.5" font-family="Helvetica,sans-Serif" font-size="10.00" fill="#000000">AppMpsSelect</text>
</a>
</g>
</g>
<!-- Node10&#45;&gt;Node6 -->
<g id="edge10" class="edge">
<title>Node10&#45;&gt;Node6</title>
<path fill="none" stroke="#191970" d="M268.6661,-266C290.6125,-266 315.902,-266 337.2412,-266"/>
<polygon fill="#191970" stroke="#191970" points="268.5197,-262.5001 258.5197,-266 268.5196,-269.5001 268.5197,-262.5001"/>
</g>
<!-- Node11 -->
<g id="node12" class="node">
<title>Node11</title>
<g id="a_node12"><a xlink:href="classMpsMsgCore.html" target="_top" xlink:title="MpsMsgCore">
<polygon fill="#ffffff" stroke="#000000" points="177,-218.5 177,-237.5 255,-237.5 255,-218.5 177,-218.5"/>
<text text-anchor="middle" x="216" y="-225.5" font-family="Helvetica,sans-Serif" font-size="10.00" fill="#000000">MpsMsgCore</text>
</a>
</g>
</g>
<!-- Node11&#45;&gt;Node6 -->
<g id="edge11" class="edge">
<title>Node11&#45;&gt;Node6</title>
<path fill="none" stroke="#191970" d="M264.8782,-239.023C289.3174,-244.5345 318.6087,-251.1402 342.0891,-256.4355"/>
<polygon fill="#191970" stroke="#191970" points="265.6058,-235.5992 255.0808,-236.8135 264.0658,-242.4278 265.6058,-235.5992"/>
</g>
<!-- Node12 -->
<g id="node13" class="node">
<title>Node12</title>
<g id="a_node13"><a xlink:href="classAppMpsSalt.html" target="_top" xlink:title="AppMpsSalt">
<polygon fill="#ffffff" stroke="#000000" points="347.5,-218.5 347.5,-237.5 421.5,-237.5 421.5,-218.5 347.5,-218.5"/>
<text text-anchor="middle" x="384.5" y="-225.5" font-family="Helvetica,sans-Serif" font-size="10.00" fill="#000000">AppMpsSalt</text>
</a>
</g>
</g>
<!-- Node12&#45;&gt;Node4 -->
<g id="edge12" class="edge">
<title>Node12&#45;&gt;Node4</title>
<path fill="none" stroke="#191970" d="M431.1752,-240.1483C454.8079,-246.2993 482.6906,-253.5565 502.8883,-258.8134"/>
<polygon fill="#191970" stroke="#191970" points="431.9012,-236.7207 421.342,-237.589 430.1379,-243.4951 431.9012,-236.7207"/>
</g>
<!-- Node13 -->
<g id="node14" class="node">
<title>Node13</title>
<g id="a_node14"><a xlink:href="classAmcCarrierFsbl.html" target="_top" xlink:title="AmcCarrierFsbl">
<polygon fill="#ffffff" stroke="#000000" points="485,-123.5 485,-142.5 576,-142.5 576,-123.5 485,-123.5"/>
<text text-anchor="middle" x="530.5" y="-130.5" font-family="Helvetica,sans-Serif" font-size="10.00" fill="#000000">AmcCarrierFsbl</text>
</a>
</g>
</g>
<!-- Node13&#45;&gt;Node0 -->
<g id="edge13" class="edge">
<title>Node13&#45;&gt;Node0</title>
<path fill="none" stroke="#191970" d="M548.4361,-149.339C579.1233,-177.2938 640.7961,-233.4752 665.7013,-256.1628"/>
<polygon fill="#191970" stroke="#191970" points="550.7495,-146.712 541,-142.565 546.0355,-151.8867 550.7495,-146.712"/>
</g>
<!-- Node14 -->
<g id="node15" class="node">
<title>Node14</title>
<g id="a_node15"><a xlink:href="classAmcCarrierIbufGt.html" target="_top" xlink:title="AmcCarrierIbufGt">
<polygon fill="#ffffff" stroke="#000000" points="165.5,-171.5 165.5,-190.5 266.5,-190.5 266.5,-171.5 165.5,-171.5"/>
<text text-anchor="middle" x="216" y="-178.5" font-family="Helvetica,sans-Serif" font-size="10.00" fill="#000000">AmcCarrierIbufGt</text>
</a>
</g>
</g>
<!-- Node14&#45;&gt;Node13 -->
<g id="edge14" class="edge">
<title>Node14&#45;&gt;Node13</title>
<path fill="none" stroke="#191970" d="M276.7764,-184.0985C322.5004,-185.0393 386.404,-183.3788 441,-171 467.3406,-165.0277 495.7164,-151.677 513.2941,-142.5039"/>
<polygon fill="#191970" stroke="#191970" points="276.8113,-180.5983 266.7258,-183.8439 276.634,-187.5961 276.8113,-180.5983"/>
</g>
<!-- Node16 -->
<g id="node17" class="node">
<title>Node16</title>
<g id="a_node17"><a xlink:href="classAmcCarrierTiming.html" target="_top" xlink:title="AmcCarrierTiming">
<polygon fill="#ffffff" stroke="#000000" points="332,-142.5 332,-161.5 437,-161.5 437,-142.5 332,-142.5"/>
<text text-anchor="middle" x="384.5" y="-149.5" font-family="Helvetica,sans-Serif" font-size="10.00" fill="#000000">AmcCarrierTiming</text>
</a>
</g>
</g>
<!-- Node14&#45;&gt;Node16 -->
<g id="edge17" class="edge">
<title>Node14&#45;&gt;Node16</title>
<path fill="none" stroke="#191970" d="M276.4472,-170.5966C294.5923,-167.4737 314.3421,-164.0746 331.9345,-161.0469"/>
<polygon fill="#191970" stroke="#191970" points="275.817,-167.1535 266.5556,-172.299 277.0043,-174.0521 275.817,-167.1535"/>
</g>
<!-- Node15 -->
<g id="node16" class="node">
<title>Node15</title>
<g id="a_node16"><a xlink:href="classAmcCarrierEthFsbl.html" target="_top" xlink:title="AmcCarrierEthFsbl">
<polygon fill="#ffffff" stroke="#000000" points="331,-104.5 331,-123.5 438,-123.5 438,-104.5 331,-104.5"/>
<text text-anchor="middle" x="384.5" y="-111.5" font-family="Helvetica,sans-Serif" font-size="10.00" fill="#000000">AmcCarrierEthFsbl</text>
</a>
</g>
</g>
<!-- Node15&#45;&gt;Node13 -->
<g id="edge15" class="edge">
<title>Node15&#45;&gt;Node13</title>
<path fill="none" stroke="#191970" d="M448.2223,-122.2926C460.4852,-123.8885 473.1031,-125.5305 484.6615,-127.0347"/>
<polygon fill="#191970" stroke="#191970" points="448.4041,-118.7868 438.036,-120.967 447.5007,-125.7283 448.4041,-118.7868"/>
</g>
<!-- Node16&#45;&gt;Node13 -->
<g id="edge16" class="edge">
<title>Node16&#45;&gt;Node13</title>
<path fill="none" stroke="#191970" d="M447.1781,-143.8433C459.7564,-142.2064 472.752,-140.5152 484.6302,-138.9694"/>
<polygon fill="#191970" stroke="#191970" points="446.674,-140.3793 437.2094,-145.1406 447.5774,-147.3207 446.674,-140.3793"/>
</g>
<!-- Node17 -->
<g id="node18" class="node">
<title>Node17</title>
<g id="a_node18"><a xlink:href="classAmcCarrierBsa.html" target="_top" xlink:title="AmcCarrierBsa">
<polygon fill="#ffffff" stroke="#000000" points="340,-66.5 340,-85.5 429,-85.5 429,-66.5 340,-66.5"/>
<text text-anchor="middle" x="384.5" y="-73.5" font-family="Helvetica,sans-Serif" font-size="10.00" fill="#000000">AmcCarrierBsa</text>
</a>
</g>
</g>
<!-- Node17&#45;&gt;Node13 -->
<g id="edge18" class="edge">
<title>Node17&#45;&gt;Node13</title>
<path fill="none" stroke="#191970" d="M423.8428,-88.7954C429.6224,-90.8009 435.484,-92.9051 441,-95 464.6714,-103.9901 491.3303,-115.4912 509.3487,-123.4742"/>
<polygon fill="#191970" stroke="#191970" points="424.8636,-85.4457 414.2691,-85.5326 422.6054,-92.0714 424.8636,-85.4457"/>
</g>
<!-- Node18 -->
<g id="node19" class="node">
<title>Node18</title>
<g id="a_node19"><a xlink:href="classBsaWaveformEngine.html" target="_top" xlink:title="BsaWaveformEngine(2)">
<polygon fill="#ffffff" stroke="#000000" points="150.5,-114.5 150.5,-133.5 281.5,-133.5 281.5,-114.5 150.5,-114.5"/>
<text text-anchor="middle" x="216" y="-121.5" font-family="Helvetica,sans-Serif" font-size="10.00" fill="#000000">BsaWaveformEngine(2)</text>
</a>
</g>
</g>
<!-- Node18&#45;&gt;Node17 -->
<g id="edge19" class="edge">
<title>Node18&#45;&gt;Node17</title>
<path fill="none" stroke="#191970" d="M265.7153,-112.018C274.4964,-109.7744 283.5344,-107.383 292,-105 313.3842,-98.9805 337.3088,-91.4584 355.4687,-85.5837"/>
<polygon fill="#191970" stroke="#191970" points="264.795,-108.6404 255.9546,-114.4798 266.507,-115.4279 264.795,-108.6404"/>
</g>
<!-- Node19 -->
<g id="node20" class="node">
<title>Node19</title>
<g id="a_node20"><a xlink:href="classBsaBufferControl.html" target="_top" xlink:title="BsaBufferControl">
<polygon fill="#ffffff" stroke="#000000" points="166.5,-76.5 166.5,-95.5 265.5,-95.5 265.5,-76.5 166.5,-76.5"/>
<text text-anchor="middle" x="216" y="-83.5" font-family="Helvetica,sans-Serif" font-size="10.00" fill="#000000">BsaBufferControl</text>
</a>
</g>
</g>
<!-- Node19&#45;&gt;Node17 -->
<g id="edge20" class="edge">
<title>Node19&#45;&gt;Node17</title>
<path fill="none" stroke="#191970" d="M275.7869,-82.4518C296.867,-81.2008 320.1844,-79.8169 339.8013,-78.6527"/>
<polygon fill="#191970" stroke="#191970" points="275.4193,-78.9674 265.6442,-83.0538 275.834,-85.9551 275.4193,-78.9674"/>
</g>
<!-- Node20 -->
<g id="node21" class="node">
<title>Node20</title>
<g id="a_node21"><a xlink:href="classBsaAccumulator.html" target="_top" xlink:title="BsaAccumulator">
<polygon fill="#ffffff" stroke="#000000" points="4,-76.5 4,-95.5 100,-95.5 100,-76.5 4,-76.5"/>
<text text-anchor="middle" x="52" y="-83.5" font-family="Helvetica,sans-Serif" font-size="10.00" fill="#000000">BsaAccumulator</text>
</a>
</g>
</g>
<!-- Node20&#45;&gt;Node19 -->
<g id="edge21" class="edge">
<title>Node20&#45;&gt;Node19</title>
<path fill="none" stroke="#191970" d="M110.5465,-86C128.7968,-86 148.7394,-86 166.3217,-86"/>
<polygon fill="#191970" stroke="#191970" points="110.3184,-82.5001 100.3184,-86 110.3184,-89.5001 110.3184,-82.5001"/>
</g>
<!-- Node21 -->
<g id="node22" class="node">
<title>Node21</title>
<g id="a_node22"><a xlink:href="classBsaAxiInterconnectWrapper.html" target="_top" xlink:title="BsaAxiInterconnectWrapper">
<polygon fill="#ffffff" stroke="#000000" points="140,-38.5 140,-57.5 292,-57.5 292,-38.5 140,-38.5"/>
<text text-anchor="middle" x="216" y="-45.5" font-family="Helvetica,sans-Serif" font-size="10.00" fill="#000000">BsaAxiInterconnectWrapper</text>
</a>
</g>
</g>
<!-- Node21&#45;&gt;Node17 -->
<g id="edge22" class="edge">
<title>Node21&#45;&gt;Node17</title>
<path fill="none" stroke="#191970" d="M283.5674,-59.2278C302.4607,-62.3674 322.5201,-65.7007 339.7366,-68.5616"/>
<polygon fill="#191970" stroke="#191970" points="283.9554,-55.7444 273.5169,-57.5577 282.8078,-62.6497 283.9554,-55.7444"/>
</g>
<!-- Node22 -->
<g id="node23" class="node">
<title>Node22</title>
<g id="a_node23"><a xlink:href="classBldAxiStream.html" target="_top" xlink:title="BldAxiStream">
<polygon fill="#ffffff" stroke="#000000" points="174.5,-.5 174.5,-19.5 257.5,-19.5 257.5,-.5 174.5,-.5"/>
<text text-anchor="middle" x="216" y="-7.5" font-family="Helvetica,sans-Serif" font-size="10.00" fill="#000000">BldAxiStream</text>
</a>
</g>
</g>
<!-- Node22&#45;&gt;Node17 -->
<g id="edge23" class="edge">
<title>Node22&#45;&gt;Node17</title>
<path fill="none" stroke="#191970" d="M267.5097,-19.7752C275.9076,-22.2403 284.3533,-25.2778 292,-29 310.2252,-37.8716 310.1413,-47.4118 328,-57 334.8383,-60.6714 342.5193,-63.8224 349.9622,-66.4428"/>
<polygon fill="#191970" stroke="#191970" points="268.2901,-16.3607 257.7238,-17.1375 266.4683,-23.1195 268.2901,-16.3607"/>
</g>
<!-- Node23 -->
<g id="node24" class="node">
<title>Node23</title>
<g id="a_node24"><a xlink:href="classAmcCarrierDdrMem.html" target="_top" xlink:title="AmcCarrierDdrMem">
<polygon fill="#ffffff" stroke="#000000" points="328,-28.5 328,-47.5 441,-47.5 441,-28.5 328,-28.5"/>
<text text-anchor="middle" x="384.5" y="-35.5" font-family="Helvetica,sans-Serif" font-size="10.00" fill="#000000">AmcCarrierDdrMem</text>
</a>
</g>
</g>
<!-- Node23&#45;&gt;Node13 -->
<g id="edge24" class="edge">
<title>Node23&#45;&gt;Node13</title>
<path fill="none" stroke="#191970" d="M429.2808,-51.2702C433.3334,-53.0015 437.3,-54.9099 441,-57 474.1897,-75.7486 506.6471,-107.6591 521.7326,-123.4988"/>
<polygon fill="#191970" stroke="#191970" points="430.3419,-47.9273 419.7538,-47.55 427.7957,-54.4478 430.3419,-47.9273"/>
</g>
</g>
</svg>
        <g id="navigator" transform="translate(0 0)" fill="#404254">
                <rect fill="#f2f5e9" fill-opacity="0.5" stroke="#606060" stroke-width=".5" x="0" y="0" width="60" height="60"/>
                <use id="zoomplus" xlink:href="#zoomPlus" x="17" y="9" onmousedown="handleZoom(evt,'in')"/>
                <use id="zoomminus" xlink:href="#zoomMin" x="42" y="9" onmousedown="handleZoom(evt,'out')"/>
                <use id="reset" xlink:href="#resetDef" x="30" y="36" onmousedown="handleReset()"/>
                <g id="arrowUp" xlink:href="#dirArrow" transform="translate(30 24)" onmousedown="handlePan(0,-1)">
                  <use xlink:href="#rim" fill="#404040">
                        <set attributeName="fill" to="#808080" begin="arrowUp.mouseover" end="arrowUp.mouseout"/>
                  </use>
                  <path fill="none" stroke="white" stroke-width="1.5" d="M0,-3.0v7 M-2.5,-0.5L0,-3.0L2.5,-0.5"/>
                </g>
                <g id="arrowRight" xlink:href="#dirArrow" transform="rotate(90) translate(36 -43)" onmousedown="handlePan(1,0)">
                  <use xlink:href="#rim" fill="#404040">
                        <set attributeName="fill" to="#808080" begin="arrowRight.mouseover" end="arrowRight.mouseout"/>
                  </use>
                  <path fill="none" stroke="white" stroke-width="1.5" d="M0,-3.0v7 M-2.5,-0.5L0,-3.0L2.5,-0.5"/>
                </g>
                <g id="arrowDown" xlink:href="#dirArrow" transform="rotate(180) translate(-30 -48)" onmousedown="handlePan(0,1)">
                  <use xlink:href="#rim" fill="#404040">
                        <set attributeName="fill" to="#808080" begin="arrowDown.mouseover" end="arrowDown.mouseout"/>
                  </use>
                  <path fill="none" stroke="white" stroke-width="1.5" d="M0,-3.0v7 M-2.5,-0.5L0,-3.0L2.5,-0.5"/>
                </g>
                <g id="arrowLeft" xlink:href="#dirArrow" transform="rotate(270) translate(-36 17)" onmousedown="handlePan(-1,0)">
                  <use xlink:href="#rim" fill="#404040">
                        <set attributeName="fill" to="#808080" begin="arrowLeft.mouseover" end="arrowLeft.mouseout"/>
                  </use>
                  <path fill="none" stroke="white" stroke-width="1.5" d="M0,-3.0v7 M-2.5,-0.5L0,-3.0L2.5,-0.5"/>
                </g>
        </g>
        <svg viewBox="0 0 15 15" width="100%" height="30px" preserveAspectRatio="xMaxYMin meet">
         <g id="arrow_out" transform="scale(0.3 0.3)">
          <a xlink:href="classAmcCarrierCoreFsbl__inherit__graph_org.svg" target="_base">
           <rect id="button" ry="5" rx="5" y="6" x="6" height="38" width="38"
                fill="#f2f5e9" fill-opacity="0.5" stroke="#606060" stroke-width="1.0"/>
           <path id="arrow"
             d="M 11.500037,31.436501 C 11.940474,20.09759 22.043105,11.32322 32.158766,21.979434 L 37.068811,17.246167 C 37.068811,17.246167 37.088388,32 37.088388,32 L 22.160133,31.978069 C 22.160133,31.978069 26.997745,27.140456 26.997745,27.140456 C 18.528582,18.264221 13.291696,25.230495 11.500037,31.436501 z"
             style="fill:#404040;"/>
          </a>
         </g>
        </svg>
</svg>
