<?xml version="1.0" encoding="UTF-8" standalone="no"?>
<!DOCTYPE svg PUBLIC "-//W3C//DTD SVG 1.1//EN"
 "http://www.w3.org/Graphics/SVG/1.1/DTD/svg11.dtd">
<!-- Generated by graphviz version 2.40.1 (20161225.0304)
 -->
<!-- Title: DaqMuxV2Tb Pages: 1 -->
<svg width="299pt" height="196pt"
 viewBox="0.00 0.00 299.00 196.00" xmlns="http://www.w3.org/2000/svg" xmlns:xlink="http://www.w3.org/1999/xlink">
<g id="graph0" class="graph" transform="scale(1 1) rotate(0) translate(4 192)">
<title>DaqMuxV2Tb</title>
<polygon fill="#ffffff" stroke="transparent" points="-4,4 -4,-192 295,-192 295,4 -4,4"/>
<!-- Node0 -->
<g id="node1" class="node">
<title>Node0</title>
<polygon fill="#bfbfbf" stroke="#000000" points="77,-.5 77,-19.5 158,-19.5 158,-.5 77,-.5"/>
<text text-anchor="middle" x="117.5" y="-7.5" font-family="Helvetica,sans-Serif" font-size="10.00" fill="#000000">DaqMuxV2Tb</text>
</g>
<!-- Node1 -->
<g id="node2" class="node">
<title>Node1</title>
<g id="a_node2"><a xlink:href="classDaqMuxV2.html" target="_top" xlink:title="DaqMuxV2">
<polygon fill="#ffffff" stroke="#000000" points="83,-56.5 83,-75.5 152,-75.5 152,-56.5 83,-56.5"/>
<text text-anchor="middle" x="117.5" y="-63.5" font-family="Helvetica,sans-Serif" font-size="10.00" fill="#000000">DaqMuxV2</text>
</a>
</g>
</g>
<!-- Node1&#45;&gt;Node0 -->
<g id="edge1" class="edge">
<title>Node1&#45;&gt;Node0</title>
<path fill="none" stroke="#191970" d="M117.5,-46.1575C117.5,-37.155 117.5,-26.9199 117.5,-19.6427"/>
<polygon fill="#191970" stroke="#191970" points="114.0001,-46.2455 117.5,-56.2455 121.0001,-46.2456 114.0001,-46.2455"/>
</g>
<!-- Node2 -->
<g id="node3" class="node">
<title>Node2</title>
<g id="a_node3"><a xlink:href="classDaqRegItf.html" target="_top" xlink:title="DaqRegItf">
<polygon fill="#ffffff" stroke="#000000" points="0,-112.5 0,-131.5 65,-131.5 65,-112.5 0,-112.5"/>
<text text-anchor="middle" x="32.5" y="-119.5" font-family="Helvetica,sans-Serif" font-size="10.00" fill="#000000">DaqRegItf</text>
</a>
</g>
</g>
<!-- Node2&#45;&gt;Node1 -->
<g id="edge2" class="edge">
<title>Node2&#45;&gt;Node1</title>
<path fill="none" stroke="#191970" d="M56.0419,-106.49C71.039,-96.6096 89.9973,-84.1194 102.8638,-75.6427"/>
<polygon fill="#191970" stroke="#191970" points="53.7309,-103.8212 47.3059,-112.2455 57.5821,-109.6666 53.7309,-103.8212"/>
</g>
<!-- Node3 -->
<g id="node4" class="node">
<title>Node3</title>
<g id="a_node4"><a xlink:href="classDaqTrigger.html" target="_top" xlink:title="DaqTrigger">
<polygon fill="#ffffff" stroke="#000000" points="83,-112.5 83,-131.5 152,-131.5 152,-112.5 83,-112.5"/>
<text text-anchor="middle" x="117.5" y="-119.5" font-family="Helvetica,sans-Serif" font-size="10.00" fill="#000000">DaqTrigger</text>
</a>
</g>
</g>
<!-- Node3&#45;&gt;Node1 -->
<g id="edge3" class="edge">
<title>Node3&#45;&gt;Node1</title>
<path fill="none" stroke="#191970" d="M117.5,-102.1575C117.5,-93.155 117.5,-82.9199 117.5,-75.6427"/>
<polygon fill="#191970" stroke="#191970" points="114.0001,-102.2455 117.5,-112.2455 121.0001,-102.2456 114.0001,-102.2455"/>
</g>
<!-- Node4 -->
<g id="node5" class="node">
<title>Node4</title>
<g id="a_node5"><a xlink:href="classDaqLane.html" target="_top" xlink:title="DaqLane">
<polygon fill="#ffffff" stroke="#000000" points="170,-112.5 170,-131.5 229,-131.5 229,-112.5 170,-112.5"/>
<text text-anchor="middle" x="199.5" y="-119.5" font-family="Helvetica,sans-Serif" font-size="10.00" fill="#000000">DaqLane</text>
</a>
</g>
</g>
<!-- Node4&#45;&gt;Node1 -->
<g id="edge4" class="edge">
<title>Node4&#45;&gt;Node1</title>
<path fill="none" stroke="#191970" d="M176.789,-106.49C162.3212,-96.6096 144.032,-84.1194 131.6196,-75.6427"/>
<polygon fill="#191970" stroke="#191970" points="174.9848,-109.4962 185.2167,-112.2455 178.9325,-103.7156 174.9848,-109.4962"/>
</g>
<!-- Node5 -->
<g id="node6" class="node">
<title>Node5</title>
<g id="a_node6"><a xlink:href="classDaqTestSig.html" target="_top" xlink:title="DaqTestSig">
<polygon fill="#ffffff" stroke="#000000" points="115,-168.5 115,-187.5 186,-187.5 186,-168.5 115,-168.5"/>
<text text-anchor="middle" x="150.5" y="-175.5" font-family="Helvetica,sans-Serif" font-size="10.00" fill="#000000">DaqTestSig</text>
</a>
</g>
</g>
<!-- Node5&#45;&gt;Node4 -->
<g id="edge5" class="edge">
<title>Node5&#45;&gt;Node4</title>
<path fill="none" stroke="#191970" d="M165.8122,-160.5004C174.1447,-150.9775 184.1353,-139.5596 191.0627,-131.6427"/>
<polygon fill="#191970" stroke="#191970" points="162.9862,-158.415 159.0351,-168.2455 168.2543,-163.0245 162.9862,-158.415"/>
</g>
<!-- Node6 -->
<g id="node7" class="node">
<title>Node6</title>
<g id="a_node7"><a xlink:href="classDaqDecimator.html" target="_top" xlink:title="DaqDecimator">
<polygon fill="#ffffff" stroke="#000000" points="204,-168.5 204,-187.5 291,-187.5 291,-168.5 204,-168.5"/>
<text text-anchor="middle" x="247.5" y="-175.5" font-family="Helvetica,sans-Serif" font-size="10.00" fill="#000000">DaqDecimator</text>
</a>
</g>
</g>
<!-- Node6&#45;&gt;Node4 -->
<g id="edge6" class="edge">
<title>Node6&#45;&gt;Node4</title>
<path fill="none" stroke="#191970" d="M232.5003,-160.5004C224.3378,-150.9775 214.5511,-139.5596 207.7651,-131.6427"/>
<polygon fill="#191970" stroke="#191970" points="229.9737,-162.9307 239.139,-168.2455 235.2885,-158.3752 229.9737,-162.9307"/>
</g>
</g>
</svg>
