<?xml version="1.0" encoding="UTF-8" standalone="no"?>
<!DOCTYPE svg PUBLIC "-//W3C//DTD SVG 1.1//EN"
 "http://www.w3.org/Graphics/SVG/1.1/DTD/svg11.dtd">
<!-- Generated by graphviz version 2.40.1 (20161225.0304)
 -->
<!-- Title: AmcCarrierFsbl Pages: 1 -->
<!--zoomable 252 -->
<svg id="main" version="1.1" xmlns="http://www.w3.org/2000/svg" xmlns:xlink="http://www.w3.org/1999/xlink" xml:space="preserve" onload="init(evt)">
<style type="text/css"><![CDATA[
.edge:hover path { stroke: red; }
.edge:hover polygon { stroke: red; fill: red; }
]]></style>
<script type="text/javascript"><![CDATA[
var edges = document.getElementsByTagName('g');
if (edges && edges.length) {
  for (var i=0;i<edges.length;i++) {
    if (edges[i].id.substr(0,4)=='edge') {
      edges[i].setAttribute('class','edge');
    }
  }
}
]]></script>
        <defs>
                <circle id="rim" cx="0" cy="0" r="7"/>
                <circle id="rim2" cx="0" cy="0" r="3.5"/>
                <g id="zoomPlus">
                        <use xlink:href="#rim" fill="#404040">
                                <set attributeName="fill" to="#808080" begin="zoomplus.mouseover" end="zoomplus.mouseout"/>
                        </use>
                        <path d="M-4,0h8M0,-4v8" fill="none" stroke="white" stroke-width="1.5" pointer-events="none"/>
                </g>
                <g id="zoomMin">
                        <use xlink:href="#rim" fill="#404040">
                                <set attributeName="fill" to="#808080" begin="zoomminus.mouseover" end="zoomminus.mouseout"/>
                        </use>
                        <path d="M-4,0h8" fill="none" stroke="white" stroke-width="1.5" pointer-events="none"/>
                </g>
                <g id="dirArrow">
                        <path fill="none" stroke="white" stroke-width="1.5" d="M0,-3.0v7 M-2.5,-0.5L0,-3.0L2.5,-0.5"/>
                </g>
               <g id="resetDef">
                       <use xlink:href="#rim2" fill="#404040">
                               <set attributeName="fill" to="#808080" begin="reset.mouseover" end="reset.mouseout"/>
                       </use>
               </g>
        </defs>

<script type="text/javascript">
var viewWidth = 660;
var viewHeight = 252;
var sectionId = 'dynsection-0';
</script>
<script xlink:href="svgpan.js"/>
<svg id="graph" class="graph">
<g id="viewport">
<title>AmcCarrierFsbl</title>
<polygon fill="#ffffff" stroke="transparent" points="-4,4 -4,-248 656,-248 656,4 -4,4"/>
<!-- Node0 -->
<g id="node1" class="node">
<title>Node0</title>
<polygon fill="#bfbfbf" stroke="#000000" points="183,-56.5 183,-75.5 274,-75.5 274,-56.5 183,-56.5"/>
<text text-anchor="middle" x="228.5" y="-63.5" font-family="Helvetica,sans-Serif" font-size="10.00" fill="#000000">AmcCarrierFsbl</text>
</g>
<!-- Node11 -->
<g id="node12" class="node">
<title>Node11</title>
<g id="a_node12"><a xlink:href="classAmcCarrierCoreFsbl.html" target="_top" xlink:title="AmcCarrierCoreFsbl">
<polygon fill="#ffffff" stroke="#000000" points="172,-.5 172,-19.5 285,-19.5 285,-.5 172,-.5"/>
<text text-anchor="middle" x="228.5" y="-7.5" font-family="Helvetica,sans-Serif" font-size="10.00" fill="#000000">AmcCarrierCoreFsbl</text>
</a>
</g>
</g>
<!-- Node0&#45;&gt;Node11 -->
<g id="edge12" class="edge">
<title>Node0&#45;&gt;Node11</title>
<path fill="none" stroke="#191970" d="M228.5,-46.1575C228.5,-37.155 228.5,-26.9199 228.5,-19.6427"/>
<polygon fill="#191970" stroke="#191970" points="225.0001,-46.2455 228.5,-56.2455 232.0001,-46.2456 225.0001,-46.2455"/>
</g>
<!-- Node1 -->
<g id="node2" class="node">
<title>Node1</title>
<g id="a_node2"><a xlink:href="classAmcCarrierIbufGt.html" target="_top" xlink:title="AmcCarrierIbufGt">
<polygon fill="#ffffff" stroke="#000000" points="0,-168.5 0,-187.5 101,-187.5 101,-168.5 0,-168.5"/>
<text text-anchor="middle" x="50.5" y="-175.5" font-family="Helvetica,sans-Serif" font-size="10.00" fill="#000000">AmcCarrierIbufGt</text>
</a>
</g>
</g>
<!-- Node1&#45;&gt;Node0 -->
<g id="edge1" class="edge">
<title>Node1&#45;&gt;Node0</title>
<path fill="none" stroke="#191970" d="M41.4564,-158.9219C36.1119,-144.5602 32.1948,-125.1643 42.5,-112 59.6213,-90.1285 133.5574,-77.2171 182.8967,-70.8831"/>
<polygon fill="#191970" stroke="#191970" points="38.3108,-160.4706 45.4173,-168.3286 44.7622,-157.7541 38.3108,-160.4706"/>
</g>
<!-- Node3 -->
<g id="node4" class="node">
<title>Node3</title>
<g id="a_node4"><a xlink:href="classAmcCarrierTiming.html" target="_top" xlink:title="AmcCarrierTiming">
<polygon fill="#ffffff" stroke="#000000" points="52,-112.5 52,-131.5 157,-131.5 157,-112.5 52,-112.5"/>
<text text-anchor="middle" x="104.5" y="-119.5" font-family="Helvetica,sans-Serif" font-size="10.00" fill="#000000">AmcCarrierTiming</text>
</a>
</g>
</g>
<!-- Node1&#45;&gt;Node3 -->
<g id="edge4" class="edge">
<title>Node1&#45;&gt;Node3</title>
<path fill="none" stroke="#191970" d="M67.0969,-160.7884C76.3347,-151.2085 87.4904,-139.6396 95.2017,-131.6427"/>
<polygon fill="#191970" stroke="#191970" points="64.328,-158.6176 59.9061,-168.2455 69.3669,-163.4766 64.328,-158.6176"/>
</g>
<!-- Node2 -->
<g id="node3" class="node">
<title>Node2</title>
<g id="a_node3"><a xlink:href="classAmcCarrierEthFsbl.html" target="_top" xlink:title="AmcCarrierEthFsbl">
<polygon fill="#ffffff" stroke="#000000" points="175,-112.5 175,-131.5 282,-131.5 282,-112.5 175,-112.5"/>
<text text-anchor="middle" x="228.5" y="-119.5" font-family="Helvetica,sans-Serif" font-size="10.00" fill="#000000">AmcCarrierEthFsbl</text>
</a>
</g>
</g>
<!-- Node2&#45;&gt;Node0 -->
<g id="edge2" class="edge">
<title>Node2&#45;&gt;Node0</title>
<path fill="none" stroke="#191970" d="M228.5,-102.1575C228.5,-93.155 228.5,-82.9199 228.5,-75.6427"/>
<polygon fill="#191970" stroke="#191970" points="225.0001,-102.2455 228.5,-112.2455 232.0001,-102.2456 225.0001,-102.2455"/>
</g>
<!-- Node3&#45;&gt;Node0 -->
<g id="edge3" class="edge">
<title>Node3&#45;&gt;Node0</title>
<path fill="none" stroke="#191970" d="M134.9524,-108.2473C157.4722,-98.0771 187.5617,-84.4883 207.4618,-75.5011"/>
<polygon fill="#191970" stroke="#191970" points="133.4895,-105.0675 125.8164,-112.3733 136.3706,-111.4471 133.4895,-105.0675"/>
</g>
<!-- Node4 -->
<g id="node5" class="node">
<title>Node4</title>
<g id="a_node5"><a xlink:href="classAmcCarrierBsa.html" target="_top" xlink:title="AmcCarrierBsa">
<polygon fill="#ffffff" stroke="#000000" points="300,-112.5 300,-131.5 389,-131.5 389,-112.5 300,-112.5"/>
<text text-anchor="middle" x="344.5" y="-119.5" font-family="Helvetica,sans-Serif" font-size="10.00" fill="#000000">AmcCarrierBsa</text>
</a>
</g>
</g>
<!-- Node4&#45;&gt;Node0 -->
<g id="edge5" class="edge">
<title>Node4&#45;&gt;Node0</title>
<path fill="none" stroke="#191970" d="M315.4463,-107.9741C294.4435,-97.8348 266.6309,-84.408 248.1809,-75.5011"/>
<polygon fill="#191970" stroke="#191970" points="314.0317,-111.1776 324.5589,-112.3733 317.075,-104.8738 314.0317,-111.1776"/>
</g>
<!-- Node5 -->
<g id="node6" class="node">
<title>Node5</title>
<g id="a_node6"><a xlink:href="classBsaWaveformEngine.html" target="_top" xlink:title="BsaWaveformEngine(2)">
<polygon fill="#ffffff" stroke="#000000" points="132,-168.5 132,-187.5 263,-187.5 263,-168.5 132,-168.5"/>
<text text-anchor="middle" x="197.5" y="-175.5" font-family="Helvetica,sans-Serif" font-size="10.00" fill="#000000">BsaWaveformEngine(2)</text>
</a>
</g>
</g>
<!-- Node5&#45;&gt;Node4 -->
<g id="edge6" class="edge">
<title>Node5&#45;&gt;Node4</title>
<path fill="none" stroke="#191970" d="M232.1794,-164.7888C259.0198,-154.5639 295.547,-140.6488 319.5596,-131.5011"/>
<polygon fill="#191970" stroke="#191970" points="230.8691,-161.5425 222.7702,-168.3733 233.3611,-168.0839 230.8691,-161.5425"/>
</g>
<!-- Node6 -->
<g id="node7" class="node">
<title>Node6</title>
<g id="a_node7"><a xlink:href="classBsaBufferControl.html" target="_top" xlink:title="BsaBufferControl">
<polygon fill="#ffffff" stroke="#000000" points="281,-168.5 281,-187.5 380,-187.5 380,-168.5 281,-168.5"/>
<text text-anchor="middle" x="330.5" y="-175.5" font-family="Helvetica,sans-Serif" font-size="10.00" fill="#000000">BsaBufferControl</text>
</a>
</g>
</g>
<!-- Node6&#45;&gt;Node4 -->
<g id="edge7" class="edge">
<title>Node6&#45;&gt;Node4</title>
<path fill="none" stroke="#191970" d="M335.3865,-158.4538C337.6549,-149.3803 340.25,-138.9998 342.0893,-131.6427"/>
<polygon fill="#191970" stroke="#191970" points="331.9685,-157.6952 332.9386,-168.2455 338.7595,-159.393 331.9685,-157.6952"/>
</g>
<!-- Node7 -->
<g id="node8" class="node">
<title>Node7</title>
<g id="a_node8"><a xlink:href="classBsaAccumulator.html" target="_top" xlink:title="BsaAccumulator">
<polygon fill="#ffffff" stroke="#000000" points="282.5,-224.5 282.5,-243.5 378.5,-243.5 378.5,-224.5 282.5,-224.5"/>
<text text-anchor="middle" x="330.5" y="-231.5" font-family="Helvetica,sans-Serif" font-size="10.00" fill="#000000">BsaAccumulator</text>
</a>
</g>
</g>
<!-- Node7&#45;&gt;Node6 -->
<g id="edge8" class="edge">
<title>Node7&#45;&gt;Node6</title>
<path fill="none" stroke="#191970" d="M330.5,-214.1575C330.5,-205.155 330.5,-194.9199 330.5,-187.6427"/>
<polygon fill="#191970" stroke="#191970" points="327.0001,-214.2455 330.5,-224.2455 334.0001,-214.2456 327.0001,-214.2455"/>
</g>
<!-- Node8 -->
<g id="node9" class="node">
<title>Node8</title>
<g id="a_node9"><a xlink:href="classBsaAxiInterconnectWrapper.html" target="_top" xlink:title="BsaAxiInterconnectWrapper">
<polygon fill="#ffffff" stroke="#000000" points="398.5,-168.5 398.5,-187.5 550.5,-187.5 550.5,-168.5 398.5,-168.5"/>
<text text-anchor="middle" x="474.5" y="-175.5" font-family="Helvetica,sans-Serif" font-size="10.00" fill="#000000">BsaAxiInterconnectWrapper</text>
</a>
</g>
</g>
<!-- Node8&#45;&gt;Node4 -->
<g id="edge9" class="edge">
<title>Node8&#45;&gt;Node4</title>
<path fill="none" stroke="#191970" d="M442.8898,-164.3833C419.2465,-154.1985 387.5124,-140.5284 366.5562,-131.5011"/>
<polygon fill="#191970" stroke="#191970" points="441.5834,-167.6314 452.1522,-168.3733 444.3528,-161.2025 441.5834,-167.6314"/>
</g>
<!-- Node9 -->
<g id="node10" class="node">
<title>Node9</title>
<g id="a_node10"><a xlink:href="classBldAxiStream.html" target="_top" xlink:title="BldAxiStream">
<polygon fill="#ffffff" stroke="#000000" points="569,-168.5 569,-187.5 652,-187.5 652,-168.5 569,-168.5"/>
<text text-anchor="middle" x="610.5" y="-175.5" font-family="Helvetica,sans-Serif" font-size="10.00" fill="#000000">BldAxiStream</text>
</a>
</g>
</g>
<!-- Node9&#45;&gt;Node4 -->
<g id="edge10" class="edge">
<title>Node9&#45;&gt;Node4</title>
<path fill="none" stroke="#191970" d="M559.1208,-167.1833C509.8656,-156.8138 436.2602,-141.3179 389.3225,-131.4363"/>
<polygon fill="#191970" stroke="#191970" points="558.4309,-170.6147 568.9375,-169.25 559.8731,-163.7649 558.4309,-170.6147"/>
</g>
<!-- Node10 -->
<g id="node11" class="node">
<title>Node10</title>
<g id="a_node11"><a xlink:href="classAmcCarrierDdrMem.html" target="_top" xlink:title="AmcCarrierDdrMem">
<polygon fill="#ffffff" stroke="#000000" points="407,-112.5 407,-131.5 520,-131.5 520,-112.5 407,-112.5"/>
<text text-anchor="middle" x="463.5" y="-119.5" font-family="Helvetica,sans-Serif" font-size="10.00" fill="#000000">AmcCarrierDdrMem</text>
</a>
</g>
</g>
<!-- Node10&#45;&gt;Node0 -->
<g id="edge11" class="edge">
<title>Node10&#45;&gt;Node0</title>
<path fill="none" stroke="#191970" d="M413.6148,-110.1125C370.348,-99.8021 308.5396,-85.0733 268.4654,-75.5237"/>
<polygon fill="#191970" stroke="#191970" points="412.8301,-113.5234 423.3691,-112.4369 414.4528,-106.7141 412.8301,-113.5234"/>
</g>
</g>
</svg>
        <g id="navigator" transform="translate(0 0)" fill="#404254">
                <rect fill="#f2f5e9" fill-opacity="0.5" stroke="#606060" stroke-width=".5" x="0" y="0" width="60" height="60"/>
                <use id="zoomplus" xlink:href="#zoomPlus" x="17" y="9" onmousedown="handleZoom(evt,'in')"/>
                <use id="zoomminus" xlink:href="#zoomMin" x="42" y="9" onmousedown="handleZoom(evt,'out')"/>
                <use id="reset" xlink:href="#resetDef" x="30" y="36" onmousedown="handleReset()"/>
                <g id="arrowUp" xlink:href="#dirArrow" transform="translate(30 24)" onmousedown="handlePan(0,-1)">
                  <use xlink:href="#rim" fill="#404040">
                        <set attributeName="fill" to="#808080" begin="arrowUp.mouseover" end="arrowUp.mouseout"/>
                  </use>
                  <path fill="none" stroke="white" stroke-width="1.5" d="M0,-3.0v7 M-2.5,-0.5L0,-3.0L2.5,-0.5"/>
                </g>
                <g id="arrowRight" xlink:href="#dirArrow" transform="rotate(90) translate(36 -43)" onmousedown="handlePan(1,0)">
                  <use xlink:href="#rim" fill="#404040">
                        <set attributeName="fill" to="#808080" begin="arrowRight.mouseover" end="arrowRight.mouseout"/>
                  </use>
                  <path fill="none" stroke="white" stroke-width="1.5" d="M0,-3.0v7 M-2.5,-0.5L0,-3.0L2.5,-0.5"/>
                </g>
                <g id="arrowDown" xlink:href="#dirArrow" transform="rotate(180) translate(-30 -48)" onmousedown="handlePan(0,1)">
                  <use xlink:href="#rim" fill="#404040">
                        <set attributeName="fill" to="#808080" begin="arrowDown.mouseover" end="arrowDown.mouseout"/>
                  </use>
                  <path fill="none" stroke="white" stroke-width="1.5" d="M0,-3.0v7 M-2.5,-0.5L0,-3.0L2.5,-0.5"/>
                </g>
                <g id="arrowLeft" xlink:href="#dirArrow" transform="rotate(270) translate(-36 17)" onmousedown="handlePan(-1,0)">
                  <use xlink:href="#rim" fill="#404040">
                        <set attributeName="fill" to="#808080" begin="arrowLeft.mouseover" end="arrowLeft.mouseout"/>
                  </use>
                  <path fill="none" stroke="white" stroke-width="1.5" d="M0,-3.0v7 M-2.5,-0.5L0,-3.0L2.5,-0.5"/>
                </g>
        </g>
        <svg viewBox="0 0 15 15" width="100%" height="30px" preserveAspectRatio="xMaxYMin meet">
         <g id="arrow_out" transform="scale(0.3 0.3)">
          <a xlink:href="classAmcCarrierFsbl__inherit__graph_org.svg" target="_base">
           <rect id="button" ry="5" rx="5" y="6" x="6" height="38" width="38"
                fill="#f2f5e9" fill-opacity="0.5" stroke="#606060" stroke-width="1.0"/>
           <path id="arrow"
             d="M 11.500037,31.436501 C 11.940474,20.09759 22.043105,11.32322 32.158766,21.979434 L 37.068811,17.246167 C 37.068811,17.246167 37.088388,32 37.088388,32 L 22.160133,31.978069 C 22.160133,31.978069 26.997745,27.140456 26.997745,27.140456 C 18.528582,18.264221 13.291696,25.230495 11.500037,31.436501 z"
             style="fill:#404040;"/>
          </a>
         </g>
        </svg>
</svg>
