<?xml version="1.0" encoding="UTF-8" standalone="no"?>
<!DOCTYPE svg PUBLIC "-//W3C//DTD SVG 1.1//EN"
 "http://www.w3.org/Graphics/SVG/1.1/DTD/svg11.dtd">
<!-- Generated by graphviz version 2.40.1 (20161225.0304)
 -->
<!-- Title: AmcCarrierCoreFsbl Pages: 1 -->
<!--zoomable 370 -->
<svg id="main" version="1.1" xmlns="http://www.w3.org/2000/svg" xmlns:xlink="http://www.w3.org/1999/xlink" xml:space="preserve" onload="init(evt)">
<style type="text/css"><![CDATA[
.edge:hover path { stroke: red; }
.edge:hover polygon { stroke: red; fill: red; }
]]></style>
<script type="text/javascript"><![CDATA[
var edges = document.getElementsByTagName('g');
if (edges && edges.length) {
  for (var i=0;i<edges.length;i++) {
    if (edges[i].id.substr(0,4)=='edge') {
      edges[i].setAttribute('class','edge');
    }
  }
}
]]></script>
        <defs>
                <circle id="rim" cx="0" cy="0" r="7"/>
                <circle id="rim2" cx="0" cy="0" r="3.5"/>
                <g id="zoomPlus">
                        <use xlink:href="#rim" fill="#404040">
                                <set attributeName="fill" to="#808080" begin="zoomplus.mouseover" end="zoomplus.mouseout"/>
                        </use>
                        <path d="M-4,0h8M0,-4v8" fill="none" stroke="white" stroke-width="1.5" pointer-events="none"/>
                </g>
                <g id="zoomMin">
                        <use xlink:href="#rim" fill="#404040">
                                <set attributeName="fill" to="#808080" begin="zoomminus.mouseover" end="zoomminus.mouseout"/>
                        </use>
                        <path d="M-4,0h8" fill="none" stroke="white" stroke-width="1.5" pointer-events="none"/>
                </g>
                <g id="dirArrow">
                        <path fill="none" stroke="white" stroke-width="1.5" d="M0,-3.0v7 M-2.5,-0.5L0,-3.0L2.5,-0.5"/>
                </g>
               <g id="resetDef">
                       <use xlink:href="#rim2" fill="#404040">
                               <set attributeName="fill" to="#808080" begin="reset.mouseover" end="reset.mouseout"/>
                       </use>
               </g>
        </defs>

<script type="text/javascript">
var viewWidth = 741;
var viewHeight = 370;
var sectionId = 'dynsection-1';
</script>
<script xlink:href="svgpan.js"/>
<svg id="graph" class="graph">
<g id="viewport">
<title>AmcCarrierCoreFsbl</title>
<polygon fill="#ffffff" stroke="transparent" points="-4,4 -4,-366 737,-366 737,4 -4,4"/>
<!-- Node23 -->
<g id="node1" class="node">
<title>Node23</title>
<polygon fill="#bfbfbf" stroke="#000000" points="620,-228.5 620,-247.5 733,-247.5 733,-228.5 620,-228.5"/>
<text text-anchor="middle" x="676.5" y="-235.5" font-family="Helvetica,sans-Serif" font-size="10.00" fill="#000000">AmcCarrierCoreFsbl</text>
</g>
<!-- Node24 -->
<g id="node2" class="node">
<title>Node24</title>
<g id="a_node2"><a xlink:href="classAmcCarrierSysReg.html" target="_top" xlink:title="AmcCarrierSysReg">
<polygon fill="#ffffff" stroke="#000000" points="477,-304.5 477,-323.5 584,-323.5 584,-304.5 477,-304.5"/>
<text text-anchor="middle" x="530.5" y="-311.5" font-family="Helvetica,sans-Serif" font-size="10.00" fill="#000000">AmcCarrierSysReg</text>
</a>
</g>
</g>
<!-- Node24&#45;&gt;Node23 -->
<g id="edge1" class="edge">
<title>Node24&#45;&gt;Node23</title>
<path fill="none" stroke="#191970" d="M557.8874,-299.7435C587.2046,-284.4826 632.8986,-260.6966 658.1591,-247.5473"/>
<polygon fill="#191970" stroke="#191970" points="556.2451,-296.6526 548.991,-304.3745 559.4773,-302.8617 556.2451,-296.6526"/>
</g>
<!-- Node25 -->
<g id="node3" class="node">
<title>Node25</title>
<g id="a_node3"><a xlink:href="classAmcCarrierSysMon.html" target="_top" xlink:title="AmcCarrierSysMon">
<polygon fill="#ffffff" stroke="#000000" points="330,-342.5 330,-361.5 439,-361.5 439,-342.5 330,-342.5"/>
<text text-anchor="middle" x="384.5" y="-349.5" font-family="Helvetica,sans-Serif" font-size="10.00" fill="#000000">AmcCarrierSysMon</text>
</a>
</g>
</g>
<!-- Node25&#45;&gt;Node24 -->
<g id="edge2" class="edge">
<title>Node25&#45;&gt;Node24</title>
<path fill="none" stroke="#191970" d="M431.036,-339.8879C451.3696,-334.5956 474.8713,-328.4787 493.923,-323.5201"/>
<polygon fill="#191970" stroke="#191970" points="430.1379,-336.5049 421.342,-342.411 431.9012,-343.2793 430.1379,-336.5049"/>
</g>
<!-- Node26 -->
<g id="node4" class="node">
<title>Node26</title>
<g id="a_node4"><a xlink:href="classAmcCarrierBsi.html" target="_top" xlink:title="AmcCarrierBsi">
<polygon fill="#ffffff" stroke="#000000" points="341.5,-304.5 341.5,-323.5 427.5,-323.5 427.5,-304.5 341.5,-304.5"/>
<text text-anchor="middle" x="384.5" y="-311.5" font-family="Helvetica,sans-Serif" font-size="10.00" fill="#000000">AmcCarrierBsi</text>
</a>
</g>
</g>
<!-- Node26&#45;&gt;Node24 -->
<g id="edge3" class="edge">
<title>Node26&#45;&gt;Node24</title>
<path fill="none" stroke="#191970" d="M437.5663,-314C450.378,-314 464.0768,-314 476.9123,-314"/>
<polygon fill="#191970" stroke="#191970" points="437.5152,-310.5001 427.5152,-314 437.5151,-317.5001 437.5152,-310.5001"/>
</g>
<!-- Node27 -->
<g id="node5" class="node">
<title>Node27</title>
<g id="a_node5"><a xlink:href="classAppMps.html" target="_top" xlink:title="AppMps">
<polygon fill="#ffffff" stroke="#000000" points="503,-228.5 503,-247.5 558,-247.5 558,-228.5 503,-228.5"/>
<text text-anchor="middle" x="530.5" y="-235.5" font-family="Helvetica,sans-Serif" font-size="10.00" fill="#000000">AppMps</text>
</a>
</g>
</g>
<!-- Node27&#45;&gt;Node23 -->
<g id="edge4" class="edge">
<title>Node27&#45;&gt;Node23</title>
<path fill="none" stroke="#191970" d="M568.6225,-238C584.2395,-238 602.6405,-238 619.7799,-238"/>
<polygon fill="#191970" stroke="#191970" points="568.3052,-234.5001 558.3051,-238 568.3051,-241.5001 568.3052,-234.5001"/>
</g>
<!-- Node28 -->
<g id="node6" class="node">
<title>Node28</title>
<g id="a_node6"><a xlink:href="classAppMpsClk.html" target="_top" xlink:title="AppMpsClk">
<polygon fill="#ffffff" stroke="#000000" points="349,-266.5 349,-285.5 420,-285.5 420,-266.5 349,-266.5"/>
<text text-anchor="middle" x="384.5" y="-273.5" font-family="Helvetica,sans-Serif" font-size="10.00" fill="#000000">AppMpsClk</text>
</a>
</g>
</g>
<!-- Node28&#45;&gt;Node27 -->
<g id="edge5" class="edge">
<title>Node28&#45;&gt;Node27</title>
<path fill="none" stroke="#191970" d="M430.1285,-264.1241C453.9957,-257.9121 482.4276,-250.512 502.9273,-245.1765"/>
<polygon fill="#191970" stroke="#191970" points="429.0116,-260.7981 420.2156,-266.7042 430.7748,-267.5724 429.0116,-260.7981"/>
</g>
<!-- Node29 -->
<g id="node7" class="node">
<title>Node29</title>
<g id="a_node7"><a xlink:href="classAppMpsEncoder.html" target="_top" xlink:title="AppMpsEncoder">
<polygon fill="#ffffff" stroke="#000000" points="337.5,-228.5 337.5,-247.5 431.5,-247.5 431.5,-228.5 337.5,-228.5"/>
<text text-anchor="middle" x="384.5" y="-235.5" font-family="Helvetica,sans-Serif" font-size="10.00" fill="#000000">AppMpsEncoder</text>
</a>
</g>
</g>
<!-- Node29&#45;&gt;Node27 -->
<g id="edge6" class="edge">
<title>Node29&#45;&gt;Node27</title>
<path fill="none" stroke="#191970" d="M442.0156,-238C462.9751,-238 485.7197,-238 502.9004,-238"/>
<polygon fill="#191970" stroke="#191970" points="441.9021,-234.5001 431.902,-238 441.902,-241.5001 441.9021,-234.5001"/>
</g>
<!-- Node30 -->
<g id="node8" class="node">
<title>Node30</title>
<g id="a_node8"><a xlink:href="classAppMpsReg.html" target="_top" xlink:title="AppMpsReg">
<polygon fill="#ffffff" stroke="#000000" points="179.5,-266.5 179.5,-285.5 252.5,-285.5 252.5,-266.5 179.5,-266.5"/>
<text text-anchor="middle" x="216" y="-273.5" font-family="Helvetica,sans-Serif" font-size="10.00" fill="#000000">AppMpsReg</text>
</a>
</g>
</g>
<!-- Node30&#45;&gt;Node29 -->
<g id="edge7" class="edge">
<title>Node30&#45;&gt;Node29</title>
<path fill="none" stroke="#191970" d="M262.5409,-265.5041C287.5265,-259.8694 318.0871,-252.9774 342.3658,-247.5021"/>
<polygon fill="#191970" stroke="#191970" points="261.547,-262.1403 252.562,-267.7546 263.087,-268.9688 261.547,-262.1403"/>
</g>
<!-- Node31 -->
<g id="node9" class="node">
<title>Node31</title>
<g id="a_node9"><a xlink:href="classAppMpsRegBase.html" target="_top" xlink:title="AppMpsRegBase">
<polygon fill="#ffffff" stroke="#000000" points="3.5,-285.5 3.5,-304.5 100.5,-304.5 100.5,-285.5 3.5,-285.5"/>
<text text-anchor="middle" x="52" y="-292.5" font-family="Helvetica,sans-Serif" font-size="10.00" fill="#000000">AppMpsRegBase</text>
</a>
</g>
</g>
<!-- Node31&#45;&gt;Node30 -->
<g id="edge8" class="edge">
<title>Node31&#45;&gt;Node30</title>
<path fill="none" stroke="#191970" d="M110.7361,-288.1952C133.6541,-285.5401 159.2152,-282.5787 179.4097,-280.2391"/>
<polygon fill="#191970" stroke="#191970" points="110.2921,-284.7231 100.7614,-289.3508 111.0978,-291.6766 110.2921,-284.7231"/>
</g>
<!-- Node32 -->
<g id="node10" class="node">
<title>Node32</title>
<g id="a_node10"><a xlink:href="classAppMpsRegAppCh.html" target="_top" xlink:title="AppMpsRegAppCh">
<polygon fill="#ffffff" stroke="#000000" points="0,-247.5 0,-266.5 104,-266.5 104,-247.5 0,-247.5"/>
<text text-anchor="middle" x="52" y="-254.5" font-family="Helvetica,sans-Serif" font-size="10.00" fill="#000000">AppMpsRegAppCh</text>
</a>
</g>
</g>
<!-- Node32&#45;&gt;Node30 -->
<g id="edge9" class="edge">
<title>Node32&#45;&gt;Node30</title>
<path fill="none" stroke="#191970" d="M114.2808,-264.2155C136.2749,-266.7636 160.2811,-269.5448 179.4463,-271.7651"/>
<polygon fill="#191970" stroke="#191970" points="114.6779,-260.7381 104.3415,-263.064 113.8723,-267.6916 114.6779,-260.7381"/>
</g>
<!-- Node33 -->
<g id="node11" class="node">
<title>Node33</title>
<g id="a_node11"><a xlink:href="classAppMpsSelect.html" target="_top" xlink:title="AppMpsSelect">
<polygon fill="#ffffff" stroke="#000000" points="173.5,-228.5 173.5,-247.5 258.5,-247.5 258.5,-228.5 173.5,-228.5"/>
<text text-anchor="middle" x="216" y="-235.5" font-family="Helvetica,sans-Serif" font-size="10.00" fill="#000000">AppMpsSelect</text>
</a>
</g>
</g>
<!-- Node33&#45;&gt;Node29 -->
<g id="edge10" class="edge">
<title>Node33&#45;&gt;Node29</title>
<path fill="none" stroke="#191970" d="M268.6661,-238C290.6125,-238 315.902,-238 337.2412,-238"/>
<polygon fill="#191970" stroke="#191970" points="268.5197,-234.5001 258.5197,-238 268.5196,-241.5001 268.5197,-234.5001"/>
</g>
<!-- Node34 -->
<g id="node12" class="node">
<title>Node34</title>
<g id="a_node12"><a xlink:href="classMpsMsgCore.html" target="_top" xlink:title="MpsMsgCore">
<polygon fill="#ffffff" stroke="#000000" points="177,-190.5 177,-209.5 255,-209.5 255,-190.5 177,-190.5"/>
<text text-anchor="middle" x="216" y="-197.5" font-family="Helvetica,sans-Serif" font-size="10.00" fill="#000000">MpsMsgCore</text>
</a>
</g>
</g>
<!-- Node34&#45;&gt;Node29 -->
<g id="edge11" class="edge">
<title>Node34&#45;&gt;Node29</title>
<path fill="none" stroke="#191970" d="M264.8782,-211.023C289.3174,-216.5345 318.6087,-223.1402 342.0891,-228.4355"/>
<polygon fill="#191970" stroke="#191970" points="265.6058,-207.5992 255.0808,-208.8135 264.0658,-214.4278 265.6058,-207.5992"/>
</g>
<!-- Node35 -->
<g id="node13" class="node">
<title>Node35</title>
<g id="a_node13"><a xlink:href="classAppMpsSalt.html" target="_top" xlink:title="AppMpsSalt">
<polygon fill="#ffffff" stroke="#000000" points="347.5,-190.5 347.5,-209.5 421.5,-209.5 421.5,-190.5 347.5,-190.5"/>
<text text-anchor="middle" x="384.5" y="-197.5" font-family="Helvetica,sans-Serif" font-size="10.00" fill="#000000">AppMpsSalt</text>
</a>
</g>
</g>
<!-- Node35&#45;&gt;Node27 -->
<g id="edge12" class="edge">
<title>Node35&#45;&gt;Node27</title>
<path fill="none" stroke="#191970" d="M431.1752,-212.1483C454.8079,-218.2993 482.6906,-225.5565 502.8883,-230.8134"/>
<polygon fill="#191970" stroke="#191970" points="431.9012,-208.7207 421.342,-209.589 430.1379,-215.4951 431.9012,-208.7207"/>
</g>
<!-- Node36 -->
<g id="node14" class="node">
<title>Node36</title>
<g id="a_node14"><a xlink:href="classAmcCarrierFsbl.html" target="_top" xlink:title="AmcCarrierFsbl">
<polygon fill="#ffffff" stroke="#000000" points="485,-95.5 485,-114.5 576,-114.5 576,-95.5 485,-95.5"/>
<text text-anchor="middle" x="530.5" y="-102.5" font-family="Helvetica,sans-Serif" font-size="10.00" fill="#000000">AmcCarrierFsbl</text>
</a>
</g>
</g>
<!-- Node36&#45;&gt;Node23 -->
<g id="edge13" class="edge">
<title>Node36&#45;&gt;Node23</title>
<path fill="none" stroke="#191970" d="M548.4361,-121.339C579.1233,-149.2938 640.7961,-205.4752 665.7013,-228.1628"/>
<polygon fill="#191970" stroke="#191970" points="550.7495,-118.712 541,-114.565 546.0355,-123.8867 550.7495,-118.712"/>
</g>
<!-- Node37 -->
<g id="node15" class="node">
<title>Node37</title>
<g id="a_node15"><a xlink:href="classAmcCarrierIbufGt.html" target="_top" xlink:title="AmcCarrierIbufGt">
<polygon fill="#ffffff" stroke="#000000" points="165.5,-133.5 165.5,-152.5 266.5,-152.5 266.5,-133.5 165.5,-133.5"/>
<text text-anchor="middle" x="216" y="-140.5" font-family="Helvetica,sans-Serif" font-size="10.00" fill="#000000">AmcCarrierIbufGt</text>
</a>
</g>
</g>
<!-- Node37&#45;&gt;Node36 -->
<g id="edge14" class="edge">
<title>Node37&#45;&gt;Node36</title>
<path fill="none" stroke="#191970" d="M276.6555,-149.499C322.3176,-152.8305 386.1967,-154.1524 441,-143 467.6321,-137.5804 496.1653,-123.9478 513.6748,-114.5761"/>
<polygon fill="#191970" stroke="#191970" points="276.8624,-146.0046 266.6196,-148.7131 276.3159,-152.9832 276.8624,-146.0046"/>
</g>
<!-- Node39 -->
<g id="node17" class="node">
<title>Node39</title>
<g id="a_node17"><a xlink:href="classAmcCarrierTiming.html" target="_top" xlink:title="AmcCarrierTiming">
<polygon fill="#ffffff" stroke="#000000" points="332,-114.5 332,-133.5 437,-133.5 437,-114.5 332,-114.5"/>
<text text-anchor="middle" x="384.5" y="-121.5" font-family="Helvetica,sans-Serif" font-size="10.00" fill="#000000">AmcCarrierTiming</text>
</a>
</g>
</g>
<!-- Node37&#45;&gt;Node39 -->
<g id="edge17" class="edge">
<title>Node37&#45;&gt;Node39</title>
<path fill="none" stroke="#191970" d="M276.6993,-136.1556C294.7751,-134.1173 314.4236,-131.9018 331.9345,-129.9273"/>
<polygon fill="#191970" stroke="#191970" points="276.1004,-132.7008 266.5556,-137.2994 276.8848,-139.6568 276.1004,-132.7008"/>
</g>
<!-- Node38 -->
<g id="node16" class="node">
<title>Node38</title>
<g id="a_node16"><a xlink:href="classAmcCarrierEthFsbl.html" target="_top" xlink:title="AmcCarrierEthFsbl">
<polygon fill="#ffffff" stroke="#000000" points="331,-76.5 331,-95.5 438,-95.5 438,-76.5 331,-76.5"/>
<text text-anchor="middle" x="384.5" y="-83.5" font-family="Helvetica,sans-Serif" font-size="10.00" fill="#000000">AmcCarrierEthFsbl</text>
</a>
</g>
</g>
<!-- Node38&#45;&gt;Node36 -->
<g id="edge15" class="edge">
<title>Node38&#45;&gt;Node36</title>
<path fill="none" stroke="#191970" d="M448.2223,-94.2926C460.4852,-95.8885 473.1031,-97.5305 484.6615,-99.0347"/>
<polygon fill="#191970" stroke="#191970" points="448.4041,-90.7868 438.036,-92.967 447.5007,-97.7283 448.4041,-90.7868"/>
</g>
<!-- Node39&#45;&gt;Node36 -->
<g id="edge16" class="edge">
<title>Node39&#45;&gt;Node36</title>
<path fill="none" stroke="#191970" d="M447.1781,-115.8433C459.7564,-114.2064 472.752,-112.5152 484.6302,-110.9694"/>
<polygon fill="#191970" stroke="#191970" points="446.674,-112.3793 437.2094,-117.1406 447.5774,-119.3207 446.674,-112.3793"/>
</g>
<!-- Node40 -->
<g id="node18" class="node">
<title>Node40</title>
<g id="a_node18"><a xlink:href="classAmcCarrierBsa.html" target="_top" xlink:title="AmcCarrierBsa">
<polygon fill="#ffffff" stroke="#000000" points="340,-38.5 340,-57.5 429,-57.5 429,-38.5 340,-38.5"/>
<text text-anchor="middle" x="384.5" y="-45.5" font-family="Helvetica,sans-Serif" font-size="10.00" fill="#000000">AmcCarrierBsa</text>
</a>
</g>
</g>
<!-- Node40&#45;&gt;Node36 -->
<g id="edge18" class="edge">
<title>Node40&#45;&gt;Node36</title>
<path fill="none" stroke="#191970" d="M423.8428,-60.7954C429.6224,-62.8009 435.484,-64.9051 441,-67 464.6714,-75.9901 491.3303,-87.4912 509.3487,-95.4742"/>
<polygon fill="#191970" stroke="#191970" points="424.8636,-57.4457 414.2691,-57.5326 422.6054,-64.0714 424.8636,-57.4457"/>
</g>
<!-- Node41 -->
<g id="node19" class="node">
<title>Node41</title>
<g id="a_node19"><a xlink:href="classBsaWaveformEngine.html" target="_top" xlink:title="BsaWaveformEngine(2)">
<polygon fill="#ffffff" stroke="#000000" points="150.5,-76.5 150.5,-95.5 281.5,-95.5 281.5,-76.5 150.5,-76.5"/>
<text text-anchor="middle" x="216" y="-83.5" font-family="Helvetica,sans-Serif" font-size="10.00" fill="#000000">BsaWaveformEngine(2)</text>
</a>
</g>
</g>
<!-- Node41&#45;&gt;Node40 -->
<g id="edge19" class="edge">
<title>Node41&#45;&gt;Node40</title>
<path fill="none" stroke="#191970" d="M268.4313,-74.1757C292.1868,-68.8184 319.8986,-62.5689 342.2861,-57.5201"/>
<polygon fill="#191970" stroke="#191970" points="267.5047,-70.7967 258.5197,-76.411 269.0447,-77.6252 267.5047,-70.7967"/>
</g>
<!-- Node42 -->
<g id="node20" class="node">
<title>Node42</title>
<g id="a_node20"><a xlink:href="classBsaBufferControl.html" target="_top" xlink:title="BsaBufferControl">
<polygon fill="#ffffff" stroke="#000000" points="166.5,-38.5 166.5,-57.5 265.5,-57.5 265.5,-38.5 166.5,-38.5"/>
<text text-anchor="middle" x="216" y="-45.5" font-family="Helvetica,sans-Serif" font-size="10.00" fill="#000000">BsaBufferControl</text>
</a>
</g>
</g>
<!-- Node42&#45;&gt;Node40 -->
<g id="edge20" class="edge">
<title>Node42&#45;&gt;Node40</title>
<path fill="none" stroke="#191970" d="M275.7869,-48C296.867,-48 320.1844,-48 339.8013,-48"/>
<polygon fill="#191970" stroke="#191970" points="275.6442,-44.5001 265.6442,-48 275.6442,-51.5001 275.6442,-44.5001"/>
</g>
<!-- Node43 -->
<g id="node21" class="node">
<title>Node43</title>
<g id="a_node21"><a xlink:href="classBsaAccumulator.html" target="_top" xlink:title="BsaAccumulator">
<polygon fill="#ffffff" stroke="#000000" points="4,-38.5 4,-57.5 100,-57.5 100,-38.5 4,-38.5"/>
<text text-anchor="middle" x="52" y="-45.5" font-family="Helvetica,sans-Serif" font-size="10.00" fill="#000000">BsaAccumulator</text>
</a>
</g>
</g>
<!-- Node43&#45;&gt;Node42 -->
<g id="edge21" class="edge">
<title>Node43&#45;&gt;Node42</title>
<path fill="none" stroke="#191970" d="M110.5465,-48C128.7968,-48 148.7394,-48 166.3217,-48"/>
<polygon fill="#191970" stroke="#191970" points="110.3184,-44.5001 100.3184,-48 110.3184,-51.5001 110.3184,-44.5001"/>
</g>
<!-- Node44 -->
<g id="node22" class="node">
<title>Node44</title>
<g id="a_node22"><a xlink:href="classBsaAxiInterconnectWrapper.html" target="_top" xlink:title="BsaAxiInterconnectWrapper">
<polygon fill="#ffffff" stroke="#000000" points="140,-.5 140,-19.5 292,-19.5 292,-.5 140,-.5"/>
<text text-anchor="middle" x="216" y="-7.5" font-family="Helvetica,sans-Serif" font-size="10.00" fill="#000000">BsaAxiInterconnectWrapper</text>
</a>
</g>
</g>
<!-- Node44&#45;&gt;Node40 -->
<g id="edge22" class="edge">
<title>Node44&#45;&gt;Node40</title>
<path fill="none" stroke="#191970" d="M268.4313,-21.8243C292.1868,-27.1816 319.8986,-33.4311 342.2861,-38.4799"/>
<polygon fill="#191970" stroke="#191970" points="269.0447,-18.3748 258.5197,-19.589 267.5047,-25.2033 269.0447,-18.3748"/>
</g>
<!-- Node45 -->
<g id="node23" class="node">
<title>Node45</title>
<g id="a_node23"><a xlink:href="classAmcCarrierDdrMem.html" target="_top" xlink:title="AmcCarrierDdrMem">
<polygon fill="#ffffff" stroke="#000000" points="328,-.5 328,-19.5 441,-19.5 441,-.5 328,-.5"/>
<text text-anchor="middle" x="384.5" y="-7.5" font-family="Helvetica,sans-Serif" font-size="10.00" fill="#000000">AmcCarrierDdrMem</text>
</a>
</g>
</g>
<!-- Node45&#45;&gt;Node36 -->
<g id="edge23" class="edge">
<title>Node45&#45;&gt;Node36</title>
<path fill="none" stroke="#191970" d="M429.2808,-23.2702C433.3334,-25.0015 437.3,-26.9099 441,-29 474.1897,-47.7486 506.6471,-79.6591 521.7326,-95.4988"/>
<polygon fill="#191970" stroke="#191970" points="430.3419,-19.9273 419.7538,-19.55 427.7957,-26.4478 430.3419,-19.9273"/>
</g>
</g>
</svg>
        <g id="navigator" transform="translate(0 0)" fill="#404254">
                <rect fill="#f2f5e9" fill-opacity="0.5" stroke="#606060" stroke-width=".5" x="0" y="0" width="60" height="60"/>
                <use id="zoomplus" xlink:href="#zoomPlus" x="17" y="9" onmousedown="handleZoom(evt,'in')"/>
                <use id="zoomminus" xlink:href="#zoomMin" x="42" y="9" onmousedown="handleZoom(evt,'out')"/>
                <use id="reset" xlink:href="#resetDef" x="30" y="36" onmousedown="handleReset()"/>
                <g id="arrowUp" xlink:href="#dirArrow" transform="translate(30 24)" onmousedown="handlePan(0,-1)">
                  <use xlink:href="#rim" fill="#404040">
                        <set attributeName="fill" to="#808080" begin="arrowUp.mouseover" end="arrowUp.mouseout"/>
                  </use>
                  <path fill="none" stroke="white" stroke-width="1.5" d="M0,-3.0v7 M-2.5,-0.5L0,-3.0L2.5,-0.5"/>
                </g>
                <g id="arrowRight" xlink:href="#dirArrow" transform="rotate(90) translate(36 -43)" onmousedown="handlePan(1,0)">
                  <use xlink:href="#rim" fill="#404040">
                        <set attributeName="fill" to="#808080" begin="arrowRight.mouseover" end="arrowRight.mouseout"/>
                  </use>
                  <path fill="none" stroke="white" stroke-width="1.5" d="M0,-3.0v7 M-2.5,-0.5L0,-3.0L2.5,-0.5"/>
                </g>
                <g id="arrowDown" xlink:href="#dirArrow" transform="rotate(180) translate(-30 -48)" onmousedown="handlePan(0,1)">
                  <use xlink:href="#rim" fill="#404040">
                        <set attributeName="fill" to="#808080" begin="arrowDown.mouseover" end="arrowDown.mouseout"/>
                  </use>
                  <path fill="none" stroke="white" stroke-width="1.5" d="M0,-3.0v7 M-2.5,-0.5L0,-3.0L2.5,-0.5"/>
                </g>
                <g id="arrowLeft" xlink:href="#dirArrow" transform="rotate(270) translate(-36 17)" onmousedown="handlePan(-1,0)">
                  <use xlink:href="#rim" fill="#404040">
                        <set attributeName="fill" to="#808080" begin="arrowLeft.mouseover" end="arrowLeft.mouseout"/>
                  </use>
                  <path fill="none" stroke="white" stroke-width="1.5" d="M0,-3.0v7 M-2.5,-0.5L0,-3.0L2.5,-0.5"/>
                </g>
        </g>
        <svg viewBox="0 0 15 15" width="100%" height="30px" preserveAspectRatio="xMaxYMin meet">
         <g id="arrow_out" transform="scale(0.3 0.3)">
          <a xlink:href="classAmcCarrierCoreFsbl__coll__graph_org.svg" target="_base">
           <rect id="button" ry="5" rx="5" y="6" x="6" height="38" width="38"
                fill="#f2f5e9" fill-opacity="0.5" stroke="#606060" stroke-width="1.0"/>
           <path id="arrow"
             d="M 11.500037,31.436501 C 11.940474,20.09759 22.043105,11.32322 32.158766,21.979434 L 37.068811,17.246167 C 37.068811,17.246167 37.088388,32 37.088388,32 L 22.160133,31.978069 C 22.160133,31.978069 26.997745,27.140456 26.997745,27.140456 C 18.528582,18.264221 13.291696,25.230495 11.500037,31.436501 z"
             style="fill:#404040;"/>
          </a>
         </g>
        </svg>
</svg>
