<?xml version="1.0" encoding="UTF-8" standalone="no"?>
<!DOCTYPE svg PUBLIC "-//W3C//DTD SVG 1.1//EN"
 "http://www.w3.org/Graphics/SVG/1.1/DTD/svg11.dtd">
<!-- Generated by graphviz version 2.43.0 (0)
 -->
<!-- Title: AmcCarrierFsbl Pages: 1 -->
<!--zoomable 252 -->
<svg id="main" version="1.1" xmlns="http://www.w3.org/2000/svg" xmlns:xlink="http://www.w3.org/1999/xlink" xml:space="preserve" onload="init(evt)">
<style type="text/css"><![CDATA[
.edge:hover path { stroke: red; }
.edge:hover polygon { stroke: red; fill: red; }
]]></style>
<script type="text/javascript"><![CDATA[
var edges = document.getElementsByTagName('g');
if (edges && edges.length) {
  for (var i=0;i<edges.length;i++) {
    if (edges[i].id.substr(0,4)=='edge') {
      edges[i].setAttribute('class','edge');
    }
  }
}
]]></script>
        <defs>
                <circle id="rim" cx="0" cy="0" r="7"/>
                <circle id="rim2" cx="0" cy="0" r="3.5"/>
                <g id="zoomPlus">
                        <use xlink:href="#rim" fill="#404040">
                                <set attributeName="fill" to="#808080" begin="zoomplus.mouseover" end="zoomplus.mouseout"/>
                        </use>
                        <path d="M-4,0h8M0,-4v8" fill="none" stroke="white" stroke-width="1.5" pointer-events="none"/>
                </g>
                <g id="zoomMin">
                        <use xlink:href="#rim" fill="#404040">
                                <set attributeName="fill" to="#808080" begin="zoomminus.mouseover" end="zoomminus.mouseout"/>
                        </use>
                        <path d="M-4,0h8" fill="none" stroke="white" stroke-width="1.5" pointer-events="none"/>
                </g>
                <g id="dirArrow">
                        <path fill="none" stroke="white" stroke-width="1.5" d="M0,-3.0v7 M-2.5,-0.5L0,-3.0L2.5,-0.5"/>
                </g>
               <g id="resetDef">
                       <use xlink:href="#rim2" fill="#404040">
                               <set attributeName="fill" to="#808080" begin="reset.mouseover" end="reset.mouseout"/>
                       </use>
               </g>
        </defs>

<script type="text/javascript">
var viewWidth = 660;
var viewHeight = 252;
var sectionId = 'dynsection-0';
</script>
<script xlink:href="svgpan.js"/>
<svg id="graph" class="graph">
<g id="viewport">
<title>AmcCarrierFsbl</title>
<polygon fill="white" stroke="transparent" points="-4,4 -4,-248 656,-248 656,4 -4,4"/>
<!-- Node1 -->
<g id="node1" class="node">
<title>Node1</title>
<g id="a_node1"><a xlink:title=" ">
<polygon fill="#bfbfbf" stroke="black" points="182.5,-56.5 182.5,-75.5 274.5,-75.5 274.5,-56.5 182.5,-56.5"/>
<text text-anchor="middle" x="228.5" y="-63.5" font-family="Helvetica,sans-Serif" font-size="10.00">AmcCarrierFsbl</text>
</a>
</g>
</g>
<!-- Node12 -->
<g id="node12" class="node">
<title>Node12</title>
<g id="a_node12"><a xlink:href="classAmcCarrierCoreFsbl.html" target="_top" xlink:title=" ">
<polygon fill="white" stroke="black" points="171.5,-0.5 171.5,-19.5 285.5,-19.5 285.5,-0.5 171.5,-0.5"/>
<text text-anchor="middle" x="228.5" y="-7.5" font-family="Helvetica,sans-Serif" font-size="10.00">AmcCarrierCoreFsbl</text>
</a>
</g>
</g>
<!-- Node1&#45;&gt;Node12 -->
<g id="edge12" class="edge">
<title>Node1&#45;&gt;Node12</title>
<path fill="none" stroke="midnightblue" d="M228.5,-45.8C228.5,-36.91 228.5,-26.78 228.5,-19.75"/>
<polygon fill="midnightblue" stroke="midnightblue" points="225,-46.08 228.5,-56.08 232,-46.08 225,-46.08"/>
</g>
<!-- Node2 -->
<g id="node2" class="node">
<title>Node2</title>
<g id="a_node2"><a xlink:href="classAmcCarrierIbufGt.html" target="_top" xlink:title=" ">
<polygon fill="white" stroke="black" points="0,-168.5 0,-187.5 101,-187.5 101,-168.5 0,-168.5"/>
<text text-anchor="middle" x="50.5" y="-175.5" font-family="Helvetica,sans-Serif" font-size="10.00">AmcCarrierIbufGt</text>
</a>
</g>
</g>
<!-- Node2&#45;&gt;Node1 -->
<g id="edge1" class="edge">
<title>Node2&#45;&gt;Node1</title>
<path fill="none" stroke="midnightblue" d="M41.88,-159.13C36.4,-144.9 32.09,-125.23 42.5,-112 59.6,-90.26 133.14,-77.77 182.47,-71.68"/>
<polygon fill="midnightblue" stroke="midnightblue" points="38.7,-160.59 45.89,-168.37 45.12,-157.8 38.7,-160.59"/>
</g>
<!-- Node4 -->
<g id="node4" class="node">
<title>Node4</title>
<g id="a_node4"><a xlink:href="classAmcCarrierTiming.html" target="_top" xlink:title=" ">
<polygon fill="white" stroke="black" points="52,-112.5 52,-131.5 157,-131.5 157,-112.5 52,-112.5"/>
<text text-anchor="middle" x="104.5" y="-119.5" font-family="Helvetica,sans-Serif" font-size="10.00">AmcCarrierTiming</text>
</a>
</g>
</g>
<!-- Node2&#45;&gt;Node4 -->
<g id="edge4" class="edge">
<title>Node2&#45;&gt;Node4</title>
<path fill="none" stroke="midnightblue" d="M66.5,-161C76.07,-151.43 87.86,-139.64 95.75,-131.75"/>
<polygon fill="midnightblue" stroke="midnightblue" points="64.01,-158.54 59.42,-168.08 68.96,-163.49 64.01,-158.54"/>
</g>
<!-- Node3 -->
<g id="node3" class="node">
<title>Node3</title>
<g id="a_node3"><a xlink:href="classAmcCarrierEthFsbl.html" target="_top" xlink:title=" ">
<polygon fill="white" stroke="black" points="175,-112.5 175,-131.5 282,-131.5 282,-112.5 175,-112.5"/>
<text text-anchor="middle" x="228.5" y="-119.5" font-family="Helvetica,sans-Serif" font-size="10.00">AmcCarrierEthFsbl</text>
</a>
</g>
</g>
<!-- Node3&#45;&gt;Node1 -->
<g id="edge2" class="edge">
<title>Node3&#45;&gt;Node1</title>
<path fill="none" stroke="midnightblue" d="M228.5,-101.8C228.5,-92.91 228.5,-82.78 228.5,-75.75"/>
<polygon fill="midnightblue" stroke="midnightblue" points="225,-102.08 228.5,-112.08 232,-102.08 225,-102.08"/>
</g>
<!-- Node4&#45;&gt;Node1 -->
<g id="edge3" class="edge">
<title>Node4&#45;&gt;Node1</title>
<path fill="none" stroke="midnightblue" d="M133.51,-108.37C156.73,-98.26 188.66,-84.35 208.94,-75.52"/>
<polygon fill="midnightblue" stroke="midnightblue" points="131.92,-105.24 124.15,-112.44 134.71,-111.66 131.92,-105.24"/>
</g>
<!-- Node5 -->
<g id="node5" class="node">
<title>Node5</title>
<g id="a_node5"><a xlink:href="classAmcCarrierBsa.html" target="_top" xlink:title=" ">
<polygon fill="white" stroke="black" points="300,-112.5 300,-131.5 389,-131.5 389,-112.5 300,-112.5"/>
<text text-anchor="middle" x="344.5" y="-119.5" font-family="Helvetica,sans-Serif" font-size="10.00">AmcCarrierBsa</text>
</a>
</g>
</g>
<!-- Node5&#45;&gt;Node1 -->
<g id="edge5" class="edge">
<title>Node5&#45;&gt;Node1</title>
<path fill="none" stroke="midnightblue" d="M316.78,-108.1C295.11,-98.01 265.6,-84.27 246.79,-75.52"/>
<polygon fill="midnightblue" stroke="midnightblue" points="315.58,-111.4 326.12,-112.44 318.53,-105.05 315.58,-111.4"/>
</g>
<!-- Node6 -->
<g id="node6" class="node">
<title>Node6</title>
<g id="a_node6"><a xlink:href="classBsaWaveformEngine.html" target="_top" xlink:title=" ">
<polygon fill="white" stroke="black" points="132,-168.5 132,-187.5 263,-187.5 263,-168.5 132,-168.5"/>
<text text-anchor="middle" x="197.5" y="-175.5" font-family="Helvetica,sans-Serif" font-size="10.00">BsaWaveformEngine(2)</text>
</a>
</g>
</g>
<!-- Node6&#45;&gt;Node5 -->
<g id="edge6" class="edge">
<title>Node6&#45;&gt;Node5</title>
<path fill="none" stroke="midnightblue" d="M230.42,-164.91C258.06,-154.75 296.84,-140.51 321.32,-131.52"/>
<polygon fill="midnightblue" stroke="midnightblue" points="228.97,-161.71 220.79,-168.44 231.39,-168.28 228.97,-161.71"/>
</g>
<!-- Node7 -->
<g id="node7" class="node">
<title>Node7</title>
<g id="a_node7"><a xlink:href="classBsaBufferControl.html" target="_top" xlink:title=" ">
<polygon fill="white" stroke="black" points="281,-168.5 281,-187.5 380,-187.5 380,-168.5 281,-168.5"/>
<text text-anchor="middle" x="330.5" y="-175.5" font-family="Helvetica,sans-Serif" font-size="10.00">BsaBufferControl</text>
</a>
</g>
</g>
<!-- Node7&#45;&gt;Node5 -->
<g id="edge7" class="edge">
<title>Node7&#45;&gt;Node5</title>
<path fill="none" stroke="midnightblue" d="M335.32,-158.4C337.67,-149.36 340.37,-138.94 342.23,-131.75"/>
<polygon fill="midnightblue" stroke="midnightblue" points="331.93,-157.52 332.81,-168.08 338.71,-159.28 331.93,-157.52"/>
</g>
<!-- Node8 -->
<g id="node8" class="node">
<title>Node8</title>
<g id="a_node8"><a xlink:href="classBsaAccumulator.html" target="_top" xlink:title=" ">
<polygon fill="white" stroke="black" points="282.5,-224.5 282.5,-243.5 378.5,-243.5 378.5,-224.5 282.5,-224.5"/>
<text text-anchor="middle" x="330.5" y="-231.5" font-family="Helvetica,sans-Serif" font-size="10.00">BsaAccumulator</text>
</a>
</g>
</g>
<!-- Node8&#45;&gt;Node7 -->
<g id="edge8" class="edge">
<title>Node8&#45;&gt;Node7</title>
<path fill="none" stroke="midnightblue" d="M330.5,-213.8C330.5,-204.91 330.5,-194.78 330.5,-187.75"/>
<polygon fill="midnightblue" stroke="midnightblue" points="327,-214.08 330.5,-224.08 334,-214.08 327,-214.08"/>
</g>
<!-- Node9 -->
<g id="node9" class="node">
<title>Node9</title>
<g id="a_node9"><a xlink:href="classBsaAxiInterconnectWrapper.html" target="_top" xlink:title=" ">
<polygon fill="white" stroke="black" points="398.5,-168.5 398.5,-187.5 550.5,-187.5 550.5,-168.5 398.5,-168.5"/>
<text text-anchor="middle" x="474.5" y="-175.5" font-family="Helvetica,sans-Serif" font-size="10.00">BsaAxiInterconnectWrapper</text>
</a>
</g>
</g>
<!-- Node9&#45;&gt;Node5 -->
<g id="edge9" class="edge">
<title>Node9&#45;&gt;Node5</title>
<path fill="none" stroke="midnightblue" d="M444.41,-164.5C420.04,-154.38 386.36,-140.39 365,-131.52"/>
<polygon fill="midnightblue" stroke="midnightblue" points="443.32,-167.84 453.9,-168.44 446.01,-161.38 443.32,-167.84"/>
</g>
<!-- Node10 -->
<g id="node10" class="node">
<title>Node10</title>
<g id="a_node10"><a xlink:href="classBldAxiStream.html" target="_top" xlink:title=" ">
<polygon fill="white" stroke="black" points="569,-168.5 569,-187.5 652,-187.5 652,-168.5 569,-168.5"/>
<text text-anchor="middle" x="610.5" y="-175.5" font-family="Helvetica,sans-Serif" font-size="10.00">BldAxiStream</text>
</a>
</g>
</g>
<!-- Node10&#45;&gt;Node5 -->
<g id="edge10" class="edge">
<title>Node10&#45;&gt;Node5</title>
<path fill="none" stroke="midnightblue" d="M558.94,-166.53C508.74,-156.34 433.37,-141.04 386.65,-131.56"/>
<polygon fill="midnightblue" stroke="midnightblue" points="558.44,-170 568.94,-168.56 559.83,-163.14 558.44,-170"/>
</g>
<!-- Node11 -->
<g id="node11" class="node">
<title>Node11</title>
<g id="a_node11"><a xlink:href="classAmcCarrierDdrMem.html" target="_top" xlink:title=" ">
<polygon fill="white" stroke="black" points="407,-112.5 407,-131.5 520,-131.5 520,-112.5 407,-112.5"/>
<text text-anchor="middle" x="463.5" y="-119.5" font-family="Helvetica,sans-Serif" font-size="10.00">AmcCarrierDdrMem</text>
</a>
</g>
</g>
<!-- Node11&#45;&gt;Node1 -->
<g id="edge11" class="edge">
<title>Node11&#45;&gt;Node1</title>
<path fill="none" stroke="midnightblue" d="M416.29,-110.15C371.89,-99.95 306.31,-84.88 265.56,-75.52"/>
<polygon fill="midnightblue" stroke="midnightblue" points="415.73,-113.62 426.26,-112.44 417.3,-106.79 415.73,-113.62"/>
</g>
</g>
</svg>
        <g id="navigator" transform="translate(0 0)" fill="#404254">
                <rect fill="#f2f5e9" fill-opacity="0.5" stroke="#606060" stroke-width=".5" x="0" y="0" width="60" height="60"/>
                <use id="zoomplus" xlink:href="#zoomPlus" x="17" y="9" onmousedown="handleZoom(evt,'in')"/>
                <use id="zoomminus" xlink:href="#zoomMin" x="42" y="9" onmousedown="handleZoom(evt,'out')"/>
                <use id="reset" xlink:href="#resetDef" x="30" y="36" onmousedown="handleReset()"/>
                <g id="arrowUp" xlink:href="#dirArrow" transform="translate(30 24)" onmousedown="handlePan(0,-1)">
                  <use xlink:href="#rim" fill="#404040">
                        <set attributeName="fill" to="#808080" begin="arrowUp.mouseover" end="arrowUp.mouseout"/>
                  </use>
                  <path fill="none" stroke="white" stroke-width="1.5" d="M0,-3.0v7 M-2.5,-0.5L0,-3.0L2.5,-0.5"/>
                </g>
                <g id="arrowRight" xlink:href="#dirArrow" transform="rotate(90) translate(36 -43)" onmousedown="handlePan(1,0)">
                  <use xlink:href="#rim" fill="#404040">
                        <set attributeName="fill" to="#808080" begin="arrowRight.mouseover" end="arrowRight.mouseout"/>
                  </use>
                  <path fill="none" stroke="white" stroke-width="1.5" d="M0,-3.0v7 M-2.5,-0.5L0,-3.0L2.5,-0.5"/>
                </g>
                <g id="arrowDown" xlink:href="#dirArrow" transform="rotate(180) translate(-30 -48)" onmousedown="handlePan(0,1)">
                  <use xlink:href="#rim" fill="#404040">
                        <set attributeName="fill" to="#808080" begin="arrowDown.mouseover" end="arrowDown.mouseout"/>
                  </use>
                  <path fill="none" stroke="white" stroke-width="1.5" d="M0,-3.0v7 M-2.5,-0.5L0,-3.0L2.5,-0.5"/>
                </g>
                <g id="arrowLeft" xlink:href="#dirArrow" transform="rotate(270) translate(-36 17)" onmousedown="handlePan(-1,0)">
                  <use xlink:href="#rim" fill="#404040">
                        <set attributeName="fill" to="#808080" begin="arrowLeft.mouseover" end="arrowLeft.mouseout"/>
                  </use>
                  <path fill="none" stroke="white" stroke-width="1.5" d="M0,-3.0v7 M-2.5,-0.5L0,-3.0L2.5,-0.5"/>
                </g>
        </g>
        <svg viewBox="0 0 15 15" width="100%" height="30px" preserveAspectRatio="xMaxYMin meet">
         <g id="arrow_out" transform="scale(0.3 0.3)">
          <a xlink:href="classAmcCarrierFsbl__inherit__graph_org.svg" target="_base">
           <rect id="button" ry="5" rx="5" y="6" x="6" height="38" width="38"
                fill="#f2f5e9" fill-opacity="0.5" stroke="#606060" stroke-width="1.0"/>
           <path id="arrow"
             d="M 11.500037,31.436501 C 11.940474,20.09759 22.043105,11.32322 32.158766,21.979434 L 37.068811,17.246167 C 37.068811,17.246167 37.088388,32 37.088388,32 L 22.160133,31.978069 C 22.160133,31.978069 26.997745,27.140456 26.997745,27.140456 C 18.528582,18.264221 13.291696,25.230495 11.500037,31.436501 z"
             style="fill:#404040;"/>
          </a>
         </g>
        </svg>
</svg>
