<?xml version="1.0" encoding="UTF-8" standalone="no"?>
<!DOCTYPE svg PUBLIC "-//W3C//DTD SVG 1.1//EN"
 "http://www.w3.org/Graphics/SVG/1.1/DTD/svg11.dtd">
<!-- Generated by graphviz version 2.43.0 (0)
 -->
<!-- Title: AmcCarrierCoreAdv Pages: 1 -->
<!--zoomable 446 -->
<svg id="main" version="1.1" xmlns="http://www.w3.org/2000/svg" xmlns:xlink="http://www.w3.org/1999/xlink" xml:space="preserve" onload="init(evt)">
<style type="text/css"><![CDATA[
.edge:hover path { stroke: red; }
.edge:hover polygon { stroke: red; fill: red; }
]]></style>
<script type="text/javascript"><![CDATA[
var edges = document.getElementsByTagName('g');
if (edges && edges.length) {
  for (var i=0;i<edges.length;i++) {
    if (edges[i].id.substr(0,4)=='edge') {
      edges[i].setAttribute('class','edge');
    }
  }
}
]]></script>
        <defs>
                <circle id="rim" cx="0" cy="0" r="7"/>
                <circle id="rim2" cx="0" cy="0" r="3.5"/>
                <g id="zoomPlus">
                        <use xlink:href="#rim" fill="#404040">
                                <set attributeName="fill" to="#808080" begin="zoomplus.mouseover" end="zoomplus.mouseout"/>
                        </use>
                        <path d="M-4,0h8M0,-4v8" fill="none" stroke="white" stroke-width="1.5" pointer-events="none"/>
                </g>
                <g id="zoomMin">
                        <use xlink:href="#rim" fill="#404040">
                                <set attributeName="fill" to="#808080" begin="zoomminus.mouseover" end="zoomminus.mouseout"/>
                        </use>
                        <path d="M-4,0h8" fill="none" stroke="white" stroke-width="1.5" pointer-events="none"/>
                </g>
                <g id="dirArrow">
                        <path fill="none" stroke="white" stroke-width="1.5" d="M0,-3.0v7 M-2.5,-0.5L0,-3.0L2.5,-0.5"/>
                </g>
               <g id="resetDef">
                       <use xlink:href="#rim2" fill="#404040">
                               <set attributeName="fill" to="#808080" begin="reset.mouseover" end="reset.mouseout"/>
                       </use>
               </g>
        </defs>

<script type="text/javascript">
var viewWidth = 777;
var viewHeight = 446;
var sectionId = 'dynsection-1';
</script>
<script xlink:href="svgpan.js"/>
<svg id="graph" class="graph">
<g id="viewport">
<title>AmcCarrierCoreAdv</title>
<polygon fill="white" stroke="transparent" points="-4,4 -4,-442 773,-442 773,4 -4,4"/>
<!-- Node1 -->
<g id="node1" class="node">
<title>Node1</title>
<g id="a_node1"><a xlink:title=" ">
<polygon fill="#bfbfbf" stroke="black" points="656,-304.5 656,-323.5 769,-323.5 769,-304.5 656,-304.5"/>
<text text-anchor="middle" x="712.5" y="-311.5" font-family="Helvetica,sans-Serif" font-size="10.00">AmcCarrierCoreAdv</text>
</a>
</g>
</g>
<!-- Node2 -->
<g id="node2" class="node">
<title>Node2</title>
<g id="a_node2"><a xlink:href="classAmcCarrierSysReg.html" target="_top" xlink:title=" ">
<polygon fill="white" stroke="black" points="513,-380.5 513,-399.5 620,-399.5 620,-380.5 513,-380.5"/>
<text text-anchor="middle" x="566.5" y="-387.5" font-family="Helvetica,sans-Serif" font-size="10.00">AmcCarrierSysReg</text>
</a>
</g>
</g>
<!-- Node2&#45;&gt;Node1 -->
<g id="edge1" class="edge">
<title>Node2&#45;&gt;Node1</title>
<path fill="none" stroke="midnightblue" d="M594.89,-375.54C623.82,-360.28 668.6,-336.64 693.41,-323.55"/>
<polygon fill="midnightblue" stroke="midnightblue" points="592.95,-372.61 585.74,-380.37 596.22,-378.8 592.95,-372.61"/>
</g>
<!-- Node3 -->
<g id="node3" class="node">
<title>Node3</title>
<g id="a_node3"><a xlink:href="classAmcCarrierSysMon.html" target="_top" xlink:title=" ">
<polygon fill="white" stroke="black" points="365.5,-418.5 365.5,-437.5 475.5,-437.5 475.5,-418.5 365.5,-418.5"/>
<text text-anchor="middle" x="420.5" y="-425.5" font-family="Helvetica,sans-Serif" font-size="10.00">AmcCarrierSysMon</text>
</a>
</g>
</g>
<!-- Node3&#45;&gt;Node2 -->
<g id="edge2" class="edge">
<title>Node3&#45;&gt;Node2</title>
<path fill="none" stroke="midnightblue" d="M467.67,-415.82C487.66,-410.54 510.72,-404.46 529.42,-399.52"/>
<polygon fill="midnightblue" stroke="midnightblue" points="466.61,-412.48 457.84,-418.41 468.4,-419.24 466.61,-412.48"/>
</g>
<!-- Node4 -->
<g id="node4" class="node">
<title>Node4</title>
<g id="a_node4"><a xlink:href="classAmcCarrierBsi.html" target="_top" xlink:title=" ">
<polygon fill="white" stroke="black" points="377.5,-380.5 377.5,-399.5 463.5,-399.5 463.5,-380.5 377.5,-380.5"/>
<text text-anchor="middle" x="420.5" y="-387.5" font-family="Helvetica,sans-Serif" font-size="10.00">AmcCarrierBsi</text>
</a>
</g>
</g>
<!-- Node4&#45;&gt;Node2 -->
<g id="edge3" class="edge">
<title>Node4&#45;&gt;Node2</title>
<path fill="none" stroke="midnightblue" d="M473.57,-390C486.37,-390 500.09,-390 512.91,-390"/>
<polygon fill="midnightblue" stroke="midnightblue" points="473.54,-386.5 463.54,-390 473.54,-393.5 473.54,-386.5"/>
</g>
<!-- Node5 -->
<g id="node5" class="node">
<title>Node5</title>
<g id="a_node5"><a xlink:href="classAppMps.html" target="_top" xlink:title=" ">
<polygon fill="white" stroke="black" points="538.5,-304.5 538.5,-323.5 594.5,-323.5 594.5,-304.5 538.5,-304.5"/>
<text text-anchor="middle" x="566.5" y="-311.5" font-family="Helvetica,sans-Serif" font-size="10.00">AppMps</text>
</a>
</g>
</g>
<!-- Node5&#45;&gt;Node1 -->
<g id="edge4" class="edge">
<title>Node5&#45;&gt;Node1</title>
<path fill="none" stroke="midnightblue" d="M604.86,-314C620.42,-314 638.82,-314 655.91,-314"/>
<polygon fill="midnightblue" stroke="midnightblue" points="604.59,-310.5 594.59,-314 604.59,-317.5 604.59,-310.5"/>
</g>
<!-- Node6 -->
<g id="node6" class="node">
<title>Node6</title>
<g id="a_node6"><a xlink:href="classAppMpsClk.html" target="_top" xlink:title=" ">
<polygon fill="white" stroke="black" points="385,-342.5 385,-361.5 456,-361.5 456,-342.5 385,-342.5"/>
<text text-anchor="middle" x="420.5" y="-349.5" font-family="Helvetica,sans-Serif" font-size="10.00">AppMpsClk</text>
</a>
</g>
</g>
<!-- Node6&#45;&gt;Node5 -->
<g id="edge5" class="edge">
<title>Node6&#45;&gt;Node5</title>
<path fill="none" stroke="midnightblue" d="M466.14,-340.22C489.7,-334 517.85,-326.57 538.17,-321.21"/>
<polygon fill="midnightblue" stroke="midnightblue" points="465.13,-336.87 456.36,-342.8 466.92,-343.63 465.13,-336.87"/>
</g>
<!-- Node7 -->
<g id="node7" class="node">
<title>Node7</title>
<g id="a_node7"><a xlink:href="classAppMpsEncoder.html" target="_top" xlink:title=" ">
<polygon fill="white" stroke="black" points="373,-304.5 373,-323.5 468,-323.5 468,-304.5 373,-304.5"/>
<text text-anchor="middle" x="420.5" y="-311.5" font-family="Helvetica,sans-Serif" font-size="10.00">AppMpsEncoder</text>
</a>
</g>
</g>
<!-- Node7&#45;&gt;Node5 -->
<g id="edge6" class="edge">
<title>Node7&#45;&gt;Node5</title>
<path fill="none" stroke="midnightblue" d="M478.51,-314C499.1,-314 521.41,-314 538.28,-314"/>
<polygon fill="midnightblue" stroke="midnightblue" points="478.25,-310.5 468.25,-314 478.25,-317.5 478.25,-310.5"/>
</g>
<!-- Node8 -->
<g id="node8" class="node">
<title>Node8</title>
<g id="a_node8"><a xlink:href="classAppMpsReg.html" target="_top" xlink:title=" ">
<polygon fill="white" stroke="black" points="213.5,-342.5 213.5,-361.5 287.5,-361.5 287.5,-342.5 213.5,-342.5"/>
<text text-anchor="middle" x="250.5" y="-349.5" font-family="Helvetica,sans-Serif" font-size="10.00">AppMpsReg</text>
</a>
</g>
</g>
<!-- Node8&#45;&gt;Node7 -->
<g id="edge7" class="edge">
<title>Node8&#45;&gt;Node7</title>
<path fill="none" stroke="midnightblue" d="M297.49,-341.6C322.41,-335.96 352.98,-329.05 377.29,-323.55"/>
<polygon fill="midnightblue" stroke="midnightblue" points="296.52,-338.23 287.54,-343.85 298.07,-345.06 296.52,-338.23"/>
</g>
<!-- Node9 -->
<g id="node9" class="node">
<title>Node9</title>
<g id="a_node9"><a xlink:href="classAppMpsRegBase.html" target="_top" xlink:title=" ">
<polygon fill="white" stroke="black" points="19.5,-361.5 19.5,-380.5 117.5,-380.5 117.5,-361.5 19.5,-361.5"/>
<text text-anchor="middle" x="68.5" y="-368.5" font-family="Helvetica,sans-Serif" font-size="10.00">AppMpsRegBase</text>
</a>
</g>
</g>
<!-- Node9&#45;&gt;Node8 -->
<g id="edge8" class="edge">
<title>Node9&#45;&gt;Node8</title>
<path fill="none" stroke="midnightblue" d="M127.87,-364.84C156.04,-361.87 188.94,-358.39 213.41,-355.81"/>
<polygon fill="midnightblue" stroke="midnightblue" points="127.31,-361.38 117.74,-365.91 128.05,-368.34 127.31,-361.38"/>
</g>
<!-- Node10 -->
<g id="node10" class="node">
<title>Node10</title>
<g id="a_node10"><a xlink:href="classAppMpsRegAppCh.html" target="_top" xlink:title=" ">
<polygon fill="white" stroke="black" points="15.5,-323.5 15.5,-342.5 121.5,-342.5 121.5,-323.5 15.5,-323.5"/>
<text text-anchor="middle" x="68.5" y="-330.5" font-family="Helvetica,sans-Serif" font-size="10.00">AppMpsRegAppCh</text>
</a>
</g>
</g>
<!-- Node10&#45;&gt;Node8 -->
<g id="edge9" class="edge">
<title>Node10&#45;&gt;Node8</title>
<path fill="none" stroke="midnightblue" d="M131.78,-339.57C158.98,-342.44 189.92,-345.71 213.25,-348.17"/>
<polygon fill="midnightblue" stroke="midnightblue" points="131.88,-336.06 121.56,-338.5 131.14,-343.03 131.88,-336.06"/>
</g>
<!-- Node11 -->
<g id="node11" class="node">
<title>Node11</title>
<g id="a_node11"><a xlink:href="classAppMpsSelect.html" target="_top" xlink:title=" ">
<polygon fill="white" stroke="black" points="207.5,-304.5 207.5,-323.5 293.5,-323.5 293.5,-304.5 207.5,-304.5"/>
<text text-anchor="middle" x="250.5" y="-311.5" font-family="Helvetica,sans-Serif" font-size="10.00">AppMpsSelect</text>
</a>
</g>
</g>
<!-- Node11&#45;&gt;Node7 -->
<g id="edge10" class="edge">
<title>Node11&#45;&gt;Node7</title>
<path fill="none" stroke="midnightblue" d="M304.09,-314C326.16,-314 351.61,-314 372.98,-314"/>
<polygon fill="midnightblue" stroke="midnightblue" points="303.89,-310.5 293.89,-314 303.89,-317.5 303.89,-310.5"/>
</g>
<!-- Node12 -->
<g id="node12" class="node">
<title>Node12</title>
<g id="a_node12"><a xlink:href="classMpsMsgCore.html" target="_top" xlink:title=" ">
<polygon fill="white" stroke="black" points="210.5,-266.5 210.5,-285.5 290.5,-285.5 290.5,-266.5 210.5,-266.5"/>
<text text-anchor="middle" x="250.5" y="-273.5" font-family="Helvetica,sans-Serif" font-size="10.00">MpsMsgCore</text>
</a>
</g>
</g>
<!-- Node12&#45;&gt;Node7 -->
<g id="edge11" class="edge">
<title>Node12&#45;&gt;Node7</title>
<path fill="none" stroke="midnightblue" d="M300.66,-287.12C325.01,-292.63 354.11,-299.21 377.42,-304.48"/>
<polygon fill="midnightblue" stroke="midnightblue" points="301.41,-283.7 290.89,-284.91 299.87,-290.53 301.41,-283.7"/>
</g>
<!-- Node13 -->
<g id="node13" class="node">
<title>Node13</title>
<g id="a_node13"><a xlink:href="classAppMpsSalt.html" target="_top" xlink:title=" ">
<polygon fill="white" stroke="black" points="383.5,-266.5 383.5,-285.5 457.5,-285.5 457.5,-266.5 383.5,-266.5"/>
<text text-anchor="middle" x="420.5" y="-273.5" font-family="Helvetica,sans-Serif" font-size="10.00">AppMpsSalt</text>
</a>
</g>
</g>
<!-- Node13&#45;&gt;Node5 -->
<g id="edge12" class="edge">
<title>Node13&#45;&gt;Node5</title>
<path fill="none" stroke="midnightblue" d="M467.54,-288.15C490.84,-294.3 518.35,-301.56 538.27,-306.81"/>
<polygon fill="midnightblue" stroke="midnightblue" points="468.4,-284.76 457.84,-285.59 466.61,-291.52 468.4,-284.76"/>
</g>
<!-- Node14 -->
<g id="node14" class="node">
<title>Node14</title>
<g id="a_node14"><a xlink:href="classAmcCarrierCore.html" target="_top" xlink:title=" ">
<polygon fill="white" stroke="black" points="519.5,-171.5 519.5,-190.5 613.5,-190.5 613.5,-171.5 519.5,-171.5"/>
<text text-anchor="middle" x="566.5" y="-178.5" font-family="Helvetica,sans-Serif" font-size="10.00">AmcCarrierCore</text>
</a>
</g>
</g>
<!-- Node14&#45;&gt;Node1 -->
<g id="edge13" class="edge">
<title>Node14&#45;&gt;Node1</title>
<path fill="none" stroke="midnightblue" d="M585.58,-197.7C615.97,-225.77 676.39,-281.57 700.85,-304.16"/>
<polygon fill="midnightblue" stroke="midnightblue" points="587.58,-194.78 577.86,-190.57 582.83,-199.92 587.58,-194.78"/>
</g>
<!-- Node15 -->
<g id="node15" class="node">
<title>Node15</title>
<g id="a_node15"><a xlink:href="classAmcCarrierIbufGt.html" target="_top" xlink:title=" ">
<polygon fill="white" stroke="black" points="200,-228.5 200,-247.5 301,-247.5 301,-228.5 200,-228.5"/>
<text text-anchor="middle" x="250.5" y="-235.5" font-family="Helvetica,sans-Serif" font-size="10.00">AmcCarrierIbufGt</text>
</a>
</g>
</g>
<!-- Node15&#45;&gt;Node14 -->
<g id="edge14" class="edge">
<title>Node15&#45;&gt;Node14</title>
<path fill="none" stroke="midnightblue" d="M311.16,-238.16C357.12,-237.04 421.9,-232.77 477,-219 502.63,-212.6 530.34,-199.62 547.79,-190.63"/>
<polygon fill="midnightblue" stroke="midnightblue" points="311,-234.66 301.07,-238.36 311.14,-241.66 311,-234.66"/>
</g>
<!-- Node21 -->
<g id="node21" class="node">
<title>Node21</title>
<g id="a_node21"><a xlink:href="classAmcCarrierTiming.html" target="_top" xlink:title=" ">
<polygon fill="white" stroke="black" points="368,-190.5 368,-209.5 473,-209.5 473,-190.5 368,-190.5"/>
<text text-anchor="middle" x="420.5" y="-197.5" font-family="Helvetica,sans-Serif" font-size="10.00">AmcCarrierTiming</text>
</a>
</g>
</g>
<!-- Node15&#45;&gt;Node21 -->
<g id="edge21" class="edge">
<title>Node15&#45;&gt;Node21</title>
<path fill="none" stroke="midnightblue" d="M303.78,-226.18C327.46,-220.82 355.09,-214.57 377.41,-209.52"/>
<polygon fill="midnightblue" stroke="midnightblue" points="302.87,-222.79 293.89,-228.41 304.42,-229.62 302.87,-222.79"/>
</g>
<!-- Node16 -->
<g id="node16" class="node">
<title>Node16</title>
<g id="a_node16"><a xlink:href="classAmcCarrierEth.html" target="_top" xlink:title=" ">
<polygon fill="white" stroke="black" points="377,-152.5 377,-171.5 464,-171.5 464,-152.5 377,-152.5"/>
<text text-anchor="middle" x="420.5" y="-159.5" font-family="Helvetica,sans-Serif" font-size="10.00">AmcCarrierEth</text>
</a>
</g>
</g>
<!-- Node16&#45;&gt;Node14 -->
<g id="edge15" class="edge">
<title>Node16&#45;&gt;Node14</title>
<path fill="none" stroke="midnightblue" d="M474.31,-168.97C489.07,-170.92 504.99,-173.02 519.34,-174.91"/>
<polygon fill="midnightblue" stroke="midnightblue" points="474.69,-165.49 464.31,-167.65 473.77,-172.43 474.69,-165.49"/>
</g>
<!-- Node17 -->
<g id="node17" class="node">
<title>Node17</title>
<g id="a_node17"><a xlink:href="classAmcCarrierRssi.html" target="_top" xlink:title=" ">
<polygon fill="white" stroke="black" points="198,-190.5 198,-209.5 303,-209.5 303,-190.5 198,-190.5"/>
<text text-anchor="middle" x="250.5" y="-197.5" font-family="Helvetica,sans-Serif" font-size="10.00">AmcCarrierRssi(2)</text>
</a>
</g>
</g>
<!-- Node17&#45;&gt;Node16 -->
<g id="edge16" class="edge">
<title>Node17&#45;&gt;Node16</title>
<path fill="none" stroke="midnightblue" d="M303.78,-188.18C327.46,-182.82 355.09,-176.57 377.41,-171.52"/>
<polygon fill="midnightblue" stroke="midnightblue" points="302.87,-184.79 293.89,-190.41 304.42,-191.62 302.87,-184.79"/>
</g>
<!-- Node18 -->
<g id="node18" class="node">
<title>Node18</title>
<g id="a_node18"><a xlink:href="classAmcCarrierRssiObFifo.html" target="_top" xlink:title=" ">
<polygon fill="white" stroke="black" points="0,-190.5 0,-209.5 137,-209.5 137,-190.5 0,-190.5"/>
<text text-anchor="middle" x="68.5" y="-197.5" font-family="Helvetica,sans-Serif" font-size="10.00">AmcCarrierRssiObFifo(2)</text>
</a>
</g>
</g>
<!-- Node18&#45;&gt;Node17 -->
<g id="edge17" class="edge">
<title>Node18&#45;&gt;Node17</title>
<path fill="none" stroke="midnightblue" d="M147.07,-200C164.25,-200 182.05,-200 197.9,-200"/>
<polygon fill="midnightblue" stroke="midnightblue" points="147.04,-196.5 137.04,-200 147.04,-203.5 147.04,-196.5"/>
</g>
<!-- Node19 -->
<g id="node19" class="node">
<title>Node19</title>
<g id="a_node19"><a xlink:href="classAmcCarrierRssiInterleave.html" target="_top" xlink:title=" ">
<polygon fill="white" stroke="black" points="173,-152.5 173,-171.5 328,-171.5 328,-152.5 173,-152.5"/>
<text text-anchor="middle" x="250.5" y="-159.5" font-family="Helvetica,sans-Serif" font-size="10.00">AmcCarrierRssiInterleave(2)</text>
</a>
</g>
</g>
<!-- Node19&#45;&gt;Node16 -->
<g id="edge18" class="edge">
<title>Node19&#45;&gt;Node16</title>
<path fill="none" stroke="midnightblue" d="M338.38,-162C351.8,-162 365.12,-162 376.97,-162"/>
<polygon fill="midnightblue" stroke="midnightblue" points="338.13,-158.5 328.13,-162 338.13,-165.5 338.13,-158.5"/>
</g>
<!-- Node20 -->
<g id="node20" class="node">
<title>Node20</title>
<g id="a_node20"><a xlink:href="classAmcCarrierRssiObFifo.html" target="_top" xlink:title=" ">
<polygon fill="white" stroke="black" points="7,-152.5 7,-171.5 130,-171.5 130,-152.5 7,-152.5"/>
<text text-anchor="middle" x="68.5" y="-159.5" font-family="Helvetica,sans-Serif" font-size="10.00">AmcCarrierRssiObFifo</text>
</a>
</g>
</g>
<!-- Node20&#45;&gt;Node19 -->
<g id="edge19" class="edge">
<title>Node20&#45;&gt;Node19</title>
<path fill="none" stroke="midnightblue" d="M140.28,-162C150.95,-162 162,-162 172.79,-162"/>
<polygon fill="midnightblue" stroke="midnightblue" points="140.19,-158.5 130.19,-162 140.19,-165.5 140.19,-158.5"/>
</g>
<!-- Node21&#45;&gt;Node14 -->
<g id="edge20" class="edge">
<title>Node21&#45;&gt;Node14</title>
<path fill="none" stroke="midnightblue" d="M483.09,-191.87C495.15,-190.28 507.6,-188.64 519.07,-187.13"/>
<polygon fill="midnightblue" stroke="midnightblue" points="482.54,-188.42 473.08,-193.19 483.45,-195.36 482.54,-188.42"/>
</g>
<!-- Node22 -->
<g id="node22" class="node">
<title>Node22</title>
<g id="a_node22"><a xlink:href="classAmcCarrierBsa.html" target="_top" xlink:title=" ">
<polygon fill="white" stroke="black" points="376,-95.5 376,-114.5 465,-114.5 465,-95.5 376,-95.5"/>
<text text-anchor="middle" x="420.5" y="-102.5" font-family="Helvetica,sans-Serif" font-size="10.00">AmcCarrierBsa</text>
</a>
</g>
</g>
<!-- Node22&#45;&gt;Node14 -->
<g id="edge22" class="edge">
<title>Node22&#45;&gt;Node14</title>
<path fill="none" stroke="midnightblue" d="M448.89,-119.46C477.82,-134.72 522.6,-158.36 547.41,-171.45"/>
<polygon fill="midnightblue" stroke="midnightblue" points="450.22,-116.2 439.74,-114.63 446.95,-122.39 450.22,-116.2"/>
</g>
<!-- Node23 -->
<g id="node23" class="node">
<title>Node23</title>
<g id="a_node23"><a xlink:href="classBsaWaveformEngine.html" target="_top" xlink:title=" ">
<polygon fill="white" stroke="black" points="185,-114.5 185,-133.5 316,-133.5 316,-114.5 185,-114.5"/>
<text text-anchor="middle" x="250.5" y="-121.5" font-family="Helvetica,sans-Serif" font-size="10.00">BsaWaveformEngine(2)</text>
</a>
</g>
</g>
<!-- Node23&#45;&gt;Node22 -->
<g id="edge23" class="edge">
<title>Node23&#45;&gt;Node22</title>
<path fill="none" stroke="midnightblue" d="M326.85,-115.48C343.68,-113.58 360.97,-111.62 376,-109.92"/>
<polygon fill="midnightblue" stroke="midnightblue" points="326,-112.05 316.45,-116.65 326.78,-119.01 326,-112.05"/>
</g>
<!-- Node24 -->
<g id="node24" class="node">
<title>Node24</title>
<g id="a_node24"><a xlink:href="classBsaBufferControl.html" target="_top" xlink:title=" ">
<polygon fill="white" stroke="black" points="201,-76.5 201,-95.5 300,-95.5 300,-76.5 201,-76.5"/>
<text text-anchor="middle" x="250.5" y="-83.5" font-family="Helvetica,sans-Serif" font-size="10.00">BsaBufferControl</text>
</a>
</g>
</g>
<!-- Node24&#45;&gt;Node22 -->
<g id="edge24" class="edge">
<title>Node24&#45;&gt;Node22</title>
<path fill="none" stroke="midnightblue" d="M310.15,-92.63C331.76,-95.08 355.84,-97.8 375.89,-100.07"/>
<polygon fill="midnightblue" stroke="midnightblue" points="310.42,-89.14 300.09,-91.5 309.64,-96.1 310.42,-89.14"/>
</g>
<!-- Node25 -->
<g id="node25" class="node">
<title>Node25</title>
<g id="a_node25"><a xlink:href="classBsaAccumulator.html" target="_top" xlink:title=" ">
<polygon fill="white" stroke="black" points="20.5,-76.5 20.5,-95.5 116.5,-95.5 116.5,-76.5 20.5,-76.5"/>
<text text-anchor="middle" x="68.5" y="-83.5" font-family="Helvetica,sans-Serif" font-size="10.00">BsaAccumulator</text>
</a>
</g>
</g>
<!-- Node25&#45;&gt;Node24 -->
<g id="edge25" class="edge">
<title>Node25&#45;&gt;Node24</title>
<path fill="none" stroke="midnightblue" d="M127.1,-86C150.9,-86 178.19,-86 200.96,-86"/>
<polygon fill="midnightblue" stroke="midnightblue" points="126.79,-82.5 116.79,-86 126.79,-89.5 126.79,-82.5"/>
</g>
<!-- Node26 -->
<g id="node26" class="node">
<title>Node26</title>
<g id="a_node26"><a xlink:href="classBsaAxiInterconnectWrapper.html" target="_top" xlink:title=" ">
<polygon fill="white" stroke="black" points="174.5,-38.5 174.5,-57.5 326.5,-57.5 326.5,-38.5 174.5,-38.5"/>
<text text-anchor="middle" x="250.5" y="-45.5" font-family="Helvetica,sans-Serif" font-size="10.00">BsaAxiInterconnectWrapper</text>
</a>
</g>
</g>
<!-- Node26&#45;&gt;Node22 -->
<g id="edge26" class="edge">
<title>Node26&#45;&gt;Node22</title>
<path fill="none" stroke="midnightblue" d="M307.81,-60.32C314.69,-62.31 321.56,-64.54 328,-67 344.9,-73.45 347.39,-78.83 364,-86 371.95,-89.43 380.74,-92.68 388.93,-95.49"/>
<polygon fill="midnightblue" stroke="midnightblue" points="308.34,-56.84 297.77,-57.58 306.49,-63.59 308.34,-56.84"/>
</g>
<!-- Node27 -->
<g id="node27" class="node">
<title>Node27</title>
<g id="a_node27"><a xlink:href="classBldAxiStream.html" target="_top" xlink:title=" ">
<polygon fill="white" stroke="black" points="209,-0.5 209,-19.5 292,-19.5 292,-0.5 209,-0.5"/>
<text text-anchor="middle" x="250.5" y="-7.5" font-family="Helvetica,sans-Serif" font-size="10.00">BldAxiStream</text>
</a>
</g>
</g>
<!-- Node27&#45;&gt;Node22 -->
<g id="edge27" class="edge">
<title>Node27&#45;&gt;Node22</title>
<path fill="none" stroke="midnightblue" d="M302.06,-16.75C311.25,-19.54 320.34,-23.47 328,-29 352.29,-46.54 340.49,-67.42 364,-86 368.87,-89.85 374.58,-92.95 380.44,-95.43"/>
<polygon fill="midnightblue" stroke="midnightblue" points="302.66,-13.29 292.1,-14.15 300.89,-20.06 302.66,-13.29"/>
</g>
<!-- Node28 -->
<g id="node28" class="node">
<title>Node28</title>
<g id="a_node28"><a xlink:href="classAmcCarrierDdrMem.html" target="_top" xlink:title=" ">
<polygon fill="white" stroke="black" points="364,-57.5 364,-76.5 477,-76.5 477,-57.5 364,-57.5"/>
<text text-anchor="middle" x="420.5" y="-64.5" font-family="Helvetica,sans-Serif" font-size="10.00">AmcCarrierDdrMem</text>
</a>
</g>
</g>
<!-- Node28&#45;&gt;Node14 -->
<g id="edge28" class="edge">
<title>Node28&#45;&gt;Node14</title>
<path fill="none" stroke="midnightblue" d="M467.17,-80.54C470.59,-82.18 473.91,-84 477,-86 513.88,-109.92 545.92,-152.52 559.1,-171.46"/>
<polygon fill="midnightblue" stroke="midnightblue" points="468.5,-77.31 457.93,-76.59 465.75,-83.74 468.5,-77.31"/>
</g>
</g>
</svg>
        <g id="navigator" transform="translate(0 0)" fill="#404254">
                <rect fill="#f2f5e9" fill-opacity="0.5" stroke="#606060" stroke-width=".5" x="0" y="0" width="60" height="60"/>
                <use id="zoomplus" xlink:href="#zoomPlus" x="17" y="9" onmousedown="handleZoom(evt,'in')"/>
                <use id="zoomminus" xlink:href="#zoomMin" x="42" y="9" onmousedown="handleZoom(evt,'out')"/>
                <use id="reset" xlink:href="#resetDef" x="30" y="36" onmousedown="handleReset()"/>
                <g id="arrowUp" xlink:href="#dirArrow" transform="translate(30 24)" onmousedown="handlePan(0,-1)">
                  <use xlink:href="#rim" fill="#404040">
                        <set attributeName="fill" to="#808080" begin="arrowUp.mouseover" end="arrowUp.mouseout"/>
                  </use>
                  <path fill="none" stroke="white" stroke-width="1.5" d="M0,-3.0v7 M-2.5,-0.5L0,-3.0L2.5,-0.5"/>
                </g>
                <g id="arrowRight" xlink:href="#dirArrow" transform="rotate(90) translate(36 -43)" onmousedown="handlePan(1,0)">
                  <use xlink:href="#rim" fill="#404040">
                        <set attributeName="fill" to="#808080" begin="arrowRight.mouseover" end="arrowRight.mouseout"/>
                  </use>
                  <path fill="none" stroke="white" stroke-width="1.5" d="M0,-3.0v7 M-2.5,-0.5L0,-3.0L2.5,-0.5"/>
                </g>
                <g id="arrowDown" xlink:href="#dirArrow" transform="rotate(180) translate(-30 -48)" onmousedown="handlePan(0,1)">
                  <use xlink:href="#rim" fill="#404040">
                        <set attributeName="fill" to="#808080" begin="arrowDown.mouseover" end="arrowDown.mouseout"/>
                  </use>
                  <path fill="none" stroke="white" stroke-width="1.5" d="M0,-3.0v7 M-2.5,-0.5L0,-3.0L2.5,-0.5"/>
                </g>
                <g id="arrowLeft" xlink:href="#dirArrow" transform="rotate(270) translate(-36 17)" onmousedown="handlePan(-1,0)">
                  <use xlink:href="#rim" fill="#404040">
                        <set attributeName="fill" to="#808080" begin="arrowLeft.mouseover" end="arrowLeft.mouseout"/>
                  </use>
                  <path fill="none" stroke="white" stroke-width="1.5" d="M0,-3.0v7 M-2.5,-0.5L0,-3.0L2.5,-0.5"/>
                </g>
        </g>
        <svg viewBox="0 0 15 15" width="100%" height="30px" preserveAspectRatio="xMaxYMin meet">
         <g id="arrow_out" transform="scale(0.3 0.3)">
          <a xlink:href="classAmcCarrierCoreAdv__coll__graph_org.svg" target="_base">
           <rect id="button" ry="5" rx="5" y="6" x="6" height="38" width="38"
                fill="#f2f5e9" fill-opacity="0.5" stroke="#606060" stroke-width="1.0"/>
           <path id="arrow"
             d="M 11.500037,31.436501 C 11.940474,20.09759 22.043105,11.32322 32.158766,21.979434 L 37.068811,17.246167 C 37.068811,17.246167 37.088388,32 37.088388,32 L 22.160133,31.978069 C 22.160133,31.978069 26.997745,27.140456 26.997745,27.140456 C 18.528582,18.264221 13.291696,25.230495 11.500037,31.436501 z"
             style="fill:#404040;"/>
          </a>
         </g>
        </svg>
</svg>
