<?xml version="1.0" encoding="UTF-8" standalone="no"?>
<!DOCTYPE svg PUBLIC "-//W3C//DTD SVG 1.1//EN"
 "http://www.w3.org/Graphics/SVG/1.1/DTD/svg11.dtd">
<!-- Generated by graphviz version 2.40.1 (20161225.0304)
 -->
<!-- Title: DaqMuxV2 Pages: 1 -->
<svg width="299pt" height="140pt"
 viewBox="0.00 0.00 299.00 140.00" xmlns="http://www.w3.org/2000/svg" xmlns:xlink="http://www.w3.org/1999/xlink">
<g id="graph0" class="graph" transform="scale(1 1) rotate(0) translate(4 136)">
<title>DaqMuxV2</title>
<polygon fill="#ffffff" stroke="transparent" points="-4,4 -4,-136 295,-136 295,4 -4,4"/>
<!-- Node8 -->
<g id="node1" class="node">
<title>Node8</title>
<polygon fill="#bfbfbf" stroke="#000000" points="83,-.5 83,-19.5 152,-19.5 152,-.5 83,-.5"/>
<text text-anchor="middle" x="117.5" y="-7.5" font-family="Helvetica,sans-Serif" font-size="10.00" fill="#000000">DaqMuxV2</text>
</g>
<!-- Node9 -->
<g id="node2" class="node">
<title>Node9</title>
<g id="a_node2"><a xlink:href="classDaqRegItf.html" target="_top" xlink:title="DaqRegItf">
<polygon fill="#ffffff" stroke="#000000" points="0,-56.5 0,-75.5 65,-75.5 65,-56.5 0,-56.5"/>
<text text-anchor="middle" x="32.5" y="-63.5" font-family="Helvetica,sans-Serif" font-size="10.00" fill="#000000">DaqRegItf</text>
</a>
</g>
</g>
<!-- Node9&#45;&gt;Node8 -->
<g id="edge1" class="edge">
<title>Node9&#45;&gt;Node8</title>
<path fill="none" stroke="#191970" d="M56.0419,-50.49C71.039,-40.6096 89.9973,-28.1194 102.8638,-19.6427"/>
<polygon fill="#191970" stroke="#191970" points="53.7309,-47.8212 47.3059,-56.2455 57.5821,-53.6666 53.7309,-47.8212"/>
</g>
<!-- Node10 -->
<g id="node3" class="node">
<title>Node10</title>
<g id="a_node3"><a xlink:href="classDaqTrigger.html" target="_top" xlink:title="DaqTrigger">
<polygon fill="#ffffff" stroke="#000000" points="83,-56.5 83,-75.5 152,-75.5 152,-56.5 83,-56.5"/>
<text text-anchor="middle" x="117.5" y="-63.5" font-family="Helvetica,sans-Serif" font-size="10.00" fill="#000000">DaqTrigger</text>
</a>
</g>
</g>
<!-- Node10&#45;&gt;Node8 -->
<g id="edge2" class="edge">
<title>Node10&#45;&gt;Node8</title>
<path fill="none" stroke="#191970" d="M117.5,-46.1575C117.5,-37.155 117.5,-26.9199 117.5,-19.6427"/>
<polygon fill="#191970" stroke="#191970" points="114.0001,-46.2455 117.5,-56.2455 121.0001,-46.2456 114.0001,-46.2455"/>
</g>
<!-- Node11 -->
<g id="node4" class="node">
<title>Node11</title>
<g id="a_node4"><a xlink:href="classDaqLane.html" target="_top" xlink:title="DaqLane">
<polygon fill="#ffffff" stroke="#000000" points="170,-56.5 170,-75.5 229,-75.5 229,-56.5 170,-56.5"/>
<text text-anchor="middle" x="199.5" y="-63.5" font-family="Helvetica,sans-Serif" font-size="10.00" fill="#000000">DaqLane</text>
</a>
</g>
</g>
<!-- Node11&#45;&gt;Node8 -->
<g id="edge3" class="edge">
<title>Node11&#45;&gt;Node8</title>
<path fill="none" stroke="#191970" d="M176.789,-50.49C162.3212,-40.6096 144.032,-28.1194 131.6196,-19.6427"/>
<polygon fill="#191970" stroke="#191970" points="174.9848,-53.4962 185.2167,-56.2455 178.9325,-47.7156 174.9848,-53.4962"/>
</g>
<!-- Node12 -->
<g id="node5" class="node">
<title>Node12</title>
<g id="a_node5"><a xlink:href="classDaqTestSig.html" target="_top" xlink:title="DaqTestSig">
<polygon fill="#ffffff" stroke="#000000" points="115,-112.5 115,-131.5 186,-131.5 186,-112.5 115,-112.5"/>
<text text-anchor="middle" x="150.5" y="-119.5" font-family="Helvetica,sans-Serif" font-size="10.00" fill="#000000">DaqTestSig</text>
</a>
</g>
</g>
<!-- Node12&#45;&gt;Node11 -->
<g id="edge4" class="edge">
<title>Node12&#45;&gt;Node11</title>
<path fill="none" stroke="#191970" d="M165.8122,-104.5004C174.1447,-94.9775 184.1353,-83.5596 191.0627,-75.6427"/>
<polygon fill="#191970" stroke="#191970" points="162.9862,-102.415 159.0351,-112.2455 168.2543,-107.0245 162.9862,-102.415"/>
</g>
<!-- Node13 -->
<g id="node6" class="node">
<title>Node13</title>
<g id="a_node6"><a xlink:href="classDaqDecimator.html" target="_top" xlink:title="DaqDecimator">
<polygon fill="#ffffff" stroke="#000000" points="204,-112.5 204,-131.5 291,-131.5 291,-112.5 204,-112.5"/>
<text text-anchor="middle" x="247.5" y="-119.5" font-family="Helvetica,sans-Serif" font-size="10.00" fill="#000000">DaqDecimator</text>
</a>
</g>
</g>
<!-- Node13&#45;&gt;Node11 -->
<g id="edge5" class="edge">
<title>Node13&#45;&gt;Node11</title>
<path fill="none" stroke="#191970" d="M232.5003,-104.5004C224.3378,-94.9775 214.5511,-83.5596 207.7651,-75.6427"/>
<polygon fill="#191970" stroke="#191970" points="229.9737,-106.9307 239.139,-112.2455 235.2885,-102.3752 229.9737,-106.9307"/>
</g>
</g>
</svg>
