<?xml version="1.0" encoding="UTF-8" standalone="no"?>
<!DOCTYPE svg PUBLIC "-//W3C//DTD SVG 1.1//EN"
 "http://www.w3.org/Graphics/SVG/1.1/DTD/svg11.dtd">
<!-- Generated by graphviz version 2.40.1 (20161225.0304)
 -->
<!-- Title: RtmCryoDet Pages: 1 -->
<svg width="346pt" height="140pt"
 viewBox="0.00 0.00 346.00 140.00" xmlns="http://www.w3.org/2000/svg" xmlns:xlink="http://www.w3.org/1999/xlink">
<g id="graph0" class="graph" transform="scale(1 1) rotate(0) translate(4 136)">
<title>RtmCryoDet</title>
<polygon fill="#ffffff" stroke="transparent" points="-4,4 -4,-136 342,-136 342,4 -4,4"/>
<!-- Node6 -->
<g id="node1" class="node">
<title>Node6</title>
<polygon fill="#bfbfbf" stroke="#000000" points="135,-.5 135,-19.5 212,-19.5 212,-.5 135,-.5"/>
<text text-anchor="middle" x="173.5" y="-7.5" font-family="Helvetica,sans-Serif" font-size="10.00" fill="#000000">RtmCryoDet</text>
</g>
<!-- Node7 -->
<g id="node2" class="node">
<title>Node7</title>
<g id="a_node2"><a xlink:href="classRtmCryoDetReg.html" target="_top" xlink:title="RtmCryoDetReg">
<polygon fill="#ffffff" stroke="#000000" points="7,-56.5 7,-75.5 102,-75.5 102,-56.5 7,-56.5"/>
<text text-anchor="middle" x="54.5" y="-63.5" font-family="Helvetica,sans-Serif" font-size="10.00" fill="#000000">RtmCryoDetReg</text>
</a>
</g>
</g>
<!-- Node7&#45;&gt;Node6 -->
<g id="edge1" class="edge">
<title>Node7&#45;&gt;Node6</title>
<path fill="none" stroke="#191970" d="M84.0144,-52.1109C105.5938,-41.9559 134.2976,-28.4482 153.3101,-19.5011"/>
<polygon fill="#191970" stroke="#191970" points="82.5147,-48.9484 74.9568,-56.3733 85.4953,-55.2821 82.5147,-48.9484"/>
</g>
<!-- Node8 -->
<g id="node3" class="node">
<title>Node8</title>
<g id="a_node3"><a xlink:href="classRtmCryoDetClkDiv.html" target="_top" xlink:title="RtmCryoDetClkDiv">
<polygon fill="#ffffff" stroke="#000000" points="0,-112.5 0,-131.5 109,-131.5 109,-112.5 0,-112.5"/>
<text text-anchor="middle" x="54.5" y="-119.5" font-family="Helvetica,sans-Serif" font-size="10.00" fill="#000000">RtmCryoDetClkDiv</text>
</a>
</g>
</g>
<!-- Node8&#45;&gt;Node7 -->
<g id="edge2" class="edge">
<title>Node8&#45;&gt;Node7</title>
<path fill="none" stroke="#191970" d="M54.5,-102.1575C54.5,-93.155 54.5,-82.9199 54.5,-75.6427"/>
<polygon fill="#191970" stroke="#191970" points="51.0001,-102.2455 54.5,-112.2455 58.0001,-102.2456 51.0001,-102.2455"/>
</g>
<!-- Node9 -->
<g id="node4" class="node">
<title>Node9</title>
<g id="a_node4"><a xlink:href="classRtmCryoSpiMaster.html" target="_top" xlink:title="RtmCryoSpiMaster">
<polygon fill="#ffffff" stroke="#000000" points="120,-56.5 120,-75.5 227,-75.5 227,-56.5 120,-56.5"/>
<text text-anchor="middle" x="173.5" y="-63.5" font-family="Helvetica,sans-Serif" font-size="10.00" fill="#000000">RtmCryoSpiMaster</text>
</a>
</g>
</g>
<!-- Node9&#45;&gt;Node6 -->
<g id="edge3" class="edge">
<title>Node9&#45;&gt;Node6</title>
<path fill="none" stroke="#191970" d="M173.5,-46.1575C173.5,-37.155 173.5,-26.9199 173.5,-19.6427"/>
<polygon fill="#191970" stroke="#191970" points="170.0001,-46.2455 173.5,-56.2455 177.0001,-46.2456 170.0001,-46.2455"/>
</g>
<!-- Node10 -->
<g id="node5" class="node">
<title>Node10</title>
<g id="a_node5"><a xlink:href="classRtmCryoDacLut.html" target="_top" xlink:title="RtmCryoDacLut">
<polygon fill="#ffffff" stroke="#000000" points="245,-56.5 245,-75.5 338,-75.5 338,-56.5 245,-56.5"/>
<text text-anchor="middle" x="291.5" y="-63.5" font-family="Helvetica,sans-Serif" font-size="10.00" fill="#000000">RtmCryoDacLut</text>
</a>
</g>
</g>
<!-- Node10&#45;&gt;Node6 -->
<g id="edge4" class="edge">
<title>Node10&#45;&gt;Node6</title>
<path fill="none" stroke="#191970" d="M261.9453,-51.9741C240.5805,-41.8348 212.2884,-28.408 193.5202,-19.5011"/>
<polygon fill="#191970" stroke="#191970" points="260.6802,-55.2478 271.2151,-56.3733 263.6814,-48.9238 260.6802,-55.2478"/>
</g>
</g>
</svg>
