<?xml version="1.0" encoding="UTF-8" standalone="no"?>
<!DOCTYPE svg PUBLIC "-//W3C//DTD SVG 1.1//EN"
 "http://www.w3.org/Graphics/SVG/1.1/DTD/svg11.dtd">
<!-- Generated by graphviz version 2.43.0 (0)
 -->
<!-- Title: RtmRfInterlock Pages: 1 -->
<svg width="466pt" height="196pt"
 viewBox="0.00 0.00 466.00 196.00" xmlns="http://www.w3.org/2000/svg" xmlns:xlink="http://www.w3.org/1999/xlink">
<g id="graph0" class="graph" transform="scale(1 1) rotate(0) translate(4 192)">
<title>RtmRfInterlock</title>
<polygon fill="white" stroke="transparent" points="-4,4 -4,-192 462,-192 462,4 -4,4"/>
<!-- Node1 -->
<g id="node1" class="node">
<title>Node1</title>
<g id="a_node1"><a xlink:title=" ">
<polygon fill="#bfbfbf" stroke="black" points="197.5,-0.5 197.5,-19.5 287.5,-19.5 287.5,-0.5 197.5,-0.5"/>
<text text-anchor="middle" x="242.5" y="-7.5" font-family="Helvetica,sans-Serif" font-size="10.00">RtmRfInterlock</text>
</a>
</g>
</g>
<!-- Node2 -->
<g id="node2" class="node">
<title>Node2</title>
<g id="a_node2"><a xlink:href="classRtmRfInterlockCore.html" target="_top" xlink:title=" ">
<polygon fill="white" stroke="black" points="179.5,-56.5 179.5,-75.5 305.5,-75.5 305.5,-56.5 179.5,-56.5"/>
<text text-anchor="middle" x="242.5" y="-63.5" font-family="Helvetica,sans-Serif" font-size="10.00">RtmRfInterlockCore(2)</text>
</a>
</g>
</g>
<!-- Node2&#45;&gt;Node1 -->
<g id="edge1" class="edge">
<title>Node2&#45;&gt;Node1</title>
<path fill="none" stroke="midnightblue" d="M242.5,-45.8C242.5,-36.91 242.5,-26.78 242.5,-19.75"/>
<polygon fill="midnightblue" stroke="midnightblue" points="239,-46.08 242.5,-56.08 246,-46.08 239,-46.08"/>
</g>
<!-- Node3 -->
<g id="node3" class="node">
<title>Node3</title>
<g id="a_node3"><a xlink:href="classAd9229Core.html" target="_top" xlink:title=" ">
<polygon fill="white" stroke="black" points="41.5,-112.5 41.5,-131.5 117.5,-131.5 117.5,-112.5 41.5,-112.5"/>
<text text-anchor="middle" x="79.5" y="-119.5" font-family="Helvetica,sans-Serif" font-size="10.00">Ad9229Core</text>
</a>
</g>
</g>
<!-- Node3&#45;&gt;Node2 -->
<g id="edge2" class="edge">
<title>Node3&#45;&gt;Node2</title>
<path fill="none" stroke="midnightblue" d="M115.2,-109.17C145.9,-99 189.42,-84.59 216.79,-75.52"/>
<polygon fill="midnightblue" stroke="midnightblue" points="113.72,-105.98 105.33,-112.44 115.92,-112.62 113.72,-105.98"/>
</g>
<!-- Node4 -->
<g id="node4" class="node">
<title>Node4</title>
<g id="a_node4"><a xlink:href="classAd9229Deserializer.html" target="_top" xlink:title=" ">
<polygon fill="white" stroke="black" points="0,-168.5 0,-187.5 125,-187.5 125,-168.5 0,-168.5"/>
<text text-anchor="middle" x="62.5" y="-175.5" font-family="Helvetica,sans-Serif" font-size="10.00">Ad9229Deserializer(2)</text>
</a>
</g>
</g>
<!-- Node4&#45;&gt;Node3 -->
<g id="edge3" class="edge">
<title>Node4&#45;&gt;Node3</title>
<path fill="none" stroke="midnightblue" d="M68.36,-158.4C71.2,-149.36 74.48,-138.94 76.75,-131.75"/>
<polygon fill="midnightblue" stroke="midnightblue" points="64.97,-157.49 65.31,-168.08 71.65,-159.6 64.97,-157.49"/>
</g>
<!-- Node5 -->
<g id="node5" class="node">
<title>Node5</title>
<g id="a_node5"><a xlink:href="classAxiSpiAd7682.html" target="_top" xlink:title=" ">
<polygon fill="white" stroke="black" points="143.5,-112.5 143.5,-131.5 227.5,-131.5 227.5,-112.5 143.5,-112.5"/>
<text text-anchor="middle" x="185.5" y="-119.5" font-family="Helvetica,sans-Serif" font-size="10.00">AxiSpiAd7682</text>
</a>
</g>
</g>
<!-- Node5&#45;&gt;Node2 -->
<g id="edge4" class="edge">
<title>Node5&#45;&gt;Node2</title>
<path fill="none" stroke="midnightblue" d="M202.12,-105.25C212.23,-95.67 224.78,-83.79 233.18,-75.83"/>
<polygon fill="midnightblue" stroke="midnightblue" points="199.51,-102.91 194.66,-112.32 204.32,-107.99 199.51,-102.91"/>
</g>
<!-- Node6 -->
<g id="node6" class="node">
<title>Node6</title>
<g id="a_node6"><a xlink:href="classAxiSpiAd7682Reg.html" target="_top" xlink:title=" ">
<polygon fill="white" stroke="black" points="143,-168.5 143,-187.5 246,-187.5 246,-168.5 143,-168.5"/>
<text text-anchor="middle" x="194.5" y="-175.5" font-family="Helvetica,sans-Serif" font-size="10.00">AxiSpiAd7682Reg</text>
</a>
</g>
</g>
<!-- Node6&#45;&gt;Node5 -->
<g id="edge5" class="edge">
<title>Node6&#45;&gt;Node5</title>
<path fill="none" stroke="midnightblue" d="M191.35,-158.1C189.86,-149.14 188.14,-138.86 186.96,-131.75"/>
<polygon fill="midnightblue" stroke="midnightblue" points="187.92,-158.79 193.01,-168.08 194.82,-157.64 187.92,-158.79"/>
</g>
<!-- Node7 -->
<g id="node7" class="node">
<title>Node7</title>
<g id="a_node7"><a xlink:href="classRtmRfInterlockReg.html" target="_top" xlink:title=" ">
<polygon fill="white" stroke="black" points="246,-112.5 246,-131.5 355,-131.5 355,-112.5 246,-112.5"/>
<text text-anchor="middle" x="300.5" y="-119.5" font-family="Helvetica,sans-Serif" font-size="10.00">RtmRfInterlockReg</text>
</a>
</g>
</g>
<!-- Node7&#45;&gt;Node2 -->
<g id="edge6" class="edge">
<title>Node7&#45;&gt;Node2</title>
<path fill="none" stroke="midnightblue" d="M283.59,-105.25C273.3,-95.67 260.53,-83.79 251.99,-75.83"/>
<polygon fill="midnightblue" stroke="midnightblue" points="281.48,-108.07 291.18,-112.32 286.25,-102.95 281.48,-108.07"/>
</g>
<!-- Node8 -->
<g id="node8" class="node">
<title>Node8</title>
<g id="a_node8"><a xlink:href="classRingBufferCtrl.html" target="_top" xlink:title=" ">
<polygon fill="white" stroke="black" points="373,-112.5 373,-131.5 458,-131.5 458,-112.5 373,-112.5"/>
<text text-anchor="middle" x="415.5" y="-119.5" font-family="Helvetica,sans-Serif" font-size="10.00">RingBufferCtrl</text>
</a>
</g>
</g>
<!-- Node8&#45;&gt;Node2 -->
<g id="edge7" class="edge">
<title>Node8&#45;&gt;Node2</title>
<path fill="none" stroke="midnightblue" d="M378.45,-109.44C345.84,-99.26 299.09,-84.66 269.78,-75.52"/>
<polygon fill="midnightblue" stroke="midnightblue" points="377.5,-112.8 388.09,-112.44 379.58,-106.12 377.5,-112.8"/>
</g>
</g>
</svg>
