<?xml version="1.0" encoding="UTF-8" standalone="no"?>
<!DOCTYPE svg PUBLIC "-//W3C//DTD SVG 1.1//EN"
 "http://www.w3.org/Graphics/SVG/1.1/DTD/svg11.dtd">
<!-- Generated by graphviz version 2.40.1 (20161225.0304)
 -->
<!-- Title: AxisBramRingBufferTb Pages: 1 -->
<svg width="330pt" height="140pt"
 viewBox="0.00 0.00 330.00 140.00" xmlns="http://www.w3.org/2000/svg" xmlns:xlink="http://www.w3.org/1999/xlink">
<g id="graph0" class="graph" transform="scale(1 1) rotate(0) translate(4 136)">
<title>AxisBramRingBufferTb</title>
<polygon fill="#ffffff" stroke="transparent" points="-4,4 -4,-136 326,-136 326,4 -4,4"/>
<!-- Node0 -->
<g id="node1" class="node">
<title>Node0</title>
<polygon fill="#bfbfbf" stroke="#000000" points="97.5,-.5 97.5,-19.5 224.5,-19.5 224.5,-.5 97.5,-.5"/>
<text text-anchor="middle" x="161" y="-7.5" font-family="Helvetica,sans-Serif" font-size="10.00" fill="#000000">AxisBramRingBufferTb</text>
</g>
<!-- Node1 -->
<g id="node2" class="node">
<title>Node1</title>
<g id="a_node2"><a xlink:href="classAxisBramFlashBuffer.html" target="_top" xlink:title="AxisBramFlashBuffer">
<polygon fill="#ffffff" stroke="#000000" points="101.5,-56.5 101.5,-75.5 220.5,-75.5 220.5,-56.5 101.5,-56.5"/>
<text text-anchor="middle" x="161" y="-63.5" font-family="Helvetica,sans-Serif" font-size="10.00" fill="#000000">AxisBramFlashBuffer</text>
</a>
</g>
</g>
<!-- Node1&#45;&gt;Node0 -->
<g id="edge1" class="edge">
<title>Node1&#45;&gt;Node0</title>
<path fill="none" stroke="#191970" d="M161,-46.1575C161,-37.155 161,-26.9199 161,-19.6427"/>
<polygon fill="#191970" stroke="#191970" points="157.5001,-46.2455 161,-56.2455 164.5001,-46.2456 157.5001,-46.2455"/>
</g>
<!-- Node2 -->
<g id="node3" class="node">
<title>Node2</title>
<g id="a_node3"><a xlink:href="classAxisBramFlashBufferWrFsm.html" target="_top" xlink:title="AxisBramFlashBufferWrFsm">
<polygon fill="#ffffff" stroke="#000000" points="0,-112.5 0,-131.5 152,-131.5 152,-112.5 0,-112.5"/>
<text text-anchor="middle" x="76" y="-119.5" font-family="Helvetica,sans-Serif" font-size="10.00" fill="#000000">AxisBramFlashBufferWrFsm</text>
</a>
</g>
</g>
<!-- Node2&#45;&gt;Node1 -->
<g id="edge2" class="edge">
<title>Node2&#45;&gt;Node1</title>
<path fill="none" stroke="#191970" d="M99.5419,-106.49C114.539,-96.6096 133.4973,-84.1194 146.3638,-75.6427"/>
<polygon fill="#191970" stroke="#191970" points="97.2309,-103.8212 90.8059,-112.2455 101.0821,-109.6666 97.2309,-103.8212"/>
</g>
<!-- Node3 -->
<g id="node4" class="node">
<title>Node3</title>
<g id="a_node4"><a xlink:href="classAxisBramFlashBufferRdFsm.html" target="_top" xlink:title="AxisBramFlashBufferRdFsm">
<polygon fill="#ffffff" stroke="#000000" points="170,-112.5 170,-131.5 322,-131.5 322,-112.5 170,-112.5"/>
<text text-anchor="middle" x="246" y="-119.5" font-family="Helvetica,sans-Serif" font-size="10.00" fill="#000000">AxisBramFlashBufferRdFsm</text>
</a>
</g>
</g>
<!-- Node3&#45;&gt;Node1 -->
<g id="edge3" class="edge">
<title>Node3&#45;&gt;Node1</title>
<path fill="none" stroke="#191970" d="M222.4581,-106.49C207.461,-96.6096 188.5027,-84.1194 175.6362,-75.6427"/>
<polygon fill="#191970" stroke="#191970" points="220.9179,-109.6666 231.1941,-112.2455 224.7691,-103.8212 220.9179,-109.6666"/>
</g>
</g>
</svg>
