<?xml version="1.0" encoding="UTF-8" standalone="no"?>
<!DOCTYPE svg PUBLIC "-//W3C//DTD SVG 1.1//EN"
 "http://www.w3.org/Graphics/SVG/1.1/DTD/svg11.dtd">
<!-- Generated by graphviz version 2.40.1 (20161225.0304)
 -->
<!-- Title: AmcCarrierCore Pages: 1 -->
<!--zoomable 256 -->
<svg id="main" version="1.1" xmlns="http://www.w3.org/2000/svg" xmlns:xlink="http://www.w3.org/1999/xlink" xml:space="preserve" onload="init(evt)">
<style type="text/css"><![CDATA[
.edge:hover path { stroke: red; }
.edge:hover polygon { stroke: red; fill: red; }
]]></style>
<script type="text/javascript"><![CDATA[
var edges = document.getElementsByTagName('g');
if (edges && edges.length) {
  for (var i=0;i<edges.length;i++) {
    if (edges[i].id.substr(0,4)=='edge') {
      edges[i].setAttribute('class','edge');
    }
  }
}
]]></script>
        <defs>
                <circle id="rim" cx="0" cy="0" r="7"/>
                <circle id="rim2" cx="0" cy="0" r="3.5"/>
                <g id="zoomPlus">
                        <use xlink:href="#rim" fill="#404040">
                                <set attributeName="fill" to="#808080" begin="zoomplus.mouseover" end="zoomplus.mouseout"/>
                        </use>
                        <path d="M-4,0h8M0,-4v8" fill="none" stroke="white" stroke-width="1.5" pointer-events="none"/>
                </g>
                <g id="zoomMin">
                        <use xlink:href="#rim" fill="#404040">
                                <set attributeName="fill" to="#808080" begin="zoomminus.mouseover" end="zoomminus.mouseout"/>
                        </use>
                        <path d="M-4,0h8" fill="none" stroke="white" stroke-width="1.5" pointer-events="none"/>
                </g>
                <g id="dirArrow">
                        <path fill="none" stroke="white" stroke-width="1.5" d="M0,-3.0v7 M-2.5,-0.5L0,-3.0L2.5,-0.5"/>
                </g>
               <g id="resetDef">
                       <use xlink:href="#rim2" fill="#404040">
                               <set attributeName="fill" to="#808080" begin="reset.mouseover" end="reset.mouseout"/>
                       </use>
               </g>
        </defs>

<script type="text/javascript">
var viewWidth = 768;
var viewHeight = 256;
var sectionId = 'dynsection-0';
</script>
<script xlink:href="svgpan.js"/>
<svg id="graph" class="graph">
<g id="viewport">
<title>AmcCarrierCore</title>
<polygon fill="#ffffff" stroke="transparent" points="-4,4 -4,-252 764,-252 764,4 -4,4"/>
<!-- Node0 -->
<g id="node1" class="node">
<title>Node0</title>
<polygon fill="#bfbfbf" stroke="#000000" points="512,-152.5 512,-171.5 606,-171.5 606,-152.5 512,-152.5"/>
<text text-anchor="middle" x="559" y="-159.5" font-family="Helvetica,sans-Serif" font-size="10.00" fill="#000000">AmcCarrierCore</text>
</g>
<!-- Node15 -->
<g id="node16" class="node">
<title>Node15</title>
<g id="a_node16"><a xlink:href="classAmcCarrierCoreAdv.html" target="_top" xlink:title="AmcCarrierCoreAdv">
<polygon fill="#ffffff" stroke="#000000" points="644.5,-171.5 644.5,-190.5 757.5,-190.5 757.5,-171.5 644.5,-171.5"/>
<text text-anchor="middle" x="701" y="-178.5" font-family="Helvetica,sans-Serif" font-size="10.00" fill="#000000">AmcCarrierCoreAdv</text>
</a>
</g>
</g>
<!-- Node0&#45;&gt;Node15 -->
<g id="edge16" class="edge">
<title>Node0&#45;&gt;Node15</title>
<path fill="none" stroke="#191970" d="M616.4792,-169.6909C625.6575,-170.919 635.1489,-172.1889 644.3087,-173.4145"/>
<polygon fill="#191970" stroke="#191970" points="616.6598,-166.1839 606.2839,-168.3267 615.7314,-173.1221 616.6598,-166.1839"/>
</g>
<!-- Node16 -->
<g id="node17" class="node">
<title>Node16</title>
<g id="a_node17"><a xlink:href="classAmcCarrierCoreBase.html" target="_top" xlink:title="AmcCarrierCoreBase">
<polygon fill="#ffffff" stroke="#000000" points="642,-133.5 642,-152.5 760,-152.5 760,-133.5 642,-133.5"/>
<text text-anchor="middle" x="701" y="-140.5" font-family="Helvetica,sans-Serif" font-size="10.00" fill="#000000">AmcCarrierCoreBase</text>
</a>
</g>
</g>
<!-- Node0&#45;&gt;Node16 -->
<g id="edge17" class="edge">
<title>Node0&#45;&gt;Node16</title>
<path fill="none" stroke="#191970" d="M616.3459,-154.327C624.7293,-153.2052 633.3766,-152.0482 641.7962,-150.9216"/>
<polygon fill="#191970" stroke="#191970" points="615.7314,-150.8779 606.2839,-155.6733 616.6598,-157.8161 615.7314,-150.8779"/>
</g>
<!-- Node1 -->
<g id="node2" class="node">
<title>Node1</title>
<g id="a_node2"><a xlink:href="classAmcCarrierIbufGt.html" target="_top" xlink:title="AmcCarrierIbufGt">
<polygon fill="#ffffff" stroke="#000000" points="199,-228.5 199,-247.5 300,-247.5 300,-228.5 199,-228.5"/>
<text text-anchor="middle" x="249.5" y="-235.5" font-family="Helvetica,sans-Serif" font-size="10.00" fill="#000000">AmcCarrierIbufGt</text>
</a>
</g>
</g>
<!-- Node1&#45;&gt;Node0 -->
<g id="edge1" class="edge">
<title>Node1&#45;&gt;Node0</title>
<path fill="none" stroke="#191970" d="M310.3455,-241.2316C356.9935,-241.7493 422.2705,-238.1715 476,-219 505.3056,-208.5433 533.9852,-185.0708 548.7413,-171.7379"/>
<polygon fill="#191970" stroke="#191970" points="310.155,-237.7277 300.0942,-241.0488 310.0301,-244.7266 310.155,-237.7277"/>
</g>
<!-- Node7 -->
<g id="node8" class="node">
<title>Node7</title>
<g id="a_node8"><a xlink:href="classAmcCarrierTiming.html" target="_top" xlink:title="AmcCarrierTiming">
<polygon fill="#ffffff" stroke="#000000" points="367,-190.5 367,-209.5 472,-209.5 472,-190.5 367,-190.5"/>
<text text-anchor="middle" x="419.5" y="-197.5" font-family="Helvetica,sans-Serif" font-size="10.00" fill="#000000">AmcCarrierTiming</text>
</a>
</g>
</g>
<!-- Node1&#45;&gt;Node7 -->
<g id="edge8" class="edge">
<title>Node1&#45;&gt;Node7</title>
<path fill="none" stroke="#191970" d="M302.3981,-226.1757C326.365,-220.8184 354.3235,-214.5689 376.9103,-209.5201"/>
<polygon fill="#191970" stroke="#191970" points="301.3938,-222.8138 292.3982,-228.411 302.9209,-229.6452 301.3938,-222.8138"/>
</g>
<!-- Node2 -->
<g id="node3" class="node">
<title>Node2</title>
<g id="a_node3"><a xlink:href="classAmcCarrierEth.html" target="_top" xlink:title="AmcCarrierEth">
<polygon fill="#ffffff" stroke="#000000" points="376,-152.5 376,-171.5 463,-171.5 463,-152.5 376,-152.5"/>
<text text-anchor="middle" x="419.5" y="-159.5" font-family="Helvetica,sans-Serif" font-size="10.00" fill="#000000">AmcCarrierEth</text>
</a>
</g>
</g>
<!-- Node2&#45;&gt;Node0 -->
<g id="edge2" class="edge">
<title>Node2&#45;&gt;Node0</title>
<path fill="none" stroke="#191970" d="M473.5669,-162C486.0861,-162 499.3162,-162 511.5283,-162"/>
<polygon fill="#191970" stroke="#191970" points="473.256,-158.5001 463.2559,-162 473.2559,-165.5001 473.256,-158.5001"/>
</g>
<!-- Node3 -->
<g id="node4" class="node">
<title>Node3</title>
<g id="a_node4"><a xlink:href="classAmcCarrierRssi.html" target="_top" xlink:title="AmcCarrierRssi(2)">
<polygon fill="#ffffff" stroke="#000000" points="197,-190.5 197,-209.5 302,-209.5 302,-190.5 197,-190.5"/>
<text text-anchor="middle" x="249.5" y="-197.5" font-family="Helvetica,sans-Serif" font-size="10.00" fill="#000000">AmcCarrierRssi(2)</text>
</a>
</g>
</g>
<!-- Node3&#45;&gt;Node2 -->
<g id="edge3" class="edge">
<title>Node3&#45;&gt;Node2</title>
<path fill="none" stroke="#191970" d="M302.3981,-188.1757C326.365,-182.8184 354.3235,-176.5689 376.9103,-171.5201"/>
<polygon fill="#191970" stroke="#191970" points="301.3938,-184.8138 292.3982,-190.411 302.9209,-191.6452 301.3938,-184.8138"/>
</g>
<!-- Node4 -->
<g id="node5" class="node">
<title>Node4</title>
<g id="a_node5"><a xlink:href="classAmcCarrierRssiObFifo.html" target="_top" xlink:title="AmcCarrierRssiObFifo(2)">
<polygon fill="#ffffff" stroke="#000000" points="0,-190.5 0,-209.5 136,-209.5 136,-190.5 0,-190.5"/>
<text text-anchor="middle" x="68" y="-197.5" font-family="Helvetica,sans-Serif" font-size="10.00" fill="#000000">AmcCarrierRssiObFifo(2)</text>
</a>
</g>
</g>
<!-- Node4&#45;&gt;Node3 -->
<g id="edge4" class="edge">
<title>Node4&#45;&gt;Node3</title>
<path fill="none" stroke="#191970" d="M146.1111,-200C163.2664,-200 181.0363,-200 196.9037,-200"/>
<polygon fill="#191970" stroke="#191970" points="146.1003,-196.5001 136.1003,-200 146.1003,-203.5001 146.1003,-196.5001"/>
</g>
<!-- Node5 -->
<g id="node6" class="node">
<title>Node5</title>
<g id="a_node6"><a xlink:href="classAmcCarrierRssiInterleave.html" target="_top" xlink:title="AmcCarrierRssiInterleave(2)">
<polygon fill="#ffffff" stroke="#000000" points="172,-152.5 172,-171.5 327,-171.5 327,-152.5 172,-152.5"/>
<text text-anchor="middle" x="249.5" y="-159.5" font-family="Helvetica,sans-Serif" font-size="10.00" fill="#000000">AmcCarrierRssiInterleave(2)</text>
</a>
</g>
</g>
<!-- Node5&#45;&gt;Node2 -->
<g id="edge5" class="edge">
<title>Node5&#45;&gt;Node2</title>
<path fill="none" stroke="#191970" d="M337.3098,-162C350.7476,-162 364.0917,-162 375.9967,-162"/>
<polygon fill="#191970" stroke="#191970" points="337.0379,-158.5001 327.0378,-162 337.0378,-165.5001 337.0379,-158.5001"/>
</g>
<!-- Node6 -->
<g id="node7" class="node">
<title>Node6</title>
<g id="a_node7"><a xlink:href="classAmcCarrierRssiObFifo.html" target="_top" xlink:title="AmcCarrierRssiObFifo">
<polygon fill="#ffffff" stroke="#000000" points="7,-152.5 7,-171.5 129,-171.5 129,-152.5 7,-152.5"/>
<text text-anchor="middle" x="68" y="-159.5" font-family="Helvetica,sans-Serif" font-size="10.00" fill="#000000">AmcCarrierRssiObFifo</text>
</a>
</g>
</g>
<!-- Node6&#45;&gt;Node5 -->
<g id="edge6" class="edge">
<title>Node6&#45;&gt;Node5</title>
<path fill="none" stroke="#191970" d="M139.296,-162C149.9738,-162 161.0286,-162 171.8309,-162"/>
<polygon fill="#191970" stroke="#191970" points="139.1946,-158.5001 129.1946,-162 139.1946,-165.5001 139.1946,-158.5001"/>
</g>
<!-- Node7&#45;&gt;Node0 -->
<g id="edge7" class="edge">
<title>Node7&#45;&gt;Node0</title>
<path fill="none" stroke="#191970" d="M464.4564,-187.7538C483.6848,-182.516 505.8031,-176.4909 523.8095,-171.5859"/>
<polygon fill="#191970" stroke="#191970" points="463.4303,-184.4057 454.7017,-190.411 465.2701,-191.1596 463.4303,-184.4057"/>
</g>
<!-- Node8 -->
<g id="node9" class="node">
<title>Node8</title>
<g id="a_node9"><a xlink:href="classAmcCarrierBsa.html" target="_top" xlink:title="AmcCarrierBsa">
<polygon fill="#ffffff" stroke="#000000" points="375,-95.5 375,-114.5 464,-114.5 464,-95.5 375,-95.5"/>
<text text-anchor="middle" x="419.5" y="-102.5" font-family="Helvetica,sans-Serif" font-size="10.00" fill="#000000">AmcCarrierBsa</text>
</a>
</g>
</g>
<!-- Node8&#45;&gt;Node0 -->
<g id="edge9" class="edge">
<title>Node8&#45;&gt;Node0</title>
<path fill="none" stroke="#191970" d="M452.1501,-118.3409C477.7351,-128.795 512.7139,-143.0874 535.5747,-152.4284"/>
<polygon fill="#191970" stroke="#191970" points="453.4301,-115.0831 442.8492,-114.5405 450.7823,-121.563 453.4301,-115.0831"/>
</g>
<!-- Node9 -->
<g id="node10" class="node">
<title>Node9</title>
<g id="a_node10"><a xlink:href="classBsaWaveformEngine.html" target="_top" xlink:title="BsaWaveformEngine(2)">
<polygon fill="#ffffff" stroke="#000000" points="184,-114.5 184,-133.5 315,-133.5 315,-114.5 184,-114.5"/>
<text text-anchor="middle" x="249.5" y="-121.5" font-family="Helvetica,sans-Serif" font-size="10.00" fill="#000000">BsaWaveformEngine(2)</text>
</a>
</g>
</g>
<!-- Node9&#45;&gt;Node8 -->
<g id="edge10" class="edge">
<title>Node9&#45;&gt;Node8</title>
<path fill="none" stroke="#191970" d="M325.1679,-115.543C342.1875,-113.6408 359.7121,-111.6822 374.9681,-109.9771"/>
<polygon fill="#191970" stroke="#191970" points="324.7758,-112.0649 315.2264,-116.6541 325.5533,-119.0216 324.7758,-112.0649"/>
</g>
<!-- Node10 -->
<g id="node11" class="node">
<title>Node10</title>
<g id="a_node11"><a xlink:href="classBsaBufferControl.html" target="_top" xlink:title="BsaBufferControl">
<polygon fill="#ffffff" stroke="#000000" points="200,-76.5 200,-95.5 299,-95.5 299,-76.5 200,-76.5"/>
<text text-anchor="middle" x="249.5" y="-83.5" font-family="Helvetica,sans-Serif" font-size="10.00" fill="#000000">BsaBufferControl</text>
</a>
</g>
</g>
<!-- Node10&#45;&gt;Node8 -->
<g id="edge11" class="edge">
<title>Node10&#45;&gt;Node8</title>
<path fill="none" stroke="#191970" d="M309.166,-92.6686C330.7251,-95.0781 354.6772,-97.7551 374.7407,-99.9975"/>
<polygon fill="#191970" stroke="#191970" points="309.4549,-89.1791 299.128,-91.5467 308.6774,-96.1358 309.4549,-89.1791"/>
</g>
<!-- Node11 -->
<g id="node12" class="node">
<title>Node11</title>
<g id="a_node12"><a xlink:href="classBsaAccumulator.html" target="_top" xlink:title="BsaAccumulator">
<polygon fill="#ffffff" stroke="#000000" points="20,-76.5 20,-95.5 116,-95.5 116,-76.5 20,-76.5"/>
<text text-anchor="middle" x="68" y="-83.5" font-family="Helvetica,sans-Serif" font-size="10.00" fill="#000000">BsaAccumulator</text>
</a>
</g>
</g>
<!-- Node11&#45;&gt;Node10 -->
<g id="edge12" class="edge">
<title>Node11&#45;&gt;Node10</title>
<path fill="none" stroke="#191970" d="M126.4249,-86C150.0978,-86 177.1465,-86 199.8462,-86"/>
<polygon fill="#191970" stroke="#191970" points="126.1622,-82.5001 116.1622,-86 126.1621,-89.5001 126.1622,-82.5001"/>
</g>
<!-- Node12 -->
<g id="node13" class="node">
<title>Node12</title>
<g id="a_node13"><a xlink:href="classBsaAxiInterconnectWrapper.html" target="_top" xlink:title="BsaAxiInterconnectWrapper">
<polygon fill="#ffffff" stroke="#000000" points="173.5,-38.5 173.5,-57.5 325.5,-57.5 325.5,-38.5 173.5,-38.5"/>
<text text-anchor="middle" x="249.5" y="-45.5" font-family="Helvetica,sans-Serif" font-size="10.00" fill="#000000">BsaAxiInterconnectWrapper</text>
</a>
</g>
</g>
<!-- Node12&#45;&gt;Node8 -->
<g id="edge13" class="edge">
<title>Node12&#45;&gt;Node8</title>
<path fill="none" stroke="#191970" d="M306.0588,-60.1452C313.1907,-62.178 320.3224,-64.4635 327,-67 343.9126,-73.4243 346.372,-78.8713 363,-86 370.9897,-89.4253 379.8193,-92.6484 388.0774,-95.4332"/>
<polygon fill="#191970" stroke="#191970" points="306.9425,-56.7586 296.3758,-57.5302 305.1173,-63.5164 306.9425,-56.7586"/>
</g>
<!-- Node13 -->
<g id="node14" class="node">
<title>Node13</title>
<g id="a_node14"><a xlink:href="classBldAxiStream.html" target="_top" xlink:title="BldAxiStream">
<polygon fill="#ffffff" stroke="#000000" points="208,-.5 208,-19.5 291,-19.5 291,-.5 208,-.5"/>
<text text-anchor="middle" x="249.5" y="-7.5" font-family="Helvetica,sans-Serif" font-size="10.00" fill="#000000">BldAxiStream</text>
</a>
</g>
</g>
<!-- Node13&#45;&gt;Node8 -->
<g id="edge14" class="edge">
<title>Node13&#45;&gt;Node8</title>
<path fill="none" stroke="#191970" d="M300.7169,-16.6606C310.0301,-19.4582 319.2397,-23.4134 327,-29 351.3172,-46.5057 339.4391,-67.4889 363,-86 367.8826,-89.8361 373.5801,-92.9177 379.4423,-95.3878"/>
<polygon fill="#191970" stroke="#191970" points="301.5893,-13.2712 291.0305,-14.1446 299.8294,-20.0463 301.5893,-13.2712"/>
</g>
<!-- Node14 -->
<g id="node15" class="node">
<title>Node14</title>
<g id="a_node15"><a xlink:href="classAmcCarrierDdrMem.html" target="_top" xlink:title="AmcCarrierDdrMem">
<polygon fill="#ffffff" stroke="#000000" points="363,-57.5 363,-76.5 476,-76.5 476,-57.5 363,-57.5"/>
<text text-anchor="middle" x="419.5" y="-64.5" font-family="Helvetica,sans-Serif" font-size="10.00" fill="#000000">AmcCarrierDdrMem</text>
</a>
</g>
</g>
<!-- Node14&#45;&gt;Node0 -->
<g id="edge15" class="edge">
<title>Node14&#45;&gt;Node0</title>
<path fill="none" stroke="#191970" d="M465.0226,-80.414C468.828,-82.0993 472.5389,-83.9586 476,-86 507.4698,-104.5616 537.2517,-136.5583 551.0198,-152.4581"/>
<polygon fill="#191970" stroke="#191970" points="466.0417,-77.0517 455.4575,-76.578 463.4361,-83.5487 466.0417,-77.0517"/>
</g>
</g>
</svg>
        <g id="navigator" transform="translate(0 0)" fill="#404254">
                <rect fill="#f2f5e9" fill-opacity="0.5" stroke="#606060" stroke-width=".5" x="0" y="0" width="60" height="60"/>
                <use id="zoomplus" xlink:href="#zoomPlus" x="17" y="9" onmousedown="handleZoom(evt,'in')"/>
                <use id="zoomminus" xlink:href="#zoomMin" x="42" y="9" onmousedown="handleZoom(evt,'out')"/>
                <use id="reset" xlink:href="#resetDef" x="30" y="36" onmousedown="handleReset()"/>
                <g id="arrowUp" xlink:href="#dirArrow" transform="translate(30 24)" onmousedown="handlePan(0,-1)">
                  <use xlink:href="#rim" fill="#404040">
                        <set attributeName="fill" to="#808080" begin="arrowUp.mouseover" end="arrowUp.mouseout"/>
                  </use>
                  <path fill="none" stroke="white" stroke-width="1.5" d="M0,-3.0v7 M-2.5,-0.5L0,-3.0L2.5,-0.5"/>
                </g>
                <g id="arrowRight" xlink:href="#dirArrow" transform="rotate(90) translate(36 -43)" onmousedown="handlePan(1,0)">
                  <use xlink:href="#rim" fill="#404040">
                        <set attributeName="fill" to="#808080" begin="arrowRight.mouseover" end="arrowRight.mouseout"/>
                  </use>
                  <path fill="none" stroke="white" stroke-width="1.5" d="M0,-3.0v7 M-2.5,-0.5L0,-3.0L2.5,-0.5"/>
                </g>
                <g id="arrowDown" xlink:href="#dirArrow" transform="rotate(180) translate(-30 -48)" onmousedown="handlePan(0,1)">
                  <use xlink:href="#rim" fill="#404040">
                        <set attributeName="fill" to="#808080" begin="arrowDown.mouseover" end="arrowDown.mouseout"/>
                  </use>
                  <path fill="none" stroke="white" stroke-width="1.5" d="M0,-3.0v7 M-2.5,-0.5L0,-3.0L2.5,-0.5"/>
                </g>
                <g id="arrowLeft" xlink:href="#dirArrow" transform="rotate(270) translate(-36 17)" onmousedown="handlePan(-1,0)">
                  <use xlink:href="#rim" fill="#404040">
                        <set attributeName="fill" to="#808080" begin="arrowLeft.mouseover" end="arrowLeft.mouseout"/>
                  </use>
                  <path fill="none" stroke="white" stroke-width="1.5" d="M0,-3.0v7 M-2.5,-0.5L0,-3.0L2.5,-0.5"/>
                </g>
        </g>
        <svg viewBox="0 0 15 15" width="100%" height="30px" preserveAspectRatio="xMaxYMin meet">
         <g id="arrow_out" transform="scale(0.3 0.3)">
          <a xlink:href="classAmcCarrierCore__inherit__graph_org.svg" target="_base">
           <rect id="button" ry="5" rx="5" y="6" x="6" height="38" width="38"
                fill="#f2f5e9" fill-opacity="0.5" stroke="#606060" stroke-width="1.0"/>
           <path id="arrow"
             d="M 11.500037,31.436501 C 11.940474,20.09759 22.043105,11.32322 32.158766,21.979434 L 37.068811,17.246167 C 37.068811,17.246167 37.088388,32 37.088388,32 L 22.160133,31.978069 C 22.160133,31.978069 26.997745,27.140456 26.997745,27.140456 C 18.528582,18.264221 13.291696,25.230495 11.500037,31.436501 z"
             style="fill:#404040;"/>
          </a>
         </g>
        </svg>
</svg>
