<?xml version="1.0" encoding="UTF-8" standalone="no"?>
<!DOCTYPE svg PUBLIC "-//W3C//DTD SVG 1.1//EN"
 "http://www.w3.org/Graphics/SVG/1.1/DTD/svg11.dtd">
<!-- Generated by graphviz version 2.43.0 (0)
 -->
<!-- Title: AppMsgTb Pages: 1 -->
<svg width="160pt" height="84pt"
 viewBox="0.00 0.00 160.00 84.00" xmlns="http://www.w3.org/2000/svg" xmlns:xlink="http://www.w3.org/1999/xlink">
<g id="graph0" class="graph" transform="scale(1 1) rotate(0) translate(4 80)">
<title>AppMsgTb</title>
<polygon fill="white" stroke="transparent" points="-4,4 -4,-80 156,-80 156,4 -4,4"/>
<!-- Node1 -->
<g id="node1" class="node">
<title>Node1</title>
<g id="a_node1"><a xlink:title=" ">
<polygon fill="#bfbfbf" stroke="black" points="42.5,-0.5 42.5,-19.5 110.5,-19.5 110.5,-0.5 42.5,-0.5"/>
<text text-anchor="middle" x="76.5" y="-7.5" font-family="Helvetica,sans-Serif" font-size="10.00">AppMsgTb</text>
</a>
</g>
</g>
<!-- Node2 -->
<g id="node2" class="node">
<title>Node2</title>
<g id="a_node2"><a xlink:href="classAppMsgOb.html" target="_top" xlink:title=" ">
<polygon fill="white" stroke="black" points="0,-56.5 0,-75.5 69,-75.5 69,-56.5 0,-56.5"/>
<text text-anchor="middle" x="34.5" y="-63.5" font-family="Helvetica,sans-Serif" font-size="10.00">AppMsgOb</text>
</a>
</g>
</g>
<!-- Node2&#45;&gt;Node1 -->
<g id="edge1" class="edge">
<title>Node2&#45;&gt;Node1</title>
<path fill="none" stroke="midnightblue" d="M47.61,-48.14C54.93,-38.74 63.74,-27.4 69.69,-19.75"/>
<polygon fill="midnightblue" stroke="midnightblue" points="44.81,-46.04 41.44,-56.08 50.34,-50.34 44.81,-46.04"/>
</g>
<!-- Node3 -->
<g id="node3" class="node">
<title>Node3</title>
<g id="a_node3"><a xlink:href="classAppMsgIb.html" target="_top" xlink:title=" ">
<polygon fill="white" stroke="black" points="87,-56.5 87,-75.5 152,-75.5 152,-56.5 87,-56.5"/>
<text text-anchor="middle" x="119.5" y="-63.5" font-family="Helvetica,sans-Serif" font-size="10.00">AppMsgIb</text>
</a>
</g>
</g>
<!-- Node3&#45;&gt;Node1 -->
<g id="edge2" class="edge">
<title>Node3&#45;&gt;Node1</title>
<path fill="none" stroke="midnightblue" d="M106.08,-48.14C98.59,-38.74 89.56,-27.4 83.47,-19.75"/>
<polygon fill="midnightblue" stroke="midnightblue" points="103.43,-50.44 112.4,-56.08 108.91,-46.08 103.43,-50.44"/>
</g>
</g>
</svg>
