<?xml version="1.0" encoding="UTF-8" standalone="no"?>
<!DOCTYPE svg PUBLIC "-//W3C//DTD SVG 1.1//EN"
 "http://www.w3.org/Graphics/SVG/1.1/DTD/svg11.dtd">
<!-- Generated by graphviz version 2.40.1 (20161225.0304)
 -->
<!-- Title: LvdsDacSigGen Pages: 1 -->
<svg width="194pt" height="140pt"
 viewBox="0.00 0.00 193.50 140.00" xmlns="http://www.w3.org/2000/svg" xmlns:xlink="http://www.w3.org/1999/xlink">
<g id="graph0" class="graph" transform="scale(1 1) rotate(0) translate(4 136)">
<title>LvdsDacSigGen</title>
<polygon fill="#ffffff" stroke="transparent" points="-4,4 -4,-136 189.5,-136 189.5,4 -4,4"/>
<!-- Node0 -->
<g id="node1" class="node">
<title>Node0</title>
<polygon fill="#bfbfbf" stroke="#000000" points="48,-56.5 48,-75.5 140,-75.5 140,-56.5 48,-56.5"/>
<text text-anchor="middle" x="94" y="-63.5" font-family="Helvetica,sans-Serif" font-size="10.00" fill="#000000">LvdsDacSigGen</text>
</g>
<!-- Node3 -->
<g id="node4" class="node">
<title>Node3</title>
<g id="a_node4"><a xlink:href="classAmcMrLlrfUpConvertCore.html" target="_top" xlink:title="AmcMrLlrfUpConvertCore">
<polygon fill="#ffffff" stroke="#000000" points="24,-.5 24,-19.5 164,-19.5 164,-.5 24,-.5"/>
<text text-anchor="middle" x="94" y="-7.5" font-family="Helvetica,sans-Serif" font-size="10.00" fill="#000000">AmcMrLlrfUpConvertCore</text>
</a>
</g>
</g>
<!-- Node0&#45;&gt;Node3 -->
<g id="edge3" class="edge">
<title>Node0&#45;&gt;Node3</title>
<path fill="none" stroke="#191970" d="M94,-46.1575C94,-37.155 94,-26.9199 94,-19.6427"/>
<polygon fill="#191970" stroke="#191970" points="90.5001,-46.2455 94,-56.2455 97.5001,-46.2456 90.5001,-46.2455"/>
</g>
<!-- Node1 -->
<g id="node2" class="node">
<title>Node1</title>
<g id="a_node2"><a xlink:href="classLvdsDacRegItf.html" target="_top" xlink:title="LvdsDacRegItf">
<polygon fill="#ffffff" stroke="#000000" points="0,-112.5 0,-131.5 86,-131.5 86,-112.5 0,-112.5"/>
<text text-anchor="middle" x="43" y="-119.5" font-family="Helvetica,sans-Serif" font-size="10.00" fill="#000000">LvdsDacRegItf</text>
</a>
</g>
</g>
<!-- Node1&#45;&gt;Node0 -->
<g id="edge1" class="edge">
<title>Node1&#45;&gt;Node0</title>
<path fill="none" stroke="#191970" d="M58.6749,-104.7884C67.3994,-95.2085 77.9354,-83.6396 85.2183,-75.6427"/>
<polygon fill="#191970" stroke="#191970" points="56.0291,-102.4954 51.8835,-112.2455 61.2046,-107.2088 56.0291,-102.4954"/>
</g>
<!-- Node2 -->
<g id="node3" class="node">
<title>Node2</title>
<g id="a_node3"><a xlink:href="classLvdsDacLane.html" target="_top" xlink:title="LvdsDacLane">
<polygon fill="#ffffff" stroke="#000000" points="104.5,-112.5 104.5,-131.5 185.5,-131.5 185.5,-112.5 104.5,-112.5"/>
<text text-anchor="middle" x="145" y="-119.5" font-family="Helvetica,sans-Serif" font-size="10.00" fill="#000000">LvdsDacLane</text>
</a>
</g>
</g>
<!-- Node2&#45;&gt;Node0 -->
<g id="edge2" class="edge">
<title>Node2&#45;&gt;Node0</title>
<path fill="none" stroke="#191970" d="M129.3251,-104.7884C120.6006,-95.2085 110.0646,-83.6396 102.7817,-75.6427"/>
<polygon fill="#191970" stroke="#191970" points="126.7954,-107.2088 136.1165,-112.2455 131.9709,-102.4954 126.7954,-107.2088"/>
</g>
</g>
</svg>
