<?xml version="1.0" encoding="UTF-8" standalone="no"?>
<!DOCTYPE svg PUBLIC "-//W3C//DTD SVG 1.1//EN"
 "http://www.w3.org/Graphics/SVG/1.1/DTD/svg11.dtd">
<!-- Generated by graphviz version 2.40.1 (20161225.0304)
 -->
<!-- Title: AmcCarrierFsbl Pages: 1 -->
<svg width="660pt" height="196pt"
 viewBox="0.00 0.00 660.00 196.00" xmlns="http://www.w3.org/2000/svg" xmlns:xlink="http://www.w3.org/1999/xlink">
<g id="graph0" class="graph" transform="scale(1 1) rotate(0) translate(4 192)">
<title>AmcCarrierFsbl</title>
<polygon fill="#ffffff" stroke="transparent" points="-4,4 -4,-192 656,-192 656,4 -4,4"/>
<!-- Node12 -->
<g id="node1" class="node">
<title>Node12</title>
<polygon fill="#bfbfbf" stroke="#000000" points="183,-.5 183,-19.5 274,-19.5 274,-.5 183,-.5"/>
<text text-anchor="middle" x="228.5" y="-7.5" font-family="Helvetica,sans-Serif" font-size="10.00" fill="#000000">AmcCarrierFsbl</text>
</g>
<!-- Node13 -->
<g id="node2" class="node">
<title>Node13</title>
<g id="a_node2"><a xlink:href="classAmcCarrierIbufGt.html" target="_top" xlink:title="AmcCarrierIbufGt">
<polygon fill="#ffffff" stroke="#000000" points="0,-112.5 0,-131.5 101,-131.5 101,-112.5 0,-112.5"/>
<text text-anchor="middle" x="50.5" y="-119.5" font-family="Helvetica,sans-Serif" font-size="10.00" fill="#000000">AmcCarrierIbufGt</text>
</a>
</g>
</g>
<!-- Node13&#45;&gt;Node12 -->
<g id="edge1" class="edge">
<title>Node13&#45;&gt;Node12</title>
<path fill="none" stroke="#191970" d="M41.4564,-102.9219C36.1119,-88.5602 32.1948,-69.1643 42.5,-56 59.6213,-34.1285 133.5574,-21.2171 182.8967,-14.8831"/>
<polygon fill="#191970" stroke="#191970" points="38.3108,-104.4706 45.4173,-112.3286 44.7622,-101.7541 38.3108,-104.4706"/>
</g>
<!-- Node15 -->
<g id="node4" class="node">
<title>Node15</title>
<g id="a_node4"><a xlink:href="classAmcCarrierTiming.html" target="_top" xlink:title="AmcCarrierTiming">
<polygon fill="#ffffff" stroke="#000000" points="52,-56.5 52,-75.5 157,-75.5 157,-56.5 52,-56.5"/>
<text text-anchor="middle" x="104.5" y="-63.5" font-family="Helvetica,sans-Serif" font-size="10.00" fill="#000000">AmcCarrierTiming</text>
</a>
</g>
</g>
<!-- Node13&#45;&gt;Node15 -->
<g id="edge4" class="edge">
<title>Node13&#45;&gt;Node15</title>
<path fill="none" stroke="#191970" d="M67.0969,-104.7884C76.3347,-95.2085 87.4904,-83.6396 95.2017,-75.6427"/>
<polygon fill="#191970" stroke="#191970" points="64.328,-102.6176 59.9061,-112.2455 69.3669,-107.4766 64.328,-102.6176"/>
</g>
<!-- Node14 -->
<g id="node3" class="node">
<title>Node14</title>
<g id="a_node3"><a xlink:href="classAmcCarrierEthFsbl.html" target="_top" xlink:title="AmcCarrierEthFsbl">
<polygon fill="#ffffff" stroke="#000000" points="175,-56.5 175,-75.5 282,-75.5 282,-56.5 175,-56.5"/>
<text text-anchor="middle" x="228.5" y="-63.5" font-family="Helvetica,sans-Serif" font-size="10.00" fill="#000000">AmcCarrierEthFsbl</text>
</a>
</g>
</g>
<!-- Node14&#45;&gt;Node12 -->
<g id="edge2" class="edge">
<title>Node14&#45;&gt;Node12</title>
<path fill="none" stroke="#191970" d="M228.5,-46.1575C228.5,-37.155 228.5,-26.9199 228.5,-19.6427"/>
<polygon fill="#191970" stroke="#191970" points="225.0001,-46.2455 228.5,-56.2455 232.0001,-46.2456 225.0001,-46.2455"/>
</g>
<!-- Node15&#45;&gt;Node12 -->
<g id="edge3" class="edge">
<title>Node15&#45;&gt;Node12</title>
<path fill="none" stroke="#191970" d="M134.9524,-52.2473C157.4722,-42.0771 187.5617,-28.4883 207.4618,-19.5011"/>
<polygon fill="#191970" stroke="#191970" points="133.4895,-49.0675 125.8164,-56.3733 136.3706,-55.4471 133.4895,-49.0675"/>
</g>
<!-- Node16 -->
<g id="node5" class="node">
<title>Node16</title>
<g id="a_node5"><a xlink:href="classAmcCarrierBsa.html" target="_top" xlink:title="AmcCarrierBsa">
<polygon fill="#ffffff" stroke="#000000" points="300,-56.5 300,-75.5 389,-75.5 389,-56.5 300,-56.5"/>
<text text-anchor="middle" x="344.5" y="-63.5" font-family="Helvetica,sans-Serif" font-size="10.00" fill="#000000">AmcCarrierBsa</text>
</a>
</g>
</g>
<!-- Node16&#45;&gt;Node12 -->
<g id="edge5" class="edge">
<title>Node16&#45;&gt;Node12</title>
<path fill="none" stroke="#191970" d="M315.4463,-51.9741C294.4435,-41.8348 266.6309,-28.408 248.1809,-19.5011"/>
<polygon fill="#191970" stroke="#191970" points="314.0317,-55.1776 324.5589,-56.3733 317.075,-48.8738 314.0317,-55.1776"/>
</g>
<!-- Node17 -->
<g id="node6" class="node">
<title>Node17</title>
<g id="a_node6"><a xlink:href="classBsaWaveformEngine.html" target="_top" xlink:title="BsaWaveformEngine(2)">
<polygon fill="#ffffff" stroke="#000000" points="132,-112.5 132,-131.5 263,-131.5 263,-112.5 132,-112.5"/>
<text text-anchor="middle" x="197.5" y="-119.5" font-family="Helvetica,sans-Serif" font-size="10.00" fill="#000000">BsaWaveformEngine(2)</text>
</a>
</g>
</g>
<!-- Node17&#45;&gt;Node16 -->
<g id="edge6" class="edge">
<title>Node17&#45;&gt;Node16</title>
<path fill="none" stroke="#191970" d="M232.1794,-108.7888C259.0198,-98.5639 295.547,-84.6488 319.5596,-75.5011"/>
<polygon fill="#191970" stroke="#191970" points="230.8691,-105.5425 222.7702,-112.3733 233.3611,-112.0839 230.8691,-105.5425"/>
</g>
<!-- Node18 -->
<g id="node7" class="node">
<title>Node18</title>
<g id="a_node7"><a xlink:href="classBsaBufferControl.html" target="_top" xlink:title="BsaBufferControl">
<polygon fill="#ffffff" stroke="#000000" points="281,-112.5 281,-131.5 380,-131.5 380,-112.5 281,-112.5"/>
<text text-anchor="middle" x="330.5" y="-119.5" font-family="Helvetica,sans-Serif" font-size="10.00" fill="#000000">BsaBufferControl</text>
</a>
</g>
</g>
<!-- Node18&#45;&gt;Node16 -->
<g id="edge7" class="edge">
<title>Node18&#45;&gt;Node16</title>
<path fill="none" stroke="#191970" d="M335.3865,-102.4538C337.6549,-93.3803 340.25,-82.9998 342.0893,-75.6427"/>
<polygon fill="#191970" stroke="#191970" points="331.9685,-101.6952 332.9386,-112.2455 338.7595,-103.393 331.9685,-101.6952"/>
</g>
<!-- Node19 -->
<g id="node8" class="node">
<title>Node19</title>
<g id="a_node8"><a xlink:href="classBsaAccumulator.html" target="_top" xlink:title="BsaAccumulator">
<polygon fill="#ffffff" stroke="#000000" points="282.5,-168.5 282.5,-187.5 378.5,-187.5 378.5,-168.5 282.5,-168.5"/>
<text text-anchor="middle" x="330.5" y="-175.5" font-family="Helvetica,sans-Serif" font-size="10.00" fill="#000000">BsaAccumulator</text>
</a>
</g>
</g>
<!-- Node19&#45;&gt;Node18 -->
<g id="edge8" class="edge">
<title>Node19&#45;&gt;Node18</title>
<path fill="none" stroke="#191970" d="M330.5,-158.1575C330.5,-149.155 330.5,-138.9199 330.5,-131.6427"/>
<polygon fill="#191970" stroke="#191970" points="327.0001,-158.2455 330.5,-168.2455 334.0001,-158.2456 327.0001,-158.2455"/>
</g>
<!-- Node20 -->
<g id="node9" class="node">
<title>Node20</title>
<g id="a_node9"><a xlink:href="classBsaAxiInterconnectWrapper.html" target="_top" xlink:title="BsaAxiInterconnectWrapper">
<polygon fill="#ffffff" stroke="#000000" points="398.5,-112.5 398.5,-131.5 550.5,-131.5 550.5,-112.5 398.5,-112.5"/>
<text text-anchor="middle" x="474.5" y="-119.5" font-family="Helvetica,sans-Serif" font-size="10.00" fill="#000000">BsaAxiInterconnectWrapper</text>
</a>
</g>
</g>
<!-- Node20&#45;&gt;Node16 -->
<g id="edge9" class="edge">
<title>Node20&#45;&gt;Node16</title>
<path fill="none" stroke="#191970" d="M442.8898,-108.3833C419.2465,-98.1985 387.5124,-84.5284 366.5562,-75.5011"/>
<polygon fill="#191970" stroke="#191970" points="441.5834,-111.6314 452.1522,-112.3733 444.3528,-105.2025 441.5834,-111.6314"/>
</g>
<!-- Node21 -->
<g id="node10" class="node">
<title>Node21</title>
<g id="a_node10"><a xlink:href="classBldAxiStream.html" target="_top" xlink:title="BldAxiStream">
<polygon fill="#ffffff" stroke="#000000" points="569,-112.5 569,-131.5 652,-131.5 652,-112.5 569,-112.5"/>
<text text-anchor="middle" x="610.5" y="-119.5" font-family="Helvetica,sans-Serif" font-size="10.00" fill="#000000">BldAxiStream</text>
</a>
</g>
</g>
<!-- Node21&#45;&gt;Node16 -->
<g id="edge10" class="edge">
<title>Node21&#45;&gt;Node16</title>
<path fill="none" stroke="#191970" d="M559.1208,-111.1833C509.8656,-100.8138 436.2602,-85.3179 389.3225,-75.4363"/>
<polygon fill="#191970" stroke="#191970" points="558.4309,-114.6147 568.9375,-113.25 559.8731,-107.7649 558.4309,-114.6147"/>
</g>
<!-- Node22 -->
<g id="node11" class="node">
<title>Node22</title>
<g id="a_node11"><a xlink:href="classAmcCarrierDdrMem.html" target="_top" xlink:title="AmcCarrierDdrMem">
<polygon fill="#ffffff" stroke="#000000" points="407,-56.5 407,-75.5 520,-75.5 520,-56.5 407,-56.5"/>
<text text-anchor="middle" x="463.5" y="-63.5" font-family="Helvetica,sans-Serif" font-size="10.00" fill="#000000">AmcCarrierDdrMem</text>
</a>
</g>
</g>
<!-- Node22&#45;&gt;Node12 -->
<g id="edge11" class="edge">
<title>Node22&#45;&gt;Node12</title>
<path fill="none" stroke="#191970" d="M413.6148,-54.1125C370.348,-43.8021 308.5396,-29.0733 268.4654,-19.5237"/>
<polygon fill="#191970" stroke="#191970" points="412.8301,-57.5234 423.3691,-56.4369 414.4528,-50.7141 412.8301,-57.5234"/>
</g>
</g>
</svg>
