<?xml version="1.0" encoding="UTF-8" standalone="no"?>
<!DOCTYPE svg PUBLIC "-//W3C//DTD SVG 1.1//EN"
 "http://www.w3.org/Graphics/SVG/1.1/DTD/svg11.dtd">
<!-- Generated by graphviz version 2.40.1 (20161225.0304)
 -->
<!-- Title: AppMpsEncoder Pages: 1 -->
<svg width="352pt" height="140pt"
 viewBox="0.00 0.00 351.50 140.00" xmlns="http://www.w3.org/2000/svg" xmlns:xlink="http://www.w3.org/1999/xlink">
<g id="graph0" class="graph" transform="scale(1 1) rotate(0) translate(4 136)">
<title>AppMpsEncoder</title>
<polygon fill="#ffffff" stroke="transparent" points="-4,4 -4,-136 347.5,-136 347.5,4 -4,4"/>
<!-- Node10 -->
<g id="node1" class="node">
<title>Node10</title>
<polygon fill="#bfbfbf" stroke="#000000" points="157.5,-.5 157.5,-19.5 251.5,-19.5 251.5,-.5 157.5,-.5"/>
<text text-anchor="middle" x="204.5" y="-7.5" font-family="Helvetica,sans-Serif" font-size="10.00" fill="#000000">AppMpsEncoder</text>
</g>
<!-- Node11 -->
<g id="node2" class="node">
<title>Node11</title>
<g id="a_node2"><a xlink:href="classAppMpsReg.html" target="_top" xlink:title="AppMpsReg">
<polygon fill="#ffffff" stroke="#000000" points="71,-56.5 71,-75.5 144,-75.5 144,-56.5 71,-56.5"/>
<text text-anchor="middle" x="107.5" y="-63.5" font-family="Helvetica,sans-Serif" font-size="10.00" fill="#000000">AppMpsReg</text>
</a>
</g>
</g>
<!-- Node11&#45;&gt;Node10 -->
<g id="edge1" class="edge">
<title>Node11&#45;&gt;Node10</title>
<path fill="none" stroke="#191970" d="M133.4016,-51.0465C150.6609,-41.0824 172.8376,-28.2794 187.7975,-19.6427"/>
<polygon fill="#191970" stroke="#191970" points="131.3065,-48.2146 124.3961,-56.2455 134.8064,-54.2768 131.3065,-48.2146"/>
</g>
<!-- Node12 -->
<g id="node3" class="node">
<title>Node12</title>
<g id="a_node3"><a xlink:href="classAppMpsRegBase.html" target="_top" xlink:title="AppMpsRegBase">
<polygon fill="#ffffff" stroke="#000000" points="0,-112.5 0,-131.5 97,-131.5 97,-112.5 0,-112.5"/>
<text text-anchor="middle" x="48.5" y="-119.5" font-family="Helvetica,sans-Serif" font-size="10.00" fill="#000000">AppMpsRegBase</text>
</a>
</g>
</g>
<!-- Node12&#45;&gt;Node11 -->
<g id="edge2" class="edge">
<title>Node12&#45;&gt;Node11</title>
<path fill="none" stroke="#191970" d="M66.0307,-105.3607C76.2377,-95.6727 88.7469,-83.7995 97.3408,-75.6427"/>
<polygon fill="#191970" stroke="#191970" points="63.6206,-102.8227 58.777,-112.2455 68.4396,-107.8998 63.6206,-102.8227"/>
</g>
<!-- Node13 -->
<g id="node4" class="node">
<title>Node13</title>
<g id="a_node4"><a xlink:href="classAppMpsRegAppCh.html" target="_top" xlink:title="AppMpsRegAppCh">
<polygon fill="#ffffff" stroke="#000000" points="115.5,-112.5 115.5,-131.5 219.5,-131.5 219.5,-112.5 115.5,-112.5"/>
<text text-anchor="middle" x="167.5" y="-119.5" font-family="Helvetica,sans-Serif" font-size="10.00" fill="#000000">AppMpsRegAppCh</text>
</a>
</g>
</g>
<!-- Node13&#45;&gt;Node11 -->
<g id="edge3" class="edge">
<title>Node13&#45;&gt;Node11</title>
<path fill="none" stroke="#191970" d="M149.6722,-105.3607C139.2922,-95.6727 126.5709,-83.7995 117.8314,-75.6427"/>
<polygon fill="#191970" stroke="#191970" points="147.3501,-107.981 157.0488,-112.2455 152.1263,-102.8636 147.3501,-107.981"/>
</g>
<!-- Node14 -->
<g id="node5" class="node">
<title>Node14</title>
<g id="a_node5"><a xlink:href="classAppMpsSelect.html" target="_top" xlink:title="AppMpsSelect">
<polygon fill="#ffffff" stroke="#000000" points="162,-56.5 162,-75.5 247,-75.5 247,-56.5 162,-56.5"/>
<text text-anchor="middle" x="204.5" y="-63.5" font-family="Helvetica,sans-Serif" font-size="10.00" fill="#000000">AppMpsSelect</text>
</a>
</g>
</g>
<!-- Node14&#45;&gt;Node10 -->
<g id="edge4" class="edge">
<title>Node14&#45;&gt;Node10</title>
<path fill="none" stroke="#191970" d="M204.5,-46.1575C204.5,-37.155 204.5,-26.9199 204.5,-19.6427"/>
<polygon fill="#191970" stroke="#191970" points="201.0001,-46.2455 204.5,-56.2455 208.0001,-46.2456 201.0001,-46.2455"/>
</g>
<!-- Node15 -->
<g id="node6" class="node">
<title>Node15</title>
<g id="a_node6"><a xlink:href="classMpsMsgCore.html" target="_top" xlink:title="MpsMsgCore">
<polygon fill="#ffffff" stroke="#000000" points="265.5,-56.5 265.5,-75.5 343.5,-75.5 343.5,-56.5 265.5,-56.5"/>
<text text-anchor="middle" x="304.5" y="-63.5" font-family="Helvetica,sans-Serif" font-size="10.00" fill="#000000">MpsMsgCore</text>
</a>
</g>
</g>
<!-- Node15&#45;&gt;Node10 -->
<g id="edge5" class="edge">
<title>Node15&#45;&gt;Node10</title>
<path fill="none" stroke="#191970" d="M278.2902,-51.3225C260.4283,-41.3198 237.2845,-28.3593 221.7191,-19.6427"/>
<polygon fill="#191970" stroke="#191970" points="276.6461,-54.4132 287.0813,-56.2455 280.0664,-48.3057 276.6461,-54.4132"/>
</g>
</g>
</svg>
