<?xml version="1.0" encoding="UTF-8" standalone="no"?>
<!DOCTYPE svg PUBLIC "-//W3C//DTD SVG 1.1//EN"
 "http://www.w3.org/Graphics/SVG/1.1/DTD/svg11.dtd">
<!-- Generated by graphviz version 2.40.1 (20161225.0304)
 -->
<!-- Title: AmcCarrierCore Pages: 1 -->
<svg width="768pt" height="256pt"
 viewBox="0.00 0.00 768.00 256.00" xmlns="http://www.w3.org/2000/svg" xmlns:xlink="http://www.w3.org/1999/xlink">
<g id="graph0" class="graph" transform="scale(1 1) rotate(0) translate(4 252)">
<title>AmcCarrierCore</title>
<polygon fill="#ffffff" stroke="transparent" points="-4,4 -4,-252 764,-252 764,4 -4,4"/>
<!-- Node0 -->
<g id="node1" class="node">
<title>Node0</title>
<polygon fill="#bfbfbf" stroke="#000000" points="512,-152.5 512,-171.5 606,-171.5 606,-152.5 512,-152.5"/>
<text text-anchor="middle" x="559" y="-159.5" font-family="Helvetica,sans-Serif" font-size="10.00" fill="#000000">AmcCarrierCore</text>
</g>
<!-- Node16 -->
<g id="node17" class="node">
<title>Node16</title>
<g id="a_node17"><a xlink:href="classAmcCarrierCoreAdv.html" target="_top" xlink:title="AmcCarrierCoreAdv">
<polygon fill="#ffffff" stroke="#000000" points="644.5,-171.5 644.5,-190.5 757.5,-190.5 757.5,-171.5 644.5,-171.5"/>
<text text-anchor="middle" x="701" y="-178.5" font-family="Helvetica,sans-Serif" font-size="10.00" fill="#000000">AmcCarrierCoreAdv</text>
</a>
</g>
</g>
<!-- Node0&#45;&gt;Node16 -->
<g id="edge17" class="edge">
<title>Node0&#45;&gt;Node16</title>
<path fill="none" stroke="#191970" d="M616.4792,-169.6909C625.6575,-170.919 635.1489,-172.1889 644.3087,-173.4145"/>
<polygon fill="#191970" stroke="#191970" points="616.6598,-166.1839 606.2839,-168.3267 615.7314,-173.1221 616.6598,-166.1839"/>
</g>
<!-- Node17 -->
<g id="node18" class="node">
<title>Node17</title>
<g id="a_node18"><a xlink:href="classAmcCarrierCoreBase.html" target="_top" xlink:title="AmcCarrierCoreBase">
<polygon fill="#ffffff" stroke="#000000" points="642,-133.5 642,-152.5 760,-152.5 760,-133.5 642,-133.5"/>
<text text-anchor="middle" x="701" y="-140.5" font-family="Helvetica,sans-Serif" font-size="10.00" fill="#000000">AmcCarrierCoreBase</text>
</a>
</g>
</g>
<!-- Node0&#45;&gt;Node17 -->
<g id="edge18" class="edge">
<title>Node0&#45;&gt;Node17</title>
<path fill="none" stroke="#191970" d="M616.3459,-154.327C624.7293,-153.2052 633.3766,-152.0482 641.7962,-150.9216"/>
<polygon fill="#191970" stroke="#191970" points="615.7314,-150.8779 606.2839,-155.6733 616.6598,-157.8161 615.7314,-150.8779"/>
</g>
<!-- Node1 -->
<g id="node2" class="node">
<title>Node1</title>
<g id="a_node2"><a xlink:href="classAmcCarrierIbufGt.html" target="_top" xlink:title="AmcCarrierIbufGt">
<polygon fill="#ffffff" stroke="#000000" points="199,-228.5 199,-247.5 300,-247.5 300,-228.5 199,-228.5"/>
<text text-anchor="middle" x="249.5" y="-235.5" font-family="Helvetica,sans-Serif" font-size="10.00" fill="#000000">AmcCarrierIbufGt</text>
</a>
</g>
</g>
<!-- Node1&#45;&gt;Node0 -->
<g id="edge1" class="edge">
<title>Node1&#45;&gt;Node0</title>
<path fill="none" stroke="#191970" d="M310.3455,-241.2316C356.9935,-241.7493 422.2705,-238.1715 476,-219 505.3056,-208.5433 533.9852,-185.0708 548.7413,-171.7379"/>
<polygon fill="#191970" stroke="#191970" points="310.155,-237.7277 300.0942,-241.0488 310.0301,-244.7266 310.155,-237.7277"/>
</g>
<!-- Node9 -->
<g id="node10" class="node">
<title>Node9</title>
<g id="a_node10"><a xlink:href="classAmcCarrierTiming.html" target="_top" xlink:title="AmcCarrierTiming">
<polygon fill="#ffffff" stroke="#000000" points="367,-190.5 367,-209.5 472,-209.5 472,-190.5 367,-190.5"/>
<text text-anchor="middle" x="419.5" y="-197.5" font-family="Helvetica,sans-Serif" font-size="10.00" fill="#000000">AmcCarrierTiming</text>
</a>
</g>
</g>
<!-- Node1&#45;&gt;Node9 -->
<g id="edge10" class="edge">
<title>Node1&#45;&gt;Node9</title>
<path fill="none" stroke="#191970" d="M302.3981,-226.1757C326.365,-220.8184 354.3235,-214.5689 376.9103,-209.5201"/>
<polygon fill="#191970" stroke="#191970" points="301.3938,-222.8138 292.3982,-228.411 302.9209,-229.6452 301.3938,-222.8138"/>
</g>
<!-- Node2 -->
<g id="node3" class="node">
<title>Node2</title>
<g id="a_node3"><a xlink:href="classAmcCarrierEth.html" target="_top" xlink:title="AmcCarrierEth">
<polygon fill="#ffffff" stroke="#000000" points="376,-152.5 376,-171.5 463,-171.5 463,-152.5 376,-152.5"/>
<text text-anchor="middle" x="419.5" y="-159.5" font-family="Helvetica,sans-Serif" font-size="10.00" fill="#000000">AmcCarrierEth</text>
</a>
</g>
</g>
<!-- Node2&#45;&gt;Node0 -->
<g id="edge2" class="edge">
<title>Node2&#45;&gt;Node0</title>
<path fill="none" stroke="#191970" d="M473.5669,-162C486.0861,-162 499.3162,-162 511.5283,-162"/>
<polygon fill="#191970" stroke="#191970" points="473.256,-158.5001 463.2559,-162 473.2559,-165.5001 473.256,-158.5001"/>
</g>
<!-- Node3 -->
<g id="node4" class="node">
<title>Node3</title>
<g id="a_node4"><a xlink:href="classAmcCarrierXvcDebug.html" target="_top" xlink:title="AmcCarrierXvcDebug(2)">
<polygon fill="#ffffff" stroke="#000000" points="182.5,-190.5 182.5,-209.5 316.5,-209.5 316.5,-190.5 182.5,-190.5"/>
<text text-anchor="middle" x="249.5" y="-197.5" font-family="Helvetica,sans-Serif" font-size="10.00" fill="#000000">AmcCarrierXvcDebug(2)</text>
</a>
</g>
</g>
<!-- Node3&#45;&gt;Node2 -->
<g id="edge3" class="edge">
<title>Node3&#45;&gt;Node2</title>
<path fill="none" stroke="#191970" d="M302.3981,-188.1757C326.365,-182.8184 354.3235,-176.5689 376.9103,-171.5201"/>
<polygon fill="#191970" stroke="#191970" points="301.3938,-184.8138 292.3982,-190.411 302.9209,-191.6452 301.3938,-184.8138"/>
</g>
<!-- Node4 -->
<g id="node5" class="node">
<title>Node4</title>
<g id="a_node5"><a xlink:href="classUdpDebugBridge.html" target="_top" xlink:title="UdpDebugBridge">
<polygon fill="#ffffff" stroke="#000000" points="18.5,-190.5 18.5,-209.5 117.5,-209.5 117.5,-190.5 18.5,-190.5"/>
<text text-anchor="middle" x="68" y="-197.5" font-family="Helvetica,sans-Serif" font-size="10.00" fill="#000000">UdpDebugBridge</text>
</a>
</g>
</g>
<!-- Node4&#45;&gt;Node3 -->
<g id="edge4" class="edge">
<title>Node4&#45;&gt;Node3</title>
<path fill="none" stroke="#191970" d="M127.6594,-200C145.1345,-200 164.3591,-200 182.2707,-200"/>
<polygon fill="#191970" stroke="#191970" points="127.5957,-196.5001 117.5957,-200 127.5956,-203.5001 127.5957,-196.5001"/>
</g>
<!-- Node5 -->
<g id="node6" class="node">
<title>Node5</title>
<g id="a_node6"><a xlink:href="classAmcCarrierRssi.html" target="_top" xlink:title="AmcCarrierRssi(2)">
<polygon fill="#ffffff" stroke="#000000" points="197,-152.5 197,-171.5 302,-171.5 302,-152.5 197,-152.5"/>
<text text-anchor="middle" x="249.5" y="-159.5" font-family="Helvetica,sans-Serif" font-size="10.00" fill="#000000">AmcCarrierRssi(2)</text>
</a>
</g>
</g>
<!-- Node5&#45;&gt;Node2 -->
<g id="edge5" class="edge">
<title>Node5&#45;&gt;Node2</title>
<path fill="none" stroke="#191970" d="M312.513,-162C333.5677,-162 356.555,-162 375.807,-162"/>
<polygon fill="#191970" stroke="#191970" points="312.3572,-158.5001 302.3572,-162 312.3572,-165.5001 312.3572,-158.5001"/>
</g>
<!-- Node6 -->
<g id="node7" class="node">
<title>Node6</title>
<g id="a_node7"><a xlink:href="classAmcCarrierRssiObFifo.html" target="_top" xlink:title="AmcCarrierRssiObFifo(2)">
<polygon fill="#ffffff" stroke="#000000" points="0,-152.5 0,-171.5 136,-171.5 136,-152.5 0,-152.5"/>
<text text-anchor="middle" x="68" y="-159.5" font-family="Helvetica,sans-Serif" font-size="10.00" fill="#000000">AmcCarrierRssiObFifo(2)</text>
</a>
</g>
</g>
<!-- Node6&#45;&gt;Node5 -->
<g id="edge6" class="edge">
<title>Node6&#45;&gt;Node5</title>
<path fill="none" stroke="#191970" d="M146.1111,-162C163.2664,-162 181.0363,-162 196.9037,-162"/>
<polygon fill="#191970" stroke="#191970" points="146.1003,-158.5001 136.1003,-162 146.1003,-165.5001 146.1003,-158.5001"/>
</g>
<!-- Node7 -->
<g id="node8" class="node">
<title>Node7</title>
<g id="a_node8"><a xlink:href="classAmcCarrierRssiInterleave.html" target="_top" xlink:title="AmcCarrierRssiInterleave(2)">
<polygon fill="#ffffff" stroke="#000000" points="172,-114.5 172,-133.5 327,-133.5 327,-114.5 172,-114.5"/>
<text text-anchor="middle" x="249.5" y="-121.5" font-family="Helvetica,sans-Serif" font-size="10.00" fill="#000000">AmcCarrierRssiInterleave(2)</text>
</a>
</g>
</g>
<!-- Node7&#45;&gt;Node2 -->
<g id="edge7" class="edge">
<title>Node7&#45;&gt;Node2</title>
<path fill="none" stroke="#191970" d="M302.3981,-135.8243C326.365,-141.1816 354.3235,-147.4311 376.9103,-152.4799"/>
<polygon fill="#191970" stroke="#191970" points="302.9209,-132.3548 292.3982,-133.589 301.3938,-139.1862 302.9209,-132.3548"/>
</g>
<!-- Node8 -->
<g id="node9" class="node">
<title>Node8</title>
<g id="a_node9"><a xlink:href="classAmcCarrierRssiObFifo.html" target="_top" xlink:title="AmcCarrierRssiObFifo">
<polygon fill="#ffffff" stroke="#000000" points="7,-114.5 7,-133.5 129,-133.5 129,-114.5 7,-114.5"/>
<text text-anchor="middle" x="68" y="-121.5" font-family="Helvetica,sans-Serif" font-size="10.00" fill="#000000">AmcCarrierRssiObFifo</text>
</a>
</g>
</g>
<!-- Node8&#45;&gt;Node7 -->
<g id="edge8" class="edge">
<title>Node8&#45;&gt;Node7</title>
<path fill="none" stroke="#191970" d="M139.296,-124C149.9738,-124 161.0286,-124 171.8309,-124"/>
<polygon fill="#191970" stroke="#191970" points="139.1946,-120.5001 129.1946,-124 139.1946,-127.5001 139.1946,-120.5001"/>
</g>
<!-- Node9&#45;&gt;Node0 -->
<g id="edge9" class="edge">
<title>Node9&#45;&gt;Node0</title>
<path fill="none" stroke="#191970" d="M464.4564,-187.7538C483.6848,-182.516 505.8031,-176.4909 523.8095,-171.5859"/>
<polygon fill="#191970" stroke="#191970" points="463.4303,-184.4057 454.7017,-190.411 465.2701,-191.1596 463.4303,-184.4057"/>
</g>
<!-- Node10 -->
<g id="node11" class="node">
<title>Node10</title>
<g id="a_node11"><a xlink:href="classAmcCarrierBsa.html" target="_top" xlink:title="AmcCarrierBsa">
<polygon fill="#ffffff" stroke="#000000" points="375,-76.5 375,-95.5 464,-95.5 464,-76.5 375,-76.5"/>
<text text-anchor="middle" x="419.5" y="-83.5" font-family="Helvetica,sans-Serif" font-size="10.00" fill="#000000">AmcCarrierBsa</text>
</a>
</g>
</g>
<!-- Node10&#45;&gt;Node0 -->
<g id="edge11" class="edge">
<title>Node10&#45;&gt;Node0</title>
<path fill="none" stroke="#191970" d="M446.0328,-100.4551C474.0577,-115.7232 517.4443,-139.3603 541.4757,-152.4527"/>
<polygon fill="#191970" stroke="#191970" points="447.6236,-97.3361 437.1678,-95.6255 444.2747,-103.4831 447.6236,-97.3361"/>
</g>
<!-- Node11 -->
<g id="node12" class="node">
<title>Node11</title>
<g id="a_node12"><a xlink:href="classBsaWaveformEngine.html" target="_top" xlink:title="BsaWaveformEngine(2)">
<polygon fill="#ffffff" stroke="#000000" points="184,-76.5 184,-95.5 315,-95.5 315,-76.5 184,-76.5"/>
<text text-anchor="middle" x="249.5" y="-83.5" font-family="Helvetica,sans-Serif" font-size="10.00" fill="#000000">BsaWaveformEngine(2)</text>
</a>
</g>
</g>
<!-- Node11&#45;&gt;Node10 -->
<g id="edge12" class="edge">
<title>Node11&#45;&gt;Node10</title>
<path fill="none" stroke="#191970" d="M325.6452,-86C342.5148,-86 359.8547,-86 374.9681,-86"/>
<polygon fill="#191970" stroke="#191970" points="325.2265,-82.5001 315.2264,-86 325.2264,-89.5001 325.2265,-82.5001"/>
</g>
<!-- Node12 -->
<g id="node13" class="node">
<title>Node12</title>
<g id="a_node13"><a xlink:href="classBsaBufferControl.html" target="_top" xlink:title="BsaBufferControl">
<polygon fill="#ffffff" stroke="#000000" points="200,-38.5 200,-57.5 299,-57.5 299,-38.5 200,-38.5"/>
<text text-anchor="middle" x="249.5" y="-45.5" font-family="Helvetica,sans-Serif" font-size="10.00" fill="#000000">BsaBufferControl</text>
</a>
</g>
</g>
<!-- Node12&#45;&gt;Node10 -->
<g id="edge13" class="edge">
<title>Node12&#45;&gt;Node10</title>
<path fill="none" stroke="#191970" d="M302.3981,-59.8243C326.365,-65.1816 354.3235,-71.4311 376.9103,-76.4799"/>
<polygon fill="#191970" stroke="#191970" points="302.9209,-56.3548 292.3982,-57.589 301.3938,-63.1862 302.9209,-56.3548"/>
</g>
<!-- Node13 -->
<g id="node14" class="node">
<title>Node13</title>
<g id="a_node14"><a xlink:href="classBsaAccumulator.html" target="_top" xlink:title="BsaAccumulator">
<polygon fill="#ffffff" stroke="#000000" points="20,-38.5 20,-57.5 116,-57.5 116,-38.5 20,-38.5"/>
<text text-anchor="middle" x="68" y="-45.5" font-family="Helvetica,sans-Serif" font-size="10.00" fill="#000000">BsaAccumulator</text>
</a>
</g>
</g>
<!-- Node13&#45;&gt;Node12 -->
<g id="edge14" class="edge">
<title>Node13&#45;&gt;Node12</title>
<path fill="none" stroke="#191970" d="M126.4249,-48C150.0978,-48 177.1465,-48 199.8462,-48"/>
<polygon fill="#191970" stroke="#191970" points="126.1622,-44.5001 116.1622,-48 126.1621,-51.5001 126.1622,-44.5001"/>
</g>
<!-- Node14 -->
<g id="node15" class="node">
<title>Node14</title>
<g id="a_node15"><a xlink:href="classBsaAxiInterconnectWrapper.html" target="_top" xlink:title="BsaAxiInterconnectWrapper">
<polygon fill="#ffffff" stroke="#000000" points="173.5,-.5 173.5,-19.5 325.5,-19.5 325.5,-.5 173.5,-.5"/>
<text text-anchor="middle" x="249.5" y="-7.5" font-family="Helvetica,sans-Serif" font-size="10.00" fill="#000000">BsaAxiInterconnectWrapper</text>
</a>
</g>
</g>
<!-- Node14&#45;&gt;Node10 -->
<g id="edge15" class="edge">
<title>Node14&#45;&gt;Node10</title>
<path fill="none" stroke="#191970" d="M314.718,-23.0067C318.9857,-24.7592 323.1222,-26.7466 327,-29 347.1147,-40.689 343.3937,-54.4769 363,-67 368.9306,-70.7881 375.6971,-73.9043 382.4369,-76.4383"/>
<polygon fill="#191970" stroke="#191970" points="315.809,-19.679 305.2151,-19.533 313.4057,-26.2535 315.809,-19.679"/>
</g>
<!-- Node15 -->
<g id="node16" class="node">
<title>Node15</title>
<g id="a_node16"><a xlink:href="classAmcCarrierDdrMem.html" target="_top" xlink:title="AmcCarrierDdrMem">
<polygon fill="#ffffff" stroke="#000000" points="363,-38.5 363,-57.5 476,-57.5 476,-38.5 363,-38.5"/>
<text text-anchor="middle" x="419.5" y="-45.5" font-family="Helvetica,sans-Serif" font-size="10.00" fill="#000000">AmcCarrierDdrMem</text>
</a>
</g>
</g>
<!-- Node15&#45;&gt;Node0 -->
<g id="edge16" class="edge">
<title>Node15&#45;&gt;Node0</title>
<path fill="none" stroke="#191970" d="M466.6635,-61.6722C469.9218,-63.2737 473.0707,-65.0448 476,-67 511.5214,-90.7094 541.0861,-133.4195 553.1586,-152.4273"/>
<polygon fill="#191970" stroke="#191970" points="467.8487,-58.3712 457.2822,-57.5964 465.0592,-64.7914 467.8487,-58.3712"/>
</g>
</g>
</svg>
