<?xml version="1.0" encoding="UTF-8" standalone="no"?>
<!DOCTYPE svg PUBLIC "-//W3C//DTD SVG 1.1//EN"
 "http://www.w3.org/Graphics/SVG/1.1/DTD/svg11.dtd">
<!-- Generated by graphviz version 2.40.1 (20161225.0304)
 -->
<!-- Title: AmcMrLlrfUpConvertCore Pages: 1 -->
<!--zoomable 140 -->
<svg id="main" version="1.1" xmlns="http://www.w3.org/2000/svg" xmlns:xlink="http://www.w3.org/1999/xlink" xml:space="preserve" onload="init(evt)">
<style type="text/css"><![CDATA[
.edge:hover path { stroke: red; }
.edge:hover polygon { stroke: red; fill: red; }
]]></style>
<script type="text/javascript"><![CDATA[
var edges = document.getElementsByTagName('g');
if (edges && edges.length) {
  for (var i=0;i<edges.length;i++) {
    if (edges[i].id.substr(0,4)=='edge') {
      edges[i].setAttribute('class','edge');
    }
  }
}
]]></script>
        <defs>
                <circle id="rim" cx="0" cy="0" r="7"/>
                <circle id="rim2" cx="0" cy="0" r="3.5"/>
                <g id="zoomPlus">
                        <use xlink:href="#rim" fill="#404040">
                                <set attributeName="fill" to="#808080" begin="zoomplus.mouseover" end="zoomplus.mouseout"/>
                        </use>
                        <path d="M-4,0h8M0,-4v8" fill="none" stroke="white" stroke-width="1.5" pointer-events="none"/>
                </g>
                <g id="zoomMin">
                        <use xlink:href="#rim" fill="#404040">
                                <set attributeName="fill" to="#808080" begin="zoomminus.mouseover" end="zoomminus.mouseout"/>
                        </use>
                        <path d="M-4,0h8" fill="none" stroke="white" stroke-width="1.5" pointer-events="none"/>
                </g>
                <g id="dirArrow">
                        <path fill="none" stroke="white" stroke-width="1.5" d="M0,-3.0v7 M-2.5,-0.5L0,-3.0L2.5,-0.5"/>
                </g>
               <g id="resetDef">
                       <use xlink:href="#rim2" fill="#404040">
                               <set attributeName="fill" to="#808080" begin="reset.mouseover" end="reset.mouseout"/>
                       </use>
               </g>
        </defs>

<script type="text/javascript">
var viewWidth = 510;
var viewHeight = 140;
var sectionId = 'dynsection-1';
</script>
<script xlink:href="svgpan.js"/>
<svg id="graph" class="graph">
<g id="viewport">
<title>AmcMrLlrfUpConvertCore</title>
<polygon fill="#ffffff" stroke="transparent" points="-4,4 -4,-136 506,-136 506,4 -4,4"/>
<!-- Node9 -->
<g id="node1" class="node">
<title>Node9</title>
<polygon fill="#bfbfbf" stroke="#000000" points="214.5,-.5 214.5,-19.5 354.5,-19.5 354.5,-.5 214.5,-.5"/>
<text text-anchor="middle" x="284.5" y="-7.5" font-family="Helvetica,sans-Serif" font-size="10.00" fill="#000000">AmcMrLlrfUpConvertCore</text>
</g>
<!-- Node10 -->
<g id="node2" class="node">
<title>Node10</title>
<g id="a_node2"><a xlink:href="classAmcMrLlrfUpConvertMapping.html" target="_top" xlink:title="AmcMrLlrfUpConvertMapping">
<polygon fill="#ffffff" stroke="#000000" points="0,-56.5 0,-75.5 159,-75.5 159,-56.5 0,-56.5"/>
<text text-anchor="middle" x="79.5" y="-63.5" font-family="Helvetica,sans-Serif" font-size="10.00" fill="#000000">AmcMrLlrfUpConvertMapping</text>
</a>
</g>
</g>
<!-- Node10&#45;&gt;Node9 -->
<g id="edge1" class="edge">
<title>Node10&#45;&gt;Node9</title>
<path fill="none" stroke="#191970" d="M124.454,-53.7199C162.1487,-43.4228 215.2041,-28.9296 249.7191,-19.5011"/>
<polygon fill="#191970" stroke="#191970" points="123.465,-50.3617 114.7408,-56.3733 125.3096,-57.1143 123.465,-50.3617"/>
</g>
<!-- Node11 -->
<g id="node3" class="node">
<title>Node11</title>
<g id="a_node3"><a xlink:href="classJesdSyncIn.html" target="_top" xlink:title="JesdSyncIn(2)">
<polygon fill="#ffffff" stroke="#000000" points="13,-112.5 13,-131.5 96,-131.5 96,-112.5 13,-112.5"/>
<text text-anchor="middle" x="54.5" y="-119.5" font-family="Helvetica,sans-Serif" font-size="10.00" fill="#000000">JesdSyncIn(2)</text>
</a>
</g>
</g>
<!-- Node11&#45;&gt;Node10 -->
<g id="edge2" class="edge">
<title>Node11&#45;&gt;Node10</title>
<path fill="none" stroke="#191970" d="M62.9626,-103.0437C67.0745,-93.8331 71.8394,-83.1598 75.1952,-75.6427"/>
<polygon fill="#191970" stroke="#191970" points="59.7352,-101.6874 58.8547,-112.2455 66.1272,-104.541 59.7352,-101.6874"/>
</g>
<!-- Node12 -->
<g id="node4" class="node">
<title>Node12</title>
<g id="a_node4"><a xlink:href="classJesdSyncOut.html" target="_top" xlink:title="JesdSyncOut(6)">
<polygon fill="#ffffff" stroke="#000000" points="114,-112.5 114,-131.5 205,-131.5 205,-112.5 114,-112.5"/>
<text text-anchor="middle" x="159.5" y="-119.5" font-family="Helvetica,sans-Serif" font-size="10.00" fill="#000000">JesdSyncOut(6)</text>
</a>
</g>
</g>
<!-- Node12&#45;&gt;Node10 -->
<g id="edge3" class="edge">
<title>Node12&#45;&gt;Node10</title>
<path fill="none" stroke="#191970" d="M137.3429,-106.49C123.228,-96.6096 105.3849,-84.1194 93.2752,-75.6427"/>
<polygon fill="#191970" stroke="#191970" points="135.3656,-109.3782 145.5651,-112.2455 139.3799,-103.6436 135.3656,-109.3782"/>
</g>
<!-- Node13 -->
<g id="node5" class="node">
<title>Node13</title>
<g id="a_node5"><a xlink:href="classAxiSerAttnMaster.html" target="_top" xlink:title="AxiSerAttnMaster">
<polygon fill="#ffffff" stroke="#000000" points="177,-56.5 177,-75.5 278,-75.5 278,-56.5 177,-56.5"/>
<text text-anchor="middle" x="227.5" y="-63.5" font-family="Helvetica,sans-Serif" font-size="10.00" fill="#000000">AxiSerAttnMaster</text>
</a>
</g>
</g>
<!-- Node13&#45;&gt;Node9 -->
<g id="edge4" class="edge">
<title>Node13&#45;&gt;Node9</title>
<path fill="none" stroke="#191970" d="M244.7271,-49.0751C254.5341,-39.4402 266.464,-27.7196 274.6851,-19.6427"/>
<polygon fill="#191970" stroke="#191970" points="242.1091,-46.7406 237.4286,-56.2455 247.0149,-51.734 242.1091,-46.7406"/>
</g>
<!-- Node14 -->
<g id="node6" class="node">
<title>Node14</title>
<g id="a_node6"><a xlink:href="classLvdsDacSigGen.html" target="_top" xlink:title="LvdsDacSigGen">
<polygon fill="#ffffff" stroke="#000000" points="296.5,-56.5 296.5,-75.5 388.5,-75.5 388.5,-56.5 296.5,-56.5"/>
<text text-anchor="middle" x="342.5" y="-63.5" font-family="Helvetica,sans-Serif" font-size="10.00" fill="#000000">LvdsDacSigGen</text>
</a>
</g>
</g>
<!-- Node14&#45;&gt;Node9 -->
<g id="edge5" class="edge">
<title>Node14&#45;&gt;Node9</title>
<path fill="none" stroke="#191970" d="M324.9707,-49.0751C314.9917,-39.4402 302.8524,-27.7196 294.4871,-19.6427"/>
<polygon fill="#191970" stroke="#191970" points="322.772,-51.8175 332.3972,-56.2455 327.6342,-46.7817 322.772,-51.8175"/>
</g>
<!-- Node15 -->
<g id="node7" class="node">
<title>Node15</title>
<g id="a_node7"><a xlink:href="classLvdsDacRegItf.html" target="_top" xlink:title="LvdsDacRegItf">
<polygon fill="#ffffff" stroke="#000000" points="261.5,-112.5 261.5,-131.5 347.5,-131.5 347.5,-112.5 261.5,-112.5"/>
<text text-anchor="middle" x="304.5" y="-119.5" font-family="Helvetica,sans-Serif" font-size="10.00" fill="#000000">LvdsDacRegItf</text>
</a>
</g>
</g>
<!-- Node15&#45;&gt;Node14 -->
<g id="edge6" class="edge">
<title>Node15&#45;&gt;Node14</title>
<path fill="none" stroke="#191970" d="M316.7679,-103.9209C323.1488,-94.5176 330.6931,-83.3997 335.9568,-75.6427"/>
<polygon fill="#191970" stroke="#191970" points="313.838,-102.0055 311.1191,-112.2455 319.6303,-105.936 313.838,-102.0055"/>
</g>
<!-- Node16 -->
<g id="node8" class="node">
<title>Node16</title>
<g id="a_node8"><a xlink:href="classLvdsDacLane.html" target="_top" xlink:title="LvdsDacLane">
<polygon fill="#ffffff" stroke="#000000" points="366,-112.5 366,-131.5 447,-131.5 447,-112.5 366,-112.5"/>
<text text-anchor="middle" x="406.5" y="-119.5" font-family="Helvetica,sans-Serif" font-size="10.00" fill="#000000">LvdsDacLane</text>
</a>
</g>
</g>
<!-- Node16&#45;&gt;Node14 -->
<g id="edge7" class="edge">
<title>Node16&#45;&gt;Node14</title>
<path fill="none" stroke="#191970" d="M387.8086,-105.645C376.6781,-95.9058 362.9337,-83.8795 353.5202,-75.6427"/>
<polygon fill="#191970" stroke="#191970" points="385.5215,-108.2945 395.3521,-112.2455 390.131,-103.0264 385.5215,-108.2945"/>
</g>
<!-- Node17 -->
<g id="node9" class="node">
<title>Node17</title>
<g id="a_node9"><a xlink:href="classOutputTapDelay.html" target="_top" xlink:title="OutputTapDelay">
<polygon fill="#ffffff" stroke="#000000" points="407,-56.5 407,-75.5 502,-75.5 502,-56.5 407,-56.5"/>
<text text-anchor="middle" x="454.5" y="-63.5" font-family="Helvetica,sans-Serif" font-size="10.00" fill="#000000">OutputTapDelay</text>
</a>
</g>
</g>
<!-- Node17&#45;&gt;Node9 -->
<g id="edge8" class="edge">
<title>Node17&#45;&gt;Node9</title>
<path fill="none" stroke="#191970" d="M415.614,-53.1905C384.4688,-42.9309 341.4777,-28.7691 313.3427,-19.5011"/>
<polygon fill="#191970" stroke="#191970" points="414.6829,-56.5687 425.276,-56.3733 416.8731,-49.9202 414.6829,-56.5687"/>
</g>
</g>
</svg>
        <g id="navigator" transform="translate(0 0)" fill="#404254">
                <rect fill="#f2f5e9" fill-opacity="0.5" stroke="#606060" stroke-width=".5" x="0" y="0" width="60" height="60"/>
                <use id="zoomplus" xlink:href="#zoomPlus" x="17" y="9" onmousedown="handleZoom(evt,'in')"/>
                <use id="zoomminus" xlink:href="#zoomMin" x="42" y="9" onmousedown="handleZoom(evt,'out')"/>
                <use id="reset" xlink:href="#resetDef" x="30" y="36" onmousedown="handleReset()"/>
                <g id="arrowUp" xlink:href="#dirArrow" transform="translate(30 24)" onmousedown="handlePan(0,-1)">
                  <use xlink:href="#rim" fill="#404040">
                        <set attributeName="fill" to="#808080" begin="arrowUp.mouseover" end="arrowUp.mouseout"/>
                  </use>
                  <path fill="none" stroke="white" stroke-width="1.5" d="M0,-3.0v7 M-2.5,-0.5L0,-3.0L2.5,-0.5"/>
                </g>
                <g id="arrowRight" xlink:href="#dirArrow" transform="rotate(90) translate(36 -43)" onmousedown="handlePan(1,0)">
                  <use xlink:href="#rim" fill="#404040">
                        <set attributeName="fill" to="#808080" begin="arrowRight.mouseover" end="arrowRight.mouseout"/>
                  </use>
                  <path fill="none" stroke="white" stroke-width="1.5" d="M0,-3.0v7 M-2.5,-0.5L0,-3.0L2.5,-0.5"/>
                </g>
                <g id="arrowDown" xlink:href="#dirArrow" transform="rotate(180) translate(-30 -48)" onmousedown="handlePan(0,1)">
                  <use xlink:href="#rim" fill="#404040">
                        <set attributeName="fill" to="#808080" begin="arrowDown.mouseover" end="arrowDown.mouseout"/>
                  </use>
                  <path fill="none" stroke="white" stroke-width="1.5" d="M0,-3.0v7 M-2.5,-0.5L0,-3.0L2.5,-0.5"/>
                </g>
                <g id="arrowLeft" xlink:href="#dirArrow" transform="rotate(270) translate(-36 17)" onmousedown="handlePan(-1,0)">
                  <use xlink:href="#rim" fill="#404040">
                        <set attributeName="fill" to="#808080" begin="arrowLeft.mouseover" end="arrowLeft.mouseout"/>
                  </use>
                  <path fill="none" stroke="white" stroke-width="1.5" d="M0,-3.0v7 M-2.5,-0.5L0,-3.0L2.5,-0.5"/>
                </g>
        </g>
        <svg viewBox="0 0 15 15" width="100%" height="30px" preserveAspectRatio="xMaxYMin meet">
         <g id="arrow_out" transform="scale(0.3 0.3)">
          <a xlink:href="classAmcMrLlrfUpConvertCore__coll__graph_org.svg" target="_base">
           <rect id="button" ry="5" rx="5" y="6" x="6" height="38" width="38"
                fill="#f2f5e9" fill-opacity="0.5" stroke="#606060" stroke-width="1.0"/>
           <path id="arrow"
             d="M 11.500037,31.436501 C 11.940474,20.09759 22.043105,11.32322 32.158766,21.979434 L 37.068811,17.246167 C 37.068811,17.246167 37.088388,32 37.088388,32 L 22.160133,31.978069 C 22.160133,31.978069 26.997745,27.140456 26.997745,27.140456 C 18.528582,18.264221 13.291696,25.230495 11.500037,31.436501 z"
             style="fill:#404040;"/>
          </a>
         </g>
        </svg>
</svg>
