<?xml version="1.0" encoding="UTF-8" standalone="no"?>
<!DOCTYPE svg PUBLIC "-//W3C//DTD SVG 1.1//EN"
 "http://www.w3.org/Graphics/SVG/1.1/DTD/svg11.dtd">
<!-- Generated by graphviz version 2.43.0 (0)
 -->
<!-- Title: DaqMuxV2Tb Pages: 1 -->
<svg width="299pt" height="196pt"
 viewBox="0.00 0.00 299.00 196.00" xmlns="http://www.w3.org/2000/svg" xmlns:xlink="http://www.w3.org/1999/xlink">
<g id="graph0" class="graph" transform="scale(1 1) rotate(0) translate(4 192)">
<title>DaqMuxV2Tb</title>
<polygon fill="white" stroke="transparent" points="-4,4 -4,-192 295,-192 295,4 -4,4"/>
<!-- Node1 -->
<g id="node1" class="node">
<title>Node1</title>
<g id="a_node1"><a xlink:title=" ">
<polygon fill="#bfbfbf" stroke="black" points="76.5,-0.5 76.5,-19.5 158.5,-19.5 158.5,-0.5 76.5,-0.5"/>
<text text-anchor="middle" x="117.5" y="-7.5" font-family="Helvetica,sans-Serif" font-size="10.00">DaqMuxV2Tb</text>
</a>
</g>
</g>
<!-- Node2 -->
<g id="node2" class="node">
<title>Node2</title>
<g id="a_node2"><a xlink:href="classDaqMuxV2.html" target="_top" xlink:title=" ">
<polygon fill="white" stroke="black" points="82.5,-56.5 82.5,-75.5 152.5,-75.5 152.5,-56.5 82.5,-56.5"/>
<text text-anchor="middle" x="117.5" y="-63.5" font-family="Helvetica,sans-Serif" font-size="10.00">DaqMuxV2</text>
</a>
</g>
</g>
<!-- Node2&#45;&gt;Node1 -->
<g id="edge1" class="edge">
<title>Node2&#45;&gt;Node1</title>
<path fill="none" stroke="midnightblue" d="M117.5,-45.8C117.5,-36.91 117.5,-26.78 117.5,-19.75"/>
<polygon fill="midnightblue" stroke="midnightblue" points="114,-46.08 117.5,-56.08 121,-46.08 114,-46.08"/>
</g>
<!-- Node3 -->
<g id="node3" class="node">
<title>Node3</title>
<g id="a_node3"><a xlink:href="classDaqRegItf.html" target="_top" xlink:title=" ">
<polygon fill="white" stroke="black" points="0,-112.5 0,-131.5 65,-131.5 65,-112.5 0,-112.5"/>
<text text-anchor="middle" x="32.5" y="-119.5" font-family="Helvetica,sans-Serif" font-size="10.00">DaqRegItf</text>
</a>
</g>
</g>
<!-- Node3&#45;&gt;Node2 -->
<g id="edge2" class="edge">
<title>Node3&#45;&gt;Node2</title>
<path fill="none" stroke="midnightblue" d="M54.69,-106.9C70.28,-97 90.63,-84.07 103.88,-75.65"/>
<polygon fill="midnightblue" stroke="midnightblue" points="52.72,-104.01 46.16,-112.32 56.47,-109.92 52.72,-104.01"/>
</g>
<!-- Node4 -->
<g id="node4" class="node">
<title>Node4</title>
<g id="a_node4"><a xlink:href="classDaqTrigger.html" target="_top" xlink:title=" ">
<polygon fill="white" stroke="black" points="83,-112.5 83,-131.5 152,-131.5 152,-112.5 83,-112.5"/>
<text text-anchor="middle" x="117.5" y="-119.5" font-family="Helvetica,sans-Serif" font-size="10.00">DaqTrigger</text>
</a>
</g>
</g>
<!-- Node4&#45;&gt;Node2 -->
<g id="edge3" class="edge">
<title>Node4&#45;&gt;Node2</title>
<path fill="none" stroke="midnightblue" d="M117.5,-101.8C117.5,-92.91 117.5,-82.78 117.5,-75.75"/>
<polygon fill="midnightblue" stroke="midnightblue" points="114,-102.08 117.5,-112.08 121,-102.08 114,-102.08"/>
</g>
<!-- Node5 -->
<g id="node5" class="node">
<title>Node5</title>
<g id="a_node5"><a xlink:href="classDaqLane.html" target="_top" xlink:title=" ">
<polygon fill="white" stroke="black" points="170,-112.5 170,-131.5 229,-131.5 229,-112.5 170,-112.5"/>
<text text-anchor="middle" x="199.5" y="-119.5" font-family="Helvetica,sans-Serif" font-size="10.00">DaqLane</text>
</a>
</g>
</g>
<!-- Node5&#45;&gt;Node2 -->
<g id="edge4" class="edge">
<title>Node5&#45;&gt;Node2</title>
<path fill="none" stroke="midnightblue" d="M177.67,-106.62C162.69,-96.76 143.3,-83.99 130.64,-75.65"/>
<polygon fill="midnightblue" stroke="midnightblue" points="176.05,-109.75 186.33,-112.32 179.9,-103.9 176.05,-109.75"/>
</g>
<!-- Node6 -->
<g id="node6" class="node">
<title>Node6</title>
<g id="a_node6"><a xlink:href="classDaqTestSig.html" target="_top" xlink:title=" ">
<polygon fill="white" stroke="black" points="115,-168.5 115,-187.5 186,-187.5 186,-168.5 115,-168.5"/>
<text text-anchor="middle" x="150.5" y="-175.5" font-family="Helvetica,sans-Serif" font-size="10.00">DaqTestSig</text>
</a>
</g>
</g>
<!-- Node6&#45;&gt;Node5 -->
<g id="edge5" class="edge">
<title>Node6&#45;&gt;Node5</title>
<path fill="none" stroke="midnightblue" d="M165.53,-160.43C174.12,-150.97 184.54,-139.48 191.56,-131.75"/>
<polygon fill="midnightblue" stroke="midnightblue" points="162.72,-158.33 158.59,-168.08 167.9,-163.03 162.72,-158.33"/>
</g>
<!-- Node7 -->
<g id="node7" class="node">
<title>Node7</title>
<g id="a_node7"><a xlink:href="classDaqDecimator.html" target="_top" xlink:title=" ">
<polygon fill="white" stroke="black" points="204,-168.5 204,-187.5 291,-187.5 291,-168.5 204,-168.5"/>
<text text-anchor="middle" x="247.5" y="-175.5" font-family="Helvetica,sans-Serif" font-size="10.00">DaqDecimator</text>
</a>
</g>
</g>
<!-- Node7&#45;&gt;Node5 -->
<g id="edge6" class="edge">
<title>Node7&#45;&gt;Node5</title>
<path fill="none" stroke="midnightblue" d="M232.77,-160.43C224.36,-150.97 214.15,-139.48 207.28,-131.75"/>
<polygon fill="midnightblue" stroke="midnightblue" points="230.31,-162.93 239.57,-168.08 235.55,-158.28 230.31,-162.93"/>
</g>
</g>
</svg>
