<?xml version="1.0" encoding="UTF-8" standalone="no"?>
<!DOCTYPE svg PUBLIC "-//W3C//DTD SVG 1.1//EN"
 "http://www.w3.org/Graphics/SVG/1.1/DTD/svg11.dtd">
<!-- Generated by graphviz version 2.43.0 (0)
 -->
<!-- Title: JesdSyncOut Pages: 1 -->
<svg width="501pt" height="294pt"
 viewBox="0.00 0.00 501.00 294.00" xmlns="http://www.w3.org/2000/svg" xmlns:xlink="http://www.w3.org/1999/xlink">
<g id="graph0" class="graph" transform="scale(1 1) rotate(0) translate(4 290)">
<title>JesdSyncOut</title>
<polygon fill="white" stroke="transparent" points="-4,4 -4,-290 497,-290 497,4 -4,4"/>
<!-- Node1 -->
<g id="node1" class="node">
<title>Node1</title>
<g id="a_node1"><a xlink:title=" ">
<polygon fill="#bfbfbf" stroke="black" points="0,-133.5 0,-152.5 77,-152.5 77,-133.5 0,-133.5"/>
<text text-anchor="middle" x="38.5" y="-140.5" font-family="Helvetica,sans-Serif" font-size="10.00">JesdSyncOut</text>
</a>
</g>
</g>
<!-- Node2 -->
<g id="node2" class="node">
<title>Node2</title>
<g id="a_node2"><a xlink:href="classAmcCryoCore.html" target="_top" xlink:title=" ">
<polygon fill="white" stroke="black" points="164.5,-266.5 164.5,-285.5 247.5,-285.5 247.5,-266.5 164.5,-266.5"/>
<text text-anchor="middle" x="206" y="-273.5" font-family="Helvetica,sans-Serif" font-size="10.00">AmcCryoCore</text>
</a>
</g>
</g>
<!-- Node1&#45;&gt;Node2 -->
<g id="edge1" class="edge">
<title>Node1&#45;&gt;Node2</title>
<path fill="none" stroke="midnightblue" d="M46.42,-162.28C56.73,-188.13 78.69,-233.48 113,-257 127.93,-267.24 147.21,-272.17 164.26,-274.47"/>
<polygon fill="midnightblue" stroke="midnightblue" points="49.64,-160.92 42.81,-152.82 43.1,-163.41 49.64,-160.92"/>
</g>
<!-- Node4 -->
<g id="node4" class="node">
<title>Node4</title>
<g id="a_node4"><a xlink:href="classAmcCryoDemoCore.html" target="_top" xlink:title=" ">
<polygon fill="white" stroke="black" points="149.5,-228.5 149.5,-247.5 262.5,-247.5 262.5,-228.5 149.5,-228.5"/>
<text text-anchor="middle" x="206" y="-235.5" font-family="Helvetica,sans-Serif" font-size="10.00">AmcCryoDemoCore</text>
</a>
</g>
</g>
<!-- Node1&#45;&gt;Node4 -->
<g id="edge3" class="edge">
<title>Node1&#45;&gt;Node4</title>
<path fill="none" stroke="midnightblue" d="M51.88,-161.04C64.96,-178.67 87.25,-204.84 113,-219 124,-225.05 136.71,-229.18 149.1,-232"/>
<polygon fill="midnightblue" stroke="midnightblue" points="54.58,-158.8 45.9,-152.72 48.89,-162.88 54.58,-158.8"/>
</g>
<!-- Node6 -->
<g id="node6" class="node">
<title>Node6</title>
<g id="a_node6"><a xlink:href="classAmcGenericAdcDacCore.html" target="_top" xlink:title=" ">
<polygon fill="white" stroke="black" points="138.5,-190.5 138.5,-209.5 273.5,-209.5 273.5,-190.5 138.5,-190.5"/>
<text text-anchor="middle" x="206" y="-197.5" font-family="Helvetica,sans-Serif" font-size="10.00">AmcGenericAdcDacCore</text>
</a>
</g>
</g>
<!-- Node1&#45;&gt;Node6 -->
<g id="edge5" class="edge">
<title>Node1&#45;&gt;Node6</title>
<path fill="none" stroke="midnightblue" d="M63.93,-157.78C77.88,-165.67 95.95,-174.96 113,-181 123.61,-184.76 135.18,-187.87 146.43,-190.41"/>
<polygon fill="midnightblue" stroke="midnightblue" points="65.4,-154.59 54.99,-152.61 61.89,-160.65 65.4,-154.59"/>
</g>
<!-- Node8 -->
<g id="node8" class="node">
<title>Node8</title>
<g id="a_node8"><a xlink:href="classAmcMicrowaveMuxCore.html" target="_top" xlink:title=" ">
<polygon fill="white" stroke="black" points="138.5,-152.5 138.5,-171.5 273.5,-171.5 273.5,-152.5 138.5,-152.5"/>
<text text-anchor="middle" x="206" y="-159.5" font-family="Helvetica,sans-Serif" font-size="10.00">AmcMicrowaveMuxCore</text>
</a>
</g>
</g>
<!-- Node1&#45;&gt;Node8 -->
<g id="edge7" class="edge">
<title>Node1&#45;&gt;Node8</title>
<path fill="none" stroke="midnightblue" d="M87.19,-148.48C103.14,-150.31 121.22,-152.38 138.34,-154.35"/>
<polygon fill="midnightblue" stroke="midnightblue" points="87.39,-144.97 77.05,-147.31 86.59,-151.93 87.39,-144.97"/>
</g>
<!-- Node10 -->
<g id="node10" class="node">
<title>Node10</title>
<g id="a_node10"><a xlink:href="classAmcMrLlrfDownConvertCore.html" target="_top" xlink:title=" ">
<polygon fill="white" stroke="black" points="128.5,-114.5 128.5,-133.5 283.5,-133.5 283.5,-114.5 128.5,-114.5"/>
<text text-anchor="middle" x="206" y="-121.5" font-family="Helvetica,sans-Serif" font-size="10.00">AmcMrLlrfDownConvertCore</text>
</a>
</g>
</g>
<!-- Node1&#45;&gt;Node10 -->
<g id="edge9" class="edge">
<title>Node1&#45;&gt;Node10</title>
<path fill="none" stroke="midnightblue" d="M87.07,-137.54C99.98,-136.06 114.29,-134.41 128.37,-132.8"/>
<polygon fill="midnightblue" stroke="midnightblue" points="86.59,-134.07 77.05,-138.69 87.39,-141.03 86.59,-134.07"/>
</g>
<!-- Node11 -->
<g id="node11" class="node">
<title>Node11</title>
<g id="a_node11"><a xlink:href="classAmcMrLlrfGen2UpConvertMapping.html" target="_top" xlink:title=" ">
<polygon fill="white" stroke="black" points="113,-76.5 113,-95.5 299,-95.5 299,-76.5 113,-76.5"/>
<text text-anchor="middle" x="206" y="-83.5" font-family="Helvetica,sans-Serif" font-size="10.00">AmcMrLlrfGen2UpConvertMapping</text>
</a>
</g>
</g>
<!-- Node1&#45;&gt;Node11 -->
<g id="edge10" class="edge">
<title>Node1&#45;&gt;Node11</title>
<path fill="none" stroke="midnightblue" d="M63.93,-128.22C77.88,-120.33 95.95,-111.04 113,-105 123.61,-101.24 135.18,-98.13 146.43,-95.59"/>
<polygon fill="midnightblue" stroke="midnightblue" points="61.89,-125.35 54.99,-133.39 65.4,-131.41 61.89,-125.35"/>
</g>
<!-- Node13 -->
<g id="node13" class="node">
<title>Node13</title>
<g id="a_node13"><a xlink:href="classAmcMrLlrfUpConvertMapping.html" target="_top" xlink:title=" ">
<polygon fill="white" stroke="black" points="125.5,-38.5 125.5,-57.5 286.5,-57.5 286.5,-38.5 125.5,-38.5"/>
<text text-anchor="middle" x="206" y="-45.5" font-family="Helvetica,sans-Serif" font-size="10.00">AmcMrLlrfUpConvertMapping</text>
</a>
</g>
</g>
<!-- Node1&#45;&gt;Node13 -->
<g id="edge12" class="edge">
<title>Node1&#45;&gt;Node13</title>
<path fill="none" stroke="midnightblue" d="M51.88,-124.96C64.96,-107.33 87.25,-81.16 113,-67 120,-63.15 127.69,-60.08 135.56,-57.62"/>
<polygon fill="midnightblue" stroke="midnightblue" points="48.89,-123.12 45.9,-133.28 54.58,-127.2 48.89,-123.12"/>
</g>
<!-- Node15 -->
<g id="node15" class="node">
<title>Node15</title>
<g id="a_node15"><a xlink:href="classAmcStriplineBpmCore.html" target="_top" xlink:title=" ">
<polygon fill="white" stroke="black" points="144,-0.5 144,-19.5 268,-19.5 268,-0.5 144,-0.5"/>
<text text-anchor="middle" x="206" y="-7.5" font-family="Helvetica,sans-Serif" font-size="10.00">AmcStriplineBpmCore</text>
</a>
</g>
</g>
<!-- Node1&#45;&gt;Node15 -->
<g id="edge14" class="edge">
<title>Node1&#45;&gt;Node15</title>
<path fill="none" stroke="midnightblue" d="M46.42,-123.72C56.73,-97.87 78.69,-52.52 113,-29 122.15,-22.73 132.93,-18.45 143.83,-15.55"/>
<polygon fill="midnightblue" stroke="midnightblue" points="43.1,-122.59 42.81,-133.18 49.64,-125.08 43.1,-122.59"/>
</g>
<!-- Node3 -->
<g id="node3" class="node">
<title>Node3</title>
<g id="a_node3"><a xlink:href="classAmcCryoDualCore.html" target="_top" xlink:title=" ">
<polygon fill="white" stroke="black" points="361,-266.5 361,-285.5 467,-285.5 467,-266.5 361,-266.5"/>
<text text-anchor="middle" x="414" y="-273.5" font-family="Helvetica,sans-Serif" font-size="10.00">AmcCryoDualCore</text>
</a>
</g>
</g>
<!-- Node2&#45;&gt;Node3 -->
<g id="edge2" class="edge">
<title>Node2&#45;&gt;Node3</title>
<path fill="none" stroke="midnightblue" d="M257.94,-276C289.2,-276 329.13,-276 360.64,-276"/>
<polygon fill="midnightblue" stroke="midnightblue" points="257.7,-272.5 247.7,-276 257.7,-279.5 257.7,-272.5"/>
</g>
<!-- Node5 -->
<g id="node5" class="node">
<title>Node5</title>
<g id="a_node5"><a xlink:href="classAmcCryoDemoDualCore.html" target="_top" xlink:title=" ">
<polygon fill="white" stroke="black" points="346.5,-228.5 346.5,-247.5 481.5,-247.5 481.5,-228.5 346.5,-228.5"/>
<text text-anchor="middle" x="414" y="-235.5" font-family="Helvetica,sans-Serif" font-size="10.00">AmcCryoDemoDualCore</text>
</a>
</g>
</g>
<!-- Node4&#45;&gt;Node5 -->
<g id="edge4" class="edge">
<title>Node4&#45;&gt;Node5</title>
<path fill="none" stroke="midnightblue" d="M272.93,-238C296.35,-238 322.72,-238 346.22,-238"/>
<polygon fill="midnightblue" stroke="midnightblue" points="272.75,-234.5 262.75,-238 272.75,-241.5 272.75,-234.5"/>
</g>
<!-- Node7 -->
<g id="node7" class="node">
<title>Node7</title>
<g id="a_node7"><a xlink:href="classAmcGenericAdcDacDualCore.html" target="_top" xlink:title=" ">
<polygon fill="white" stroke="black" points="335,-190.5 335,-209.5 493,-209.5 493,-190.5 335,-190.5"/>
<text text-anchor="middle" x="414" y="-197.5" font-family="Helvetica,sans-Serif" font-size="10.00">AmcGenericAdcDacDualCore</text>
</a>
</g>
</g>
<!-- Node6&#45;&gt;Node7 -->
<g id="edge6" class="edge">
<title>Node6&#45;&gt;Node7</title>
<path fill="none" stroke="midnightblue" d="M283.82,-200C300.47,-200 318.09,-200 334.79,-200"/>
<polygon fill="midnightblue" stroke="midnightblue" points="283.6,-196.5 273.6,-200 283.6,-203.5 283.6,-196.5"/>
</g>
<!-- Node9 -->
<g id="node9" class="node">
<title>Node9</title>
<g id="a_node9"><a xlink:href="classAmcMicrowaveMuxDualCore.html" target="_top" xlink:title=" ">
<polygon fill="white" stroke="black" points="335,-152.5 335,-171.5 493,-171.5 493,-152.5 335,-152.5"/>
<text text-anchor="middle" x="414" y="-159.5" font-family="Helvetica,sans-Serif" font-size="10.00">AmcMicrowaveMuxDualCore</text>
</a>
</g>
</g>
<!-- Node8&#45;&gt;Node9 -->
<g id="edge8" class="edge">
<title>Node8&#45;&gt;Node9</title>
<path fill="none" stroke="midnightblue" d="M283.82,-162C300.47,-162 318.09,-162 334.79,-162"/>
<polygon fill="midnightblue" stroke="midnightblue" points="283.6,-158.5 273.6,-162 283.6,-165.5 283.6,-158.5"/>
</g>
<!-- Node12 -->
<g id="node12" class="node">
<title>Node12</title>
<g id="a_node12"><a xlink:href="classAmcMrLlrfGen2UpConvert.html" target="_top" xlink:title=" ">
<polygon fill="white" stroke="black" points="342,-76.5 342,-95.5 486,-95.5 486,-76.5 342,-76.5"/>
<text text-anchor="middle" x="414" y="-83.5" font-family="Helvetica,sans-Serif" font-size="10.00">AmcMrLlrfGen2UpConvert</text>
</a>
</g>
</g>
<!-- Node11&#45;&gt;Node12 -->
<g id="edge11" class="edge">
<title>Node11&#45;&gt;Node12</title>
<path fill="none" stroke="midnightblue" d="M309.28,-86C320.33,-86 331.38,-86 341.94,-86"/>
<polygon fill="midnightblue" stroke="midnightblue" points="309.15,-82.5 299.15,-86 309.15,-89.5 309.15,-82.5"/>
</g>
<!-- Node14 -->
<g id="node14" class="node">
<title>Node14</title>
<g id="a_node14"><a xlink:href="classAmcMrLlrfUpConvertCore.html" target="_top" xlink:title=" ">
<polygon fill="white" stroke="black" points="343.5,-38.5 343.5,-57.5 484.5,-57.5 484.5,-38.5 343.5,-38.5"/>
<text text-anchor="middle" x="414" y="-45.5" font-family="Helvetica,sans-Serif" font-size="10.00">AmcMrLlrfUpConvertCore</text>
</a>
</g>
</g>
<!-- Node13&#45;&gt;Node14 -->
<g id="edge13" class="edge">
<title>Node13&#45;&gt;Node14</title>
<path fill="none" stroke="midnightblue" d="M296.8,-48C312.38,-48 328.36,-48 343.3,-48"/>
<polygon fill="midnightblue" stroke="midnightblue" points="296.65,-44.5 286.64,-48 296.64,-51.5 296.65,-44.5"/>
</g>
<!-- Node16 -->
<g id="node16" class="node">
<title>Node16</title>
<g id="a_node16"><a xlink:href="classAmcStriplineBpmDualCore.html" target="_top" xlink:title=" ">
<polygon fill="white" stroke="black" points="341,-0.5 341,-19.5 487,-19.5 487,-0.5 341,-0.5"/>
<text text-anchor="middle" x="414" y="-7.5" font-family="Helvetica,sans-Serif" font-size="10.00">AmcStriplineBpmDualCore</text>
</a>
</g>
</g>
<!-- Node15&#45;&gt;Node16 -->
<g id="edge15" class="edge">
<title>Node15&#45;&gt;Node16</title>
<path fill="none" stroke="midnightblue" d="M278.31,-10C298.5,-10 320.49,-10 340.73,-10"/>
<polygon fill="midnightblue" stroke="midnightblue" points="278.25,-6.5 268.25,-10 278.25,-13.5 278.25,-6.5"/>
</g>
</g>
</svg>
