<?xml version="1.0" encoding="UTF-8" standalone="no"?>
<!DOCTYPE svg PUBLIC "-//W3C//DTD SVG 1.1//EN"
 "http://www.w3.org/Graphics/SVG/1.1/DTD/svg11.dtd">
<!-- Generated by graphviz version 2.40.1 (20161225.0304)
 -->
<!-- Title: BsaWaveformEngine Pages: 1 -->
<svg width="389pt" height="196pt"
 viewBox="0.00 0.00 389.00 196.00" xmlns="http://www.w3.org/2000/svg" xmlns:xlink="http://www.w3.org/1999/xlink">
<g id="graph0" class="graph" transform="scale(1 1) rotate(0) translate(4 192)">
<title>BsaWaveformEngine</title>
<polygon fill="#ffffff" stroke="transparent" points="-4,4 -4,-192 385,-192 385,4 -4,4"/>
<!-- Node0 -->
<g id="node1" class="node">
<title>Node0</title>
<polygon fill="#bfbfbf" stroke="#000000" points="186.5,-168.5 186.5,-187.5 304.5,-187.5 304.5,-168.5 186.5,-168.5"/>
<text text-anchor="middle" x="245.5" y="-175.5" font-family="Helvetica,sans-Serif" font-size="10.00" fill="#000000">BsaWaveformEngine</text>
</g>
<!-- Node1 -->
<g id="node2" class="node">
<title>Node1</title>
<g id="a_node2"><a xlink:href="classAmcCarrierBsa.html" target="_top" xlink:title="AmcCarrierBsa">
<polygon fill="#ffffff" stroke="#000000" points="201,-112.5 201,-131.5 290,-131.5 290,-112.5 201,-112.5"/>
<text text-anchor="middle" x="245.5" y="-119.5" font-family="Helvetica,sans-Serif" font-size="10.00" fill="#000000">AmcCarrierBsa</text>
</a>
</g>
</g>
<!-- Node0&#45;&gt;Node1 -->
<g id="edge1" class="edge">
<title>Node0&#45;&gt;Node1</title>
<path fill="none" stroke="#191970" d="M245.5,-158.1575C245.5,-149.155 245.5,-138.9199 245.5,-131.6427"/>
<polygon fill="#191970" stroke="#191970" points="242.0001,-158.2455 245.5,-168.2455 249.0001,-158.2456 242.0001,-158.2455"/>
</g>
<!-- Node2 -->
<g id="node3" class="node">
<title>Node2</title>
<g id="a_node3"><a xlink:href="classAmcCarrierCore.html" target="_top" xlink:title="AmcCarrierCore">
<polygon fill="#ffffff" stroke="#000000" points="143.5,-56.5 143.5,-75.5 237.5,-75.5 237.5,-56.5 143.5,-56.5"/>
<text text-anchor="middle" x="190.5" y="-63.5" font-family="Helvetica,sans-Serif" font-size="10.00" fill="#000000">AmcCarrierCore</text>
</a>
</g>
</g>
<!-- Node1&#45;&gt;Node2 -->
<g id="edge2" class="edge">
<title>Node1&#45;&gt;Node2</title>
<path fill="none" stroke="#191970" d="M228.8774,-105.0751C219.4145,-95.4402 207.9031,-83.7196 199.9705,-75.6427"/>
<polygon fill="#191970" stroke="#191970" points="226.4155,-107.5635 235.9197,-112.2455 231.4097,-102.6585 226.4155,-107.5635"/>
</g>
<!-- Node5 -->
<g id="node6" class="node">
<title>Node5</title>
<g id="a_node6"><a xlink:href="classAmcCarrierFsbl.html" target="_top" xlink:title="AmcCarrierFsbl">
<polygon fill="#ffffff" stroke="#000000" points="267,-56.5 267,-75.5 358,-75.5 358,-56.5 267,-56.5"/>
<text text-anchor="middle" x="312.5" y="-63.5" font-family="Helvetica,sans-Serif" font-size="10.00" fill="#000000">AmcCarrierFsbl</text>
</a>
</g>
</g>
<!-- Node1&#45;&gt;Node5 -->
<g id="edge5" class="edge">
<title>Node1&#45;&gt;Node5</title>
<path fill="none" stroke="#191970" d="M265.0676,-105.645C276.7198,-95.9058 291.1084,-83.8795 300.9632,-75.6427"/>
<polygon fill="#191970" stroke="#191970" points="262.5988,-103.1469 257.1705,-112.2455 267.0879,-108.5179 262.5988,-103.1469"/>
</g>
<!-- Node3 -->
<g id="node4" class="node">
<title>Node3</title>
<g id="a_node4"><a xlink:href="classAmcCarrierCoreAdv.html" target="_top" xlink:title="AmcCarrierCoreAdv">
<polygon fill="#ffffff" stroke="#000000" points="0,-.5 0,-19.5 113,-19.5 113,-.5 0,-.5"/>
<text text-anchor="middle" x="56.5" y="-7.5" font-family="Helvetica,sans-Serif" font-size="10.00" fill="#000000">AmcCarrierCoreAdv</text>
</a>
</g>
</g>
<!-- Node2&#45;&gt;Node3 -->
<g id="edge3" class="edge">
<title>Node2&#45;&gt;Node3</title>
<path fill="none" stroke="#191970" d="M157.9172,-52.3833C133.5464,-42.1985 100.8358,-28.5284 79.2348,-19.5011"/>
<polygon fill="#191970" stroke="#191970" points="156.8883,-55.7466 167.4646,-56.3733 159.5875,-49.2879 156.8883,-55.7466"/>
</g>
<!-- Node4 -->
<g id="node5" class="node">
<title>Node4</title>
<g id="a_node5"><a xlink:href="classAmcCarrierCoreBase.html" target="_top" xlink:title="AmcCarrierCoreBase">
<polygon fill="#ffffff" stroke="#000000" points="131.5,-.5 131.5,-19.5 249.5,-19.5 249.5,-.5 131.5,-.5"/>
<text text-anchor="middle" x="190.5" y="-7.5" font-family="Helvetica,sans-Serif" font-size="10.00" fill="#000000">AmcCarrierCoreBase</text>
</a>
</g>
</g>
<!-- Node2&#45;&gt;Node4 -->
<g id="edge4" class="edge">
<title>Node2&#45;&gt;Node4</title>
<path fill="none" stroke="#191970" d="M190.5,-46.1575C190.5,-37.155 190.5,-26.9199 190.5,-19.6427"/>
<polygon fill="#191970" stroke="#191970" points="187.0001,-46.2455 190.5,-56.2455 194.0001,-46.2456 187.0001,-46.2455"/>
</g>
<!-- Node6 -->
<g id="node7" class="node">
<title>Node6</title>
<g id="a_node7"><a xlink:href="classAmcCarrierCoreFsbl.html" target="_top" xlink:title="AmcCarrierCoreFsbl">
<polygon fill="#ffffff" stroke="#000000" points="268,-.5 268,-19.5 381,-19.5 381,-.5 268,-.5"/>
<text text-anchor="middle" x="324.5" y="-7.5" font-family="Helvetica,sans-Serif" font-size="10.00" fill="#000000">AmcCarrierCoreFsbl</text>
</a>
</g>
</g>
<!-- Node5&#45;&gt;Node6 -->
<g id="edge6" class="edge">
<title>Node5&#45;&gt;Node6</title>
<path fill="none" stroke="#191970" d="M316.6885,-46.4538C318.6328,-37.3803 320.8572,-26.9998 322.4337,-19.6427"/>
<polygon fill="#191970" stroke="#191970" points="313.2633,-45.7341 314.5902,-56.2455 320.1079,-47.2009 313.2633,-45.7341"/>
</g>
</g>
</svg>
