<?xml version="1.0" encoding="UTF-8" standalone="no"?>
<!DOCTYPE svg PUBLIC "-//W3C//DTD SVG 1.1//EN"
 "http://www.w3.org/Graphics/SVG/1.1/DTD/svg11.dtd">
<!-- Generated by graphviz version 2.40.1 (20161225.0304)
 -->
<!-- Title: AppMpsReg Pages: 1 -->
<svg width="228pt" height="84pt"
 viewBox="0.00 0.00 227.50 84.00" xmlns="http://www.w3.org/2000/svg" xmlns:xlink="http://www.w3.org/1999/xlink">
<g id="graph0" class="graph" transform="scale(1 1) rotate(0) translate(4 80)">
<title>AppMpsReg</title>
<polygon fill="#ffffff" stroke="transparent" points="-4,4 -4,-80 223.5,-80 223.5,4 -4,4"/>
<!-- Node8 -->
<g id="node1" class="node">
<title>Node8</title>
<polygon fill="#bfbfbf" stroke="#000000" points="71,-.5 71,-19.5 144,-19.5 144,-.5 71,-.5"/>
<text text-anchor="middle" x="107.5" y="-7.5" font-family="Helvetica,sans-Serif" font-size="10.00" fill="#000000">AppMpsReg</text>
</g>
<!-- Node9 -->
<g id="node2" class="node">
<title>Node9</title>
<g id="a_node2"><a xlink:href="classAppMpsRegBase.html" target="_top" xlink:title="AppMpsRegBase">
<polygon fill="#ffffff" stroke="#000000" points="0,-56.5 0,-75.5 97,-75.5 97,-56.5 0,-56.5"/>
<text text-anchor="middle" x="48.5" y="-63.5" font-family="Helvetica,sans-Serif" font-size="10.00" fill="#000000">AppMpsRegBase</text>
</a>
</g>
</g>
<!-- Node9&#45;&gt;Node8 -->
<g id="edge1" class="edge">
<title>Node9&#45;&gt;Node8</title>
<path fill="none" stroke="#191970" d="M66.0307,-49.3607C76.2377,-39.6727 88.7469,-27.7995 97.3408,-19.6427"/>
<polygon fill="#191970" stroke="#191970" points="63.6206,-46.8227 58.777,-56.2455 68.4396,-51.8998 63.6206,-46.8227"/>
</g>
<!-- Node10 -->
<g id="node3" class="node">
<title>Node10</title>
<g id="a_node3"><a xlink:href="classAppMpsRegAppCh.html" target="_top" xlink:title="AppMpsRegAppCh">
<polygon fill="#ffffff" stroke="#000000" points="115.5,-56.5 115.5,-75.5 219.5,-75.5 219.5,-56.5 115.5,-56.5"/>
<text text-anchor="middle" x="167.5" y="-63.5" font-family="Helvetica,sans-Serif" font-size="10.00" fill="#000000">AppMpsRegAppCh</text>
</a>
</g>
</g>
<!-- Node10&#45;&gt;Node8 -->
<g id="edge2" class="edge">
<title>Node10&#45;&gt;Node8</title>
<path fill="none" stroke="#191970" d="M149.6722,-49.3607C139.2922,-39.6727 126.5709,-27.7995 117.8314,-19.6427"/>
<polygon fill="#191970" stroke="#191970" points="147.3501,-51.981 157.0488,-56.2455 152.1263,-46.8636 147.3501,-51.981"/>
</g>
</g>
</svg>
