<?xml version="1.0" encoding="UTF-8" standalone="no"?>
<!DOCTYPE svg PUBLIC "-//W3C//DTD SVG 1.1//EN"
 "http://www.w3.org/Graphics/SVG/1.1/DTD/svg11.dtd">
<!-- Generated by graphviz version 2.40.1 (20161225.0304)
 -->
<!-- Title: AmcCarrierEth Pages: 1 -->
<svg width="439pt" height="140pt"
 viewBox="0.00 0.00 438.50 140.00" xmlns="http://www.w3.org/2000/svg" xmlns:xlink="http://www.w3.org/1999/xlink">
<g id="graph0" class="graph" transform="scale(1 1) rotate(0) translate(4 136)">
<title>AmcCarrierEth</title>
<polygon fill="#ffffff" stroke="transparent" points="-4,4 -4,-136 434.5,-136 434.5,4 -4,4"/>
<!-- Node10 -->
<g id="node1" class="node">
<title>Node10</title>
<polygon fill="#bfbfbf" stroke="#000000" points="161.5,-.5 161.5,-19.5 248.5,-19.5 248.5,-.5 161.5,-.5"/>
<text text-anchor="middle" x="205" y="-7.5" font-family="Helvetica,sans-Serif" font-size="10.00" fill="#000000">AmcCarrierEth</text>
</g>
<!-- Node11 -->
<g id="node2" class="node">
<title>Node11</title>
<g id="a_node2"><a xlink:href="classAmcCarrierXvcDebug.html" target="_top" xlink:title="AmcCarrierXvcDebug(2)">
<polygon fill="#ffffff" stroke="#000000" points="0,-56.5 0,-75.5 134,-75.5 134,-56.5 0,-56.5"/>
<text text-anchor="middle" x="67" y="-63.5" font-family="Helvetica,sans-Serif" font-size="10.00" fill="#000000">AmcCarrierXvcDebug(2)</text>
</a>
</g>
</g>
<!-- Node11&#45;&gt;Node10 -->
<g id="edge1" class="edge">
<title>Node11&#45;&gt;Node10</title>
<path fill="none" stroke="#191970" d="M100.2213,-52.5189C125.354,-42.3201 159.2418,-28.5685 181.5865,-19.5011"/>
<polygon fill="#191970" stroke="#191970" points="98.6731,-49.3699 90.723,-56.3733 101.3053,-55.8562 98.6731,-49.3699"/>
</g>
<!-- Node12 -->
<g id="node3" class="node">
<title>Node12</title>
<g id="a_node3"><a xlink:href="classUdpDebugBridge.html" target="_top" xlink:title="UdpDebugBridge">
<polygon fill="#ffffff" stroke="#000000" points="17.5,-112.5 17.5,-131.5 116.5,-131.5 116.5,-112.5 17.5,-112.5"/>
<text text-anchor="middle" x="67" y="-119.5" font-family="Helvetica,sans-Serif" font-size="10.00" fill="#000000">UdpDebugBridge</text>
</a>
</g>
</g>
<!-- Node12&#45;&gt;Node11 -->
<g id="edge2" class="edge">
<title>Node12&#45;&gt;Node11</title>
<path fill="none" stroke="#191970" d="M67,-102.1575C67,-93.155 67,-82.9199 67,-75.6427"/>
<polygon fill="#191970" stroke="#191970" points="63.5001,-102.2455 67,-112.2455 70.5001,-102.2456 63.5001,-102.2455"/>
</g>
<!-- Node13 -->
<g id="node4" class="node">
<title>Node13</title>
<g id="a_node4"><a xlink:href="classAmcCarrierRssi.html" target="_top" xlink:title="AmcCarrierRssi(2)">
<polygon fill="#ffffff" stroke="#000000" points="152.5,-56.5 152.5,-75.5 257.5,-75.5 257.5,-56.5 152.5,-56.5"/>
<text text-anchor="middle" x="205" y="-63.5" font-family="Helvetica,sans-Serif" font-size="10.00" fill="#000000">AmcCarrierRssi(2)</text>
</a>
</g>
</g>
<!-- Node13&#45;&gt;Node10 -->
<g id="edge3" class="edge">
<title>Node13&#45;&gt;Node10</title>
<path fill="none" stroke="#191970" d="M205,-46.1575C205,-37.155 205,-26.9199 205,-19.6427"/>
<polygon fill="#191970" stroke="#191970" points="201.5001,-46.2455 205,-56.2455 208.5001,-46.2456 201.5001,-46.2455"/>
</g>
<!-- Node14 -->
<g id="node5" class="node">
<title>Node14</title>
<g id="a_node5"><a xlink:href="classAmcCarrierRssiObFifo.html" target="_top" xlink:title="AmcCarrierRssiObFifo(2)">
<polygon fill="#ffffff" stroke="#000000" points="137,-112.5 137,-131.5 273,-131.5 273,-112.5 137,-112.5"/>
<text text-anchor="middle" x="205" y="-119.5" font-family="Helvetica,sans-Serif" font-size="10.00" fill="#000000">AmcCarrierRssiObFifo(2)</text>
</a>
</g>
</g>
<!-- Node14&#45;&gt;Node13 -->
<g id="edge4" class="edge">
<title>Node14&#45;&gt;Node13</title>
<path fill="none" stroke="#191970" d="M205,-102.1575C205,-93.155 205,-82.9199 205,-75.6427"/>
<polygon fill="#191970" stroke="#191970" points="201.5001,-102.2455 205,-112.2455 208.5001,-102.2456 201.5001,-102.2455"/>
</g>
<!-- Node15 -->
<g id="node6" class="node">
<title>Node15</title>
<g id="a_node6"><a xlink:href="classAmcCarrierRssiInterleave.html" target="_top" xlink:title="AmcCarrierRssiInterleave(2)">
<polygon fill="#ffffff" stroke="#000000" points="275.5,-56.5 275.5,-75.5 430.5,-75.5 430.5,-56.5 275.5,-56.5"/>
<text text-anchor="middle" x="353" y="-63.5" font-family="Helvetica,sans-Serif" font-size="10.00" fill="#000000">AmcCarrierRssiInterleave(2)</text>
</a>
</g>
</g>
<!-- Node15&#45;&gt;Node10 -->
<g id="edge5" class="edge">
<title>Node15&#45;&gt;Node10</title>
<path fill="none" stroke="#191970" d="M318.0847,-52.7888C291.0617,-42.5639 254.286,-28.6488 230.1101,-19.5011"/>
<polygon fill="#191970" stroke="#191970" points="316.9664,-56.1078 327.5579,-56.3733 319.4437,-49.5608 316.9664,-56.1078"/>
</g>
<!-- Node16 -->
<g id="node7" class="node">
<title>Node16</title>
<g id="a_node7"><a xlink:href="classAmcCarrierRssiObFifo.html" target="_top" xlink:title="AmcCarrierRssiObFifo">
<polygon fill="#ffffff" stroke="#000000" points="292,-112.5 292,-131.5 414,-131.5 414,-112.5 292,-112.5"/>
<text text-anchor="middle" x="353" y="-119.5" font-family="Helvetica,sans-Serif" font-size="10.00" fill="#000000">AmcCarrierRssiObFifo</text>
</a>
</g>
</g>
<!-- Node16&#45;&gt;Node15 -->
<g id="edge6" class="edge">
<title>Node16&#45;&gt;Node15</title>
<path fill="none" stroke="#191970" d="M353,-102.1575C353,-93.155 353,-82.9199 353,-75.6427"/>
<polygon fill="#191970" stroke="#191970" points="349.5001,-102.2455 353,-112.2455 356.5001,-102.2456 349.5001,-102.2455"/>
</g>
</g>
</svg>
