<?xml version="1.0" encoding="UTF-8" standalone="no"?>
<!DOCTYPE svg PUBLIC "-//W3C//DTD SVG 1.1//EN"
 "http://www.w3.org/Graphics/SVG/1.1/DTD/svg11.dtd">
<!-- Generated by graphviz version 2.40.1 (20161225.0304)
 -->
<!-- Title: AmcCarrierRssi Pages: 1 -->
<svg width="258pt" height="252pt"
 viewBox="0.00 0.00 257.50 252.00" xmlns="http://www.w3.org/2000/svg" xmlns:xlink="http://www.w3.org/1999/xlink">
<g id="graph0" class="graph" transform="scale(1 1) rotate(0) translate(4 248)">
<title>AmcCarrierRssi</title>
<polygon fill="#ffffff" stroke="transparent" points="-4,4 -4,-248 253.5,-248 253.5,4 -4,4"/>
<!-- Node0 -->
<g id="node1" class="node">
<title>Node0</title>
<polygon fill="#bfbfbf" stroke="#000000" points="77.5,-168.5 77.5,-187.5 169.5,-187.5 169.5,-168.5 77.5,-168.5"/>
<text text-anchor="middle" x="123.5" y="-175.5" font-family="Helvetica,sans-Serif" font-size="10.00" fill="#000000">AmcCarrierRssi</text>
</g>
<!-- Node2 -->
<g id="node3" class="node">
<title>Node2</title>
<g id="a_node3"><a xlink:href="classAmcCarrierEth.html" target="_top" xlink:title="AmcCarrierEth">
<polygon fill="#ffffff" stroke="#000000" points="80,-112.5 80,-131.5 167,-131.5 167,-112.5 80,-112.5"/>
<text text-anchor="middle" x="123.5" y="-119.5" font-family="Helvetica,sans-Serif" font-size="10.00" fill="#000000">AmcCarrierEth</text>
</a>
</g>
</g>
<!-- Node0&#45;&gt;Node2 -->
<g id="edge2" class="edge">
<title>Node0&#45;&gt;Node2</title>
<path fill="none" stroke="#191970" d="M123.5,-158.1575C123.5,-149.155 123.5,-138.9199 123.5,-131.6427"/>
<polygon fill="#191970" stroke="#191970" points="120.0001,-158.2455 123.5,-168.2455 127.0001,-158.2456 120.0001,-158.2455"/>
</g>
<!-- Node1 -->
<g id="node2" class="node">
<title>Node1</title>
<g id="a_node2"><a xlink:href="classAmcCarrierRssiObFifo.html" target="_top" xlink:title="AmcCarrierRssiObFifo(2)">
<polygon fill="#ffffff" stroke="#000000" points="55.5,-224.5 55.5,-243.5 191.5,-243.5 191.5,-224.5 55.5,-224.5"/>
<text text-anchor="middle" x="123.5" y="-231.5" font-family="Helvetica,sans-Serif" font-size="10.00" fill="#000000">AmcCarrierRssiObFifo(2)</text>
</a>
</g>
</g>
<!-- Node1&#45;&gt;Node0 -->
<g id="edge1" class="edge">
<title>Node1&#45;&gt;Node0</title>
<path fill="none" stroke="#191970" d="M123.5,-214.1575C123.5,-205.155 123.5,-194.9199 123.5,-187.6427"/>
<polygon fill="#191970" stroke="#191970" points="120.0001,-214.2455 123.5,-224.2455 127.0001,-214.2456 120.0001,-214.2455"/>
</g>
<!-- Node3 -->
<g id="node4" class="node">
<title>Node3</title>
<g id="a_node4"><a xlink:href="classAmcCarrierCore.html" target="_top" xlink:title="AmcCarrierCore">
<polygon fill="#ffffff" stroke="#000000" points="76.5,-56.5 76.5,-75.5 170.5,-75.5 170.5,-56.5 76.5,-56.5"/>
<text text-anchor="middle" x="123.5" y="-63.5" font-family="Helvetica,sans-Serif" font-size="10.00" fill="#000000">AmcCarrierCore</text>
</a>
</g>
</g>
<!-- Node2&#45;&gt;Node3 -->
<g id="edge3" class="edge">
<title>Node2&#45;&gt;Node3</title>
<path fill="none" stroke="#191970" d="M123.5,-102.1575C123.5,-93.155 123.5,-82.9199 123.5,-75.6427"/>
<polygon fill="#191970" stroke="#191970" points="120.0001,-102.2455 123.5,-112.2455 127.0001,-102.2456 120.0001,-102.2455"/>
</g>
<!-- Node4 -->
<g id="node5" class="node">
<title>Node4</title>
<g id="a_node5"><a xlink:href="classAmcCarrierCoreAdv.html" target="_top" xlink:title="AmcCarrierCoreAdv">
<polygon fill="#ffffff" stroke="#000000" points="0,-.5 0,-19.5 113,-19.5 113,-.5 0,-.5"/>
<text text-anchor="middle" x="56.5" y="-7.5" font-family="Helvetica,sans-Serif" font-size="10.00" fill="#000000">AmcCarrierCoreAdv</text>
</a>
</g>
</g>
<!-- Node3&#45;&gt;Node4 -->
<g id="edge4" class="edge">
<title>Node3&#45;&gt;Node4</title>
<path fill="none" stroke="#191970" d="M103.9324,-49.645C92.2802,-39.9058 77.8916,-27.8795 68.0368,-19.6427"/>
<polygon fill="#191970" stroke="#191970" points="101.9121,-52.5179 111.8295,-56.2455 106.4012,-47.1469 101.9121,-52.5179"/>
</g>
<!-- Node5 -->
<g id="node6" class="node">
<title>Node5</title>
<g id="a_node6"><a xlink:href="classAmcCarrierCoreBase.html" target="_top" xlink:title="AmcCarrierCoreBase">
<polygon fill="#ffffff" stroke="#000000" points="131.5,-.5 131.5,-19.5 249.5,-19.5 249.5,-.5 131.5,-.5"/>
<text text-anchor="middle" x="190.5" y="-7.5" font-family="Helvetica,sans-Serif" font-size="10.00" fill="#000000">AmcCarrierCoreBase</text>
</a>
</g>
</g>
<!-- Node3&#45;&gt;Node5 -->
<g id="edge5" class="edge">
<title>Node3&#45;&gt;Node5</title>
<path fill="none" stroke="#191970" d="M143.0676,-49.645C154.7198,-39.9058 169.1084,-27.8795 178.9632,-19.6427"/>
<polygon fill="#191970" stroke="#191970" points="140.5988,-47.1469 135.1705,-56.2455 145.0879,-52.5179 140.5988,-47.1469"/>
</g>
</g>
</svg>
