<?xml version="1.0" encoding="UTF-8" standalone="no"?>
<!DOCTYPE svg PUBLIC "-//W3C//DTD SVG 1.1//EN"
 "http://www.w3.org/Graphics/SVG/1.1/DTD/svg11.dtd">
<!-- Generated by graphviz version 2.40.1 (20161225.0304)
 -->
<!-- Title: Si5317a Pages: 1 -->
<svg width="247pt" height="140pt"
 viewBox="0.00 0.00 247.00 140.00" xmlns="http://www.w3.org/2000/svg" xmlns:xlink="http://www.w3.org/1999/xlink">
<g id="graph0" class="graph" transform="scale(1 1) rotate(0) translate(4 136)">
<title>Si5317a</title>
<polygon fill="#ffffff" stroke="transparent" points="-4,4 -4,-136 243,-136 243,4 -4,4"/>
<!-- Node0 -->
<g id="node1" class="node">
<title>Node0</title>
<polygon fill="#bfbfbf" stroke="#000000" points="92.5,-112.5 92.5,-131.5 148.5,-131.5 148.5,-112.5 92.5,-112.5"/>
<text text-anchor="middle" x="120.5" y="-119.5" font-family="Helvetica,sans-Serif" font-size="10.00" fill="#000000">Si5317a</text>
</g>
<!-- Node1 -->
<g id="node2" class="node">
<title>Node1</title>
<g id="a_node2"><a xlink:href="classAmcMpsSfpCore.html" target="_top" xlink:title="AmcMpsSfpCore">
<polygon fill="#ffffff" stroke="#000000" points="11.5,-56.5 11.5,-75.5 107.5,-75.5 107.5,-56.5 11.5,-56.5"/>
<text text-anchor="middle" x="59.5" y="-63.5" font-family="Helvetica,sans-Serif" font-size="10.00" fill="#000000">AmcMpsSfpCore</text>
</a>
</g>
</g>
<!-- Node0&#45;&gt;Node1 -->
<g id="edge1" class="edge">
<title>Node0&#45;&gt;Node1</title>
<path fill="none" stroke="#191970" d="M102.3751,-105.3607C91.822,-95.6727 78.8888,-83.7995 70.0036,-75.6427"/>
<polygon fill="#191970" stroke="#191970" points="100.1411,-108.0611 109.8746,-112.2455 104.875,-102.9045 100.1411,-108.0611"/>
</g>
<!-- Node3 -->
<g id="node4" class="node">
<title>Node3</title>
<g id="a_node4"><a xlink:href="classRtmDigitalDebugV2.html" target="_top" xlink:title="RtmDigitalDebugV2">
<polygon fill="#ffffff" stroke="#000000" points="126,-56.5 126,-75.5 239,-75.5 239,-56.5 126,-56.5"/>
<text text-anchor="middle" x="182.5" y="-63.5" font-family="Helvetica,sans-Serif" font-size="10.00" fill="#000000">RtmDigitalDebugV2</text>
</a>
</g>
</g>
<!-- Node0&#45;&gt;Node3 -->
<g id="edge3" class="edge">
<title>Node0&#45;&gt;Node3</title>
<path fill="none" stroke="#191970" d="M138.9221,-105.3607C149.6481,-95.6727 162.7934,-83.7995 171.8242,-75.6427"/>
<polygon fill="#191970" stroke="#191970" points="136.3746,-102.9453 131.2996,-112.2455 141.0666,-108.14 136.3746,-102.9453"/>
</g>
<!-- Node2 -->
<g id="node3" class="node">
<title>Node2</title>
<g id="a_node3"><a xlink:href="classAmcMpsSfpDualCore.html" target="_top" xlink:title="AmcMpsSfpDualCore">
<polygon fill="#ffffff" stroke="#000000" points="0,-.5 0,-19.5 119,-19.5 119,-.5 0,-.5"/>
<text text-anchor="middle" x="59.5" y="-7.5" font-family="Helvetica,sans-Serif" font-size="10.00" fill="#000000">AmcMpsSfpDualCore</text>
</a>
</g>
</g>
<!-- Node1&#45;&gt;Node2 -->
<g id="edge2" class="edge">
<title>Node1&#45;&gt;Node2</title>
<path fill="none" stroke="#191970" d="M59.5,-46.1575C59.5,-37.155 59.5,-26.9199 59.5,-19.6427"/>
<polygon fill="#191970" stroke="#191970" points="56.0001,-46.2455 59.5,-56.2455 63.0001,-46.2456 56.0001,-46.2455"/>
</g>
</g>
</svg>
