<?xml version="1.0" encoding="UTF-8" standalone="no"?>
<!DOCTYPE svg PUBLIC "-//W3C//DTD SVG 1.1//EN"
 "http://www.w3.org/Graphics/SVG/1.1/DTD/svg11.dtd">
<!-- Generated by graphviz version 2.40.1 (20161225.0304)
 -->
<!-- Title: AmcMicrowaveMuxDualCore Pages: 1 -->
<svg width="518pt" height="140pt"
 viewBox="0.00 0.00 518.00 140.00" xmlns="http://www.w3.org/2000/svg" xmlns:xlink="http://www.w3.org/1999/xlink">
<g id="graph0" class="graph" transform="scale(1 1) rotate(0) translate(4 136)">
<title>AmcMicrowaveMuxDualCore</title>
<polygon fill="#ffffff" stroke="transparent" points="-4,4 -4,-136 514,-136 514,4 -4,4"/>
<!-- Node7 -->
<g id="node1" class="node">
<title>Node7</title>
<polygon fill="#bfbfbf" stroke="#000000" points="193.5,-.5 193.5,-19.5 349.5,-19.5 349.5,-.5 193.5,-.5"/>
<text text-anchor="middle" x="271.5" y="-7.5" font-family="Helvetica,sans-Serif" font-size="10.00" fill="#000000">AmcMicrowaveMuxDualCore</text>
</g>
<!-- Node8 -->
<g id="node2" class="node">
<title>Node8</title>
<g id="a_node2"><a xlink:href="classAmcMicrowaveMuxCore.html" target="_top" xlink:title="AmcMicrowaveMuxCore">
<polygon fill="#ffffff" stroke="#000000" points="204.5,-56.5 204.5,-75.5 338.5,-75.5 338.5,-56.5 204.5,-56.5"/>
<text text-anchor="middle" x="271.5" y="-63.5" font-family="Helvetica,sans-Serif" font-size="10.00" fill="#000000">AmcMicrowaveMuxCore</text>
</a>
</g>
</g>
<!-- Node8&#45;&gt;Node7 -->
<g id="edge1" class="edge">
<title>Node8&#45;&gt;Node7</title>
<path fill="none" stroke="#191970" d="M271.5,-46.1575C271.5,-37.155 271.5,-26.9199 271.5,-19.6427"/>
<polygon fill="#191970" stroke="#191970" points="268.0001,-46.2455 271.5,-56.2455 275.0001,-46.2456 268.0001,-46.2455"/>
</g>
<!-- Node9 -->
<g id="node3" class="node">
<title>Node9</title>
<g id="a_node3"><a xlink:href="classAmcMicrowaveMuxCoreCtrl.html" target="_top" xlink:title="AmcMicrowaveMuxCoreCtrl">
<polygon fill="#ffffff" stroke="#000000" points="0,-112.5 0,-131.5 151,-131.5 151,-112.5 0,-112.5"/>
<text text-anchor="middle" x="75.5" y="-119.5" font-family="Helvetica,sans-Serif" font-size="10.00" fill="#000000">AmcMicrowaveMuxCoreCtrl</text>
</a>
</g>
</g>
<!-- Node9&#45;&gt;Node8 -->
<g id="edge2" class="edge">
<title>Node9&#45;&gt;Node8</title>
<path fill="none" stroke="#191970" d="M118.9413,-109.5882C154.9516,-99.2996 205.3868,-84.8895 238.2461,-75.5011"/>
<polygon fill="#191970" stroke="#191970" points="117.8473,-106.2606 109.1936,-112.3733 119.7704,-112.9913 117.8473,-106.2606"/>
</g>
<!-- Node10 -->
<g id="node4" class="node">
<title>Node10</title>
<g id="a_node4"><a xlink:href="classadf5355.html" target="_top" xlink:title="adf5355">
<polygon fill="#ffffff" stroke="#000000" points="169.5,-112.5 169.5,-131.5 225.5,-131.5 225.5,-112.5 169.5,-112.5"/>
<text text-anchor="middle" x="197.5" y="-119.5" font-family="Helvetica,sans-Serif" font-size="10.00" fill="#000000">adf5355</text>
</a>
</g>
</g>
<!-- Node10&#45;&gt;Node8 -->
<g id="edge3" class="edge">
<title>Node10&#45;&gt;Node8</title>
<path fill="none" stroke="#191970" d="M218.3657,-106.2097C231.3625,-96.3743 247.6622,-84.0394 258.7579,-75.6427"/>
<polygon fill="#191970" stroke="#191970" points="216.2518,-103.4201 210.3898,-112.2455 220.476,-109.002 216.2518,-103.4201"/>
</g>
<!-- Node11 -->
<g id="node5" class="node">
<title>Node11</title>
<g id="a_node5"><a xlink:href="classhmc305.html" target="_top" xlink:title="hmc305">
<polygon fill="#ffffff" stroke="#000000" points="243.5,-112.5 243.5,-131.5 299.5,-131.5 299.5,-112.5 243.5,-112.5"/>
<text text-anchor="middle" x="271.5" y="-119.5" font-family="Helvetica,sans-Serif" font-size="10.00" fill="#000000">hmc305</text>
</a>
</g>
</g>
<!-- Node11&#45;&gt;Node8 -->
<g id="edge4" class="edge">
<title>Node11&#45;&gt;Node8</title>
<path fill="none" stroke="#191970" d="M271.5,-102.1575C271.5,-93.155 271.5,-82.9199 271.5,-75.6427"/>
<polygon fill="#191970" stroke="#191970" points="268.0001,-102.2455 271.5,-112.2455 275.0001,-102.2456 268.0001,-102.2455"/>
</g>
<!-- Node12 -->
<g id="node6" class="node">
<title>Node12</title>
<g id="a_node6"><a xlink:href="classJesdSyncIn.html" target="_top" xlink:title="JesdSyncIn(3)">
<polygon fill="#ffffff" stroke="#000000" points="318,-112.5 318,-131.5 401,-131.5 401,-112.5 318,-112.5"/>
<text text-anchor="middle" x="359.5" y="-119.5" font-family="Helvetica,sans-Serif" font-size="10.00" fill="#000000">JesdSyncIn(3)</text>
</a>
</g>
</g>
<!-- Node12&#45;&gt;Node8 -->
<g id="edge5" class="edge">
<title>Node12&#45;&gt;Node8</title>
<path fill="none" stroke="#191970" d="M335.5655,-106.769C319.9717,-96.8456 300.099,-84.1994 286.6528,-75.6427"/>
<polygon fill="#191970" stroke="#191970" points="333.8559,-109.8296 344.1716,-112.2455 337.614,-103.9239 333.8559,-109.8296"/>
</g>
<!-- Node13 -->
<g id="node7" class="node">
<title>Node13</title>
<g id="a_node7"><a xlink:href="classJesdSyncOut.html" target="_top" xlink:title="JesdSyncOut(2)">
<polygon fill="#ffffff" stroke="#000000" points="419,-112.5 419,-131.5 510,-131.5 510,-112.5 419,-112.5"/>
<text text-anchor="middle" x="464.5" y="-119.5" font-family="Helvetica,sans-Serif" font-size="10.00" fill="#000000">JesdSyncOut(2)</text>
</a>
</g>
</g>
<!-- Node13&#45;&gt;Node8 -->
<g id="edge6" class="edge">
<title>Node13&#45;&gt;Node8</title>
<path fill="none" stroke="#191970" d="M421.2683,-109.4561C385.8404,-99.1765 336.463,-84.8494 304.2449,-75.5011"/>
<polygon fill="#191970" stroke="#191970" points="420.7429,-112.9479 431.3221,-112.3733 422.6936,-106.2252 420.7429,-112.9479"/>
</g>
</g>
</svg>
