<?xml version="1.0" encoding="UTF-8" standalone="no"?>
<!DOCTYPE svg PUBLIC "-//W3C//DTD SVG 1.1//EN"
 "http://www.w3.org/Graphics/SVG/1.1/DTD/svg11.dtd">
<!-- Generated by graphviz version 2.43.0 (0)
 -->
<!-- Title: Ad9229Core Pages: 1 -->
<svg width="133pt" height="196pt"
 viewBox="0.00 0.00 133.00 196.00" xmlns="http://www.w3.org/2000/svg" xmlns:xlink="http://www.w3.org/1999/xlink">
<g id="graph0" class="graph" transform="scale(1 1) rotate(0) translate(4 192)">
<title>Ad9229Core</title>
<polygon fill="white" stroke="transparent" points="-4,4 -4,-192 129,-192 129,4 -4,4"/>
<!-- Node1 -->
<g id="node1" class="node">
<title>Node1</title>
<g id="a_node1"><a xlink:title=" ">
<polygon fill="#bfbfbf" stroke="black" points="24.5,-112.5 24.5,-131.5 100.5,-131.5 100.5,-112.5 24.5,-112.5"/>
<text text-anchor="middle" x="62.5" y="-119.5" font-family="Helvetica,sans-Serif" font-size="10.00">Ad9229Core</text>
</a>
</g>
</g>
<!-- Node3 -->
<g id="node3" class="node">
<title>Node3</title>
<g id="a_node3"><a xlink:href="classRtmRfInterlockCore.html" target="_top" xlink:title=" ">
<polygon fill="white" stroke="black" points="6,-56.5 6,-75.5 119,-75.5 119,-56.5 6,-56.5"/>
<text text-anchor="middle" x="62.5" y="-63.5" font-family="Helvetica,sans-Serif" font-size="10.00">RtmRfInterlockCore</text>
</a>
</g>
</g>
<!-- Node1&#45;&gt;Node3 -->
<g id="edge2" class="edge">
<title>Node1&#45;&gt;Node3</title>
<path fill="none" stroke="midnightblue" d="M62.5,-101.8C62.5,-92.91 62.5,-82.78 62.5,-75.75"/>
<polygon fill="midnightblue" stroke="midnightblue" points="59,-102.08 62.5,-112.08 66,-102.08 59,-102.08"/>
</g>
<!-- Node2 -->
<g id="node2" class="node">
<title>Node2</title>
<g id="a_node2"><a xlink:href="classAd9229Deserializer.html" target="_top" xlink:title=" ">
<polygon fill="white" stroke="black" points="0,-168.5 0,-187.5 125,-187.5 125,-168.5 0,-168.5"/>
<text text-anchor="middle" x="62.5" y="-175.5" font-family="Helvetica,sans-Serif" font-size="10.00">Ad9229Deserializer(2)</text>
</a>
</g>
</g>
<!-- Node2&#45;&gt;Node1 -->
<g id="edge1" class="edge">
<title>Node2&#45;&gt;Node1</title>
<path fill="none" stroke="midnightblue" d="M62.5,-157.8C62.5,-148.91 62.5,-138.78 62.5,-131.75"/>
<polygon fill="midnightblue" stroke="midnightblue" points="59,-158.08 62.5,-168.08 66,-158.08 59,-158.08"/>
</g>
<!-- Node4 -->
<g id="node4" class="node">
<title>Node4</title>
<g id="a_node4"><a xlink:href="classRtmRfInterlock.html" target="_top" xlink:title=" ">
<polygon fill="white" stroke="black" points="17.5,-0.5 17.5,-19.5 107.5,-19.5 107.5,-0.5 17.5,-0.5"/>
<text text-anchor="middle" x="62.5" y="-7.5" font-family="Helvetica,sans-Serif" font-size="10.00">RtmRfInterlock</text>
</a>
</g>
</g>
<!-- Node3&#45;&gt;Node4 -->
<g id="edge3" class="edge">
<title>Node3&#45;&gt;Node4</title>
<path fill="none" stroke="midnightblue" d="M62.5,-45.8C62.5,-36.91 62.5,-26.78 62.5,-19.75"/>
<polygon fill="midnightblue" stroke="midnightblue" points="59,-46.08 62.5,-56.08 66,-46.08 59,-46.08"/>
</g>
</g>
</svg>
