<?xml version="1.0" encoding="UTF-8" standalone="no"?>
<!DOCTYPE svg PUBLIC "-//W3C//DTD SVG 1.1//EN"
 "http://www.w3.org/Graphics/SVG/1.1/DTD/svg11.dtd">
<!-- Generated by graphviz version 2.40.1 (20161225.0304)
 -->
<!-- Title: AmcCarrierFsbl Pages: 1 -->
<svg width="573pt" height="252pt"
 viewBox="0.00 0.00 572.50 252.00" xmlns="http://www.w3.org/2000/svg" xmlns:xlink="http://www.w3.org/1999/xlink">
<g id="graph0" class="graph" transform="scale(1 1) rotate(0) translate(4 248)">
<title>AmcCarrierFsbl</title>
<polygon fill="#ffffff" stroke="transparent" points="-4,4 -4,-248 568.5,-248 568.5,4 -4,4"/>
<!-- Node0 -->
<g id="node1" class="node">
<title>Node0</title>
<polygon fill="#bfbfbf" stroke="#000000" points="183,-56.5 183,-75.5 274,-75.5 274,-56.5 183,-56.5"/>
<text text-anchor="middle" x="228.5" y="-63.5" font-family="Helvetica,sans-Serif" font-size="10.00" fill="#000000">AmcCarrierFsbl</text>
</g>
<!-- Node10 -->
<g id="node11" class="node">
<title>Node10</title>
<g id="a_node11"><a xlink:href="classAmcCarrierCoreFsbl.html" target="_top" xlink:title="AmcCarrierCoreFsbl">
<polygon fill="#ffffff" stroke="#000000" points="172,-.5 172,-19.5 285,-19.5 285,-.5 172,-.5"/>
<text text-anchor="middle" x="228.5" y="-7.5" font-family="Helvetica,sans-Serif" font-size="10.00" fill="#000000">AmcCarrierCoreFsbl</text>
</a>
</g>
</g>
<!-- Node0&#45;&gt;Node10 -->
<g id="edge11" class="edge">
<title>Node0&#45;&gt;Node10</title>
<path fill="none" stroke="#191970" d="M228.5,-46.1575C228.5,-37.155 228.5,-26.9199 228.5,-19.6427"/>
<polygon fill="#191970" stroke="#191970" points="225.0001,-46.2455 228.5,-56.2455 232.0001,-46.2456 225.0001,-46.2455"/>
</g>
<!-- Node1 -->
<g id="node2" class="node">
<title>Node1</title>
<g id="a_node2"><a xlink:href="classAmcCarrierIbufGt.html" target="_top" xlink:title="AmcCarrierIbufGt">
<polygon fill="#ffffff" stroke="#000000" points="0,-168.5 0,-187.5 101,-187.5 101,-168.5 0,-168.5"/>
<text text-anchor="middle" x="50.5" y="-175.5" font-family="Helvetica,sans-Serif" font-size="10.00" fill="#000000">AmcCarrierIbufGt</text>
</a>
</g>
</g>
<!-- Node1&#45;&gt;Node0 -->
<g id="edge1" class="edge">
<title>Node1&#45;&gt;Node0</title>
<path fill="none" stroke="#191970" d="M41.4564,-158.9219C36.1119,-144.5602 32.1948,-125.1643 42.5,-112 59.6213,-90.1285 133.5574,-77.2171 182.8967,-70.8831"/>
<polygon fill="#191970" stroke="#191970" points="38.3108,-160.4706 45.4173,-168.3286 44.7622,-157.7541 38.3108,-160.4706"/>
</g>
<!-- Node3 -->
<g id="node4" class="node">
<title>Node3</title>
<g id="a_node4"><a xlink:href="classAmcCarrierTiming.html" target="_top" xlink:title="AmcCarrierTiming">
<polygon fill="#ffffff" stroke="#000000" points="52,-112.5 52,-131.5 157,-131.5 157,-112.5 52,-112.5"/>
<text text-anchor="middle" x="104.5" y="-119.5" font-family="Helvetica,sans-Serif" font-size="10.00" fill="#000000">AmcCarrierTiming</text>
</a>
</g>
</g>
<!-- Node1&#45;&gt;Node3 -->
<g id="edge4" class="edge">
<title>Node1&#45;&gt;Node3</title>
<path fill="none" stroke="#191970" d="M67.0969,-160.7884C76.3347,-151.2085 87.4904,-139.6396 95.2017,-131.6427"/>
<polygon fill="#191970" stroke="#191970" points="64.328,-158.6176 59.9061,-168.2455 69.3669,-163.4766 64.328,-158.6176"/>
</g>
<!-- Node2 -->
<g id="node3" class="node">
<title>Node2</title>
<g id="a_node3"><a xlink:href="classAmcCarrierEthFsbl.html" target="_top" xlink:title="AmcCarrierEthFsbl">
<polygon fill="#ffffff" stroke="#000000" points="175,-112.5 175,-131.5 282,-131.5 282,-112.5 175,-112.5"/>
<text text-anchor="middle" x="228.5" y="-119.5" font-family="Helvetica,sans-Serif" font-size="10.00" fill="#000000">AmcCarrierEthFsbl</text>
</a>
</g>
</g>
<!-- Node2&#45;&gt;Node0 -->
<g id="edge2" class="edge">
<title>Node2&#45;&gt;Node0</title>
<path fill="none" stroke="#191970" d="M228.5,-102.1575C228.5,-93.155 228.5,-82.9199 228.5,-75.6427"/>
<polygon fill="#191970" stroke="#191970" points="225.0001,-102.2455 228.5,-112.2455 232.0001,-102.2456 225.0001,-102.2455"/>
</g>
<!-- Node3&#45;&gt;Node0 -->
<g id="edge3" class="edge">
<title>Node3&#45;&gt;Node0</title>
<path fill="none" stroke="#191970" d="M134.9524,-108.2473C157.4722,-98.0771 187.5617,-84.4883 207.4618,-75.5011"/>
<polygon fill="#191970" stroke="#191970" points="133.4895,-105.0675 125.8164,-112.3733 136.3706,-111.4471 133.4895,-105.0675"/>
</g>
<!-- Node4 -->
<g id="node5" class="node">
<title>Node4</title>
<g id="a_node5"><a xlink:href="classAmcCarrierBsa.html" target="_top" xlink:title="AmcCarrierBsa">
<polygon fill="#ffffff" stroke="#000000" points="300,-112.5 300,-131.5 389,-131.5 389,-112.5 300,-112.5"/>
<text text-anchor="middle" x="344.5" y="-119.5" font-family="Helvetica,sans-Serif" font-size="10.00" fill="#000000">AmcCarrierBsa</text>
</a>
</g>
</g>
<!-- Node4&#45;&gt;Node0 -->
<g id="edge5" class="edge">
<title>Node4&#45;&gt;Node0</title>
<path fill="none" stroke="#191970" d="M315.4463,-107.9741C294.4435,-97.8348 266.6309,-84.408 248.1809,-75.5011"/>
<polygon fill="#191970" stroke="#191970" points="314.0317,-111.1776 324.5589,-112.3733 317.075,-104.8738 314.0317,-111.1776"/>
</g>
<!-- Node5 -->
<g id="node6" class="node">
<title>Node5</title>
<g id="a_node6"><a xlink:href="classBsaWaveformEngine.html" target="_top" xlink:title="BsaWaveformEngine(2)">
<polygon fill="#ffffff" stroke="#000000" points="146,-168.5 146,-187.5 277,-187.5 277,-168.5 146,-168.5"/>
<text text-anchor="middle" x="211.5" y="-175.5" font-family="Helvetica,sans-Serif" font-size="10.00" fill="#000000">BsaWaveformEngine(2)</text>
</a>
</g>
</g>
<!-- Node5&#45;&gt;Node4 -->
<g id="edge6" class="edge">
<title>Node5&#45;&gt;Node4</title>
<path fill="none" stroke="#191970" d="M243.8397,-164.3833C268.0285,-154.1985 300.495,-140.5284 321.9348,-131.5011"/>
<polygon fill="#191970" stroke="#191970" points="242.2217,-161.2669 234.3635,-168.3733 244.9381,-167.7184 242.2217,-161.2669"/>
</g>
<!-- Node6 -->
<g id="node7" class="node">
<title>Node6</title>
<g id="a_node7"><a xlink:href="classBsaBufferControl.html" target="_top" xlink:title="BsaBufferControl">
<polygon fill="#ffffff" stroke="#000000" points="295,-168.5 295,-187.5 394,-187.5 394,-168.5 295,-168.5"/>
<text text-anchor="middle" x="344.5" y="-175.5" font-family="Helvetica,sans-Serif" font-size="10.00" fill="#000000">BsaBufferControl</text>
</a>
</g>
</g>
<!-- Node6&#45;&gt;Node4 -->
<g id="edge7" class="edge">
<title>Node6&#45;&gt;Node4</title>
<path fill="none" stroke="#191970" d="M344.5,-158.1575C344.5,-149.155 344.5,-138.9199 344.5,-131.6427"/>
<polygon fill="#191970" stroke="#191970" points="341.0001,-158.2455 344.5,-168.2455 348.0001,-158.2456 341.0001,-158.2455"/>
</g>
<!-- Node7 -->
<g id="node8" class="node">
<title>Node7</title>
<g id="a_node8"><a xlink:href="classBsaAccumulator.html" target="_top" xlink:title="BsaAccumulator">
<polygon fill="#ffffff" stroke="#000000" points="296.5,-224.5 296.5,-243.5 392.5,-243.5 392.5,-224.5 296.5,-224.5"/>
<text text-anchor="middle" x="344.5" y="-231.5" font-family="Helvetica,sans-Serif" font-size="10.00" fill="#000000">BsaAccumulator</text>
</a>
</g>
</g>
<!-- Node7&#45;&gt;Node6 -->
<g id="edge8" class="edge">
<title>Node7&#45;&gt;Node6</title>
<path fill="none" stroke="#191970" d="M344.5,-214.1575C344.5,-205.155 344.5,-194.9199 344.5,-187.6427"/>
<polygon fill="#191970" stroke="#191970" points="341.0001,-214.2455 344.5,-224.2455 348.0001,-214.2456 341.0001,-214.2455"/>
</g>
<!-- Node8 -->
<g id="node9" class="node">
<title>Node8</title>
<g id="a_node9"><a xlink:href="classBsaAxiInterconnectWrapper.html" target="_top" xlink:title="BsaAxiInterconnectWrapper">
<polygon fill="#ffffff" stroke="#000000" points="412.5,-168.5 412.5,-187.5 564.5,-187.5 564.5,-168.5 412.5,-168.5"/>
<text text-anchor="middle" x="488.5" y="-175.5" font-family="Helvetica,sans-Serif" font-size="10.00" fill="#000000">BsaAxiInterconnectWrapper</text>
</a>
</g>
</g>
<!-- Node8&#45;&gt;Node4 -->
<g id="edge9" class="edge">
<title>Node8&#45;&gt;Node4</title>
<path fill="none" stroke="#191970" d="M454.1818,-164.6541C427.922,-154.4419 392.3508,-140.6086 368.9315,-131.5011"/>
<polygon fill="#191970" stroke="#191970" points="453.1569,-168.0108 463.7455,-168.3733 455.694,-161.4867 453.1569,-168.0108"/>
</g>
<!-- Node9 -->
<g id="node10" class="node">
<title>Node9</title>
<g id="a_node10"><a xlink:href="classAmcCarrierDdrMem.html" target="_top" xlink:title="AmcCarrierDdrMem">
<polygon fill="#ffffff" stroke="#000000" points="407,-112.5 407,-131.5 520,-131.5 520,-112.5 407,-112.5"/>
<text text-anchor="middle" x="463.5" y="-119.5" font-family="Helvetica,sans-Serif" font-size="10.00" fill="#000000">AmcCarrierDdrMem</text>
</a>
</g>
</g>
<!-- Node9&#45;&gt;Node0 -->
<g id="edge10" class="edge">
<title>Node9&#45;&gt;Node0</title>
<path fill="none" stroke="#191970" d="M413.6148,-110.1125C370.348,-99.8021 308.5396,-85.0733 268.4654,-75.5237"/>
<polygon fill="#191970" stroke="#191970" points="412.8301,-113.5234 423.3691,-112.4369 414.4528,-106.7141 412.8301,-113.5234"/>
</g>
</g>
</svg>
