<?xml version="1.0" encoding="UTF-8" standalone="no"?>
<!DOCTYPE svg PUBLIC "-//W3C//DTD SVG 1.1//EN"
 "http://www.w3.org/Graphics/SVG/1.1/DTD/svg11.dtd">
<!-- Generated by graphviz version 2.40.1 (20161225.0304)
 -->
<!-- Title: DacSigGen Pages: 1 -->
<svg width="207pt" height="140pt"
 viewBox="0.00 0.00 206.50 140.00" xmlns="http://www.w3.org/2000/svg" xmlns:xlink="http://www.w3.org/1999/xlink">
<g id="graph0" class="graph" transform="scale(1 1) rotate(0) translate(4 136)">
<title>DacSigGen</title>
<polygon fill="#ffffff" stroke="transparent" points="-4,4 -4,-136 202.5,-136 202.5,4 -4,4"/>
<!-- Node0 -->
<g id="node1" class="node">
<title>Node0</title>
<polygon fill="#bfbfbf" stroke="#000000" points="63,-56.5 63,-75.5 133,-75.5 133,-56.5 63,-56.5"/>
<text text-anchor="middle" x="98" y="-63.5" font-family="Helvetica,sans-Serif" font-size="10.00" fill="#000000">DacSigGen</text>
</g>
<!-- Node3 -->
<g id="node4" class="node">
<title>Node3</title>
<g id="a_node4"><a xlink:href="classAppTop.html" target="_top" xlink:title="AppTop">
<polygon fill="#ffffff" stroke="#000000" points="30,-.5 30,-19.5 82,-19.5 82,-.5 30,-.5"/>
<text text-anchor="middle" x="56" y="-7.5" font-family="Helvetica,sans-Serif" font-size="10.00" fill="#000000">AppTop</text>
</a>
</g>
</g>
<!-- Node0&#45;&gt;Node3 -->
<g id="edge3" class="edge">
<title>Node0&#45;&gt;Node3</title>
<path fill="none" stroke="#191970" d="M84.6584,-48.2112C77.5604,-38.7472 69.1097,-27.4797 63.232,-19.6427"/>
<polygon fill="#191970" stroke="#191970" points="81.8841,-50.3455 90.6842,-56.2455 87.4841,-46.1455 81.8841,-50.3455"/>
</g>
<!-- Node4 -->
<g id="node5" class="node">
<title>Node4</title>
<g id="a_node5"><a xlink:href="classDacSigGenTb.html" target="_top" xlink:title="DacSigGenTb">
<polygon fill="#ffffff" stroke="#000000" points="100,-.5 100,-19.5 182,-19.5 182,-.5 100,-.5"/>
<text text-anchor="middle" x="141" y="-7.5" font-family="Helvetica,sans-Serif" font-size="10.00" fill="#000000">DacSigGenTb</text>
</a>
</g>
</g>
<!-- Node0&#45;&gt;Node4 -->
<g id="edge4" class="edge">
<title>Node0&#45;&gt;Node4</title>
<path fill="none" stroke="#191970" d="M111.6592,-48.2112C118.9263,-38.7472 127.5781,-27.4797 133.5958,-19.6427"/>
<polygon fill="#191970" stroke="#191970" points="108.8043,-46.1824 105.49,-56.2455 114.3564,-50.4456 108.8043,-46.1824"/>
</g>
<!-- Node1 -->
<g id="node2" class="node">
<title>Node1</title>
<g id="a_node2"><a xlink:href="classDacSigGenReg.html" target="_top" xlink:title="DacSigGenReg">
<polygon fill="#ffffff" stroke="#000000" points="0,-112.5 0,-131.5 88,-131.5 88,-112.5 0,-112.5"/>
<text text-anchor="middle" x="44" y="-119.5" font-family="Helvetica,sans-Serif" font-size="10.00" fill="#000000">DacSigGenReg</text>
</a>
</g>
</g>
<!-- Node1&#45;&gt;Node0 -->
<g id="edge1" class="edge">
<title>Node1&#45;&gt;Node0</title>
<path fill="none" stroke="#191970" d="M60.5969,-104.7884C69.8347,-95.2085 80.9904,-83.6396 88.7017,-75.6427"/>
<polygon fill="#191970" stroke="#191970" points="57.828,-102.6176 53.4061,-112.2455 62.8669,-107.4766 57.828,-102.6176"/>
</g>
<!-- Node2 -->
<g id="node3" class="node">
<title>Node2</title>
<g id="a_node3"><a xlink:href="classDacSigGenLane.html" target="_top" xlink:title="DacSigGenLane">
<polygon fill="#ffffff" stroke="#000000" points="105.5,-112.5 105.5,-131.5 198.5,-131.5 198.5,-112.5 105.5,-112.5"/>
<text text-anchor="middle" x="152" y="-119.5" font-family="Helvetica,sans-Serif" font-size="10.00" fill="#000000">DacSigGenLane</text>
</a>
</g>
</g>
<!-- Node2&#45;&gt;Node0 -->
<g id="edge2" class="edge">
<title>Node2&#45;&gt;Node0</title>
<path fill="none" stroke="#191970" d="M135.4031,-104.7884C126.1653,-95.2085 115.0096,-83.6396 107.2983,-75.6427"/>
<polygon fill="#191970" stroke="#191970" points="133.1331,-107.4766 142.5939,-112.2455 138.172,-102.6176 133.1331,-107.4766"/>
</g>
</g>
</svg>
