<?xml version="1.0" encoding="UTF-8" standalone="no"?>
<!DOCTYPE svg PUBLIC "-//W3C//DTD SVG 1.1//EN"
 "http://www.w3.org/Graphics/SVG/1.1/DTD/svg11.dtd">
<!-- Generated by graphviz version 2.40.1 (20161225.0304)
 -->
<!-- Title: DaqLane Pages: 1 -->
<svg width="184pt" height="196pt"
 viewBox="0.00 0.00 184.00 196.00" xmlns="http://www.w3.org/2000/svg" xmlns:xlink="http://www.w3.org/1999/xlink">
<g id="graph0" class="graph" transform="scale(1 1) rotate(0) translate(4 192)">
<title>DaqLane</title>
<polygon fill="#ffffff" stroke="transparent" points="-4,4 -4,-192 180,-192 180,4 -4,4"/>
<!-- Node0 -->
<g id="node1" class="node">
<title>Node0</title>
<polygon fill="#bfbfbf" stroke="#000000" points="54,-112.5 54,-131.5 113,-131.5 113,-112.5 54,-112.5"/>
<text text-anchor="middle" x="83.5" y="-119.5" font-family="Helvetica,sans-Serif" font-size="10.00" fill="#000000">DaqLane</text>
</g>
<!-- Node3 -->
<g id="node4" class="node">
<title>Node3</title>
<g id="a_node4"><a xlink:href="classDaqMuxV2.html" target="_top" xlink:title="DaqMuxV2">
<polygon fill="#ffffff" stroke="#000000" points="49,-56.5 49,-75.5 118,-75.5 118,-56.5 49,-56.5"/>
<text text-anchor="middle" x="83.5" y="-63.5" font-family="Helvetica,sans-Serif" font-size="10.00" fill="#000000">DaqMuxV2</text>
</a>
</g>
</g>
<!-- Node0&#45;&gt;Node3 -->
<g id="edge3" class="edge">
<title>Node0&#45;&gt;Node3</title>
<path fill="none" stroke="#191970" d="M83.5,-102.1575C83.5,-93.155 83.5,-82.9199 83.5,-75.6427"/>
<polygon fill="#191970" stroke="#191970" points="80.0001,-102.2455 83.5,-112.2455 87.0001,-102.2456 80.0001,-102.2455"/>
</g>
<!-- Node1 -->
<g id="node2" class="node">
<title>Node1</title>
<g id="a_node2"><a xlink:href="classDaqTestSig.html" target="_top" xlink:title="DaqTestSig">
<polygon fill="#ffffff" stroke="#000000" points="0,-168.5 0,-187.5 71,-187.5 71,-168.5 0,-168.5"/>
<text text-anchor="middle" x="35.5" y="-175.5" font-family="Helvetica,sans-Serif" font-size="10.00" fill="#000000">DaqTestSig</text>
</a>
</g>
</g>
<!-- Node1&#45;&gt;Node0 -->
<g id="edge1" class="edge">
<title>Node1&#45;&gt;Node0</title>
<path fill="none" stroke="#191970" d="M50.4997,-160.5004C58.6622,-150.9775 68.4489,-139.5596 75.2349,-131.6427"/>
<polygon fill="#191970" stroke="#191970" points="47.7115,-158.3752 43.861,-168.2455 53.0263,-162.9307 47.7115,-158.3752"/>
</g>
<!-- Node2 -->
<g id="node3" class="node">
<title>Node2</title>
<g id="a_node3"><a xlink:href="classDaqDecimator.html" target="_top" xlink:title="DaqDecimator">
<polygon fill="#ffffff" stroke="#000000" points="89,-168.5 89,-187.5 176,-187.5 176,-168.5 89,-168.5"/>
<text text-anchor="middle" x="132.5" y="-175.5" font-family="Helvetica,sans-Serif" font-size="10.00" fill="#000000">DaqDecimator</text>
</a>
</g>
</g>
<!-- Node2&#45;&gt;Node0 -->
<g id="edge2" class="edge">
<title>Node2&#45;&gt;Node0</title>
<path fill="none" stroke="#191970" d="M117.1878,-160.5004C108.8553,-150.9775 98.8647,-139.5596 91.9373,-131.6427"/>
<polygon fill="#191970" stroke="#191970" points="114.7457,-163.0245 123.9649,-168.2455 120.0138,-158.415 114.7457,-163.0245"/>
</g>
<!-- Node4 -->
<g id="node5" class="node">
<title>Node4</title>
<g id="a_node5"><a xlink:href="classAppTop.html" target="_top" xlink:title="AppTop">
<polygon fill="#ffffff" stroke="#000000" points="15.5,-.5 15.5,-19.5 67.5,-19.5 67.5,-.5 15.5,-.5"/>
<text text-anchor="middle" x="41.5" y="-7.5" font-family="Helvetica,sans-Serif" font-size="10.00" fill="#000000">AppTop</text>
</a>
</g>
</g>
<!-- Node3&#45;&gt;Node4 -->
<g id="edge4" class="edge">
<title>Node3&#45;&gt;Node4</title>
<path fill="none" stroke="#191970" d="M70.1584,-48.2112C63.0604,-38.7472 54.6097,-27.4797 48.732,-19.6427"/>
<polygon fill="#191970" stroke="#191970" points="67.3841,-50.3455 76.1842,-56.2455 72.9841,-46.1455 67.3841,-50.3455"/>
</g>
<!-- Node5 -->
<g id="node6" class="node">
<title>Node5</title>
<g id="a_node6"><a xlink:href="classDaqMuxV2Tb.html" target="_top" xlink:title="DaqMuxV2Tb">
<polygon fill="#ffffff" stroke="#000000" points="86,-.5 86,-19.5 167,-19.5 167,-.5 86,-.5"/>
<text text-anchor="middle" x="126.5" y="-7.5" font-family="Helvetica,sans-Serif" font-size="10.00" fill="#000000">DaqMuxV2Tb</text>
</a>
</g>
</g>
<!-- Node3&#45;&gt;Node5 -->
<g id="edge5" class="edge">
<title>Node3&#45;&gt;Node5</title>
<path fill="none" stroke="#191970" d="M97.1592,-48.2112C104.4263,-38.7472 113.0781,-27.4797 119.0958,-19.6427"/>
<polygon fill="#191970" stroke="#191970" points="94.3043,-46.1824 90.99,-56.2455 99.8564,-50.4456 94.3043,-46.1824"/>
</g>
</g>
</svg>
