<?xml version="1.0" encoding="UTF-8" standalone="no"?>
<!DOCTYPE svg PUBLIC "-//W3C//DTD SVG 1.1//EN"
 "http://www.w3.org/Graphics/SVG/1.1/DTD/svg11.dtd">
<!-- Generated by graphviz version 2.43.0 (0)
 -->
<!-- Title: AppTop Pages: 1 -->
<svg width="456pt" height="256pt"
 viewBox="0.00 0.00 456.00 256.00" xmlns="http://www.w3.org/2000/svg" xmlns:xlink="http://www.w3.org/1999/xlink">
<g id="graph0" class="graph" transform="scale(1 1) rotate(0) translate(4 252)">
<title>AppTop</title>
<polygon fill="white" stroke="transparent" points="-4,4 -4,-252 452,-252 452,4 -4,4"/>
<!-- Node1 -->
<g id="node1" class="node">
<title>Node1</title>
<g id="a_node1"><a xlink:title=" ">
<polygon fill="#bfbfbf" stroke="black" points="396,-95.5 396,-114.5 448,-114.5 448,-95.5 396,-95.5"/>
<text text-anchor="middle" x="422" y="-102.5" font-family="Helvetica,sans-Serif" font-size="10.00">AppTop</text>
</a>
</g>
</g>
<!-- Node2 -->
<g id="node2" class="node">
<title>Node2</title>
<g id="a_node2"><a xlink:href="classDaqMuxV2.html" target="_top" xlink:title=" ">
<polygon fill="white" stroke="black" points="275.5,-171.5 275.5,-190.5 358.5,-190.5 358.5,-171.5 275.5,-171.5"/>
<text text-anchor="middle" x="317" y="-178.5" font-family="Helvetica,sans-Serif" font-size="10.00">DaqMuxV2(4)</text>
</a>
</g>
</g>
<!-- Node2&#45;&gt;Node1 -->
<g id="edge1" class="edge">
<title>Node2&#45;&gt;Node1</title>
<path fill="none" stroke="midnightblue" d="M339.23,-165.33C359.94,-150.05 390.78,-127.3 408.06,-114.55"/>
<polygon fill="midnightblue" stroke="midnightblue" points="337.01,-162.62 331.05,-171.37 341.17,-168.25 337.01,-162.62"/>
</g>
<!-- Node3 -->
<g id="node3" class="node">
<title>Node3</title>
<g id="a_node3"><a xlink:href="classDaqRegItf.html" target="_top" xlink:title=" ">
<polygon fill="white" stroke="black" points="148,-228.5 148,-247.5 213,-247.5 213,-228.5 148,-228.5"/>
<text text-anchor="middle" x="180.5" y="-235.5" font-family="Helvetica,sans-Serif" font-size="10.00">DaqRegItf</text>
</a>
</g>
</g>
<!-- Node3&#45;&gt;Node2 -->
<g id="edge2" class="edge">
<title>Node3&#45;&gt;Node2</title>
<path fill="none" stroke="midnightblue" d="M221.94,-225.11C227.38,-223.17 232.85,-221.11 238,-219 259.05,-210.38 282.4,-198.71 298.02,-190.58"/>
<polygon fill="midnightblue" stroke="midnightblue" points="220.57,-221.88 212.26,-228.46 222.86,-228.5 220.57,-221.88"/>
</g>
<!-- Node4 -->
<g id="node4" class="node">
<title>Node4</title>
<g id="a_node4"><a xlink:href="classDaqTrigger.html" target="_top" xlink:title=" ">
<polygon fill="white" stroke="black" points="146,-190.5 146,-209.5 215,-209.5 215,-190.5 146,-190.5"/>
<text text-anchor="middle" x="180.5" y="-197.5" font-family="Helvetica,sans-Serif" font-size="10.00">DaqTrigger</text>
</a>
</g>
</g>
<!-- Node4&#45;&gt;Node2 -->
<g id="edge3" class="edge">
<title>Node4&#45;&gt;Node2</title>
<path fill="none" stroke="midnightblue" d="M225.29,-193.81C241.33,-191.55 259.4,-189 275.16,-186.77"/>
<polygon fill="midnightblue" stroke="midnightblue" points="224.51,-190.39 215.09,-195.25 225.48,-197.32 224.51,-190.39"/>
</g>
<!-- Node5 -->
<g id="node5" class="node">
<title>Node5</title>
<g id="a_node5"><a xlink:href="classDaqLane.html" target="_top" xlink:title=" ">
<polygon fill="white" stroke="black" points="151,-152.5 151,-171.5 210,-171.5 210,-152.5 151,-152.5"/>
<text text-anchor="middle" x="180.5" y="-159.5" font-family="Helvetica,sans-Serif" font-size="10.00">DaqLane</text>
</a>
</g>
</g>
<!-- Node5&#45;&gt;Node2 -->
<g id="edge4" class="edge">
<title>Node5&#45;&gt;Node2</title>
<path fill="none" stroke="midnightblue" d="M220.31,-167.48C237.54,-169.92 257.82,-172.78 275.27,-175.25"/>
<polygon fill="midnightblue" stroke="midnightblue" points="220.42,-163.96 210.02,-166.03 219.44,-170.89 220.42,-163.96"/>
</g>
<!-- Node6 -->
<g id="node6" class="node">
<title>Node6</title>
<g id="a_node6"><a xlink:href="classDaqTestSig.html" target="_top" xlink:title=" ">
<polygon fill="white" stroke="black" points="8,-171.5 8,-190.5 79,-190.5 79,-171.5 8,-171.5"/>
<text text-anchor="middle" x="43.5" y="-178.5" font-family="Helvetica,sans-Serif" font-size="10.00">DaqTestSig</text>
</a>
</g>
</g>
<!-- Node6&#45;&gt;Node5 -->
<g id="edge5" class="edge">
<title>Node6&#45;&gt;Node5</title>
<path fill="none" stroke="midnightblue" d="M89.23,-174.7C109.51,-171.85 132.89,-168.56 150.77,-166.04"/>
<polygon fill="midnightblue" stroke="midnightblue" points="88.68,-171.25 79.27,-176.11 89.66,-178.18 88.68,-171.25"/>
</g>
<!-- Node7 -->
<g id="node7" class="node">
<title>Node7</title>
<g id="a_node7"><a xlink:href="classDaqDecimator.html" target="_top" xlink:title=" ">
<polygon fill="white" stroke="black" points="0,-133.5 0,-152.5 87,-152.5 87,-133.5 0,-133.5"/>
<text text-anchor="middle" x="43.5" y="-140.5" font-family="Helvetica,sans-Serif" font-size="10.00">DaqDecimator</text>
</a>
</g>
</g>
<!-- Node7&#45;&gt;Node5 -->
<g id="edge6" class="edge">
<title>Node7&#45;&gt;Node5</title>
<path fill="none" stroke="midnightblue" d="M97.15,-150.41C115.37,-152.97 135.12,-155.75 150.7,-157.95"/>
<polygon fill="midnightblue" stroke="midnightblue" points="97.61,-146.94 87.21,-149.01 96.63,-153.87 97.61,-146.94"/>
</g>
<!-- Node8 -->
<g id="node8" class="node">
<title>Node8</title>
<g id="a_node8"><a xlink:href="classAppTopJesd.html" target="_top" xlink:title=" ">
<polygon fill="white" stroke="black" points="274,-95.5 274,-114.5 360,-114.5 360,-95.5 274,-95.5"/>
<text text-anchor="middle" x="317" y="-102.5" font-family="Helvetica,sans-Serif" font-size="10.00">AppTopJesd(4)</text>
</a>
</g>
</g>
<!-- Node8&#45;&gt;Node1 -->
<g id="edge7" class="edge">
<title>Node8&#45;&gt;Node1</title>
<path fill="none" stroke="midnightblue" d="M370.23,-105C379.16,-105 388.06,-105 395.86,-105"/>
<polygon fill="midnightblue" stroke="midnightblue" points="370.19,-101.5 360.19,-105 370.19,-108.5 370.19,-101.5"/>
</g>
<!-- Node9 -->
<g id="node9" class="node">
<title>Node9</title>
<g id="a_node9"><a xlink:href="classAmcCarrierIbufGt.html" target="_top" xlink:title=" ">
<polygon fill="white" stroke="black" points="123,-114.5 123,-133.5 238,-133.5 238,-114.5 123,-114.5"/>
<text text-anchor="middle" x="180.5" y="-121.5" font-family="Helvetica,sans-Serif" font-size="10.00">AmcCarrierIbufGt(5)</text>
</a>
</g>
</g>
<!-- Node9&#45;&gt;Node8 -->
<g id="edge8" class="edge">
<title>Node9&#45;&gt;Node8</title>
<path fill="none" stroke="midnightblue" d="M248.28,-114.57C256.94,-113.34 265.61,-112.12 273.72,-110.97"/>
<polygon fill="midnightblue" stroke="midnightblue" points="247.56,-111.13 238.15,-116 248.54,-118.06 247.56,-111.13"/>
</g>
<!-- Node10 -->
<g id="node10" class="node">
<title>Node10</title>
<g id="a_node10"><a xlink:href="classAppTopJesd204b.html" target="_top" xlink:title=" ">
<polygon fill="white" stroke="black" points="125.5,-76.5 125.5,-95.5 235.5,-95.5 235.5,-76.5 125.5,-76.5"/>
<text text-anchor="middle" x="180.5" y="-83.5" font-family="Helvetica,sans-Serif" font-size="10.00">AppTopJesd204b(4)</text>
</a>
</g>
</g>
<!-- Node10&#45;&gt;Node8 -->
<g id="edge9" class="edge">
<title>Node10&#45;&gt;Node8</title>
<path fill="none" stroke="midnightblue" d="M245.73,-95.07C255.29,-96.42 264.94,-97.79 273.89,-99.05"/>
<polygon fill="midnightblue" stroke="midnightblue" points="246.21,-91.61 235.82,-93.67 245.23,-98.54 246.21,-91.61"/>
</g>
<!-- Node11 -->
<g id="node11" class="node">
<title>Node11</title>
<g id="a_node11"><a xlink:href="classDacSigGen.html" target="_top" xlink:title=" ">
<polygon fill="white" stroke="black" points="275.5,-38.5 275.5,-57.5 358.5,-57.5 358.5,-38.5 275.5,-38.5"/>
<text text-anchor="middle" x="317" y="-45.5" font-family="Helvetica,sans-Serif" font-size="10.00">DacSigGen(4)</text>
</a>
</g>
</g>
<!-- Node11&#45;&gt;Node1 -->
<g id="edge10" class="edge">
<title>Node11&#45;&gt;Node1</title>
<path fill="none" stroke="midnightblue" d="M344.37,-62.59C363.05,-72.93 387.57,-86.5 403.79,-95.47"/>
<polygon fill="midnightblue" stroke="midnightblue" points="345.92,-59.45 335.47,-57.67 342.53,-65.57 345.92,-59.45"/>
</g>
<!-- Node12 -->
<g id="node12" class="node">
<title>Node12</title>
<g id="a_node12"><a xlink:href="classDacSigGenReg.html" target="_top" xlink:title=" ">
<polygon fill="white" stroke="black" points="136,-38.5 136,-57.5 225,-57.5 225,-38.5 136,-38.5"/>
<text text-anchor="middle" x="180.5" y="-45.5" font-family="Helvetica,sans-Serif" font-size="10.00">DacSigGenReg</text>
</a>
</g>
</g>
<!-- Node12&#45;&gt;Node11 -->
<g id="edge11" class="edge">
<title>Node12&#45;&gt;Node11</title>
<path fill="none" stroke="midnightblue" d="M235.2,-48C248.56,-48 262.67,-48 275.29,-48"/>
<polygon fill="midnightblue" stroke="midnightblue" points="235.17,-44.5 225.17,-48 235.17,-51.5 235.17,-44.5"/>
</g>
<!-- Node13 -->
<g id="node13" class="node">
<title>Node13</title>
<g id="a_node13"><a xlink:href="classDacSigGenLane.html" target="_top" xlink:title=" ">
<polygon fill="white" stroke="black" points="134,-0.5 134,-19.5 227,-19.5 227,-0.5 134,-0.5"/>
<text text-anchor="middle" x="180.5" y="-7.5" font-family="Helvetica,sans-Serif" font-size="10.00">DacSigGenLane</text>
</a>
</g>
</g>
<!-- Node13&#45;&gt;Node11 -->
<g id="edge12" class="edge">
<title>Node13&#45;&gt;Node11</title>
<path fill="none" stroke="midnightblue" d="M225.1,-22.32C243.58,-27.54 264.79,-33.53 282.07,-38.41"/>
<polygon fill="midnightblue" stroke="midnightblue" points="226.01,-18.94 215.44,-19.59 224.11,-25.68 226.01,-18.94"/>
</g>
</g>
</svg>
