<?xml version="1.0" encoding="UTF-8" standalone="no"?>
<!DOCTYPE svg PUBLIC "-//W3C//DTD SVG 1.1//EN"
 "http://www.w3.org/Graphics/SVG/1.1/DTD/svg11.dtd">
<!-- Generated by graphviz version 2.40.1 (20161225.0304)
 -->
<!-- Title: AmcCarrierBsa Pages: 1 -->
<svg width="427pt" height="140pt"
 viewBox="0.00 0.00 426.50 140.00" xmlns="http://www.w3.org/2000/svg" xmlns:xlink="http://www.w3.org/1999/xlink">
<g id="graph0" class="graph" transform="scale(1 1) rotate(0) translate(4 136)">
<title>AmcCarrierBsa</title>
<polygon fill="#ffffff" stroke="transparent" points="-4,4 -4,-136 422.5,-136 422.5,4 -4,4"/>
<!-- Node10 -->
<g id="node1" class="node">
<title>Node10</title>
<polygon fill="#bfbfbf" stroke="#000000" points="154,-.5 154,-19.5 243,-19.5 243,-.5 154,-.5"/>
<text text-anchor="middle" x="198.5" y="-7.5" font-family="Helvetica,sans-Serif" font-size="10.00" fill="#000000">AmcCarrierBsa</text>
</g>
<!-- Node11 -->
<g id="node2" class="node">
<title>Node11</title>
<g id="a_node2"><a xlink:href="classBsaWaveformEngine.html" target="_top" xlink:title="BsaWaveformEngine(2)">
<polygon fill="#ffffff" stroke="#000000" points="0,-56.5 0,-75.5 131,-75.5 131,-56.5 0,-56.5"/>
<text text-anchor="middle" x="65.5" y="-63.5" font-family="Helvetica,sans-Serif" font-size="10.00" fill="#000000">BsaWaveformEngine(2)</text>
</a>
</g>
</g>
<!-- Node11&#45;&gt;Node10 -->
<g id="edge1" class="edge">
<title>Node11&#45;&gt;Node10</title>
<path fill="none" stroke="#191970" d="M97.8397,-52.3833C122.0285,-42.1985 154.495,-28.5284 175.9348,-19.5011"/>
<polygon fill="#191970" stroke="#191970" points="96.2217,-49.2669 88.3635,-56.3733 98.9381,-55.7184 96.2217,-49.2669"/>
</g>
<!-- Node12 -->
<g id="node3" class="node">
<title>Node12</title>
<g id="a_node3"><a xlink:href="classBsaBufferControl.html" target="_top" xlink:title="BsaBufferControl">
<polygon fill="#ffffff" stroke="#000000" points="149,-56.5 149,-75.5 248,-75.5 248,-56.5 149,-56.5"/>
<text text-anchor="middle" x="198.5" y="-63.5" font-family="Helvetica,sans-Serif" font-size="10.00" fill="#000000">BsaBufferControl</text>
</a>
</g>
</g>
<!-- Node12&#45;&gt;Node10 -->
<g id="edge2" class="edge">
<title>Node12&#45;&gt;Node10</title>
<path fill="none" stroke="#191970" d="M198.5,-46.1575C198.5,-37.155 198.5,-26.9199 198.5,-19.6427"/>
<polygon fill="#191970" stroke="#191970" points="195.0001,-46.2455 198.5,-56.2455 202.0001,-46.2456 195.0001,-46.2455"/>
</g>
<!-- Node13 -->
<g id="node4" class="node">
<title>Node13</title>
<g id="a_node4"><a xlink:href="classBsaAccumulator.html" target="_top" xlink:title="BsaAccumulator">
<polygon fill="#ffffff" stroke="#000000" points="150.5,-112.5 150.5,-131.5 246.5,-131.5 246.5,-112.5 150.5,-112.5"/>
<text text-anchor="middle" x="198.5" y="-119.5" font-family="Helvetica,sans-Serif" font-size="10.00" fill="#000000">BsaAccumulator</text>
</a>
</g>
</g>
<!-- Node13&#45;&gt;Node12 -->
<g id="edge3" class="edge">
<title>Node13&#45;&gt;Node12</title>
<path fill="none" stroke="#191970" d="M198.5,-102.1575C198.5,-93.155 198.5,-82.9199 198.5,-75.6427"/>
<polygon fill="#191970" stroke="#191970" points="195.0001,-102.2455 198.5,-112.2455 202.0001,-102.2456 195.0001,-102.2455"/>
</g>
<!-- Node14 -->
<g id="node5" class="node">
<title>Node14</title>
<g id="a_node5"><a xlink:href="classBsaAxiInterconnectWrapper.html" target="_top" xlink:title="BsaAxiInterconnectWrapper">
<polygon fill="#ffffff" stroke="#000000" points="266.5,-56.5 266.5,-75.5 418.5,-75.5 418.5,-56.5 266.5,-56.5"/>
<text text-anchor="middle" x="342.5" y="-63.5" font-family="Helvetica,sans-Serif" font-size="10.00" fill="#000000">BsaAxiInterconnectWrapper</text>
</a>
</g>
</g>
<!-- Node14&#45;&gt;Node10 -->
<g id="edge4" class="edge">
<title>Node14&#45;&gt;Node10</title>
<path fill="none" stroke="#191970" d="M308.1818,-52.6541C281.922,-42.4419 246.3508,-28.6086 222.9315,-19.5011"/>
<polygon fill="#191970" stroke="#191970" points="307.1569,-56.0108 317.7455,-56.3733 309.694,-49.4867 307.1569,-56.0108"/>
</g>
</g>
</svg>
