<?xml version="1.0" encoding="UTF-8" standalone="no"?>
<!DOCTYPE svg PUBLIC "-//W3C//DTD SVG 1.1//EN"
 "http://www.w3.org/Graphics/SVG/1.1/DTD/svg11.dtd">
<!-- Generated by graphviz version 2.40.1 (20161225.0304)
 -->
<!-- Title: RtmCryoDetClkDiv Pages: 1 -->
<svg width="117pt" height="196pt"
 viewBox="0.00 0.00 117.00 196.00" xmlns="http://www.w3.org/2000/svg" xmlns:xlink="http://www.w3.org/1999/xlink">
<g id="graph0" class="graph" transform="scale(1 1) rotate(0) translate(4 192)">
<title>RtmCryoDetClkDiv</title>
<polygon fill="#ffffff" stroke="transparent" points="-4,4 -4,-192 113,-192 113,4 -4,4"/>
<!-- Node0 -->
<g id="node1" class="node">
<title>Node0</title>
<polygon fill="#bfbfbf" stroke="#000000" points="0,-168.5 0,-187.5 109,-187.5 109,-168.5 0,-168.5"/>
<text text-anchor="middle" x="54.5" y="-175.5" font-family="Helvetica,sans-Serif" font-size="10.00" fill="#000000">RtmCryoDetClkDiv</text>
</g>
<!-- Node1 -->
<g id="node2" class="node">
<title>Node1</title>
<g id="a_node2"><a xlink:href="classRtmCryoDetReg.html" target="_top" xlink:title="RtmCryoDetReg">
<polygon fill="#ffffff" stroke="#000000" points="7,-112.5 7,-131.5 102,-131.5 102,-112.5 7,-112.5"/>
<text text-anchor="middle" x="54.5" y="-119.5" font-family="Helvetica,sans-Serif" font-size="10.00" fill="#000000">RtmCryoDetReg</text>
</a>
</g>
</g>
<!-- Node0&#45;&gt;Node1 -->
<g id="edge1" class="edge">
<title>Node0&#45;&gt;Node1</title>
<path fill="none" stroke="#191970" d="M54.5,-158.1575C54.5,-149.155 54.5,-138.9199 54.5,-131.6427"/>
<polygon fill="#191970" stroke="#191970" points="51.0001,-158.2455 54.5,-168.2455 58.0001,-158.2456 51.0001,-158.2455"/>
</g>
<!-- Node2 -->
<g id="node3" class="node">
<title>Node2</title>
<g id="a_node3"><a xlink:href="classRtmCryoDet.html" target="_top" xlink:title="RtmCryoDet">
<polygon fill="#ffffff" stroke="#000000" points="16,-56.5 16,-75.5 93,-75.5 93,-56.5 16,-56.5"/>
<text text-anchor="middle" x="54.5" y="-63.5" font-family="Helvetica,sans-Serif" font-size="10.00" fill="#000000">RtmCryoDet</text>
</a>
</g>
</g>
<!-- Node1&#45;&gt;Node2 -->
<g id="edge2" class="edge">
<title>Node1&#45;&gt;Node2</title>
<path fill="none" stroke="#191970" d="M54.5,-102.1575C54.5,-93.155 54.5,-82.9199 54.5,-75.6427"/>
<polygon fill="#191970" stroke="#191970" points="51.0001,-102.2455 54.5,-112.2455 58.0001,-102.2456 51.0001,-102.2455"/>
</g>
<!-- Node3 -->
<g id="node4" class="node">
<title>Node3</title>
<g id="a_node4"><a xlink:href="classRtmCryoDacLutTb.html" target="_top" xlink:title="RtmCryoDacLutTb">
<polygon fill="#ffffff" stroke="#000000" points="2,-.5 2,-19.5 107,-19.5 107,-.5 2,-.5"/>
<text text-anchor="middle" x="54.5" y="-7.5" font-family="Helvetica,sans-Serif" font-size="10.00" fill="#000000">RtmCryoDacLutTb</text>
</a>
</g>
</g>
<!-- Node2&#45;&gt;Node3 -->
<g id="edge3" class="edge">
<title>Node2&#45;&gt;Node3</title>
<path fill="none" stroke="#191970" d="M54.5,-46.1575C54.5,-37.155 54.5,-26.9199 54.5,-19.6427"/>
<polygon fill="#191970" stroke="#191970" points="51.0001,-46.2455 54.5,-56.2455 58.0001,-46.2456 51.0001,-46.2455"/>
</g>
</g>
</svg>
