<?xml version="1.0" encoding="UTF-8" standalone="no"?>
<!DOCTYPE svg PUBLIC "-//W3C//DTD SVG 1.1//EN"
 "http://www.w3.org/Graphics/SVG/1.1/DTD/svg11.dtd">
<!-- Generated by graphviz version 2.43.0 (0)
 -->
<!-- Title: AmcGenericAdcDacCore Pages: 1 -->
<svg width="499pt" height="84pt"
 viewBox="0.00 0.00 498.50 84.00" xmlns="http://www.w3.org/2000/svg" xmlns:xlink="http://www.w3.org/1999/xlink">
<g id="graph0" class="graph" transform="scale(1 1) rotate(0) translate(4 80)">
<title>AmcGenericAdcDacCore</title>
<polygon fill="white" stroke="transparent" points="-4,4 -4,-80 494.5,-80 494.5,4 -4,4"/>
<!-- Node1 -->
<g id="node1" class="node">
<title>Node1</title>
<g id="a_node1"><a xlink:title=" ">
<polygon fill="#bfbfbf" stroke="black" points="137,-0.5 137,-19.5 272,-19.5 272,-0.5 137,-0.5"/>
<text text-anchor="middle" x="204.5" y="-7.5" font-family="Helvetica,sans-Serif" font-size="10.00">AmcGenericAdcDacCore</text>
</a>
</g>
</g>
<!-- Node2 -->
<g id="node2" class="node">
<title>Node2</title>
<g id="a_node2"><a xlink:href="classJesdSyncIn.html" target="_top" xlink:title=" ">
<polygon fill="white" stroke="black" points="0,-56.5 0,-75.5 83,-75.5 83,-56.5 0,-56.5"/>
<text text-anchor="middle" x="41.5" y="-63.5" font-family="Helvetica,sans-Serif" font-size="10.00">JesdSyncIn(2)</text>
</a>
</g>
</g>
<!-- Node2&#45;&gt;Node1 -->
<g id="edge1" class="edge">
<title>Node2&#45;&gt;Node1</title>
<path fill="none" stroke="midnightblue" d="M77.2,-53.17C107.9,-43 151.42,-28.59 178.79,-19.52"/>
<polygon fill="midnightblue" stroke="midnightblue" points="75.72,-49.98 67.33,-56.44 77.92,-56.62 75.72,-49.98"/>
</g>
<!-- Node3 -->
<g id="node3" class="node">
<title>Node3</title>
<g id="a_node3"><a xlink:href="classJesdSyncOut.html" target="_top" xlink:title=" ">
<polygon fill="white" stroke="black" points="101,-56.5 101,-75.5 178,-75.5 178,-56.5 101,-56.5"/>
<text text-anchor="middle" x="139.5" y="-63.5" font-family="Helvetica,sans-Serif" font-size="10.00">JesdSyncOut</text>
</a>
</g>
</g>
<!-- Node3&#45;&gt;Node1 -->
<g id="edge2" class="edge">
<title>Node3&#45;&gt;Node1</title>
<path fill="none" stroke="midnightblue" d="M157.77,-49.82C169.42,-40.15 184.1,-27.95 193.87,-19.83"/>
<polygon fill="midnightblue" stroke="midnightblue" points="155.4,-47.24 149.94,-56.32 159.87,-52.63 155.4,-47.24"/>
</g>
<!-- Node4 -->
<g id="node4" class="node">
<title>Node4</title>
<g id="a_node4"><a xlink:href="classAmcGenericAdcDacVcoSpi.html" target="_top" xlink:title=" ">
<polygon fill="white" stroke="black" points="196.5,-56.5 196.5,-75.5 342.5,-75.5 342.5,-56.5 196.5,-56.5"/>
<text text-anchor="middle" x="269.5" y="-63.5" font-family="Helvetica,sans-Serif" font-size="10.00">AmcGenericAdcDacVcoSpi</text>
</a>
</g>
</g>
<!-- Node4&#45;&gt;Node1 -->
<g id="edge3" class="edge">
<title>Node4&#45;&gt;Node1</title>
<path fill="none" stroke="midnightblue" d="M251.23,-49.82C239.58,-40.15 224.9,-27.95 215.13,-19.83"/>
<polygon fill="midnightblue" stroke="midnightblue" points="249.13,-52.63 259.06,-56.32 253.6,-47.24 249.13,-52.63"/>
</g>
<!-- Node5 -->
<g id="node5" class="node">
<title>Node5</title>
<g id="a_node5"><a xlink:href="classAmcGenericAdcDacCtrl.html" target="_top" xlink:title=" ">
<polygon fill="white" stroke="black" points="360.5,-56.5 360.5,-75.5 490.5,-75.5 490.5,-56.5 360.5,-56.5"/>
<text text-anchor="middle" x="425.5" y="-63.5" font-family="Helvetica,sans-Serif" font-size="10.00">AmcGenericAdcDacCtrl</text>
</a>
</g>
</g>
<!-- Node5&#45;&gt;Node1 -->
<g id="edge4" class="edge">
<title>Node5&#45;&gt;Node1</title>
<path fill="none" stroke="midnightblue" d="M380.58,-54.02C338.83,-43.82 277.52,-28.84 239.35,-19.52"/>
<polygon fill="midnightblue" stroke="midnightblue" points="379.94,-57.47 390.48,-56.44 381.6,-50.67 379.94,-57.47"/>
</g>
</g>
</svg>
