<?xml version="1.0" encoding="UTF-8" standalone="no"?>
<!DOCTYPE svg PUBLIC "-//W3C//DTD SVG 1.1//EN"
 "http://www.w3.org/Graphics/SVG/1.1/DTD/svg11.dtd">
<!-- Generated by graphviz version 2.40.1 (20161225.0304)
 -->
<!-- Title: AmcCarrierIbufGt Pages: 1 -->
<svg width="459pt" height="196pt"
 viewBox="0.00 0.00 458.50 196.00" xmlns="http://www.w3.org/2000/svg" xmlns:xlink="http://www.w3.org/1999/xlink">
<g id="graph0" class="graph" transform="scale(1 1) rotate(0) translate(4 192)">
<title>AmcCarrierIbufGt</title>
<polygon fill="#ffffff" stroke="transparent" points="-4,4 -4,-192 454.5,-192 454.5,4 -4,4"/>
<!-- Node0 -->
<g id="node1" class="node">
<title>Node0</title>
<polygon fill="#bfbfbf" stroke="#000000" points="259,-168.5 259,-187.5 360,-187.5 360,-168.5 259,-168.5"/>
<text text-anchor="middle" x="309.5" y="-175.5" font-family="Helvetica,sans-Serif" font-size="10.00" fill="#000000">AmcCarrierIbufGt</text>
</g>
<!-- Node1 -->
<g id="node2" class="node">
<title>Node1</title>
<g id="a_node2"><a xlink:href="classAmcCarrierCore.html" target="_top" xlink:title="AmcCarrierCore">
<polygon fill="#ffffff" stroke="#000000" points="142.5,-56.5 142.5,-75.5 236.5,-75.5 236.5,-56.5 142.5,-56.5"/>
<text text-anchor="middle" x="189.5" y="-63.5" font-family="Helvetica,sans-Serif" font-size="10.00" fill="#000000">AmcCarrierCore</text>
</a>
</g>
</g>
<!-- Node0&#45;&gt;Node1 -->
<g id="edge1" class="edge">
<title>Node0&#45;&gt;Node1</title>
<path fill="none" stroke="#191970" d="M258.814,-165.0921C240.3459,-158.0719 220.7654,-147.5371 207.5,-132 193.6187,-115.7415 190.359,-89.7171 189.647,-75.6981"/>
<polygon fill="#191970" stroke="#191970" points="257.7361,-168.4232 268.3309,-168.4508 260.0657,-161.8222 257.7361,-168.4232"/>
</g>
<!-- Node4 -->
<g id="node5" class="node">
<title>Node4</title>
<g id="a_node5"><a xlink:href="classAmcCarrierFsbl.html" target="_top" xlink:title="AmcCarrierFsbl">
<polygon fill="#ffffff" stroke="#000000" points="279,-56.5 279,-75.5 370,-75.5 370,-56.5 279,-56.5"/>
<text text-anchor="middle" x="324.5" y="-63.5" font-family="Helvetica,sans-Serif" font-size="10.00" fill="#000000">AmcCarrierFsbl</text>
</a>
</g>
</g>
<!-- Node0&#45;&gt;Node4 -->
<g id="edge4" class="edge">
<title>Node0&#45;&gt;Node4</title>
<path fill="none" stroke="#191970" d="M320.7633,-159.3325C325.022,-151.2328 329.356,-141.452 331.5,-132 335.986,-112.2226 330.9952,-88.4438 327.4378,-75.5135"/>
<polygon fill="#191970" stroke="#191970" points="317.6039,-157.8105 315.7583,-168.2433 323.7071,-161.2385 317.6039,-157.8105"/>
</g>
<!-- Node6 -->
<g id="node7" class="node">
<title>Node6</title>
<g id="a_node7"><a xlink:href="classAmcCarrierTiming.html" target="_top" xlink:title="AmcCarrierTiming">
<polygon fill="#ffffff" stroke="#000000" points="217,-112.5 217,-131.5 322,-131.5 322,-112.5 217,-112.5"/>
<text text-anchor="middle" x="269.5" y="-119.5" font-family="Helvetica,sans-Serif" font-size="10.00" fill="#000000">AmcCarrierTiming</text>
</a>
</g>
</g>
<!-- Node0&#45;&gt;Node6 -->
<g id="edge6" class="edge">
<title>Node0&#45;&gt;Node6</title>
<path fill="none" stroke="#191970" d="M296.5864,-159.9209C289.8697,-150.5176 281.9283,-139.3997 276.3876,-131.6427"/>
<polygon fill="#191970" stroke="#191970" points="293.872,-162.1425 302.5325,-168.2455 299.5682,-158.0738 293.872,-162.1425"/>
</g>
<!-- Node7 -->
<g id="node8" class="node">
<title>Node7</title>
<g id="a_node8"><a xlink:href="classAppTopJesd.html" target="_top" xlink:title="AppTopJesd">
<polygon fill="#ffffff" stroke="#000000" points="378.5,-112.5 378.5,-131.5 450.5,-131.5 450.5,-112.5 378.5,-112.5"/>
<text text-anchor="middle" x="414.5" y="-119.5" font-family="Helvetica,sans-Serif" font-size="10.00" fill="#000000">AppTopJesd</text>
</a>
</g>
</g>
<!-- Node0&#45;&gt;Node7 -->
<g id="edge9" class="edge">
<title>Node0&#45;&gt;Node7</title>
<path fill="none" stroke="#191970" d="M336.7625,-163.46C355.5522,-153.4388 380.0013,-140.3993 396.42,-131.6427"/>
<polygon fill="#191970" stroke="#191970" points="334.9661,-160.4514 327.7896,-168.2455 338.2602,-166.6278 334.9661,-160.4514"/>
</g>
<!-- Node2 -->
<g id="node3" class="node">
<title>Node2</title>
<g id="a_node3"><a xlink:href="classAmcCarrierCoreAdv.html" target="_top" xlink:title="AmcCarrierCoreAdv">
<polygon fill="#ffffff" stroke="#000000" points="0,-.5 0,-19.5 113,-19.5 113,-.5 0,-.5"/>
<text text-anchor="middle" x="56.5" y="-7.5" font-family="Helvetica,sans-Serif" font-size="10.00" fill="#000000">AmcCarrierCoreAdv</text>
</a>
</g>
</g>
<!-- Node1&#45;&gt;Node2 -->
<g id="edge2" class="edge">
<title>Node1&#45;&gt;Node2</title>
<path fill="none" stroke="#191970" d="M157.1603,-52.3833C132.9715,-42.1985 100.505,-28.5284 79.0652,-19.5011"/>
<polygon fill="#191970" stroke="#191970" points="156.0619,-55.7184 166.6365,-56.3733 158.7783,-49.2669 156.0619,-55.7184"/>
</g>
<!-- Node3 -->
<g id="node4" class="node">
<title>Node3</title>
<g id="a_node4"><a xlink:href="classAmcCarrierCoreBase.html" target="_top" xlink:title="AmcCarrierCoreBase">
<polygon fill="#ffffff" stroke="#000000" points="131.5,-.5 131.5,-19.5 249.5,-19.5 249.5,-.5 131.5,-.5"/>
<text text-anchor="middle" x="190.5" y="-7.5" font-family="Helvetica,sans-Serif" font-size="10.00" fill="#000000">AmcCarrierCoreBase</text>
</a>
</g>
</g>
<!-- Node1&#45;&gt;Node3 -->
<g id="edge3" class="edge">
<title>Node1&#45;&gt;Node3</title>
<path fill="none" stroke="#191970" d="M189.8543,-46.1575C190.0151,-37.155 190.1979,-26.9199 190.3278,-19.6427"/>
<polygon fill="#191970" stroke="#191970" points="186.3534,-46.1846 189.6742,-56.2455 193.3523,-46.3097 186.3534,-46.1846"/>
</g>
<!-- Node5 -->
<g id="node6" class="node">
<title>Node5</title>
<g id="a_node6"><a xlink:href="classAmcCarrierCoreFsbl.html" target="_top" xlink:title="AmcCarrierCoreFsbl">
<polygon fill="#ffffff" stroke="#000000" points="268,-.5 268,-19.5 381,-19.5 381,-.5 268,-.5"/>
<text text-anchor="middle" x="324.5" y="-7.5" font-family="Helvetica,sans-Serif" font-size="10.00" fill="#000000">AmcCarrierCoreFsbl</text>
</a>
</g>
</g>
<!-- Node4&#45;&gt;Node5 -->
<g id="edge5" class="edge">
<title>Node4&#45;&gt;Node5</title>
<path fill="none" stroke="#191970" d="M324.5,-46.1575C324.5,-37.155 324.5,-26.9199 324.5,-19.6427"/>
<polygon fill="#191970" stroke="#191970" points="321.0001,-46.2455 324.5,-56.2455 328.0001,-46.2456 321.0001,-46.2455"/>
</g>
<!-- Node6&#45;&gt;Node1 -->
<g id="edge7" class="edge">
<title>Node6&#45;&gt;Node1</title>
<path fill="none" stroke="#191970" d="M247.3429,-106.49C233.228,-96.6096 215.3849,-84.1194 203.2752,-75.6427"/>
<polygon fill="#191970" stroke="#191970" points="245.3656,-109.3782 255.5651,-112.2455 249.3799,-103.6436 245.3656,-109.3782"/>
</g>
<!-- Node6&#45;&gt;Node4 -->
<g id="edge8" class="edge">
<title>Node6&#45;&gt;Node4</title>
<path fill="none" stroke="#191970" d="M286.1226,-105.0751C295.5855,-95.4402 307.0969,-83.7196 315.0295,-75.6427"/>
<polygon fill="#191970" stroke="#191970" points="283.5903,-102.6585 279.0803,-112.2455 288.5845,-107.5635 283.5903,-102.6585"/>
</g>
<!-- Node8 -->
<g id="node9" class="node">
<title>Node8</title>
<g id="a_node9"><a xlink:href="classAppTop.html" target="_top" xlink:title="AppTop">
<polygon fill="#ffffff" stroke="#000000" points="388.5,-56.5 388.5,-75.5 440.5,-75.5 440.5,-56.5 388.5,-56.5"/>
<text text-anchor="middle" x="414.5" y="-63.5" font-family="Helvetica,sans-Serif" font-size="10.00" fill="#000000">AppTop</text>
</a>
</g>
</g>
<!-- Node7&#45;&gt;Node8 -->
<g id="edge10" class="edge">
<title>Node7&#45;&gt;Node8</title>
<path fill="none" stroke="#191970" d="M414.5,-102.1575C414.5,-93.155 414.5,-82.9199 414.5,-75.6427"/>
<polygon fill="#191970" stroke="#191970" points="411.0001,-102.2455 414.5,-112.2455 418.0001,-102.2456 411.0001,-102.2455"/>
</g>
</g>
</svg>
