<?xml version="1.0" encoding="UTF-8" standalone="no"?>
<!DOCTYPE svg PUBLIC "-//W3C//DTD SVG 1.1//EN"
 "http://www.w3.org/Graphics/SVG/1.1/DTD/svg11.dtd">
<!-- Generated by graphviz version 2.40.1 (20161225.0304)
 -->
<!-- Title: AppMps Pages: 1 -->
<svg width="352pt" height="196pt"
 viewBox="0.00 0.00 351.50 196.00" xmlns="http://www.w3.org/2000/svg" xmlns:xlink="http://www.w3.org/1999/xlink">
<g id="graph0" class="graph" transform="scale(1 1) rotate(0) translate(4 192)">
<title>AppMps</title>
<polygon fill="#ffffff" stroke="transparent" points="-4,4 -4,-192 347.5,-192 347.5,4 -4,4"/>
<!-- Node12 -->
<g id="node1" class="node">
<title>Node12</title>
<polygon fill="#bfbfbf" stroke="#000000" points="177,-.5 177,-19.5 232,-19.5 232,-.5 177,-.5"/>
<text text-anchor="middle" x="204.5" y="-7.5" font-family="Helvetica,sans-Serif" font-size="10.00" fill="#000000">AppMps</text>
</g>
<!-- Node13 -->
<g id="node2" class="node">
<title>Node13</title>
<g id="a_node2"><a xlink:href="classAppMpsClk.html" target="_top" xlink:title="AppMpsClk">
<polygon fill="#ffffff" stroke="#000000" points="68,-56.5 68,-75.5 139,-75.5 139,-56.5 68,-56.5"/>
<text text-anchor="middle" x="103.5" y="-63.5" font-family="Helvetica,sans-Serif" font-size="10.00" fill="#000000">AppMpsClk</text>
</a>
</g>
</g>
<!-- Node13&#45;&gt;Node12 -->
<g id="edge1" class="edge">
<title>Node13&#45;&gt;Node12</title>
<path fill="none" stroke="#191970" d="M129.9719,-51.3225C148.0125,-41.3198 171.3877,-28.3593 187.1087,-19.6427"/>
<polygon fill="#191970" stroke="#191970" points="128.1413,-48.3354 121.0929,-56.2455 131.5357,-54.4574 128.1413,-48.3354"/>
</g>
<!-- Node14 -->
<g id="node3" class="node">
<title>Node14</title>
<g id="a_node3"><a xlink:href="classAppMpsEncoder.html" target="_top" xlink:title="AppMpsEncoder">
<polygon fill="#ffffff" stroke="#000000" points="157.5,-56.5 157.5,-75.5 251.5,-75.5 251.5,-56.5 157.5,-56.5"/>
<text text-anchor="middle" x="204.5" y="-63.5" font-family="Helvetica,sans-Serif" font-size="10.00" fill="#000000">AppMpsEncoder</text>
</a>
</g>
</g>
<!-- Node14&#45;&gt;Node12 -->
<g id="edge2" class="edge">
<title>Node14&#45;&gt;Node12</title>
<path fill="none" stroke="#191970" d="M204.5,-46.1575C204.5,-37.155 204.5,-26.9199 204.5,-19.6427"/>
<polygon fill="#191970" stroke="#191970" points="201.0001,-46.2455 204.5,-56.2455 208.0001,-46.2456 201.0001,-46.2455"/>
</g>
<!-- Node15 -->
<g id="node4" class="node">
<title>Node15</title>
<g id="a_node4"><a xlink:href="classAppMpsReg.html" target="_top" xlink:title="AppMpsReg">
<polygon fill="#ffffff" stroke="#000000" points="71,-112.5 71,-131.5 144,-131.5 144,-112.5 71,-112.5"/>
<text text-anchor="middle" x="107.5" y="-119.5" font-family="Helvetica,sans-Serif" font-size="10.00" fill="#000000">AppMpsReg</text>
</a>
</g>
</g>
<!-- Node15&#45;&gt;Node14 -->
<g id="edge3" class="edge">
<title>Node15&#45;&gt;Node14</title>
<path fill="none" stroke="#191970" d="M133.4016,-107.0465C150.6609,-97.0824 172.8376,-84.2794 187.7975,-75.6427"/>
<polygon fill="#191970" stroke="#191970" points="131.3065,-104.2146 124.3961,-112.2455 134.8064,-110.2768 131.3065,-104.2146"/>
</g>
<!-- Node16 -->
<g id="node5" class="node">
<title>Node16</title>
<g id="a_node5"><a xlink:href="classAppMpsRegBase.html" target="_top" xlink:title="AppMpsRegBase">
<polygon fill="#ffffff" stroke="#000000" points="0,-168.5 0,-187.5 97,-187.5 97,-168.5 0,-168.5"/>
<text text-anchor="middle" x="48.5" y="-175.5" font-family="Helvetica,sans-Serif" font-size="10.00" fill="#000000">AppMpsRegBase</text>
</a>
</g>
</g>
<!-- Node16&#45;&gt;Node15 -->
<g id="edge4" class="edge">
<title>Node16&#45;&gt;Node15</title>
<path fill="none" stroke="#191970" d="M66.0307,-161.3607C76.2377,-151.6727 88.7469,-139.7995 97.3408,-131.6427"/>
<polygon fill="#191970" stroke="#191970" points="63.6206,-158.8227 58.777,-168.2455 68.4396,-163.8998 63.6206,-158.8227"/>
</g>
<!-- Node17 -->
<g id="node6" class="node">
<title>Node17</title>
<g id="a_node6"><a xlink:href="classAppMpsRegAppCh.html" target="_top" xlink:title="AppMpsRegAppCh">
<polygon fill="#ffffff" stroke="#000000" points="115.5,-168.5 115.5,-187.5 219.5,-187.5 219.5,-168.5 115.5,-168.5"/>
<text text-anchor="middle" x="167.5" y="-175.5" font-family="Helvetica,sans-Serif" font-size="10.00" fill="#000000">AppMpsRegAppCh</text>
</a>
</g>
</g>
<!-- Node17&#45;&gt;Node15 -->
<g id="edge5" class="edge">
<title>Node17&#45;&gt;Node15</title>
<path fill="none" stroke="#191970" d="M149.6722,-161.3607C139.2922,-151.6727 126.5709,-139.7995 117.8314,-131.6427"/>
<polygon fill="#191970" stroke="#191970" points="147.3501,-163.981 157.0488,-168.2455 152.1263,-158.8636 147.3501,-163.981"/>
</g>
<!-- Node18 -->
<g id="node7" class="node">
<title>Node18</title>
<g id="a_node7"><a xlink:href="classAppMpsSelect.html" target="_top" xlink:title="AppMpsSelect">
<polygon fill="#ffffff" stroke="#000000" points="162,-112.5 162,-131.5 247,-131.5 247,-112.5 162,-112.5"/>
<text text-anchor="middle" x="204.5" y="-119.5" font-family="Helvetica,sans-Serif" font-size="10.00" fill="#000000">AppMpsSelect</text>
</a>
</g>
</g>
<!-- Node18&#45;&gt;Node14 -->
<g id="edge6" class="edge">
<title>Node18&#45;&gt;Node14</title>
<path fill="none" stroke="#191970" d="M204.5,-102.1575C204.5,-93.155 204.5,-82.9199 204.5,-75.6427"/>
<polygon fill="#191970" stroke="#191970" points="201.0001,-102.2455 204.5,-112.2455 208.0001,-102.2456 201.0001,-102.2455"/>
</g>
<!-- Node19 -->
<g id="node8" class="node">
<title>Node19</title>
<g id="a_node8"><a xlink:href="classMpsMsgCore.html" target="_top" xlink:title="MpsMsgCore">
<polygon fill="#ffffff" stroke="#000000" points="265.5,-112.5 265.5,-131.5 343.5,-131.5 343.5,-112.5 265.5,-112.5"/>
<text text-anchor="middle" x="304.5" y="-119.5" font-family="Helvetica,sans-Serif" font-size="10.00" fill="#000000">MpsMsgCore</text>
</a>
</g>
</g>
<!-- Node19&#45;&gt;Node14 -->
<g id="edge7" class="edge">
<title>Node19&#45;&gt;Node14</title>
<path fill="none" stroke="#191970" d="M278.2902,-107.3225C260.4283,-97.3198 237.2845,-84.3593 221.7191,-75.6427"/>
<polygon fill="#191970" stroke="#191970" points="276.6461,-110.4132 287.0813,-112.2455 280.0664,-104.3057 276.6461,-110.4132"/>
</g>
<!-- Node20 -->
<g id="node9" class="node">
<title>Node20</title>
<g id="a_node9"><a xlink:href="classAppMpsSalt.html" target="_top" xlink:title="AppMpsSalt">
<polygon fill="#ffffff" stroke="#000000" points="269.5,-56.5 269.5,-75.5 343.5,-75.5 343.5,-56.5 269.5,-56.5"/>
<text text-anchor="middle" x="306.5" y="-63.5" font-family="Helvetica,sans-Serif" font-size="10.00" fill="#000000">AppMpsSalt</text>
</a>
</g>
</g>
<!-- Node20&#45;&gt;Node12 -->
<g id="edge8" class="edge">
<title>Node20&#45;&gt;Node12</title>
<path fill="none" stroke="#191970" d="M279.766,-51.3225C261.5468,-41.3198 237.9402,-28.3593 222.0634,-19.6427"/>
<polygon fill="#191970" stroke="#191970" points="278.2827,-54.5009 288.733,-56.2455 281.6516,-48.3649 278.2827,-54.5009"/>
</g>
</g>
</svg>
