<?xml version="1.0" encoding="UTF-8" standalone="no"?>
<!DOCTYPE svg PUBLIC "-//W3C//DTD SVG 1.1//EN"
 "http://www.w3.org/Graphics/SVG/1.1/DTD/svg11.dtd">
<!-- Generated by graphviz version 2.43.0 (0)
 -->
<!-- Title: AmcMpsSfpCore Pages: 1 -->
<svg width="327pt" height="140pt"
 viewBox="0.00 0.00 326.50 140.00" xmlns="http://www.w3.org/2000/svg" xmlns:xlink="http://www.w3.org/1999/xlink">
<g id="graph0" class="graph" transform="scale(1 1) rotate(0) translate(4 136)">
<title>AmcMpsSfpCore</title>
<polygon fill="white" stroke="transparent" points="-4,4 -4,-136 322.5,-136 322.5,4 -4,4"/>
<!-- Node1 -->
<g id="node1" class="node">
<title>Node1</title>
<g id="a_node1"><a xlink:title=" ">
<polygon fill="#bfbfbf" stroke="black" points="91.5,-56.5 91.5,-75.5 188.5,-75.5 188.5,-56.5 91.5,-56.5"/>
<text text-anchor="middle" x="140" y="-63.5" font-family="Helvetica,sans-Serif" font-size="10.00">AmcMpsSfpCore</text>
</a>
</g>
</g>
<!-- Node5 -->
<g id="node5" class="node">
<title>Node5</title>
<g id="a_node5"><a xlink:href="classAmcMpsSfpDualCore.html" target="_top" xlink:title=" ">
<polygon fill="white" stroke="black" points="80.5,-0.5 80.5,-19.5 199.5,-19.5 199.5,-0.5 80.5,-0.5"/>
<text text-anchor="middle" x="140" y="-7.5" font-family="Helvetica,sans-Serif" font-size="10.00">AmcMpsSfpDualCore</text>
</a>
</g>
</g>
<!-- Node1&#45;&gt;Node5 -->
<g id="edge4" class="edge">
<title>Node1&#45;&gt;Node5</title>
<path fill="none" stroke="midnightblue" d="M140,-45.8C140,-36.91 140,-26.78 140,-19.75"/>
<polygon fill="midnightblue" stroke="midnightblue" points="136.5,-46.08 140,-56.08 143.5,-46.08 136.5,-46.08"/>
</g>
<!-- Node2 -->
<g id="node2" class="node">
<title>Node2</title>
<g id="a_node2"><a xlink:href="classSi5317a.html" target="_top" xlink:title=" ">
<polygon fill="white" stroke="black" points="0,-112.5 0,-131.5 56,-131.5 56,-112.5 0,-112.5"/>
<text text-anchor="middle" x="28" y="-119.5" font-family="Helvetica,sans-Serif" font-size="10.00">Si5317a</text>
</a>
</g>
</g>
<!-- Node2&#45;&gt;Node1 -->
<g id="edge1" class="edge">
<title>Node2&#45;&gt;Node1</title>
<path fill="none" stroke="midnightblue" d="M55.25,-107.86C76.02,-97.85 104.02,-84.35 122.05,-75.65"/>
<polygon fill="midnightblue" stroke="midnightblue" points="53.48,-104.83 45.99,-112.32 56.52,-111.13 53.48,-104.83"/>
</g>
<!-- Node3 -->
<g id="node3" class="node">
<title>Node3</title>
<g id="a_node3"><a xlink:href="classAmcMpsSfpHsRepeater.html" target="_top" xlink:title=" ">
<polygon fill="white" stroke="black" points="74.5,-112.5 74.5,-131.5 205.5,-131.5 205.5,-112.5 74.5,-112.5"/>
<text text-anchor="middle" x="140" y="-119.5" font-family="Helvetica,sans-Serif" font-size="10.00">AmcMpsSfpHsRepeater</text>
</a>
</g>
</g>
<!-- Node3&#45;&gt;Node1 -->
<g id="edge2" class="edge">
<title>Node3&#45;&gt;Node1</title>
<path fill="none" stroke="midnightblue" d="M140,-101.8C140,-92.91 140,-82.78 140,-75.75"/>
<polygon fill="midnightblue" stroke="midnightblue" points="136.5,-102.08 140,-112.08 143.5,-102.08 136.5,-102.08"/>
</g>
<!-- Node4 -->
<g id="node4" class="node">
<title>Node4</title>
<g id="a_node4"><a xlink:href="classAmcMpsSfpMon.html" target="_top" xlink:title=" ">
<polygon fill="white" stroke="black" points="223.5,-112.5 223.5,-131.5 318.5,-131.5 318.5,-112.5 223.5,-112.5"/>
<text text-anchor="middle" x="271" y="-119.5" font-family="Helvetica,sans-Serif" font-size="10.00">AmcMpsSfpMon</text>
</a>
</g>
</g>
<!-- Node4&#45;&gt;Node1 -->
<g id="edge3" class="edge">
<title>Node4&#45;&gt;Node1</title>
<path fill="none" stroke="midnightblue" d="M240.68,-108.5C216.12,-98.38 182.18,-84.39 160.66,-75.52"/>
<polygon fill="midnightblue" stroke="midnightblue" points="239.66,-111.87 250.24,-112.44 242.33,-105.4 239.66,-111.87"/>
</g>
</g>
</svg>
