<?xml version="1.0" encoding="UTF-8" standalone="no"?>
<!DOCTYPE svg PUBLIC "-//W3C//DTD SVG 1.1//EN"
 "http://www.w3.org/Graphics/SVG/1.1/DTD/svg11.dtd">
<!-- Generated by graphviz version 2.40.1 (20161225.0304)
 -->
<!-- Title: AppTopJesd Pages: 1 -->
<svg width="252pt" height="140pt"
 viewBox="0.00 0.00 251.50 140.00" xmlns="http://www.w3.org/2000/svg" xmlns:xlink="http://www.w3.org/1999/xlink">
<g id="graph0" class="graph" transform="scale(1 1) rotate(0) translate(4 136)">
<title>AppTopJesd</title>
<polygon fill="#ffffff" stroke="transparent" points="-4,4 -4,-136 247.5,-136 247.5,4 -4,4"/>
<!-- Node0 -->
<g id="node1" class="node">
<title>Node0</title>
<polygon fill="#bfbfbf" stroke="#000000" points="86.5,-56.5 86.5,-75.5 158.5,-75.5 158.5,-56.5 86.5,-56.5"/>
<text text-anchor="middle" x="122.5" y="-63.5" font-family="Helvetica,sans-Serif" font-size="10.00" fill="#000000">AppTopJesd</text>
</g>
<!-- Node3 -->
<g id="node4" class="node">
<title>Node3</title>
<g id="a_node4"><a xlink:href="classAppTop.html" target="_top" xlink:title="AppTop">
<polygon fill="#ffffff" stroke="#000000" points="96.5,-.5 96.5,-19.5 148.5,-19.5 148.5,-.5 96.5,-.5"/>
<text text-anchor="middle" x="122.5" y="-7.5" font-family="Helvetica,sans-Serif" font-size="10.00" fill="#000000">AppTop</text>
</a>
</g>
</g>
<!-- Node0&#45;&gt;Node3 -->
<g id="edge3" class="edge">
<title>Node0&#45;&gt;Node3</title>
<path fill="none" stroke="#191970" d="M122.5,-46.1575C122.5,-37.155 122.5,-26.9199 122.5,-19.6427"/>
<polygon fill="#191970" stroke="#191970" points="119.0001,-46.2455 122.5,-56.2455 126.0001,-46.2456 119.0001,-46.2455"/>
</g>
<!-- Node1 -->
<g id="node2" class="node">
<title>Node1</title>
<g id="a_node2"><a xlink:href="classAmcCarrierIbufGt.html" target="_top" xlink:title="AmcCarrierIbufGt(5)">
<polygon fill="#ffffff" stroke="#000000" points="0,-112.5 0,-131.5 115,-131.5 115,-112.5 0,-112.5"/>
<text text-anchor="middle" x="57.5" y="-119.5" font-family="Helvetica,sans-Serif" font-size="10.00" fill="#000000">AmcCarrierIbufGt(5)</text>
</a>
</g>
</g>
<!-- Node1&#45;&gt;Node0 -->
<g id="edge1" class="edge">
<title>Node1&#45;&gt;Node0</title>
<path fill="none" stroke="#191970" d="M76.4835,-105.645C87.7879,-95.9058 101.747,-83.8795 111.3076,-75.6427"/>
<polygon fill="#191970" stroke="#191970" points="74.1138,-103.0668 68.8221,-112.2455 78.6827,-108.3701 74.1138,-103.0668"/>
</g>
<!-- Node2 -->
<g id="node3" class="node">
<title>Node2</title>
<g id="a_node3"><a xlink:href="classAppTopJesd204b.html" target="_top" xlink:title="AppTopJesd204b(4)">
<polygon fill="#ffffff" stroke="#000000" points="133.5,-112.5 133.5,-131.5 243.5,-131.5 243.5,-112.5 133.5,-112.5"/>
<text text-anchor="middle" x="188.5" y="-119.5" font-family="Helvetica,sans-Serif" font-size="10.00" fill="#000000">AppTopJesd204b(4)</text>
</a>
</g>
</g>
<!-- Node2&#45;&gt;Node0 -->
<g id="edge2" class="edge">
<title>Node2&#45;&gt;Node0</title>
<path fill="none" stroke="#191970" d="M169.2245,-105.645C157.7462,-95.9058 143.5723,-83.8795 133.8646,-75.6427"/>
<polygon fill="#191970" stroke="#191970" points="167.1141,-108.4445 177.0037,-112.2455 171.643,-103.1069 167.1141,-108.4445"/>
</g>
</g>
</svg>
