<?xml version="1.0" encoding="UTF-8" standalone="no"?>
<!DOCTYPE svg PUBLIC "-//W3C//DTD SVG 1.1//EN"
 "http://www.w3.org/Graphics/SVG/1.1/DTD/svg11.dtd">
<!-- Generated by graphviz version 2.40.1 (20161225.0304)
 -->
<!-- Title: AmcCarrierCoreAdv Pages: 1 -->
<!--zoomable 446 -->
<svg id="main" version="1.1" xmlns="http://www.w3.org/2000/svg" xmlns:xlink="http://www.w3.org/1999/xlink" xml:space="preserve" onload="init(evt)">
<style type="text/css"><![CDATA[
.edge:hover path { stroke: red; }
.edge:hover polygon { stroke: red; fill: red; }
]]></style>
<script type="text/javascript"><![CDATA[
var edges = document.getElementsByTagName('g');
if (edges && edges.length) {
  for (var i=0;i<edges.length;i++) {
    if (edges[i].id.substr(0,4)=='edge') {
      edges[i].setAttribute('class','edge');
    }
  }
}
]]></script>
        <defs>
                <circle id="rim" cx="0" cy="0" r="7"/>
                <circle id="rim2" cx="0" cy="0" r="3.5"/>
                <g id="zoomPlus">
                        <use xlink:href="#rim" fill="#404040">
                                <set attributeName="fill" to="#808080" begin="zoomplus.mouseover" end="zoomplus.mouseout"/>
                        </use>
                        <path d="M-4,0h8M0,-4v8" fill="none" stroke="white" stroke-width="1.5" pointer-events="none"/>
                </g>
                <g id="zoomMin">
                        <use xlink:href="#rim" fill="#404040">
                                <set attributeName="fill" to="#808080" begin="zoomminus.mouseover" end="zoomminus.mouseout"/>
                        </use>
                        <path d="M-4,0h8" fill="none" stroke="white" stroke-width="1.5" pointer-events="none"/>
                </g>
                <g id="dirArrow">
                        <path fill="none" stroke="white" stroke-width="1.5" d="M0,-3.0v7 M-2.5,-0.5L0,-3.0L2.5,-0.5"/>
                </g>
               <g id="resetDef">
                       <use xlink:href="#rim2" fill="#404040">
                               <set attributeName="fill" to="#808080" begin="reset.mouseover" end="reset.mouseout"/>
                       </use>
               </g>
        </defs>

<script type="text/javascript">
var viewWidth = 776;
var viewHeight = 446;
var sectionId = 'dynsection-1';
</script>
<script xlink:href="svgpan.js"/>
<svg id="graph" class="graph">
<g id="viewport">
<title>AmcCarrierCoreAdv</title>
<polygon fill="#ffffff" stroke="transparent" points="-4,4 -4,-442 772,-442 772,4 -4,4"/>
<!-- Node28 -->
<g id="node1" class="node">
<title>Node28</title>
<polygon fill="#bfbfbf" stroke="#000000" points="655,-304.5 655,-323.5 768,-323.5 768,-304.5 655,-304.5"/>
<text text-anchor="middle" x="711.5" y="-311.5" font-family="Helvetica,sans-Serif" font-size="10.00" fill="#000000">AmcCarrierCoreAdv</text>
</g>
<!-- Node29 -->
<g id="node2" class="node">
<title>Node29</title>
<g id="a_node2"><a xlink:href="classAmcCarrierSysReg.html" target="_top" xlink:title="AmcCarrierSysReg">
<polygon fill="#ffffff" stroke="#000000" points="512,-380.5 512,-399.5 619,-399.5 619,-380.5 512,-380.5"/>
<text text-anchor="middle" x="565.5" y="-387.5" font-family="Helvetica,sans-Serif" font-size="10.00" fill="#000000">AmcCarrierSysReg</text>
</a>
</g>
</g>
<!-- Node29&#45;&gt;Node28 -->
<g id="edge1" class="edge">
<title>Node29&#45;&gt;Node28</title>
<path fill="none" stroke="#191970" d="M592.8874,-375.7435C622.2046,-360.4826 667.8986,-336.6966 693.1591,-323.5473"/>
<polygon fill="#191970" stroke="#191970" points="591.2451,-372.6526 583.991,-380.3745 594.4773,-378.8617 591.2451,-372.6526"/>
</g>
<!-- Node30 -->
<g id="node3" class="node">
<title>Node30</title>
<g id="a_node3"><a xlink:href="classAmcCarrierSysMon.html" target="_top" xlink:title="AmcCarrierSysMon">
<polygon fill="#ffffff" stroke="#000000" points="365,-418.5 365,-437.5 474,-437.5 474,-418.5 365,-418.5"/>
<text text-anchor="middle" x="419.5" y="-425.5" font-family="Helvetica,sans-Serif" font-size="10.00" fill="#000000">AmcCarrierSysMon</text>
</a>
</g>
</g>
<!-- Node30&#45;&gt;Node29 -->
<g id="edge2" class="edge">
<title>Node30&#45;&gt;Node29</title>
<path fill="none" stroke="#191970" d="M466.036,-415.8879C486.3696,-410.5956 509.8713,-404.4787 528.923,-399.5201"/>
<polygon fill="#191970" stroke="#191970" points="465.1379,-412.5049 456.342,-418.411 466.9012,-419.2793 465.1379,-412.5049"/>
</g>
<!-- Node31 -->
<g id="node4" class="node">
<title>Node31</title>
<g id="a_node4"><a xlink:href="classAmcCarrierBsi.html" target="_top" xlink:title="AmcCarrierBsi">
<polygon fill="#ffffff" stroke="#000000" points="376.5,-380.5 376.5,-399.5 462.5,-399.5 462.5,-380.5 376.5,-380.5"/>
<text text-anchor="middle" x="419.5" y="-387.5" font-family="Helvetica,sans-Serif" font-size="10.00" fill="#000000">AmcCarrierBsi</text>
</a>
</g>
</g>
<!-- Node31&#45;&gt;Node29 -->
<g id="edge3" class="edge">
<title>Node31&#45;&gt;Node29</title>
<path fill="none" stroke="#191970" d="M472.5663,-390C485.378,-390 499.0768,-390 511.9123,-390"/>
<polygon fill="#191970" stroke="#191970" points="472.5152,-386.5001 462.5152,-390 472.5151,-393.5001 472.5152,-386.5001"/>
</g>
<!-- Node32 -->
<g id="node5" class="node">
<title>Node32</title>
<g id="a_node5"><a xlink:href="classAppMps.html" target="_top" xlink:title="AppMps">
<polygon fill="#ffffff" stroke="#000000" points="538,-304.5 538,-323.5 593,-323.5 593,-304.5 538,-304.5"/>
<text text-anchor="middle" x="565.5" y="-311.5" font-family="Helvetica,sans-Serif" font-size="10.00" fill="#000000">AppMps</text>
</a>
</g>
</g>
<!-- Node32&#45;&gt;Node28 -->
<g id="edge4" class="edge">
<title>Node32&#45;&gt;Node28</title>
<path fill="none" stroke="#191970" d="M603.6225,-314C619.2395,-314 637.6405,-314 654.7799,-314"/>
<polygon fill="#191970" stroke="#191970" points="603.3052,-310.5001 593.3051,-314 603.3051,-317.5001 603.3052,-310.5001"/>
</g>
<!-- Node33 -->
<g id="node6" class="node">
<title>Node33</title>
<g id="a_node6"><a xlink:href="classAppMpsClk.html" target="_top" xlink:title="AppMpsClk">
<polygon fill="#ffffff" stroke="#000000" points="384,-342.5 384,-361.5 455,-361.5 455,-342.5 384,-342.5"/>
<text text-anchor="middle" x="419.5" y="-349.5" font-family="Helvetica,sans-Serif" font-size="10.00" fill="#000000">AppMpsClk</text>
</a>
</g>
</g>
<!-- Node33&#45;&gt;Node32 -->
<g id="edge5" class="edge">
<title>Node33&#45;&gt;Node32</title>
<path fill="none" stroke="#191970" d="M465.1285,-340.1241C488.9957,-333.9121 517.4276,-326.512 537.9273,-321.1765"/>
<polygon fill="#191970" stroke="#191970" points="464.0116,-336.7981 455.2156,-342.7042 465.7748,-343.5724 464.0116,-336.7981"/>
</g>
<!-- Node34 -->
<g id="node7" class="node">
<title>Node34</title>
<g id="a_node7"><a xlink:href="classAppMpsEncoder.html" target="_top" xlink:title="AppMpsEncoder">
<polygon fill="#ffffff" stroke="#000000" points="372.5,-304.5 372.5,-323.5 466.5,-323.5 466.5,-304.5 372.5,-304.5"/>
<text text-anchor="middle" x="419.5" y="-311.5" font-family="Helvetica,sans-Serif" font-size="10.00" fill="#000000">AppMpsEncoder</text>
</a>
</g>
</g>
<!-- Node34&#45;&gt;Node32 -->
<g id="edge6" class="edge">
<title>Node34&#45;&gt;Node32</title>
<path fill="none" stroke="#191970" d="M477.0156,-314C497.9751,-314 520.7197,-314 537.9004,-314"/>
<polygon fill="#191970" stroke="#191970" points="476.9021,-310.5001 466.902,-314 476.902,-317.5001 476.9021,-310.5001"/>
</g>
<!-- Node35 -->
<g id="node8" class="node">
<title>Node35</title>
<g id="a_node8"><a xlink:href="classAppMpsReg.html" target="_top" xlink:title="AppMpsReg">
<polygon fill="#ffffff" stroke="#000000" points="213,-342.5 213,-361.5 286,-361.5 286,-342.5 213,-342.5"/>
<text text-anchor="middle" x="249.5" y="-349.5" font-family="Helvetica,sans-Serif" font-size="10.00" fill="#000000">AppMpsReg</text>
</a>
</g>
</g>
<!-- Node35&#45;&gt;Node34 -->
<g id="edge7" class="edge">
<title>Node35&#45;&gt;Node34</title>
<path fill="none" stroke="#191970" d="M296.4552,-341.5041C321.6632,-335.8694 352.4959,-328.9774 376.9907,-323.5021"/>
<polygon fill="#191970" stroke="#191970" points="295.3831,-338.1573 286.3875,-343.7546 296.9102,-344.9887 295.3831,-338.1573"/>
</g>
<!-- Node36 -->
<g id="node9" class="node">
<title>Node36</title>
<g id="a_node9"><a xlink:href="classAppMpsRegBase.html" target="_top" xlink:title="AppMpsRegBase">
<polygon fill="#ffffff" stroke="#000000" points="19.5,-361.5 19.5,-380.5 116.5,-380.5 116.5,-361.5 19.5,-361.5"/>
<text text-anchor="middle" x="68" y="-368.5" font-family="Helvetica,sans-Serif" font-size="10.00" fill="#000000">AppMpsRegBase</text>
</a>
</g>
</g>
<!-- Node36&#45;&gt;Node35 -->
<g id="edge8" class="edge">
<title>Node36&#45;&gt;Node35</title>
<path fill="none" stroke="#191970" d="M126.825,-364.842C155.1225,-361.8797 188.1664,-358.4206 212.8254,-355.8392"/>
<polygon fill="#191970" stroke="#191970" points="126.2199,-361.3861 116.6387,-365.9083 126.9488,-368.3481 126.2199,-361.3861"/>
</g>
<!-- Node37 -->
<g id="node10" class="node">
<title>Node37</title>
<g id="a_node10"><a xlink:href="classAppMpsRegAppCh.html" target="_top" xlink:title="AppMpsRegAppCh">
<polygon fill="#ffffff" stroke="#000000" points="16,-323.5 16,-342.5 120,-342.5 120,-323.5 16,-323.5"/>
<text text-anchor="middle" x="68" y="-330.5" font-family="Helvetica,sans-Serif" font-size="10.00" fill="#000000">AppMpsRegAppCh</text>
</a>
</g>
</g>
<!-- Node37&#45;&gt;Node35 -->
<g id="edge9" class="edge">
<title>Node37&#45;&gt;Node35</title>
<path fill="none" stroke="#191970" d="M129.9598,-339.4861C157.5085,-342.37 189.0058,-345.6673 212.7511,-348.153"/>
<polygon fill="#191970" stroke="#191970" points="130.3207,-336.0049 120.0106,-338.4446 129.5918,-342.9668 130.3207,-336.0049"/>
</g>
<!-- Node38 -->
<g id="node11" class="node">
<title>Node38</title>
<g id="a_node11"><a xlink:href="classAppMpsSelect.html" target="_top" xlink:title="AppMpsSelect">
<polygon fill="#ffffff" stroke="#000000" points="207,-304.5 207,-323.5 292,-323.5 292,-304.5 207,-304.5"/>
<text text-anchor="middle" x="249.5" y="-311.5" font-family="Helvetica,sans-Serif" font-size="10.00" fill="#000000">AppMpsSelect</text>
</a>
</g>
</g>
<!-- Node38&#45;&gt;Node34 -->
<g id="edge10" class="edge">
<title>Node38&#45;&gt;Node34</title>
<path fill="none" stroke="#191970" d="M302.4176,-314C324.8179,-314 350.702,-314 372.4277,-314"/>
<polygon fill="#191970" stroke="#191970" points="302.3982,-310.5001 292.3982,-314 302.3981,-317.5001 302.3982,-310.5001"/>
</g>
<!-- Node39 -->
<g id="node12" class="node">
<title>Node39</title>
<g id="a_node12"><a xlink:href="classMpsMsgCore.html" target="_top" xlink:title="MpsMsgCore">
<polygon fill="#ffffff" stroke="#000000" points="210.5,-266.5 210.5,-285.5 288.5,-285.5 288.5,-266.5 210.5,-266.5"/>
<text text-anchor="middle" x="249.5" y="-273.5" font-family="Helvetica,sans-Serif" font-size="10.00" fill="#000000">MpsMsgCore</text>
</a>
</g>
</g>
<!-- Node39&#45;&gt;Node34 -->
<g id="edge11" class="edge">
<title>Node39&#45;&gt;Node34</title>
<path fill="none" stroke="#191970" d="M298.424,-286.936C323.1909,-292.4721 352.9751,-299.1297 376.805,-304.4564"/>
<polygon fill="#191970" stroke="#191970" points="299.0241,-283.4838 288.5014,-284.718 297.4971,-290.3152 299.0241,-283.4838"/>
</g>
<!-- Node40 -->
<g id="node13" class="node">
<title>Node40</title>
<g id="a_node13"><a xlink:href="classAppMpsSalt.html" target="_top" xlink:title="AppMpsSalt">
<polygon fill="#ffffff" stroke="#000000" points="382.5,-266.5 382.5,-285.5 456.5,-285.5 456.5,-266.5 382.5,-266.5"/>
<text text-anchor="middle" x="419.5" y="-273.5" font-family="Helvetica,sans-Serif" font-size="10.00" fill="#000000">AppMpsSalt</text>
</a>
</g>
</g>
<!-- Node40&#45;&gt;Node32 -->
<g id="edge12" class="edge">
<title>Node40&#45;&gt;Node32</title>
<path fill="none" stroke="#191970" d="M466.1752,-288.1483C489.8079,-294.2993 517.6906,-301.5565 537.8883,-306.8134"/>
<polygon fill="#191970" stroke="#191970" points="466.9012,-284.7207 456.342,-285.589 465.1379,-291.4951 466.9012,-284.7207"/>
</g>
<!-- Node41 -->
<g id="node14" class="node">
<title>Node41</title>
<g id="a_node14"><a xlink:href="classAmcCarrierCore.html" target="_top" xlink:title="AmcCarrierCore">
<polygon fill="#ffffff" stroke="#000000" points="518.5,-171.5 518.5,-190.5 612.5,-190.5 612.5,-171.5 518.5,-171.5"/>
<text text-anchor="middle" x="565.5" y="-178.5" font-family="Helvetica,sans-Serif" font-size="10.00" fill="#000000">AmcCarrierCore</text>
</a>
</g>
</g>
<!-- Node41&#45;&gt;Node28 -->
<g id="edge13" class="edge">
<title>Node41&#45;&gt;Node28</title>
<path fill="none" stroke="#191970" d="M583.4361,-197.339C614.1233,-225.2938 675.7961,-281.4752 700.7013,-304.1628"/>
<polygon fill="#191970" stroke="#191970" points="585.7495,-194.712 576,-190.565 581.0355,-199.8867 585.7495,-194.712"/>
</g>
<!-- Node42 -->
<g id="node15" class="node">
<title>Node42</title>
<g id="a_node15"><a xlink:href="classAmcCarrierIbufGt.html" target="_top" xlink:title="AmcCarrierIbufGt">
<polygon fill="#ffffff" stroke="#000000" points="199,-228.5 199,-247.5 300,-247.5 300,-228.5 199,-228.5"/>
<text text-anchor="middle" x="249.5" y="-235.5" font-family="Helvetica,sans-Serif" font-size="10.00" fill="#000000">AmcCarrierIbufGt</text>
</a>
</g>
</g>
<!-- Node42&#45;&gt;Node41 -->
<g id="edge14" class="edge">
<title>Node42&#45;&gt;Node41</title>
<path fill="none" stroke="#191970" d="M310.3018,-238.1017C356.3959,-236.9344 420.9793,-232.6163 476,-219 501.8905,-212.5927 529.9148,-199.6194 547.5768,-190.6257"/>
<polygon fill="#191970" stroke="#191970" points="310.0969,-234.6052 300.1729,-238.3152 310.2444,-241.6036 310.0969,-234.6052"/>
</g>
<!-- Node48 -->
<g id="node21" class="node">
<title>Node48</title>
<g id="a_node21"><a xlink:href="classAmcCarrierTiming.html" target="_top" xlink:title="AmcCarrierTiming">
<polygon fill="#ffffff" stroke="#000000" points="367,-190.5 367,-209.5 472,-209.5 472,-190.5 367,-190.5"/>
<text text-anchor="middle" x="419.5" y="-197.5" font-family="Helvetica,sans-Serif" font-size="10.00" fill="#000000">AmcCarrierTiming</text>
</a>
</g>
</g>
<!-- Node42&#45;&gt;Node48 -->
<g id="edge21" class="edge">
<title>Node42&#45;&gt;Node48</title>
<path fill="none" stroke="#191970" d="M302.3981,-226.1757C326.365,-220.8184 354.3235,-214.5689 376.9103,-209.5201"/>
<polygon fill="#191970" stroke="#191970" points="301.3938,-222.8138 292.3982,-228.411 302.9209,-229.6452 301.3938,-222.8138"/>
</g>
<!-- Node43 -->
<g id="node16" class="node">
<title>Node43</title>
<g id="a_node16"><a xlink:href="classAmcCarrierEth.html" target="_top" xlink:title="AmcCarrierEth">
<polygon fill="#ffffff" stroke="#000000" points="376,-152.5 376,-171.5 463,-171.5 463,-152.5 376,-152.5"/>
<text text-anchor="middle" x="419.5" y="-159.5" font-family="Helvetica,sans-Serif" font-size="10.00" fill="#000000">AmcCarrierEth</text>
</a>
</g>
</g>
<!-- Node43&#45;&gt;Node41 -->
<g id="edge15" class="edge">
<title>Node43&#45;&gt;Node41</title>
<path fill="none" stroke="#191970" d="M473.3311,-169.0054C488.1217,-170.9302 504.0422,-173.0021 518.4208,-174.8733"/>
<polygon fill="#191970" stroke="#191970" points="473.6729,-165.5205 463.3048,-167.7006 472.7695,-172.4619 473.6729,-165.5205"/>
</g>
<!-- Node44 -->
<g id="node17" class="node">
<title>Node44</title>
<g id="a_node17"><a xlink:href="classAmcCarrierRssi.html" target="_top" xlink:title="AmcCarrierRssi(2)">
<polygon fill="#ffffff" stroke="#000000" points="197,-190.5 197,-209.5 302,-209.5 302,-190.5 197,-190.5"/>
<text text-anchor="middle" x="249.5" y="-197.5" font-family="Helvetica,sans-Serif" font-size="10.00" fill="#000000">AmcCarrierRssi(2)</text>
</a>
</g>
</g>
<!-- Node44&#45;&gt;Node43 -->
<g id="edge16" class="edge">
<title>Node44&#45;&gt;Node43</title>
<path fill="none" stroke="#191970" d="M302.3981,-188.1757C326.365,-182.8184 354.3235,-176.5689 376.9103,-171.5201"/>
<polygon fill="#191970" stroke="#191970" points="301.3938,-184.8138 292.3982,-190.411 302.9209,-191.6452 301.3938,-184.8138"/>
</g>
<!-- Node45 -->
<g id="node18" class="node">
<title>Node45</title>
<g id="a_node18"><a xlink:href="classAmcCarrierRssiObFifo.html" target="_top" xlink:title="AmcCarrierRssiObFifo(2)">
<polygon fill="#ffffff" stroke="#000000" points="0,-190.5 0,-209.5 136,-209.5 136,-190.5 0,-190.5"/>
<text text-anchor="middle" x="68" y="-197.5" font-family="Helvetica,sans-Serif" font-size="10.00" fill="#000000">AmcCarrierRssiObFifo(2)</text>
</a>
</g>
</g>
<!-- Node45&#45;&gt;Node44 -->
<g id="edge17" class="edge">
<title>Node45&#45;&gt;Node44</title>
<path fill="none" stroke="#191970" d="M146.1111,-200C163.2664,-200 181.0363,-200 196.9037,-200"/>
<polygon fill="#191970" stroke="#191970" points="146.1003,-196.5001 136.1003,-200 146.1003,-203.5001 146.1003,-196.5001"/>
</g>
<!-- Node46 -->
<g id="node19" class="node">
<title>Node46</title>
<g id="a_node19"><a xlink:href="classAmcCarrierRssiInterleave.html" target="_top" xlink:title="AmcCarrierRssiInterleave(2)">
<polygon fill="#ffffff" stroke="#000000" points="172,-152.5 172,-171.5 327,-171.5 327,-152.5 172,-152.5"/>
<text text-anchor="middle" x="249.5" y="-159.5" font-family="Helvetica,sans-Serif" font-size="10.00" fill="#000000">AmcCarrierRssiInterleave(2)</text>
</a>
</g>
</g>
<!-- Node46&#45;&gt;Node43 -->
<g id="edge18" class="edge">
<title>Node46&#45;&gt;Node43</title>
<path fill="none" stroke="#191970" d="M337.3098,-162C350.7476,-162 364.0917,-162 375.9967,-162"/>
<polygon fill="#191970" stroke="#191970" points="337.0379,-158.5001 327.0378,-162 337.0378,-165.5001 337.0379,-158.5001"/>
</g>
<!-- Node47 -->
<g id="node20" class="node">
<title>Node47</title>
<g id="a_node20"><a xlink:href="classAmcCarrierRssiObFifo.html" target="_top" xlink:title="AmcCarrierRssiObFifo">
<polygon fill="#ffffff" stroke="#000000" points="7,-152.5 7,-171.5 129,-171.5 129,-152.5 7,-152.5"/>
<text text-anchor="middle" x="68" y="-159.5" font-family="Helvetica,sans-Serif" font-size="10.00" fill="#000000">AmcCarrierRssiObFifo</text>
</a>
</g>
</g>
<!-- Node47&#45;&gt;Node46 -->
<g id="edge19" class="edge">
<title>Node47&#45;&gt;Node46</title>
<path fill="none" stroke="#191970" d="M139.296,-162C149.9738,-162 161.0286,-162 171.8309,-162"/>
<polygon fill="#191970" stroke="#191970" points="139.1946,-158.5001 129.1946,-162 139.1946,-165.5001 139.1946,-158.5001"/>
</g>
<!-- Node48&#45;&gt;Node41 -->
<g id="edge20" class="edge">
<title>Node48&#45;&gt;Node41</title>
<path fill="none" stroke="#191970" d="M482.2214,-191.8376C494.2828,-190.268 506.7262,-188.6486 518.1988,-187.1556"/>
<polygon fill="#191970" stroke="#191970" points="481.674,-188.3793 472.2094,-193.1406 482.5774,-195.3207 481.674,-188.3793"/>
</g>
<!-- Node49 -->
<g id="node22" class="node">
<title>Node49</title>
<g id="a_node22"><a xlink:href="classAmcCarrierBsa.html" target="_top" xlink:title="AmcCarrierBsa">
<polygon fill="#ffffff" stroke="#000000" points="375,-95.5 375,-114.5 464,-114.5 464,-95.5 375,-95.5"/>
<text text-anchor="middle" x="419.5" y="-102.5" font-family="Helvetica,sans-Serif" font-size="10.00" fill="#000000">AmcCarrierBsa</text>
</a>
</g>
</g>
<!-- Node49&#45;&gt;Node41 -->
<g id="edge22" class="edge">
<title>Node49&#45;&gt;Node41</title>
<path fill="none" stroke="#191970" d="M446.8874,-119.2565C476.2046,-134.5174 521.8986,-158.3034 547.1591,-171.4527"/>
<polygon fill="#191970" stroke="#191970" points="448.4773,-116.1383 437.991,-114.6255 445.2451,-122.3474 448.4773,-116.1383"/>
</g>
<!-- Node50 -->
<g id="node23" class="node">
<title>Node50</title>
<g id="a_node23"><a xlink:href="classBsaWaveformEngine.html" target="_top" xlink:title="BsaWaveformEngine(2)">
<polygon fill="#ffffff" stroke="#000000" points="184,-114.5 184,-133.5 315,-133.5 315,-114.5 184,-114.5"/>
<text text-anchor="middle" x="249.5" y="-121.5" font-family="Helvetica,sans-Serif" font-size="10.00" fill="#000000">BsaWaveformEngine(2)</text>
</a>
</g>
</g>
<!-- Node50&#45;&gt;Node49 -->
<g id="edge23" class="edge">
<title>Node50&#45;&gt;Node49</title>
<path fill="none" stroke="#191970" d="M325.1679,-115.543C342.1875,-113.6408 359.7121,-111.6822 374.9681,-109.9771"/>
<polygon fill="#191970" stroke="#191970" points="324.7758,-112.0649 315.2264,-116.6541 325.5533,-119.0216 324.7758,-112.0649"/>
</g>
<!-- Node51 -->
<g id="node24" class="node">
<title>Node51</title>
<g id="a_node24"><a xlink:href="classBsaBufferControl.html" target="_top" xlink:title="BsaBufferControl">
<polygon fill="#ffffff" stroke="#000000" points="200,-76.5 200,-95.5 299,-95.5 299,-76.5 200,-76.5"/>
<text text-anchor="middle" x="249.5" y="-83.5" font-family="Helvetica,sans-Serif" font-size="10.00" fill="#000000">BsaBufferControl</text>
</a>
</g>
</g>
<!-- Node51&#45;&gt;Node49 -->
<g id="edge24" class="edge">
<title>Node51&#45;&gt;Node49</title>
<path fill="none" stroke="#191970" d="M309.166,-92.6686C330.7251,-95.0781 354.6772,-97.7551 374.7407,-99.9975"/>
<polygon fill="#191970" stroke="#191970" points="309.4549,-89.1791 299.128,-91.5467 308.6774,-96.1358 309.4549,-89.1791"/>
</g>
<!-- Node52 -->
<g id="node25" class="node">
<title>Node52</title>
<g id="a_node25"><a xlink:href="classBsaAccumulator.html" target="_top" xlink:title="BsaAccumulator">
<polygon fill="#ffffff" stroke="#000000" points="20,-76.5 20,-95.5 116,-95.5 116,-76.5 20,-76.5"/>
<text text-anchor="middle" x="68" y="-83.5" font-family="Helvetica,sans-Serif" font-size="10.00" fill="#000000">BsaAccumulator</text>
</a>
</g>
</g>
<!-- Node52&#45;&gt;Node51 -->
<g id="edge25" class="edge">
<title>Node52&#45;&gt;Node51</title>
<path fill="none" stroke="#191970" d="M126.4249,-86C150.0978,-86 177.1465,-86 199.8462,-86"/>
<polygon fill="#191970" stroke="#191970" points="126.1622,-82.5001 116.1622,-86 126.1621,-89.5001 126.1622,-82.5001"/>
</g>
<!-- Node53 -->
<g id="node26" class="node">
<title>Node53</title>
<g id="a_node26"><a xlink:href="classBsaAxiInterconnectWrapper.html" target="_top" xlink:title="BsaAxiInterconnectWrapper">
<polygon fill="#ffffff" stroke="#000000" points="173.5,-38.5 173.5,-57.5 325.5,-57.5 325.5,-38.5 173.5,-38.5"/>
<text text-anchor="middle" x="249.5" y="-45.5" font-family="Helvetica,sans-Serif" font-size="10.00" fill="#000000">BsaAxiInterconnectWrapper</text>
</a>
</g>
</g>
<!-- Node53&#45;&gt;Node49 -->
<g id="edge26" class="edge">
<title>Node53&#45;&gt;Node49</title>
<path fill="none" stroke="#191970" d="M306.0588,-60.1452C313.1907,-62.178 320.3224,-64.4635 327,-67 343.9126,-73.4243 346.372,-78.8713 363,-86 370.9897,-89.4253 379.8193,-92.6484 388.0774,-95.4332"/>
<polygon fill="#191970" stroke="#191970" points="306.9425,-56.7586 296.3758,-57.5302 305.1173,-63.5164 306.9425,-56.7586"/>
</g>
<!-- Node54 -->
<g id="node27" class="node">
<title>Node54</title>
<g id="a_node27"><a xlink:href="classBldAxiStream.html" target="_top" xlink:title="BldAxiStream">
<polygon fill="#ffffff" stroke="#000000" points="208,-.5 208,-19.5 291,-19.5 291,-.5 208,-.5"/>
<text text-anchor="middle" x="249.5" y="-7.5" font-family="Helvetica,sans-Serif" font-size="10.00" fill="#000000">BldAxiStream</text>
</a>
</g>
</g>
<!-- Node54&#45;&gt;Node49 -->
<g id="edge27" class="edge">
<title>Node54&#45;&gt;Node49</title>
<path fill="none" stroke="#191970" d="M300.7169,-16.6606C310.0301,-19.4582 319.2397,-23.4134 327,-29 351.3172,-46.5057 339.4391,-67.4889 363,-86 367.8826,-89.8361 373.5801,-92.9177 379.4423,-95.3878"/>
<polygon fill="#191970" stroke="#191970" points="301.5893,-13.2712 291.0305,-14.1446 299.8294,-20.0463 301.5893,-13.2712"/>
</g>
<!-- Node55 -->
<g id="node28" class="node">
<title>Node55</title>
<g id="a_node28"><a xlink:href="classAmcCarrierDdrMem.html" target="_top" xlink:title="AmcCarrierDdrMem">
<polygon fill="#ffffff" stroke="#000000" points="363,-57.5 363,-76.5 476,-76.5 476,-57.5 363,-57.5"/>
<text text-anchor="middle" x="419.5" y="-64.5" font-family="Helvetica,sans-Serif" font-size="10.00" fill="#000000">AmcCarrierDdrMem</text>
</a>
</g>
</g>
<!-- Node55&#45;&gt;Node41 -->
<g id="edge28" class="edge">
<title>Node55&#45;&gt;Node41</title>
<path fill="none" stroke="#191970" d="M465.9759,-80.5085C469.4676,-82.1573 472.8521,-83.9832 476,-86 513.2051,-109.8369 545.6598,-152.4802 559.0141,-171.449"/>
<polygon fill="#191970" stroke="#191970" points="467.1462,-77.2037 456.5717,-76.5483 464.4295,-83.655 467.1462,-77.2037"/>
</g>
</g>
</svg>
        <g id="navigator" transform="translate(0 0)" fill="#404254">
                <rect fill="#f2f5e9" fill-opacity="0.5" stroke="#606060" stroke-width=".5" x="0" y="0" width="60" height="60"/>
                <use id="zoomplus" xlink:href="#zoomPlus" x="17" y="9" onmousedown="handleZoom(evt,'in')"/>
                <use id="zoomminus" xlink:href="#zoomMin" x="42" y="9" onmousedown="handleZoom(evt,'out')"/>
                <use id="reset" xlink:href="#resetDef" x="30" y="36" onmousedown="handleReset()"/>
                <g id="arrowUp" xlink:href="#dirArrow" transform="translate(30 24)" onmousedown="handlePan(0,-1)">
                  <use xlink:href="#rim" fill="#404040">
                        <set attributeName="fill" to="#808080" begin="arrowUp.mouseover" end="arrowUp.mouseout"/>
                  </use>
                  <path fill="none" stroke="white" stroke-width="1.5" d="M0,-3.0v7 M-2.5,-0.5L0,-3.0L2.5,-0.5"/>
                </g>
                <g id="arrowRight" xlink:href="#dirArrow" transform="rotate(90) translate(36 -43)" onmousedown="handlePan(1,0)">
                  <use xlink:href="#rim" fill="#404040">
                        <set attributeName="fill" to="#808080" begin="arrowRight.mouseover" end="arrowRight.mouseout"/>
                  </use>
                  <path fill="none" stroke="white" stroke-width="1.5" d="M0,-3.0v7 M-2.5,-0.5L0,-3.0L2.5,-0.5"/>
                </g>
                <g id="arrowDown" xlink:href="#dirArrow" transform="rotate(180) translate(-30 -48)" onmousedown="handlePan(0,1)">
                  <use xlink:href="#rim" fill="#404040">
                        <set attributeName="fill" to="#808080" begin="arrowDown.mouseover" end="arrowDown.mouseout"/>
                  </use>
                  <path fill="none" stroke="white" stroke-width="1.5" d="M0,-3.0v7 M-2.5,-0.5L0,-3.0L2.5,-0.5"/>
                </g>
                <g id="arrowLeft" xlink:href="#dirArrow" transform="rotate(270) translate(-36 17)" onmousedown="handlePan(-1,0)">
                  <use xlink:href="#rim" fill="#404040">
                        <set attributeName="fill" to="#808080" begin="arrowLeft.mouseover" end="arrowLeft.mouseout"/>
                  </use>
                  <path fill="none" stroke="white" stroke-width="1.5" d="M0,-3.0v7 M-2.5,-0.5L0,-3.0L2.5,-0.5"/>
                </g>
        </g>
        <svg viewBox="0 0 15 15" width="100%" height="30px" preserveAspectRatio="xMaxYMin meet">
         <g id="arrow_out" transform="scale(0.3 0.3)">
          <a xlink:href="classAmcCarrierCoreAdv__coll__graph_org.svg" target="_base">
           <rect id="button" ry="5" rx="5" y="6" x="6" height="38" width="38"
                fill="#f2f5e9" fill-opacity="0.5" stroke="#606060" stroke-width="1.0"/>
           <path id="arrow"
             d="M 11.500037,31.436501 C 11.940474,20.09759 22.043105,11.32322 32.158766,21.979434 L 37.068811,17.246167 C 37.068811,17.246167 37.088388,32 37.088388,32 L 22.160133,31.978069 C 22.160133,31.978069 26.997745,27.140456 26.997745,27.140456 C 18.528582,18.264221 13.291696,25.230495 11.500037,31.436501 z"
             style="fill:#404040;"/>
          </a>
         </g>
        </svg>
</svg>
