<?xml version="1.0" encoding="UTF-8" standalone="no"?>
<!DOCTYPE svg PUBLIC "-//W3C//DTD SVG 1.1//EN"
 "http://www.w3.org/Graphics/SVG/1.1/DTD/svg11.dtd">
<!-- Generated by graphviz version 2.40.1 (20161225.0304)
 -->
<!-- Title: AppMpsReg Pages: 1 -->
<svg width="389pt" height="252pt"
 viewBox="0.00 0.00 389.00 252.00" xmlns="http://www.w3.org/2000/svg" xmlns:xlink="http://www.w3.org/1999/xlink">
<g id="graph0" class="graph" transform="scale(1 1) rotate(0) translate(4 248)">
<title>AppMpsReg</title>
<polygon fill="#ffffff" stroke="transparent" points="-4,4 -4,-248 385,-248 385,4 -4,4"/>
<!-- Node0 -->
<g id="node1" class="node">
<title>Node0</title>
<polygon fill="#bfbfbf" stroke="#000000" points="154,-168.5 154,-187.5 227,-187.5 227,-168.5 154,-168.5"/>
<text text-anchor="middle" x="190.5" y="-175.5" font-family="Helvetica,sans-Serif" font-size="10.00" fill="#000000">AppMpsReg</text>
</g>
<!-- Node3 -->
<g id="node4" class="node">
<title>Node3</title>
<g id="a_node4"><a xlink:href="classAppMpsEncoder.html" target="_top" xlink:title="AppMpsEncoder">
<polygon fill="#ffffff" stroke="#000000" points="143.5,-112.5 143.5,-131.5 237.5,-131.5 237.5,-112.5 143.5,-112.5"/>
<text text-anchor="middle" x="190.5" y="-119.5" font-family="Helvetica,sans-Serif" font-size="10.00" fill="#000000">AppMpsEncoder</text>
</a>
</g>
</g>
<!-- Node0&#45;&gt;Node3 -->
<g id="edge3" class="edge">
<title>Node0&#45;&gt;Node3</title>
<path fill="none" stroke="#191970" d="M190.5,-158.1575C190.5,-149.155 190.5,-138.9199 190.5,-131.6427"/>
<polygon fill="#191970" stroke="#191970" points="187.0001,-158.2455 190.5,-168.2455 194.0001,-158.2456 187.0001,-158.2455"/>
</g>
<!-- Node1 -->
<g id="node2" class="node">
<title>Node1</title>
<g id="a_node2"><a xlink:href="classAppMpsRegBase.html" target="_top" xlink:title="AppMpsRegBase">
<polygon fill="#ffffff" stroke="#000000" points="83,-224.5 83,-243.5 180,-243.5 180,-224.5 83,-224.5"/>
<text text-anchor="middle" x="131.5" y="-231.5" font-family="Helvetica,sans-Serif" font-size="10.00" fill="#000000">AppMpsRegBase</text>
</a>
</g>
</g>
<!-- Node1&#45;&gt;Node0 -->
<g id="edge1" class="edge">
<title>Node1&#45;&gt;Node0</title>
<path fill="none" stroke="#191970" d="M149.0307,-217.3607C159.2377,-207.6727 171.7469,-195.7995 180.3408,-187.6427"/>
<polygon fill="#191970" stroke="#191970" points="146.6206,-214.8227 141.777,-224.2455 151.4396,-219.8998 146.6206,-214.8227"/>
</g>
<!-- Node2 -->
<g id="node3" class="node">
<title>Node2</title>
<g id="a_node3"><a xlink:href="classAppMpsRegAppCh.html" target="_top" xlink:title="AppMpsRegAppCh">
<polygon fill="#ffffff" stroke="#000000" points="198.5,-224.5 198.5,-243.5 302.5,-243.5 302.5,-224.5 198.5,-224.5"/>
<text text-anchor="middle" x="250.5" y="-231.5" font-family="Helvetica,sans-Serif" font-size="10.00" fill="#000000">AppMpsRegAppCh</text>
</a>
</g>
</g>
<!-- Node2&#45;&gt;Node0 -->
<g id="edge2" class="edge">
<title>Node2&#45;&gt;Node0</title>
<path fill="none" stroke="#191970" d="M232.6722,-217.3607C222.2922,-207.6727 209.5709,-195.7995 200.8314,-187.6427"/>
<polygon fill="#191970" stroke="#191970" points="230.3501,-219.981 240.0488,-224.2455 235.1263,-214.8636 230.3501,-219.981"/>
</g>
<!-- Node4 -->
<g id="node5" class="node">
<title>Node4</title>
<g id="a_node5"><a xlink:href="classAppMps.html" target="_top" xlink:title="AppMps">
<polygon fill="#ffffff" stroke="#000000" points="163,-56.5 163,-75.5 218,-75.5 218,-56.5 163,-56.5"/>
<text text-anchor="middle" x="190.5" y="-63.5" font-family="Helvetica,sans-Serif" font-size="10.00" fill="#000000">AppMps</text>
</a>
</g>
</g>
<!-- Node3&#45;&gt;Node4 -->
<g id="edge4" class="edge">
<title>Node3&#45;&gt;Node4</title>
<path fill="none" stroke="#191970" d="M190.5,-102.1575C190.5,-93.155 190.5,-82.9199 190.5,-75.6427"/>
<polygon fill="#191970" stroke="#191970" points="187.0001,-102.2455 190.5,-112.2455 194.0001,-102.2456 187.0001,-102.2455"/>
</g>
<!-- Node5 -->
<g id="node6" class="node">
<title>Node5</title>
<g id="a_node6"><a xlink:href="classAmcCarrierCoreAdv.html" target="_top" xlink:title="AmcCarrierCoreAdv">
<polygon fill="#ffffff" stroke="#000000" points="0,-.5 0,-19.5 113,-19.5 113,-.5 0,-.5"/>
<text text-anchor="middle" x="56.5" y="-7.5" font-family="Helvetica,sans-Serif" font-size="10.00" fill="#000000">AmcCarrierCoreAdv</text>
</a>
</g>
</g>
<!-- Node4&#45;&gt;Node5 -->
<g id="edge5" class="edge">
<title>Node4&#45;&gt;Node5</title>
<path fill="none" stroke="#191970" d="M157.9172,-52.3833C133.5464,-42.1985 100.8358,-28.5284 79.2348,-19.5011"/>
<polygon fill="#191970" stroke="#191970" points="156.8883,-55.7466 167.4646,-56.3733 159.5875,-49.2879 156.8883,-55.7466"/>
</g>
<!-- Node6 -->
<g id="node7" class="node">
<title>Node6</title>
<g id="a_node7"><a xlink:href="classAmcCarrierCoreBase.html" target="_top" xlink:title="AmcCarrierCoreBase">
<polygon fill="#ffffff" stroke="#000000" points="131.5,-.5 131.5,-19.5 249.5,-19.5 249.5,-.5 131.5,-.5"/>
<text text-anchor="middle" x="190.5" y="-7.5" font-family="Helvetica,sans-Serif" font-size="10.00" fill="#000000">AmcCarrierCoreBase</text>
</a>
</g>
</g>
<!-- Node4&#45;&gt;Node6 -->
<g id="edge6" class="edge">
<title>Node4&#45;&gt;Node6</title>
<path fill="none" stroke="#191970" d="M190.5,-46.1575C190.5,-37.155 190.5,-26.9199 190.5,-19.6427"/>
<polygon fill="#191970" stroke="#191970" points="187.0001,-46.2455 190.5,-56.2455 194.0001,-46.2456 187.0001,-46.2455"/>
</g>
<!-- Node7 -->
<g id="node8" class="node">
<title>Node7</title>
<g id="a_node8"><a xlink:href="classAmcCarrierCoreFsbl.html" target="_top" xlink:title="AmcCarrierCoreFsbl">
<polygon fill="#ffffff" stroke="#000000" points="268,-.5 268,-19.5 381,-19.5 381,-.5 268,-.5"/>
<text text-anchor="middle" x="324.5" y="-7.5" font-family="Helvetica,sans-Serif" font-size="10.00" fill="#000000">AmcCarrierCoreFsbl</text>
</a>
</g>
</g>
<!-- Node4&#45;&gt;Node7 -->
<g id="edge7" class="edge">
<title>Node4&#45;&gt;Node7</title>
<path fill="none" stroke="#191970" d="M223.0828,-52.3833C247.4536,-42.1985 280.1642,-28.5284 301.7652,-19.5011"/>
<polygon fill="#191970" stroke="#191970" points="221.4125,-49.2879 213.5354,-56.3733 224.1117,-55.7466 221.4125,-49.2879"/>
</g>
</g>
</svg>
