<?xml version="1.0" encoding="UTF-8" standalone="no"?>
<!DOCTYPE svg PUBLIC "-//W3C//DTD SVG 1.1//EN"
 "http://www.w3.org/Graphics/SVG/1.1/DTD/svg11.dtd">
<!-- Generated by graphviz version 2.40.1 (20161225.0304)
 -->
<!-- Title: AppMsgTb Pages: 1 -->
<svg width="158pt" height="84pt"
 viewBox="0.00 0.00 158.00 84.00" xmlns="http://www.w3.org/2000/svg" xmlns:xlink="http://www.w3.org/1999/xlink">
<g id="graph0" class="graph" transform="scale(1 1) rotate(0) translate(4 80)">
<title>AppMsgTb</title>
<polygon fill="#ffffff" stroke="transparent" points="-4,4 -4,-80 154,-80 154,4 -4,4"/>
<!-- Node3 -->
<g id="node1" class="node">
<title>Node3</title>
<polygon fill="#bfbfbf" stroke="#000000" points="42.5,-.5 42.5,-19.5 109.5,-19.5 109.5,-.5 42.5,-.5"/>
<text text-anchor="middle" x="76" y="-7.5" font-family="Helvetica,sans-Serif" font-size="10.00" fill="#000000">AppMsgTb</text>
</g>
<!-- Node4 -->
<g id="node2" class="node">
<title>Node4</title>
<g id="a_node2"><a xlink:href="classAppMsgOb.html" target="_top" xlink:title="AppMsgOb">
<polygon fill="#ffffff" stroke="#000000" points="0,-56.5 0,-75.5 68,-75.5 68,-56.5 0,-56.5"/>
<text text-anchor="middle" x="34" y="-63.5" font-family="Helvetica,sans-Serif" font-size="10.00" fill="#000000">AppMsgOb</text>
</a>
</g>
</g>
<!-- Node4&#45;&gt;Node3 -->
<g id="edge1" class="edge">
<title>Node4&#45;&gt;Node3</title>
<path fill="none" stroke="#191970" d="M47.3416,-48.2112C54.4396,-38.7472 62.8903,-27.4797 68.768,-19.6427"/>
<polygon fill="#191970" stroke="#191970" points="44.5159,-46.1455 41.3158,-56.2455 50.1159,-50.3455 44.5159,-46.1455"/>
</g>
<!-- Node5 -->
<g id="node3" class="node">
<title>Node5</title>
<g id="a_node3"><a xlink:href="classAppMsgIb.html" target="_top" xlink:title="AppMsgIb">
<polygon fill="#ffffff" stroke="#000000" points="86,-56.5 86,-75.5 150,-75.5 150,-56.5 86,-56.5"/>
<text text-anchor="middle" x="118" y="-63.5" font-family="Helvetica,sans-Serif" font-size="10.00" fill="#000000">AppMsgIb</text>
</a>
</g>
</g>
<!-- Node5&#45;&gt;Node3 -->
<g id="edge2" class="edge">
<title>Node5&#45;&gt;Node3</title>
<path fill="none" stroke="#191970" d="M104.6584,-48.2112C97.5604,-38.7472 89.1097,-27.4797 83.232,-19.6427"/>
<polygon fill="#191970" stroke="#191970" points="101.8841,-50.3455 110.6842,-56.2455 107.4841,-46.1455 101.8841,-50.3455"/>
</g>
</g>
</svg>
