<?xml version="1.0" encoding="UTF-8" standalone="no"?>
<!DOCTYPE svg PUBLIC "-//W3C//DTD SVG 1.1//EN"
 "http://www.w3.org/Graphics/SVG/1.1/DTD/svg11.dtd">
<!-- Generated by graphviz version 2.40.1 (20161225.0304)
 -->
<!-- Title: AmcCarrierCore Pages: 1 -->
<svg width="614pt" height="294pt"
 viewBox="0.00 0.00 614.00 294.00" xmlns="http://www.w3.org/2000/svg" xmlns:xlink="http://www.w3.org/1999/xlink">
<g id="graph0" class="graph" transform="scale(1 1) rotate(0) translate(4 290)">
<title>AmcCarrierCore</title>
<polygon fill="#ffffff" stroke="transparent" points="-4,4 -4,-290 610,-290 610,4 -4,4"/>
<!-- Node19 -->
<g id="node1" class="node">
<title>Node19</title>
<polygon fill="#bfbfbf" stroke="#000000" points="512,-190.5 512,-209.5 606,-209.5 606,-190.5 512,-190.5"/>
<text text-anchor="middle" x="559" y="-197.5" font-family="Helvetica,sans-Serif" font-size="10.00" fill="#000000">AmcCarrierCore</text>
</g>
<!-- Node20 -->
<g id="node2" class="node">
<title>Node20</title>
<g id="a_node2"><a xlink:href="classAmcCarrierIbufGt.html" target="_top" xlink:title="AmcCarrierIbufGt">
<polygon fill="#ffffff" stroke="#000000" points="199,-266.5 199,-285.5 300,-285.5 300,-266.5 199,-266.5"/>
<text text-anchor="middle" x="249.5" y="-273.5" font-family="Helvetica,sans-Serif" font-size="10.00" fill="#000000">AmcCarrierIbufGt</text>
</a>
</g>
</g>
<!-- Node20&#45;&gt;Node19 -->
<g id="edge1" class="edge">
<title>Node20&#45;&gt;Node19</title>
<path fill="none" stroke="#191970" d="M310.3455,-279.2316C356.9935,-279.7493 422.2705,-276.1715 476,-257 505.3056,-246.5433 533.9852,-223.0708 548.7413,-209.7379"/>
<polygon fill="#191970" stroke="#191970" points="310.155,-275.7277 300.0942,-279.0488 310.0301,-282.7266 310.155,-275.7277"/>
</g>
<!-- Node28 -->
<g id="node10" class="node">
<title>Node28</title>
<g id="a_node10"><a xlink:href="classAmcCarrierTiming.html" target="_top" xlink:title="AmcCarrierTiming">
<polygon fill="#ffffff" stroke="#000000" points="367,-228.5 367,-247.5 472,-247.5 472,-228.5 367,-228.5"/>
<text text-anchor="middle" x="419.5" y="-235.5" font-family="Helvetica,sans-Serif" font-size="10.00" fill="#000000">AmcCarrierTiming</text>
</a>
</g>
</g>
<!-- Node20&#45;&gt;Node28 -->
<g id="edge10" class="edge">
<title>Node20&#45;&gt;Node28</title>
<path fill="none" stroke="#191970" d="M302.3981,-264.1757C326.365,-258.8184 354.3235,-252.5689 376.9103,-247.5201"/>
<polygon fill="#191970" stroke="#191970" points="301.3938,-260.8138 292.3982,-266.411 302.9209,-267.6452 301.3938,-260.8138"/>
</g>
<!-- Node21 -->
<g id="node3" class="node">
<title>Node21</title>
<g id="a_node3"><a xlink:href="classAmcCarrierEth.html" target="_top" xlink:title="AmcCarrierEth">
<polygon fill="#ffffff" stroke="#000000" points="376,-190.5 376,-209.5 463,-209.5 463,-190.5 376,-190.5"/>
<text text-anchor="middle" x="419.5" y="-197.5" font-family="Helvetica,sans-Serif" font-size="10.00" fill="#000000">AmcCarrierEth</text>
</a>
</g>
</g>
<!-- Node21&#45;&gt;Node19 -->
<g id="edge2" class="edge">
<title>Node21&#45;&gt;Node19</title>
<path fill="none" stroke="#191970" d="M473.5669,-200C486.0861,-200 499.3162,-200 511.5283,-200"/>
<polygon fill="#191970" stroke="#191970" points="473.256,-196.5001 463.2559,-200 473.2559,-203.5001 473.256,-196.5001"/>
</g>
<!-- Node22 -->
<g id="node4" class="node">
<title>Node22</title>
<g id="a_node4"><a xlink:href="classAmcCarrierXvcDebug.html" target="_top" xlink:title="AmcCarrierXvcDebug(2)">
<polygon fill="#ffffff" stroke="#000000" points="182.5,-228.5 182.5,-247.5 316.5,-247.5 316.5,-228.5 182.5,-228.5"/>
<text text-anchor="middle" x="249.5" y="-235.5" font-family="Helvetica,sans-Serif" font-size="10.00" fill="#000000">AmcCarrierXvcDebug(2)</text>
</a>
</g>
</g>
<!-- Node22&#45;&gt;Node21 -->
<g id="edge3" class="edge">
<title>Node22&#45;&gt;Node21</title>
<path fill="none" stroke="#191970" d="M302.3981,-226.1757C326.365,-220.8184 354.3235,-214.5689 376.9103,-209.5201"/>
<polygon fill="#191970" stroke="#191970" points="301.3938,-222.8138 292.3982,-228.411 302.9209,-229.6452 301.3938,-222.8138"/>
</g>
<!-- Node23 -->
<g id="node5" class="node">
<title>Node23</title>
<g id="a_node5"><a xlink:href="classUdpDebugBridge.html" target="_top" xlink:title="UdpDebugBridge">
<polygon fill="#ffffff" stroke="#000000" points="18.5,-228.5 18.5,-247.5 117.5,-247.5 117.5,-228.5 18.5,-228.5"/>
<text text-anchor="middle" x="68" y="-235.5" font-family="Helvetica,sans-Serif" font-size="10.00" fill="#000000">UdpDebugBridge</text>
</a>
</g>
</g>
<!-- Node23&#45;&gt;Node22 -->
<g id="edge4" class="edge">
<title>Node23&#45;&gt;Node22</title>
<path fill="none" stroke="#191970" d="M127.6594,-238C145.1345,-238 164.3591,-238 182.2707,-238"/>
<polygon fill="#191970" stroke="#191970" points="127.5957,-234.5001 117.5957,-238 127.5956,-241.5001 127.5957,-234.5001"/>
</g>
<!-- Node24 -->
<g id="node6" class="node">
<title>Node24</title>
<g id="a_node6"><a xlink:href="classAmcCarrierRssi.html" target="_top" xlink:title="AmcCarrierRssi(2)">
<polygon fill="#ffffff" stroke="#000000" points="197,-190.5 197,-209.5 302,-209.5 302,-190.5 197,-190.5"/>
<text text-anchor="middle" x="249.5" y="-197.5" font-family="Helvetica,sans-Serif" font-size="10.00" fill="#000000">AmcCarrierRssi(2)</text>
</a>
</g>
</g>
<!-- Node24&#45;&gt;Node21 -->
<g id="edge5" class="edge">
<title>Node24&#45;&gt;Node21</title>
<path fill="none" stroke="#191970" d="M312.513,-200C333.5677,-200 356.555,-200 375.807,-200"/>
<polygon fill="#191970" stroke="#191970" points="312.3572,-196.5001 302.3572,-200 312.3572,-203.5001 312.3572,-196.5001"/>
</g>
<!-- Node25 -->
<g id="node7" class="node">
<title>Node25</title>
<g id="a_node7"><a xlink:href="classAmcCarrierRssiObFifo.html" target="_top" xlink:title="AmcCarrierRssiObFifo(2)">
<polygon fill="#ffffff" stroke="#000000" points="0,-190.5 0,-209.5 136,-209.5 136,-190.5 0,-190.5"/>
<text text-anchor="middle" x="68" y="-197.5" font-family="Helvetica,sans-Serif" font-size="10.00" fill="#000000">AmcCarrierRssiObFifo(2)</text>
</a>
</g>
</g>
<!-- Node25&#45;&gt;Node24 -->
<g id="edge6" class="edge">
<title>Node25&#45;&gt;Node24</title>
<path fill="none" stroke="#191970" d="M146.1111,-200C163.2664,-200 181.0363,-200 196.9037,-200"/>
<polygon fill="#191970" stroke="#191970" points="146.1003,-196.5001 136.1003,-200 146.1003,-203.5001 146.1003,-196.5001"/>
</g>
<!-- Node26 -->
<g id="node8" class="node">
<title>Node26</title>
<g id="a_node8"><a xlink:href="classAmcCarrierRssiInterleave.html" target="_top" xlink:title="AmcCarrierRssiInterleave(2)">
<polygon fill="#ffffff" stroke="#000000" points="172,-152.5 172,-171.5 327,-171.5 327,-152.5 172,-152.5"/>
<text text-anchor="middle" x="249.5" y="-159.5" font-family="Helvetica,sans-Serif" font-size="10.00" fill="#000000">AmcCarrierRssiInterleave(2)</text>
</a>
</g>
</g>
<!-- Node26&#45;&gt;Node21 -->
<g id="edge7" class="edge">
<title>Node26&#45;&gt;Node21</title>
<path fill="none" stroke="#191970" d="M302.3981,-173.8243C326.365,-179.1816 354.3235,-185.4311 376.9103,-190.4799"/>
<polygon fill="#191970" stroke="#191970" points="302.9209,-170.3548 292.3982,-171.589 301.3938,-177.1862 302.9209,-170.3548"/>
</g>
<!-- Node27 -->
<g id="node9" class="node">
<title>Node27</title>
<g id="a_node9"><a xlink:href="classAmcCarrierRssiObFifo.html" target="_top" xlink:title="AmcCarrierRssiObFifo">
<polygon fill="#ffffff" stroke="#000000" points="7,-152.5 7,-171.5 129,-171.5 129,-152.5 7,-152.5"/>
<text text-anchor="middle" x="68" y="-159.5" font-family="Helvetica,sans-Serif" font-size="10.00" fill="#000000">AmcCarrierRssiObFifo</text>
</a>
</g>
</g>
<!-- Node27&#45;&gt;Node26 -->
<g id="edge8" class="edge">
<title>Node27&#45;&gt;Node26</title>
<path fill="none" stroke="#191970" d="M139.296,-162C149.9738,-162 161.0286,-162 171.8309,-162"/>
<polygon fill="#191970" stroke="#191970" points="139.1946,-158.5001 129.1946,-162 139.1946,-165.5001 139.1946,-158.5001"/>
</g>
<!-- Node28&#45;&gt;Node19 -->
<g id="edge9" class="edge">
<title>Node28&#45;&gt;Node19</title>
<path fill="none" stroke="#191970" d="M464.4564,-225.7538C483.6848,-220.516 505.8031,-214.4909 523.8095,-209.5859"/>
<polygon fill="#191970" stroke="#191970" points="463.4303,-222.4057 454.7017,-228.411 465.2701,-229.1596 463.4303,-222.4057"/>
</g>
<!-- Node29 -->
<g id="node11" class="node">
<title>Node29</title>
<g id="a_node11"><a xlink:href="classAmcCarrierBsa.html" target="_top" xlink:title="AmcCarrierBsa">
<polygon fill="#ffffff" stroke="#000000" points="375,-95.5 375,-114.5 464,-114.5 464,-95.5 375,-95.5"/>
<text text-anchor="middle" x="419.5" y="-102.5" font-family="Helvetica,sans-Serif" font-size="10.00" fill="#000000">AmcCarrierBsa</text>
</a>
</g>
</g>
<!-- Node29&#45;&gt;Node19 -->
<g id="edge11" class="edge">
<title>Node29&#45;&gt;Node19</title>
<path fill="none" stroke="#191970" d="M441.9282,-120.2737C470.9228,-140.0191 520.5621,-173.8237 544.8189,-190.3426"/>
<polygon fill="#191970" stroke="#191970" points="443.8792,-117.3678 433.6437,-114.6319 439.939,-123.1536 443.8792,-117.3678"/>
</g>
<!-- Node30 -->
<g id="node12" class="node">
<title>Node30</title>
<g id="a_node12"><a xlink:href="classBsaWaveformEngine.html" target="_top" xlink:title="BsaWaveformEngine(2)">
<polygon fill="#ffffff" stroke="#000000" points="184,-114.5 184,-133.5 315,-133.5 315,-114.5 184,-114.5"/>
<text text-anchor="middle" x="249.5" y="-121.5" font-family="Helvetica,sans-Serif" font-size="10.00" fill="#000000">BsaWaveformEngine(2)</text>
</a>
</g>
</g>
<!-- Node30&#45;&gt;Node29 -->
<g id="edge12" class="edge">
<title>Node30&#45;&gt;Node29</title>
<path fill="none" stroke="#191970" d="M325.1679,-115.543C342.1875,-113.6408 359.7121,-111.6822 374.9681,-109.9771"/>
<polygon fill="#191970" stroke="#191970" points="324.7758,-112.0649 315.2264,-116.6541 325.5533,-119.0216 324.7758,-112.0649"/>
</g>
<!-- Node31 -->
<g id="node13" class="node">
<title>Node31</title>
<g id="a_node13"><a xlink:href="classBsaBufferControl.html" target="_top" xlink:title="BsaBufferControl">
<polygon fill="#ffffff" stroke="#000000" points="200,-76.5 200,-95.5 299,-95.5 299,-76.5 200,-76.5"/>
<text text-anchor="middle" x="249.5" y="-83.5" font-family="Helvetica,sans-Serif" font-size="10.00" fill="#000000">BsaBufferControl</text>
</a>
</g>
</g>
<!-- Node31&#45;&gt;Node29 -->
<g id="edge13" class="edge">
<title>Node31&#45;&gt;Node29</title>
<path fill="none" stroke="#191970" d="M309.166,-92.6686C330.7251,-95.0781 354.6772,-97.7551 374.7407,-99.9975"/>
<polygon fill="#191970" stroke="#191970" points="309.4549,-89.1791 299.128,-91.5467 308.6774,-96.1358 309.4549,-89.1791"/>
</g>
<!-- Node32 -->
<g id="node14" class="node">
<title>Node32</title>
<g id="a_node14"><a xlink:href="classBsaAccumulator.html" target="_top" xlink:title="BsaAccumulator">
<polygon fill="#ffffff" stroke="#000000" points="20,-76.5 20,-95.5 116,-95.5 116,-76.5 20,-76.5"/>
<text text-anchor="middle" x="68" y="-83.5" font-family="Helvetica,sans-Serif" font-size="10.00" fill="#000000">BsaAccumulator</text>
</a>
</g>
</g>
<!-- Node32&#45;&gt;Node31 -->
<g id="edge14" class="edge">
<title>Node32&#45;&gt;Node31</title>
<path fill="none" stroke="#191970" d="M126.4249,-86C150.0978,-86 177.1465,-86 199.8462,-86"/>
<polygon fill="#191970" stroke="#191970" points="126.1622,-82.5001 116.1622,-86 126.1621,-89.5001 126.1622,-82.5001"/>
</g>
<!-- Node33 -->
<g id="node15" class="node">
<title>Node33</title>
<g id="a_node15"><a xlink:href="classBsaAxiInterconnectWrapper.html" target="_top" xlink:title="BsaAxiInterconnectWrapper">
<polygon fill="#ffffff" stroke="#000000" points="173.5,-38.5 173.5,-57.5 325.5,-57.5 325.5,-38.5 173.5,-38.5"/>
<text text-anchor="middle" x="249.5" y="-45.5" font-family="Helvetica,sans-Serif" font-size="10.00" fill="#000000">BsaAxiInterconnectWrapper</text>
</a>
</g>
</g>
<!-- Node33&#45;&gt;Node29 -->
<g id="edge15" class="edge">
<title>Node33&#45;&gt;Node29</title>
<path fill="none" stroke="#191970" d="M306.0588,-60.1452C313.1907,-62.178 320.3224,-64.4635 327,-67 343.9126,-73.4243 346.372,-78.8713 363,-86 370.9897,-89.4253 379.8193,-92.6484 388.0774,-95.4332"/>
<polygon fill="#191970" stroke="#191970" points="306.9425,-56.7586 296.3758,-57.5302 305.1173,-63.5164 306.9425,-56.7586"/>
</g>
<!-- Node34 -->
<g id="node16" class="node">
<title>Node34</title>
<g id="a_node16"><a xlink:href="classBldAxiStream.html" target="_top" xlink:title="BldAxiStream">
<polygon fill="#ffffff" stroke="#000000" points="208,-.5 208,-19.5 291,-19.5 291,-.5 208,-.5"/>
<text text-anchor="middle" x="249.5" y="-7.5" font-family="Helvetica,sans-Serif" font-size="10.00" fill="#000000">BldAxiStream</text>
</a>
</g>
</g>
<!-- Node34&#45;&gt;Node29 -->
<g id="edge16" class="edge">
<title>Node34&#45;&gt;Node29</title>
<path fill="none" stroke="#191970" d="M300.7169,-16.6606C310.0301,-19.4582 319.2397,-23.4134 327,-29 351.3172,-46.5057 339.4391,-67.4889 363,-86 367.8826,-89.8361 373.5801,-92.9177 379.4423,-95.3878"/>
<polygon fill="#191970" stroke="#191970" points="301.5893,-13.2712 291.0305,-14.1446 299.8294,-20.0463 301.5893,-13.2712"/>
</g>
<!-- Node35 -->
<g id="node17" class="node">
<title>Node35</title>
<g id="a_node17"><a xlink:href="classAmcCarrierDdrMem.html" target="_top" xlink:title="AmcCarrierDdrMem">
<polygon fill="#ffffff" stroke="#000000" points="363,-57.5 363,-76.5 476,-76.5 476,-57.5 363,-57.5"/>
<text text-anchor="middle" x="419.5" y="-64.5" font-family="Helvetica,sans-Serif" font-size="10.00" fill="#000000">AmcCarrierDdrMem</text>
</a>
</g>
</g>
<!-- Node35&#45;&gt;Node19 -->
<g id="edge17" class="edge">
<title>Node35&#45;&gt;Node19</title>
<path fill="none" stroke="#191970" d="M467.5801,-80.759C470.5346,-82.3303 473.3716,-84.0717 476,-86 515.4787,-114.9627 543.9311,-168.2512 554.4899,-190.1791"/>
<polygon fill="#191970" stroke="#191970" points="469.0008,-77.5599 458.4553,-76.5384 466.0621,-83.9132 469.0008,-77.5599"/>
</g>
</g>
</svg>
