<?xml version="1.0" encoding="UTF-8" standalone="no"?>
<!DOCTYPE svg PUBLIC "-//W3C//DTD SVG 1.1//EN"
 "http://www.w3.org/Graphics/SVG/1.1/DTD/svg11.dtd">
<!-- Generated by graphviz version 2.40.1 (20161225.0304)
 -->
<!-- Title: AppMpsEncoder Pages: 1 -->
<svg width="403pt" height="252pt"
 viewBox="0.00 0.00 403.00 252.00" xmlns="http://www.w3.org/2000/svg" xmlns:xlink="http://www.w3.org/1999/xlink">
<g id="graph0" class="graph" transform="scale(1 1) rotate(0) translate(4 248)">
<title>AppMpsEncoder</title>
<polygon fill="#ffffff" stroke="transparent" points="-4,4 -4,-248 399,-248 399,4 -4,4"/>
<!-- Node0 -->
<g id="node1" class="node">
<title>Node0</title>
<polygon fill="#bfbfbf" stroke="#000000" points="157.5,-112.5 157.5,-131.5 251.5,-131.5 251.5,-112.5 157.5,-112.5"/>
<text text-anchor="middle" x="204.5" y="-119.5" font-family="Helvetica,sans-Serif" font-size="10.00" fill="#000000">AppMpsEncoder</text>
</g>
<!-- Node6 -->
<g id="node7" class="node">
<title>Node6</title>
<g id="a_node7"><a xlink:href="classAppMps.html" target="_top" xlink:title="AppMps">
<polygon fill="#ffffff" stroke="#000000" points="177,-56.5 177,-75.5 232,-75.5 232,-56.5 177,-56.5"/>
<text text-anchor="middle" x="204.5" y="-63.5" font-family="Helvetica,sans-Serif" font-size="10.00" fill="#000000">AppMps</text>
</a>
</g>
</g>
<!-- Node0&#45;&gt;Node6 -->
<g id="edge6" class="edge">
<title>Node0&#45;&gt;Node6</title>
<path fill="none" stroke="#191970" d="M204.5,-102.1575C204.5,-93.155 204.5,-82.9199 204.5,-75.6427"/>
<polygon fill="#191970" stroke="#191970" points="201.0001,-102.2455 204.5,-112.2455 208.0001,-102.2456 201.0001,-102.2455"/>
</g>
<!-- Node1 -->
<g id="node2" class="node">
<title>Node1</title>
<g id="a_node2"><a xlink:href="classAppMpsReg.html" target="_top" xlink:title="AppMpsReg">
<polygon fill="#ffffff" stroke="#000000" points="71,-168.5 71,-187.5 144,-187.5 144,-168.5 71,-168.5"/>
<text text-anchor="middle" x="107.5" y="-175.5" font-family="Helvetica,sans-Serif" font-size="10.00" fill="#000000">AppMpsReg</text>
</a>
</g>
</g>
<!-- Node1&#45;&gt;Node0 -->
<g id="edge1" class="edge">
<title>Node1&#45;&gt;Node0</title>
<path fill="none" stroke="#191970" d="M133.4016,-163.0465C150.6609,-153.0824 172.8376,-140.2794 187.7975,-131.6427"/>
<polygon fill="#191970" stroke="#191970" points="131.3065,-160.2146 124.3961,-168.2455 134.8064,-166.2768 131.3065,-160.2146"/>
</g>
<!-- Node2 -->
<g id="node3" class="node">
<title>Node2</title>
<g id="a_node3"><a xlink:href="classAppMpsRegBase.html" target="_top" xlink:title="AppMpsRegBase">
<polygon fill="#ffffff" stroke="#000000" points="0,-224.5 0,-243.5 97,-243.5 97,-224.5 0,-224.5"/>
<text text-anchor="middle" x="48.5" y="-231.5" font-family="Helvetica,sans-Serif" font-size="10.00" fill="#000000">AppMpsRegBase</text>
</a>
</g>
</g>
<!-- Node2&#45;&gt;Node1 -->
<g id="edge2" class="edge">
<title>Node2&#45;&gt;Node1</title>
<path fill="none" stroke="#191970" d="M66.0307,-217.3607C76.2377,-207.6727 88.7469,-195.7995 97.3408,-187.6427"/>
<polygon fill="#191970" stroke="#191970" points="63.6206,-214.8227 58.777,-224.2455 68.4396,-219.8998 63.6206,-214.8227"/>
</g>
<!-- Node3 -->
<g id="node4" class="node">
<title>Node3</title>
<g id="a_node4"><a xlink:href="classAppMpsRegAppCh.html" target="_top" xlink:title="AppMpsRegAppCh">
<polygon fill="#ffffff" stroke="#000000" points="115.5,-224.5 115.5,-243.5 219.5,-243.5 219.5,-224.5 115.5,-224.5"/>
<text text-anchor="middle" x="167.5" y="-231.5" font-family="Helvetica,sans-Serif" font-size="10.00" fill="#000000">AppMpsRegAppCh</text>
</a>
</g>
</g>
<!-- Node3&#45;&gt;Node1 -->
<g id="edge3" class="edge">
<title>Node3&#45;&gt;Node1</title>
<path fill="none" stroke="#191970" d="M149.6722,-217.3607C139.2922,-207.6727 126.5709,-195.7995 117.8314,-187.6427"/>
<polygon fill="#191970" stroke="#191970" points="147.3501,-219.981 157.0488,-224.2455 152.1263,-214.8636 147.3501,-219.981"/>
</g>
<!-- Node4 -->
<g id="node5" class="node">
<title>Node4</title>
<g id="a_node5"><a xlink:href="classAppMpsSelect.html" target="_top" xlink:title="AppMpsSelect">
<polygon fill="#ffffff" stroke="#000000" points="162,-168.5 162,-187.5 247,-187.5 247,-168.5 162,-168.5"/>
<text text-anchor="middle" x="204.5" y="-175.5" font-family="Helvetica,sans-Serif" font-size="10.00" fill="#000000">AppMpsSelect</text>
</a>
</g>
</g>
<!-- Node4&#45;&gt;Node0 -->
<g id="edge4" class="edge">
<title>Node4&#45;&gt;Node0</title>
<path fill="none" stroke="#191970" d="M204.5,-158.1575C204.5,-149.155 204.5,-138.9199 204.5,-131.6427"/>
<polygon fill="#191970" stroke="#191970" points="201.0001,-158.2455 204.5,-168.2455 208.0001,-158.2456 201.0001,-158.2455"/>
</g>
<!-- Node5 -->
<g id="node6" class="node">
<title>Node5</title>
<g id="a_node6"><a xlink:href="classMpsMsgCore.html" target="_top" xlink:title="MpsMsgCore">
<polygon fill="#ffffff" stroke="#000000" points="265.5,-168.5 265.5,-187.5 343.5,-187.5 343.5,-168.5 265.5,-168.5"/>
<text text-anchor="middle" x="304.5" y="-175.5" font-family="Helvetica,sans-Serif" font-size="10.00" fill="#000000">MpsMsgCore</text>
</a>
</g>
</g>
<!-- Node5&#45;&gt;Node0 -->
<g id="edge5" class="edge">
<title>Node5&#45;&gt;Node0</title>
<path fill="none" stroke="#191970" d="M278.2902,-163.3225C260.4283,-153.3198 237.2845,-140.3593 221.7191,-131.6427"/>
<polygon fill="#191970" stroke="#191970" points="276.6461,-166.4132 287.0813,-168.2455 280.0664,-160.3057 276.6461,-166.4132"/>
</g>
<!-- Node7 -->
<g id="node8" class="node">
<title>Node7</title>
<g id="a_node8"><a xlink:href="classAmcCarrierCoreAdv.html" target="_top" xlink:title="AmcCarrierCoreAdv">
<polygon fill="#ffffff" stroke="#000000" points="14,-.5 14,-19.5 127,-19.5 127,-.5 14,-.5"/>
<text text-anchor="middle" x="70.5" y="-7.5" font-family="Helvetica,sans-Serif" font-size="10.00" fill="#000000">AmcCarrierCoreAdv</text>
</a>
</g>
</g>
<!-- Node6&#45;&gt;Node7 -->
<g id="edge7" class="edge">
<title>Node6&#45;&gt;Node7</title>
<path fill="none" stroke="#191970" d="M171.9172,-52.3833C147.5464,-42.1985 114.8358,-28.5284 93.2348,-19.5011"/>
<polygon fill="#191970" stroke="#191970" points="170.8883,-55.7466 181.4646,-56.3733 173.5875,-49.2879 170.8883,-55.7466"/>
</g>
<!-- Node8 -->
<g id="node9" class="node">
<title>Node8</title>
<g id="a_node9"><a xlink:href="classAmcCarrierCoreBase.html" target="_top" xlink:title="AmcCarrierCoreBase">
<polygon fill="#ffffff" stroke="#000000" points="145.5,-.5 145.5,-19.5 263.5,-19.5 263.5,-.5 145.5,-.5"/>
<text text-anchor="middle" x="204.5" y="-7.5" font-family="Helvetica,sans-Serif" font-size="10.00" fill="#000000">AmcCarrierCoreBase</text>
</a>
</g>
</g>
<!-- Node6&#45;&gt;Node8 -->
<g id="edge8" class="edge">
<title>Node6&#45;&gt;Node8</title>
<path fill="none" stroke="#191970" d="M204.5,-46.1575C204.5,-37.155 204.5,-26.9199 204.5,-19.6427"/>
<polygon fill="#191970" stroke="#191970" points="201.0001,-46.2455 204.5,-56.2455 208.0001,-46.2456 201.0001,-46.2455"/>
</g>
<!-- Node9 -->
<g id="node10" class="node">
<title>Node9</title>
<g id="a_node10"><a xlink:href="classAmcCarrierCoreFsbl.html" target="_top" xlink:title="AmcCarrierCoreFsbl">
<polygon fill="#ffffff" stroke="#000000" points="282,-.5 282,-19.5 395,-19.5 395,-.5 282,-.5"/>
<text text-anchor="middle" x="338.5" y="-7.5" font-family="Helvetica,sans-Serif" font-size="10.00" fill="#000000">AmcCarrierCoreFsbl</text>
</a>
</g>
</g>
<!-- Node6&#45;&gt;Node9 -->
<g id="edge9" class="edge">
<title>Node6&#45;&gt;Node9</title>
<path fill="none" stroke="#191970" d="M237.0828,-52.3833C261.4536,-42.1985 294.1642,-28.5284 315.7652,-19.5011"/>
<polygon fill="#191970" stroke="#191970" points="235.4125,-49.2879 227.5354,-56.3733 238.1117,-55.7466 235.4125,-49.2879"/>
</g>
</g>
</svg>
