<?xml version="1.0" encoding="UTF-8" standalone="no"?>
<!DOCTYPE svg PUBLIC "-//W3C//DTD SVG 1.1//EN"
 "http://www.w3.org/Graphics/SVG/1.1/DTD/svg11.dtd">
<!-- Generated by graphviz version 2.40.1 (20161225.0304)
 -->
<!-- Title: AppTop Pages: 1 -->
<svg width="456pt" height="256pt"
 viewBox="0.00 0.00 456.00 256.00" xmlns="http://www.w3.org/2000/svg" xmlns:xlink="http://www.w3.org/1999/xlink">
<g id="graph0" class="graph" transform="scale(1 1) rotate(0) translate(4 252)">
<title>AppTop</title>
<polygon fill="#ffffff" stroke="transparent" points="-4,4 -4,-252 452,-252 452,4 -4,4"/>
<!-- Node13 -->
<g id="node1" class="node">
<title>Node13</title>
<polygon fill="#bfbfbf" stroke="#000000" points="396,-95.5 396,-114.5 448,-114.5 448,-95.5 396,-95.5"/>
<text text-anchor="middle" x="422" y="-102.5" font-family="Helvetica,sans-Serif" font-size="10.00" fill="#000000">AppTop</text>
</g>
<!-- Node14 -->
<g id="node2" class="node">
<title>Node14</title>
<g id="a_node2"><a xlink:href="classDaqMuxV2.html" target="_top" xlink:title="DaqMuxV2(4)">
<polygon fill="#ffffff" stroke="#000000" points="275.5,-171.5 275.5,-190.5 358.5,-190.5 358.5,-171.5 275.5,-171.5"/>
<text text-anchor="middle" x="317" y="-178.5" font-family="Helvetica,sans-Serif" font-size="10.00" fill="#000000">DaqMuxV2(4)</text>
</a>
</g>
</g>
<!-- Node14&#45;&gt;Node13 -->
<g id="edge1" class="edge">
<title>Node14&#45;&gt;Node13</title>
<path fill="none" stroke="#191970" d="M338.6449,-165.3332C359.7588,-150.0507 391.1934,-127.2981 408.8097,-114.5473"/>
<polygon fill="#191970" stroke="#191970" points="336.3468,-162.6759 330.2983,-171.3745 340.4512,-168.3464 336.3468,-162.6759"/>
</g>
<!-- Node15 -->
<g id="node3" class="node">
<title>Node15</title>
<g id="a_node3"><a xlink:href="classDaqRegItf.html" target="_top" xlink:title="DaqRegItf">
<polygon fill="#ffffff" stroke="#000000" points="148,-228.5 148,-247.5 213,-247.5 213,-228.5 148,-228.5"/>
<text text-anchor="middle" x="180.5" y="-235.5" font-family="Helvetica,sans-Serif" font-size="10.00" fill="#000000">DaqRegItf</text>
</a>
</g>
</g>
<!-- Node15&#45;&gt;Node14 -->
<g id="edge2" class="edge">
<title>Node15&#45;&gt;Node14</title>
<path fill="none" stroke="#191970" d="M221.6481,-225.1226C227.1856,-223.1806 232.76,-221.1157 238,-219 259.31,-210.3959 282.9662,-198.7212 298.7867,-190.5917"/>
<polygon fill="#191970" stroke="#191970" points="220.1423,-221.9378 211.801,-228.4703 222.3954,-228.5653 220.1423,-221.9378"/>
</g>
<!-- Node16 -->
<g id="node4" class="node">
<title>Node16</title>
<g id="a_node4"><a xlink:href="classDaqTrigger.html" target="_top" xlink:title="DaqTrigger">
<polygon fill="#ffffff" stroke="#000000" points="146,-190.5 146,-209.5 215,-209.5 215,-190.5 146,-190.5"/>
<text text-anchor="middle" x="180.5" y="-197.5" font-family="Helvetica,sans-Serif" font-size="10.00" fill="#000000">DaqTrigger</text>
</a>
</g>
</g>
<!-- Node16&#45;&gt;Node14 -->
<g id="edge3" class="edge">
<title>Node16&#45;&gt;Node14</title>
<path fill="none" stroke="#191970" d="M225.546,-193.7299C241.6362,-191.4902 259.6795,-188.9787 275.4605,-186.7821"/>
<polygon fill="#191970" stroke="#191970" points="224.7199,-190.311 215.2979,-195.1563 225.685,-197.2442 224.7199,-190.311"/>
</g>
<!-- Node17 -->
<g id="node5" class="node">
<title>Node17</title>
<g id="a_node5"><a xlink:href="classDaqLane.html" target="_top" xlink:title="DaqLane">
<polygon fill="#ffffff" stroke="#000000" points="151,-152.5 151,-171.5 210,-171.5 210,-152.5 151,-152.5"/>
<text text-anchor="middle" x="180.5" y="-159.5" font-family="Helvetica,sans-Serif" font-size="10.00" fill="#000000">DaqLane</text>
</a>
</g>
</g>
<!-- Node17&#45;&gt;Node14 -->
<g id="edge4" class="edge">
<title>Node17&#45;&gt;Node14</title>
<path fill="none" stroke="#191970" d="M220.4231,-167.5571C237.6628,-169.9567 257.834,-172.7644 275.2704,-175.1915"/>
<polygon fill="#191970" stroke="#191970" points="220.5055,-164.0349 210.1185,-166.1227 219.5404,-170.968 220.5055,-164.0349"/>
</g>
<!-- Node18 -->
<g id="node6" class="node">
<title>Node18</title>
<g id="a_node6"><a xlink:href="classDaqTestSig.html" target="_top" xlink:title="DaqTestSig">
<polygon fill="#ffffff" stroke="#000000" points="8,-171.5 8,-190.5 79,-190.5 79,-171.5 8,-171.5"/>
<text text-anchor="middle" x="43.5" y="-178.5" font-family="Helvetica,sans-Serif" font-size="10.00" fill="#000000">DaqTestSig</text>
</a>
</g>
</g>
<!-- Node18&#45;&gt;Node17 -->
<g id="edge5" class="edge">
<title>Node18&#45;&gt;Node17</title>
<path fill="none" stroke="#191970" d="M89.1011,-174.6758C109.3473,-171.8679 132.6094,-168.6418 150.5988,-166.1469"/>
<polygon fill="#191970" stroke="#191970" points="88.5619,-171.217 79.1375,-176.0576 89.5235,-178.1506 88.5619,-171.217"/>
</g>
<!-- Node19 -->
<g id="node7" class="node">
<title>Node19</title>
<g id="a_node7"><a xlink:href="classDaqDecimator.html" target="_top" xlink:title="DaqDecimator">
<polygon fill="#ffffff" stroke="#000000" points="0,-133.5 0,-152.5 87,-152.5 87,-133.5 0,-133.5"/>
<text text-anchor="middle" x="43.5" y="-140.5" font-family="Helvetica,sans-Serif" font-size="10.00" fill="#000000">DaqDecimator</text>
</a>
</g>
</g>
<!-- Node19&#45;&gt;Node17 -->
<g id="edge6" class="edge">
<title>Node19&#45;&gt;Node17</title>
<path fill="none" stroke="#191970" d="M97.1352,-150.4385C115.3088,-152.9589 134.949,-155.6827 150.5988,-157.8531"/>
<polygon fill="#191970" stroke="#191970" points="97.6104,-146.9709 87.2243,-149.064 96.6487,-153.9046 97.6104,-146.9709"/>
</g>
<!-- Node20 -->
<g id="node8" class="node">
<title>Node20</title>
<g id="a_node8"><a xlink:href="classAppTopJesd.html" target="_top" xlink:title="AppTopJesd(4)">
<polygon fill="#ffffff" stroke="#000000" points="274,-95.5 274,-114.5 360,-114.5 360,-95.5 274,-95.5"/>
<text text-anchor="middle" x="317" y="-102.5" font-family="Helvetica,sans-Serif" font-size="10.00" fill="#000000">AppTopJesd(4)</text>
</a>
</g>
</g>
<!-- Node20&#45;&gt;Node13 -->
<g id="edge7" class="edge">
<title>Node20&#45;&gt;Node13</title>
<path fill="none" stroke="#191970" d="M370.0539,-105C378.9904,-105 387.9055,-105 395.7633,-105"/>
<polygon fill="#191970" stroke="#191970" points="370.0105,-101.5001 360.0105,-105 370.0104,-108.5001 370.0105,-101.5001"/>
</g>
<!-- Node21 -->
<g id="node9" class="node">
<title>Node21</title>
<g id="a_node9"><a xlink:href="classAmcCarrierIbufGt.html" target="_top" xlink:title="AmcCarrierIbufGt(5)">
<polygon fill="#ffffff" stroke="#000000" points="123,-114.5 123,-133.5 238,-133.5 238,-114.5 123,-114.5"/>
<text text-anchor="middle" x="180.5" y="-121.5" font-family="Helvetica,sans-Serif" font-size="10.00" fill="#000000">AmcCarrierIbufGt(5)</text>
</a>
</g>
</g>
<!-- Node21&#45;&gt;Node20 -->
<g id="edge8" class="edge">
<title>Node21&#45;&gt;Node20</title>
<path fill="none" stroke="#191970" d="M248.512,-114.5331C257.1663,-113.3285 265.8256,-112.1232 273.9335,-110.9946"/>
<polygon fill="#191970" stroke="#191970" points="247.8102,-111.097 238.3883,-115.9423 248.7754,-118.0301 247.8102,-111.097"/>
</g>
<!-- Node22 -->
<g id="node10" class="node">
<title>Node22</title>
<g id="a_node10"><a xlink:href="classAppTopJesd204b.html" target="_top" xlink:title="AppTopJesd204b(4)">
<polygon fill="#ffffff" stroke="#000000" points="125.5,-76.5 125.5,-95.5 235.5,-95.5 235.5,-76.5 125.5,-76.5"/>
<text text-anchor="middle" x="180.5" y="-83.5" font-family="Helvetica,sans-Serif" font-size="10.00" fill="#000000">AppTopJesd204b(4)</text>
</a>
</g>
</g>
<!-- Node22&#45;&gt;Node20 -->
<g id="edge9" class="edge">
<title>Node22&#45;&gt;Node20</title>
<path fill="none" stroke="#191970" d="M245.5638,-95.0565C255.1596,-96.3922 264.8396,-97.7396 273.8428,-98.9928"/>
<polygon fill="#191970" stroke="#191970" points="246.0134,-91.5854 235.6263,-93.6733 245.0483,-98.5186 246.0134,-91.5854"/>
</g>
<!-- Node23 -->
<g id="node11" class="node">
<title>Node23</title>
<g id="a_node11"><a xlink:href="classDacSigGen.html" target="_top" xlink:title="DacSigGen(4)">
<polygon fill="#ffffff" stroke="#000000" points="275.5,-38.5 275.5,-57.5 358.5,-57.5 358.5,-38.5 275.5,-38.5"/>
<text text-anchor="middle" x="317" y="-45.5" font-family="Helvetica,sans-Serif" font-size="10.00" fill="#000000">DacSigGen(4)</text>
</a>
</g>
</g>
<!-- Node23&#45;&gt;Node13 -->
<g id="edge10" class="edge">
<title>Node23&#45;&gt;Node13</title>
<path fill="none" stroke="#191970" d="M343.6231,-62.4525C362.6969,-72.8069 387.8473,-86.46 404.4512,-95.4735"/>
<polygon fill="#191970" stroke="#191970" points="345.2702,-59.3643 334.8118,-57.6693 341.9305,-65.5162 345.2702,-59.3643"/>
</g>
<!-- Node24 -->
<g id="node12" class="node">
<title>Node24</title>
<g id="a_node12"><a xlink:href="classDacSigGenReg.html" target="_top" xlink:title="DacSigGenReg">
<polygon fill="#ffffff" stroke="#000000" points="136.5,-38.5 136.5,-57.5 224.5,-57.5 224.5,-38.5 136.5,-38.5"/>
<text text-anchor="middle" x="180.5" y="-45.5" font-family="Helvetica,sans-Serif" font-size="10.00" fill="#000000">DacSigGenReg</text>
</a>
</g>
</g>
<!-- Node24&#45;&gt;Node23 -->
<g id="edge11" class="edge">
<title>Node24&#45;&gt;Node23</title>
<path fill="none" stroke="#191970" d="M234.9029,-48C248.3292,-48 262.5018,-48 275.2225,-48"/>
<polygon fill="#191970" stroke="#191970" points="234.8177,-44.5001 224.8176,-48 234.8176,-51.5001 234.8177,-44.5001"/>
</g>
<!-- Node25 -->
<g id="node13" class="node">
<title>Node25</title>
<g id="a_node13"><a xlink:href="classDacSigGenLane.html" target="_top" xlink:title="DacSigGenLane">
<polygon fill="#ffffff" stroke="#000000" points="134,-.5 134,-19.5 227,-19.5 227,-.5 134,-.5"/>
<text text-anchor="middle" x="180.5" y="-7.5" font-family="Helvetica,sans-Serif" font-size="10.00" fill="#000000">DacSigGenLane</text>
</a>
</g>
</g>
<!-- Node25&#45;&gt;Node23 -->
<g id="edge12" class="edge">
<title>Node25&#45;&gt;Node23</title>
<path fill="none" stroke="#191970" d="M224.7487,-22.3183C243.503,-27.5393 265.028,-33.5316 282.5663,-38.4141"/>
<polygon fill="#191970" stroke="#191970" points="225.5171,-18.8992 214.9447,-19.589 223.6397,-25.6428 225.5171,-18.8992"/>
</g>
</g>
</svg>
