<?xml version="1.0" encoding="UTF-8" standalone="no"?>
<!DOCTYPE svg PUBLIC "-//W3C//DTD SVG 1.1//EN"
 "http://www.w3.org/Graphics/SVG/1.1/DTD/svg11.dtd">
<!-- Generated by graphviz version 2.40.1 (20161225.0304)
 -->
<!-- Title: DacSigGen Pages: 1 -->
<svg width="207pt" height="84pt"
 viewBox="0.00 0.00 206.50 84.00" xmlns="http://www.w3.org/2000/svg" xmlns:xlink="http://www.w3.org/1999/xlink">
<g id="graph0" class="graph" transform="scale(1 1) rotate(0) translate(4 80)">
<title>DacSigGen</title>
<polygon fill="#ffffff" stroke="transparent" points="-4,4 -4,-80 202.5,-80 202.5,4 -4,4"/>
<!-- Node5 -->
<g id="node1" class="node">
<title>Node5</title>
<polygon fill="#bfbfbf" stroke="#000000" points="63,-.5 63,-19.5 133,-19.5 133,-.5 63,-.5"/>
<text text-anchor="middle" x="98" y="-7.5" font-family="Helvetica,sans-Serif" font-size="10.00" fill="#000000">DacSigGen</text>
</g>
<!-- Node6 -->
<g id="node2" class="node">
<title>Node6</title>
<g id="a_node2"><a xlink:href="classDacSigGenReg.html" target="_top" xlink:title="DacSigGenReg">
<polygon fill="#ffffff" stroke="#000000" points="0,-56.5 0,-75.5 88,-75.5 88,-56.5 0,-56.5"/>
<text text-anchor="middle" x="44" y="-63.5" font-family="Helvetica,sans-Serif" font-size="10.00" fill="#000000">DacSigGenReg</text>
</a>
</g>
</g>
<!-- Node6&#45;&gt;Node5 -->
<g id="edge1" class="edge">
<title>Node6&#45;&gt;Node5</title>
<path fill="none" stroke="#191970" d="M60.5969,-48.7884C69.8347,-39.2085 80.9904,-27.6396 88.7017,-19.6427"/>
<polygon fill="#191970" stroke="#191970" points="57.828,-46.6176 53.4061,-56.2455 62.8669,-51.4766 57.828,-46.6176"/>
</g>
<!-- Node7 -->
<g id="node3" class="node">
<title>Node7</title>
<g id="a_node3"><a xlink:href="classDacSigGenLane.html" target="_top" xlink:title="DacSigGenLane">
<polygon fill="#ffffff" stroke="#000000" points="105.5,-56.5 105.5,-75.5 198.5,-75.5 198.5,-56.5 105.5,-56.5"/>
<text text-anchor="middle" x="152" y="-63.5" font-family="Helvetica,sans-Serif" font-size="10.00" fill="#000000">DacSigGenLane</text>
</a>
</g>
</g>
<!-- Node7&#45;&gt;Node5 -->
<g id="edge2" class="edge">
<title>Node7&#45;&gt;Node5</title>
<path fill="none" stroke="#191970" d="M135.4031,-48.7884C126.1653,-39.2085 115.0096,-27.6396 107.2983,-19.6427"/>
<polygon fill="#191970" stroke="#191970" points="133.1331,-51.4766 142.5939,-56.2455 138.172,-46.6176 133.1331,-51.4766"/>
</g>
</g>
</svg>
