<?xml version="1.0" encoding="UTF-8" standalone="no"?>
<!DOCTYPE svg PUBLIC "-//W3C//DTD SVG 1.1//EN"
 "http://www.w3.org/Graphics/SVG/1.1/DTD/svg11.dtd">
<!-- Generated by graphviz version 2.40.1 (20161225.0304)
 -->
<!-- Title: AmcCarrierEth Pages: 1 -->
<svg width="439pt" height="252pt"
 viewBox="0.00 0.00 438.50 252.00" xmlns="http://www.w3.org/2000/svg" xmlns:xlink="http://www.w3.org/1999/xlink">
<g id="graph0" class="graph" transform="scale(1 1) rotate(0) translate(4 248)">
<title>AmcCarrierEth</title>
<polygon fill="#ffffff" stroke="transparent" points="-4,4 -4,-248 434.5,-248 434.5,4 -4,4"/>
<!-- Node0 -->
<g id="node1" class="node">
<title>Node0</title>
<polygon fill="#bfbfbf" stroke="#000000" points="161.5,-112.5 161.5,-131.5 248.5,-131.5 248.5,-112.5 161.5,-112.5"/>
<text text-anchor="middle" x="205" y="-119.5" font-family="Helvetica,sans-Serif" font-size="10.00" fill="#000000">AmcCarrierEth</text>
</g>
<!-- Node7 -->
<g id="node8" class="node">
<title>Node7</title>
<g id="a_node8"><a xlink:href="classAmcCarrierCore.html" target="_top" xlink:title="AmcCarrierCore">
<polygon fill="#ffffff" stroke="#000000" points="158,-56.5 158,-75.5 252,-75.5 252,-56.5 158,-56.5"/>
<text text-anchor="middle" x="205" y="-63.5" font-family="Helvetica,sans-Serif" font-size="10.00" fill="#000000">AmcCarrierCore</text>
</a>
</g>
</g>
<!-- Node0&#45;&gt;Node7 -->
<g id="edge7" class="edge">
<title>Node0&#45;&gt;Node7</title>
<path fill="none" stroke="#191970" d="M205,-102.1575C205,-93.155 205,-82.9199 205,-75.6427"/>
<polygon fill="#191970" stroke="#191970" points="201.5001,-102.2455 205,-112.2455 208.5001,-102.2456 201.5001,-102.2455"/>
</g>
<!-- Node1 -->
<g id="node2" class="node">
<title>Node1</title>
<g id="a_node2"><a xlink:href="classAmcCarrierXvcDebug.html" target="_top" xlink:title="AmcCarrierXvcDebug(2)">
<polygon fill="#ffffff" stroke="#000000" points="0,-168.5 0,-187.5 134,-187.5 134,-168.5 0,-168.5"/>
<text text-anchor="middle" x="67" y="-175.5" font-family="Helvetica,sans-Serif" font-size="10.00" fill="#000000">AmcCarrierXvcDebug(2)</text>
</a>
</g>
</g>
<!-- Node1&#45;&gt;Node0 -->
<g id="edge1" class="edge">
<title>Node1&#45;&gt;Node0</title>
<path fill="none" stroke="#191970" d="M100.2213,-164.5189C125.354,-154.3201 159.2418,-140.5685 181.5865,-131.5011"/>
<polygon fill="#191970" stroke="#191970" points="98.6731,-161.3699 90.723,-168.3733 101.3053,-167.8562 98.6731,-161.3699"/>
</g>
<!-- Node2 -->
<g id="node3" class="node">
<title>Node2</title>
<g id="a_node3"><a xlink:href="classUdpDebugBridge.html" target="_top" xlink:title="UdpDebugBridge">
<polygon fill="#ffffff" stroke="#000000" points="17.5,-224.5 17.5,-243.5 116.5,-243.5 116.5,-224.5 17.5,-224.5"/>
<text text-anchor="middle" x="67" y="-231.5" font-family="Helvetica,sans-Serif" font-size="10.00" fill="#000000">UdpDebugBridge</text>
</a>
</g>
</g>
<!-- Node2&#45;&gt;Node1 -->
<g id="edge2" class="edge">
<title>Node2&#45;&gt;Node1</title>
<path fill="none" stroke="#191970" d="M67,-214.1575C67,-205.155 67,-194.9199 67,-187.6427"/>
<polygon fill="#191970" stroke="#191970" points="63.5001,-214.2455 67,-224.2455 70.5001,-214.2456 63.5001,-214.2455"/>
</g>
<!-- Node3 -->
<g id="node4" class="node">
<title>Node3</title>
<g id="a_node4"><a xlink:href="classAmcCarrierRssi.html" target="_top" xlink:title="AmcCarrierRssi(2)">
<polygon fill="#ffffff" stroke="#000000" points="152.5,-168.5 152.5,-187.5 257.5,-187.5 257.5,-168.5 152.5,-168.5"/>
<text text-anchor="middle" x="205" y="-175.5" font-family="Helvetica,sans-Serif" font-size="10.00" fill="#000000">AmcCarrierRssi(2)</text>
</a>
</g>
</g>
<!-- Node3&#45;&gt;Node0 -->
<g id="edge3" class="edge">
<title>Node3&#45;&gt;Node0</title>
<path fill="none" stroke="#191970" d="M205,-158.1575C205,-149.155 205,-138.9199 205,-131.6427"/>
<polygon fill="#191970" stroke="#191970" points="201.5001,-158.2455 205,-168.2455 208.5001,-158.2456 201.5001,-158.2455"/>
</g>
<!-- Node4 -->
<g id="node5" class="node">
<title>Node4</title>
<g id="a_node5"><a xlink:href="classAmcCarrierRssiObFifo.html" target="_top" xlink:title="AmcCarrierRssiObFifo(2)">
<polygon fill="#ffffff" stroke="#000000" points="137,-224.5 137,-243.5 273,-243.5 273,-224.5 137,-224.5"/>
<text text-anchor="middle" x="205" y="-231.5" font-family="Helvetica,sans-Serif" font-size="10.00" fill="#000000">AmcCarrierRssiObFifo(2)</text>
</a>
</g>
</g>
<!-- Node4&#45;&gt;Node3 -->
<g id="edge4" class="edge">
<title>Node4&#45;&gt;Node3</title>
<path fill="none" stroke="#191970" d="M205,-214.1575C205,-205.155 205,-194.9199 205,-187.6427"/>
<polygon fill="#191970" stroke="#191970" points="201.5001,-214.2455 205,-224.2455 208.5001,-214.2456 201.5001,-214.2455"/>
</g>
<!-- Node5 -->
<g id="node6" class="node">
<title>Node5</title>
<g id="a_node6"><a xlink:href="classAmcCarrierRssiInterleave.html" target="_top" xlink:title="AmcCarrierRssiInterleave(2)">
<polygon fill="#ffffff" stroke="#000000" points="275.5,-168.5 275.5,-187.5 430.5,-187.5 430.5,-168.5 275.5,-168.5"/>
<text text-anchor="middle" x="353" y="-175.5" font-family="Helvetica,sans-Serif" font-size="10.00" fill="#000000">AmcCarrierRssiInterleave(2)</text>
</a>
</g>
</g>
<!-- Node5&#45;&gt;Node0 -->
<g id="edge5" class="edge">
<title>Node5&#45;&gt;Node0</title>
<path fill="none" stroke="#191970" d="M318.0847,-164.7888C291.0617,-154.5639 254.286,-140.6488 230.1101,-131.5011"/>
<polygon fill="#191970" stroke="#191970" points="316.9664,-168.1078 327.5579,-168.3733 319.4437,-161.5608 316.9664,-168.1078"/>
</g>
<!-- Node6 -->
<g id="node7" class="node">
<title>Node6</title>
<g id="a_node7"><a xlink:href="classAmcCarrierRssiObFifo.html" target="_top" xlink:title="AmcCarrierRssiObFifo">
<polygon fill="#ffffff" stroke="#000000" points="292,-224.5 292,-243.5 414,-243.5 414,-224.5 292,-224.5"/>
<text text-anchor="middle" x="353" y="-231.5" font-family="Helvetica,sans-Serif" font-size="10.00" fill="#000000">AmcCarrierRssiObFifo</text>
</a>
</g>
</g>
<!-- Node6&#45;&gt;Node5 -->
<g id="edge6" class="edge">
<title>Node6&#45;&gt;Node5</title>
<path fill="none" stroke="#191970" d="M353,-214.1575C353,-205.155 353,-194.9199 353,-187.6427"/>
<polygon fill="#191970" stroke="#191970" points="349.5001,-214.2455 353,-224.2455 356.5001,-214.2456 349.5001,-214.2455"/>
</g>
<!-- Node8 -->
<g id="node9" class="node">
<title>Node8</title>
<g id="a_node9"><a xlink:href="classAmcCarrierCoreAdv.html" target="_top" xlink:title="AmcCarrierCoreAdv">
<polygon fill="#ffffff" stroke="#000000" points="81.5,-.5 81.5,-19.5 194.5,-19.5 194.5,-.5 81.5,-.5"/>
<text text-anchor="middle" x="138" y="-7.5" font-family="Helvetica,sans-Serif" font-size="10.00" fill="#000000">AmcCarrierCoreAdv</text>
</a>
</g>
</g>
<!-- Node7&#45;&gt;Node8 -->
<g id="edge8" class="edge">
<title>Node7&#45;&gt;Node8</title>
<path fill="none" stroke="#191970" d="M185.4324,-49.645C173.7802,-39.9058 159.3916,-27.8795 149.5368,-19.6427"/>
<polygon fill="#191970" stroke="#191970" points="183.4121,-52.5179 193.3295,-56.2455 187.9012,-47.1469 183.4121,-52.5179"/>
</g>
<!-- Node9 -->
<g id="node10" class="node">
<title>Node9</title>
<g id="a_node10"><a xlink:href="classAmcCarrierCoreBase.html" target="_top" xlink:title="AmcCarrierCoreBase">
<polygon fill="#ffffff" stroke="#000000" points="213,-.5 213,-19.5 331,-19.5 331,-.5 213,-.5"/>
<text text-anchor="middle" x="272" y="-7.5" font-family="Helvetica,sans-Serif" font-size="10.00" fill="#000000">AmcCarrierCoreBase</text>
</a>
</g>
</g>
<!-- Node7&#45;&gt;Node9 -->
<g id="edge9" class="edge">
<title>Node7&#45;&gt;Node9</title>
<path fill="none" stroke="#191970" d="M224.5676,-49.645C236.2198,-39.9058 250.6084,-27.8795 260.4632,-19.6427"/>
<polygon fill="#191970" stroke="#191970" points="222.0988,-47.1469 216.6705,-56.2455 226.5879,-52.5179 222.0988,-47.1469"/>
</g>
</g>
</svg>
