<?xml version="1.0" encoding="UTF-8" standalone="no"?>
<!DOCTYPE svg PUBLIC "-//W3C//DTD SVG 1.1//EN"
 "http://www.w3.org/Graphics/SVG/1.1/DTD/svg11.dtd">
<!-- Generated by graphviz version 2.40.1 (20161225.0304)
 -->
<!-- Title: AmcCryoDemoDualCore Pages: 1 -->
<svg width="186pt" height="140pt"
 viewBox="0.00 0.00 186.00 140.00" xmlns="http://www.w3.org/2000/svg" xmlns:xlink="http://www.w3.org/1999/xlink">
<g id="graph0" class="graph" transform="scale(1 1) rotate(0) translate(4 136)">
<title>AmcCryoDemoDualCore</title>
<polygon fill="#ffffff" stroke="transparent" points="-4,4 -4,-136 182,-136 182,4 -4,4"/>
<!-- Node4 -->
<g id="node1" class="node">
<title>Node4</title>
<polygon fill="#bfbfbf" stroke="#000000" points="23,-.5 23,-19.5 158,-19.5 158,-.5 23,-.5"/>
<text text-anchor="middle" x="90.5" y="-7.5" font-family="Helvetica,sans-Serif" font-size="10.00" fill="#000000">AmcCryoDemoDualCore</text>
</g>
<!-- Node5 -->
<g id="node2" class="node">
<title>Node5</title>
<g id="a_node2"><a xlink:href="classAmcCryoDemoCore.html" target="_top" xlink:title="AmcCryoDemoCore">
<polygon fill="#ffffff" stroke="#000000" points="34,-56.5 34,-75.5 147,-75.5 147,-56.5 34,-56.5"/>
<text text-anchor="middle" x="90.5" y="-63.5" font-family="Helvetica,sans-Serif" font-size="10.00" fill="#000000">AmcCryoDemoCore</text>
</a>
</g>
</g>
<!-- Node5&#45;&gt;Node4 -->
<g id="edge1" class="edge">
<title>Node5&#45;&gt;Node4</title>
<path fill="none" stroke="#191970" d="M90.5,-46.1575C90.5,-37.155 90.5,-26.9199 90.5,-19.6427"/>
<polygon fill="#191970" stroke="#191970" points="87.0001,-46.2455 90.5,-56.2455 94.0001,-46.2456 87.0001,-46.2455"/>
</g>
<!-- Node6 -->
<g id="node3" class="node">
<title>Node6</title>
<g id="a_node3"><a xlink:href="classJesdSyncIn.html" target="_top" xlink:title="JesdSyncIn(2)">
<polygon fill="#ffffff" stroke="#000000" points="0,-112.5 0,-131.5 83,-131.5 83,-112.5 0,-112.5"/>
<text text-anchor="middle" x="41.5" y="-119.5" font-family="Helvetica,sans-Serif" font-size="10.00" fill="#000000">JesdSyncIn(2)</text>
</a>
</g>
</g>
<!-- Node6&#45;&gt;Node5 -->
<g id="edge2" class="edge">
<title>Node6&#45;&gt;Node5</title>
<path fill="none" stroke="#191970" d="M56.8122,-104.5004C65.1447,-94.9775 75.1353,-83.5596 82.0627,-75.6427"/>
<polygon fill="#191970" stroke="#191970" points="53.9862,-102.415 50.0351,-112.2455 59.2543,-107.0245 53.9862,-102.415"/>
</g>
<!-- Node7 -->
<g id="node4" class="node">
<title>Node7</title>
<g id="a_node4"><a xlink:href="classJesdSyncOut.html" target="_top" xlink:title="JesdSyncOut">
<polygon fill="#ffffff" stroke="#000000" points="101,-112.5 101,-131.5 178,-131.5 178,-112.5 101,-112.5"/>
<text text-anchor="middle" x="139.5" y="-119.5" font-family="Helvetica,sans-Serif" font-size="10.00" fill="#000000">JesdSyncOut</text>
</a>
</g>
</g>
<!-- Node7&#45;&gt;Node5 -->
<g id="edge3" class="edge">
<title>Node7&#45;&gt;Node5</title>
<path fill="none" stroke="#191970" d="M124.1878,-104.5004C115.8553,-94.9775 105.8647,-83.5596 98.9373,-75.6427"/>
<polygon fill="#191970" stroke="#191970" points="121.7457,-107.0245 130.9649,-112.2455 127.0138,-102.415 121.7457,-107.0245"/>
</g>
</g>
</svg>
