<?xml version="1.0" encoding="UTF-8" standalone="no"?>
<!DOCTYPE svg PUBLIC "-//W3C//DTD SVG 1.1//EN"
 "http://www.w3.org/Graphics/SVG/1.1/DTD/svg11.dtd">
<!-- Generated by graphviz version 2.40.1 (20161225.0304)
 -->
<!-- Title: AmcGenericAdcDacCore Pages: 1 -->
<svg width="499pt" height="140pt"
 viewBox="0.00 0.00 498.50 140.00" xmlns="http://www.w3.org/2000/svg" xmlns:xlink="http://www.w3.org/1999/xlink">
<g id="graph0" class="graph" transform="scale(1 1) rotate(0) translate(4 136)">
<title>AmcGenericAdcDacCore</title>
<polygon fill="#ffffff" stroke="transparent" points="-4,4 -4,-136 494.5,-136 494.5,4 -4,4"/>
<!-- Node0 -->
<g id="node1" class="node">
<title>Node0</title>
<polygon fill="#bfbfbf" stroke="#000000" points="137,-56.5 137,-75.5 272,-75.5 272,-56.5 137,-56.5"/>
<text text-anchor="middle" x="204.5" y="-63.5" font-family="Helvetica,sans-Serif" font-size="10.00" fill="#000000">AmcGenericAdcDacCore</text>
</g>
<!-- Node5 -->
<g id="node6" class="node">
<title>Node5</title>
<g id="a_node6"><a xlink:href="classAmcGenericAdcDacDualCore.html" target="_top" xlink:title="AmcGenericAdcDacDualCore">
<polygon fill="#ffffff" stroke="#000000" points="125.5,-.5 125.5,-19.5 283.5,-19.5 283.5,-.5 125.5,-.5"/>
<text text-anchor="middle" x="204.5" y="-7.5" font-family="Helvetica,sans-Serif" font-size="10.00" fill="#000000">AmcGenericAdcDacDualCore</text>
</a>
</g>
</g>
<!-- Node0&#45;&gt;Node5 -->
<g id="edge5" class="edge">
<title>Node0&#45;&gt;Node5</title>
<path fill="none" stroke="#191970" d="M204.5,-46.1575C204.5,-37.155 204.5,-26.9199 204.5,-19.6427"/>
<polygon fill="#191970" stroke="#191970" points="201.0001,-46.2455 204.5,-56.2455 208.0001,-46.2456 201.0001,-46.2455"/>
</g>
<!-- Node1 -->
<g id="node2" class="node">
<title>Node1</title>
<g id="a_node2"><a xlink:href="classJesdSyncIn.html" target="_top" xlink:title="JesdSyncIn(2)">
<polygon fill="#ffffff" stroke="#000000" points="0,-112.5 0,-131.5 83,-131.5 83,-112.5 0,-112.5"/>
<text text-anchor="middle" x="41.5" y="-119.5" font-family="Helvetica,sans-Serif" font-size="10.00" fill="#000000">JesdSyncIn(2)</text>
</a>
</g>
</g>
<!-- Node1&#45;&gt;Node0 -->
<g id="edge1" class="edge">
<title>Node1&#45;&gt;Node0</title>
<path fill="none" stroke="#191970" d="M79.1733,-109.057C109.0042,-98.8084 149.9852,-84.729 176.8449,-75.5011"/>
<polygon fill="#191970" stroke="#191970" points="77.8409,-105.8139 69.5207,-112.3733 80.1154,-112.4341 77.8409,-105.8139"/>
</g>
<!-- Node2 -->
<g id="node3" class="node">
<title>Node2</title>
<g id="a_node3"><a xlink:href="classJesdSyncOut.html" target="_top" xlink:title="JesdSyncOut">
<polygon fill="#ffffff" stroke="#000000" points="101,-112.5 101,-131.5 178,-131.5 178,-112.5 101,-112.5"/>
<text text-anchor="middle" x="139.5" y="-119.5" font-family="Helvetica,sans-Serif" font-size="10.00" fill="#000000">JesdSyncOut</text>
</a>
</g>
</g>
<!-- Node2&#45;&gt;Node0 -->
<g id="edge2" class="edge">
<title>Node2&#45;&gt;Node0</title>
<path fill="none" stroke="#191970" d="M158.4835,-105.645C169.7879,-95.9058 183.747,-83.8795 193.3076,-75.6427"/>
<polygon fill="#191970" stroke="#191970" points="156.1138,-103.0668 150.8221,-112.2455 160.6827,-108.3701 156.1138,-103.0668"/>
</g>
<!-- Node3 -->
<g id="node4" class="node">
<title>Node3</title>
<g id="a_node4"><a xlink:href="classAmcGenericAdcDacVcoSpi.html" target="_top" xlink:title="AmcGenericAdcDacVcoSpi">
<polygon fill="#ffffff" stroke="#000000" points="196.5,-112.5 196.5,-131.5 342.5,-131.5 342.5,-112.5 196.5,-112.5"/>
<text text-anchor="middle" x="269.5" y="-119.5" font-family="Helvetica,sans-Serif" font-size="10.00" fill="#000000">AmcGenericAdcDacVcoSpi</text>
</a>
</g>
</g>
<!-- Node3&#45;&gt;Node0 -->
<g id="edge3" class="edge">
<title>Node3&#45;&gt;Node0</title>
<path fill="none" stroke="#191970" d="M250.5165,-105.645C239.2121,-95.9058 225.253,-83.8795 215.6924,-75.6427"/>
<polygon fill="#191970" stroke="#191970" points="248.3173,-108.3701 258.1779,-112.2455 252.8862,-103.0668 248.3173,-108.3701"/>
</g>
<!-- Node4 -->
<g id="node5" class="node">
<title>Node4</title>
<g id="a_node5"><a xlink:href="classAmcGenericAdcDacCtrl.html" target="_top" xlink:title="AmcGenericAdcDacCtrl">
<polygon fill="#ffffff" stroke="#000000" points="360.5,-112.5 360.5,-131.5 490.5,-131.5 490.5,-112.5 360.5,-112.5"/>
<text text-anchor="middle" x="425.5" y="-119.5" font-family="Helvetica,sans-Serif" font-size="10.00" fill="#000000">AmcGenericAdcDacCtrl</text>
</a>
</g>
</g>
<!-- Node4&#45;&gt;Node0 -->
<g id="edge4" class="edge">
<title>Node4&#45;&gt;Node0</title>
<path fill="none" stroke="#191970" d="M377.8137,-109.9166C337.164,-99.6162 279.5333,-85.013 242.0845,-75.5237"/>
<polygon fill="#191970" stroke="#191970" points="377.2065,-113.3733 387.7599,-112.4369 378.9259,-106.5877 377.2065,-113.3733"/>
</g>
</g>
</svg>
