<?xml version="1.0" encoding="UTF-8" standalone="no"?>
<!DOCTYPE svg PUBLIC "-//W3C//DTD SVG 1.1//EN"
 "http://www.w3.org/Graphics/SVG/1.1/DTD/svg11.dtd">
<!-- Generated by graphviz version 2.40.1 (20161225.0304)
 -->
<!-- Title: RtmRfInterlockCore Pages: 1 -->
<svg width="465pt" height="196pt"
 viewBox="0.00 0.00 465.00 196.00" xmlns="http://www.w3.org/2000/svg" xmlns:xlink="http://www.w3.org/1999/xlink">
<g id="graph0" class="graph" transform="scale(1 1) rotate(0) translate(4 192)">
<title>RtmRfInterlockCore</title>
<polygon fill="#ffffff" stroke="transparent" points="-4,4 -4,-192 461,-192 461,4 -4,4"/>
<!-- Node0 -->
<g id="node1" class="node">
<title>Node0</title>
<polygon fill="#bfbfbf" stroke="#000000" points="186,-56.5 186,-75.5 299,-75.5 299,-56.5 186,-56.5"/>
<text text-anchor="middle" x="242.5" y="-63.5" font-family="Helvetica,sans-Serif" font-size="10.00" fill="#000000">RtmRfInterlockCore</text>
</g>
<!-- Node7 -->
<g id="node8" class="node">
<title>Node7</title>
<g id="a_node8"><a xlink:href="classRtmRfInterlock.html" target="_top" xlink:title="RtmRfInterlock">
<polygon fill="#ffffff" stroke="#000000" points="197.5,-.5 197.5,-19.5 287.5,-19.5 287.5,-.5 197.5,-.5"/>
<text text-anchor="middle" x="242.5" y="-7.5" font-family="Helvetica,sans-Serif" font-size="10.00" fill="#000000">RtmRfInterlock</text>
</a>
</g>
</g>
<!-- Node0&#45;&gt;Node7 -->
<g id="edge7" class="edge">
<title>Node0&#45;&gt;Node7</title>
<path fill="none" stroke="#191970" d="M242.5,-46.1575C242.5,-37.155 242.5,-26.9199 242.5,-19.6427"/>
<polygon fill="#191970" stroke="#191970" points="239.0001,-46.2455 242.5,-56.2455 246.0001,-46.2456 239.0001,-46.2455"/>
</g>
<!-- Node1 -->
<g id="node2" class="node">
<title>Node1</title>
<g id="a_node2"><a xlink:href="classAd9229Core.html" target="_top" xlink:title="Ad9229Core">
<polygon fill="#ffffff" stroke="#000000" points="41.5,-112.5 41.5,-131.5 117.5,-131.5 117.5,-112.5 41.5,-112.5"/>
<text text-anchor="middle" x="79.5" y="-119.5" font-family="Helvetica,sans-Serif" font-size="10.00" fill="#000000">Ad9229Core</text>
</a>
</g>
</g>
<!-- Node1&#45;&gt;Node0 -->
<g id="edge1" class="edge">
<title>Node1&#45;&gt;Node0</title>
<path fill="none" stroke="#191970" d="M117.1733,-109.057C147.0042,-98.8084 187.9852,-84.729 214.8449,-75.5011"/>
<polygon fill="#191970" stroke="#191970" points="115.8409,-105.8139 107.5207,-112.3733 118.1154,-112.4341 115.8409,-105.8139"/>
</g>
<!-- Node2 -->
<g id="node3" class="node">
<title>Node2</title>
<g id="a_node3"><a xlink:href="classAd9229Deserializer.html" target="_top" xlink:title="Ad9229Deserializer(2)">
<polygon fill="#ffffff" stroke="#000000" points="0,-168.5 0,-187.5 125,-187.5 125,-168.5 0,-168.5"/>
<text text-anchor="middle" x="62.5" y="-175.5" font-family="Helvetica,sans-Serif" font-size="10.00" fill="#000000">Ad9229Deserializer(2)</text>
</a>
</g>
</g>
<!-- Node2&#45;&gt;Node1 -->
<g id="edge2" class="edge">
<title>Node2&#45;&gt;Node1</title>
<path fill="none" stroke="#191970" d="M68.4337,-158.4538C71.1881,-149.3803 74.3393,-138.9998 76.5728,-131.6427"/>
<polygon fill="#191970" stroke="#191970" points="65.017,-157.66 65.4612,-168.2455 71.7151,-159.6934 65.017,-157.66"/>
</g>
<!-- Node3 -->
<g id="node4" class="node">
<title>Node3</title>
<g id="a_node4"><a xlink:href="classAxiSpiAd7682.html" target="_top" xlink:title="AxiSpiAd7682">
<polygon fill="#ffffff" stroke="#000000" points="143.5,-112.5 143.5,-131.5 227.5,-131.5 227.5,-112.5 143.5,-112.5"/>
<text text-anchor="middle" x="185.5" y="-119.5" font-family="Helvetica,sans-Serif" font-size="10.00" fill="#000000">AxiSpiAd7682</text>
</a>
</g>
</g>
<!-- Node3&#45;&gt;Node0 -->
<g id="edge3" class="edge">
<title>Node3&#45;&gt;Node0</title>
<path fill="none" stroke="#191970" d="M202.7271,-105.0751C212.5341,-95.4402 224.464,-83.7196 232.6851,-75.6427"/>
<polygon fill="#191970" stroke="#191970" points="200.1091,-102.7406 195.4286,-112.2455 205.0149,-107.734 200.1091,-102.7406"/>
</g>
<!-- Node4 -->
<g id="node5" class="node">
<title>Node4</title>
<g id="a_node5"><a xlink:href="classAxiSpiAd7682Reg.html" target="_top" xlink:title="AxiSpiAd7682Reg">
<polygon fill="#ffffff" stroke="#000000" points="143.5,-168.5 143.5,-187.5 245.5,-187.5 245.5,-168.5 143.5,-168.5"/>
<text text-anchor="middle" x="194.5" y="-175.5" font-family="Helvetica,sans-Serif" font-size="10.00" fill="#000000">AxiSpiAd7682Reg</text>
</a>
</g>
</g>
<!-- Node4&#45;&gt;Node3 -->
<g id="edge4" class="edge">
<title>Node4&#45;&gt;Node3</title>
<path fill="none" stroke="#191970" d="M191.311,-158.1575C189.8642,-149.155 188.2193,-138.9199 187.0497,-131.6427"/>
<polygon fill="#191970" stroke="#191970" points="187.8898,-158.9276 192.9323,-168.2455 194.8011,-157.8168 187.8898,-158.9276"/>
</g>
<!-- Node5 -->
<g id="node6" class="node">
<title>Node5</title>
<g id="a_node6"><a xlink:href="classRtmRfInterlockReg.html" target="_top" xlink:title="RtmRfInterlockReg">
<polygon fill="#ffffff" stroke="#000000" points="245.5,-112.5 245.5,-131.5 353.5,-131.5 353.5,-112.5 245.5,-112.5"/>
<text text-anchor="middle" x="299.5" y="-119.5" font-family="Helvetica,sans-Serif" font-size="10.00" fill="#000000">RtmRfInterlockReg</text>
</a>
</g>
</g>
<!-- Node5&#45;&gt;Node0 -->
<g id="edge5" class="edge">
<title>Node5&#45;&gt;Node0</title>
<path fill="none" stroke="#191970" d="M282.2729,-105.0751C272.4659,-95.4402 260.536,-83.7196 252.3149,-75.6427"/>
<polygon fill="#191970" stroke="#191970" points="279.9851,-107.734 289.5714,-112.2455 284.8909,-102.7406 279.9851,-107.734"/>
</g>
<!-- Node6 -->
<g id="node7" class="node">
<title>Node6</title>
<g id="a_node7"><a xlink:href="classRingBufferCtrl.html" target="_top" xlink:title="RingBufferCtrl">
<polygon fill="#ffffff" stroke="#000000" points="372,-112.5 372,-131.5 457,-131.5 457,-112.5 372,-112.5"/>
<text text-anchor="middle" x="414.5" y="-119.5" font-family="Helvetica,sans-Serif" font-size="10.00" fill="#000000">RingBufferCtrl</text>
</a>
</g>
</g>
<!-- Node6&#45;&gt;Node0 -->
<g id="edge6" class="edge">
<title>Node6&#45;&gt;Node0</title>
<path fill="none" stroke="#191970" d="M375.1565,-109.1905C343.6449,-98.9309 300.1481,-84.7691 271.682,-75.5011"/>
<polygon fill="#191970" stroke="#191970" points="374.3399,-112.6054 384.9321,-112.3733 376.507,-105.9493 374.3399,-112.6054"/>
</g>
</g>
</svg>
