<?xml version="1.0" encoding="UTF-8" standalone="no"?>
<!DOCTYPE svg PUBLIC "-//W3C//DTD SVG 1.1//EN"
 "http://www.w3.org/Graphics/SVG/1.1/DTD/svg11.dtd">
<!-- Generated by graphviz version 2.40.1 (20161225.0304)
 -->
<!-- Title: AmcCarrierSysReg Pages: 1 -->
<svg width="222pt" height="84pt"
 viewBox="0.00 0.00 221.50 84.00" xmlns="http://www.w3.org/2000/svg" xmlns:xlink="http://www.w3.org/1999/xlink">
<g id="graph0" class="graph" transform="scale(1 1) rotate(0) translate(4 80)">
<title>AmcCarrierSysReg</title>
<polygon fill="#ffffff" stroke="transparent" points="-4,4 -4,-80 217.5,-80 217.5,4 -4,4"/>
<!-- Node6 -->
<g id="node1" class="node">
<title>Node6</title>
<polygon fill="#bfbfbf" stroke="#000000" points="59,-.5 59,-19.5 166,-19.5 166,-.5 59,-.5"/>
<text text-anchor="middle" x="112.5" y="-7.5" font-family="Helvetica,sans-Serif" font-size="10.00" fill="#000000">AmcCarrierSysReg</text>
</g>
<!-- Node7 -->
<g id="node2" class="node">
<title>Node7</title>
<g id="a_node2"><a xlink:href="classAmcCarrierSysMon.html" target="_top" xlink:title="AmcCarrierSysMon">
<polygon fill="#ffffff" stroke="#000000" points="0,-56.5 0,-75.5 109,-75.5 109,-56.5 0,-56.5"/>
<text text-anchor="middle" x="54.5" y="-63.5" font-family="Helvetica,sans-Serif" font-size="10.00" fill="#000000">AmcCarrierSysMon</text>
</a>
</g>
</g>
<!-- Node7&#45;&gt;Node6 -->
<g id="edge1" class="edge">
<title>Node7&#45;&gt;Node6</title>
<path fill="none" stroke="#191970" d="M72.0293,-49.0751C82.0083,-39.4402 94.1476,-27.7196 102.5129,-19.6427"/>
<polygon fill="#191970" stroke="#191970" points="69.3658,-46.7817 64.6028,-56.2455 74.228,-51.8175 69.3658,-46.7817"/>
</g>
<!-- Node8 -->
<g id="node3" class="node">
<title>Node8</title>
<g id="a_node3"><a xlink:href="classAmcCarrierBsi.html" target="_top" xlink:title="AmcCarrierBsi">
<polygon fill="#ffffff" stroke="#000000" points="127.5,-56.5 127.5,-75.5 213.5,-75.5 213.5,-56.5 127.5,-56.5"/>
<text text-anchor="middle" x="170.5" y="-63.5" font-family="Helvetica,sans-Serif" font-size="10.00" fill="#000000">AmcCarrierBsi</text>
</a>
</g>
</g>
<!-- Node8&#45;&gt;Node6 -->
<g id="edge2" class="edge">
<title>Node8&#45;&gt;Node6</title>
<path fill="none" stroke="#191970" d="M152.9707,-49.0751C142.9917,-39.4402 130.8524,-27.7196 122.4871,-19.6427"/>
<polygon fill="#191970" stroke="#191970" points="150.772,-51.8175 160.3972,-56.2455 155.6342,-46.7817 150.772,-51.8175"/>
</g>
</g>
</svg>
