<?xml version="1.0" encoding="UTF-8" standalone="no"?>
<!DOCTYPE svg PUBLIC "-//W3C//DTD SVG 1.1//EN"
 "http://www.w3.org/Graphics/SVG/1.1/DTD/svg11.dtd">
<!-- Generated by graphviz version 2.40.1 (20161225.0304)
 -->
<!-- Title: AmcCarrierCoreAdv Pages: 1 -->
<!--zoomable 484 -->
<svg id="main" version="1.1" xmlns="http://www.w3.org/2000/svg" xmlns:xlink="http://www.w3.org/1999/xlink" xml:space="preserve" onload="init(evt)">
<style type="text/css"><![CDATA[
.edge:hover path { stroke: red; }
.edge:hover polygon { stroke: red; fill: red; }
]]></style>
<script type="text/javascript"><![CDATA[
var edges = document.getElementsByTagName('g');
if (edges && edges.length) {
  for (var i=0;i<edges.length;i++) {
    if (edges[i].id.substr(0,4)=='edge') {
      edges[i].setAttribute('class','edge');
    }
  }
}
]]></script>
        <defs>
                <circle id="rim" cx="0" cy="0" r="7"/>
                <circle id="rim2" cx="0" cy="0" r="3.5"/>
                <g id="zoomPlus">
                        <use xlink:href="#rim" fill="#404040">
                                <set attributeName="fill" to="#808080" begin="zoomplus.mouseover" end="zoomplus.mouseout"/>
                        </use>
                        <path d="M-4,0h8M0,-4v8" fill="none" stroke="white" stroke-width="1.5" pointer-events="none"/>
                </g>
                <g id="zoomMin">
                        <use xlink:href="#rim" fill="#404040">
                                <set attributeName="fill" to="#808080" begin="zoomminus.mouseover" end="zoomminus.mouseout"/>
                        </use>
                        <path d="M-4,0h8" fill="none" stroke="white" stroke-width="1.5" pointer-events="none"/>
                </g>
                <g id="dirArrow">
                        <path fill="none" stroke="white" stroke-width="1.5" d="M0,-3.0v7 M-2.5,-0.5L0,-3.0L2.5,-0.5"/>
                </g>
               <g id="resetDef">
                       <use xlink:href="#rim2" fill="#404040">
                               <set attributeName="fill" to="#808080" begin="reset.mouseover" end="reset.mouseout"/>
                       </use>
               </g>
        </defs>

<script type="text/javascript">
var viewWidth = 776;
var viewHeight = 484;
var sectionId = 'dynsection-1';
</script>
<script xlink:href="svgpan.js"/>
<svg id="graph" class="graph">
<g id="viewport">
<title>AmcCarrierCoreAdv</title>
<polygon fill="#ffffff" stroke="transparent" points="-4,4 -4,-480 772,-480 772,4 -4,4"/>
<!-- Node30 -->
<g id="node1" class="node">
<title>Node30</title>
<polygon fill="#bfbfbf" stroke="#000000" points="655,-342.5 655,-361.5 768,-361.5 768,-342.5 655,-342.5"/>
<text text-anchor="middle" x="711.5" y="-349.5" font-family="Helvetica,sans-Serif" font-size="10.00" fill="#000000">AmcCarrierCoreAdv</text>
</g>
<!-- Node31 -->
<g id="node2" class="node">
<title>Node31</title>
<g id="a_node2"><a xlink:href="classAmcCarrierSysReg.html" target="_top" xlink:title="AmcCarrierSysReg">
<polygon fill="#ffffff" stroke="#000000" points="512,-418.5 512,-437.5 619,-437.5 619,-418.5 512,-418.5"/>
<text text-anchor="middle" x="565.5" y="-425.5" font-family="Helvetica,sans-Serif" font-size="10.00" fill="#000000">AmcCarrierSysReg</text>
</a>
</g>
</g>
<!-- Node31&#45;&gt;Node30 -->
<g id="edge1" class="edge">
<title>Node31&#45;&gt;Node30</title>
<path fill="none" stroke="#191970" d="M592.8874,-413.7435C622.2046,-398.4826 667.8986,-374.6966 693.1591,-361.5473"/>
<polygon fill="#191970" stroke="#191970" points="591.2451,-410.6526 583.991,-418.3745 594.4773,-416.8617 591.2451,-410.6526"/>
</g>
<!-- Node32 -->
<g id="node3" class="node">
<title>Node32</title>
<g id="a_node3"><a xlink:href="classAmcCarrierSysMon.html" target="_top" xlink:title="AmcCarrierSysMon">
<polygon fill="#ffffff" stroke="#000000" points="365,-456.5 365,-475.5 474,-475.5 474,-456.5 365,-456.5"/>
<text text-anchor="middle" x="419.5" y="-463.5" font-family="Helvetica,sans-Serif" font-size="10.00" fill="#000000">AmcCarrierSysMon</text>
</a>
</g>
</g>
<!-- Node32&#45;&gt;Node31 -->
<g id="edge2" class="edge">
<title>Node32&#45;&gt;Node31</title>
<path fill="none" stroke="#191970" d="M466.036,-453.8879C486.3696,-448.5956 509.8713,-442.4787 528.923,-437.5201"/>
<polygon fill="#191970" stroke="#191970" points="465.1379,-450.5049 456.342,-456.411 466.9012,-457.2793 465.1379,-450.5049"/>
</g>
<!-- Node33 -->
<g id="node4" class="node">
<title>Node33</title>
<g id="a_node4"><a xlink:href="classAmcCarrierBsi.html" target="_top" xlink:title="AmcCarrierBsi">
<polygon fill="#ffffff" stroke="#000000" points="376.5,-418.5 376.5,-437.5 462.5,-437.5 462.5,-418.5 376.5,-418.5"/>
<text text-anchor="middle" x="419.5" y="-425.5" font-family="Helvetica,sans-Serif" font-size="10.00" fill="#000000">AmcCarrierBsi</text>
</a>
</g>
</g>
<!-- Node33&#45;&gt;Node31 -->
<g id="edge3" class="edge">
<title>Node33&#45;&gt;Node31</title>
<path fill="none" stroke="#191970" d="M472.5663,-428C485.378,-428 499.0768,-428 511.9123,-428"/>
<polygon fill="#191970" stroke="#191970" points="472.5152,-424.5001 462.5152,-428 472.5151,-431.5001 472.5152,-424.5001"/>
</g>
<!-- Node34 -->
<g id="node5" class="node">
<title>Node34</title>
<g id="a_node5"><a xlink:href="classAppMps.html" target="_top" xlink:title="AppMps">
<polygon fill="#ffffff" stroke="#000000" points="538,-342.5 538,-361.5 593,-361.5 593,-342.5 538,-342.5"/>
<text text-anchor="middle" x="565.5" y="-349.5" font-family="Helvetica,sans-Serif" font-size="10.00" fill="#000000">AppMps</text>
</a>
</g>
</g>
<!-- Node34&#45;&gt;Node30 -->
<g id="edge4" class="edge">
<title>Node34&#45;&gt;Node30</title>
<path fill="none" stroke="#191970" d="M603.6225,-352C619.2395,-352 637.6405,-352 654.7799,-352"/>
<polygon fill="#191970" stroke="#191970" points="603.3052,-348.5001 593.3051,-352 603.3051,-355.5001 603.3052,-348.5001"/>
</g>
<!-- Node35 -->
<g id="node6" class="node">
<title>Node35</title>
<g id="a_node6"><a xlink:href="classAppMpsClk.html" target="_top" xlink:title="AppMpsClk">
<polygon fill="#ffffff" stroke="#000000" points="384,-380.5 384,-399.5 455,-399.5 455,-380.5 384,-380.5"/>
<text text-anchor="middle" x="419.5" y="-387.5" font-family="Helvetica,sans-Serif" font-size="10.00" fill="#000000">AppMpsClk</text>
</a>
</g>
</g>
<!-- Node35&#45;&gt;Node34 -->
<g id="edge5" class="edge">
<title>Node35&#45;&gt;Node34</title>
<path fill="none" stroke="#191970" d="M465.1285,-378.1241C488.9957,-371.9121 517.4276,-364.512 537.9273,-359.1765"/>
<polygon fill="#191970" stroke="#191970" points="464.0116,-374.7981 455.2156,-380.7042 465.7748,-381.5724 464.0116,-374.7981"/>
</g>
<!-- Node36 -->
<g id="node7" class="node">
<title>Node36</title>
<g id="a_node7"><a xlink:href="classAppMpsEncoder.html" target="_top" xlink:title="AppMpsEncoder">
<polygon fill="#ffffff" stroke="#000000" points="372.5,-342.5 372.5,-361.5 466.5,-361.5 466.5,-342.5 372.5,-342.5"/>
<text text-anchor="middle" x="419.5" y="-349.5" font-family="Helvetica,sans-Serif" font-size="10.00" fill="#000000">AppMpsEncoder</text>
</a>
</g>
</g>
<!-- Node36&#45;&gt;Node34 -->
<g id="edge6" class="edge">
<title>Node36&#45;&gt;Node34</title>
<path fill="none" stroke="#191970" d="M477.0156,-352C497.9751,-352 520.7197,-352 537.9004,-352"/>
<polygon fill="#191970" stroke="#191970" points="476.9021,-348.5001 466.902,-352 476.902,-355.5001 476.9021,-348.5001"/>
</g>
<!-- Node37 -->
<g id="node8" class="node">
<title>Node37</title>
<g id="a_node8"><a xlink:href="classAppMpsReg.html" target="_top" xlink:title="AppMpsReg">
<polygon fill="#ffffff" stroke="#000000" points="213,-380.5 213,-399.5 286,-399.5 286,-380.5 213,-380.5"/>
<text text-anchor="middle" x="249.5" y="-387.5" font-family="Helvetica,sans-Serif" font-size="10.00" fill="#000000">AppMpsReg</text>
</a>
</g>
</g>
<!-- Node37&#45;&gt;Node36 -->
<g id="edge7" class="edge">
<title>Node37&#45;&gt;Node36</title>
<path fill="none" stroke="#191970" d="M296.4552,-379.5041C321.6632,-373.8694 352.4959,-366.9774 376.9907,-361.5021"/>
<polygon fill="#191970" stroke="#191970" points="295.3831,-376.1573 286.3875,-381.7546 296.9102,-382.9887 295.3831,-376.1573"/>
</g>
<!-- Node38 -->
<g id="node9" class="node">
<title>Node38</title>
<g id="a_node9"><a xlink:href="classAppMpsRegBase.html" target="_top" xlink:title="AppMpsRegBase">
<polygon fill="#ffffff" stroke="#000000" points="19.5,-399.5 19.5,-418.5 116.5,-418.5 116.5,-399.5 19.5,-399.5"/>
<text text-anchor="middle" x="68" y="-406.5" font-family="Helvetica,sans-Serif" font-size="10.00" fill="#000000">AppMpsRegBase</text>
</a>
</g>
</g>
<!-- Node38&#45;&gt;Node37 -->
<g id="edge8" class="edge">
<title>Node38&#45;&gt;Node37</title>
<path fill="none" stroke="#191970" d="M126.825,-402.842C155.1225,-399.8797 188.1664,-396.4206 212.8254,-393.8392"/>
<polygon fill="#191970" stroke="#191970" points="126.2199,-399.3861 116.6387,-403.9083 126.9488,-406.3481 126.2199,-399.3861"/>
</g>
<!-- Node39 -->
<g id="node10" class="node">
<title>Node39</title>
<g id="a_node10"><a xlink:href="classAppMpsRegAppCh.html" target="_top" xlink:title="AppMpsRegAppCh">
<polygon fill="#ffffff" stroke="#000000" points="16,-361.5 16,-380.5 120,-380.5 120,-361.5 16,-361.5"/>
<text text-anchor="middle" x="68" y="-368.5" font-family="Helvetica,sans-Serif" font-size="10.00" fill="#000000">AppMpsRegAppCh</text>
</a>
</g>
</g>
<!-- Node39&#45;&gt;Node37 -->
<g id="edge9" class="edge">
<title>Node39&#45;&gt;Node37</title>
<path fill="none" stroke="#191970" d="M129.9598,-377.4861C157.5085,-380.37 189.0058,-383.6673 212.7511,-386.153"/>
<polygon fill="#191970" stroke="#191970" points="130.3207,-374.0049 120.0106,-376.4446 129.5918,-380.9668 130.3207,-374.0049"/>
</g>
<!-- Node40 -->
<g id="node11" class="node">
<title>Node40</title>
<g id="a_node11"><a xlink:href="classAppMpsSelect.html" target="_top" xlink:title="AppMpsSelect">
<polygon fill="#ffffff" stroke="#000000" points="207,-342.5 207,-361.5 292,-361.5 292,-342.5 207,-342.5"/>
<text text-anchor="middle" x="249.5" y="-349.5" font-family="Helvetica,sans-Serif" font-size="10.00" fill="#000000">AppMpsSelect</text>
</a>
</g>
</g>
<!-- Node40&#45;&gt;Node36 -->
<g id="edge10" class="edge">
<title>Node40&#45;&gt;Node36</title>
<path fill="none" stroke="#191970" d="M302.4176,-352C324.8179,-352 350.702,-352 372.4277,-352"/>
<polygon fill="#191970" stroke="#191970" points="302.3982,-348.5001 292.3982,-352 302.3981,-355.5001 302.3982,-348.5001"/>
</g>
<!-- Node41 -->
<g id="node12" class="node">
<title>Node41</title>
<g id="a_node12"><a xlink:href="classMpsMsgCore.html" target="_top" xlink:title="MpsMsgCore">
<polygon fill="#ffffff" stroke="#000000" points="210.5,-304.5 210.5,-323.5 288.5,-323.5 288.5,-304.5 210.5,-304.5"/>
<text text-anchor="middle" x="249.5" y="-311.5" font-family="Helvetica,sans-Serif" font-size="10.00" fill="#000000">MpsMsgCore</text>
</a>
</g>
</g>
<!-- Node41&#45;&gt;Node36 -->
<g id="edge11" class="edge">
<title>Node41&#45;&gt;Node36</title>
<path fill="none" stroke="#191970" d="M298.424,-324.936C323.1909,-330.4721 352.9751,-337.1297 376.805,-342.4564"/>
<polygon fill="#191970" stroke="#191970" points="299.0241,-321.4838 288.5014,-322.718 297.4971,-328.3152 299.0241,-321.4838"/>
</g>
<!-- Node42 -->
<g id="node13" class="node">
<title>Node42</title>
<g id="a_node13"><a xlink:href="classAppMpsSalt.html" target="_top" xlink:title="AppMpsSalt">
<polygon fill="#ffffff" stroke="#000000" points="382.5,-304.5 382.5,-323.5 456.5,-323.5 456.5,-304.5 382.5,-304.5"/>
<text text-anchor="middle" x="419.5" y="-311.5" font-family="Helvetica,sans-Serif" font-size="10.00" fill="#000000">AppMpsSalt</text>
</a>
</g>
</g>
<!-- Node42&#45;&gt;Node34 -->
<g id="edge12" class="edge">
<title>Node42&#45;&gt;Node34</title>
<path fill="none" stroke="#191970" d="M466.1752,-326.1483C489.8079,-332.2993 517.6906,-339.5565 537.8883,-344.8134"/>
<polygon fill="#191970" stroke="#191970" points="466.9012,-322.7207 456.342,-323.589 465.1379,-329.4951 466.9012,-322.7207"/>
</g>
<!-- Node43 -->
<g id="node14" class="node">
<title>Node43</title>
<g id="a_node14"><a xlink:href="classAmcCarrierCore.html" target="_top" xlink:title="AmcCarrierCore">
<polygon fill="#ffffff" stroke="#000000" points="518.5,-209.5 518.5,-228.5 612.5,-228.5 612.5,-209.5 518.5,-209.5"/>
<text text-anchor="middle" x="565.5" y="-216.5" font-family="Helvetica,sans-Serif" font-size="10.00" fill="#000000">AmcCarrierCore</text>
</a>
</g>
</g>
<!-- Node43&#45;&gt;Node30 -->
<g id="edge13" class="edge">
<title>Node43&#45;&gt;Node30</title>
<path fill="none" stroke="#191970" d="M583.4361,-235.339C614.1233,-263.2938 675.7961,-319.4752 700.7013,-342.1628"/>
<polygon fill="#191970" stroke="#191970" points="585.7495,-232.712 576,-228.565 581.0355,-237.8867 585.7495,-232.712"/>
</g>
<!-- Node44 -->
<g id="node15" class="node">
<title>Node44</title>
<g id="a_node15"><a xlink:href="classAmcCarrierIbufGt.html" target="_top" xlink:title="AmcCarrierIbufGt">
<polygon fill="#ffffff" stroke="#000000" points="199,-266.5 199,-285.5 300,-285.5 300,-266.5 199,-266.5"/>
<text text-anchor="middle" x="249.5" y="-273.5" font-family="Helvetica,sans-Serif" font-size="10.00" fill="#000000">AmcCarrierIbufGt</text>
</a>
</g>
</g>
<!-- Node44&#45;&gt;Node43 -->
<g id="edge14" class="edge">
<title>Node44&#45;&gt;Node43</title>
<path fill="none" stroke="#191970" d="M310.3018,-276.1017C356.3959,-274.9344 420.9793,-270.6163 476,-257 501.8905,-250.5927 529.9148,-237.6194 547.5768,-228.6257"/>
<polygon fill="#191970" stroke="#191970" points="310.0969,-272.6052 300.1729,-276.3152 310.2444,-279.6036 310.0969,-272.6052"/>
</g>
<!-- Node52 -->
<g id="node23" class="node">
<title>Node52</title>
<g id="a_node23"><a xlink:href="classAmcCarrierTiming.html" target="_top" xlink:title="AmcCarrierTiming">
<polygon fill="#ffffff" stroke="#000000" points="367,-228.5 367,-247.5 472,-247.5 472,-228.5 367,-228.5"/>
<text text-anchor="middle" x="419.5" y="-235.5" font-family="Helvetica,sans-Serif" font-size="10.00" fill="#000000">AmcCarrierTiming</text>
</a>
</g>
</g>
<!-- Node44&#45;&gt;Node52 -->
<g id="edge23" class="edge">
<title>Node44&#45;&gt;Node52</title>
<path fill="none" stroke="#191970" d="M302.3981,-264.1757C326.365,-258.8184 354.3235,-252.5689 376.9103,-247.5201"/>
<polygon fill="#191970" stroke="#191970" points="301.3938,-260.8138 292.3982,-266.411 302.9209,-267.6452 301.3938,-260.8138"/>
</g>
<!-- Node45 -->
<g id="node16" class="node">
<title>Node45</title>
<g id="a_node16"><a xlink:href="classAmcCarrierEth.html" target="_top" xlink:title="AmcCarrierEth">
<polygon fill="#ffffff" stroke="#000000" points="376,-190.5 376,-209.5 463,-209.5 463,-190.5 376,-190.5"/>
<text text-anchor="middle" x="419.5" y="-197.5" font-family="Helvetica,sans-Serif" font-size="10.00" fill="#000000">AmcCarrierEth</text>
</a>
</g>
</g>
<!-- Node45&#45;&gt;Node43 -->
<g id="edge15" class="edge">
<title>Node45&#45;&gt;Node43</title>
<path fill="none" stroke="#191970" d="M473.3311,-207.0054C488.1217,-208.9302 504.0422,-211.0021 518.4208,-212.8733"/>
<polygon fill="#191970" stroke="#191970" points="473.6729,-203.5205 463.3048,-205.7006 472.7695,-210.4619 473.6729,-203.5205"/>
</g>
<!-- Node46 -->
<g id="node17" class="node">
<title>Node46</title>
<g id="a_node17"><a xlink:href="classAmcCarrierXvcDebug.html" target="_top" xlink:title="AmcCarrierXvcDebug(2)">
<polygon fill="#ffffff" stroke="#000000" points="182.5,-228.5 182.5,-247.5 316.5,-247.5 316.5,-228.5 182.5,-228.5"/>
<text text-anchor="middle" x="249.5" y="-235.5" font-family="Helvetica,sans-Serif" font-size="10.00" fill="#000000">AmcCarrierXvcDebug(2)</text>
</a>
</g>
</g>
<!-- Node46&#45;&gt;Node45 -->
<g id="edge16" class="edge">
<title>Node46&#45;&gt;Node45</title>
<path fill="none" stroke="#191970" d="M302.3981,-226.1757C326.365,-220.8184 354.3235,-214.5689 376.9103,-209.5201"/>
<polygon fill="#191970" stroke="#191970" points="301.3938,-222.8138 292.3982,-228.411 302.9209,-229.6452 301.3938,-222.8138"/>
</g>
<!-- Node47 -->
<g id="node18" class="node">
<title>Node47</title>
<g id="a_node18"><a xlink:href="classUdpDebugBridge.html" target="_top" xlink:title="UdpDebugBridge">
<polygon fill="#ffffff" stroke="#000000" points="18.5,-228.5 18.5,-247.5 117.5,-247.5 117.5,-228.5 18.5,-228.5"/>
<text text-anchor="middle" x="68" y="-235.5" font-family="Helvetica,sans-Serif" font-size="10.00" fill="#000000">UdpDebugBridge</text>
</a>
</g>
</g>
<!-- Node47&#45;&gt;Node46 -->
<g id="edge17" class="edge">
<title>Node47&#45;&gt;Node46</title>
<path fill="none" stroke="#191970" d="M127.6594,-238C145.1345,-238 164.3591,-238 182.2707,-238"/>
<polygon fill="#191970" stroke="#191970" points="127.5957,-234.5001 117.5957,-238 127.5956,-241.5001 127.5957,-234.5001"/>
</g>
<!-- Node48 -->
<g id="node19" class="node">
<title>Node48</title>
<g id="a_node19"><a xlink:href="classAmcCarrierRssi.html" target="_top" xlink:title="AmcCarrierRssi(2)">
<polygon fill="#ffffff" stroke="#000000" points="197,-190.5 197,-209.5 302,-209.5 302,-190.5 197,-190.5"/>
<text text-anchor="middle" x="249.5" y="-197.5" font-family="Helvetica,sans-Serif" font-size="10.00" fill="#000000">AmcCarrierRssi(2)</text>
</a>
</g>
</g>
<!-- Node48&#45;&gt;Node45 -->
<g id="edge18" class="edge">
<title>Node48&#45;&gt;Node45</title>
<path fill="none" stroke="#191970" d="M312.513,-200C333.5677,-200 356.555,-200 375.807,-200"/>
<polygon fill="#191970" stroke="#191970" points="312.3572,-196.5001 302.3572,-200 312.3572,-203.5001 312.3572,-196.5001"/>
</g>
<!-- Node49 -->
<g id="node20" class="node">
<title>Node49</title>
<g id="a_node20"><a xlink:href="classAmcCarrierRssiObFifo.html" target="_top" xlink:title="AmcCarrierRssiObFifo(2)">
<polygon fill="#ffffff" stroke="#000000" points="0,-190.5 0,-209.5 136,-209.5 136,-190.5 0,-190.5"/>
<text text-anchor="middle" x="68" y="-197.5" font-family="Helvetica,sans-Serif" font-size="10.00" fill="#000000">AmcCarrierRssiObFifo(2)</text>
</a>
</g>
</g>
<!-- Node49&#45;&gt;Node48 -->
<g id="edge19" class="edge">
<title>Node49&#45;&gt;Node48</title>
<path fill="none" stroke="#191970" d="M146.1111,-200C163.2664,-200 181.0363,-200 196.9037,-200"/>
<polygon fill="#191970" stroke="#191970" points="146.1003,-196.5001 136.1003,-200 146.1003,-203.5001 146.1003,-196.5001"/>
</g>
<!-- Node50 -->
<g id="node21" class="node">
<title>Node50</title>
<g id="a_node21"><a xlink:href="classAmcCarrierRssiInterleave.html" target="_top" xlink:title="AmcCarrierRssiInterleave(2)">
<polygon fill="#ffffff" stroke="#000000" points="172,-152.5 172,-171.5 327,-171.5 327,-152.5 172,-152.5"/>
<text text-anchor="middle" x="249.5" y="-159.5" font-family="Helvetica,sans-Serif" font-size="10.00" fill="#000000">AmcCarrierRssiInterleave(2)</text>
</a>
</g>
</g>
<!-- Node50&#45;&gt;Node45 -->
<g id="edge20" class="edge">
<title>Node50&#45;&gt;Node45</title>
<path fill="none" stroke="#191970" d="M302.3981,-173.8243C326.365,-179.1816 354.3235,-185.4311 376.9103,-190.4799"/>
<polygon fill="#191970" stroke="#191970" points="302.9209,-170.3548 292.3982,-171.589 301.3938,-177.1862 302.9209,-170.3548"/>
</g>
<!-- Node51 -->
<g id="node22" class="node">
<title>Node51</title>
<g id="a_node22"><a xlink:href="classAmcCarrierRssiObFifo.html" target="_top" xlink:title="AmcCarrierRssiObFifo">
<polygon fill="#ffffff" stroke="#000000" points="7,-152.5 7,-171.5 129,-171.5 129,-152.5 7,-152.5"/>
<text text-anchor="middle" x="68" y="-159.5" font-family="Helvetica,sans-Serif" font-size="10.00" fill="#000000">AmcCarrierRssiObFifo</text>
</a>
</g>
</g>
<!-- Node51&#45;&gt;Node50 -->
<g id="edge21" class="edge">
<title>Node51&#45;&gt;Node50</title>
<path fill="none" stroke="#191970" d="M139.296,-162C149.9738,-162 161.0286,-162 171.8309,-162"/>
<polygon fill="#191970" stroke="#191970" points="139.1946,-158.5001 129.1946,-162 139.1946,-165.5001 139.1946,-158.5001"/>
</g>
<!-- Node52&#45;&gt;Node43 -->
<g id="edge22" class="edge">
<title>Node52&#45;&gt;Node43</title>
<path fill="none" stroke="#191970" d="M482.2214,-229.8376C494.2828,-228.268 506.7262,-226.6486 518.1988,-225.1556"/>
<polygon fill="#191970" stroke="#191970" points="481.674,-226.3793 472.2094,-231.1406 482.5774,-233.3207 481.674,-226.3793"/>
</g>
<!-- Node53 -->
<g id="node24" class="node">
<title>Node53</title>
<g id="a_node24"><a xlink:href="classAmcCarrierBsa.html" target="_top" xlink:title="AmcCarrierBsa">
<polygon fill="#ffffff" stroke="#000000" points="375,-95.5 375,-114.5 464,-114.5 464,-95.5 375,-95.5"/>
<text text-anchor="middle" x="419.5" y="-102.5" font-family="Helvetica,sans-Serif" font-size="10.00" fill="#000000">AmcCarrierBsa</text>
</a>
</g>
</g>
<!-- Node53&#45;&gt;Node43 -->
<g id="edge24" class="edge">
<title>Node53&#45;&gt;Node43</title>
<path fill="none" stroke="#191970" d="M439.9699,-120.9833C470.7029,-144.9803 527.8434,-189.5969 553.0285,-209.262"/>
<polygon fill="#191970" stroke="#191970" points="441.7327,-117.9192 431.6968,-114.5235 437.4246,-123.4365 441.7327,-117.9192"/>
</g>
<!-- Node54 -->
<g id="node25" class="node">
<title>Node54</title>
<g id="a_node25"><a xlink:href="classBsaWaveformEngine.html" target="_top" xlink:title="BsaWaveformEngine(2)">
<polygon fill="#ffffff" stroke="#000000" points="184,-114.5 184,-133.5 315,-133.5 315,-114.5 184,-114.5"/>
<text text-anchor="middle" x="249.5" y="-121.5" font-family="Helvetica,sans-Serif" font-size="10.00" fill="#000000">BsaWaveformEngine(2)</text>
</a>
</g>
</g>
<!-- Node54&#45;&gt;Node53 -->
<g id="edge25" class="edge">
<title>Node54&#45;&gt;Node53</title>
<path fill="none" stroke="#191970" d="M325.1679,-115.543C342.1875,-113.6408 359.7121,-111.6822 374.9681,-109.9771"/>
<polygon fill="#191970" stroke="#191970" points="324.7758,-112.0649 315.2264,-116.6541 325.5533,-119.0216 324.7758,-112.0649"/>
</g>
<!-- Node55 -->
<g id="node26" class="node">
<title>Node55</title>
<g id="a_node26"><a xlink:href="classBsaBufferControl.html" target="_top" xlink:title="BsaBufferControl">
<polygon fill="#ffffff" stroke="#000000" points="200,-76.5 200,-95.5 299,-95.5 299,-76.5 200,-76.5"/>
<text text-anchor="middle" x="249.5" y="-83.5" font-family="Helvetica,sans-Serif" font-size="10.00" fill="#000000">BsaBufferControl</text>
</a>
</g>
</g>
<!-- Node55&#45;&gt;Node53 -->
<g id="edge26" class="edge">
<title>Node55&#45;&gt;Node53</title>
<path fill="none" stroke="#191970" d="M309.166,-92.6686C330.7251,-95.0781 354.6772,-97.7551 374.7407,-99.9975"/>
<polygon fill="#191970" stroke="#191970" points="309.4549,-89.1791 299.128,-91.5467 308.6774,-96.1358 309.4549,-89.1791"/>
</g>
<!-- Node56 -->
<g id="node27" class="node">
<title>Node56</title>
<g id="a_node27"><a xlink:href="classBsaAccumulator.html" target="_top" xlink:title="BsaAccumulator">
<polygon fill="#ffffff" stroke="#000000" points="20,-76.5 20,-95.5 116,-95.5 116,-76.5 20,-76.5"/>
<text text-anchor="middle" x="68" y="-83.5" font-family="Helvetica,sans-Serif" font-size="10.00" fill="#000000">BsaAccumulator</text>
</a>
</g>
</g>
<!-- Node56&#45;&gt;Node55 -->
<g id="edge27" class="edge">
<title>Node56&#45;&gt;Node55</title>
<path fill="none" stroke="#191970" d="M126.4249,-86C150.0978,-86 177.1465,-86 199.8462,-86"/>
<polygon fill="#191970" stroke="#191970" points="126.1622,-82.5001 116.1622,-86 126.1621,-89.5001 126.1622,-82.5001"/>
</g>
<!-- Node57 -->
<g id="node28" class="node">
<title>Node57</title>
<g id="a_node28"><a xlink:href="classBsaAxiInterconnectWrapper.html" target="_top" xlink:title="BsaAxiInterconnectWrapper">
<polygon fill="#ffffff" stroke="#000000" points="173.5,-38.5 173.5,-57.5 325.5,-57.5 325.5,-38.5 173.5,-38.5"/>
<text text-anchor="middle" x="249.5" y="-45.5" font-family="Helvetica,sans-Serif" font-size="10.00" fill="#000000">BsaAxiInterconnectWrapper</text>
</a>
</g>
</g>
<!-- Node57&#45;&gt;Node53 -->
<g id="edge28" class="edge">
<title>Node57&#45;&gt;Node53</title>
<path fill="none" stroke="#191970" d="M306.0588,-60.1452C313.1907,-62.178 320.3224,-64.4635 327,-67 343.9126,-73.4243 346.372,-78.8713 363,-86 370.9897,-89.4253 379.8193,-92.6484 388.0774,-95.4332"/>
<polygon fill="#191970" stroke="#191970" points="306.9425,-56.7586 296.3758,-57.5302 305.1173,-63.5164 306.9425,-56.7586"/>
</g>
<!-- Node58 -->
<g id="node29" class="node">
<title>Node58</title>
<g id="a_node29"><a xlink:href="classBldAxiStream.html" target="_top" xlink:title="BldAxiStream">
<polygon fill="#ffffff" stroke="#000000" points="208,-.5 208,-19.5 291,-19.5 291,-.5 208,-.5"/>
<text text-anchor="middle" x="249.5" y="-7.5" font-family="Helvetica,sans-Serif" font-size="10.00" fill="#000000">BldAxiStream</text>
</a>
</g>
</g>
<!-- Node58&#45;&gt;Node53 -->
<g id="edge29" class="edge">
<title>Node58&#45;&gt;Node53</title>
<path fill="none" stroke="#191970" d="M300.7169,-16.6606C310.0301,-19.4582 319.2397,-23.4134 327,-29 351.3172,-46.5057 339.4391,-67.4889 363,-86 367.8826,-89.8361 373.5801,-92.9177 379.4423,-95.3878"/>
<polygon fill="#191970" stroke="#191970" points="301.5893,-13.2712 291.0305,-14.1446 299.8294,-20.0463 301.5893,-13.2712"/>
</g>
<!-- Node59 -->
<g id="node30" class="node">
<title>Node59</title>
<g id="a_node30"><a xlink:href="classAmcCarrierDdrMem.html" target="_top" xlink:title="AmcCarrierDdrMem">
<polygon fill="#ffffff" stroke="#000000" points="363,-57.5 363,-76.5 476,-76.5 476,-57.5 363,-57.5"/>
<text text-anchor="middle" x="419.5" y="-64.5" font-family="Helvetica,sans-Serif" font-size="10.00" fill="#000000">AmcCarrierDdrMem</text>
</a>
</g>
</g>
<!-- Node59&#45;&gt;Node43 -->
<g id="edge30" class="edge">
<title>Node59&#45;&gt;Node43</title>
<path fill="none" stroke="#191970" d="M468.2078,-80.9469C470.9455,-82.4669 473.5684,-84.146 476,-86 521.3707,-120.5939 551.4693,-185.0698 561.6611,-209.3865"/>
<polygon fill="#191970" stroke="#191970" points="469.6975,-77.7797 459.1669,-76.6152 466.6729,-84.0926 469.6975,-77.7797"/>
</g>
</g>
</svg>
        <g id="navigator" transform="translate(0 0)" fill="#404254">
                <rect fill="#f2f5e9" fill-opacity="0.5" stroke="#606060" stroke-width=".5" x="0" y="0" width="60" height="60"/>
                <use id="zoomplus" xlink:href="#zoomPlus" x="17" y="9" onmousedown="handleZoom(evt,'in')"/>
                <use id="zoomminus" xlink:href="#zoomMin" x="42" y="9" onmousedown="handleZoom(evt,'out')"/>
                <use id="reset" xlink:href="#resetDef" x="30" y="36" onmousedown="handleReset()"/>
                <g id="arrowUp" xlink:href="#dirArrow" transform="translate(30 24)" onmousedown="handlePan(0,-1)">
                  <use xlink:href="#rim" fill="#404040">
                        <set attributeName="fill" to="#808080" begin="arrowUp.mouseover" end="arrowUp.mouseout"/>
                  </use>
                  <path fill="none" stroke="white" stroke-width="1.5" d="M0,-3.0v7 M-2.5,-0.5L0,-3.0L2.5,-0.5"/>
                </g>
                <g id="arrowRight" xlink:href="#dirArrow" transform="rotate(90) translate(36 -43)" onmousedown="handlePan(1,0)">
                  <use xlink:href="#rim" fill="#404040">
                        <set attributeName="fill" to="#808080" begin="arrowRight.mouseover" end="arrowRight.mouseout"/>
                  </use>
                  <path fill="none" stroke="white" stroke-width="1.5" d="M0,-3.0v7 M-2.5,-0.5L0,-3.0L2.5,-0.5"/>
                </g>
                <g id="arrowDown" xlink:href="#dirArrow" transform="rotate(180) translate(-30 -48)" onmousedown="handlePan(0,1)">
                  <use xlink:href="#rim" fill="#404040">
                        <set attributeName="fill" to="#808080" begin="arrowDown.mouseover" end="arrowDown.mouseout"/>
                  </use>
                  <path fill="none" stroke="white" stroke-width="1.5" d="M0,-3.0v7 M-2.5,-0.5L0,-3.0L2.5,-0.5"/>
                </g>
                <g id="arrowLeft" xlink:href="#dirArrow" transform="rotate(270) translate(-36 17)" onmousedown="handlePan(-1,0)">
                  <use xlink:href="#rim" fill="#404040">
                        <set attributeName="fill" to="#808080" begin="arrowLeft.mouseover" end="arrowLeft.mouseout"/>
                  </use>
                  <path fill="none" stroke="white" stroke-width="1.5" d="M0,-3.0v7 M-2.5,-0.5L0,-3.0L2.5,-0.5"/>
                </g>
        </g>
        <svg viewBox="0 0 15 15" width="100%" height="30px" preserveAspectRatio="xMaxYMin meet">
         <g id="arrow_out" transform="scale(0.3 0.3)">
          <a xlink:href="classAmcCarrierCoreAdv__coll__graph_org.svg" target="_base">
           <rect id="button" ry="5" rx="5" y="6" x="6" height="38" width="38"
                fill="#f2f5e9" fill-opacity="0.5" stroke="#606060" stroke-width="1.0"/>
           <path id="arrow"
             d="M 11.500037,31.436501 C 11.940474,20.09759 22.043105,11.32322 32.158766,21.979434 L 37.068811,17.246167 C 37.068811,17.246167 37.088388,32 37.088388,32 L 22.160133,31.978069 C 22.160133,31.978069 26.997745,27.140456 26.997745,27.140456 C 18.528582,18.264221 13.291696,25.230495 11.500037,31.436501 z"
             style="fill:#404040;"/>
          </a>
         </g>
        </svg>
</svg>
