<?xml version="1.0" encoding="UTF-8" standalone="no"?>
<!DOCTYPE svg PUBLIC "-//W3C//DTD SVG 1.1//EN"
 "http://www.w3.org/Graphics/SVG/1.1/DTD/svg11.dtd">
<!-- Generated by graphviz version 2.40.1 (20161225.0304)
 -->
<!-- Title: AppTopJesd Pages: 1 -->
<svg width="252pt" height="84pt"
 viewBox="0.00 0.00 251.50 84.00" xmlns="http://www.w3.org/2000/svg" xmlns:xlink="http://www.w3.org/1999/xlink">
<g id="graph0" class="graph" transform="scale(1 1) rotate(0) translate(4 80)">
<title>AppTopJesd</title>
<polygon fill="#ffffff" stroke="transparent" points="-4,4 -4,-80 247.5,-80 247.5,4 -4,4"/>
<!-- Node4 -->
<g id="node1" class="node">
<title>Node4</title>
<polygon fill="#bfbfbf" stroke="#000000" points="86.5,-.5 86.5,-19.5 158.5,-19.5 158.5,-.5 86.5,-.5"/>
<text text-anchor="middle" x="122.5" y="-7.5" font-family="Helvetica,sans-Serif" font-size="10.00" fill="#000000">AppTopJesd</text>
</g>
<!-- Node5 -->
<g id="node2" class="node">
<title>Node5</title>
<g id="a_node2"><a xlink:href="classAmcCarrierIbufGt.html" target="_top" xlink:title="AmcCarrierIbufGt(5)">
<polygon fill="#ffffff" stroke="#000000" points="0,-56.5 0,-75.5 115,-75.5 115,-56.5 0,-56.5"/>
<text text-anchor="middle" x="57.5" y="-63.5" font-family="Helvetica,sans-Serif" font-size="10.00" fill="#000000">AmcCarrierIbufGt(5)</text>
</a>
</g>
</g>
<!-- Node5&#45;&gt;Node4 -->
<g id="edge1" class="edge">
<title>Node5&#45;&gt;Node4</title>
<path fill="none" stroke="#191970" d="M76.4835,-49.645C87.7879,-39.9058 101.747,-27.8795 111.3076,-19.6427"/>
<polygon fill="#191970" stroke="#191970" points="74.1138,-47.0668 68.8221,-56.2455 78.6827,-52.3701 74.1138,-47.0668"/>
</g>
<!-- Node6 -->
<g id="node3" class="node">
<title>Node6</title>
<g id="a_node3"><a xlink:href="classAppTopJesd204b.html" target="_top" xlink:title="AppTopJesd204b(4)">
<polygon fill="#ffffff" stroke="#000000" points="133.5,-56.5 133.5,-75.5 243.5,-75.5 243.5,-56.5 133.5,-56.5"/>
<text text-anchor="middle" x="188.5" y="-63.5" font-family="Helvetica,sans-Serif" font-size="10.00" fill="#000000">AppTopJesd204b(4)</text>
</a>
</g>
</g>
<!-- Node6&#45;&gt;Node4 -->
<g id="edge2" class="edge">
<title>Node6&#45;&gt;Node4</title>
<path fill="none" stroke="#191970" d="M169.2245,-49.645C157.7462,-39.9058 143.5723,-27.8795 133.8646,-19.6427"/>
<polygon fill="#191970" stroke="#191970" points="167.1141,-52.4445 177.0037,-56.2455 171.643,-47.1069 167.1141,-52.4445"/>
</g>
</g>
</svg>
