<?xml version="1.0" encoding="UTF-8" standalone="no"?>
<!DOCTYPE svg PUBLIC "-//W3C//DTD SVG 1.1//EN"
 "http://www.w3.org/Graphics/SVG/1.1/DTD/svg11.dtd">
<!-- Generated by graphviz version 2.40.1 (20161225.0304)
 -->
<!-- Title: AmcMrLlrfDownConvertCore Pages: 1 -->
<svg width="517pt" height="140pt"
 viewBox="0.00 0.00 517.00 140.00" xmlns="http://www.w3.org/2000/svg" xmlns:xlink="http://www.w3.org/1999/xlink">
<g id="graph0" class="graph" transform="scale(1 1) rotate(0) translate(4 136)">
<title>AmcMrLlrfDownConvertCore</title>
<polygon fill="#ffffff" stroke="transparent" points="-4,4 -4,-136 513,-136 513,4 -4,4"/>
<!-- Node6 -->
<g id="node1" class="node">
<title>Node6</title>
<polygon fill="#bfbfbf" stroke="#000000" points="115,-.5 115,-19.5 270,-19.5 270,-.5 115,-.5"/>
<text text-anchor="middle" x="192.5" y="-7.5" font-family="Helvetica,sans-Serif" font-size="10.00" fill="#000000">AmcMrLlrfDownConvertCore</text>
</g>
<!-- Node7 -->
<g id="node2" class="node">
<title>Node7</title>
<g id="a_node2"><a xlink:href="classJesdSyncIn.html" target="_top" xlink:title="JesdSyncIn">
<polygon fill="#ffffff" stroke="#000000" points="0,-56.5 0,-75.5 69,-75.5 69,-56.5 0,-56.5"/>
<text text-anchor="middle" x="34.5" y="-63.5" font-family="Helvetica,sans-Serif" font-size="10.00" fill="#000000">JesdSyncIn</text>
</a>
</g>
</g>
<!-- Node7&#45;&gt;Node6 -->
<g id="edge1" class="edge">
<title>Node7&#45;&gt;Node6</title>
<path fill="none" stroke="#191970" d="M71.3955,-52.9231C100.2787,-42.686 139.7706,-28.6889 165.6933,-19.5011"/>
<polygon fill="#191970" stroke="#191970" points="69.9174,-49.7336 61.6612,-56.3733 72.2559,-56.3314 69.9174,-49.7336"/>
</g>
<!-- Node8 -->
<g id="node3" class="node">
<title>Node8</title>
<g id="a_node3"><a xlink:href="classJesdSyncOut.html" target="_top" xlink:title="JesdSyncOut(3)">
<polygon fill="#ffffff" stroke="#000000" points="87,-56.5 87,-75.5 178,-75.5 178,-56.5 87,-56.5"/>
<text text-anchor="middle" x="132.5" y="-63.5" font-family="Helvetica,sans-Serif" font-size="10.00" fill="#000000">JesdSyncOut(3)</text>
</a>
</g>
</g>
<!-- Node8&#45;&gt;Node6 -->
<g id="edge2" class="edge">
<title>Node8&#45;&gt;Node6</title>
<path fill="none" stroke="#191970" d="M150.3278,-49.3607C160.7078,-39.6727 173.4291,-27.7995 182.1686,-19.6427"/>
<polygon fill="#191970" stroke="#191970" points="147.8737,-46.8636 142.9512,-56.2455 152.6499,-51.981 147.8737,-46.8636"/>
</g>
<!-- Node9 -->
<g id="node4" class="node">
<title>Node9</title>
<g id="a_node4"><a xlink:href="classAxiSerAttnMaster.html" target="_top" xlink:title="AxiSerAttnMaster(2)">
<polygon fill="#ffffff" stroke="#000000" points="196,-56.5 196,-75.5 311,-75.5 311,-56.5 196,-56.5"/>
<text text-anchor="middle" x="253.5" y="-63.5" font-family="Helvetica,sans-Serif" font-size="10.00" fill="#000000">AxiSerAttnMaster(2)</text>
</a>
</g>
</g>
<!-- Node9&#45;&gt;Node6 -->
<g id="edge3" class="edge">
<title>Node9&#45;&gt;Node6</title>
<path fill="none" stroke="#191970" d="M235.3751,-49.3607C224.822,-39.6727 211.8888,-27.7995 203.0036,-19.6427"/>
<polygon fill="#191970" stroke="#191970" points="233.1411,-52.0611 242.8746,-56.2455 237.875,-46.9045 233.1411,-52.0611"/>
</g>
<!-- Node10 -->
<g id="node5" class="node">
<title>Node10</title>
<g id="a_node5"><a xlink:href="classAmcMrLlrfDownConvertDacMux.html" target="_top" xlink:title="AmcMrLlrfDownConvertDacMux">
<polygon fill="#ffffff" stroke="#000000" points="329,-56.5 329,-75.5 500,-75.5 500,-56.5 329,-56.5"/>
<text text-anchor="middle" x="414.5" y="-63.5" font-family="Helvetica,sans-Serif" font-size="10.00" fill="#000000">AmcMrLlrfDownConvertDacMux</text>
</a>
</g>
</g>
<!-- Node10&#45;&gt;Node6 -->
<g id="edge4" class="edge">
<title>Node10&#45;&gt;Node6</title>
<path fill="none" stroke="#191970" d="M366.8572,-53.982C326.0097,-43.6781 267.9525,-29.0331 230.2546,-19.5237"/>
<polygon fill="#191970" stroke="#191970" points="366.0367,-57.3846 376.5891,-56.4369 367.7489,-50.5972 366.0367,-57.3846"/>
</g>
<!-- Node11 -->
<g id="node6" class="node">
<title>Node11</title>
<g id="a_node6"><a xlink:href="classAmcMrLlrfDownConvertDacMuxReg.html" target="_top" xlink:title="AmcMrLlrfDownConvertDacMuxReg">
<polygon fill="#ffffff" stroke="#000000" points="320,-112.5 320,-131.5 509,-131.5 509,-112.5 320,-112.5"/>
<text text-anchor="middle" x="414.5" y="-119.5" font-family="Helvetica,sans-Serif" font-size="10.00" fill="#000000">AmcMrLlrfDownConvertDacMuxReg</text>
</a>
</g>
</g>
<!-- Node11&#45;&gt;Node10 -->
<g id="edge5" class="edge">
<title>Node11&#45;&gt;Node10</title>
<path fill="none" stroke="#191970" d="M414.5,-102.1575C414.5,-93.155 414.5,-82.9199 414.5,-75.6427"/>
<polygon fill="#191970" stroke="#191970" points="411.0001,-102.2455 414.5,-112.2455 418.0001,-102.2456 411.0001,-102.2455"/>
</g>
</g>
</svg>
