<?xml version="1.0" encoding="UTF-8" standalone="no"?>
<!DOCTYPE svg PUBLIC "-//W3C//DTD SVG 1.1//EN"
 "http://www.w3.org/Graphics/SVG/1.1/DTD/svg11.dtd">
<!-- Generated by graphviz version 2.40.1 (20161225.0304)
 -->
<!-- Title: AmcMrLlrfUpConvertCore Pages: 1 -->
<svg width="510pt" height="140pt"
 viewBox="0.00 0.00 510.00 140.00" xmlns="http://www.w3.org/2000/svg" xmlns:xlink="http://www.w3.org/1999/xlink">
<g id="graph0" class="graph" transform="scale(1 1) rotate(0) translate(4 136)">
<title>AmcMrLlrfUpConvertCore</title>
<polygon fill="#ffffff" stroke="transparent" points="-4,4 -4,-136 506,-136 506,4 -4,4"/>
<!-- Node9 -->
<g id="node1" class="node">
<title>Node9</title>
<polygon fill="#bfbfbf" stroke="#000000" points="214.5,-.5 214.5,-19.5 354.5,-19.5 354.5,-.5 214.5,-.5"/>
<text text-anchor="middle" x="284.5" y="-7.5" font-family="Helvetica,sans-Serif" font-size="10.00" fill="#000000">AmcMrLlrfUpConvertCore</text>
</g>
<!-- Node10 -->
<g id="node2" class="node">
<title>Node10</title>
<g id="a_node2"><a xlink:href="classAmcMrLlrfUpConvertMapping.html" target="_top" xlink:title="AmcMrLlrfUpConvertMapping">
<polygon fill="#ffffff" stroke="#000000" points="0,-56.5 0,-75.5 159,-75.5 159,-56.5 0,-56.5"/>
<text text-anchor="middle" x="79.5" y="-63.5" font-family="Helvetica,sans-Serif" font-size="10.00" fill="#000000">AmcMrLlrfUpConvertMapping</text>
</a>
</g>
</g>
<!-- Node10&#45;&gt;Node9 -->
<g id="edge1" class="edge">
<title>Node10&#45;&gt;Node9</title>
<path fill="none" stroke="#191970" d="M124.454,-53.7199C162.1487,-43.4228 215.2041,-28.9296 249.7191,-19.5011"/>
<polygon fill="#191970" stroke="#191970" points="123.465,-50.3617 114.7408,-56.3733 125.3096,-57.1143 123.465,-50.3617"/>
</g>
<!-- Node11 -->
<g id="node3" class="node">
<title>Node11</title>
<g id="a_node3"><a xlink:href="classJesdSyncIn.html" target="_top" xlink:title="JesdSyncIn(2)">
<polygon fill="#ffffff" stroke="#000000" points="13,-112.5 13,-131.5 96,-131.5 96,-112.5 13,-112.5"/>
<text text-anchor="middle" x="54.5" y="-119.5" font-family="Helvetica,sans-Serif" font-size="10.00" fill="#000000">JesdSyncIn(2)</text>
</a>
</g>
</g>
<!-- Node11&#45;&gt;Node10 -->
<g id="edge2" class="edge">
<title>Node11&#45;&gt;Node10</title>
<path fill="none" stroke="#191970" d="M62.9626,-103.0437C67.0745,-93.8331 71.8394,-83.1598 75.1952,-75.6427"/>
<polygon fill="#191970" stroke="#191970" points="59.7352,-101.6874 58.8547,-112.2455 66.1272,-104.541 59.7352,-101.6874"/>
</g>
<!-- Node12 -->
<g id="node4" class="node">
<title>Node12</title>
<g id="a_node4"><a xlink:href="classJesdSyncOut.html" target="_top" xlink:title="JesdSyncOut(6)">
<polygon fill="#ffffff" stroke="#000000" points="114,-112.5 114,-131.5 205,-131.5 205,-112.5 114,-112.5"/>
<text text-anchor="middle" x="159.5" y="-119.5" font-family="Helvetica,sans-Serif" font-size="10.00" fill="#000000">JesdSyncOut(6)</text>
</a>
</g>
</g>
<!-- Node12&#45;&gt;Node10 -->
<g id="edge3" class="edge">
<title>Node12&#45;&gt;Node10</title>
<path fill="none" stroke="#191970" d="M137.3429,-106.49C123.228,-96.6096 105.3849,-84.1194 93.2752,-75.6427"/>
<polygon fill="#191970" stroke="#191970" points="135.3656,-109.3782 145.5651,-112.2455 139.3799,-103.6436 135.3656,-109.3782"/>
</g>
<!-- Node13 -->
<g id="node5" class="node">
<title>Node13</title>
<g id="a_node5"><a xlink:href="classAxiSerAttnMaster.html" target="_top" xlink:title="AxiSerAttnMaster">
<polygon fill="#ffffff" stroke="#000000" points="177,-56.5 177,-75.5 278,-75.5 278,-56.5 177,-56.5"/>
<text text-anchor="middle" x="227.5" y="-63.5" font-family="Helvetica,sans-Serif" font-size="10.00" fill="#000000">AxiSerAttnMaster</text>
</a>
</g>
</g>
<!-- Node13&#45;&gt;Node9 -->
<g id="edge4" class="edge">
<title>Node13&#45;&gt;Node9</title>
<path fill="none" stroke="#191970" d="M244.7271,-49.0751C254.5341,-39.4402 266.464,-27.7196 274.6851,-19.6427"/>
<polygon fill="#191970" stroke="#191970" points="242.1091,-46.7406 237.4286,-56.2455 247.0149,-51.734 242.1091,-46.7406"/>
</g>
<!-- Node14 -->
<g id="node6" class="node">
<title>Node14</title>
<g id="a_node6"><a xlink:href="classLvdsDacSigGen.html" target="_top" xlink:title="LvdsDacSigGen">
<polygon fill="#ffffff" stroke="#000000" points="296.5,-56.5 296.5,-75.5 388.5,-75.5 388.5,-56.5 296.5,-56.5"/>
<text text-anchor="middle" x="342.5" y="-63.5" font-family="Helvetica,sans-Serif" font-size="10.00" fill="#000000">LvdsDacSigGen</text>
</a>
</g>
</g>
<!-- Node14&#45;&gt;Node9 -->
<g id="edge5" class="edge">
<title>Node14&#45;&gt;Node9</title>
<path fill="none" stroke="#191970" d="M324.9707,-49.0751C314.9917,-39.4402 302.8524,-27.7196 294.4871,-19.6427"/>
<polygon fill="#191970" stroke="#191970" points="322.772,-51.8175 332.3972,-56.2455 327.6342,-46.7817 322.772,-51.8175"/>
</g>
<!-- Node15 -->
<g id="node7" class="node">
<title>Node15</title>
<g id="a_node7"><a xlink:href="classLvdsDacRegItf.html" target="_top" xlink:title="LvdsDacRegItf">
<polygon fill="#ffffff" stroke="#000000" points="261.5,-112.5 261.5,-131.5 347.5,-131.5 347.5,-112.5 261.5,-112.5"/>
<text text-anchor="middle" x="304.5" y="-119.5" font-family="Helvetica,sans-Serif" font-size="10.00" fill="#000000">LvdsDacRegItf</text>
</a>
</g>
</g>
<!-- Node15&#45;&gt;Node14 -->
<g id="edge6" class="edge">
<title>Node15&#45;&gt;Node14</title>
<path fill="none" stroke="#191970" d="M316.7679,-103.9209C323.1488,-94.5176 330.6931,-83.3997 335.9568,-75.6427"/>
<polygon fill="#191970" stroke="#191970" points="313.838,-102.0055 311.1191,-112.2455 319.6303,-105.936 313.838,-102.0055"/>
</g>
<!-- Node16 -->
<g id="node8" class="node">
<title>Node16</title>
<g id="a_node8"><a xlink:href="classLvdsDacLane.html" target="_top" xlink:title="LvdsDacLane">
<polygon fill="#ffffff" stroke="#000000" points="366,-112.5 366,-131.5 447,-131.5 447,-112.5 366,-112.5"/>
<text text-anchor="middle" x="406.5" y="-119.5" font-family="Helvetica,sans-Serif" font-size="10.00" fill="#000000">LvdsDacLane</text>
</a>
</g>
</g>
<!-- Node16&#45;&gt;Node14 -->
<g id="edge7" class="edge">
<title>Node16&#45;&gt;Node14</title>
<path fill="none" stroke="#191970" d="M387.8086,-105.645C376.6781,-95.9058 362.9337,-83.8795 353.5202,-75.6427"/>
<polygon fill="#191970" stroke="#191970" points="385.5215,-108.2945 395.3521,-112.2455 390.131,-103.0264 385.5215,-108.2945"/>
</g>
<!-- Node17 -->
<g id="node9" class="node">
<title>Node17</title>
<g id="a_node9"><a xlink:href="classOutputTapDelay.html" target="_top" xlink:title="OutputTapDelay">
<polygon fill="#ffffff" stroke="#000000" points="407,-56.5 407,-75.5 502,-75.5 502,-56.5 407,-56.5"/>
<text text-anchor="middle" x="454.5" y="-63.5" font-family="Helvetica,sans-Serif" font-size="10.00" fill="#000000">OutputTapDelay</text>
</a>
</g>
</g>
<!-- Node17&#45;&gt;Node9 -->
<g id="edge8" class="edge">
<title>Node17&#45;&gt;Node9</title>
<path fill="none" stroke="#191970" d="M415.614,-53.1905C384.4688,-42.9309 341.4777,-28.7691 313.3427,-19.5011"/>
<polygon fill="#191970" stroke="#191970" points="414.6829,-56.5687 425.276,-56.3733 416.8731,-49.9202 414.6829,-56.5687"/>
</g>
</g>
</svg>
