<?xml version="1.0" encoding="UTF-8" standalone="no"?>
<!DOCTYPE svg PUBLIC "-//W3C//DTD SVG 1.1//EN"
 "http://www.w3.org/Graphics/SVG/1.1/DTD/svg11.dtd">
<!-- Generated by graphviz version 2.40.1 (20161225.0304)
 -->
<!-- Title: AmcGenericAdcDacCore Pages: 1 -->
<svg width="499pt" height="84pt"
 viewBox="0.00 0.00 498.50 84.00" xmlns="http://www.w3.org/2000/svg" xmlns:xlink="http://www.w3.org/1999/xlink">
<g id="graph0" class="graph" transform="scale(1 1) rotate(0) translate(4 80)">
<title>AmcGenericAdcDacCore</title>
<polygon fill="#ffffff" stroke="transparent" points="-4,4 -4,-80 494.5,-80 494.5,4 -4,4"/>
<!-- Node6 -->
<g id="node1" class="node">
<title>Node6</title>
<polygon fill="#bfbfbf" stroke="#000000" points="137,-.5 137,-19.5 272,-19.5 272,-.5 137,-.5"/>
<text text-anchor="middle" x="204.5" y="-7.5" font-family="Helvetica,sans-Serif" font-size="10.00" fill="#000000">AmcGenericAdcDacCore</text>
</g>
<!-- Node7 -->
<g id="node2" class="node">
<title>Node7</title>
<g id="a_node2"><a xlink:href="classJesdSyncIn.html" target="_top" xlink:title="JesdSyncIn(2)">
<polygon fill="#ffffff" stroke="#000000" points="0,-56.5 0,-75.5 83,-75.5 83,-56.5 0,-56.5"/>
<text text-anchor="middle" x="41.5" y="-63.5" font-family="Helvetica,sans-Serif" font-size="10.00" fill="#000000">JesdSyncIn(2)</text>
</a>
</g>
</g>
<!-- Node7&#45;&gt;Node6 -->
<g id="edge1" class="edge">
<title>Node7&#45;&gt;Node6</title>
<path fill="none" stroke="#191970" d="M79.1733,-53.057C109.0042,-42.8084 149.9852,-28.729 176.8449,-19.5011"/>
<polygon fill="#191970" stroke="#191970" points="77.8409,-49.8139 69.5207,-56.3733 80.1154,-56.4341 77.8409,-49.8139"/>
</g>
<!-- Node8 -->
<g id="node3" class="node">
<title>Node8</title>
<g id="a_node3"><a xlink:href="classJesdSyncOut.html" target="_top" xlink:title="JesdSyncOut">
<polygon fill="#ffffff" stroke="#000000" points="101,-56.5 101,-75.5 178,-75.5 178,-56.5 101,-56.5"/>
<text text-anchor="middle" x="139.5" y="-63.5" font-family="Helvetica,sans-Serif" font-size="10.00" fill="#000000">JesdSyncOut</text>
</a>
</g>
</g>
<!-- Node8&#45;&gt;Node6 -->
<g id="edge2" class="edge">
<title>Node8&#45;&gt;Node6</title>
<path fill="none" stroke="#191970" d="M158.4835,-49.645C169.7879,-39.9058 183.747,-27.8795 193.3076,-19.6427"/>
<polygon fill="#191970" stroke="#191970" points="156.1138,-47.0668 150.8221,-56.2455 160.6827,-52.3701 156.1138,-47.0668"/>
</g>
<!-- Node9 -->
<g id="node4" class="node">
<title>Node9</title>
<g id="a_node4"><a xlink:href="classAmcGenericAdcDacVcoSpi.html" target="_top" xlink:title="AmcGenericAdcDacVcoSpi">
<polygon fill="#ffffff" stroke="#000000" points="196.5,-56.5 196.5,-75.5 342.5,-75.5 342.5,-56.5 196.5,-56.5"/>
<text text-anchor="middle" x="269.5" y="-63.5" font-family="Helvetica,sans-Serif" font-size="10.00" fill="#000000">AmcGenericAdcDacVcoSpi</text>
</a>
</g>
</g>
<!-- Node9&#45;&gt;Node6 -->
<g id="edge3" class="edge">
<title>Node9&#45;&gt;Node6</title>
<path fill="none" stroke="#191970" d="M250.5165,-49.645C239.2121,-39.9058 225.253,-27.8795 215.6924,-19.6427"/>
<polygon fill="#191970" stroke="#191970" points="248.3173,-52.3701 258.1779,-56.2455 252.8862,-47.0668 248.3173,-52.3701"/>
</g>
<!-- Node10 -->
<g id="node5" class="node">
<title>Node10</title>
<g id="a_node5"><a xlink:href="classAmcGenericAdcDacCtrl.html" target="_top" xlink:title="AmcGenericAdcDacCtrl">
<polygon fill="#ffffff" stroke="#000000" points="360.5,-56.5 360.5,-75.5 490.5,-75.5 490.5,-56.5 360.5,-56.5"/>
<text text-anchor="middle" x="425.5" y="-63.5" font-family="Helvetica,sans-Serif" font-size="10.00" fill="#000000">AmcGenericAdcDacCtrl</text>
</a>
</g>
</g>
<!-- Node10&#45;&gt;Node6 -->
<g id="edge4" class="edge">
<title>Node10&#45;&gt;Node6</title>
<path fill="none" stroke="#191970" d="M377.8137,-53.9166C337.164,-43.6162 279.5333,-29.013 242.0845,-19.5237"/>
<polygon fill="#191970" stroke="#191970" points="377.2065,-57.3733 387.7599,-56.4369 378.9259,-50.5877 377.2065,-57.3733"/>
</g>
</g>
</svg>
