<?xml version="1.0" encoding="UTF-8" standalone="no"?>
<!DOCTYPE svg PUBLIC "-//W3C//DTD SVG 1.1//EN"
 "http://www.w3.org/Graphics/SVG/1.1/DTD/svg11.dtd">
<!-- Generated by graphviz version 2.40.1 (20161225.0304)
 -->
<!-- Title: RtmCryoDacLutTb Pages: 1 -->
<svg width="346pt" height="196pt"
 viewBox="0.00 0.00 346.00 196.00" xmlns="http://www.w3.org/2000/svg" xmlns:xlink="http://www.w3.org/1999/xlink">
<g id="graph0" class="graph" transform="scale(1 1) rotate(0) translate(4 192)">
<title>RtmCryoDacLutTb</title>
<polygon fill="#ffffff" stroke="transparent" points="-4,4 -4,-192 342,-192 342,4 -4,4"/>
<!-- Node0 -->
<g id="node1" class="node">
<title>Node0</title>
<polygon fill="#bfbfbf" stroke="#000000" points="121,-.5 121,-19.5 226,-19.5 226,-.5 121,-.5"/>
<text text-anchor="middle" x="173.5" y="-7.5" font-family="Helvetica,sans-Serif" font-size="10.00" fill="#000000">RtmCryoDacLutTb</text>
</g>
<!-- Node1 -->
<g id="node2" class="node">
<title>Node1</title>
<g id="a_node2"><a xlink:href="classRtmCryoDet.html" target="_top" xlink:title="RtmCryoDet">
<polygon fill="#ffffff" stroke="#000000" points="135,-56.5 135,-75.5 212,-75.5 212,-56.5 135,-56.5"/>
<text text-anchor="middle" x="173.5" y="-63.5" font-family="Helvetica,sans-Serif" font-size="10.00" fill="#000000">RtmCryoDet</text>
</a>
</g>
</g>
<!-- Node1&#45;&gt;Node0 -->
<g id="edge1" class="edge">
<title>Node1&#45;&gt;Node0</title>
<path fill="none" stroke="#191970" d="M173.5,-46.1575C173.5,-37.155 173.5,-26.9199 173.5,-19.6427"/>
<polygon fill="#191970" stroke="#191970" points="170.0001,-46.2455 173.5,-56.2455 177.0001,-46.2456 170.0001,-46.2455"/>
</g>
<!-- Node2 -->
<g id="node3" class="node">
<title>Node2</title>
<g id="a_node3"><a xlink:href="classRtmCryoDetReg.html" target="_top" xlink:title="RtmCryoDetReg">
<polygon fill="#ffffff" stroke="#000000" points="7,-112.5 7,-131.5 102,-131.5 102,-112.5 7,-112.5"/>
<text text-anchor="middle" x="54.5" y="-119.5" font-family="Helvetica,sans-Serif" font-size="10.00" fill="#000000">RtmCryoDetReg</text>
</a>
</g>
</g>
<!-- Node2&#45;&gt;Node1 -->
<g id="edge2" class="edge">
<title>Node2&#45;&gt;Node1</title>
<path fill="none" stroke="#191970" d="M84.0144,-108.1109C105.5938,-97.9559 134.2976,-84.4482 153.3101,-75.5011"/>
<polygon fill="#191970" stroke="#191970" points="82.5147,-104.9484 74.9568,-112.3733 85.4953,-111.2821 82.5147,-104.9484"/>
</g>
<!-- Node3 -->
<g id="node4" class="node">
<title>Node3</title>
<g id="a_node4"><a xlink:href="classRtmCryoDetClkDiv.html" target="_top" xlink:title="RtmCryoDetClkDiv">
<polygon fill="#ffffff" stroke="#000000" points="0,-168.5 0,-187.5 109,-187.5 109,-168.5 0,-168.5"/>
<text text-anchor="middle" x="54.5" y="-175.5" font-family="Helvetica,sans-Serif" font-size="10.00" fill="#000000">RtmCryoDetClkDiv</text>
</a>
</g>
</g>
<!-- Node3&#45;&gt;Node2 -->
<g id="edge3" class="edge">
<title>Node3&#45;&gt;Node2</title>
<path fill="none" stroke="#191970" d="M54.5,-158.1575C54.5,-149.155 54.5,-138.9199 54.5,-131.6427"/>
<polygon fill="#191970" stroke="#191970" points="51.0001,-158.2455 54.5,-168.2455 58.0001,-158.2456 51.0001,-158.2455"/>
</g>
<!-- Node4 -->
<g id="node5" class="node">
<title>Node4</title>
<g id="a_node5"><a xlink:href="classRtmCryoSpiMaster.html" target="_top" xlink:title="RtmCryoSpiMaster">
<polygon fill="#ffffff" stroke="#000000" points="120,-112.5 120,-131.5 227,-131.5 227,-112.5 120,-112.5"/>
<text text-anchor="middle" x="173.5" y="-119.5" font-family="Helvetica,sans-Serif" font-size="10.00" fill="#000000">RtmCryoSpiMaster</text>
</a>
</g>
</g>
<!-- Node4&#45;&gt;Node1 -->
<g id="edge4" class="edge">
<title>Node4&#45;&gt;Node1</title>
<path fill="none" stroke="#191970" d="M173.5,-102.1575C173.5,-93.155 173.5,-82.9199 173.5,-75.6427"/>
<polygon fill="#191970" stroke="#191970" points="170.0001,-102.2455 173.5,-112.2455 177.0001,-102.2456 170.0001,-102.2455"/>
</g>
<!-- Node5 -->
<g id="node6" class="node">
<title>Node5</title>
<g id="a_node6"><a xlink:href="classRtmCryoDacLut.html" target="_top" xlink:title="RtmCryoDacLut">
<polygon fill="#ffffff" stroke="#000000" points="245,-112.5 245,-131.5 338,-131.5 338,-112.5 245,-112.5"/>
<text text-anchor="middle" x="291.5" y="-119.5" font-family="Helvetica,sans-Serif" font-size="10.00" fill="#000000">RtmCryoDacLut</text>
</a>
</g>
</g>
<!-- Node5&#45;&gt;Node1 -->
<g id="edge5" class="edge">
<title>Node5&#45;&gt;Node1</title>
<path fill="none" stroke="#191970" d="M261.9453,-107.9741C240.5805,-97.8348 212.2884,-84.408 193.5202,-75.5011"/>
<polygon fill="#191970" stroke="#191970" points="260.6802,-111.2478 271.2151,-112.3733 263.6814,-104.9238 260.6802,-111.2478"/>
</g>
</g>
</svg>
