<?xml version="1.0" encoding="UTF-8" standalone="no"?>
<!DOCTYPE svg PUBLIC "-//W3C//DTD SVG 1.1//EN"
 "http://www.w3.org/Graphics/SVG/1.1/DTD/svg11.dtd">
<!-- Generated by graphviz version 2.40.1 (20161225.0304)
 -->
<!-- Title: AmcMpsSfpCore Pages: 1 -->
<svg width="324pt" height="84pt"
 viewBox="0.00 0.00 324.00 84.00" xmlns="http://www.w3.org/2000/svg" xmlns:xlink="http://www.w3.org/1999/xlink">
<g id="graph0" class="graph" transform="scale(1 1) rotate(0) translate(4 80)">
<title>AmcMpsSfpCore</title>
<polygon fill="#ffffff" stroke="transparent" points="-4,4 -4,-80 320,-80 320,4 -4,4"/>
<!-- Node5 -->
<g id="node1" class="node">
<title>Node5</title>
<polygon fill="#bfbfbf" stroke="#000000" points="91,-.5 91,-19.5 187,-19.5 187,-.5 91,-.5"/>
<text text-anchor="middle" x="139" y="-7.5" font-family="Helvetica,sans-Serif" font-size="10.00" fill="#000000">AmcMpsSfpCore</text>
</g>
<!-- Node6 -->
<g id="node2" class="node">
<title>Node6</title>
<g id="a_node2"><a xlink:href="classSi5317a.html" target="_top" xlink:title="Si5317a">
<polygon fill="#ffffff" stroke="#000000" points="0,-56.5 0,-75.5 56,-75.5 56,-56.5 0,-56.5"/>
<text text-anchor="middle" x="28" y="-63.5" font-family="Helvetica,sans-Serif" font-size="10.00" fill="#000000">Si5317a</text>
</a>
</g>
</g>
<!-- Node6&#45;&gt;Node5 -->
<g id="edge1" class="edge">
<title>Node6&#45;&gt;Node5</title>
<path fill="none" stroke="#191970" d="M56.0734,-51.8368C76.1385,-41.7139 102.5922,-28.3679 120.1674,-19.5011"/>
<polygon fill="#191970" stroke="#191970" points="54.4332,-48.7441 47.0816,-56.3733 57.5862,-54.9938 54.4332,-48.7441"/>
</g>
<!-- Node7 -->
<g id="node3" class="node">
<title>Node7</title>
<g id="a_node3"><a xlink:href="classAmcMpsSfpHsRepeater.html" target="_top" xlink:title="AmcMpsSfpHsRepeater">
<polygon fill="#ffffff" stroke="#000000" points="74,-56.5 74,-75.5 204,-75.5 204,-56.5 74,-56.5"/>
<text text-anchor="middle" x="139" y="-63.5" font-family="Helvetica,sans-Serif" font-size="10.00" fill="#000000">AmcMpsSfpHsRepeater</text>
</a>
</g>
</g>
<!-- Node7&#45;&gt;Node5 -->
<g id="edge2" class="edge">
<title>Node7&#45;&gt;Node5</title>
<path fill="none" stroke="#191970" d="M139,-46.1575C139,-37.155 139,-26.9199 139,-19.6427"/>
<polygon fill="#191970" stroke="#191970" points="135.5001,-46.2455 139,-56.2455 142.5001,-46.2456 135.5001,-46.2455"/>
</g>
<!-- Node8 -->
<g id="node4" class="node">
<title>Node8</title>
<g id="a_node4"><a xlink:href="classAmcMpsSfpMon.html" target="_top" xlink:title="AmcMpsSfpMon">
<polygon fill="#ffffff" stroke="#000000" points="222,-56.5 222,-75.5 316,-75.5 316,-56.5 222,-56.5"/>
<text text-anchor="middle" x="269" y="-63.5" font-family="Helvetica,sans-Serif" font-size="10.00" fill="#000000">AmcMpsSfpMon</text>
</a>
</g>
</g>
<!-- Node8&#45;&gt;Node5 -->
<g id="edge3" class="edge">
<title>Node8&#45;&gt;Node5</title>
<path fill="none" stroke="#191970" d="M237.3898,-52.3833C213.7465,-42.1985 182.0124,-28.5284 161.0562,-19.5011"/>
<polygon fill="#191970" stroke="#191970" points="236.0834,-55.6314 246.6522,-56.3733 238.8528,-49.2025 236.0834,-55.6314"/>
</g>
</g>
</svg>
