<?xml version="1.0" encoding="UTF-8" standalone="no"?>
<!DOCTYPE svg PUBLIC "-//W3C//DTD SVG 1.1//EN"
 "http://www.w3.org/Graphics/SVG/1.1/DTD/svg11.dtd">
<!-- Generated by graphviz version 2.40.1 (20161225.0304)
 -->
<!-- Title: AmcCryoCore Pages: 1 -->
<svg width="319pt" height="84pt"
 viewBox="0.00 0.00 319.00 84.00" xmlns="http://www.w3.org/2000/svg" xmlns:xlink="http://www.w3.org/1999/xlink">
<g id="graph0" class="graph" transform="scale(1 1) rotate(0) translate(4 80)">
<title>AmcCryoCore</title>
<polygon fill="#ffffff" stroke="transparent" points="-4,4 -4,-80 315,-80 315,4 -4,4"/>
<!-- Node5 -->
<g id="node1" class="node">
<title>Node5</title>
<polygon fill="#bfbfbf" stroke="#000000" points="119,-.5 119,-19.5 202,-19.5 202,-.5 119,-.5"/>
<text text-anchor="middle" x="160.5" y="-7.5" font-family="Helvetica,sans-Serif" font-size="10.00" fill="#000000">AmcCryoCore</text>
</g>
<!-- Node6 -->
<g id="node2" class="node">
<title>Node6</title>
<g id="a_node2"><a xlink:href="classAmcCryoCoreCtrl.html" target="_top" xlink:title="AmcCryoCoreCtrl">
<polygon fill="#ffffff" stroke="#000000" points="0,-56.5 0,-75.5 101,-75.5 101,-56.5 0,-56.5"/>
<text text-anchor="middle" x="50.5" y="-63.5" font-family="Helvetica,sans-Serif" font-size="10.00" fill="#000000">AmcCryoCoreCtrl</text>
</a>
</g>
</g>
<!-- Node6&#45;&gt;Node5 -->
<g id="edge1" class="edge">
<title>Node6&#45;&gt;Node5</title>
<path fill="none" stroke="#191970" d="M78.7914,-51.5971C98.5111,-41.558 124.28,-28.4393 141.559,-19.6427"/>
<polygon fill="#191970" stroke="#191970" points="76.9843,-48.5896 69.6605,-56.2455 80.1601,-54.8277 76.9843,-48.5896"/>
</g>
<!-- Node7 -->
<g id="node3" class="node">
<title>Node7</title>
<g id="a_node3"><a xlink:href="classJesdSyncIn.html" target="_top" xlink:title="JesdSyncIn(3)">
<polygon fill="#ffffff" stroke="#000000" points="119,-56.5 119,-75.5 202,-75.5 202,-56.5 119,-56.5"/>
<text text-anchor="middle" x="160.5" y="-63.5" font-family="Helvetica,sans-Serif" font-size="10.00" fill="#000000">JesdSyncIn(3)</text>
</a>
</g>
</g>
<!-- Node7&#45;&gt;Node5 -->
<g id="edge2" class="edge">
<title>Node7&#45;&gt;Node5</title>
<path fill="none" stroke="#191970" d="M160.5,-46.1575C160.5,-37.155 160.5,-26.9199 160.5,-19.6427"/>
<polygon fill="#191970" stroke="#191970" points="157.0001,-46.2455 160.5,-56.2455 164.0001,-46.2456 157.0001,-46.2455"/>
</g>
<!-- Node8 -->
<g id="node4" class="node">
<title>Node8</title>
<g id="a_node4"><a xlink:href="classJesdSyncOut.html" target="_top" xlink:title="JesdSyncOut(2)">
<polygon fill="#ffffff" stroke="#000000" points="220,-56.5 220,-75.5 311,-75.5 311,-56.5 220,-56.5"/>
<text text-anchor="middle" x="265.5" y="-63.5" font-family="Helvetica,sans-Serif" font-size="10.00" fill="#000000">JesdSyncOut(2)</text>
</a>
</g>
</g>
<!-- Node8&#45;&gt;Node5 -->
<g id="edge3" class="edge">
<title>Node8&#45;&gt;Node5</title>
<path fill="none" stroke="#191970" d="M238.2375,-51.46C219.4478,-41.4388 194.9987,-28.3993 178.58,-19.6427"/>
<polygon fill="#191970" stroke="#191970" points="236.7398,-54.6278 247.2104,-56.2455 240.0339,-48.4514 236.7398,-54.6278"/>
</g>
</g>
</svg>
