<?xml version="1.0" encoding="UTF-8" standalone="no"?>
<!DOCTYPE svg PUBLIC "-//W3C//DTD SVG 1.1//EN"
 "http://www.w3.org/Graphics/SVG/1.1/DTD/svg11.dtd">
<!-- Generated by graphviz version 2.40.1 (20161225.0304)
 -->
<!-- Title: AmcCarrierCoreBase Pages: 1 -->
<svg width="781pt" height="446pt"
 viewBox="0.00 0.00 781.00 446.00" xmlns="http://www.w3.org/2000/svg" xmlns:xlink="http://www.w3.org/1999/xlink">
<g id="graph0" class="graph" transform="scale(1 1) rotate(0) translate(4 442)">
<title>AmcCarrierCoreBase</title>
<polygon fill="#ffffff" stroke="transparent" points="-4,4 -4,-442 777,-442 777,4 -4,4"/>
<!-- Node0 -->
<g id="node1" class="node">
<title>Node0</title>
<polygon fill="#bfbfbf" stroke="#000000" points="655,-304.5 655,-323.5 773,-323.5 773,-304.5 655,-304.5"/>
<text text-anchor="middle" x="714" y="-311.5" font-family="Helvetica,sans-Serif" font-size="10.00" fill="#000000">AmcCarrierCoreBase</text>
</g>
<!-- Node1 -->
<g id="node2" class="node">
<title>Node1</title>
<g id="a_node2"><a xlink:href="classAmcCarrierSysReg.html" target="_top" xlink:title="AmcCarrierSysReg">
<polygon fill="#ffffff" stroke="#000000" points="512,-380.5 512,-399.5 619,-399.5 619,-380.5 512,-380.5"/>
<text text-anchor="middle" x="565.5" y="-387.5" font-family="Helvetica,sans-Serif" font-size="10.00" fill="#000000">AmcCarrierSysReg</text>
</a>
</g>
</g>
<!-- Node1&#45;&gt;Node0 -->
<g id="edge1" class="edge">
<title>Node1&#45;&gt;Node0</title>
<path fill="none" stroke="#191970" d="M593.3564,-375.7435C623.1755,-360.4826 669.652,-336.6966 695.3451,-323.5473"/>
<polygon fill="#191970" stroke="#191970" points="591.615,-372.703 584.3076,-380.3745 594.8041,-378.9343 591.615,-372.703"/>
</g>
<!-- Node2 -->
<g id="node3" class="node">
<title>Node2</title>
<g id="a_node3"><a xlink:href="classAmcCarrierSysMon.html" target="_top" xlink:title="AmcCarrierSysMon">
<polygon fill="#ffffff" stroke="#000000" points="365,-418.5 365,-437.5 474,-437.5 474,-418.5 365,-418.5"/>
<text text-anchor="middle" x="419.5" y="-425.5" font-family="Helvetica,sans-Serif" font-size="10.00" fill="#000000">AmcCarrierSysMon</text>
</a>
</g>
</g>
<!-- Node2&#45;&gt;Node1 -->
<g id="edge2" class="edge">
<title>Node2&#45;&gt;Node1</title>
<path fill="none" stroke="#191970" d="M466.036,-415.8879C486.3696,-410.5956 509.8713,-404.4787 528.923,-399.5201"/>
<polygon fill="#191970" stroke="#191970" points="465.1379,-412.5049 456.342,-418.411 466.9012,-419.2793 465.1379,-412.5049"/>
</g>
<!-- Node3 -->
<g id="node4" class="node">
<title>Node3</title>
<g id="a_node4"><a xlink:href="classAmcCarrierBsi.html" target="_top" xlink:title="AmcCarrierBsi">
<polygon fill="#ffffff" stroke="#000000" points="376.5,-380.5 376.5,-399.5 462.5,-399.5 462.5,-380.5 376.5,-380.5"/>
<text text-anchor="middle" x="419.5" y="-387.5" font-family="Helvetica,sans-Serif" font-size="10.00" fill="#000000">AmcCarrierBsi</text>
</a>
</g>
</g>
<!-- Node3&#45;&gt;Node1 -->
<g id="edge3" class="edge">
<title>Node3&#45;&gt;Node1</title>
<path fill="none" stroke="#191970" d="M472.5663,-390C485.378,-390 499.0768,-390 511.9123,-390"/>
<polygon fill="#191970" stroke="#191970" points="472.5152,-386.5001 462.5152,-390 472.5151,-393.5001 472.5152,-386.5001"/>
</g>
<!-- Node4 -->
<g id="node5" class="node">
<title>Node4</title>
<g id="a_node5"><a xlink:href="classAppMps.html" target="_top" xlink:title="AppMps">
<polygon fill="#ffffff" stroke="#000000" points="538,-304.5 538,-323.5 593,-323.5 593,-304.5 538,-304.5"/>
<text text-anchor="middle" x="565.5" y="-311.5" font-family="Helvetica,sans-Serif" font-size="10.00" fill="#000000">AppMps</text>
</a>
</g>
</g>
<!-- Node4&#45;&gt;Node0 -->
<g id="edge4" class="edge">
<title>Node4&#45;&gt;Node0</title>
<path fill="none" stroke="#191970" d="M603.4047,-314C619.0429,-314 637.5364,-314 654.8797,-314"/>
<polygon fill="#191970" stroke="#191970" points="603.0837,-310.5001 593.0837,-314 603.0837,-317.5001 603.0837,-310.5001"/>
</g>
<!-- Node5 -->
<g id="node6" class="node">
<title>Node5</title>
<g id="a_node6"><a xlink:href="classAppMpsClk.html" target="_top" xlink:title="AppMpsClk">
<polygon fill="#ffffff" stroke="#000000" points="384,-342.5 384,-361.5 455,-361.5 455,-342.5 384,-342.5"/>
<text text-anchor="middle" x="419.5" y="-349.5" font-family="Helvetica,sans-Serif" font-size="10.00" fill="#000000">AppMpsClk</text>
</a>
</g>
</g>
<!-- Node5&#45;&gt;Node4 -->
<g id="edge5" class="edge">
<title>Node5&#45;&gt;Node4</title>
<path fill="none" stroke="#191970" d="M465.1285,-340.1241C488.9957,-333.9121 517.4276,-326.512 537.9273,-321.1765"/>
<polygon fill="#191970" stroke="#191970" points="464.0116,-336.7981 455.2156,-342.7042 465.7748,-343.5724 464.0116,-336.7981"/>
</g>
<!-- Node6 -->
<g id="node7" class="node">
<title>Node6</title>
<g id="a_node7"><a xlink:href="classAppMpsEncoder.html" target="_top" xlink:title="AppMpsEncoder">
<polygon fill="#ffffff" stroke="#000000" points="372.5,-304.5 372.5,-323.5 466.5,-323.5 466.5,-304.5 372.5,-304.5"/>
<text text-anchor="middle" x="419.5" y="-311.5" font-family="Helvetica,sans-Serif" font-size="10.00" fill="#000000">AppMpsEncoder</text>
</a>
</g>
</g>
<!-- Node6&#45;&gt;Node4 -->
<g id="edge6" class="edge">
<title>Node6&#45;&gt;Node4</title>
<path fill="none" stroke="#191970" d="M477.0156,-314C497.9751,-314 520.7197,-314 537.9004,-314"/>
<polygon fill="#191970" stroke="#191970" points="476.9021,-310.5001 466.902,-314 476.902,-317.5001 476.9021,-310.5001"/>
</g>
<!-- Node7 -->
<g id="node8" class="node">
<title>Node7</title>
<g id="a_node8"><a xlink:href="classAppMpsReg.html" target="_top" xlink:title="AppMpsReg">
<polygon fill="#ffffff" stroke="#000000" points="213,-342.5 213,-361.5 286,-361.5 286,-342.5 213,-342.5"/>
<text text-anchor="middle" x="249.5" y="-349.5" font-family="Helvetica,sans-Serif" font-size="10.00" fill="#000000">AppMpsReg</text>
</a>
</g>
</g>
<!-- Node7&#45;&gt;Node6 -->
<g id="edge7" class="edge">
<title>Node7&#45;&gt;Node6</title>
<path fill="none" stroke="#191970" d="M296.4552,-341.5041C321.6632,-335.8694 352.4959,-328.9774 376.9907,-323.5021"/>
<polygon fill="#191970" stroke="#191970" points="295.3831,-338.1573 286.3875,-343.7546 296.9102,-344.9887 295.3831,-338.1573"/>
</g>
<!-- Node8 -->
<g id="node9" class="node">
<title>Node8</title>
<g id="a_node9"><a xlink:href="classAppMpsRegBase.html" target="_top" xlink:title="AppMpsRegBase">
<polygon fill="#ffffff" stroke="#000000" points="19.5,-361.5 19.5,-380.5 116.5,-380.5 116.5,-361.5 19.5,-361.5"/>
<text text-anchor="middle" x="68" y="-368.5" font-family="Helvetica,sans-Serif" font-size="10.00" fill="#000000">AppMpsRegBase</text>
</a>
</g>
</g>
<!-- Node8&#45;&gt;Node7 -->
<g id="edge8" class="edge">
<title>Node8&#45;&gt;Node7</title>
<path fill="none" stroke="#191970" d="M126.825,-364.842C155.1225,-361.8797 188.1664,-358.4206 212.8254,-355.8392"/>
<polygon fill="#191970" stroke="#191970" points="126.2199,-361.3861 116.6387,-365.9083 126.9488,-368.3481 126.2199,-361.3861"/>
</g>
<!-- Node9 -->
<g id="node10" class="node">
<title>Node9</title>
<g id="a_node10"><a xlink:href="classAppMpsRegAppCh.html" target="_top" xlink:title="AppMpsRegAppCh">
<polygon fill="#ffffff" stroke="#000000" points="16,-323.5 16,-342.5 120,-342.5 120,-323.5 16,-323.5"/>
<text text-anchor="middle" x="68" y="-330.5" font-family="Helvetica,sans-Serif" font-size="10.00" fill="#000000">AppMpsRegAppCh</text>
</a>
</g>
</g>
<!-- Node9&#45;&gt;Node7 -->
<g id="edge9" class="edge">
<title>Node9&#45;&gt;Node7</title>
<path fill="none" stroke="#191970" d="M129.9598,-339.4861C157.5085,-342.37 189.0058,-345.6673 212.7511,-348.153"/>
<polygon fill="#191970" stroke="#191970" points="130.3207,-336.0049 120.0106,-338.4446 129.5918,-342.9668 130.3207,-336.0049"/>
</g>
<!-- Node10 -->
<g id="node11" class="node">
<title>Node10</title>
<g id="a_node11"><a xlink:href="classAppMpsSelect.html" target="_top" xlink:title="AppMpsSelect">
<polygon fill="#ffffff" stroke="#000000" points="207,-304.5 207,-323.5 292,-323.5 292,-304.5 207,-304.5"/>
<text text-anchor="middle" x="249.5" y="-311.5" font-family="Helvetica,sans-Serif" font-size="10.00" fill="#000000">AppMpsSelect</text>
</a>
</g>
</g>
<!-- Node10&#45;&gt;Node6 -->
<g id="edge10" class="edge">
<title>Node10&#45;&gt;Node6</title>
<path fill="none" stroke="#191970" d="M302.4176,-314C324.8179,-314 350.702,-314 372.4277,-314"/>
<polygon fill="#191970" stroke="#191970" points="302.3982,-310.5001 292.3982,-314 302.3981,-317.5001 302.3982,-310.5001"/>
</g>
<!-- Node11 -->
<g id="node12" class="node">
<title>Node11</title>
<g id="a_node12"><a xlink:href="classMpsMsgCore.html" target="_top" xlink:title="MpsMsgCore">
<polygon fill="#ffffff" stroke="#000000" points="210.5,-266.5 210.5,-285.5 288.5,-285.5 288.5,-266.5 210.5,-266.5"/>
<text text-anchor="middle" x="249.5" y="-273.5" font-family="Helvetica,sans-Serif" font-size="10.00" fill="#000000">MpsMsgCore</text>
</a>
</g>
</g>
<!-- Node11&#45;&gt;Node6 -->
<g id="edge11" class="edge">
<title>Node11&#45;&gt;Node6</title>
<path fill="none" stroke="#191970" d="M298.424,-286.936C323.1909,-292.4721 352.9751,-299.1297 376.805,-304.4564"/>
<polygon fill="#191970" stroke="#191970" points="299.0241,-283.4838 288.5014,-284.718 297.4971,-290.3152 299.0241,-283.4838"/>
</g>
<!-- Node12 -->
<g id="node13" class="node">
<title>Node12</title>
<g id="a_node13"><a xlink:href="classAppMpsSalt.html" target="_top" xlink:title="AppMpsSalt">
<polygon fill="#ffffff" stroke="#000000" points="382.5,-266.5 382.5,-285.5 456.5,-285.5 456.5,-266.5 382.5,-266.5"/>
<text text-anchor="middle" x="419.5" y="-273.5" font-family="Helvetica,sans-Serif" font-size="10.00" fill="#000000">AppMpsSalt</text>
</a>
</g>
</g>
<!-- Node12&#45;&gt;Node4 -->
<g id="edge12" class="edge">
<title>Node12&#45;&gt;Node4</title>
<path fill="none" stroke="#191970" d="M466.1752,-288.1483C489.8079,-294.2993 517.6906,-301.5565 537.8883,-306.8134"/>
<polygon fill="#191970" stroke="#191970" points="466.9012,-284.7207 456.342,-285.589 465.1379,-291.4951 466.9012,-284.7207"/>
</g>
<!-- Node13 -->
<g id="node14" class="node">
<title>Node13</title>
<g id="a_node14"><a xlink:href="classAmcCarrierCore.html" target="_top" xlink:title="AmcCarrierCore">
<polygon fill="#ffffff" stroke="#000000" points="518.5,-171.5 518.5,-190.5 612.5,-190.5 612.5,-171.5 518.5,-171.5"/>
<text text-anchor="middle" x="565.5" y="-178.5" font-family="Helvetica,sans-Serif" font-size="10.00" fill="#000000">AmcCarrierCore</text>
</a>
</g>
</g>
<!-- Node13&#45;&gt;Node0 -->
<g id="edge13" class="edge">
<title>Node13&#45;&gt;Node0</title>
<path fill="none" stroke="#191970" d="M583.7432,-197.339C614.9559,-225.2938 677.6847,-281.4752 703.0164,-304.1628"/>
<polygon fill="#191970" stroke="#191970" points="585.964,-194.6295 576.1798,-190.565 581.2938,-199.8439 585.964,-194.6295"/>
</g>
<!-- Node14 -->
<g id="node15" class="node">
<title>Node14</title>
<g id="a_node15"><a xlink:href="classAmcCarrierIbufGt.html" target="_top" xlink:title="AmcCarrierIbufGt">
<polygon fill="#ffffff" stroke="#000000" points="199,-228.5 199,-247.5 300,-247.5 300,-228.5 199,-228.5"/>
<text text-anchor="middle" x="249.5" y="-235.5" font-family="Helvetica,sans-Serif" font-size="10.00" fill="#000000">AmcCarrierIbufGt</text>
</a>
</g>
</g>
<!-- Node14&#45;&gt;Node13 -->
<g id="edge14" class="edge">
<title>Node14&#45;&gt;Node13</title>
<path fill="none" stroke="#191970" d="M310.3018,-238.1017C356.3959,-236.9344 420.9793,-232.6163 476,-219 501.8905,-212.5927 529.9148,-199.6194 547.5768,-190.6257"/>
<polygon fill="#191970" stroke="#191970" points="310.0969,-234.6052 300.1729,-238.3152 310.2444,-241.6036 310.0969,-234.6052"/>
</g>
<!-- Node22 -->
<g id="node23" class="node">
<title>Node22</title>
<g id="a_node23"><a xlink:href="classAmcCarrierTiming.html" target="_top" xlink:title="AmcCarrierTiming">
<polygon fill="#ffffff" stroke="#000000" points="367,-190.5 367,-209.5 472,-209.5 472,-190.5 367,-190.5"/>
<text text-anchor="middle" x="419.5" y="-197.5" font-family="Helvetica,sans-Serif" font-size="10.00" fill="#000000">AmcCarrierTiming</text>
</a>
</g>
</g>
<!-- Node14&#45;&gt;Node22 -->
<g id="edge23" class="edge">
<title>Node14&#45;&gt;Node22</title>
<path fill="none" stroke="#191970" d="M302.3981,-226.1757C326.365,-220.8184 354.3235,-214.5689 376.9103,-209.5201"/>
<polygon fill="#191970" stroke="#191970" points="301.3938,-222.8138 292.3982,-228.411 302.9209,-229.6452 301.3938,-222.8138"/>
</g>
<!-- Node15 -->
<g id="node16" class="node">
<title>Node15</title>
<g id="a_node16"><a xlink:href="classAmcCarrierEth.html" target="_top" xlink:title="AmcCarrierEth">
<polygon fill="#ffffff" stroke="#000000" points="376,-152.5 376,-171.5 463,-171.5 463,-152.5 376,-152.5"/>
<text text-anchor="middle" x="419.5" y="-159.5" font-family="Helvetica,sans-Serif" font-size="10.00" fill="#000000">AmcCarrierEth</text>
</a>
</g>
</g>
<!-- Node15&#45;&gt;Node13 -->
<g id="edge15" class="edge">
<title>Node15&#45;&gt;Node13</title>
<path fill="none" stroke="#191970" d="M473.3311,-169.0054C488.1217,-170.9302 504.0422,-173.0021 518.4208,-174.8733"/>
<polygon fill="#191970" stroke="#191970" points="473.6729,-165.5205 463.3048,-167.7006 472.7695,-172.4619 473.6729,-165.5205"/>
</g>
<!-- Node16 -->
<g id="node17" class="node">
<title>Node16</title>
<g id="a_node17"><a xlink:href="classAmcCarrierXvcDebug.html" target="_top" xlink:title="AmcCarrierXvcDebug(2)">
<polygon fill="#ffffff" stroke="#000000" points="182.5,-190.5 182.5,-209.5 316.5,-209.5 316.5,-190.5 182.5,-190.5"/>
<text text-anchor="middle" x="249.5" y="-197.5" font-family="Helvetica,sans-Serif" font-size="10.00" fill="#000000">AmcCarrierXvcDebug(2)</text>
</a>
</g>
</g>
<!-- Node16&#45;&gt;Node15 -->
<g id="edge16" class="edge">
<title>Node16&#45;&gt;Node15</title>
<path fill="none" stroke="#191970" d="M302.3981,-188.1757C326.365,-182.8184 354.3235,-176.5689 376.9103,-171.5201"/>
<polygon fill="#191970" stroke="#191970" points="301.3938,-184.8138 292.3982,-190.411 302.9209,-191.6452 301.3938,-184.8138"/>
</g>
<!-- Node17 -->
<g id="node18" class="node">
<title>Node17</title>
<g id="a_node18"><a xlink:href="classUdpDebugBridge.html" target="_top" xlink:title="UdpDebugBridge">
<polygon fill="#ffffff" stroke="#000000" points="18.5,-190.5 18.5,-209.5 117.5,-209.5 117.5,-190.5 18.5,-190.5"/>
<text text-anchor="middle" x="68" y="-197.5" font-family="Helvetica,sans-Serif" font-size="10.00" fill="#000000">UdpDebugBridge</text>
</a>
</g>
</g>
<!-- Node17&#45;&gt;Node16 -->
<g id="edge17" class="edge">
<title>Node17&#45;&gt;Node16</title>
<path fill="none" stroke="#191970" d="M127.6594,-200C145.1345,-200 164.3591,-200 182.2707,-200"/>
<polygon fill="#191970" stroke="#191970" points="127.5957,-196.5001 117.5957,-200 127.5956,-203.5001 127.5957,-196.5001"/>
</g>
<!-- Node18 -->
<g id="node19" class="node">
<title>Node18</title>
<g id="a_node19"><a xlink:href="classAmcCarrierRssi.html" target="_top" xlink:title="AmcCarrierRssi(2)">
<polygon fill="#ffffff" stroke="#000000" points="197,-152.5 197,-171.5 302,-171.5 302,-152.5 197,-152.5"/>
<text text-anchor="middle" x="249.5" y="-159.5" font-family="Helvetica,sans-Serif" font-size="10.00" fill="#000000">AmcCarrierRssi(2)</text>
</a>
</g>
</g>
<!-- Node18&#45;&gt;Node15 -->
<g id="edge18" class="edge">
<title>Node18&#45;&gt;Node15</title>
<path fill="none" stroke="#191970" d="M312.513,-162C333.5677,-162 356.555,-162 375.807,-162"/>
<polygon fill="#191970" stroke="#191970" points="312.3572,-158.5001 302.3572,-162 312.3572,-165.5001 312.3572,-158.5001"/>
</g>
<!-- Node19 -->
<g id="node20" class="node">
<title>Node19</title>
<g id="a_node20"><a xlink:href="classAmcCarrierRssiObFifo.html" target="_top" xlink:title="AmcCarrierRssiObFifo(2)">
<polygon fill="#ffffff" stroke="#000000" points="0,-152.5 0,-171.5 136,-171.5 136,-152.5 0,-152.5"/>
<text text-anchor="middle" x="68" y="-159.5" font-family="Helvetica,sans-Serif" font-size="10.00" fill="#000000">AmcCarrierRssiObFifo(2)</text>
</a>
</g>
</g>
<!-- Node19&#45;&gt;Node18 -->
<g id="edge19" class="edge">
<title>Node19&#45;&gt;Node18</title>
<path fill="none" stroke="#191970" d="M146.1111,-162C163.2664,-162 181.0363,-162 196.9037,-162"/>
<polygon fill="#191970" stroke="#191970" points="146.1003,-158.5001 136.1003,-162 146.1003,-165.5001 146.1003,-158.5001"/>
</g>
<!-- Node20 -->
<g id="node21" class="node">
<title>Node20</title>
<g id="a_node21"><a xlink:href="classAmcCarrierRssiInterleave.html" target="_top" xlink:title="AmcCarrierRssiInterleave(2)">
<polygon fill="#ffffff" stroke="#000000" points="172,-114.5 172,-133.5 327,-133.5 327,-114.5 172,-114.5"/>
<text text-anchor="middle" x="249.5" y="-121.5" font-family="Helvetica,sans-Serif" font-size="10.00" fill="#000000">AmcCarrierRssiInterleave(2)</text>
</a>
</g>
</g>
<!-- Node20&#45;&gt;Node15 -->
<g id="edge20" class="edge">
<title>Node20&#45;&gt;Node15</title>
<path fill="none" stroke="#191970" d="M302.3981,-135.8243C326.365,-141.1816 354.3235,-147.4311 376.9103,-152.4799"/>
<polygon fill="#191970" stroke="#191970" points="302.9209,-132.3548 292.3982,-133.589 301.3938,-139.1862 302.9209,-132.3548"/>
</g>
<!-- Node21 -->
<g id="node22" class="node">
<title>Node21</title>
<g id="a_node22"><a xlink:href="classAmcCarrierRssiObFifo.html" target="_top" xlink:title="AmcCarrierRssiObFifo">
<polygon fill="#ffffff" stroke="#000000" points="7,-114.5 7,-133.5 129,-133.5 129,-114.5 7,-114.5"/>
<text text-anchor="middle" x="68" y="-121.5" font-family="Helvetica,sans-Serif" font-size="10.00" fill="#000000">AmcCarrierRssiObFifo</text>
</a>
</g>
</g>
<!-- Node21&#45;&gt;Node20 -->
<g id="edge21" class="edge">
<title>Node21&#45;&gt;Node20</title>
<path fill="none" stroke="#191970" d="M139.296,-124C149.9738,-124 161.0286,-124 171.8309,-124"/>
<polygon fill="#191970" stroke="#191970" points="139.1946,-120.5001 129.1946,-124 139.1946,-127.5001 139.1946,-120.5001"/>
</g>
<!-- Node22&#45;&gt;Node13 -->
<g id="edge22" class="edge">
<title>Node22&#45;&gt;Node13</title>
<path fill="none" stroke="#191970" d="M482.2214,-191.8376C494.2828,-190.268 506.7262,-188.6486 518.1988,-187.1556"/>
<polygon fill="#191970" stroke="#191970" points="481.674,-188.3793 472.2094,-193.1406 482.5774,-195.3207 481.674,-188.3793"/>
</g>
<!-- Node23 -->
<g id="node24" class="node">
<title>Node23</title>
<g id="a_node24"><a xlink:href="classAmcCarrierBsa.html" target="_top" xlink:title="AmcCarrierBsa">
<polygon fill="#ffffff" stroke="#000000" points="375,-76.5 375,-95.5 464,-95.5 464,-76.5 375,-76.5"/>
<text text-anchor="middle" x="419.5" y="-83.5" font-family="Helvetica,sans-Serif" font-size="10.00" fill="#000000">AmcCarrierBsa</text>
</a>
</g>
</g>
<!-- Node23&#45;&gt;Node13 -->
<g id="edge24" class="edge">
<title>Node23&#45;&gt;Node13</title>
<path fill="none" stroke="#191970" d="M442.9733,-101.2737C473.3188,-121.0191 525.2711,-154.8237 550.6581,-171.3426"/>
<polygon fill="#191970" stroke="#191970" points="444.5934,-98.1522 434.3027,-95.6319 440.7757,-104.0195 444.5934,-98.1522"/>
</g>
<!-- Node24 -->
<g id="node25" class="node">
<title>Node24</title>
<g id="a_node25"><a xlink:href="classBsaWaveformEngine.html" target="_top" xlink:title="BsaWaveformEngine(2)">
<polygon fill="#ffffff" stroke="#000000" points="184,-76.5 184,-95.5 315,-95.5 315,-76.5 184,-76.5"/>
<text text-anchor="middle" x="249.5" y="-83.5" font-family="Helvetica,sans-Serif" font-size="10.00" fill="#000000">BsaWaveformEngine(2)</text>
</a>
</g>
</g>
<!-- Node24&#45;&gt;Node23 -->
<g id="edge25" class="edge">
<title>Node24&#45;&gt;Node23</title>
<path fill="none" stroke="#191970" d="M325.6452,-86C342.5148,-86 359.8547,-86 374.9681,-86"/>
<polygon fill="#191970" stroke="#191970" points="325.2265,-82.5001 315.2264,-86 325.2264,-89.5001 325.2265,-82.5001"/>
</g>
<!-- Node25 -->
<g id="node26" class="node">
<title>Node25</title>
<g id="a_node26"><a xlink:href="classBsaBufferControl.html" target="_top" xlink:title="BsaBufferControl">
<polygon fill="#ffffff" stroke="#000000" points="200,-38.5 200,-57.5 299,-57.5 299,-38.5 200,-38.5"/>
<text text-anchor="middle" x="249.5" y="-45.5" font-family="Helvetica,sans-Serif" font-size="10.00" fill="#000000">BsaBufferControl</text>
</a>
</g>
</g>
<!-- Node25&#45;&gt;Node23 -->
<g id="edge26" class="edge">
<title>Node25&#45;&gt;Node23</title>
<path fill="none" stroke="#191970" d="M302.3981,-59.8243C326.365,-65.1816 354.3235,-71.4311 376.9103,-76.4799"/>
<polygon fill="#191970" stroke="#191970" points="302.9209,-56.3548 292.3982,-57.589 301.3938,-63.1862 302.9209,-56.3548"/>
</g>
<!-- Node26 -->
<g id="node27" class="node">
<title>Node26</title>
<g id="a_node27"><a xlink:href="classBsaAccumulator.html" target="_top" xlink:title="BsaAccumulator">
<polygon fill="#ffffff" stroke="#000000" points="20,-38.5 20,-57.5 116,-57.5 116,-38.5 20,-38.5"/>
<text text-anchor="middle" x="68" y="-45.5" font-family="Helvetica,sans-Serif" font-size="10.00" fill="#000000">BsaAccumulator</text>
</a>
</g>
</g>
<!-- Node26&#45;&gt;Node25 -->
<g id="edge27" class="edge">
<title>Node26&#45;&gt;Node25</title>
<path fill="none" stroke="#191970" d="M126.4249,-48C150.0978,-48 177.1465,-48 199.8462,-48"/>
<polygon fill="#191970" stroke="#191970" points="126.1622,-44.5001 116.1622,-48 126.1621,-51.5001 126.1622,-44.5001"/>
</g>
<!-- Node27 -->
<g id="node28" class="node">
<title>Node27</title>
<g id="a_node28"><a xlink:href="classBsaAxiInterconnectWrapper.html" target="_top" xlink:title="BsaAxiInterconnectWrapper">
<polygon fill="#ffffff" stroke="#000000" points="173.5,-.5 173.5,-19.5 325.5,-19.5 325.5,-.5 173.5,-.5"/>
<text text-anchor="middle" x="249.5" y="-7.5" font-family="Helvetica,sans-Serif" font-size="10.00" fill="#000000">BsaAxiInterconnectWrapper</text>
</a>
</g>
</g>
<!-- Node27&#45;&gt;Node23 -->
<g id="edge28" class="edge">
<title>Node27&#45;&gt;Node23</title>
<path fill="none" stroke="#191970" d="M314.718,-23.0067C318.9857,-24.7592 323.1222,-26.7466 327,-29 347.1147,-40.689 343.3937,-54.4769 363,-67 368.9306,-70.7881 375.6971,-73.9043 382.4369,-76.4383"/>
<polygon fill="#191970" stroke="#191970" points="315.809,-19.679 305.2151,-19.533 313.4057,-26.2535 315.809,-19.679"/>
</g>
<!-- Node28 -->
<g id="node29" class="node">
<title>Node28</title>
<g id="a_node29"><a xlink:href="classAmcCarrierDdrMem.html" target="_top" xlink:title="AmcCarrierDdrMem">
<polygon fill="#ffffff" stroke="#000000" points="363,-38.5 363,-57.5 476,-57.5 476,-38.5 363,-38.5"/>
<text text-anchor="middle" x="419.5" y="-45.5" font-family="Helvetica,sans-Serif" font-size="10.00" fill="#000000">AmcCarrierDdrMem</text>
</a>
</g>
</g>
<!-- Node28&#45;&gt;Node13 -->
<g id="edge29" class="edge">
<title>Node28&#45;&gt;Node13</title>
<path fill="none" stroke="#191970" d="M467.3587,-61.7962C470.3831,-63.3604 473.2948,-65.0899 476,-67 517.1095,-96.0274 548.6119,-149.2796 560.427,-171.1884"/>
<polygon fill="#191970" stroke="#191970" points="468.5958,-58.5145 458.0418,-57.5845 465.7123,-64.893 468.5958,-58.5145"/>
</g>
</g>
</svg>
