<?xml version="1.0" encoding="UTF-8" standalone="no"?>
<!DOCTYPE svg PUBLIC "-//W3C//DTD SVG 1.1//EN"
 "http://www.w3.org/Graphics/SVG/1.1/DTD/svg11.dtd">
<!-- Generated by graphviz version 2.40.1 (20161225.0304)
 -->
<!-- Title: AmcCarrierBsa Pages: 1 -->
<svg width="528pt" height="140pt"
 viewBox="0.00 0.00 528.00 140.00" xmlns="http://www.w3.org/2000/svg" xmlns:xlink="http://www.w3.org/1999/xlink">
<g id="graph0" class="graph" transform="scale(1 1) rotate(0) translate(4 136)">
<title>AmcCarrierBsa</title>
<polygon fill="#ffffff" stroke="transparent" points="-4,4 -4,-136 524,-136 524,4 -4,4"/>
<!-- Node11 -->
<g id="node1" class="node">
<title>Node11</title>
<polygon fill="#bfbfbf" stroke="#000000" points="226,-.5 226,-19.5 315,-19.5 315,-.5 226,-.5"/>
<text text-anchor="middle" x="270.5" y="-7.5" font-family="Helvetica,sans-Serif" font-size="10.00" fill="#000000">AmcCarrierBsa</text>
</g>
<!-- Node12 -->
<g id="node2" class="node">
<title>Node12</title>
<g id="a_node2"><a xlink:href="classBsaWaveformEngine.html" target="_top" xlink:title="BsaWaveformEngine(2)">
<polygon fill="#ffffff" stroke="#000000" points="0,-56.5 0,-75.5 131,-75.5 131,-56.5 0,-56.5"/>
<text text-anchor="middle" x="65.5" y="-63.5" font-family="Helvetica,sans-Serif" font-size="10.00" fill="#000000">BsaWaveformEngine(2)</text>
</a>
</g>
</g>
<!-- Node12&#45;&gt;Node11 -->
<g id="edge1" class="edge">
<title>Node12&#45;&gt;Node11</title>
<path fill="none" stroke="#191970" d="M110.454,-53.7199C148.1487,-43.4228 201.2041,-28.9296 235.7191,-19.5011"/>
<polygon fill="#191970" stroke="#191970" points="109.465,-50.3617 100.7408,-56.3733 111.3096,-57.1143 109.465,-50.3617"/>
</g>
<!-- Node13 -->
<g id="node3" class="node">
<title>Node13</title>
<g id="a_node3"><a xlink:href="classBsaBufferControl.html" target="_top" xlink:title="BsaBufferControl">
<polygon fill="#ffffff" stroke="#000000" points="149,-56.5 149,-75.5 248,-75.5 248,-56.5 149,-56.5"/>
<text text-anchor="middle" x="198.5" y="-63.5" font-family="Helvetica,sans-Serif" font-size="10.00" fill="#000000">BsaBufferControl</text>
</a>
</g>
</g>
<!-- Node13&#45;&gt;Node11 -->
<g id="edge2" class="edge">
<title>Node13&#45;&gt;Node11</title>
<path fill="none" stroke="#191970" d="M219.164,-49.928C231.7489,-40.1397 247.4092,-27.9595 258.1023,-19.6427"/>
<polygon fill="#191970" stroke="#191970" points="216.7862,-47.3434 211.0414,-56.2455 221.0838,-52.8688 216.7862,-47.3434"/>
</g>
<!-- Node14 -->
<g id="node4" class="node">
<title>Node14</title>
<g id="a_node4"><a xlink:href="classBsaAccumulator.html" target="_top" xlink:title="BsaAccumulator">
<polygon fill="#ffffff" stroke="#000000" points="150.5,-112.5 150.5,-131.5 246.5,-131.5 246.5,-112.5 150.5,-112.5"/>
<text text-anchor="middle" x="198.5" y="-119.5" font-family="Helvetica,sans-Serif" font-size="10.00" fill="#000000">BsaAccumulator</text>
</a>
</g>
</g>
<!-- Node14&#45;&gt;Node13 -->
<g id="edge3" class="edge">
<title>Node14&#45;&gt;Node13</title>
<path fill="none" stroke="#191970" d="M198.5,-102.1575C198.5,-93.155 198.5,-82.9199 198.5,-75.6427"/>
<polygon fill="#191970" stroke="#191970" points="195.0001,-102.2455 198.5,-112.2455 202.0001,-102.2456 195.0001,-102.2455"/>
</g>
<!-- Node15 -->
<g id="node5" class="node">
<title>Node15</title>
<g id="a_node5"><a xlink:href="classBsaAxiInterconnectWrapper.html" target="_top" xlink:title="BsaAxiInterconnectWrapper">
<polygon fill="#ffffff" stroke="#000000" points="266.5,-56.5 266.5,-75.5 418.5,-75.5 418.5,-56.5 266.5,-56.5"/>
<text text-anchor="middle" x="342.5" y="-63.5" font-family="Helvetica,sans-Serif" font-size="10.00" fill="#000000">BsaAxiInterconnectWrapper</text>
</a>
</g>
</g>
<!-- Node15&#45;&gt;Node11 -->
<g id="edge4" class="edge">
<title>Node15&#45;&gt;Node11</title>
<path fill="none" stroke="#191970" d="M321.836,-49.928C309.2511,-40.1397 293.5908,-27.9595 282.8977,-19.6427"/>
<polygon fill="#191970" stroke="#191970" points="319.9162,-52.8688 329.9586,-56.2455 324.2138,-47.3434 319.9162,-52.8688"/>
</g>
<!-- Node16 -->
<g id="node6" class="node">
<title>Node16</title>
<g id="a_node6"><a xlink:href="classBldAxiStream.html" target="_top" xlink:title="BldAxiStream">
<polygon fill="#ffffff" stroke="#000000" points="437,-56.5 437,-75.5 520,-75.5 520,-56.5 437,-56.5"/>
<text text-anchor="middle" x="478.5" y="-63.5" font-family="Helvetica,sans-Serif" font-size="10.00" fill="#000000">BldAxiStream</text>
</a>
</g>
</g>
<!-- Node16&#45;&gt;Node11 -->
<g id="edge5" class="edge">
<title>Node16&#45;&gt;Node11</title>
<path fill="none" stroke="#191970" d="M432.8882,-53.7199C394.6418,-43.4228 340.81,-28.9296 305.7899,-19.5011"/>
<polygon fill="#191970" stroke="#191970" points="432.1774,-57.1531 442.7435,-56.3733 433.9973,-50.3938 432.1774,-57.1531"/>
</g>
</g>
</svg>
