<?xml version="1.0" encoding="UTF-8" standalone="no"?>
<!DOCTYPE svg PUBLIC "-//W3C//DTD SVG 1.1//EN"
 "http://www.w3.org/Graphics/SVG/1.1/DTD/svg11.dtd">
<!-- Generated by graphviz version 2.40.1 (20161225.0304)
 -->
<!-- Title: AmcCryoDualCore Pages: 1 -->
<svg width="319pt" height="140pt"
 viewBox="0.00 0.00 319.00 140.00" xmlns="http://www.w3.org/2000/svg" xmlns:xlink="http://www.w3.org/1999/xlink">
<g id="graph0" class="graph" transform="scale(1 1) rotate(0) translate(4 136)">
<title>AmcCryoDualCore</title>
<polygon fill="#ffffff" stroke="transparent" points="-4,4 -4,-136 315,-136 315,4 -4,4"/>
<!-- Node5 -->
<g id="node1" class="node">
<title>Node5</title>
<polygon fill="#bfbfbf" stroke="#000000" points="107.5,-.5 107.5,-19.5 213.5,-19.5 213.5,-.5 107.5,-.5"/>
<text text-anchor="middle" x="160.5" y="-7.5" font-family="Helvetica,sans-Serif" font-size="10.00" fill="#000000">AmcCryoDualCore</text>
</g>
<!-- Node6 -->
<g id="node2" class="node">
<title>Node6</title>
<g id="a_node2"><a xlink:href="classAmcCryoCore.html" target="_top" xlink:title="AmcCryoCore">
<polygon fill="#ffffff" stroke="#000000" points="119,-56.5 119,-75.5 202,-75.5 202,-56.5 119,-56.5"/>
<text text-anchor="middle" x="160.5" y="-63.5" font-family="Helvetica,sans-Serif" font-size="10.00" fill="#000000">AmcCryoCore</text>
</a>
</g>
</g>
<!-- Node6&#45;&gt;Node5 -->
<g id="edge1" class="edge">
<title>Node6&#45;&gt;Node5</title>
<path fill="none" stroke="#191970" d="M160.5,-46.1575C160.5,-37.155 160.5,-26.9199 160.5,-19.6427"/>
<polygon fill="#191970" stroke="#191970" points="157.0001,-46.2455 160.5,-56.2455 164.0001,-46.2456 157.0001,-46.2455"/>
</g>
<!-- Node7 -->
<g id="node3" class="node">
<title>Node7</title>
<g id="a_node3"><a xlink:href="classAmcCryoCoreCtrl.html" target="_top" xlink:title="AmcCryoCoreCtrl">
<polygon fill="#ffffff" stroke="#000000" points="0,-112.5 0,-131.5 101,-131.5 101,-112.5 0,-112.5"/>
<text text-anchor="middle" x="50.5" y="-119.5" font-family="Helvetica,sans-Serif" font-size="10.00" fill="#000000">AmcCryoCoreCtrl</text>
</a>
</g>
</g>
<!-- Node7&#45;&gt;Node6 -->
<g id="edge2" class="edge">
<title>Node7&#45;&gt;Node6</title>
<path fill="none" stroke="#191970" d="M78.7914,-107.5971C98.5111,-97.558 124.28,-84.4393 141.559,-75.6427"/>
<polygon fill="#191970" stroke="#191970" points="76.9843,-104.5896 69.6605,-112.2455 80.1601,-110.8277 76.9843,-104.5896"/>
</g>
<!-- Node8 -->
<g id="node4" class="node">
<title>Node8</title>
<g id="a_node4"><a xlink:href="classJesdSyncIn.html" target="_top" xlink:title="JesdSyncIn(3)">
<polygon fill="#ffffff" stroke="#000000" points="119,-112.5 119,-131.5 202,-131.5 202,-112.5 119,-112.5"/>
<text text-anchor="middle" x="160.5" y="-119.5" font-family="Helvetica,sans-Serif" font-size="10.00" fill="#000000">JesdSyncIn(3)</text>
</a>
</g>
</g>
<!-- Node8&#45;&gt;Node6 -->
<g id="edge3" class="edge">
<title>Node8&#45;&gt;Node6</title>
<path fill="none" stroke="#191970" d="M160.5,-102.1575C160.5,-93.155 160.5,-82.9199 160.5,-75.6427"/>
<polygon fill="#191970" stroke="#191970" points="157.0001,-102.2455 160.5,-112.2455 164.0001,-102.2456 157.0001,-102.2455"/>
</g>
<!-- Node9 -->
<g id="node5" class="node">
<title>Node9</title>
<g id="a_node5"><a xlink:href="classJesdSyncOut.html" target="_top" xlink:title="JesdSyncOut(2)">
<polygon fill="#ffffff" stroke="#000000" points="220,-112.5 220,-131.5 311,-131.5 311,-112.5 220,-112.5"/>
<text text-anchor="middle" x="265.5" y="-119.5" font-family="Helvetica,sans-Serif" font-size="10.00" fill="#000000">JesdSyncOut(2)</text>
</a>
</g>
</g>
<!-- Node9&#45;&gt;Node6 -->
<g id="edge4" class="edge">
<title>Node9&#45;&gt;Node6</title>
<path fill="none" stroke="#191970" d="M238.2375,-107.46C219.4478,-97.4388 194.9987,-84.3993 178.58,-75.6427"/>
<polygon fill="#191970" stroke="#191970" points="236.7398,-110.6278 247.2104,-112.2455 240.0339,-104.4514 236.7398,-110.6278"/>
</g>
</g>
</svg>
