<?xml version="1.0" encoding="UTF-8" standalone="no"?>
<!DOCTYPE svg PUBLIC "-//W3C//DTD SVG 1.1//EN"
 "http://www.w3.org/Graphics/SVG/1.1/DTD/svg11.dtd">
<!-- Generated by graphviz version 2.40.1 (20161225.0304)
 -->
<!-- Title: adf5355 Pages: 1 -->
<svg width="241pt" height="140pt"
 viewBox="0.00 0.00 240.50 140.00" xmlns="http://www.w3.org/2000/svg" xmlns:xlink="http://www.w3.org/1999/xlink">
<g id="graph0" class="graph" transform="scale(1 1) rotate(0) translate(4 136)">
<title>adf5355</title>
<polygon fill="#ffffff" stroke="transparent" points="-4,4 -4,-136 236.5,-136 236.5,4 -4,4"/>
<!-- Node0 -->
<g id="node1" class="node">
<title>Node0</title>
<polygon fill="#bfbfbf" stroke="#000000" points="66.5,-112.5 66.5,-131.5 122.5,-131.5 122.5,-112.5 66.5,-112.5"/>
<text text-anchor="middle" x="94.5" y="-119.5" font-family="Helvetica,sans-Serif" font-size="10.00" fill="#000000">adf5355</text>
</g>
<!-- Node1 -->
<g id="node2" class="node">
<title>Node1</title>
<g id="a_node2"><a xlink:href="classAdf5355Tb.html" target="_top" xlink:title="Adf5355Tb">
<polygon fill="#ffffff" stroke="#000000" points="0,-56.5 0,-75.5 69,-75.5 69,-56.5 0,-56.5"/>
<text text-anchor="middle" x="34.5" y="-63.5" font-family="Helvetica,sans-Serif" font-size="10.00" fill="#000000">Adf5355Tb</text>
</a>
</g>
</g>
<!-- Node0&#45;&gt;Node1 -->
<g id="edge1" class="edge">
<title>Node0&#45;&gt;Node1</title>
<path fill="none" stroke="#191970" d="M76.6722,-105.3607C66.2922,-95.6727 53.5709,-83.7995 44.8314,-75.6427"/>
<polygon fill="#191970" stroke="#191970" points="74.3501,-107.981 84.0488,-112.2455 79.1263,-102.8636 74.3501,-107.981"/>
</g>
<!-- Node2 -->
<g id="node3" class="node">
<title>Node2</title>
<g id="a_node3"><a xlink:href="classAmcMicrowaveMuxCore.html" target="_top" xlink:title="AmcMicrowaveMuxCore">
<polygon fill="#ffffff" stroke="#000000" points="87.5,-56.5 87.5,-75.5 221.5,-75.5 221.5,-56.5 87.5,-56.5"/>
<text text-anchor="middle" x="154.5" y="-63.5" font-family="Helvetica,sans-Serif" font-size="10.00" fill="#000000">AmcMicrowaveMuxCore</text>
</a>
</g>
</g>
<!-- Node0&#45;&gt;Node2 -->
<g id="edge2" class="edge">
<title>Node0&#45;&gt;Node2</title>
<path fill="none" stroke="#191970" d="M112.3278,-105.3607C122.7078,-95.6727 135.4291,-83.7995 144.1686,-75.6427"/>
<polygon fill="#191970" stroke="#191970" points="109.8737,-102.8636 104.9512,-112.2455 114.6499,-107.981 109.8737,-102.8636"/>
</g>
<!-- Node3 -->
<g id="node4" class="node">
<title>Node3</title>
<g id="a_node4"><a xlink:href="classAmcMicrowaveMuxDualCore.html" target="_top" xlink:title="AmcMicrowaveMuxDualCore">
<polygon fill="#ffffff" stroke="#000000" points="76.5,-.5 76.5,-19.5 232.5,-19.5 232.5,-.5 76.5,-.5"/>
<text text-anchor="middle" x="154.5" y="-7.5" font-family="Helvetica,sans-Serif" font-size="10.00" fill="#000000">AmcMicrowaveMuxDualCore</text>
</a>
</g>
</g>
<!-- Node2&#45;&gt;Node3 -->
<g id="edge3" class="edge">
<title>Node2&#45;&gt;Node3</title>
<path fill="none" stroke="#191970" d="M154.5,-46.1575C154.5,-37.155 154.5,-26.9199 154.5,-19.6427"/>
<polygon fill="#191970" stroke="#191970" points="151.0001,-46.2455 154.5,-56.2455 158.0001,-46.2456 151.0001,-46.2455"/>
</g>
</g>
</svg>
