<?xml version="1.0" encoding="UTF-8" standalone="no"?>
<!DOCTYPE svg PUBLIC "-//W3C//DTD SVG 1.1//EN"
 "http://www.w3.org/Graphics/SVG/1.1/DTD/svg11.dtd">
<!-- Generated by graphviz version 2.40.1 (20161225.0304)
 -->
<!-- Title: AxisBramFlashBuffer Pages: 1 -->
<svg width="330pt" height="84pt"
 viewBox="0.00 0.00 330.00 84.00" xmlns="http://www.w3.org/2000/svg" xmlns:xlink="http://www.w3.org/1999/xlink">
<g id="graph0" class="graph" transform="scale(1 1) rotate(0) translate(4 80)">
<title>AxisBramFlashBuffer</title>
<polygon fill="#ffffff" stroke="transparent" points="-4,4 -4,-80 326,-80 326,4 -4,4"/>
<!-- Node4 -->
<g id="node1" class="node">
<title>Node4</title>
<polygon fill="#bfbfbf" stroke="#000000" points="101.5,-.5 101.5,-19.5 220.5,-19.5 220.5,-.5 101.5,-.5"/>
<text text-anchor="middle" x="161" y="-7.5" font-family="Helvetica,sans-Serif" font-size="10.00" fill="#000000">AxisBramFlashBuffer</text>
</g>
<!-- Node5 -->
<g id="node2" class="node">
<title>Node5</title>
<g id="a_node2"><a xlink:href="classAxisBramFlashBufferWrFsm.html" target="_top" xlink:title="AxisBramFlashBufferWrFsm">
<polygon fill="#ffffff" stroke="#000000" points="0,-56.5 0,-75.5 152,-75.5 152,-56.5 0,-56.5"/>
<text text-anchor="middle" x="76" y="-63.5" font-family="Helvetica,sans-Serif" font-size="10.00" fill="#000000">AxisBramFlashBufferWrFsm</text>
</a>
</g>
</g>
<!-- Node5&#45;&gt;Node4 -->
<g id="edge1" class="edge">
<title>Node5&#45;&gt;Node4</title>
<path fill="none" stroke="#191970" d="M99.5419,-50.49C114.539,-40.6096 133.4973,-28.1194 146.3638,-19.6427"/>
<polygon fill="#191970" stroke="#191970" points="97.2309,-47.8212 90.8059,-56.2455 101.0821,-53.6666 97.2309,-47.8212"/>
</g>
<!-- Node6 -->
<g id="node3" class="node">
<title>Node6</title>
<g id="a_node3"><a xlink:href="classAxisBramFlashBufferRdFsm.html" target="_top" xlink:title="AxisBramFlashBufferRdFsm">
<polygon fill="#ffffff" stroke="#000000" points="170,-56.5 170,-75.5 322,-75.5 322,-56.5 170,-56.5"/>
<text text-anchor="middle" x="246" y="-63.5" font-family="Helvetica,sans-Serif" font-size="10.00" fill="#000000">AxisBramFlashBufferRdFsm</text>
</a>
</g>
</g>
<!-- Node6&#45;&gt;Node4 -->
<g id="edge2" class="edge">
<title>Node6&#45;&gt;Node4</title>
<path fill="none" stroke="#191970" d="M222.4581,-50.49C207.461,-40.6096 188.5027,-28.1194 175.6362,-19.6427"/>
<polygon fill="#191970" stroke="#191970" points="220.9179,-53.6666 231.1941,-56.2455 224.7691,-47.8212 220.9179,-53.6666"/>
</g>
</g>
</svg>
