<?xml version="1.0" encoding="UTF-8" standalone="no"?>
<!DOCTYPE svg PUBLIC "-//W3C//DTD SVG 1.1//EN"
 "http://www.w3.org/Graphics/SVG/1.1/DTD/svg11.dtd">
<!-- Generated by graphviz version 2.40.1 (20161225.0304)
 -->
<!-- Title: AmcMrLlrfGen2UpConvert Pages: 1 -->
<svg width="313pt" height="140pt"
 viewBox="0.00 0.00 313.00 140.00" xmlns="http://www.w3.org/2000/svg" xmlns:xlink="http://www.w3.org/1999/xlink">
<g id="graph0" class="graph" transform="scale(1 1) rotate(0) translate(4 136)">
<title>AmcMrLlrfGen2UpConvert</title>
<polygon fill="#ffffff" stroke="transparent" points="-4,4 -4,-136 309,-136 309,4 -4,4"/>
<!-- Node0 -->
<g id="node1" class="node">
<title>Node0</title>
<polygon fill="#bfbfbf" stroke="#000000" points="102,-.5 102,-19.5 245,-19.5 245,-.5 102,-.5"/>
<text text-anchor="middle" x="173.5" y="-7.5" font-family="Helvetica,sans-Serif" font-size="10.00" fill="#000000">AmcMrLlrfGen2UpConvert</text>
</g>
<!-- Node1 -->
<g id="node2" class="node">
<title>Node1</title>
<g id="a_node2"><a xlink:href="classAmcMrLlrfGen2UpConvertMapping.html" target="_top" xlink:title="AmcMrLlrfGen2UpConvertMapping">
<polygon fill="#ffffff" stroke="#000000" points="1,-56.5 1,-75.5 186,-75.5 186,-56.5 1,-56.5"/>
<text text-anchor="middle" x="93.5" y="-63.5" font-family="Helvetica,sans-Serif" font-size="10.00" fill="#000000">AmcMrLlrfGen2UpConvertMapping</text>
</a>
</g>
</g>
<!-- Node1&#45;&gt;Node0 -->
<g id="edge1" class="edge">
<title>Node1&#45;&gt;Node0</title>
<path fill="none" stroke="#191970" d="M115.6571,-50.49C129.772,-40.6096 147.6151,-28.1194 159.7248,-19.6427"/>
<polygon fill="#191970" stroke="#191970" points="113.6201,-47.6436 107.4349,-56.2455 117.6344,-53.3782 113.6201,-47.6436"/>
</g>
<!-- Node2 -->
<g id="node3" class="node">
<title>Node2</title>
<g id="a_node3"><a xlink:href="classJesdSyncIn.html" target="_top" xlink:title="JesdSyncIn(2)">
<polygon fill="#ffffff" stroke="#000000" points="0,-112.5 0,-131.5 83,-131.5 83,-112.5 0,-112.5"/>
<text text-anchor="middle" x="41.5" y="-119.5" font-family="Helvetica,sans-Serif" font-size="10.00" fill="#000000">JesdSyncIn(2)</text>
</a>
</g>
</g>
<!-- Node2&#45;&gt;Node1 -->
<g id="edge2" class="edge">
<title>Node2&#45;&gt;Node1</title>
<path fill="none" stroke="#191970" d="M57.4822,-104.7884C66.3778,-95.2085 77.1204,-83.6396 84.5461,-75.6427"/>
<polygon fill="#191970" stroke="#191970" points="54.7975,-102.536 50.5577,-112.2455 59.927,-107.2992 54.7975,-102.536"/>
</g>
<!-- Node3 -->
<g id="node4" class="node">
<title>Node3</title>
<g id="a_node4"><a xlink:href="classJesdSyncOut.html" target="_top" xlink:title="JesdSyncOut(3)">
<polygon fill="#ffffff" stroke="#000000" points="101,-112.5 101,-131.5 192,-131.5 192,-112.5 101,-112.5"/>
<text text-anchor="middle" x="146.5" y="-119.5" font-family="Helvetica,sans-Serif" font-size="10.00" fill="#000000">JesdSyncOut(3)</text>
</a>
</g>
</g>
<!-- Node3&#45;&gt;Node1 -->
<g id="edge3" class="edge">
<title>Node3&#45;&gt;Node1</title>
<path fill="none" stroke="#191970" d="M130.2104,-104.7884C121.1438,-95.2085 110.1946,-83.6396 102.6261,-75.6427"/>
<polygon fill="#191970" stroke="#191970" points="127.8522,-107.3884 137.2681,-112.2455 132.9363,-102.5767 127.8522,-107.3884"/>
</g>
<!-- Node4 -->
<g id="node5" class="node">
<title>Node4</title>
<g id="a_node5"><a xlink:href="classAxiSerAttnMaster.html" target="_top" xlink:title="AxiSerAttnMaster">
<polygon fill="#ffffff" stroke="#000000" points="204,-56.5 204,-75.5 305,-75.5 305,-56.5 204,-56.5"/>
<text text-anchor="middle" x="254.5" y="-63.5" font-family="Helvetica,sans-Serif" font-size="10.00" fill="#000000">AxiSerAttnMaster</text>
</a>
</g>
</g>
<!-- Node4&#45;&gt;Node0 -->
<g id="edge4" class="edge">
<title>Node4&#45;&gt;Node0</title>
<path fill="none" stroke="#191970" d="M232.066,-50.49C217.7746,-40.6096 199.7084,-28.1194 187.4474,-19.6427"/>
<polygon fill="#191970" stroke="#191970" points="230.1749,-53.4376 240.3909,-56.2455 234.1557,-47.6797 230.1749,-53.4376"/>
</g>
</g>
</svg>
