<?xml version="1.0" encoding="UTF-8" standalone="no"?>
<!DOCTYPE svg PUBLIC "-//W3C//DTD SVG 1.1//EN"
 "http://www.w3.org/Graphics/SVG/1.1/DTD/svg11.dtd">
<!-- Generated by graphviz version 2.43.0 (0)
 -->
<!-- Title: DacSigGen Pages: 1 -->
<svg width="208pt" height="84pt"
 viewBox="0.00 0.00 208.00 84.00" xmlns="http://www.w3.org/2000/svg" xmlns:xlink="http://www.w3.org/1999/xlink">
<g id="graph0" class="graph" transform="scale(1 1) rotate(0) translate(4 80)">
<title>DacSigGen</title>
<polygon fill="white" stroke="transparent" points="-4,4 -4,-80 204,-80 204,4 -4,4"/>
<!-- Node1 -->
<g id="node1" class="node">
<title>Node1</title>
<g id="a_node1"><a xlink:title=" ">
<polygon fill="#bfbfbf" stroke="black" points="63.5,-0.5 63.5,-19.5 133.5,-19.5 133.5,-0.5 63.5,-0.5"/>
<text text-anchor="middle" x="98.5" y="-7.5" font-family="Helvetica,sans-Serif" font-size="10.00">DacSigGen</text>
</a>
</g>
</g>
<!-- Node2 -->
<g id="node2" class="node">
<title>Node2</title>
<g id="a_node2"><a xlink:href="classDacSigGenReg.html" target="_top" xlink:title=" ">
<polygon fill="white" stroke="black" points="0,-56.5 0,-75.5 89,-75.5 89,-56.5 0,-56.5"/>
<text text-anchor="middle" x="44.5" y="-63.5" font-family="Helvetica,sans-Serif" font-size="10.00">DacSigGenReg</text>
</a>
</g>
</g>
<!-- Node2&#45;&gt;Node1 -->
<g id="edge1" class="edge">
<title>Node2&#45;&gt;Node1</title>
<path fill="none" stroke="midnightblue" d="M60.5,-49C70.07,-39.43 81.86,-27.64 89.75,-19.75"/>
<polygon fill="midnightblue" stroke="midnightblue" points="58.01,-46.54 53.42,-56.08 62.96,-51.49 58.01,-46.54"/>
</g>
<!-- Node3 -->
<g id="node3" class="node">
<title>Node3</title>
<g id="a_node3"><a xlink:href="classDacSigGenLane.html" target="_top" xlink:title=" ">
<polygon fill="white" stroke="black" points="107,-56.5 107,-75.5 200,-75.5 200,-56.5 107,-56.5"/>
<text text-anchor="middle" x="153.5" y="-63.5" font-family="Helvetica,sans-Serif" font-size="10.00">DacSigGenLane</text>
</a>
</g>
</g>
<!-- Node3&#45;&gt;Node1 -->
<g id="edge2" class="edge">
<title>Node3&#45;&gt;Node1</title>
<path fill="none" stroke="midnightblue" d="M137.21,-49C127.46,-39.43 115.45,-27.64 107.41,-19.75"/>
<polygon fill="midnightblue" stroke="midnightblue" points="134.83,-51.57 144.42,-56.08 139.73,-46.58 134.83,-51.57"/>
</g>
</g>
</svg>
