<?xml version="1.0" encoding="UTF-8" standalone="no"?>
<!DOCTYPE svg PUBLIC "-//W3C//DTD SVG 1.1//EN"
 "http://www.w3.org/Graphics/SVG/1.1/DTD/svg11.dtd">
<!-- Generated by graphviz version 2.40.1 (20161225.0304)
 -->
<!-- Title: JesdSyncIn Pages: 1 -->
<svg width="492pt" height="294pt"
 viewBox="0.00 0.00 492.00 294.00" xmlns="http://www.w3.org/2000/svg" xmlns:xlink="http://www.w3.org/1999/xlink">
<g id="graph0" class="graph" transform="scale(1 1) rotate(0) translate(4 290)">
<title>JesdSyncIn</title>
<polygon fill="#ffffff" stroke="transparent" points="-4,4 -4,-290 488,-290 488,4 -4,4"/>
<!-- Node0 -->
<g id="node1" class="node">
<title>Node0</title>
<polygon fill="#bfbfbf" stroke="#000000" points="0,-133.5 0,-152.5 69,-152.5 69,-133.5 0,-133.5"/>
<text text-anchor="middle" x="34.5" y="-140.5" font-family="Helvetica,sans-Serif" font-size="10.00" fill="#000000">JesdSyncIn</text>
</g>
<!-- Node1 -->
<g id="node2" class="node">
<title>Node1</title>
<g id="a_node2"><a xlink:href="classAmcCryoCore.html" target="_top" xlink:title="AmcCryoCore">
<polygon fill="#ffffff" stroke="#000000" points="156,-266.5 156,-285.5 239,-285.5 239,-266.5 156,-266.5"/>
<text text-anchor="middle" x="197.5" y="-273.5" font-family="Helvetica,sans-Serif" font-size="10.00" fill="#000000">AmcCryoCore</text>
</a>
</g>
</g>
<!-- Node0&#45;&gt;Node1 -->
<g id="edge1" class="edge">
<title>Node0&#45;&gt;Node1</title>
<path fill="none" stroke="#191970" d="M40.9064,-162.2785C50.5379,-188.1196 71.2989,-233.4575 105,-257 119.7837,-267.3275 138.9411,-272.2878 155.984,-274.5865"/>
<polygon fill="#191970" stroke="#191970" points="44.1926,-161.0732 37.5545,-152.8158 37.5944,-163.4106 44.1926,-161.0732"/>
</g>
<!-- Node3 -->
<g id="node4" class="node">
<title>Node3</title>
<g id="a_node4"><a xlink:href="classAmcCryoDemoCore.html" target="_top" xlink:title="AmcCryoDemoCore">
<polygon fill="#ffffff" stroke="#000000" points="141,-228.5 141,-247.5 254,-247.5 254,-228.5 141,-228.5"/>
<text text-anchor="middle" x="197.5" y="-235.5" font-family="Helvetica,sans-Serif" font-size="10.00" fill="#000000">AmcCryoDemoCore</text>
</a>
</g>
</g>
<!-- Node0&#45;&gt;Node3 -->
<g id="edge3" class="edge">
<title>Node0&#45;&gt;Node3</title>
<path fill="none" stroke="#191970" d="M46.199,-161.0563C58.6167,-178.6869 79.8929,-204.8652 105,-219 115.8573,-225.1125 128.4206,-229.2702 140.7199,-232.0951"/>
<polygon fill="#191970" stroke="#191970" points="49.0538,-159.03 40.5394,-152.7247 43.2634,-162.9634 49.0538,-159.03"/>
</g>
<!-- Node5 -->
<g id="node6" class="node">
<title>Node5</title>
<g id="a_node6"><a xlink:href="classAmcGenericAdcDacCore.html" target="_top" xlink:title="AmcGenericAdcDacCore">
<polygon fill="#ffffff" stroke="#000000" points="130,-190.5 130,-209.5 265,-209.5 265,-190.5 130,-190.5"/>
<text text-anchor="middle" x="197.5" y="-197.5" font-family="Helvetica,sans-Serif" font-size="10.00" fill="#000000">AmcGenericAdcDacCore</text>
</a>
</g>
</g>
<!-- Node0&#45;&gt;Node5 -->
<g id="edge5" class="edge">
<title>Node0&#45;&gt;Node5</title>
<path fill="none" stroke="#191970" d="M57.8572,-157.829C71.2149,-165.728 88.5417,-175.0207 105,-181 115.4781,-184.8067 126.9161,-187.9317 138.0649,-190.4685"/>
<polygon fill="#191970" stroke="#191970" points="59.6685,-154.8341 49.3031,-152.641 56.0384,-160.8194 59.6685,-154.8341"/>
</g>
<!-- Node7 -->
<g id="node8" class="node">
<title>Node7</title>
<g id="a_node8"><a xlink:href="classAmcMicrowaveMuxCore.html" target="_top" xlink:title="AmcMicrowaveMuxCore">
<polygon fill="#ffffff" stroke="#000000" points="130.5,-152.5 130.5,-171.5 264.5,-171.5 264.5,-152.5 130.5,-152.5"/>
<text text-anchor="middle" x="197.5" y="-159.5" font-family="Helvetica,sans-Serif" font-size="10.00" fill="#000000">AmcMicrowaveMuxCore</text>
</a>
</g>
</g>
<!-- Node0&#45;&gt;Node7 -->
<g id="edge7" class="edge">
<title>Node0&#45;&gt;Node7</title>
<path fill="none" stroke="#191970" d="M79.0971,-148.1984C94.9263,-150.0436 113.1099,-152.1631 130.4004,-154.1786"/>
<polygon fill="#191970" stroke="#191970" points="79.4061,-144.7108 69.0681,-147.0294 78.5956,-151.6638 79.4061,-144.7108"/>
</g>
<!-- Node9 -->
<g id="node10" class="node">
<title>Node9</title>
<g id="a_node10"><a xlink:href="classAmcMrLlrfDownConvertCore.html" target="_top" xlink:title="AmcMrLlrfDownConvertCore">
<polygon fill="#ffffff" stroke="#000000" points="120,-114.5 120,-133.5 275,-133.5 275,-114.5 120,-114.5"/>
<text text-anchor="middle" x="197.5" y="-121.5" font-family="Helvetica,sans-Serif" font-size="10.00" fill="#000000">AmcMrLlrfDownConvertCore</text>
</a>
</g>
</g>
<!-- Node0&#45;&gt;Node9 -->
<g id="edge9" class="edge">
<title>Node0&#45;&gt;Node9</title>
<path fill="none" stroke="#191970" d="M79.2369,-137.7853C91.7976,-136.3211 105.8321,-134.6852 119.7222,-133.0661"/>
<polygon fill="#191970" stroke="#191970" points="78.5956,-134.3362 69.0681,-138.9706 79.4061,-141.2892 78.5956,-134.3362"/>
</g>
<!-- Node10 -->
<g id="node11" class="node">
<title>Node10</title>
<g id="a_node11"><a xlink:href="classAmcMrLlrfGen2UpConvertMapping.html" target="_top" xlink:title="AmcMrLlrfGen2UpConvertMapping">
<polygon fill="#ffffff" stroke="#000000" points="105,-76.5 105,-95.5 290,-95.5 290,-76.5 105,-76.5"/>
<text text-anchor="middle" x="197.5" y="-83.5" font-family="Helvetica,sans-Serif" font-size="10.00" fill="#000000">AmcMrLlrfGen2UpConvertMapping</text>
</a>
</g>
</g>
<!-- Node0&#45;&gt;Node10 -->
<g id="edge10" class="edge">
<title>Node0&#45;&gt;Node10</title>
<path fill="none" stroke="#191970" d="M57.8572,-128.171C71.2149,-120.272 88.5417,-110.9793 105,-105 115.4781,-101.1933 126.9161,-98.0683 138.0649,-95.5315"/>
<polygon fill="#191970" stroke="#191970" points="56.0384,-125.1806 49.3031,-133.359 59.6685,-131.1659 56.0384,-125.1806"/>
</g>
<!-- Node12 -->
<g id="node13" class="node">
<title>Node12</title>
<g id="a_node13"><a xlink:href="classAmcMrLlrfUpConvertMapping.html" target="_top" xlink:title="AmcMrLlrfUpConvertMapping">
<polygon fill="#ffffff" stroke="#000000" points="118,-38.5 118,-57.5 277,-57.5 277,-38.5 118,-38.5"/>
<text text-anchor="middle" x="197.5" y="-45.5" font-family="Helvetica,sans-Serif" font-size="10.00" fill="#000000">AmcMrLlrfUpConvertMapping</text>
</a>
</g>
</g>
<!-- Node0&#45;&gt;Node12 -->
<g id="edge12" class="edge">
<title>Node0&#45;&gt;Node12</title>
<path fill="none" stroke="#191970" d="M46.199,-124.9437C58.6167,-107.3131 79.8929,-81.1348 105,-67 111.8572,-63.1395 119.395,-60.0587 127.1169,-57.601"/>
<polygon fill="#191970" stroke="#191970" points="43.2634,-123.0366 40.5394,-133.2753 49.0538,-126.97 43.2634,-123.0366"/>
</g>
<!-- Node14 -->
<g id="node15" class="node">
<title>Node14</title>
<g id="a_node15"><a xlink:href="classAmcStriplineBpmCore.html" target="_top" xlink:title="AmcStriplineBpmCore">
<polygon fill="#ffffff" stroke="#000000" points="135.5,-.5 135.5,-19.5 259.5,-19.5 259.5,-.5 135.5,-.5"/>
<text text-anchor="middle" x="197.5" y="-7.5" font-family="Helvetica,sans-Serif" font-size="10.00" fill="#000000">AmcStriplineBpmCore</text>
</a>
</g>
</g>
<!-- Node0&#45;&gt;Node14 -->
<g id="edge14" class="edge">
<title>Node0&#45;&gt;Node14</title>
<path fill="none" stroke="#191970" d="M40.9064,-123.7215C50.5379,-97.8804 71.2989,-52.5425 105,-29 114.0046,-22.7096 124.6319,-18.4104 135.4156,-15.491"/>
<polygon fill="#191970" stroke="#191970" points="37.5944,-122.5894 37.5545,-133.1842 44.1926,-124.9268 37.5944,-122.5894"/>
</g>
<!-- Node2 -->
<g id="node3" class="node">
<title>Node2</title>
<g id="a_node3"><a xlink:href="classAmcCryoDualCore.html" target="_top" xlink:title="AmcCryoDualCore">
<polygon fill="#ffffff" stroke="#000000" points="352,-266.5 352,-285.5 458,-285.5 458,-266.5 352,-266.5"/>
<text text-anchor="middle" x="405" y="-273.5" font-family="Helvetica,sans-Serif" font-size="10.00" fill="#000000">AmcCryoDualCore</text>
</a>
</g>
</g>
<!-- Node1&#45;&gt;Node2 -->
<g id="edge2" class="edge">
<title>Node1&#45;&gt;Node2</title>
<path fill="none" stroke="#191970" d="M249.7453,-276C280.9981,-276 320.6056,-276 351.9928,-276"/>
<polygon fill="#191970" stroke="#191970" points="249.4908,-272.5001 239.4907,-276 249.4907,-279.5001 249.4908,-272.5001"/>
</g>
<!-- Node4 -->
<g id="node5" class="node">
<title>Node4</title>
<g id="a_node5"><a xlink:href="classAmcCryoDemoDualCore.html" target="_top" xlink:title="AmcCryoDemoDualCore">
<polygon fill="#ffffff" stroke="#000000" points="337.5,-228.5 337.5,-247.5 472.5,-247.5 472.5,-228.5 337.5,-228.5"/>
<text text-anchor="middle" x="405" y="-235.5" font-family="Helvetica,sans-Serif" font-size="10.00" fill="#000000">AmcCryoDemoDualCore</text>
</a>
</g>
</g>
<!-- Node3&#45;&gt;Node4 -->
<g id="edge4" class="edge">
<title>Node3&#45;&gt;Node4</title>
<path fill="none" stroke="#191970" d="M264.3556,-238C287.6958,-238 313.9002,-238 337.308,-238"/>
<polygon fill="#191970" stroke="#191970" points="264.2003,-234.5001 254.2003,-238 264.2003,-241.5001 264.2003,-234.5001"/>
</g>
<!-- Node6 -->
<g id="node7" class="node">
<title>Node6</title>
<g id="a_node7"><a xlink:href="classAmcGenericAdcDacDualCore.html" target="_top" xlink:title="AmcGenericAdcDacDualCore">
<polygon fill="#ffffff" stroke="#000000" points="326,-190.5 326,-209.5 484,-209.5 484,-190.5 326,-190.5"/>
<text text-anchor="middle" x="405" y="-197.5" font-family="Helvetica,sans-Serif" font-size="10.00" fill="#000000">AmcGenericAdcDacDualCore</text>
</a>
</g>
</g>
<!-- Node5&#45;&gt;Node6 -->
<g id="edge6" class="edge">
<title>Node5&#45;&gt;Node6</title>
<path fill="none" stroke="#191970" d="M275.3111,-200C291.8417,-200 309.311,-200 325.8895,-200"/>
<polygon fill="#191970" stroke="#191970" points="275.1562,-196.5001 265.1561,-200 275.1561,-203.5001 275.1562,-196.5001"/>
</g>
<!-- Node8 -->
<g id="node9" class="node">
<title>Node8</title>
<g id="a_node9"><a xlink:href="classAmcMicrowaveMuxDualCore.html" target="_top" xlink:title="AmcMicrowaveMuxDualCore">
<polygon fill="#ffffff" stroke="#000000" points="327,-152.5 327,-171.5 483,-171.5 483,-152.5 327,-152.5"/>
<text text-anchor="middle" x="405" y="-159.5" font-family="Helvetica,sans-Serif" font-size="10.00" fill="#000000">AmcMicrowaveMuxDualCore</text>
</a>
</g>
</g>
<!-- Node7&#45;&gt;Node8 -->
<g id="edge8" class="edge">
<title>Node7&#45;&gt;Node8</title>
<path fill="none" stroke="#191970" d="M275.0049,-162C291.9801,-162 309.9587,-162 326.955,-162"/>
<polygon fill="#191970" stroke="#191970" points="274.5828,-158.5001 264.5827,-162 274.5827,-165.5001 274.5828,-158.5001"/>
</g>
<!-- Node11 -->
<g id="node12" class="node">
<title>Node11</title>
<g id="a_node12"><a xlink:href="classAmcMrLlrfGen2UpConvert.html" target="_top" xlink:title="AmcMrLlrfGen2UpConvert">
<polygon fill="#ffffff" stroke="#000000" points="333.5,-76.5 333.5,-95.5 476.5,-95.5 476.5,-76.5 333.5,-76.5"/>
<text text-anchor="middle" x="405" y="-83.5" font-family="Helvetica,sans-Serif" font-size="10.00" fill="#000000">AmcMrLlrfGen2UpConvert</text>
</a>
</g>
</g>
<!-- Node10&#45;&gt;Node11 -->
<g id="edge11" class="edge">
<title>Node10&#45;&gt;Node11</title>
<path fill="none" stroke="#191970" d="M300.2396,-86C311.385,-86 322.5458,-86 333.2077,-86"/>
<polygon fill="#191970" stroke="#191970" points="300.0233,-82.5001 290.0232,-86 300.0232,-89.5001 300.0233,-82.5001"/>
</g>
<!-- Node13 -->
<g id="node14" class="node">
<title>Node13</title>
<g id="a_node14"><a xlink:href="classAmcMrLlrfUpConvertCore.html" target="_top" xlink:title="AmcMrLlrfUpConvertCore">
<polygon fill="#ffffff" stroke="#000000" points="335,-38.5 335,-57.5 475,-57.5 475,-38.5 335,-38.5"/>
<text text-anchor="middle" x="405" y="-45.5" font-family="Helvetica,sans-Serif" font-size="10.00" fill="#000000">AmcMrLlrfUpConvertCore</text>
</a>
</g>
</g>
<!-- Node12&#45;&gt;Node13 -->
<g id="edge13" class="edge">
<title>Node12&#45;&gt;Node13</title>
<path fill="none" stroke="#191970" d="M287.4531,-48C303.2795,-48 319.5419,-48 334.7319,-48"/>
<polygon fill="#191970" stroke="#191970" points="287.1315,-44.5001 277.1315,-48 287.1314,-51.5001 287.1315,-44.5001"/>
</g>
<!-- Node15 -->
<g id="node16" class="node">
<title>Node15</title>
<g id="a_node16"><a xlink:href="classAmcStriplineBpmDualCore.html" target="_top" xlink:title="AmcStriplineBpmDualCore">
<polygon fill="#ffffff" stroke="#000000" points="332,-.5 332,-19.5 478,-19.5 478,-.5 332,-.5"/>
<text text-anchor="middle" x="405" y="-7.5" font-family="Helvetica,sans-Serif" font-size="10.00" fill="#000000">AmcStriplineBpmDualCore</text>
</a>
</g>
</g>
<!-- Node14&#45;&gt;Node15 -->
<g id="edge15" class="edge">
<title>Node14&#45;&gt;Node15</title>
<path fill="none" stroke="#191970" d="M269.7733,-10C289.8621,-10 311.6899,-10 331.8296,-10"/>
<polygon fill="#191970" stroke="#191970" points="269.7569,-6.5001 259.7568,-10 269.7568,-13.5001 269.7569,-6.5001"/>
</g>
</g>
</svg>
