<?xml version="1.0" encoding="UTF-8" standalone="no"?>
<!DOCTYPE svg PUBLIC "-//W3C//DTD SVG 1.1//EN"
 "http://www.w3.org/Graphics/SVG/1.1/DTD/svg11.dtd">
<!-- Generated by graphviz version 2.40.1 (20161225.0304)
 -->
<!-- Title: DaqDecimator Pages: 1 -->
<svg width="238pt" height="196pt"
 viewBox="0.00 0.00 238.00 196.00" xmlns="http://www.w3.org/2000/svg" xmlns:xlink="http://www.w3.org/1999/xlink">
<g id="graph0" class="graph" transform="scale(1 1) rotate(0) translate(4 192)">
<title>DaqDecimator</title>
<polygon fill="#ffffff" stroke="transparent" points="-4,4 -4,-192 234,-192 234,4 -4,4"/>
<!-- Node0 -->
<g id="node1" class="node">
<title>Node0</title>
<polygon fill="#bfbfbf" stroke="#000000" points="54,-168.5 54,-187.5 141,-187.5 141,-168.5 54,-168.5"/>
<text text-anchor="middle" x="97.5" y="-175.5" font-family="Helvetica,sans-Serif" font-size="10.00" fill="#000000">DaqDecimator</text>
</g>
<!-- Node1 -->
<g id="node2" class="node">
<title>Node1</title>
<g id="a_node2"><a xlink:href="classDaqDecimatorTb.html" target="_top" xlink:title="DaqDecimatorTb">
<polygon fill="#ffffff" stroke="#000000" points="0,-112.5 0,-131.5 99,-131.5 99,-112.5 0,-112.5"/>
<text text-anchor="middle" x="49.5" y="-119.5" font-family="Helvetica,sans-Serif" font-size="10.00" fill="#000000">DaqDecimatorTb</text>
</a>
</g>
</g>
<!-- Node0&#45;&gt;Node1 -->
<g id="edge1" class="edge">
<title>Node0&#45;&gt;Node1</title>
<path fill="none" stroke="#191970" d="M82.5003,-160.5004C74.3378,-150.9775 64.5511,-139.5596 57.7651,-131.6427"/>
<polygon fill="#191970" stroke="#191970" points="79.9737,-162.9307 89.139,-168.2455 85.2885,-158.3752 79.9737,-162.9307"/>
</g>
<!-- Node2 -->
<g id="node3" class="node">
<title>Node2</title>
<g id="a_node3"><a xlink:href="classDaqLane.html" target="_top" xlink:title="DaqLane">
<polygon fill="#ffffff" stroke="#000000" points="117,-112.5 117,-131.5 176,-131.5 176,-112.5 117,-112.5"/>
<text text-anchor="middle" x="146.5" y="-119.5" font-family="Helvetica,sans-Serif" font-size="10.00" fill="#000000">DaqLane</text>
</a>
</g>
</g>
<!-- Node0&#45;&gt;Node2 -->
<g id="edge2" class="edge">
<title>Node0&#45;&gt;Node2</title>
<path fill="none" stroke="#191970" d="M112.8122,-160.5004C121.1447,-150.9775 131.1353,-139.5596 138.0627,-131.6427"/>
<polygon fill="#191970" stroke="#191970" points="109.9862,-158.415 106.0351,-168.2455 115.2543,-163.0245 109.9862,-158.415"/>
</g>
<!-- Node3 -->
<g id="node4" class="node">
<title>Node3</title>
<g id="a_node4"><a xlink:href="classDaqMuxV2.html" target="_top" xlink:title="DaqMuxV2">
<polygon fill="#ffffff" stroke="#000000" points="112,-56.5 112,-75.5 181,-75.5 181,-56.5 112,-56.5"/>
<text text-anchor="middle" x="146.5" y="-63.5" font-family="Helvetica,sans-Serif" font-size="10.00" fill="#000000">DaqMuxV2</text>
</a>
</g>
</g>
<!-- Node2&#45;&gt;Node3 -->
<g id="edge3" class="edge">
<title>Node2&#45;&gt;Node3</title>
<path fill="none" stroke="#191970" d="M146.5,-102.1575C146.5,-93.155 146.5,-82.9199 146.5,-75.6427"/>
<polygon fill="#191970" stroke="#191970" points="143.0001,-102.2455 146.5,-112.2455 150.0001,-102.2456 143.0001,-102.2455"/>
</g>
<!-- Node4 -->
<g id="node5" class="node">
<title>Node4</title>
<g id="a_node5"><a xlink:href="classAppTop.html" target="_top" xlink:title="AppTop">
<polygon fill="#ffffff" stroke="#000000" points="78.5,-.5 78.5,-19.5 130.5,-19.5 130.5,-.5 78.5,-.5"/>
<text text-anchor="middle" x="104.5" y="-7.5" font-family="Helvetica,sans-Serif" font-size="10.00" fill="#000000">AppTop</text>
</a>
</g>
</g>
<!-- Node3&#45;&gt;Node4 -->
<g id="edge4" class="edge">
<title>Node3&#45;&gt;Node4</title>
<path fill="none" stroke="#191970" d="M133.1584,-48.2112C126.0604,-38.7472 117.6097,-27.4797 111.732,-19.6427"/>
<polygon fill="#191970" stroke="#191970" points="130.3841,-50.3455 139.1842,-56.2455 135.9841,-46.1455 130.3841,-50.3455"/>
</g>
<!-- Node5 -->
<g id="node6" class="node">
<title>Node5</title>
<g id="a_node6"><a xlink:href="classDaqMuxV2Tb.html" target="_top" xlink:title="DaqMuxV2Tb">
<polygon fill="#ffffff" stroke="#000000" points="149,-.5 149,-19.5 230,-19.5 230,-.5 149,-.5"/>
<text text-anchor="middle" x="189.5" y="-7.5" font-family="Helvetica,sans-Serif" font-size="10.00" fill="#000000">DaqMuxV2Tb</text>
</a>
</g>
</g>
<!-- Node3&#45;&gt;Node5 -->
<g id="edge5" class="edge">
<title>Node3&#45;&gt;Node5</title>
<path fill="none" stroke="#191970" d="M160.1592,-48.2112C167.4263,-38.7472 176.0781,-27.4797 182.0958,-19.6427"/>
<polygon fill="#191970" stroke="#191970" points="157.3043,-46.1824 153.99,-56.2455 162.8564,-50.4456 157.3043,-46.1824"/>
</g>
</g>
</svg>
