<?xml version="1.0" encoding="UTF-8" standalone="no"?>
<!DOCTYPE svg PUBLIC "-//W3C//DTD SVG 1.1//EN"
 "http://www.w3.org/Graphics/SVG/1.1/DTD/svg11.dtd">
<!-- Generated by graphviz version 2.40.1 (20161225.0304)
 -->
<!-- Title: Ad9229Deserializer Pages: 1 -->
<svg width="121pt" height="196pt"
 viewBox="0.00 0.00 121.00 196.00" xmlns="http://www.w3.org/2000/svg" xmlns:xlink="http://www.w3.org/1999/xlink">
<g id="graph0" class="graph" transform="scale(1 1) rotate(0) translate(4 192)">
<title>Ad9229Deserializer</title>
<polygon fill="#ffffff" stroke="transparent" points="-4,4 -4,-192 117,-192 117,4 -4,4"/>
<!-- Node0 -->
<g id="node1" class="node">
<title>Node0</title>
<polygon fill="#bfbfbf" stroke="#000000" points=".5,-168.5 .5,-187.5 112.5,-187.5 112.5,-168.5 .5,-168.5"/>
<text text-anchor="middle" x="56.5" y="-175.5" font-family="Helvetica,sans-Serif" font-size="10.00" fill="#000000">Ad9229Deserializer</text>
</g>
<!-- Node1 -->
<g id="node2" class="node">
<title>Node1</title>
<g id="a_node2"><a xlink:href="classAd9229Core.html" target="_top" xlink:title="Ad9229Core">
<polygon fill="#ffffff" stroke="#000000" points="18.5,-112.5 18.5,-131.5 94.5,-131.5 94.5,-112.5 18.5,-112.5"/>
<text text-anchor="middle" x="56.5" y="-119.5" font-family="Helvetica,sans-Serif" font-size="10.00" fill="#000000">Ad9229Core</text>
</a>
</g>
</g>
<!-- Node0&#45;&gt;Node1 -->
<g id="edge1" class="edge">
<title>Node0&#45;&gt;Node1</title>
<path fill="none" stroke="#191970" d="M56.5,-158.1575C56.5,-149.155 56.5,-138.9199 56.5,-131.6427"/>
<polygon fill="#191970" stroke="#191970" points="53.0001,-158.2455 56.5,-168.2455 60.0001,-158.2456 53.0001,-158.2455"/>
</g>
<!-- Node2 -->
<g id="node3" class="node">
<title>Node2</title>
<g id="a_node3"><a xlink:href="classRtmRfInterlockCore.html" target="_top" xlink:title="RtmRfInterlockCore">
<polygon fill="#ffffff" stroke="#000000" points="0,-56.5 0,-75.5 113,-75.5 113,-56.5 0,-56.5"/>
<text text-anchor="middle" x="56.5" y="-63.5" font-family="Helvetica,sans-Serif" font-size="10.00" fill="#000000">RtmRfInterlockCore</text>
</a>
</g>
</g>
<!-- Node1&#45;&gt;Node2 -->
<g id="edge2" class="edge">
<title>Node1&#45;&gt;Node2</title>
<path fill="none" stroke="#191970" d="M56.5,-102.1575C56.5,-93.155 56.5,-82.9199 56.5,-75.6427"/>
<polygon fill="#191970" stroke="#191970" points="53.0001,-102.2455 56.5,-112.2455 60.0001,-102.2456 53.0001,-102.2455"/>
</g>
<!-- Node3 -->
<g id="node4" class="node">
<title>Node3</title>
<g id="a_node4"><a xlink:href="classRtmRfInterlock.html" target="_top" xlink:title="RtmRfInterlock">
<polygon fill="#ffffff" stroke="#000000" points="11.5,-.5 11.5,-19.5 101.5,-19.5 101.5,-.5 11.5,-.5"/>
<text text-anchor="middle" x="56.5" y="-7.5" font-family="Helvetica,sans-Serif" font-size="10.00" fill="#000000">RtmRfInterlock</text>
</a>
</g>
</g>
<!-- Node2&#45;&gt;Node3 -->
<g id="edge3" class="edge">
<title>Node2&#45;&gt;Node3</title>
<path fill="none" stroke="#191970" d="M56.5,-46.1575C56.5,-37.155 56.5,-26.9199 56.5,-19.6427"/>
<polygon fill="#191970" stroke="#191970" points="53.0001,-46.2455 56.5,-56.2455 60.0001,-46.2456 53.0001,-46.2455"/>
</g>
</g>
</svg>
