<?xml version="1.0" encoding="UTF-8" standalone="no"?>
<!DOCTYPE svg PUBLIC "-//W3C//DTD SVG 1.1//EN"
 "http://www.w3.org/Graphics/SVG/1.1/DTD/svg11.dtd">
<!-- Generated by graphviz version 2.40.1 (20161225.0304)
 -->
<!-- Title: RtmRfInterlockCore Pages: 1 -->
<svg width="465pt" height="140pt"
 viewBox="0.00 0.00 465.00 140.00" xmlns="http://www.w3.org/2000/svg" xmlns:xlink="http://www.w3.org/1999/xlink">
<g id="graph0" class="graph" transform="scale(1 1) rotate(0) translate(4 136)">
<title>RtmRfInterlockCore</title>
<polygon fill="#ffffff" stroke="transparent" points="-4,4 -4,-136 461,-136 461,4 -4,4"/>
<!-- Node8 -->
<g id="node1" class="node">
<title>Node8</title>
<polygon fill="#bfbfbf" stroke="#000000" points="186,-.5 186,-19.5 299,-19.5 299,-.5 186,-.5"/>
<text text-anchor="middle" x="242.5" y="-7.5" font-family="Helvetica,sans-Serif" font-size="10.00" fill="#000000">RtmRfInterlockCore</text>
</g>
<!-- Node9 -->
<g id="node2" class="node">
<title>Node9</title>
<g id="a_node2"><a xlink:href="classAd9229Core.html" target="_top" xlink:title="Ad9229Core">
<polygon fill="#ffffff" stroke="#000000" points="41.5,-56.5 41.5,-75.5 117.5,-75.5 117.5,-56.5 41.5,-56.5"/>
<text text-anchor="middle" x="79.5" y="-63.5" font-family="Helvetica,sans-Serif" font-size="10.00" fill="#000000">Ad9229Core</text>
</a>
</g>
</g>
<!-- Node9&#45;&gt;Node8 -->
<g id="edge1" class="edge">
<title>Node9&#45;&gt;Node8</title>
<path fill="none" stroke="#191970" d="M117.1733,-53.057C147.0042,-42.8084 187.9852,-28.729 214.8449,-19.5011"/>
<polygon fill="#191970" stroke="#191970" points="115.8409,-49.8139 107.5207,-56.3733 118.1154,-56.4341 115.8409,-49.8139"/>
</g>
<!-- Node10 -->
<g id="node3" class="node">
<title>Node10</title>
<g id="a_node3"><a xlink:href="classAd9229Deserializer.html" target="_top" xlink:title="Ad9229Deserializer(2)">
<polygon fill="#ffffff" stroke="#000000" points="0,-112.5 0,-131.5 125,-131.5 125,-112.5 0,-112.5"/>
<text text-anchor="middle" x="62.5" y="-119.5" font-family="Helvetica,sans-Serif" font-size="10.00" fill="#000000">Ad9229Deserializer(2)</text>
</a>
</g>
</g>
<!-- Node10&#45;&gt;Node9 -->
<g id="edge2" class="edge">
<title>Node10&#45;&gt;Node9</title>
<path fill="none" stroke="#191970" d="M68.4337,-102.4538C71.1881,-93.3803 74.3393,-82.9998 76.5728,-75.6427"/>
<polygon fill="#191970" stroke="#191970" points="65.017,-101.66 65.4612,-112.2455 71.7151,-103.6934 65.017,-101.66"/>
</g>
<!-- Node11 -->
<g id="node4" class="node">
<title>Node11</title>
<g id="a_node4"><a xlink:href="classAxiSpiAd7682.html" target="_top" xlink:title="AxiSpiAd7682">
<polygon fill="#ffffff" stroke="#000000" points="143.5,-56.5 143.5,-75.5 227.5,-75.5 227.5,-56.5 143.5,-56.5"/>
<text text-anchor="middle" x="185.5" y="-63.5" font-family="Helvetica,sans-Serif" font-size="10.00" fill="#000000">AxiSpiAd7682</text>
</a>
</g>
</g>
<!-- Node11&#45;&gt;Node8 -->
<g id="edge3" class="edge">
<title>Node11&#45;&gt;Node8</title>
<path fill="none" stroke="#191970" d="M202.7271,-49.0751C212.5341,-39.4402 224.464,-27.7196 232.6851,-19.6427"/>
<polygon fill="#191970" stroke="#191970" points="200.1091,-46.7406 195.4286,-56.2455 205.0149,-51.734 200.1091,-46.7406"/>
</g>
<!-- Node12 -->
<g id="node5" class="node">
<title>Node12</title>
<g id="a_node5"><a xlink:href="classAxiSpiAd7682Reg.html" target="_top" xlink:title="AxiSpiAd7682Reg">
<polygon fill="#ffffff" stroke="#000000" points="143.5,-112.5 143.5,-131.5 245.5,-131.5 245.5,-112.5 143.5,-112.5"/>
<text text-anchor="middle" x="194.5" y="-119.5" font-family="Helvetica,sans-Serif" font-size="10.00" fill="#000000">AxiSpiAd7682Reg</text>
</a>
</g>
</g>
<!-- Node12&#45;&gt;Node11 -->
<g id="edge4" class="edge">
<title>Node12&#45;&gt;Node11</title>
<path fill="none" stroke="#191970" d="M191.311,-102.1575C189.8642,-93.155 188.2193,-82.9199 187.0497,-75.6427"/>
<polygon fill="#191970" stroke="#191970" points="187.8898,-102.9276 192.9323,-112.2455 194.8011,-101.8168 187.8898,-102.9276"/>
</g>
<!-- Node13 -->
<g id="node6" class="node">
<title>Node13</title>
<g id="a_node6"><a xlink:href="classRtmRfInterlockReg.html" target="_top" xlink:title="RtmRfInterlockReg">
<polygon fill="#ffffff" stroke="#000000" points="245.5,-56.5 245.5,-75.5 353.5,-75.5 353.5,-56.5 245.5,-56.5"/>
<text text-anchor="middle" x="299.5" y="-63.5" font-family="Helvetica,sans-Serif" font-size="10.00" fill="#000000">RtmRfInterlockReg</text>
</a>
</g>
</g>
<!-- Node13&#45;&gt;Node8 -->
<g id="edge5" class="edge">
<title>Node13&#45;&gt;Node8</title>
<path fill="none" stroke="#191970" d="M282.2729,-49.0751C272.4659,-39.4402 260.536,-27.7196 252.3149,-19.6427"/>
<polygon fill="#191970" stroke="#191970" points="279.9851,-51.734 289.5714,-56.2455 284.8909,-46.7406 279.9851,-51.734"/>
</g>
<!-- Node14 -->
<g id="node7" class="node">
<title>Node14</title>
<g id="a_node7"><a xlink:href="classRingBufferCtrl.html" target="_top" xlink:title="RingBufferCtrl">
<polygon fill="#ffffff" stroke="#000000" points="372,-56.5 372,-75.5 457,-75.5 457,-56.5 372,-56.5"/>
<text text-anchor="middle" x="414.5" y="-63.5" font-family="Helvetica,sans-Serif" font-size="10.00" fill="#000000">RingBufferCtrl</text>
</a>
</g>
</g>
<!-- Node14&#45;&gt;Node8 -->
<g id="edge6" class="edge">
<title>Node14&#45;&gt;Node8</title>
<path fill="none" stroke="#191970" d="M375.1565,-53.1905C343.6449,-42.9309 300.1481,-28.7691 271.682,-19.5011"/>
<polygon fill="#191970" stroke="#191970" points="374.3399,-56.6054 384.9321,-56.3733 376.507,-49.9493 374.3399,-56.6054"/>
</g>
</g>
</svg>
