<?xml version="1.0" encoding="UTF-8" standalone="no"?>
<!DOCTYPE svg PUBLIC "-//W3C//DTD SVG 1.1//EN"
 "http://www.w3.org/Graphics/SVG/1.1/DTD/svg11.dtd">
<!-- Generated by graphviz version 2.40.1 (20161225.0304)
 -->
<!-- Title: AmcCryoDemoCore Pages: 1 -->
<svg width="186pt" height="84pt"
 viewBox="0.00 0.00 186.00 84.00" xmlns="http://www.w3.org/2000/svg" xmlns:xlink="http://www.w3.org/1999/xlink">
<g id="graph0" class="graph" transform="scale(1 1) rotate(0) translate(4 80)">
<title>AmcCryoDemoCore</title>
<polygon fill="#ffffff" stroke="transparent" points="-4,4 -4,-80 182,-80 182,4 -4,4"/>
<!-- Node4 -->
<g id="node1" class="node">
<title>Node4</title>
<polygon fill="#bfbfbf" stroke="#000000" points="34,-.5 34,-19.5 147,-19.5 147,-.5 34,-.5"/>
<text text-anchor="middle" x="90.5" y="-7.5" font-family="Helvetica,sans-Serif" font-size="10.00" fill="#000000">AmcCryoDemoCore</text>
</g>
<!-- Node5 -->
<g id="node2" class="node">
<title>Node5</title>
<g id="a_node2"><a xlink:href="classJesdSyncIn.html" target="_top" xlink:title="JesdSyncIn(2)">
<polygon fill="#ffffff" stroke="#000000" points="0,-56.5 0,-75.5 83,-75.5 83,-56.5 0,-56.5"/>
<text text-anchor="middle" x="41.5" y="-63.5" font-family="Helvetica,sans-Serif" font-size="10.00" fill="#000000">JesdSyncIn(2)</text>
</a>
</g>
</g>
<!-- Node5&#45;&gt;Node4 -->
<g id="edge1" class="edge">
<title>Node5&#45;&gt;Node4</title>
<path fill="none" stroke="#191970" d="M56.8122,-48.5004C65.1447,-38.9775 75.1353,-27.5596 82.0627,-19.6427"/>
<polygon fill="#191970" stroke="#191970" points="53.9862,-46.415 50.0351,-56.2455 59.2543,-51.0245 53.9862,-46.415"/>
</g>
<!-- Node6 -->
<g id="node3" class="node">
<title>Node6</title>
<g id="a_node3"><a xlink:href="classJesdSyncOut.html" target="_top" xlink:title="JesdSyncOut">
<polygon fill="#ffffff" stroke="#000000" points="101,-56.5 101,-75.5 178,-75.5 178,-56.5 101,-56.5"/>
<text text-anchor="middle" x="139.5" y="-63.5" font-family="Helvetica,sans-Serif" font-size="10.00" fill="#000000">JesdSyncOut</text>
</a>
</g>
</g>
<!-- Node6&#45;&gt;Node4 -->
<g id="edge2" class="edge">
<title>Node6&#45;&gt;Node4</title>
<path fill="none" stroke="#191970" d="M124.1878,-48.5004C115.8553,-38.9775 105.8647,-27.5596 98.9373,-19.6427"/>
<polygon fill="#191970" stroke="#191970" points="121.7457,-51.0245 130.9649,-56.2455 127.0138,-46.415 121.7457,-51.0245"/>
</g>
</g>
</svg>
