<?xml version="1.0" encoding="UTF-8" standalone="no"?>
<!DOCTYPE svg PUBLIC "-//W3C//DTD SVG 1.1//EN"
 "http://www.w3.org/Graphics/SVG/1.1/DTD/svg11.dtd">
<!-- Generated by graphviz version 2.40.1 (20161225.0304)
 -->
<!-- Title: JesdSyncOut Pages: 1 -->
<svg width="500pt" height="294pt"
 viewBox="0.00 0.00 500.00 294.00" xmlns="http://www.w3.org/2000/svg" xmlns:xlink="http://www.w3.org/1999/xlink">
<g id="graph0" class="graph" transform="scale(1 1) rotate(0) translate(4 290)">
<title>JesdSyncOut</title>
<polygon fill="#ffffff" stroke="transparent" points="-4,4 -4,-290 496,-290 496,4 -4,4"/>
<!-- Node0 -->
<g id="node1" class="node">
<title>Node0</title>
<polygon fill="#bfbfbf" stroke="#000000" points="0,-133.5 0,-152.5 77,-152.5 77,-133.5 0,-133.5"/>
<text text-anchor="middle" x="38.5" y="-140.5" font-family="Helvetica,sans-Serif" font-size="10.00" fill="#000000">JesdSyncOut</text>
</g>
<!-- Node1 -->
<g id="node2" class="node">
<title>Node1</title>
<g id="a_node2"><a xlink:href="classAmcCryoCore.html" target="_top" xlink:title="AmcCryoCore">
<polygon fill="#ffffff" stroke="#000000" points="164,-266.5 164,-285.5 247,-285.5 247,-266.5 164,-266.5"/>
<text text-anchor="middle" x="205.5" y="-273.5" font-family="Helvetica,sans-Serif" font-size="10.00" fill="#000000">AmcCryoCore</text>
</a>
</g>
</g>
<!-- Node0&#45;&gt;Node1 -->
<g id="edge1" class="edge">
<title>Node0&#45;&gt;Node1</title>
<path fill="none" stroke="#191970" d="M45.58,-162.2936C56.1151,-188.1522 78.4632,-233.5101 113,-257 127.776,-267.0498 146.7386,-271.9861 163.644,-274.3414"/>
<polygon fill="#191970" stroke="#191970" points="48.784,-160.8755 41.8973,-152.8241 42.26,-163.4127 48.784,-160.8755"/>
</g>
<!-- Node3 -->
<g id="node4" class="node">
<title>Node3</title>
<g id="a_node4"><a xlink:href="classAmcCryoDemoCore.html" target="_top" xlink:title="AmcCryoDemoCore">
<polygon fill="#ffffff" stroke="#000000" points="149,-228.5 149,-247.5 262,-247.5 262,-228.5 149,-228.5"/>
<text text-anchor="middle" x="205.5" y="-235.5" font-family="Helvetica,sans-Serif" font-size="10.00" fill="#000000">AmcCryoDemoCore</text>
</a>
</g>
</g>
<!-- Node0&#45;&gt;Node3 -->
<g id="edge3" class="edge">
<title>Node0&#45;&gt;Node3</title>
<path fill="none" stroke="#191970" d="M51.0979,-161.0479C64.4034,-178.672 87.0268,-204.8453 113,-219 123.9405,-224.9623 136.5375,-229.059 148.8433,-231.8724"/>
<polygon fill="#191970" stroke="#191970" points="53.7427,-158.7347 45.0208,-152.7198 48.0881,-162.8609 53.7427,-158.7347"/>
</g>
<!-- Node5 -->
<g id="node6" class="node">
<title>Node5</title>
<g id="a_node6"><a xlink:href="classAmcGenericAdcDacCore.html" target="_top" xlink:title="AmcGenericAdcDacCore">
<polygon fill="#ffffff" stroke="#000000" points="138,-190.5 138,-209.5 273,-209.5 273,-190.5 138,-190.5"/>
<text text-anchor="middle" x="205.5" y="-197.5" font-family="Helvetica,sans-Serif" font-size="10.00" fill="#000000">AmcGenericAdcDacCore</text>
</a>
</g>
</g>
<!-- Node0&#45;&gt;Node5 -->
<g id="edge5" class="edge">
<title>Node0&#45;&gt;Node5</title>
<path fill="none" stroke="#191970" d="M63.2878,-157.7755C77.4363,-165.6578 95.744,-174.9516 113,-181 123.83,-184.796 135.6534,-187.9367 147.1172,-190.4966"/>
<polygon fill="#191970" stroke="#191970" points="64.6412,-154.5181 54.2212,-152.6013 61.1716,-160.5977 64.6412,-154.5181"/>
</g>
<!-- Node7 -->
<g id="node8" class="node">
<title>Node7</title>
<g id="a_node8"><a xlink:href="classAmcMicrowaveMuxCore.html" target="_top" xlink:title="AmcMicrowaveMuxCore">
<polygon fill="#ffffff" stroke="#000000" points="138.5,-152.5 138.5,-171.5 272.5,-171.5 272.5,-152.5 138.5,-152.5"/>
<text text-anchor="middle" x="205.5" y="-159.5" font-family="Helvetica,sans-Serif" font-size="10.00" fill="#000000">AmcMicrowaveMuxCore</text>
</a>
</g>
</g>
<!-- Node0&#45;&gt;Node7 -->
<g id="edge7" class="edge">
<title>Node0&#45;&gt;Node7</title>
<path fill="none" stroke="#191970" d="M87.3532,-148.5582C103.2471,-150.3664 121.1768,-152.4063 138.1763,-154.3404"/>
<polygon fill="#191970" stroke="#191970" points="87.5645,-145.0597 77.2329,-147.4067 86.7731,-152.0148 87.5645,-145.0597"/>
</g>
<!-- Node9 -->
<g id="node10" class="node">
<title>Node9</title>
<g id="a_node10"><a xlink:href="classAmcMrLlrfDownConvertCore.html" target="_top" xlink:title="AmcMrLlrfDownConvertCore">
<polygon fill="#ffffff" stroke="#000000" points="128,-114.5 128,-133.5 283,-133.5 283,-114.5 128,-114.5"/>
<text text-anchor="middle" x="205.5" y="-121.5" font-family="Helvetica,sans-Serif" font-size="10.00" fill="#000000">AmcMrLlrfDownConvertCore</text>
</a>
</g>
</g>
<!-- Node0&#45;&gt;Node9 -->
<g id="edge9" class="edge">
<title>Node0&#45;&gt;Node9</title>
<path fill="none" stroke="#191970" d="M87.5272,-137.4221C100.18,-135.9825 114.1138,-134.3972 127.8363,-132.836"/>
<polygon fill="#191970" stroke="#191970" points="86.7731,-133.9852 77.2329,-138.5933 87.5645,-140.9403 86.7731,-133.9852"/>
</g>
<!-- Node10 -->
<g id="node11" class="node">
<title>Node10</title>
<g id="a_node11"><a xlink:href="classAmcMrLlrfGen2UpConvertMapping.html" target="_top" xlink:title="AmcMrLlrfGen2UpConvertMapping">
<polygon fill="#ffffff" stroke="#000000" points="113,-76.5 113,-95.5 298,-95.5 298,-76.5 113,-76.5"/>
<text text-anchor="middle" x="205.5" y="-83.5" font-family="Helvetica,sans-Serif" font-size="10.00" fill="#000000">AmcMrLlrfGen2UpConvertMapping</text>
</a>
</g>
</g>
<!-- Node0&#45;&gt;Node10 -->
<g id="edge10" class="edge">
<title>Node0&#45;&gt;Node10</title>
<path fill="none" stroke="#191970" d="M63.2878,-128.2245C77.4363,-120.3422 95.744,-111.0484 113,-105 123.83,-101.204 135.6534,-98.0633 147.1172,-95.5034"/>
<polygon fill="#191970" stroke="#191970" points="61.1716,-125.4023 54.2212,-133.3987 64.6412,-131.4819 61.1716,-125.4023"/>
</g>
<!-- Node12 -->
<g id="node13" class="node">
<title>Node12</title>
<g id="a_node13"><a xlink:href="classAmcMrLlrfUpConvertMapping.html" target="_top" xlink:title="AmcMrLlrfUpConvertMapping">
<polygon fill="#ffffff" stroke="#000000" points="126,-38.5 126,-57.5 285,-57.5 285,-38.5 126,-38.5"/>
<text text-anchor="middle" x="205.5" y="-45.5" font-family="Helvetica,sans-Serif" font-size="10.00" fill="#000000">AmcMrLlrfUpConvertMapping</text>
</a>
</g>
</g>
<!-- Node0&#45;&gt;Node12 -->
<g id="edge12" class="edge">
<title>Node0&#45;&gt;Node12</title>
<path fill="none" stroke="#191970" d="M51.0979,-124.9521C64.4034,-107.328 87.0268,-81.1547 113,-67 120.0537,-63.1559 127.7961,-60.0873 135.705,-57.6381"/>
<polygon fill="#191970" stroke="#191970" points="48.0881,-123.1391 45.0208,-133.2802 53.7427,-127.2653 48.0881,-123.1391"/>
</g>
<!-- Node14 -->
<g id="node15" class="node">
<title>Node14</title>
<g id="a_node15"><a xlink:href="classAmcStriplineBpmCore.html" target="_top" xlink:title="AmcStriplineBpmCore">
<polygon fill="#ffffff" stroke="#000000" points="143.5,-.5 143.5,-19.5 267.5,-19.5 267.5,-.5 143.5,-.5"/>
<text text-anchor="middle" x="205.5" y="-7.5" font-family="Helvetica,sans-Serif" font-size="10.00" fill="#000000">AmcStriplineBpmCore</text>
</a>
</g>
</g>
<!-- Node0&#45;&gt;Node14 -->
<g id="edge14" class="edge">
<title>Node0&#45;&gt;Node14</title>
<path fill="none" stroke="#191970" d="M45.58,-123.7064C56.1151,-97.8478 78.4632,-52.4899 113,-29 121.947,-22.9148 132.4289,-18.7044 143.0596,-15.8066"/>
<polygon fill="#191970" stroke="#191970" points="42.26,-122.5873 41.8973,-133.1759 48.784,-125.1245 42.26,-122.5873"/>
</g>
<!-- Node2 -->
<g id="node3" class="node">
<title>Node2</title>
<g id="a_node3"><a xlink:href="classAmcCryoDualCore.html" target="_top" xlink:title="AmcCryoDualCore">
<polygon fill="#ffffff" stroke="#000000" points="360,-266.5 360,-285.5 466,-285.5 466,-266.5 360,-266.5"/>
<text text-anchor="middle" x="413" y="-273.5" font-family="Helvetica,sans-Serif" font-size="10.00" fill="#000000">AmcCryoDualCore</text>
</a>
</g>
</g>
<!-- Node1&#45;&gt;Node2 -->
<g id="edge2" class="edge">
<title>Node1&#45;&gt;Node2</title>
<path fill="none" stroke="#191970" d="M257.7453,-276C288.9981,-276 328.6056,-276 359.9928,-276"/>
<polygon fill="#191970" stroke="#191970" points="257.4908,-272.5001 247.4907,-276 257.4907,-279.5001 257.4908,-272.5001"/>
</g>
<!-- Node4 -->
<g id="node5" class="node">
<title>Node4</title>
<g id="a_node5"><a xlink:href="classAmcCryoDemoDualCore.html" target="_top" xlink:title="AmcCryoDemoDualCore">
<polygon fill="#ffffff" stroke="#000000" points="345.5,-228.5 345.5,-247.5 480.5,-247.5 480.5,-228.5 345.5,-228.5"/>
<text text-anchor="middle" x="413" y="-235.5" font-family="Helvetica,sans-Serif" font-size="10.00" fill="#000000">AmcCryoDemoDualCore</text>
</a>
</g>
</g>
<!-- Node3&#45;&gt;Node4 -->
<g id="edge4" class="edge">
<title>Node3&#45;&gt;Node4</title>
<path fill="none" stroke="#191970" d="M272.3556,-238C295.6958,-238 321.9002,-238 345.308,-238"/>
<polygon fill="#191970" stroke="#191970" points="272.2003,-234.5001 262.2003,-238 272.2003,-241.5001 272.2003,-234.5001"/>
</g>
<!-- Node6 -->
<g id="node7" class="node">
<title>Node6</title>
<g id="a_node7"><a xlink:href="classAmcGenericAdcDacDualCore.html" target="_top" xlink:title="AmcGenericAdcDacDualCore">
<polygon fill="#ffffff" stroke="#000000" points="334,-190.5 334,-209.5 492,-209.5 492,-190.5 334,-190.5"/>
<text text-anchor="middle" x="413" y="-197.5" font-family="Helvetica,sans-Serif" font-size="10.00" fill="#000000">AmcGenericAdcDacDualCore</text>
</a>
</g>
</g>
<!-- Node5&#45;&gt;Node6 -->
<g id="edge6" class="edge">
<title>Node5&#45;&gt;Node6</title>
<path fill="none" stroke="#191970" d="M283.3111,-200C299.8417,-200 317.311,-200 333.8895,-200"/>
<polygon fill="#191970" stroke="#191970" points="283.1562,-196.5001 273.1561,-200 283.1561,-203.5001 283.1562,-196.5001"/>
</g>
<!-- Node8 -->
<g id="node9" class="node">
<title>Node8</title>
<g id="a_node9"><a xlink:href="classAmcMicrowaveMuxDualCore.html" target="_top" xlink:title="AmcMicrowaveMuxDualCore">
<polygon fill="#ffffff" stroke="#000000" points="335,-152.5 335,-171.5 491,-171.5 491,-152.5 335,-152.5"/>
<text text-anchor="middle" x="413" y="-159.5" font-family="Helvetica,sans-Serif" font-size="10.00" fill="#000000">AmcMicrowaveMuxDualCore</text>
</a>
</g>
</g>
<!-- Node7&#45;&gt;Node8 -->
<g id="edge8" class="edge">
<title>Node7&#45;&gt;Node8</title>
<path fill="none" stroke="#191970" d="M283.0049,-162C299.9801,-162 317.9587,-162 334.955,-162"/>
<polygon fill="#191970" stroke="#191970" points="282.5828,-158.5001 272.5827,-162 282.5827,-165.5001 282.5828,-158.5001"/>
</g>
<!-- Node11 -->
<g id="node12" class="node">
<title>Node11</title>
<g id="a_node12"><a xlink:href="classAmcMrLlrfGen2UpConvert.html" target="_top" xlink:title="AmcMrLlrfGen2UpConvert">
<polygon fill="#ffffff" stroke="#000000" points="341.5,-76.5 341.5,-95.5 484.5,-95.5 484.5,-76.5 341.5,-76.5"/>
<text text-anchor="middle" x="413" y="-83.5" font-family="Helvetica,sans-Serif" font-size="10.00" fill="#000000">AmcMrLlrfGen2UpConvert</text>
</a>
</g>
</g>
<!-- Node10&#45;&gt;Node11 -->
<g id="edge11" class="edge">
<title>Node10&#45;&gt;Node11</title>
<path fill="none" stroke="#191970" d="M308.2396,-86C319.385,-86 330.5458,-86 341.2077,-86"/>
<polygon fill="#191970" stroke="#191970" points="308.0233,-82.5001 298.0232,-86 308.0232,-89.5001 308.0233,-82.5001"/>
</g>
<!-- Node13 -->
<g id="node14" class="node">
<title>Node13</title>
<g id="a_node14"><a xlink:href="classAmcMrLlrfUpConvertCore.html" target="_top" xlink:title="AmcMrLlrfUpConvertCore">
<polygon fill="#ffffff" stroke="#000000" points="343,-38.5 343,-57.5 483,-57.5 483,-38.5 343,-38.5"/>
<text text-anchor="middle" x="413" y="-45.5" font-family="Helvetica,sans-Serif" font-size="10.00" fill="#000000">AmcMrLlrfUpConvertCore</text>
</a>
</g>
</g>
<!-- Node12&#45;&gt;Node13 -->
<g id="edge13" class="edge">
<title>Node12&#45;&gt;Node13</title>
<path fill="none" stroke="#191970" d="M295.4531,-48C311.2795,-48 327.5419,-48 342.7319,-48"/>
<polygon fill="#191970" stroke="#191970" points="295.1315,-44.5001 285.1315,-48 295.1314,-51.5001 295.1315,-44.5001"/>
</g>
<!-- Node15 -->
<g id="node16" class="node">
<title>Node15</title>
<g id="a_node16"><a xlink:href="classAmcStriplineBpmDualCore.html" target="_top" xlink:title="AmcStriplineBpmDualCore">
<polygon fill="#ffffff" stroke="#000000" points="340,-.5 340,-19.5 486,-19.5 486,-.5 340,-.5"/>
<text text-anchor="middle" x="413" y="-7.5" font-family="Helvetica,sans-Serif" font-size="10.00" fill="#000000">AmcStriplineBpmDualCore</text>
</a>
</g>
</g>
<!-- Node14&#45;&gt;Node15 -->
<g id="edge15" class="edge">
<title>Node14&#45;&gt;Node15</title>
<path fill="none" stroke="#191970" d="M277.7733,-10C297.8621,-10 319.6899,-10 339.8296,-10"/>
<polygon fill="#191970" stroke="#191970" points="277.7569,-6.5001 267.7568,-10 277.7568,-13.5001 277.7569,-6.5001"/>
</g>
</g>
</svg>
