<?xml version="1.0" encoding="UTF-8" standalone="no"?>
<!DOCTYPE svg PUBLIC "-//W3C//DTD SVG 1.1//EN"
 "http://www.w3.org/Graphics/SVG/1.1/DTD/svg11.dtd">
<!-- Generated by graphviz version 2.40.1 (20161225.0304)
 -->
<!-- Title: AmcCarrierCoreFsbl Pages: 1 -->
<svg width="741pt" height="370pt"
 viewBox="0.00 0.00 741.00 370.00" xmlns="http://www.w3.org/2000/svg" xmlns:xlink="http://www.w3.org/1999/xlink">
<g id="graph0" class="graph" transform="scale(1 1) rotate(0) translate(4 366)">
<title>AmcCarrierCoreFsbl</title>
<polygon fill="#ffffff" stroke="transparent" points="-4,4 -4,-366 737,-366 737,4 -4,4"/>
<!-- Node0 -->
<g id="node1" class="node">
<title>Node0</title>
<polygon fill="#bfbfbf" stroke="#000000" points="620,-228.5 620,-247.5 733,-247.5 733,-228.5 620,-228.5"/>
<text text-anchor="middle" x="676.5" y="-235.5" font-family="Helvetica,sans-Serif" font-size="10.00" fill="#000000">AmcCarrierCoreFsbl</text>
</g>
<!-- Node1 -->
<g id="node2" class="node">
<title>Node1</title>
<g id="a_node2"><a xlink:href="classAmcCarrierSysReg.html" target="_top" xlink:title="AmcCarrierSysReg">
<polygon fill="#ffffff" stroke="#000000" points="477,-304.5 477,-323.5 584,-323.5 584,-304.5 477,-304.5"/>
<text text-anchor="middle" x="530.5" y="-311.5" font-family="Helvetica,sans-Serif" font-size="10.00" fill="#000000">AmcCarrierSysReg</text>
</a>
</g>
</g>
<!-- Node1&#45;&gt;Node0 -->
<g id="edge1" class="edge">
<title>Node1&#45;&gt;Node0</title>
<path fill="none" stroke="#191970" d="M557.8874,-299.7435C587.2046,-284.4826 632.8986,-260.6966 658.1591,-247.5473"/>
<polygon fill="#191970" stroke="#191970" points="556.2451,-296.6526 548.991,-304.3745 559.4773,-302.8617 556.2451,-296.6526"/>
</g>
<!-- Node2 -->
<g id="node3" class="node">
<title>Node2</title>
<g id="a_node3"><a xlink:href="classAmcCarrierSysMon.html" target="_top" xlink:title="AmcCarrierSysMon">
<polygon fill="#ffffff" stroke="#000000" points="330,-342.5 330,-361.5 439,-361.5 439,-342.5 330,-342.5"/>
<text text-anchor="middle" x="384.5" y="-349.5" font-family="Helvetica,sans-Serif" font-size="10.00" fill="#000000">AmcCarrierSysMon</text>
</a>
</g>
</g>
<!-- Node2&#45;&gt;Node1 -->
<g id="edge2" class="edge">
<title>Node2&#45;&gt;Node1</title>
<path fill="none" stroke="#191970" d="M431.036,-339.8879C451.3696,-334.5956 474.8713,-328.4787 493.923,-323.5201"/>
<polygon fill="#191970" stroke="#191970" points="430.1379,-336.5049 421.342,-342.411 431.9012,-343.2793 430.1379,-336.5049"/>
</g>
<!-- Node3 -->
<g id="node4" class="node">
<title>Node3</title>
<g id="a_node4"><a xlink:href="classAmcCarrierBsi.html" target="_top" xlink:title="AmcCarrierBsi">
<polygon fill="#ffffff" stroke="#000000" points="341.5,-304.5 341.5,-323.5 427.5,-323.5 427.5,-304.5 341.5,-304.5"/>
<text text-anchor="middle" x="384.5" y="-311.5" font-family="Helvetica,sans-Serif" font-size="10.00" fill="#000000">AmcCarrierBsi</text>
</a>
</g>
</g>
<!-- Node3&#45;&gt;Node1 -->
<g id="edge3" class="edge">
<title>Node3&#45;&gt;Node1</title>
<path fill="none" stroke="#191970" d="M437.5663,-314C450.378,-314 464.0768,-314 476.9123,-314"/>
<polygon fill="#191970" stroke="#191970" points="437.5152,-310.5001 427.5152,-314 437.5151,-317.5001 437.5152,-310.5001"/>
</g>
<!-- Node4 -->
<g id="node5" class="node">
<title>Node4</title>
<g id="a_node5"><a xlink:href="classAppMps.html" target="_top" xlink:title="AppMps">
<polygon fill="#ffffff" stroke="#000000" points="503,-228.5 503,-247.5 558,-247.5 558,-228.5 503,-228.5"/>
<text text-anchor="middle" x="530.5" y="-235.5" font-family="Helvetica,sans-Serif" font-size="10.00" fill="#000000">AppMps</text>
</a>
</g>
</g>
<!-- Node4&#45;&gt;Node0 -->
<g id="edge4" class="edge">
<title>Node4&#45;&gt;Node0</title>
<path fill="none" stroke="#191970" d="M568.6225,-238C584.2395,-238 602.6405,-238 619.7799,-238"/>
<polygon fill="#191970" stroke="#191970" points="568.3052,-234.5001 558.3051,-238 568.3051,-241.5001 568.3052,-234.5001"/>
</g>
<!-- Node5 -->
<g id="node6" class="node">
<title>Node5</title>
<g id="a_node6"><a xlink:href="classAppMpsClk.html" target="_top" xlink:title="AppMpsClk">
<polygon fill="#ffffff" stroke="#000000" points="349,-266.5 349,-285.5 420,-285.5 420,-266.5 349,-266.5"/>
<text text-anchor="middle" x="384.5" y="-273.5" font-family="Helvetica,sans-Serif" font-size="10.00" fill="#000000">AppMpsClk</text>
</a>
</g>
</g>
<!-- Node5&#45;&gt;Node4 -->
<g id="edge5" class="edge">
<title>Node5&#45;&gt;Node4</title>
<path fill="none" stroke="#191970" d="M430.1285,-264.1241C453.9957,-257.9121 482.4276,-250.512 502.9273,-245.1765"/>
<polygon fill="#191970" stroke="#191970" points="429.0116,-260.7981 420.2156,-266.7042 430.7748,-267.5724 429.0116,-260.7981"/>
</g>
<!-- Node6 -->
<g id="node7" class="node">
<title>Node6</title>
<g id="a_node7"><a xlink:href="classAppMpsEncoder.html" target="_top" xlink:title="AppMpsEncoder">
<polygon fill="#ffffff" stroke="#000000" points="337.5,-228.5 337.5,-247.5 431.5,-247.5 431.5,-228.5 337.5,-228.5"/>
<text text-anchor="middle" x="384.5" y="-235.5" font-family="Helvetica,sans-Serif" font-size="10.00" fill="#000000">AppMpsEncoder</text>
</a>
</g>
</g>
<!-- Node6&#45;&gt;Node4 -->
<g id="edge6" class="edge">
<title>Node6&#45;&gt;Node4</title>
<path fill="none" stroke="#191970" d="M442.0156,-238C462.9751,-238 485.7197,-238 502.9004,-238"/>
<polygon fill="#191970" stroke="#191970" points="441.9021,-234.5001 431.902,-238 441.902,-241.5001 441.9021,-234.5001"/>
</g>
<!-- Node7 -->
<g id="node8" class="node">
<title>Node7</title>
<g id="a_node8"><a xlink:href="classAppMpsReg.html" target="_top" xlink:title="AppMpsReg">
<polygon fill="#ffffff" stroke="#000000" points="179.5,-266.5 179.5,-285.5 252.5,-285.5 252.5,-266.5 179.5,-266.5"/>
<text text-anchor="middle" x="216" y="-273.5" font-family="Helvetica,sans-Serif" font-size="10.00" fill="#000000">AppMpsReg</text>
</a>
</g>
</g>
<!-- Node7&#45;&gt;Node6 -->
<g id="edge7" class="edge">
<title>Node7&#45;&gt;Node6</title>
<path fill="none" stroke="#191970" d="M262.5409,-265.5041C287.5265,-259.8694 318.0871,-252.9774 342.3658,-247.5021"/>
<polygon fill="#191970" stroke="#191970" points="261.547,-262.1403 252.562,-267.7546 263.087,-268.9688 261.547,-262.1403"/>
</g>
<!-- Node8 -->
<g id="node9" class="node">
<title>Node8</title>
<g id="a_node9"><a xlink:href="classAppMpsRegBase.html" target="_top" xlink:title="AppMpsRegBase">
<polygon fill="#ffffff" stroke="#000000" points="3.5,-285.5 3.5,-304.5 100.5,-304.5 100.5,-285.5 3.5,-285.5"/>
<text text-anchor="middle" x="52" y="-292.5" font-family="Helvetica,sans-Serif" font-size="10.00" fill="#000000">AppMpsRegBase</text>
</a>
</g>
</g>
<!-- Node8&#45;&gt;Node7 -->
<g id="edge8" class="edge">
<title>Node8&#45;&gt;Node7</title>
<path fill="none" stroke="#191970" d="M110.7361,-288.1952C133.6541,-285.5401 159.2152,-282.5787 179.4097,-280.2391"/>
<polygon fill="#191970" stroke="#191970" points="110.2921,-284.7231 100.7614,-289.3508 111.0978,-291.6766 110.2921,-284.7231"/>
</g>
<!-- Node9 -->
<g id="node10" class="node">
<title>Node9</title>
<g id="a_node10"><a xlink:href="classAppMpsRegAppCh.html" target="_top" xlink:title="AppMpsRegAppCh">
<polygon fill="#ffffff" stroke="#000000" points="0,-247.5 0,-266.5 104,-266.5 104,-247.5 0,-247.5"/>
<text text-anchor="middle" x="52" y="-254.5" font-family="Helvetica,sans-Serif" font-size="10.00" fill="#000000">AppMpsRegAppCh</text>
</a>
</g>
</g>
<!-- Node9&#45;&gt;Node7 -->
<g id="edge9" class="edge">
<title>Node9&#45;&gt;Node7</title>
<path fill="none" stroke="#191970" d="M114.2808,-264.2155C136.2749,-266.7636 160.2811,-269.5448 179.4463,-271.7651"/>
<polygon fill="#191970" stroke="#191970" points="114.6779,-260.7381 104.3415,-263.064 113.8723,-267.6916 114.6779,-260.7381"/>
</g>
<!-- Node10 -->
<g id="node11" class="node">
<title>Node10</title>
<g id="a_node11"><a xlink:href="classAppMpsSelect.html" target="_top" xlink:title="AppMpsSelect">
<polygon fill="#ffffff" stroke="#000000" points="173.5,-228.5 173.5,-247.5 258.5,-247.5 258.5,-228.5 173.5,-228.5"/>
<text text-anchor="middle" x="216" y="-235.5" font-family="Helvetica,sans-Serif" font-size="10.00" fill="#000000">AppMpsSelect</text>
</a>
</g>
</g>
<!-- Node10&#45;&gt;Node6 -->
<g id="edge10" class="edge">
<title>Node10&#45;&gt;Node6</title>
<path fill="none" stroke="#191970" d="M268.6661,-238C290.6125,-238 315.902,-238 337.2412,-238"/>
<polygon fill="#191970" stroke="#191970" points="268.5197,-234.5001 258.5197,-238 268.5196,-241.5001 268.5197,-234.5001"/>
</g>
<!-- Node11 -->
<g id="node12" class="node">
<title>Node11</title>
<g id="a_node12"><a xlink:href="classMpsMsgCore.html" target="_top" xlink:title="MpsMsgCore">
<polygon fill="#ffffff" stroke="#000000" points="177,-190.5 177,-209.5 255,-209.5 255,-190.5 177,-190.5"/>
<text text-anchor="middle" x="216" y="-197.5" font-family="Helvetica,sans-Serif" font-size="10.00" fill="#000000">MpsMsgCore</text>
</a>
</g>
</g>
<!-- Node11&#45;&gt;Node6 -->
<g id="edge11" class="edge">
<title>Node11&#45;&gt;Node6</title>
<path fill="none" stroke="#191970" d="M264.8782,-211.023C289.3174,-216.5345 318.6087,-223.1402 342.0891,-228.4355"/>
<polygon fill="#191970" stroke="#191970" points="265.6058,-207.5992 255.0808,-208.8135 264.0658,-214.4278 265.6058,-207.5992"/>
</g>
<!-- Node12 -->
<g id="node13" class="node">
<title>Node12</title>
<g id="a_node13"><a xlink:href="classAppMpsSalt.html" target="_top" xlink:title="AppMpsSalt">
<polygon fill="#ffffff" stroke="#000000" points="347.5,-190.5 347.5,-209.5 421.5,-209.5 421.5,-190.5 347.5,-190.5"/>
<text text-anchor="middle" x="384.5" y="-197.5" font-family="Helvetica,sans-Serif" font-size="10.00" fill="#000000">AppMpsSalt</text>
</a>
</g>
</g>
<!-- Node12&#45;&gt;Node4 -->
<g id="edge12" class="edge">
<title>Node12&#45;&gt;Node4</title>
<path fill="none" stroke="#191970" d="M431.1752,-212.1483C454.8079,-218.2993 482.6906,-225.5565 502.8883,-230.8134"/>
<polygon fill="#191970" stroke="#191970" points="431.9012,-208.7207 421.342,-209.589 430.1379,-215.4951 431.9012,-208.7207"/>
</g>
<!-- Node13 -->
<g id="node14" class="node">
<title>Node13</title>
<g id="a_node14"><a xlink:href="classAmcCarrierFsbl.html" target="_top" xlink:title="AmcCarrierFsbl">
<polygon fill="#ffffff" stroke="#000000" points="485,-95.5 485,-114.5 576,-114.5 576,-95.5 485,-95.5"/>
<text text-anchor="middle" x="530.5" y="-102.5" font-family="Helvetica,sans-Serif" font-size="10.00" fill="#000000">AmcCarrierFsbl</text>
</a>
</g>
</g>
<!-- Node13&#45;&gt;Node0 -->
<g id="edge13" class="edge">
<title>Node13&#45;&gt;Node0</title>
<path fill="none" stroke="#191970" d="M548.4361,-121.339C579.1233,-149.2938 640.7961,-205.4752 665.7013,-228.1628"/>
<polygon fill="#191970" stroke="#191970" points="550.7495,-118.712 541,-114.565 546.0355,-123.8867 550.7495,-118.712"/>
</g>
<!-- Node14 -->
<g id="node15" class="node">
<title>Node14</title>
<g id="a_node15"><a xlink:href="classAmcCarrierIbufGt.html" target="_top" xlink:title="AmcCarrierIbufGt">
<polygon fill="#ffffff" stroke="#000000" points="165.5,-133.5 165.5,-152.5 266.5,-152.5 266.5,-133.5 165.5,-133.5"/>
<text text-anchor="middle" x="216" y="-140.5" font-family="Helvetica,sans-Serif" font-size="10.00" fill="#000000">AmcCarrierIbufGt</text>
</a>
</g>
</g>
<!-- Node14&#45;&gt;Node13 -->
<g id="edge14" class="edge">
<title>Node14&#45;&gt;Node13</title>
<path fill="none" stroke="#191970" d="M276.6555,-149.499C322.3176,-152.8305 386.1967,-154.1524 441,-143 467.6321,-137.5804 496.1653,-123.9478 513.6748,-114.5761"/>
<polygon fill="#191970" stroke="#191970" points="276.8624,-146.0046 266.6196,-148.7131 276.3159,-152.9832 276.8624,-146.0046"/>
</g>
<!-- Node16 -->
<g id="node17" class="node">
<title>Node16</title>
<g id="a_node17"><a xlink:href="classAmcCarrierTiming.html" target="_top" xlink:title="AmcCarrierTiming">
<polygon fill="#ffffff" stroke="#000000" points="332,-114.5 332,-133.5 437,-133.5 437,-114.5 332,-114.5"/>
<text text-anchor="middle" x="384.5" y="-121.5" font-family="Helvetica,sans-Serif" font-size="10.00" fill="#000000">AmcCarrierTiming</text>
</a>
</g>
</g>
<!-- Node14&#45;&gt;Node16 -->
<g id="edge17" class="edge">
<title>Node14&#45;&gt;Node16</title>
<path fill="none" stroke="#191970" d="M276.6993,-136.1556C294.7751,-134.1173 314.4236,-131.9018 331.9345,-129.9273"/>
<polygon fill="#191970" stroke="#191970" points="276.1004,-132.7008 266.5556,-137.2994 276.8848,-139.6568 276.1004,-132.7008"/>
</g>
<!-- Node15 -->
<g id="node16" class="node">
<title>Node15</title>
<g id="a_node16"><a xlink:href="classAmcCarrierEthFsbl.html" target="_top" xlink:title="AmcCarrierEthFsbl">
<polygon fill="#ffffff" stroke="#000000" points="331,-76.5 331,-95.5 438,-95.5 438,-76.5 331,-76.5"/>
<text text-anchor="middle" x="384.5" y="-83.5" font-family="Helvetica,sans-Serif" font-size="10.00" fill="#000000">AmcCarrierEthFsbl</text>
</a>
</g>
</g>
<!-- Node15&#45;&gt;Node13 -->
<g id="edge15" class="edge">
<title>Node15&#45;&gt;Node13</title>
<path fill="none" stroke="#191970" d="M448.2223,-94.2926C460.4852,-95.8885 473.1031,-97.5305 484.6615,-99.0347"/>
<polygon fill="#191970" stroke="#191970" points="448.4041,-90.7868 438.036,-92.967 447.5007,-97.7283 448.4041,-90.7868"/>
</g>
<!-- Node16&#45;&gt;Node13 -->
<g id="edge16" class="edge">
<title>Node16&#45;&gt;Node13</title>
<path fill="none" stroke="#191970" d="M447.1781,-115.8433C459.7564,-114.2064 472.752,-112.5152 484.6302,-110.9694"/>
<polygon fill="#191970" stroke="#191970" points="446.674,-112.3793 437.2094,-117.1406 447.5774,-119.3207 446.674,-112.3793"/>
</g>
<!-- Node17 -->
<g id="node18" class="node">
<title>Node17</title>
<g id="a_node18"><a xlink:href="classAmcCarrierBsa.html" target="_top" xlink:title="AmcCarrierBsa">
<polygon fill="#ffffff" stroke="#000000" points="340,-38.5 340,-57.5 429,-57.5 429,-38.5 340,-38.5"/>
<text text-anchor="middle" x="384.5" y="-45.5" font-family="Helvetica,sans-Serif" font-size="10.00" fill="#000000">AmcCarrierBsa</text>
</a>
</g>
</g>
<!-- Node17&#45;&gt;Node13 -->
<g id="edge18" class="edge">
<title>Node17&#45;&gt;Node13</title>
<path fill="none" stroke="#191970" d="M423.8428,-60.7954C429.6224,-62.8009 435.484,-64.9051 441,-67 464.6714,-75.9901 491.3303,-87.4912 509.3487,-95.4742"/>
<polygon fill="#191970" stroke="#191970" points="424.8636,-57.4457 414.2691,-57.5326 422.6054,-64.0714 424.8636,-57.4457"/>
</g>
<!-- Node18 -->
<g id="node19" class="node">
<title>Node18</title>
<g id="a_node19"><a xlink:href="classBsaWaveformEngine.html" target="_top" xlink:title="BsaWaveformEngine(2)">
<polygon fill="#ffffff" stroke="#000000" points="150.5,-76.5 150.5,-95.5 281.5,-95.5 281.5,-76.5 150.5,-76.5"/>
<text text-anchor="middle" x="216" y="-83.5" font-family="Helvetica,sans-Serif" font-size="10.00" fill="#000000">BsaWaveformEngine(2)</text>
</a>
</g>
</g>
<!-- Node18&#45;&gt;Node17 -->
<g id="edge19" class="edge">
<title>Node18&#45;&gt;Node17</title>
<path fill="none" stroke="#191970" d="M268.4313,-74.1757C292.1868,-68.8184 319.8986,-62.5689 342.2861,-57.5201"/>
<polygon fill="#191970" stroke="#191970" points="267.5047,-70.7967 258.5197,-76.411 269.0447,-77.6252 267.5047,-70.7967"/>
</g>
<!-- Node19 -->
<g id="node20" class="node">
<title>Node19</title>
<g id="a_node20"><a xlink:href="classBsaBufferControl.html" target="_top" xlink:title="BsaBufferControl">
<polygon fill="#ffffff" stroke="#000000" points="166.5,-38.5 166.5,-57.5 265.5,-57.5 265.5,-38.5 166.5,-38.5"/>
<text text-anchor="middle" x="216" y="-45.5" font-family="Helvetica,sans-Serif" font-size="10.00" fill="#000000">BsaBufferControl</text>
</a>
</g>
</g>
<!-- Node19&#45;&gt;Node17 -->
<g id="edge20" class="edge">
<title>Node19&#45;&gt;Node17</title>
<path fill="none" stroke="#191970" d="M275.7869,-48C296.867,-48 320.1844,-48 339.8013,-48"/>
<polygon fill="#191970" stroke="#191970" points="275.6442,-44.5001 265.6442,-48 275.6442,-51.5001 275.6442,-44.5001"/>
</g>
<!-- Node20 -->
<g id="node21" class="node">
<title>Node20</title>
<g id="a_node21"><a xlink:href="classBsaAccumulator.html" target="_top" xlink:title="BsaAccumulator">
<polygon fill="#ffffff" stroke="#000000" points="4,-38.5 4,-57.5 100,-57.5 100,-38.5 4,-38.5"/>
<text text-anchor="middle" x="52" y="-45.5" font-family="Helvetica,sans-Serif" font-size="10.00" fill="#000000">BsaAccumulator</text>
</a>
</g>
</g>
<!-- Node20&#45;&gt;Node19 -->
<g id="edge21" class="edge">
<title>Node20&#45;&gt;Node19</title>
<path fill="none" stroke="#191970" d="M110.5465,-48C128.7968,-48 148.7394,-48 166.3217,-48"/>
<polygon fill="#191970" stroke="#191970" points="110.3184,-44.5001 100.3184,-48 110.3184,-51.5001 110.3184,-44.5001"/>
</g>
<!-- Node21 -->
<g id="node22" class="node">
<title>Node21</title>
<g id="a_node22"><a xlink:href="classBsaAxiInterconnectWrapper.html" target="_top" xlink:title="BsaAxiInterconnectWrapper">
<polygon fill="#ffffff" stroke="#000000" points="140,-.5 140,-19.5 292,-19.5 292,-.5 140,-.5"/>
<text text-anchor="middle" x="216" y="-7.5" font-family="Helvetica,sans-Serif" font-size="10.00" fill="#000000">BsaAxiInterconnectWrapper</text>
</a>
</g>
</g>
<!-- Node21&#45;&gt;Node17 -->
<g id="edge22" class="edge">
<title>Node21&#45;&gt;Node17</title>
<path fill="none" stroke="#191970" d="M268.4313,-21.8243C292.1868,-27.1816 319.8986,-33.4311 342.2861,-38.4799"/>
<polygon fill="#191970" stroke="#191970" points="269.0447,-18.3748 258.5197,-19.589 267.5047,-25.2033 269.0447,-18.3748"/>
</g>
<!-- Node22 -->
<g id="node23" class="node">
<title>Node22</title>
<g id="a_node23"><a xlink:href="classAmcCarrierDdrMem.html" target="_top" xlink:title="AmcCarrierDdrMem">
<polygon fill="#ffffff" stroke="#000000" points="328,-.5 328,-19.5 441,-19.5 441,-.5 328,-.5"/>
<text text-anchor="middle" x="384.5" y="-7.5" font-family="Helvetica,sans-Serif" font-size="10.00" fill="#000000">AmcCarrierDdrMem</text>
</a>
</g>
</g>
<!-- Node22&#45;&gt;Node13 -->
<g id="edge23" class="edge">
<title>Node22&#45;&gt;Node13</title>
<path fill="none" stroke="#191970" d="M429.2808,-23.2702C433.3334,-25.0015 437.3,-26.9099 441,-29 474.1897,-47.7486 506.6471,-79.6591 521.7326,-95.4988"/>
<polygon fill="#191970" stroke="#191970" points="430.3419,-19.9273 419.7538,-19.55 427.7957,-26.4478 430.3419,-19.9273"/>
</g>
</g>
</svg>
