<?xml version="1.0" encoding="UTF-8" standalone="no"?>
<!DOCTYPE svg PUBLIC "-//W3C//DTD SVG 1.1//EN"
 "http://www.w3.org/Graphics/SVG/1.1/DTD/svg11.dtd">
<!-- Generated by graphviz version 2.40.1 (20161225.0304)
 -->
<!-- Title: AmcCarrierSysReg Pages: 1 -->
<svg width="389pt" height="140pt"
 viewBox="0.00 0.00 389.00 140.00" xmlns="http://www.w3.org/2000/svg" xmlns:xlink="http://www.w3.org/1999/xlink">
<g id="graph0" class="graph" transform="scale(1 1) rotate(0) translate(4 136)">
<title>AmcCarrierSysReg</title>
<polygon fill="#ffffff" stroke="transparent" points="-4,4 -4,-136 385,-136 385,4 -4,4"/>
<!-- Node0 -->
<g id="node1" class="node">
<title>Node0</title>
<polygon fill="#bfbfbf" stroke="#000000" points="137,-56.5 137,-75.5 244,-75.5 244,-56.5 137,-56.5"/>
<text text-anchor="middle" x="190.5" y="-63.5" font-family="Helvetica,sans-Serif" font-size="10.00" fill="#000000">AmcCarrierSysReg</text>
</g>
<!-- Node3 -->
<g id="node4" class="node">
<title>Node3</title>
<g id="a_node4"><a xlink:href="classAmcCarrierCoreAdv.html" target="_top" xlink:title="AmcCarrierCoreAdv">
<polygon fill="#ffffff" stroke="#000000" points="0,-.5 0,-19.5 113,-19.5 113,-.5 0,-.5"/>
<text text-anchor="middle" x="56.5" y="-7.5" font-family="Helvetica,sans-Serif" font-size="10.00" fill="#000000">AmcCarrierCoreAdv</text>
</a>
</g>
</g>
<!-- Node0&#45;&gt;Node3 -->
<g id="edge3" class="edge">
<title>Node0&#45;&gt;Node3</title>
<path fill="none" stroke="#191970" d="M157.9172,-52.3833C133.5464,-42.1985 100.8358,-28.5284 79.2348,-19.5011"/>
<polygon fill="#191970" stroke="#191970" points="156.8883,-55.7466 167.4646,-56.3733 159.5875,-49.2879 156.8883,-55.7466"/>
</g>
<!-- Node4 -->
<g id="node5" class="node">
<title>Node4</title>
<g id="a_node5"><a xlink:href="classAmcCarrierCoreBase.html" target="_top" xlink:title="AmcCarrierCoreBase">
<polygon fill="#ffffff" stroke="#000000" points="131.5,-.5 131.5,-19.5 249.5,-19.5 249.5,-.5 131.5,-.5"/>
<text text-anchor="middle" x="190.5" y="-7.5" font-family="Helvetica,sans-Serif" font-size="10.00" fill="#000000">AmcCarrierCoreBase</text>
</a>
</g>
</g>
<!-- Node0&#45;&gt;Node4 -->
<g id="edge4" class="edge">
<title>Node0&#45;&gt;Node4</title>
<path fill="none" stroke="#191970" d="M190.5,-46.1575C190.5,-37.155 190.5,-26.9199 190.5,-19.6427"/>
<polygon fill="#191970" stroke="#191970" points="187.0001,-46.2455 190.5,-56.2455 194.0001,-46.2456 187.0001,-46.2455"/>
</g>
<!-- Node5 -->
<g id="node6" class="node">
<title>Node5</title>
<g id="a_node6"><a xlink:href="classAmcCarrierCoreFsbl.html" target="_top" xlink:title="AmcCarrierCoreFsbl">
<polygon fill="#ffffff" stroke="#000000" points="268,-.5 268,-19.5 381,-19.5 381,-.5 268,-.5"/>
<text text-anchor="middle" x="324.5" y="-7.5" font-family="Helvetica,sans-Serif" font-size="10.00" fill="#000000">AmcCarrierCoreFsbl</text>
</a>
</g>
</g>
<!-- Node0&#45;&gt;Node5 -->
<g id="edge5" class="edge">
<title>Node0&#45;&gt;Node5</title>
<path fill="none" stroke="#191970" d="M223.0828,-52.3833C247.4536,-42.1985 280.1642,-28.5284 301.7652,-19.5011"/>
<polygon fill="#191970" stroke="#191970" points="221.4125,-49.2879 213.5354,-56.3733 224.1117,-55.7466 221.4125,-49.2879"/>
</g>
<!-- Node1 -->
<g id="node2" class="node">
<title>Node1</title>
<g id="a_node2"><a xlink:href="classAmcCarrierSysMon.html" target="_top" xlink:title="AmcCarrierSysMon">
<polygon fill="#ffffff" stroke="#000000" points="78,-112.5 78,-131.5 187,-131.5 187,-112.5 78,-112.5"/>
<text text-anchor="middle" x="132.5" y="-119.5" font-family="Helvetica,sans-Serif" font-size="10.00" fill="#000000">AmcCarrierSysMon</text>
</a>
</g>
</g>
<!-- Node1&#45;&gt;Node0 -->
<g id="edge1" class="edge">
<title>Node1&#45;&gt;Node0</title>
<path fill="none" stroke="#191970" d="M150.0293,-105.0751C160.0083,-95.4402 172.1476,-83.7196 180.5129,-75.6427"/>
<polygon fill="#191970" stroke="#191970" points="147.3658,-102.7817 142.6028,-112.2455 152.228,-107.8175 147.3658,-102.7817"/>
</g>
<!-- Node2 -->
<g id="node3" class="node">
<title>Node2</title>
<g id="a_node3"><a xlink:href="classAmcCarrierBsi.html" target="_top" xlink:title="AmcCarrierBsi">
<polygon fill="#ffffff" stroke="#000000" points="205.5,-112.5 205.5,-131.5 291.5,-131.5 291.5,-112.5 205.5,-112.5"/>
<text text-anchor="middle" x="248.5" y="-119.5" font-family="Helvetica,sans-Serif" font-size="10.00" fill="#000000">AmcCarrierBsi</text>
</a>
</g>
</g>
<!-- Node2&#45;&gt;Node0 -->
<g id="edge2" class="edge">
<title>Node2&#45;&gt;Node0</title>
<path fill="none" stroke="#191970" d="M230.9707,-105.0751C220.9917,-95.4402 208.8524,-83.7196 200.4871,-75.6427"/>
<polygon fill="#191970" stroke="#191970" points="228.772,-107.8175 238.3972,-112.2455 233.6342,-102.7817 228.772,-107.8175"/>
</g>
</g>
</svg>
