<?xml version="1.0" encoding="UTF-8" standalone="no"?>
<!DOCTYPE svg PUBLIC "-//W3C//DTD SVG 1.1//EN"
 "http://www.w3.org/Graphics/SVG/1.1/DTD/svg11.dtd">
<!-- Generated by graphviz version 2.40.1 (20161225.0304)
 -->
<!-- Title: AmcCarrierCore Pages: 1 -->
<!--zoomable 256 -->
<svg id="main" version="1.1" xmlns="http://www.w3.org/2000/svg" xmlns:xlink="http://www.w3.org/1999/xlink" xml:space="preserve" onload="init(evt)">
<style type="text/css"><![CDATA[
.edge:hover path { stroke: red; }
.edge:hover polygon { stroke: red; fill: red; }
]]></style>
<script type="text/javascript"><![CDATA[
var edges = document.getElementsByTagName('g');
if (edges && edges.length) {
  for (var i=0;i<edges.length;i++) {
    if (edges[i].id.substr(0,4)=='edge') {
      edges[i].setAttribute('class','edge');
    }
  }
}
]]></script>
        <defs>
                <circle id="rim" cx="0" cy="0" r="7"/>
                <circle id="rim2" cx="0" cy="0" r="3.5"/>
                <g id="zoomPlus">
                        <use xlink:href="#rim" fill="#404040">
                                <set attributeName="fill" to="#808080" begin="zoomplus.mouseover" end="zoomplus.mouseout"/>
                        </use>
                        <path d="M-4,0h8M0,-4v8" fill="none" stroke="white" stroke-width="1.5" pointer-events="none"/>
                </g>
                <g id="zoomMin">
                        <use xlink:href="#rim" fill="#404040">
                                <set attributeName="fill" to="#808080" begin="zoomminus.mouseover" end="zoomminus.mouseout"/>
                        </use>
                        <path d="M-4,0h8" fill="none" stroke="white" stroke-width="1.5" pointer-events="none"/>
                </g>
                <g id="dirArrow">
                        <path fill="none" stroke="white" stroke-width="1.5" d="M0,-3.0v7 M-2.5,-0.5L0,-3.0L2.5,-0.5"/>
                </g>
               <g id="resetDef">
                       <use xlink:href="#rim2" fill="#404040">
                               <set attributeName="fill" to="#808080" begin="reset.mouseover" end="reset.mouseout"/>
                       </use>
               </g>
        </defs>

<script type="text/javascript">
var viewWidth = 614;
var viewHeight = 256;
var sectionId = 'dynsection-1';
</script>
<script xlink:href="svgpan.js"/>
<svg id="graph" class="graph">
<g id="viewport">
<title>AmcCarrierCore</title>
<polygon fill="#ffffff" stroke="transparent" points="-4,4 -4,-252 610,-252 610,4 -4,4"/>
<!-- Node18 -->
<g id="node1" class="node">
<title>Node18</title>
<polygon fill="#bfbfbf" stroke="#000000" points="512,-152.5 512,-171.5 606,-171.5 606,-152.5 512,-152.5"/>
<text text-anchor="middle" x="559" y="-159.5" font-family="Helvetica,sans-Serif" font-size="10.00" fill="#000000">AmcCarrierCore</text>
</g>
<!-- Node19 -->
<g id="node2" class="node">
<title>Node19</title>
<g id="a_node2"><a xlink:href="classAmcCarrierIbufGt.html" target="_top" xlink:title="AmcCarrierIbufGt">
<polygon fill="#ffffff" stroke="#000000" points="199,-228.5 199,-247.5 300,-247.5 300,-228.5 199,-228.5"/>
<text text-anchor="middle" x="249.5" y="-235.5" font-family="Helvetica,sans-Serif" font-size="10.00" fill="#000000">AmcCarrierIbufGt</text>
</a>
</g>
</g>
<!-- Node19&#45;&gt;Node18 -->
<g id="edge1" class="edge">
<title>Node19&#45;&gt;Node18</title>
<path fill="none" stroke="#191970" d="M310.3455,-241.2316C356.9935,-241.7493 422.2705,-238.1715 476,-219 505.3056,-208.5433 533.9852,-185.0708 548.7413,-171.7379"/>
<polygon fill="#191970" stroke="#191970" points="310.155,-237.7277 300.0942,-241.0488 310.0301,-244.7266 310.155,-237.7277"/>
</g>
<!-- Node27 -->
<g id="node10" class="node">
<title>Node27</title>
<g id="a_node10"><a xlink:href="classAmcCarrierTiming.html" target="_top" xlink:title="AmcCarrierTiming">
<polygon fill="#ffffff" stroke="#000000" points="367,-190.5 367,-209.5 472,-209.5 472,-190.5 367,-190.5"/>
<text text-anchor="middle" x="419.5" y="-197.5" font-family="Helvetica,sans-Serif" font-size="10.00" fill="#000000">AmcCarrierTiming</text>
</a>
</g>
</g>
<!-- Node19&#45;&gt;Node27 -->
<g id="edge10" class="edge">
<title>Node19&#45;&gt;Node27</title>
<path fill="none" stroke="#191970" d="M302.3981,-226.1757C326.365,-220.8184 354.3235,-214.5689 376.9103,-209.5201"/>
<polygon fill="#191970" stroke="#191970" points="301.3938,-222.8138 292.3982,-228.411 302.9209,-229.6452 301.3938,-222.8138"/>
</g>
<!-- Node20 -->
<g id="node3" class="node">
<title>Node20</title>
<g id="a_node3"><a xlink:href="classAmcCarrierEth.html" target="_top" xlink:title="AmcCarrierEth">
<polygon fill="#ffffff" stroke="#000000" points="376,-152.5 376,-171.5 463,-171.5 463,-152.5 376,-152.5"/>
<text text-anchor="middle" x="419.5" y="-159.5" font-family="Helvetica,sans-Serif" font-size="10.00" fill="#000000">AmcCarrierEth</text>
</a>
</g>
</g>
<!-- Node20&#45;&gt;Node18 -->
<g id="edge2" class="edge">
<title>Node20&#45;&gt;Node18</title>
<path fill="none" stroke="#191970" d="M473.5669,-162C486.0861,-162 499.3162,-162 511.5283,-162"/>
<polygon fill="#191970" stroke="#191970" points="473.256,-158.5001 463.2559,-162 473.2559,-165.5001 473.256,-158.5001"/>
</g>
<!-- Node21 -->
<g id="node4" class="node">
<title>Node21</title>
<g id="a_node4"><a xlink:href="classAmcCarrierXvcDebug.html" target="_top" xlink:title="AmcCarrierXvcDebug(2)">
<polygon fill="#ffffff" stroke="#000000" points="182.5,-190.5 182.5,-209.5 316.5,-209.5 316.5,-190.5 182.5,-190.5"/>
<text text-anchor="middle" x="249.5" y="-197.5" font-family="Helvetica,sans-Serif" font-size="10.00" fill="#000000">AmcCarrierXvcDebug(2)</text>
</a>
</g>
</g>
<!-- Node21&#45;&gt;Node20 -->
<g id="edge3" class="edge">
<title>Node21&#45;&gt;Node20</title>
<path fill="none" stroke="#191970" d="M302.3981,-188.1757C326.365,-182.8184 354.3235,-176.5689 376.9103,-171.5201"/>
<polygon fill="#191970" stroke="#191970" points="301.3938,-184.8138 292.3982,-190.411 302.9209,-191.6452 301.3938,-184.8138"/>
</g>
<!-- Node22 -->
<g id="node5" class="node">
<title>Node22</title>
<g id="a_node5"><a xlink:href="classUdpDebugBridge.html" target="_top" xlink:title="UdpDebugBridge">
<polygon fill="#ffffff" stroke="#000000" points="18.5,-190.5 18.5,-209.5 117.5,-209.5 117.5,-190.5 18.5,-190.5"/>
<text text-anchor="middle" x="68" y="-197.5" font-family="Helvetica,sans-Serif" font-size="10.00" fill="#000000">UdpDebugBridge</text>
</a>
</g>
</g>
<!-- Node22&#45;&gt;Node21 -->
<g id="edge4" class="edge">
<title>Node22&#45;&gt;Node21</title>
<path fill="none" stroke="#191970" d="M127.6594,-200C145.1345,-200 164.3591,-200 182.2707,-200"/>
<polygon fill="#191970" stroke="#191970" points="127.5957,-196.5001 117.5957,-200 127.5956,-203.5001 127.5957,-196.5001"/>
</g>
<!-- Node23 -->
<g id="node6" class="node">
<title>Node23</title>
<g id="a_node6"><a xlink:href="classAmcCarrierRssi.html" target="_top" xlink:title="AmcCarrierRssi(2)">
<polygon fill="#ffffff" stroke="#000000" points="197,-152.5 197,-171.5 302,-171.5 302,-152.5 197,-152.5"/>
<text text-anchor="middle" x="249.5" y="-159.5" font-family="Helvetica,sans-Serif" font-size="10.00" fill="#000000">AmcCarrierRssi(2)</text>
</a>
</g>
</g>
<!-- Node23&#45;&gt;Node20 -->
<g id="edge5" class="edge">
<title>Node23&#45;&gt;Node20</title>
<path fill="none" stroke="#191970" d="M312.513,-162C333.5677,-162 356.555,-162 375.807,-162"/>
<polygon fill="#191970" stroke="#191970" points="312.3572,-158.5001 302.3572,-162 312.3572,-165.5001 312.3572,-158.5001"/>
</g>
<!-- Node24 -->
<g id="node7" class="node">
<title>Node24</title>
<g id="a_node7"><a xlink:href="classAmcCarrierRssiObFifo.html" target="_top" xlink:title="AmcCarrierRssiObFifo(2)">
<polygon fill="#ffffff" stroke="#000000" points="0,-152.5 0,-171.5 136,-171.5 136,-152.5 0,-152.5"/>
<text text-anchor="middle" x="68" y="-159.5" font-family="Helvetica,sans-Serif" font-size="10.00" fill="#000000">AmcCarrierRssiObFifo(2)</text>
</a>
</g>
</g>
<!-- Node24&#45;&gt;Node23 -->
<g id="edge6" class="edge">
<title>Node24&#45;&gt;Node23</title>
<path fill="none" stroke="#191970" d="M146.1111,-162C163.2664,-162 181.0363,-162 196.9037,-162"/>
<polygon fill="#191970" stroke="#191970" points="146.1003,-158.5001 136.1003,-162 146.1003,-165.5001 146.1003,-158.5001"/>
</g>
<!-- Node25 -->
<g id="node8" class="node">
<title>Node25</title>
<g id="a_node8"><a xlink:href="classAmcCarrierRssiInterleave.html" target="_top" xlink:title="AmcCarrierRssiInterleave(2)">
<polygon fill="#ffffff" stroke="#000000" points="172,-114.5 172,-133.5 327,-133.5 327,-114.5 172,-114.5"/>
<text text-anchor="middle" x="249.5" y="-121.5" font-family="Helvetica,sans-Serif" font-size="10.00" fill="#000000">AmcCarrierRssiInterleave(2)</text>
</a>
</g>
</g>
<!-- Node25&#45;&gt;Node20 -->
<g id="edge7" class="edge">
<title>Node25&#45;&gt;Node20</title>
<path fill="none" stroke="#191970" d="M302.3981,-135.8243C326.365,-141.1816 354.3235,-147.4311 376.9103,-152.4799"/>
<polygon fill="#191970" stroke="#191970" points="302.9209,-132.3548 292.3982,-133.589 301.3938,-139.1862 302.9209,-132.3548"/>
</g>
<!-- Node26 -->
<g id="node9" class="node">
<title>Node26</title>
<g id="a_node9"><a xlink:href="classAmcCarrierRssiObFifo.html" target="_top" xlink:title="AmcCarrierRssiObFifo">
<polygon fill="#ffffff" stroke="#000000" points="7,-114.5 7,-133.5 129,-133.5 129,-114.5 7,-114.5"/>
<text text-anchor="middle" x="68" y="-121.5" font-family="Helvetica,sans-Serif" font-size="10.00" fill="#000000">AmcCarrierRssiObFifo</text>
</a>
</g>
</g>
<!-- Node26&#45;&gt;Node25 -->
<g id="edge8" class="edge">
<title>Node26&#45;&gt;Node25</title>
<path fill="none" stroke="#191970" d="M139.296,-124C149.9738,-124 161.0286,-124 171.8309,-124"/>
<polygon fill="#191970" stroke="#191970" points="139.1946,-120.5001 129.1946,-124 139.1946,-127.5001 139.1946,-120.5001"/>
</g>
<!-- Node27&#45;&gt;Node18 -->
<g id="edge9" class="edge">
<title>Node27&#45;&gt;Node18</title>
<path fill="none" stroke="#191970" d="M464.4564,-187.7538C483.6848,-182.516 505.8031,-176.4909 523.8095,-171.5859"/>
<polygon fill="#191970" stroke="#191970" points="463.4303,-184.4057 454.7017,-190.411 465.2701,-191.1596 463.4303,-184.4057"/>
</g>
<!-- Node28 -->
<g id="node11" class="node">
<title>Node28</title>
<g id="a_node11"><a xlink:href="classAmcCarrierBsa.html" target="_top" xlink:title="AmcCarrierBsa">
<polygon fill="#ffffff" stroke="#000000" points="375,-76.5 375,-95.5 464,-95.5 464,-76.5 375,-76.5"/>
<text text-anchor="middle" x="419.5" y="-83.5" font-family="Helvetica,sans-Serif" font-size="10.00" fill="#000000">AmcCarrierBsa</text>
</a>
</g>
</g>
<!-- Node28&#45;&gt;Node18 -->
<g id="edge11" class="edge">
<title>Node28&#45;&gt;Node18</title>
<path fill="none" stroke="#191970" d="M446.0328,-100.4551C474.0577,-115.7232 517.4443,-139.3603 541.4757,-152.4527"/>
<polygon fill="#191970" stroke="#191970" points="447.6236,-97.3361 437.1678,-95.6255 444.2747,-103.4831 447.6236,-97.3361"/>
</g>
<!-- Node29 -->
<g id="node12" class="node">
<title>Node29</title>
<g id="a_node12"><a xlink:href="classBsaWaveformEngine.html" target="_top" xlink:title="BsaWaveformEngine(2)">
<polygon fill="#ffffff" stroke="#000000" points="184,-76.5 184,-95.5 315,-95.5 315,-76.5 184,-76.5"/>
<text text-anchor="middle" x="249.5" y="-83.5" font-family="Helvetica,sans-Serif" font-size="10.00" fill="#000000">BsaWaveformEngine(2)</text>
</a>
</g>
</g>
<!-- Node29&#45;&gt;Node28 -->
<g id="edge12" class="edge">
<title>Node29&#45;&gt;Node28</title>
<path fill="none" stroke="#191970" d="M325.6452,-86C342.5148,-86 359.8547,-86 374.9681,-86"/>
<polygon fill="#191970" stroke="#191970" points="325.2265,-82.5001 315.2264,-86 325.2264,-89.5001 325.2265,-82.5001"/>
</g>
<!-- Node30 -->
<g id="node13" class="node">
<title>Node30</title>
<g id="a_node13"><a xlink:href="classBsaBufferControl.html" target="_top" xlink:title="BsaBufferControl">
<polygon fill="#ffffff" stroke="#000000" points="200,-38.5 200,-57.5 299,-57.5 299,-38.5 200,-38.5"/>
<text text-anchor="middle" x="249.5" y="-45.5" font-family="Helvetica,sans-Serif" font-size="10.00" fill="#000000">BsaBufferControl</text>
</a>
</g>
</g>
<!-- Node30&#45;&gt;Node28 -->
<g id="edge13" class="edge">
<title>Node30&#45;&gt;Node28</title>
<path fill="none" stroke="#191970" d="M302.3981,-59.8243C326.365,-65.1816 354.3235,-71.4311 376.9103,-76.4799"/>
<polygon fill="#191970" stroke="#191970" points="302.9209,-56.3548 292.3982,-57.589 301.3938,-63.1862 302.9209,-56.3548"/>
</g>
<!-- Node31 -->
<g id="node14" class="node">
<title>Node31</title>
<g id="a_node14"><a xlink:href="classBsaAccumulator.html" target="_top" xlink:title="BsaAccumulator">
<polygon fill="#ffffff" stroke="#000000" points="20,-38.5 20,-57.5 116,-57.5 116,-38.5 20,-38.5"/>
<text text-anchor="middle" x="68" y="-45.5" font-family="Helvetica,sans-Serif" font-size="10.00" fill="#000000">BsaAccumulator</text>
</a>
</g>
</g>
<!-- Node31&#45;&gt;Node30 -->
<g id="edge14" class="edge">
<title>Node31&#45;&gt;Node30</title>
<path fill="none" stroke="#191970" d="M126.4249,-48C150.0978,-48 177.1465,-48 199.8462,-48"/>
<polygon fill="#191970" stroke="#191970" points="126.1622,-44.5001 116.1622,-48 126.1621,-51.5001 126.1622,-44.5001"/>
</g>
<!-- Node32 -->
<g id="node15" class="node">
<title>Node32</title>
<g id="a_node15"><a xlink:href="classBsaAxiInterconnectWrapper.html" target="_top" xlink:title="BsaAxiInterconnectWrapper">
<polygon fill="#ffffff" stroke="#000000" points="173.5,-.5 173.5,-19.5 325.5,-19.5 325.5,-.5 173.5,-.5"/>
<text text-anchor="middle" x="249.5" y="-7.5" font-family="Helvetica,sans-Serif" font-size="10.00" fill="#000000">BsaAxiInterconnectWrapper</text>
</a>
</g>
</g>
<!-- Node32&#45;&gt;Node28 -->
<g id="edge15" class="edge">
<title>Node32&#45;&gt;Node28</title>
<path fill="none" stroke="#191970" d="M314.718,-23.0067C318.9857,-24.7592 323.1222,-26.7466 327,-29 347.1147,-40.689 343.3937,-54.4769 363,-67 368.9306,-70.7881 375.6971,-73.9043 382.4369,-76.4383"/>
<polygon fill="#191970" stroke="#191970" points="315.809,-19.679 305.2151,-19.533 313.4057,-26.2535 315.809,-19.679"/>
</g>
<!-- Node33 -->
<g id="node16" class="node">
<title>Node33</title>
<g id="a_node16"><a xlink:href="classAmcCarrierDdrMem.html" target="_top" xlink:title="AmcCarrierDdrMem">
<polygon fill="#ffffff" stroke="#000000" points="363,-38.5 363,-57.5 476,-57.5 476,-38.5 363,-38.5"/>
<text text-anchor="middle" x="419.5" y="-45.5" font-family="Helvetica,sans-Serif" font-size="10.00" fill="#000000">AmcCarrierDdrMem</text>
</a>
</g>
</g>
<!-- Node33&#45;&gt;Node18 -->
<g id="edge16" class="edge">
<title>Node33&#45;&gt;Node18</title>
<path fill="none" stroke="#191970" d="M466.6635,-61.6722C469.9218,-63.2737 473.0707,-65.0448 476,-67 511.5214,-90.7094 541.0861,-133.4195 553.1586,-152.4273"/>
<polygon fill="#191970" stroke="#191970" points="467.8487,-58.3712 457.2822,-57.5964 465.0592,-64.7914 467.8487,-58.3712"/>
</g>
</g>
</svg>
        <g id="navigator" transform="translate(0 0)" fill="#404254">
                <rect fill="#f2f5e9" fill-opacity="0.5" stroke="#606060" stroke-width=".5" x="0" y="0" width="60" height="60"/>
                <use id="zoomplus" xlink:href="#zoomPlus" x="17" y="9" onmousedown="handleZoom(evt,'in')"/>
                <use id="zoomminus" xlink:href="#zoomMin" x="42" y="9" onmousedown="handleZoom(evt,'out')"/>
                <use id="reset" xlink:href="#resetDef" x="30" y="36" onmousedown="handleReset()"/>
                <g id="arrowUp" xlink:href="#dirArrow" transform="translate(30 24)" onmousedown="handlePan(0,-1)">
                  <use xlink:href="#rim" fill="#404040">
                        <set attributeName="fill" to="#808080" begin="arrowUp.mouseover" end="arrowUp.mouseout"/>
                  </use>
                  <path fill="none" stroke="white" stroke-width="1.5" d="M0,-3.0v7 M-2.5,-0.5L0,-3.0L2.5,-0.5"/>
                </g>
                <g id="arrowRight" xlink:href="#dirArrow" transform="rotate(90) translate(36 -43)" onmousedown="handlePan(1,0)">
                  <use xlink:href="#rim" fill="#404040">
                        <set attributeName="fill" to="#808080" begin="arrowRight.mouseover" end="arrowRight.mouseout"/>
                  </use>
                  <path fill="none" stroke="white" stroke-width="1.5" d="M0,-3.0v7 M-2.5,-0.5L0,-3.0L2.5,-0.5"/>
                </g>
                <g id="arrowDown" xlink:href="#dirArrow" transform="rotate(180) translate(-30 -48)" onmousedown="handlePan(0,1)">
                  <use xlink:href="#rim" fill="#404040">
                        <set attributeName="fill" to="#808080" begin="arrowDown.mouseover" end="arrowDown.mouseout"/>
                  </use>
                  <path fill="none" stroke="white" stroke-width="1.5" d="M0,-3.0v7 M-2.5,-0.5L0,-3.0L2.5,-0.5"/>
                </g>
                <g id="arrowLeft" xlink:href="#dirArrow" transform="rotate(270) translate(-36 17)" onmousedown="handlePan(-1,0)">
                  <use xlink:href="#rim" fill="#404040">
                        <set attributeName="fill" to="#808080" begin="arrowLeft.mouseover" end="arrowLeft.mouseout"/>
                  </use>
                  <path fill="none" stroke="white" stroke-width="1.5" d="M0,-3.0v7 M-2.5,-0.5L0,-3.0L2.5,-0.5"/>
                </g>
        </g>
        <svg viewBox="0 0 15 15" width="100%" height="30px" preserveAspectRatio="xMaxYMin meet">
         <g id="arrow_out" transform="scale(0.3 0.3)">
          <a xlink:href="classAmcCarrierCore__coll__graph_org.svg" target="_base">
           <rect id="button" ry="5" rx="5" y="6" x="6" height="38" width="38"
                fill="#f2f5e9" fill-opacity="0.5" stroke="#606060" stroke-width="1.0"/>
           <path id="arrow"
             d="M 11.500037,31.436501 C 11.940474,20.09759 22.043105,11.32322 32.158766,21.979434 L 37.068811,17.246167 C 37.068811,17.246167 37.088388,32 37.088388,32 L 22.160133,31.978069 C 22.160133,31.978069 26.997745,27.140456 26.997745,27.140456 C 18.528582,18.264221 13.291696,25.230495 11.500037,31.436501 z"
             style="fill:#404040;"/>
          </a>
         </g>
        </svg>
</svg>
