<?xml version="1.0" encoding="UTF-8" standalone="no"?>
<!DOCTYPE svg PUBLIC "-//W3C//DTD SVG 1.1//EN"
 "http://www.w3.org/Graphics/SVG/1.1/DTD/svg11.dtd">
<!-- Generated by graphviz version 2.40.1 (20161225.0304)
 -->
<!-- Title: DaqLane Pages: 1 -->
<svg width="184pt" height="84pt"
 viewBox="0.00 0.00 184.00 84.00" xmlns="http://www.w3.org/2000/svg" xmlns:xlink="http://www.w3.org/1999/xlink">
<g id="graph0" class="graph" transform="scale(1 1) rotate(0) translate(4 80)">
<title>DaqLane</title>
<polygon fill="#ffffff" stroke="transparent" points="-4,4 -4,-80 180,-80 180,4 -4,4"/>
<!-- Node6 -->
<g id="node1" class="node">
<title>Node6</title>
<polygon fill="#bfbfbf" stroke="#000000" points="54,-.5 54,-19.5 113,-19.5 113,-.5 54,-.5"/>
<text text-anchor="middle" x="83.5" y="-7.5" font-family="Helvetica,sans-Serif" font-size="10.00" fill="#000000">DaqLane</text>
</g>
<!-- Node7 -->
<g id="node2" class="node">
<title>Node7</title>
<g id="a_node2"><a xlink:href="classDaqTestSig.html" target="_top" xlink:title="DaqTestSig">
<polygon fill="#ffffff" stroke="#000000" points="0,-56.5 0,-75.5 71,-75.5 71,-56.5 0,-56.5"/>
<text text-anchor="middle" x="35.5" y="-63.5" font-family="Helvetica,sans-Serif" font-size="10.00" fill="#000000">DaqTestSig</text>
</a>
</g>
</g>
<!-- Node7&#45;&gt;Node6 -->
<g id="edge1" class="edge">
<title>Node7&#45;&gt;Node6</title>
<path fill="none" stroke="#191970" d="M50.4997,-48.5004C58.6622,-38.9775 68.4489,-27.5596 75.2349,-19.6427"/>
<polygon fill="#191970" stroke="#191970" points="47.7115,-46.3752 43.861,-56.2455 53.0263,-50.9307 47.7115,-46.3752"/>
</g>
<!-- Node8 -->
<g id="node3" class="node">
<title>Node8</title>
<g id="a_node3"><a xlink:href="classDaqDecimator.html" target="_top" xlink:title="DaqDecimator">
<polygon fill="#ffffff" stroke="#000000" points="89,-56.5 89,-75.5 176,-75.5 176,-56.5 89,-56.5"/>
<text text-anchor="middle" x="132.5" y="-63.5" font-family="Helvetica,sans-Serif" font-size="10.00" fill="#000000">DaqDecimator</text>
</a>
</g>
</g>
<!-- Node8&#45;&gt;Node6 -->
<g id="edge2" class="edge">
<title>Node8&#45;&gt;Node6</title>
<path fill="none" stroke="#191970" d="M117.1878,-48.5004C108.8553,-38.9775 98.8647,-27.5596 91.9373,-19.6427"/>
<polygon fill="#191970" stroke="#191970" points="114.7457,-51.0245 123.9649,-56.2455 120.0138,-46.415 114.7457,-51.0245"/>
</g>
</g>
</svg>
