<?xml version="1.0" encoding="UTF-8" standalone="no"?>
<!DOCTYPE svg PUBLIC "-//W3C//DTD SVG 1.1//EN"
 "http://www.w3.org/Graphics/SVG/1.1/DTD/svg11.dtd">
<!-- Generated by graphviz version 2.40.1 (20161225.0304)
 -->
<!-- Title: AxiSerAttnMaster Pages: 1 -->
<svg width="483pt" height="84pt"
 viewBox="0.00 0.00 482.50 84.00" xmlns="http://www.w3.org/2000/svg" xmlns:xlink="http://www.w3.org/1999/xlink">
<g id="graph0" class="graph" transform="scale(1 1) rotate(0) translate(4 80)">
<title>AxiSerAttnMaster</title>
<polygon fill="#ffffff" stroke="transparent" points="-4,4 -4,-80 478.5,-80 478.5,4 -4,4"/>
<!-- Node0 -->
<g id="node1" class="node">
<title>Node0</title>
<polygon fill="#bfbfbf" stroke="#000000" points="194,-56.5 194,-75.5 295,-75.5 295,-56.5 194,-56.5"/>
<text text-anchor="middle" x="244.5" y="-63.5" font-family="Helvetica,sans-Serif" font-size="10.00" fill="#000000">AxiSerAttnMaster</text>
</g>
<!-- Node1 -->
<g id="node2" class="node">
<title>Node1</title>
<g id="a_node2"><a xlink:href="classAmcMrLlrfDownConvertCore.html" target="_top" xlink:title="AmcMrLlrfDownConvertCore">
<polygon fill="#ffffff" stroke="#000000" points="0,-.5 0,-19.5 155,-19.5 155,-.5 0,-.5"/>
<text text-anchor="middle" x="77.5" y="-7.5" font-family="Helvetica,sans-Serif" font-size="10.00" fill="#000000">AmcMrLlrfDownConvertCore</text>
</a>
</g>
</g>
<!-- Node0&#45;&gt;Node1 -->
<g id="edge1" class="edge">
<title>Node0&#45;&gt;Node1</title>
<path fill="none" stroke="#191970" d="M206.3002,-53.1905C175.7046,-42.9309 133.4722,-28.7691 105.8337,-19.5011"/>
<polygon fill="#191970" stroke="#191970" points="205.1978,-56.5123 215.7917,-56.3733 207.4233,-49.8755 205.1978,-56.5123"/>
</g>
<!-- Node2 -->
<g id="node3" class="node">
<title>Node2</title>
<g id="a_node3"><a xlink:href="classAmcMrLlrfGen2UpConvert.html" target="_top" xlink:title="AmcMrLlrfGen2UpConvert">
<polygon fill="#ffffff" stroke="#000000" points="173,-.5 173,-19.5 316,-19.5 316,-.5 173,-.5"/>
<text text-anchor="middle" x="244.5" y="-7.5" font-family="Helvetica,sans-Serif" font-size="10.00" fill="#000000">AmcMrLlrfGen2UpConvert</text>
</a>
</g>
</g>
<!-- Node0&#45;&gt;Node2 -->
<g id="edge2" class="edge">
<title>Node0&#45;&gt;Node2</title>
<path fill="none" stroke="#191970" d="M244.5,-46.1575C244.5,-37.155 244.5,-26.9199 244.5,-19.6427"/>
<polygon fill="#191970" stroke="#191970" points="241.0001,-46.2455 244.5,-56.2455 248.0001,-46.2456 241.0001,-46.2455"/>
</g>
<!-- Node3 -->
<g id="node4" class="node">
<title>Node3</title>
<g id="a_node4"><a xlink:href="classAmcMrLlrfUpConvertCore.html" target="_top" xlink:title="AmcMrLlrfUpConvertCore">
<polygon fill="#ffffff" stroke="#000000" points="334.5,-.5 334.5,-19.5 474.5,-19.5 474.5,-.5 334.5,-.5"/>
<text text-anchor="middle" x="404.5" y="-7.5" font-family="Helvetica,sans-Serif" font-size="10.00" fill="#000000">AmcMrLlrfUpConvertCore</text>
</a>
</g>
</g>
<!-- Node0&#45;&gt;Node3 -->
<g id="edge3" class="edge">
<title>Node0&#45;&gt;Node3</title>
<path fill="none" stroke="#191970" d="M281.4799,-53.057C310.7618,-42.8084 350.9885,-28.729 377.3539,-19.5011"/>
<polygon fill="#191970" stroke="#191970" points="280.2873,-49.7662 272.005,-56.3733 282.5998,-56.3732 280.2873,-49.7662"/>
</g>
</g>
</svg>
