<?xml version="1.0" encoding="UTF-8" standalone="no"?>
<!DOCTYPE svg PUBLIC "-//W3C//DTD SVG 1.1//EN"
 "http://www.w3.org/Graphics/SVG/1.1/DTD/svg11.dtd">
<!-- Generated by graphviz version 2.40.1 (20161225.0304)
 -->
<!-- Title: DacSigGenTb Pages: 1 -->
<svg width="207pt" height="140pt"
 viewBox="0.00 0.00 206.50 140.00" xmlns="http://www.w3.org/2000/svg" xmlns:xlink="http://www.w3.org/1999/xlink">
<g id="graph0" class="graph" transform="scale(1 1) rotate(0) translate(4 136)">
<title>DacSigGenTb</title>
<polygon fill="#ffffff" stroke="transparent" points="-4,4 -4,-136 202.5,-136 202.5,4 -4,4"/>
<!-- Node0 -->
<g id="node1" class="node">
<title>Node0</title>
<polygon fill="#bfbfbf" stroke="#000000" points="57,-.5 57,-19.5 139,-19.5 139,-.5 57,-.5"/>
<text text-anchor="middle" x="98" y="-7.5" font-family="Helvetica,sans-Serif" font-size="10.00" fill="#000000">DacSigGenTb</text>
</g>
<!-- Node1 -->
<g id="node2" class="node">
<title>Node1</title>
<g id="a_node2"><a xlink:href="classDacSigGen.html" target="_top" xlink:title="DacSigGen">
<polygon fill="#ffffff" stroke="#000000" points="63,-56.5 63,-75.5 133,-75.5 133,-56.5 63,-56.5"/>
<text text-anchor="middle" x="98" y="-63.5" font-family="Helvetica,sans-Serif" font-size="10.00" fill="#000000">DacSigGen</text>
</a>
</g>
</g>
<!-- Node1&#45;&gt;Node0 -->
<g id="edge1" class="edge">
<title>Node1&#45;&gt;Node0</title>
<path fill="none" stroke="#191970" d="M98,-46.1575C98,-37.155 98,-26.9199 98,-19.6427"/>
<polygon fill="#191970" stroke="#191970" points="94.5001,-46.2455 98,-56.2455 101.5001,-46.2456 94.5001,-46.2455"/>
</g>
<!-- Node2 -->
<g id="node3" class="node">
<title>Node2</title>
<g id="a_node3"><a xlink:href="classDacSigGenReg.html" target="_top" xlink:title="DacSigGenReg">
<polygon fill="#ffffff" stroke="#000000" points="0,-112.5 0,-131.5 88,-131.5 88,-112.5 0,-112.5"/>
<text text-anchor="middle" x="44" y="-119.5" font-family="Helvetica,sans-Serif" font-size="10.00" fill="#000000">DacSigGenReg</text>
</a>
</g>
</g>
<!-- Node2&#45;&gt;Node1 -->
<g id="edge2" class="edge">
<title>Node2&#45;&gt;Node1</title>
<path fill="none" stroke="#191970" d="M60.5969,-104.7884C69.8347,-95.2085 80.9904,-83.6396 88.7017,-75.6427"/>
<polygon fill="#191970" stroke="#191970" points="57.828,-102.6176 53.4061,-112.2455 62.8669,-107.4766 57.828,-102.6176"/>
</g>
<!-- Node3 -->
<g id="node4" class="node">
<title>Node3</title>
<g id="a_node4"><a xlink:href="classDacSigGenLane.html" target="_top" xlink:title="DacSigGenLane">
<polygon fill="#ffffff" stroke="#000000" points="105.5,-112.5 105.5,-131.5 198.5,-131.5 198.5,-112.5 105.5,-112.5"/>
<text text-anchor="middle" x="152" y="-119.5" font-family="Helvetica,sans-Serif" font-size="10.00" fill="#000000">DacSigGenLane</text>
</a>
</g>
</g>
<!-- Node3&#45;&gt;Node1 -->
<g id="edge3" class="edge">
<title>Node3&#45;&gt;Node1</title>
<path fill="none" stroke="#191970" d="M135.4031,-104.7884C126.1653,-95.2085 115.0096,-83.6396 107.2983,-75.6427"/>
<polygon fill="#191970" stroke="#191970" points="133.1331,-107.4766 142.5939,-112.2455 138.172,-102.6176 133.1331,-107.4766"/>
</g>
</g>
</svg>
