<?xml version="1.0" encoding="UTF-8" standalone="no"?>
<!DOCTYPE svg PUBLIC "-//W3C//DTD SVG 1.1//EN"
 "http://www.w3.org/Graphics/SVG/1.1/DTD/svg11.dtd">
<!-- Generated by graphviz version 2.43.0 (0)
 -->
<!-- Title: JesdSyncIn Pages: 1 -->
<svg width="493pt" height="294pt"
 viewBox="0.00 0.00 493.00 294.00" xmlns="http://www.w3.org/2000/svg" xmlns:xlink="http://www.w3.org/1999/xlink">
<g id="graph0" class="graph" transform="scale(1 1) rotate(0) translate(4 290)">
<title>JesdSyncIn</title>
<polygon fill="white" stroke="transparent" points="-4,4 -4,-290 489,-290 489,4 -4,4"/>
<!-- Node1 -->
<g id="node1" class="node">
<title>Node1</title>
<g id="a_node1"><a xlink:title=" ">
<polygon fill="#bfbfbf" stroke="black" points="0,-133.5 0,-152.5 69,-152.5 69,-133.5 0,-133.5"/>
<text text-anchor="middle" x="34.5" y="-140.5" font-family="Helvetica,sans-Serif" font-size="10.00">JesdSyncIn</text>
</a>
</g>
</g>
<!-- Node2 -->
<g id="node2" class="node">
<title>Node2</title>
<g id="a_node2"><a xlink:href="classAmcCryoCore.html" target="_top" xlink:title=" ">
<polygon fill="white" stroke="black" points="156.5,-266.5 156.5,-285.5 239.5,-285.5 239.5,-266.5 156.5,-266.5"/>
<text text-anchor="middle" x="198" y="-273.5" font-family="Helvetica,sans-Serif" font-size="10.00">AmcCryoCore</text>
</a>
</g>
</g>
<!-- Node1&#45;&gt;Node2 -->
<g id="edge1" class="edge">
<title>Node1&#45;&gt;Node2</title>
<path fill="none" stroke="midnightblue" d="M41.74,-162.27C51.15,-188.1 71.52,-233.42 105,-257 119.8,-267.42 139.06,-272.38 156.14,-274.65"/>
<polygon fill="midnightblue" stroke="midnightblue" points="45.05,-161.12 38.47,-152.81 38.43,-163.41 45.05,-161.12"/>
</g>
<!-- Node4 -->
<g id="node4" class="node">
<title>Node4</title>
<g id="a_node4"><a xlink:href="classAmcCryoDemoCore.html" target="_top" xlink:title=" ">
<polygon fill="white" stroke="black" points="141.5,-228.5 141.5,-247.5 254.5,-247.5 254.5,-228.5 141.5,-228.5"/>
<text text-anchor="middle" x="198" y="-235.5" font-family="Helvetica,sans-Serif" font-size="10.00">AmcCryoDemoCore</text>
</a>
</g>
</g>
<!-- Node1&#45;&gt;Node4 -->
<g id="edge3" class="edge">
<title>Node1&#45;&gt;Node4</title>
<path fill="none" stroke="midnightblue" d="M46.98,-161.05C59.17,-178.68 80.11,-204.86 105,-219 116.06,-225.29 128.92,-229.51 141.46,-232.33"/>
<polygon fill="midnightblue" stroke="midnightblue" points="49.88,-159.1 41.42,-152.72 44.06,-162.98 49.88,-159.1"/>
</g>
<!-- Node6 -->
<g id="node6" class="node">
<title>Node6</title>
<g id="a_node6"><a xlink:href="classAmcGenericAdcDacCore.html" target="_top" xlink:title=" ">
<polygon fill="white" stroke="black" points="130.5,-190.5 130.5,-209.5 265.5,-209.5 265.5,-190.5 130.5,-190.5"/>
<text text-anchor="middle" x="198" y="-197.5" font-family="Helvetica,sans-Serif" font-size="10.00">AmcGenericAdcDacCore</text>
</a>
</g>
</g>
<!-- Node1&#45;&gt;Node6 -->
<g id="edge5" class="edge">
<title>Node1&#45;&gt;Node6</title>
<path fill="none" stroke="midnightblue" d="M58.88,-158.06C71.99,-165.91 88.9,-175.09 105,-181 115.41,-184.82 126.78,-187.96 137.87,-190.5"/>
<polygon fill="midnightblue" stroke="midnightblue" points="60.43,-154.9 50.07,-152.65 56.76,-160.87 60.43,-154.9"/>
</g>
<!-- Node8 -->
<g id="node8" class="node">
<title>Node8</title>
<g id="a_node8"><a xlink:href="classAmcMicrowaveMuxCore.html" target="_top" xlink:title=" ">
<polygon fill="white" stroke="black" points="130.5,-152.5 130.5,-171.5 265.5,-171.5 265.5,-152.5 130.5,-152.5"/>
<text text-anchor="middle" x="198" y="-159.5" font-family="Helvetica,sans-Serif" font-size="10.00">AmcMicrowaveMuxCore</text>
</a>
</g>
</g>
<!-- Node1&#45;&gt;Node8 -->
<g id="edge7" class="edge">
<title>Node1&#45;&gt;Node8</title>
<path fill="none" stroke="midnightblue" d="M79.29,-148.15C94.98,-150 113.04,-152.12 130.23,-154.14"/>
<polygon fill="midnightblue" stroke="midnightblue" points="79.7,-144.68 69.36,-146.98 78.88,-151.63 79.7,-144.68"/>
</g>
<!-- Node10 -->
<g id="node10" class="node">
<title>Node10</title>
<g id="a_node10"><a xlink:href="classAmcMrLlrfDownConvertCore.html" target="_top" xlink:title=" ">
<polygon fill="white" stroke="black" points="120.5,-114.5 120.5,-133.5 275.5,-133.5 275.5,-114.5 120.5,-114.5"/>
<text text-anchor="middle" x="198" y="-121.5" font-family="Helvetica,sans-Serif" font-size="10.00">AmcMrLlrfDownConvertCore</text>
</a>
</g>
</g>
<!-- Node1&#45;&gt;Node10 -->
<g id="edge9" class="edge">
<title>Node1&#45;&gt;Node10</title>
<path fill="none" stroke="midnightblue" d="M79.56,-137.82C92.17,-136.33 106.31,-134.67 120.28,-133.03"/>
<polygon fill="midnightblue" stroke="midnightblue" points="78.88,-134.37 69.36,-139.02 79.7,-141.32 78.88,-134.37"/>
</g>
<!-- Node11 -->
<g id="node11" class="node">
<title>Node11</title>
<g id="a_node11"><a xlink:href="classAmcMrLlrfGen2UpConvertMapping.html" target="_top" xlink:title=" ">
<polygon fill="white" stroke="black" points="105,-76.5 105,-95.5 291,-95.5 291,-76.5 105,-76.5"/>
<text text-anchor="middle" x="198" y="-83.5" font-family="Helvetica,sans-Serif" font-size="10.00">AmcMrLlrfGen2UpConvertMapping</text>
</a>
</g>
</g>
<!-- Node1&#45;&gt;Node11 -->
<g id="edge10" class="edge">
<title>Node1&#45;&gt;Node11</title>
<path fill="none" stroke="midnightblue" d="M58.88,-127.94C71.99,-120.09 88.9,-110.91 105,-105 115.41,-101.18 126.78,-98.04 137.87,-95.5"/>
<polygon fill="midnightblue" stroke="midnightblue" points="56.76,-125.13 50.07,-133.35 60.43,-131.1 56.76,-125.13"/>
</g>
<!-- Node13 -->
<g id="node13" class="node">
<title>Node13</title>
<g id="a_node13"><a xlink:href="classAmcMrLlrfUpConvertMapping.html" target="_top" xlink:title=" ">
<polygon fill="white" stroke="black" points="117.5,-38.5 117.5,-57.5 278.5,-57.5 278.5,-38.5 117.5,-38.5"/>
<text text-anchor="middle" x="198" y="-45.5" font-family="Helvetica,sans-Serif" font-size="10.00">AmcMrLlrfUpConvertMapping</text>
</a>
</g>
</g>
<!-- Node1&#45;&gt;Node13 -->
<g id="edge12" class="edge">
<title>Node1&#45;&gt;Node13</title>
<path fill="none" stroke="midnightblue" d="M46.98,-124.95C59.17,-107.32 80.11,-81.14 105,-67 111.81,-63.13 119.29,-60.05 126.97,-57.59"/>
<polygon fill="midnightblue" stroke="midnightblue" points="44.06,-123.02 41.42,-133.28 49.88,-126.9 44.06,-123.02"/>
</g>
<!-- Node15 -->
<g id="node15" class="node">
<title>Node15</title>
<g id="a_node15"><a xlink:href="classAmcStriplineBpmCore.html" target="_top" xlink:title=" ">
<polygon fill="white" stroke="black" points="136,-0.5 136,-19.5 260,-19.5 260,-0.5 136,-0.5"/>
<text text-anchor="middle" x="198" y="-7.5" font-family="Helvetica,sans-Serif" font-size="10.00">AmcStriplineBpmCore</text>
</a>
</g>
</g>
<!-- Node1&#45;&gt;Node15 -->
<g id="edge14" class="edge">
<title>Node1&#45;&gt;Node15</title>
<path fill="none" stroke="midnightblue" d="M41.74,-123.73C51.15,-97.9 71.52,-52.58 105,-29 114.07,-22.62 124.81,-18.28 135.7,-15.36"/>
<polygon fill="midnightblue" stroke="midnightblue" points="38.43,-122.59 38.47,-133.19 45.05,-124.88 38.43,-122.59"/>
</g>
<!-- Node3 -->
<g id="node3" class="node">
<title>Node3</title>
<g id="a_node3"><a xlink:href="classAmcCryoDualCore.html" target="_top" xlink:title=" ">
<polygon fill="white" stroke="black" points="353,-266.5 353,-285.5 459,-285.5 459,-266.5 353,-266.5"/>
<text text-anchor="middle" x="406" y="-273.5" font-family="Helvetica,sans-Serif" font-size="10.00">AmcCryoDualCore</text>
</a>
</g>
</g>
<!-- Node2&#45;&gt;Node3 -->
<g id="edge2" class="edge">
<title>Node2&#45;&gt;Node3</title>
<path fill="none" stroke="midnightblue" d="M249.94,-276C281.2,-276 321.13,-276 352.64,-276"/>
<polygon fill="midnightblue" stroke="midnightblue" points="249.7,-272.5 239.7,-276 249.7,-279.5 249.7,-272.5"/>
</g>
<!-- Node5 -->
<g id="node5" class="node">
<title>Node5</title>
<g id="a_node5"><a xlink:href="classAmcCryoDemoDualCore.html" target="_top" xlink:title=" ">
<polygon fill="white" stroke="black" points="338.5,-228.5 338.5,-247.5 473.5,-247.5 473.5,-228.5 338.5,-228.5"/>
<text text-anchor="middle" x="406" y="-235.5" font-family="Helvetica,sans-Serif" font-size="10.00">AmcCryoDemoDualCore</text>
</a>
</g>
</g>
<!-- Node4&#45;&gt;Node5 -->
<g id="edge4" class="edge">
<title>Node4&#45;&gt;Node5</title>
<path fill="none" stroke="midnightblue" d="M264.93,-238C288.35,-238 314.72,-238 338.22,-238"/>
<polygon fill="midnightblue" stroke="midnightblue" points="264.75,-234.5 254.75,-238 264.75,-241.5 264.75,-234.5"/>
</g>
<!-- Node7 -->
<g id="node7" class="node">
<title>Node7</title>
<g id="a_node7"><a xlink:href="classAmcGenericAdcDacDualCore.html" target="_top" xlink:title=" ">
<polygon fill="white" stroke="black" points="327,-190.5 327,-209.5 485,-209.5 485,-190.5 327,-190.5"/>
<text text-anchor="middle" x="406" y="-197.5" font-family="Helvetica,sans-Serif" font-size="10.00">AmcGenericAdcDacDualCore</text>
</a>
</g>
</g>
<!-- Node6&#45;&gt;Node7 -->
<g id="edge6" class="edge">
<title>Node6&#45;&gt;Node7</title>
<path fill="none" stroke="midnightblue" d="M275.82,-200C292.47,-200 310.09,-200 326.79,-200"/>
<polygon fill="midnightblue" stroke="midnightblue" points="275.6,-196.5 265.6,-200 275.6,-203.5 275.6,-196.5"/>
</g>
<!-- Node9 -->
<g id="node9" class="node">
<title>Node9</title>
<g id="a_node9"><a xlink:href="classAmcMicrowaveMuxDualCore.html" target="_top" xlink:title=" ">
<polygon fill="white" stroke="black" points="327,-152.5 327,-171.5 485,-171.5 485,-152.5 327,-152.5"/>
<text text-anchor="middle" x="406" y="-159.5" font-family="Helvetica,sans-Serif" font-size="10.00">AmcMicrowaveMuxDualCore</text>
</a>
</g>
</g>
<!-- Node8&#45;&gt;Node9 -->
<g id="edge8" class="edge">
<title>Node8&#45;&gt;Node9</title>
<path fill="none" stroke="midnightblue" d="M275.82,-162C292.47,-162 310.09,-162 326.79,-162"/>
<polygon fill="midnightblue" stroke="midnightblue" points="275.6,-158.5 265.6,-162 275.6,-165.5 275.6,-158.5"/>
</g>
<!-- Node12 -->
<g id="node12" class="node">
<title>Node12</title>
<g id="a_node12"><a xlink:href="classAmcMrLlrfGen2UpConvert.html" target="_top" xlink:title=" ">
<polygon fill="white" stroke="black" points="334,-76.5 334,-95.5 478,-95.5 478,-76.5 334,-76.5"/>
<text text-anchor="middle" x="406" y="-83.5" font-family="Helvetica,sans-Serif" font-size="10.00">AmcMrLlrfGen2UpConvert</text>
</a>
</g>
</g>
<!-- Node11&#45;&gt;Node12 -->
<g id="edge11" class="edge">
<title>Node11&#45;&gt;Node12</title>
<path fill="none" stroke="midnightblue" d="M301.28,-86C312.33,-86 323.38,-86 333.94,-86"/>
<polygon fill="midnightblue" stroke="midnightblue" points="301.15,-82.5 291.15,-86 301.15,-89.5 301.15,-82.5"/>
</g>
<!-- Node14 -->
<g id="node14" class="node">
<title>Node14</title>
<g id="a_node14"><a xlink:href="classAmcMrLlrfUpConvertCore.html" target="_top" xlink:title=" ">
<polygon fill="white" stroke="black" points="335.5,-38.5 335.5,-57.5 476.5,-57.5 476.5,-38.5 335.5,-38.5"/>
<text text-anchor="middle" x="406" y="-45.5" font-family="Helvetica,sans-Serif" font-size="10.00">AmcMrLlrfUpConvertCore</text>
</a>
</g>
</g>
<!-- Node13&#45;&gt;Node14 -->
<g id="edge13" class="edge">
<title>Node13&#45;&gt;Node14</title>
<path fill="none" stroke="midnightblue" d="M288.8,-48C304.38,-48 320.36,-48 335.3,-48"/>
<polygon fill="midnightblue" stroke="midnightblue" points="288.65,-44.5 278.64,-48 288.64,-51.5 288.65,-44.5"/>
</g>
<!-- Node16 -->
<g id="node16" class="node">
<title>Node16</title>
<g id="a_node16"><a xlink:href="classAmcStriplineBpmDualCore.html" target="_top" xlink:title=" ">
<polygon fill="white" stroke="black" points="333,-0.5 333,-19.5 479,-19.5 479,-0.5 333,-0.5"/>
<text text-anchor="middle" x="406" y="-7.5" font-family="Helvetica,sans-Serif" font-size="10.00">AmcStriplineBpmDualCore</text>
</a>
</g>
</g>
<!-- Node15&#45;&gt;Node16 -->
<g id="edge15" class="edge">
<title>Node15&#45;&gt;Node16</title>
<path fill="none" stroke="midnightblue" d="M270.31,-10C290.5,-10 312.49,-10 332.73,-10"/>
<polygon fill="midnightblue" stroke="midnightblue" points="270.25,-6.5 260.25,-10 270.25,-13.5 270.25,-6.5"/>
</g>
</g>
</svg>
