<?xml version="1.0" encoding="UTF-8" standalone="no"?>
<!DOCTYPE svg PUBLIC "-//W3C//DTD SVG 1.1//EN"
 "http://www.w3.org/Graphics/SVG/1.1/DTD/svg11.dtd">
<!-- Generated by graphviz version 2.43.0 (0)
 -->
<!-- Title: AppMpsEncoder Pages: 1 -->
<svg width="406pt" height="252pt"
 viewBox="0.00 0.00 406.00 252.00" xmlns="http://www.w3.org/2000/svg" xmlns:xlink="http://www.w3.org/1999/xlink">
<g id="graph0" class="graph" transform="scale(1 1) rotate(0) translate(4 248)">
<title>AppMpsEncoder</title>
<polygon fill="white" stroke="transparent" points="-4,4 -4,-248 402,-248 402,4 -4,4"/>
<!-- Node1 -->
<g id="node1" class="node">
<title>Node1</title>
<g id="a_node1"><a xlink:title=" ">
<polygon fill="#bfbfbf" stroke="black" points="159.5,-112.5 159.5,-131.5 254.5,-131.5 254.5,-112.5 159.5,-112.5"/>
<text text-anchor="middle" x="207" y="-119.5" font-family="Helvetica,sans-Serif" font-size="10.00">AppMpsEncoder</text>
</a>
</g>
</g>
<!-- Node7 -->
<g id="node7" class="node">
<title>Node7</title>
<g id="a_node7"><a xlink:href="classAppMps.html" target="_top" xlink:title=" ">
<polygon fill="white" stroke="black" points="179,-56.5 179,-75.5 235,-75.5 235,-56.5 179,-56.5"/>
<text text-anchor="middle" x="207" y="-63.5" font-family="Helvetica,sans-Serif" font-size="10.00">AppMps</text>
</a>
</g>
</g>
<!-- Node1&#45;&gt;Node7 -->
<g id="edge6" class="edge">
<title>Node1&#45;&gt;Node7</title>
<path fill="none" stroke="midnightblue" d="M207,-101.8C207,-92.91 207,-82.78 207,-75.75"/>
<polygon fill="midnightblue" stroke="midnightblue" points="203.5,-102.08 207,-112.08 210.5,-102.08 203.5,-102.08"/>
</g>
<!-- Node2 -->
<g id="node2" class="node">
<title>Node2</title>
<g id="a_node2"><a xlink:href="classAppMpsReg.html" target="_top" xlink:title=" ">
<polygon fill="white" stroke="black" points="72,-168.5 72,-187.5 146,-187.5 146,-168.5 72,-168.5"/>
<text text-anchor="middle" x="109" y="-175.5" font-family="Helvetica,sans-Serif" font-size="10.00">AppMpsReg</text>
</a>
</g>
</g>
<!-- Node2&#45;&gt;Node1 -->
<g id="edge1" class="edge">
<title>Node2&#45;&gt;Node1</title>
<path fill="none" stroke="midnightblue" d="M133.59,-163.45C151.68,-153.48 175.73,-140.23 191.29,-131.65"/>
<polygon fill="midnightblue" stroke="midnightblue" points="131.81,-160.43 124.75,-168.32 135.19,-166.56 131.81,-160.43"/>
</g>
<!-- Node3 -->
<g id="node3" class="node">
<title>Node3</title>
<g id="a_node3"><a xlink:href="classAppMpsRegBase.html" target="_top" xlink:title=" ">
<polygon fill="white" stroke="black" points="0,-224.5 0,-243.5 98,-243.5 98,-224.5 0,-224.5"/>
<text text-anchor="middle" x="49" y="-231.5" font-family="Helvetica,sans-Serif" font-size="10.00">AppMpsRegBase</text>
</a>
</g>
</g>
<!-- Node3&#45;&gt;Node2 -->
<g id="edge2" class="edge">
<title>Node3&#45;&gt;Node2</title>
<path fill="none" stroke="midnightblue" d="M66.18,-217.54C76.88,-207.91 90.26,-195.87 99.18,-187.83"/>
<polygon fill="midnightblue" stroke="midnightblue" points="63.73,-215.03 58.64,-224.32 68.41,-220.24 63.73,-215.03"/>
</g>
<!-- Node4 -->
<g id="node4" class="node">
<title>Node4</title>
<g id="a_node4"><a xlink:href="classAppMpsRegAppCh.html" target="_top" xlink:title=" ">
<polygon fill="white" stroke="black" points="116,-224.5 116,-243.5 222,-243.5 222,-224.5 116,-224.5"/>
<text text-anchor="middle" x="169" y="-231.5" font-family="Helvetica,sans-Serif" font-size="10.00">AppMpsRegAppCh</text>
</a>
</g>
</g>
<!-- Node4&#45;&gt;Node2 -->
<g id="edge3" class="edge">
<title>Node4&#45;&gt;Node2</title>
<path fill="none" stroke="midnightblue" d="M151.82,-217.54C141.12,-207.91 127.74,-195.87 118.82,-187.83"/>
<polygon fill="midnightblue" stroke="midnightblue" points="149.59,-220.24 159.36,-224.32 154.27,-215.03 149.59,-220.24"/>
</g>
<!-- Node5 -->
<g id="node5" class="node">
<title>Node5</title>
<g id="a_node5"><a xlink:href="classAppMpsSelect.html" target="_top" xlink:title=" ">
<polygon fill="white" stroke="black" points="164,-168.5 164,-187.5 250,-187.5 250,-168.5 164,-168.5"/>
<text text-anchor="middle" x="207" y="-175.5" font-family="Helvetica,sans-Serif" font-size="10.00">AppMpsSelect</text>
</a>
</g>
</g>
<!-- Node5&#45;&gt;Node1 -->
<g id="edge4" class="edge">
<title>Node5&#45;&gt;Node1</title>
<path fill="none" stroke="midnightblue" d="M207,-157.8C207,-148.91 207,-138.78 207,-131.75"/>
<polygon fill="midnightblue" stroke="midnightblue" points="203.5,-158.08 207,-168.08 210.5,-158.08 203.5,-158.08"/>
</g>
<!-- Node6 -->
<g id="node6" class="node">
<title>Node6</title>
<g id="a_node6"><a xlink:href="classMpsMsgCore.html" target="_top" xlink:title=" ">
<polygon fill="white" stroke="black" points="268,-168.5 268,-187.5 348,-187.5 348,-168.5 268,-168.5"/>
<text text-anchor="middle" x="308" y="-175.5" font-family="Helvetica,sans-Serif" font-size="10.00">MpsMsgCore</text>
</a>
</g>
</g>
<!-- Node6&#45;&gt;Node1 -->
<g id="edge5" class="edge">
<title>Node6&#45;&gt;Node1</title>
<path fill="none" stroke="midnightblue" d="M282.92,-163.59C264.24,-153.61 239.3,-140.27 223.19,-131.65"/>
<polygon fill="midnightblue" stroke="midnightblue" points="281.3,-166.7 291.77,-168.32 284.6,-160.52 281.3,-166.7"/>
</g>
<!-- Node8 -->
<g id="node8" class="node">
<title>Node8</title>
<g id="a_node8"><a xlink:href="classAmcCarrierCoreAdv.html" target="_top" xlink:title=" ">
<polygon fill="white" stroke="black" points="16.5,-0.5 16.5,-19.5 129.5,-19.5 129.5,-0.5 16.5,-0.5"/>
<text text-anchor="middle" x="73" y="-7.5" font-family="Helvetica,sans-Serif" font-size="10.00">AmcCarrierCoreAdv</text>
</a>
</g>
</g>
<!-- Node7&#45;&gt;Node8 -->
<g id="edge7" class="edge">
<title>Node7&#45;&gt;Node8</title>
<path fill="none" stroke="midnightblue" d="M176.32,-52.64C151.18,-42.5 116.25,-28.43 94.13,-19.52"/>
<polygon fill="midnightblue" stroke="midnightblue" points="175.18,-55.95 185.77,-56.44 177.8,-49.46 175.18,-55.95"/>
</g>
<!-- Node9 -->
<g id="node9" class="node">
<title>Node9</title>
<g id="a_node9"><a xlink:href="classAmcCarrierCoreBase.html" target="_top" xlink:title=" ">
<polygon fill="white" stroke="black" points="148,-0.5 148,-19.5 266,-19.5 266,-0.5 148,-0.5"/>
<text text-anchor="middle" x="207" y="-7.5" font-family="Helvetica,sans-Serif" font-size="10.00">AmcCarrierCoreBase</text>
</a>
</g>
</g>
<!-- Node7&#45;&gt;Node9 -->
<g id="edge8" class="edge">
<title>Node7&#45;&gt;Node9</title>
<path fill="none" stroke="midnightblue" d="M207,-45.8C207,-36.91 207,-26.78 207,-19.75"/>
<polygon fill="midnightblue" stroke="midnightblue" points="203.5,-46.08 207,-56.08 210.5,-46.08 203.5,-46.08"/>
</g>
<!-- Node10 -->
<g id="node10" class="node">
<title>Node10</title>
<g id="a_node10"><a xlink:href="classAmcCarrierCoreFsbl.html" target="_top" xlink:title=" ">
<polygon fill="white" stroke="black" points="284,-0.5 284,-19.5 398,-19.5 398,-0.5 284,-0.5"/>
<text text-anchor="middle" x="341" y="-7.5" font-family="Helvetica,sans-Serif" font-size="10.00">AmcCarrierCoreFsbl</text>
</a>
</g>
</g>
<!-- Node7&#45;&gt;Node10 -->
<g id="edge9" class="edge">
<title>Node7&#45;&gt;Node10</title>
<path fill="none" stroke="midnightblue" d="M237.68,-52.64C262.82,-42.5 297.75,-28.43 319.87,-19.52"/>
<polygon fill="midnightblue" stroke="midnightblue" points="236.2,-49.46 228.23,-56.44 238.82,-55.95 236.2,-49.46"/>
</g>
</g>
</svg>
