<?xml version="1.0" encoding="UTF-8" standalone="no"?>
<!DOCTYPE svg PUBLIC "-//W3C//DTD SVG 1.1//EN"
 "http://www.w3.org/Graphics/SVG/1.1/DTD/svg11.dtd">
<!-- Generated by graphviz version 2.43.0 (0)
 -->
<!-- Title: AmcCarrierCoreFsbl Pages: 1 -->
<svg width="744pt" height="398pt"
 viewBox="0.00 0.00 744.00 398.00" xmlns="http://www.w3.org/2000/svg" xmlns:xlink="http://www.w3.org/1999/xlink">
<g id="graph0" class="graph" transform="scale(1 1) rotate(0) translate(4 394)">
<title>AmcCarrierCoreFsbl</title>
<polygon fill="white" stroke="transparent" points="-4,4 -4,-394 740,-394 740,4 -4,4"/>
<!-- Node1 -->
<g id="node1" class="node">
<title>Node1</title>
<g id="a_node1"><a xlink:title=" ">
<polygon fill="#bfbfbf" stroke="black" points="622,-256.5 622,-275.5 736,-275.5 736,-256.5 622,-256.5"/>
<text text-anchor="middle" x="679" y="-263.5" font-family="Helvetica,sans-Serif" font-size="10.00">AmcCarrierCoreFsbl</text>
</a>
</g>
</g>
<!-- Node2 -->
<g id="node2" class="node">
<title>Node2</title>
<g id="a_node2"><a xlink:href="classAmcCarrierSysReg.html" target="_top" xlink:title=" ">
<polygon fill="white" stroke="black" points="479,-332.5 479,-351.5 586,-351.5 586,-332.5 479,-332.5"/>
<text text-anchor="middle" x="532.5" y="-339.5" font-family="Helvetica,sans-Serif" font-size="10.00">AmcCarrierSysReg</text>
</a>
</g>
</g>
<!-- Node2&#45;&gt;Node1 -->
<g id="edge1" class="edge">
<title>Node2&#45;&gt;Node1</title>
<path fill="none" stroke="midnightblue" d="M560.98,-327.54C590.01,-312.28 634.95,-288.64 659.85,-275.55"/>
<polygon fill="midnightblue" stroke="midnightblue" points="559.02,-324.62 551.8,-332.37 562.28,-330.82 559.02,-324.62"/>
</g>
<!-- Node3 -->
<g id="node3" class="node">
<title>Node3</title>
<g id="a_node3"><a xlink:href="classAmcCarrierSysMon.html" target="_top" xlink:title=" ">
<polygon fill="white" stroke="black" points="331.5,-370.5 331.5,-389.5 441.5,-389.5 441.5,-370.5 331.5,-370.5"/>
<text text-anchor="middle" x="386.5" y="-377.5" font-family="Helvetica,sans-Serif" font-size="10.00">AmcCarrierSysMon</text>
</a>
</g>
</g>
<!-- Node3&#45;&gt;Node2 -->
<g id="edge2" class="edge">
<title>Node3&#45;&gt;Node2</title>
<path fill="none" stroke="midnightblue" d="M433.67,-367.82C453.66,-362.54 476.72,-356.46 495.42,-351.52"/>
<polygon fill="midnightblue" stroke="midnightblue" points="432.61,-364.48 423.84,-370.41 434.4,-371.24 432.61,-364.48"/>
</g>
<!-- Node4 -->
<g id="node4" class="node">
<title>Node4</title>
<g id="a_node4"><a xlink:href="classAmcCarrierBsi.html" target="_top" xlink:title=" ">
<polygon fill="white" stroke="black" points="343.5,-332.5 343.5,-351.5 429.5,-351.5 429.5,-332.5 343.5,-332.5"/>
<text text-anchor="middle" x="386.5" y="-339.5" font-family="Helvetica,sans-Serif" font-size="10.00">AmcCarrierBsi</text>
</a>
</g>
</g>
<!-- Node4&#45;&gt;Node2 -->
<g id="edge3" class="edge">
<title>Node4&#45;&gt;Node2</title>
<path fill="none" stroke="midnightblue" d="M439.57,-342C452.37,-342 466.09,-342 478.91,-342"/>
<polygon fill="midnightblue" stroke="midnightblue" points="439.54,-338.5 429.54,-342 439.54,-345.5 439.54,-338.5"/>
</g>
<!-- Node5 -->
<g id="node5" class="node">
<title>Node5</title>
<g id="a_node5"><a xlink:href="classAppMps.html" target="_top" xlink:title=" ">
<polygon fill="white" stroke="black" points="504.5,-256.5 504.5,-275.5 560.5,-275.5 560.5,-256.5 504.5,-256.5"/>
<text text-anchor="middle" x="532.5" y="-263.5" font-family="Helvetica,sans-Serif" font-size="10.00">AppMps</text>
</a>
</g>
</g>
<!-- Node5&#45;&gt;Node1 -->
<g id="edge4" class="edge">
<title>Node5&#45;&gt;Node1</title>
<path fill="none" stroke="midnightblue" d="M570.93,-266C586.47,-266 604.83,-266 621.92,-266"/>
<polygon fill="midnightblue" stroke="midnightblue" points="570.68,-262.5 560.68,-266 570.68,-269.5 570.68,-262.5"/>
</g>
<!-- Node6 -->
<g id="node6" class="node">
<title>Node6</title>
<g id="a_node6"><a xlink:href="classAppMpsClk.html" target="_top" xlink:title=" ">
<polygon fill="white" stroke="black" points="351,-294.5 351,-313.5 422,-313.5 422,-294.5 351,-294.5"/>
<text text-anchor="middle" x="386.5" y="-301.5" font-family="Helvetica,sans-Serif" font-size="10.00">AppMpsClk</text>
</a>
</g>
</g>
<!-- Node6&#45;&gt;Node5 -->
<g id="edge5" class="edge">
<title>Node6&#45;&gt;Node5</title>
<path fill="none" stroke="midnightblue" d="M432.14,-292.22C455.7,-286 483.85,-278.57 504.17,-273.21"/>
<polygon fill="midnightblue" stroke="midnightblue" points="431.13,-288.87 422.36,-294.8 432.92,-295.63 431.13,-288.87"/>
</g>
<!-- Node7 -->
<g id="node7" class="node">
<title>Node7</title>
<g id="a_node7"><a xlink:href="classAppMpsEncoder.html" target="_top" xlink:title=" ">
<polygon fill="white" stroke="black" points="339,-256.5 339,-275.5 434,-275.5 434,-256.5 339,-256.5"/>
<text text-anchor="middle" x="386.5" y="-263.5" font-family="Helvetica,sans-Serif" font-size="10.00">AppMpsEncoder</text>
</a>
</g>
</g>
<!-- Node7&#45;&gt;Node5 -->
<g id="edge6" class="edge">
<title>Node7&#45;&gt;Node5</title>
<path fill="none" stroke="midnightblue" d="M444.51,-266C465.1,-266 487.41,-266 504.28,-266"/>
<polygon fill="midnightblue" stroke="midnightblue" points="444.25,-262.5 434.25,-266 444.25,-269.5 444.25,-262.5"/>
</g>
<!-- Node8 -->
<g id="node8" class="node">
<title>Node8</title>
<g id="a_node8"><a xlink:href="classAppMpsReg.html" target="_top" xlink:title=" ">
<polygon fill="white" stroke="black" points="181,-294.5 181,-313.5 255,-313.5 255,-294.5 181,-294.5"/>
<text text-anchor="middle" x="218" y="-301.5" font-family="Helvetica,sans-Serif" font-size="10.00">AppMpsReg</text>
</a>
</g>
</g>
<!-- Node8&#45;&gt;Node7 -->
<g id="edge7" class="edge">
<title>Node8&#45;&gt;Node7</title>
<path fill="none" stroke="midnightblue" d="M264.99,-293.5C289.68,-287.87 319.88,-280.98 343.87,-275.5"/>
<polygon fill="midnightblue" stroke="midnightblue" points="264.1,-290.12 255.13,-295.75 265.66,-296.94 264.1,-290.12"/>
</g>
<!-- Node9 -->
<g id="node9" class="node">
<title>Node9</title>
<g id="a_node9"><a xlink:href="classAppMpsRegBase.html" target="_top" xlink:title=" ">
<polygon fill="white" stroke="black" points="4,-313.5 4,-332.5 102,-332.5 102,-313.5 4,-313.5"/>
<text text-anchor="middle" x="53" y="-320.5" font-family="Helvetica,sans-Serif" font-size="10.00">AppMpsRegBase</text>
</a>
</g>
</g>
<!-- Node9&#45;&gt;Node8 -->
<g id="edge8" class="edge">
<title>Node9&#45;&gt;Node8</title>
<path fill="none" stroke="midnightblue" d="M112.03,-316.24C135.02,-313.56 160.73,-310.56 180.96,-308.2"/>
<polygon fill="midnightblue" stroke="midnightblue" points="111.55,-312.77 102.02,-317.4 112.36,-319.72 111.55,-312.77"/>
</g>
<!-- Node10 -->
<g id="node10" class="node">
<title>Node10</title>
<g id="a_node10"><a xlink:href="classAppMpsRegAppCh.html" target="_top" xlink:title=" ">
<polygon fill="white" stroke="black" points="0,-275.5 0,-294.5 106,-294.5 106,-275.5 0,-275.5"/>
<text text-anchor="middle" x="53" y="-282.5" font-family="Helvetica,sans-Serif" font-size="10.00">AppMpsRegAppCh</text>
</a>
</g>
</g>
<!-- Node10&#45;&gt;Node8 -->
<g id="edge9" class="edge">
<title>Node10&#45;&gt;Node8</title>
<path fill="none" stroke="midnightblue" d="M116.24,-292.25C138.1,-294.8 161.93,-297.58 180.92,-299.79"/>
<polygon fill="midnightblue" stroke="midnightblue" points="116.36,-288.75 106.02,-291.06 115.55,-295.7 116.36,-288.75"/>
</g>
<!-- Node11 -->
<g id="node11" class="node">
<title>Node11</title>
<g id="a_node11"><a xlink:href="classAppMpsSelect.html" target="_top" xlink:title=" ">
<polygon fill="white" stroke="black" points="175,-256.5 175,-275.5 261,-275.5 261,-256.5 175,-256.5"/>
<text text-anchor="middle" x="218" y="-263.5" font-family="Helvetica,sans-Serif" font-size="10.00">AppMpsSelect</text>
</a>
</g>
</g>
<!-- Node11&#45;&gt;Node7 -->
<g id="edge10" class="edge">
<title>Node11&#45;&gt;Node7</title>
<path fill="none" stroke="midnightblue" d="M271.04,-266C292.73,-266 317.72,-266 338.8,-266"/>
<polygon fill="midnightblue" stroke="midnightblue" points="271.02,-262.5 261.01,-266 271.01,-269.5 271.02,-262.5"/>
</g>
<!-- Node12 -->
<g id="node12" class="node">
<title>Node12</title>
<g id="a_node12"><a xlink:href="classMpsMsgCore.html" target="_top" xlink:title=" ">
<polygon fill="white" stroke="black" points="178,-218.5 178,-237.5 258,-237.5 258,-218.5 178,-218.5"/>
<text text-anchor="middle" x="218" y="-225.5" font-family="Helvetica,sans-Serif" font-size="10.00">MpsMsgCore</text>
</a>
</g>
</g>
<!-- Node12&#45;&gt;Node7 -->
<g id="edge11" class="edge">
<title>Node12&#45;&gt;Node7</title>
<path fill="none" stroke="midnightblue" d="M268.04,-239.19C292.11,-244.69 320.8,-251.23 343.8,-256.48"/>
<polygon fill="midnightblue" stroke="midnightblue" points="268.56,-235.72 258.04,-236.91 267.01,-242.55 268.56,-235.72"/>
</g>
<!-- Node13 -->
<g id="node13" class="node">
<title>Node13</title>
<g id="a_node13"><a xlink:href="classAppMpsSalt.html" target="_top" xlink:title=" ">
<polygon fill="white" stroke="black" points="349.5,-218.5 349.5,-237.5 423.5,-237.5 423.5,-218.5 349.5,-218.5"/>
<text text-anchor="middle" x="386.5" y="-225.5" font-family="Helvetica,sans-Serif" font-size="10.00">AppMpsSalt</text>
</a>
</g>
</g>
<!-- Node13&#45;&gt;Node5 -->
<g id="edge12" class="edge">
<title>Node13&#45;&gt;Node5</title>
<path fill="none" stroke="midnightblue" d="M433.54,-240.15C456.84,-246.3 484.35,-253.56 504.27,-258.81"/>
<polygon fill="midnightblue" stroke="midnightblue" points="434.4,-236.76 423.84,-237.59 432.61,-243.52 434.4,-236.76"/>
</g>
<!-- Node14 -->
<g id="node14" class="node">
<title>Node14</title>
<g id="a_node14"><a xlink:href="classAmcCarrierFsbl.html" target="_top" xlink:title=" ">
<polygon fill="white" stroke="black" points="486.5,-123.5 486.5,-142.5 578.5,-142.5 578.5,-123.5 486.5,-123.5"/>
<text text-anchor="middle" x="532.5" y="-130.5" font-family="Helvetica,sans-Serif" font-size="10.00">AmcCarrierFsbl</text>
</a>
</g>
</g>
<!-- Node14&#45;&gt;Node1 -->
<g id="edge13" class="edge">
<title>Node14&#45;&gt;Node1</title>
<path fill="none" stroke="midnightblue" d="M551.25,-149.34C581.62,-177.29 642.66,-233.48 667.31,-256.16"/>
<polygon fill="midnightblue" stroke="midnightblue" points="553.62,-146.76 543.89,-142.57 548.88,-151.91 553.62,-146.76"/>
</g>
<!-- Node15 -->
<g id="node15" class="node">
<title>Node15</title>
<g id="a_node15"><a xlink:href="classAmcCarrierIbufGt.html" target="_top" xlink:title=" ">
<polygon fill="white" stroke="black" points="167.5,-171.5 167.5,-190.5 268.5,-190.5 268.5,-171.5 167.5,-171.5"/>
<text text-anchor="middle" x="218" y="-178.5" font-family="Helvetica,sans-Serif" font-size="10.00">AmcCarrierIbufGt</text>
</a>
</g>
</g>
<!-- Node15&#45;&gt;Node14 -->
<g id="edge14" class="edge">
<title>Node15&#45;&gt;Node14</title>
<path fill="none" stroke="midnightblue" d="M278.64,-184.11C324.22,-185.11 388.32,-183.52 443,-171 469.08,-165.03 497.13,-151.68 514.5,-142.5"/>
<polygon fill="midnightblue" stroke="midnightblue" points="278.71,-180.62 268.62,-183.85 278.53,-187.61 278.71,-180.62"/>
</g>
<!-- Node17 -->
<g id="node17" class="node">
<title>Node17</title>
<g id="a_node17"><a xlink:href="classAmcCarrierTiming.html" target="_top" xlink:title=" ">
<polygon fill="white" stroke="black" points="334,-142.5 334,-161.5 439,-161.5 439,-142.5 334,-142.5"/>
<text text-anchor="middle" x="386.5" y="-149.5" font-family="Helvetica,sans-Serif" font-size="10.00">AmcCarrierTiming</text>
</a>
</g>
</g>
<!-- Node15&#45;&gt;Node17 -->
<g id="edge17" class="edge">
<title>Node15&#45;&gt;Node17</title>
<path fill="none" stroke="midnightblue" d="M278.38,-170.66C296.52,-167.5 316.3,-164.05 333.87,-160.99"/>
<polygon fill="midnightblue" stroke="midnightblue" points="277.76,-167.21 268.5,-172.38 278.96,-174.11 277.76,-167.21"/>
</g>
<!-- Node16 -->
<g id="node16" class="node">
<title>Node16</title>
<g id="a_node16"><a xlink:href="classAmcCarrierEthFsbl.html" target="_top" xlink:title=" ">
<polygon fill="white" stroke="black" points="333,-104.5 333,-123.5 440,-123.5 440,-104.5 333,-104.5"/>
<text text-anchor="middle" x="386.5" y="-111.5" font-family="Helvetica,sans-Serif" font-size="10.00">AmcCarrierEthFsbl</text>
</a>
</g>
</g>
<!-- Node16&#45;&gt;Node14 -->
<g id="edge15" class="edge">
<title>Node16&#45;&gt;Node14</title>
<path fill="none" stroke="midnightblue" d="M450.35,-122.29C462.44,-123.89 474.89,-125.53 486.29,-127.03"/>
<polygon fill="midnightblue" stroke="midnightblue" points="450.67,-118.81 440.3,-120.97 449.76,-125.75 450.67,-118.81"/>
</g>
<!-- Node17&#45;&gt;Node14 -->
<g id="edge16" class="edge">
<title>Node17&#45;&gt;Node14</title>
<path fill="none" stroke="midnightblue" d="M449.04,-143.88C461.61,-142.22 474.62,-140.51 486.48,-138.94"/>
<polygon fill="midnightblue" stroke="midnightblue" points="448.54,-140.42 439.08,-145.19 449.45,-147.36 448.54,-140.42"/>
</g>
<!-- Node18 -->
<g id="node18" class="node">
<title>Node18</title>
<g id="a_node18"><a xlink:href="classAmcCarrierBsa.html" target="_top" xlink:title=" ">
<polygon fill="white" stroke="black" points="342,-66.5 342,-85.5 431,-85.5 431,-66.5 342,-66.5"/>
<text text-anchor="middle" x="386.5" y="-73.5" font-family="Helvetica,sans-Serif" font-size="10.00">AmcCarrierBsa</text>
</a>
</g>
</g>
<!-- Node18&#45;&gt;Node14 -->
<g id="edge18" class="edge">
<title>Node18&#45;&gt;Node14</title>
<path fill="none" stroke="midnightblue" d="M426.56,-88.96C432.1,-90.92 437.71,-92.96 443,-95 466.41,-104.02 492.77,-115.51 510.58,-123.49"/>
<polygon fill="midnightblue" stroke="midnightblue" points="427.34,-85.52 416.74,-85.55 425.04,-92.13 427.34,-85.52"/>
</g>
<!-- Node19 -->
<g id="node19" class="node">
<title>Node19</title>
<g id="a_node19"><a xlink:href="classBsaWaveformEngine.html" target="_top" xlink:title=" ">
<polygon fill="white" stroke="black" points="152.5,-114.5 152.5,-133.5 283.5,-133.5 283.5,-114.5 152.5,-114.5"/>
<text text-anchor="middle" x="218" y="-121.5" font-family="Helvetica,sans-Serif" font-size="10.00">BsaWaveformEngine(2)</text>
</a>
</g>
</g>
<!-- Node19&#45;&gt;Node18 -->
<g id="edge19" class="edge">
<title>Node19&#45;&gt;Node18</title>
<path fill="none" stroke="midnightblue" d="M268.34,-111.94C276.92,-109.72 285.74,-107.35 294,-105 315.16,-98.97 338.82,-91.45 356.78,-85.58"/>
<polygon fill="midnightblue" stroke="midnightblue" points="267.25,-108.61 258.43,-114.47 268.99,-115.39 267.25,-108.61"/>
</g>
<!-- Node20 -->
<g id="node20" class="node">
<title>Node20</title>
<g id="a_node20"><a xlink:href="classBsaBufferControl.html" target="_top" xlink:title=" ">
<polygon fill="white" stroke="black" points="168.5,-76.5 168.5,-95.5 267.5,-95.5 267.5,-76.5 168.5,-76.5"/>
<text text-anchor="middle" x="218" y="-83.5" font-family="Helvetica,sans-Serif" font-size="10.00">BsaBufferControl</text>
</a>
</g>
</g>
<!-- Node20&#45;&gt;Node18 -->
<g id="edge20" class="edge">
<title>Node20&#45;&gt;Node18</title>
<path fill="none" stroke="midnightblue" d="M277.77,-82.47C298.9,-81.2 322.34,-79.79 341.94,-78.62"/>
<polygon fill="midnightblue" stroke="midnightblue" points="277.38,-78.99 267.61,-83.08 277.8,-85.97 277.38,-78.99"/>
</g>
<!-- Node21 -->
<g id="node21" class="node">
<title>Node21</title>
<g id="a_node21"><a xlink:href="classBsaAccumulator.html" target="_top" xlink:title=" ">
<polygon fill="white" stroke="black" points="5,-76.5 5,-95.5 101,-95.5 101,-76.5 5,-76.5"/>
<text text-anchor="middle" x="53" y="-83.5" font-family="Helvetica,sans-Serif" font-size="10.00">BsaAccumulator</text>
</a>
</g>
</g>
<!-- Node21&#45;&gt;Node20 -->
<g id="edge21" class="edge">
<title>Node21&#45;&gt;Node20</title>
<path fill="none" stroke="midnightblue" d="M111.27,-86C129.87,-86 150.33,-86 168.26,-86"/>
<polygon fill="midnightblue" stroke="midnightblue" points="111.15,-82.5 101.15,-86 111.15,-89.5 111.15,-82.5"/>
</g>
<!-- Node22 -->
<g id="node22" class="node">
<title>Node22</title>
<g id="a_node22"><a xlink:href="classBsaAxiInterconnectWrapper.html" target="_top" xlink:title=" ">
<polygon fill="white" stroke="black" points="142,-38.5 142,-57.5 294,-57.5 294,-38.5 142,-38.5"/>
<text text-anchor="middle" x="218" y="-45.5" font-family="Helvetica,sans-Serif" font-size="10.00">BsaAxiInterconnectWrapper</text>
</a>
</g>
</g>
<!-- Node22&#45;&gt;Node18 -->
<g id="edge22" class="edge">
<title>Node22&#45;&gt;Node18</title>
<path fill="none" stroke="midnightblue" d="M285.85,-59.24C304.69,-62.41 324.69,-65.77 341.8,-68.65"/>
<polygon fill="midnightblue" stroke="midnightblue" points="286.28,-55.76 275.83,-57.56 285.12,-62.67 286.28,-55.76"/>
</g>
<!-- Node23 -->
<g id="node23" class="node">
<title>Node23</title>
<g id="a_node23"><a xlink:href="classBldAxiStream.html" target="_top" xlink:title=" ">
<polygon fill="white" stroke="black" points="176.5,-0.5 176.5,-19.5 259.5,-19.5 259.5,-0.5 176.5,-0.5"/>
<text text-anchor="middle" x="218" y="-7.5" font-family="Helvetica,sans-Serif" font-size="10.00">BldAxiStream</text>
</a>
</g>
</g>
<!-- Node23&#45;&gt;Node18 -->
<g id="edge23" class="edge">
<title>Node23&#45;&gt;Node18</title>
<path fill="none" stroke="midnightblue" d="M269.55,-19.75C277.93,-22.22 286.37,-25.27 294,-29 312.21,-37.9 312.17,-47.36 330,-57 336.81,-60.68 344.47,-63.85 351.87,-66.49"/>
<polygon fill="midnightblue" stroke="midnightblue" points="270.35,-16.34 259.79,-17.1 268.52,-23.1 270.35,-16.34"/>
</g>
<!-- Node24 -->
<g id="node24" class="node">
<title>Node24</title>
<g id="a_node24"><a xlink:href="classAmcCarrierDdrMem.html" target="_top" xlink:title=" ">
<polygon fill="white" stroke="black" points="330,-28.5 330,-47.5 443,-47.5 443,-28.5 330,-28.5"/>
<text text-anchor="middle" x="386.5" y="-35.5" font-family="Helvetica,sans-Serif" font-size="10.00">AmcCarrierDdrMem</text>
</a>
</g>
</g>
<!-- Node24&#45;&gt;Node14 -->
<g id="edge24" class="edge">
<title>Node24&#45;&gt;Node14</title>
<path fill="none" stroke="midnightblue" d="M431.5,-51.3C435.48,-53.02 439.37,-54.92 443,-57 475.7,-75.71 507.6,-107.35 522.6,-123.26"/>
<polygon fill="midnightblue" stroke="midnightblue" points="432.73,-48.02 422.14,-47.59 430.15,-54.53 432.73,-48.02"/>
</g>
</g>
</svg>
