<?xml version="1.0" encoding="UTF-8" standalone="no"?>
<!DOCTYPE svg PUBLIC "-//W3C//DTD SVG 1.1//EN"
 "http://www.w3.org/Graphics/SVG/1.1/DTD/svg11.dtd">
<!-- Generated by graphviz version 2.43.0 (0)
 -->
<!-- Title: AmcGenericAdcDacDualCore Pages: 1 -->
<svg width="499pt" height="140pt"
 viewBox="0.00 0.00 498.50 140.00" xmlns="http://www.w3.org/2000/svg" xmlns:xlink="http://www.w3.org/1999/xlink">
<g id="graph0" class="graph" transform="scale(1 1) rotate(0) translate(4 136)">
<title>AmcGenericAdcDacDualCore</title>
<polygon fill="white" stroke="transparent" points="-4,4 -4,-136 494.5,-136 494.5,4 -4,4"/>
<!-- Node1 -->
<g id="node1" class="node">
<title>Node1</title>
<g id="a_node1"><a xlink:title=" ">
<polygon fill="#bfbfbf" stroke="black" points="125.5,-0.5 125.5,-19.5 283.5,-19.5 283.5,-0.5 125.5,-0.5"/>
<text text-anchor="middle" x="204.5" y="-7.5" font-family="Helvetica,sans-Serif" font-size="10.00">AmcGenericAdcDacDualCore</text>
</a>
</g>
</g>
<!-- Node2 -->
<g id="node2" class="node">
<title>Node2</title>
<g id="a_node2"><a xlink:href="classAmcGenericAdcDacCore.html" target="_top" xlink:title=" ">
<polygon fill="white" stroke="black" points="137,-56.5 137,-75.5 272,-75.5 272,-56.5 137,-56.5"/>
<text text-anchor="middle" x="204.5" y="-63.5" font-family="Helvetica,sans-Serif" font-size="10.00">AmcGenericAdcDacCore</text>
</a>
</g>
</g>
<!-- Node2&#45;&gt;Node1 -->
<g id="edge1" class="edge">
<title>Node2&#45;&gt;Node1</title>
<path fill="none" stroke="midnightblue" d="M204.5,-45.8C204.5,-36.91 204.5,-26.78 204.5,-19.75"/>
<polygon fill="midnightblue" stroke="midnightblue" points="201,-46.08 204.5,-56.08 208,-46.08 201,-46.08"/>
</g>
<!-- Node3 -->
<g id="node3" class="node">
<title>Node3</title>
<g id="a_node3"><a xlink:href="classJesdSyncIn.html" target="_top" xlink:title=" ">
<polygon fill="white" stroke="black" points="0,-112.5 0,-131.5 83,-131.5 83,-112.5 0,-112.5"/>
<text text-anchor="middle" x="41.5" y="-119.5" font-family="Helvetica,sans-Serif" font-size="10.00">JesdSyncIn(2)</text>
</a>
</g>
</g>
<!-- Node3&#45;&gt;Node2 -->
<g id="edge2" class="edge">
<title>Node3&#45;&gt;Node2</title>
<path fill="none" stroke="midnightblue" d="M77.2,-109.17C107.9,-99 151.42,-84.59 178.79,-75.52"/>
<polygon fill="midnightblue" stroke="midnightblue" points="75.72,-105.98 67.33,-112.44 77.92,-112.62 75.72,-105.98"/>
</g>
<!-- Node4 -->
<g id="node4" class="node">
<title>Node4</title>
<g id="a_node4"><a xlink:href="classJesdSyncOut.html" target="_top" xlink:title=" ">
<polygon fill="white" stroke="black" points="101,-112.5 101,-131.5 178,-131.5 178,-112.5 101,-112.5"/>
<text text-anchor="middle" x="139.5" y="-119.5" font-family="Helvetica,sans-Serif" font-size="10.00">JesdSyncOut</text>
</a>
</g>
</g>
<!-- Node4&#45;&gt;Node2 -->
<g id="edge3" class="edge">
<title>Node4&#45;&gt;Node2</title>
<path fill="none" stroke="midnightblue" d="M157.77,-105.82C169.42,-96.15 184.1,-83.95 193.87,-75.83"/>
<polygon fill="midnightblue" stroke="midnightblue" points="155.4,-103.24 149.94,-112.32 159.87,-108.63 155.4,-103.24"/>
</g>
<!-- Node5 -->
<g id="node5" class="node">
<title>Node5</title>
<g id="a_node5"><a xlink:href="classAmcGenericAdcDacVcoSpi.html" target="_top" xlink:title=" ">
<polygon fill="white" stroke="black" points="196.5,-112.5 196.5,-131.5 342.5,-131.5 342.5,-112.5 196.5,-112.5"/>
<text text-anchor="middle" x="269.5" y="-119.5" font-family="Helvetica,sans-Serif" font-size="10.00">AmcGenericAdcDacVcoSpi</text>
</a>
</g>
</g>
<!-- Node5&#45;&gt;Node2 -->
<g id="edge4" class="edge">
<title>Node5&#45;&gt;Node2</title>
<path fill="none" stroke="midnightblue" d="M251.23,-105.82C239.58,-96.15 224.9,-83.95 215.13,-75.83"/>
<polygon fill="midnightblue" stroke="midnightblue" points="249.13,-108.63 259.06,-112.32 253.6,-103.24 249.13,-108.63"/>
</g>
<!-- Node6 -->
<g id="node6" class="node">
<title>Node6</title>
<g id="a_node6"><a xlink:href="classAmcGenericAdcDacCtrl.html" target="_top" xlink:title=" ">
<polygon fill="white" stroke="black" points="360.5,-112.5 360.5,-131.5 490.5,-131.5 490.5,-112.5 360.5,-112.5"/>
<text text-anchor="middle" x="425.5" y="-119.5" font-family="Helvetica,sans-Serif" font-size="10.00">AmcGenericAdcDacCtrl</text>
</a>
</g>
</g>
<!-- Node6&#45;&gt;Node2 -->
<g id="edge5" class="edge">
<title>Node6&#45;&gt;Node2</title>
<path fill="none" stroke="midnightblue" d="M380.58,-110.02C338.83,-99.82 277.52,-84.84 239.35,-75.52"/>
<polygon fill="midnightblue" stroke="midnightblue" points="379.94,-113.47 390.48,-112.44 381.6,-106.67 379.94,-113.47"/>
</g>
</g>
</svg>
