<?xml version="1.0" encoding="UTF-8" standalone="no"?>
<!DOCTYPE svg PUBLIC "-//W3C//DTD SVG 1.1//EN"
 "http://www.w3.org/Graphics/SVG/1.1/DTD/svg11.dtd">
<!-- Generated by graphviz version 2.40.1 (20161225.0304)
 -->
<!-- Title: RtmDigitalDebugV2 Pages: 1 -->
<svg width="342pt" height="84pt"
 viewBox="0.00 0.00 341.50 84.00" xmlns="http://www.w3.org/2000/svg" xmlns:xlink="http://www.w3.org/1999/xlink">
<g id="graph0" class="graph" transform="scale(1 1) rotate(0) translate(4 80)">
<title>RtmDigitalDebugV2</title>
<polygon fill="#ffffff" stroke="transparent" points="-4,4 -4,-80 337.5,-80 337.5,4 -4,4"/>
<!-- Node0 -->
<g id="node1" class="node">
<title>Node0</title>
<polygon fill="#bfbfbf" stroke="#000000" points="141,-.5 141,-19.5 254,-19.5 254,-.5 141,-.5"/>
<text text-anchor="middle" x="197.5" y="-7.5" font-family="Helvetica,sans-Serif" font-size="10.00" fill="#000000">RtmDigitalDebugV2</text>
</g>
<!-- Node1 -->
<g id="node2" class="node">
<title>Node1</title>
<g id="a_node2"><a xlink:href="classRtmDigitalDebugDin.html" target="_top" xlink:title="RtmDigitalDebugDin">
<polygon fill="#ffffff" stroke="#000000" points="0,-56.5 0,-75.5 117,-75.5 117,-56.5 0,-56.5"/>
<text text-anchor="middle" x="58.5" y="-63.5" font-family="Helvetica,sans-Serif" font-size="10.00" fill="#000000">RtmDigitalDebugDin</text>
</a>
</g>
</g>
<!-- Node1&#45;&gt;Node0 -->
<g id="edge1" class="edge">
<title>Node1&#45;&gt;Node0</title>
<path fill="none" stroke="#191970" d="M91.9621,-52.5189C117.2769,-42.3201 151.4103,-28.5685 173.9169,-19.5011"/>
<polygon fill="#191970" stroke="#191970" points="90.3626,-49.3899 82.395,-56.3733 92.9784,-55.8827 90.3626,-49.3899"/>
</g>
<!-- Node2 -->
<g id="node3" class="node">
<title>Node2</title>
<g id="a_node3"><a xlink:href="classRtmDigitalDebugDout.html" target="_top" xlink:title="RtmDigitalDebugDout">
<polygon fill="#ffffff" stroke="#000000" points="135.5,-56.5 135.5,-75.5 259.5,-75.5 259.5,-56.5 135.5,-56.5"/>
<text text-anchor="middle" x="197.5" y="-63.5" font-family="Helvetica,sans-Serif" font-size="10.00" fill="#000000">RtmDigitalDebugDout</text>
</a>
</g>
</g>
<!-- Node2&#45;&gt;Node0 -->
<g id="edge2" class="edge">
<title>Node2&#45;&gt;Node0</title>
<path fill="none" stroke="#191970" d="M197.5,-46.1575C197.5,-37.155 197.5,-26.9199 197.5,-19.6427"/>
<polygon fill="#191970" stroke="#191970" points="194.0001,-46.2455 197.5,-56.2455 201.0001,-46.2456 194.0001,-46.2455"/>
</g>
<!-- Node3 -->
<g id="node4" class="node">
<title>Node3</title>
<g id="a_node4"><a xlink:href="classSi5317a.html" target="_top" xlink:title="Si5317a">
<polygon fill="#ffffff" stroke="#000000" points="277.5,-56.5 277.5,-75.5 333.5,-75.5 333.5,-56.5 277.5,-56.5"/>
<text text-anchor="middle" x="305.5" y="-63.5" font-family="Helvetica,sans-Serif" font-size="10.00" fill="#000000">Si5317a</text>
</a>
</g>
</g>
<!-- Node3&#45;&gt;Node0 -->
<g id="edge3" class="edge">
<title>Node3&#45;&gt;Node0</title>
<path fill="none" stroke="#191970" d="M277.7229,-51.5971C258.3618,-41.558 233.0615,-28.4393 216.0966,-19.6427"/>
<polygon fill="#191970" stroke="#191970" points="276.1992,-54.7495 286.6878,-56.2455 279.4214,-48.5352 276.1992,-54.7495"/>
</g>
</g>
</svg>
