<?xml version="1.0" encoding="UTF-8" standalone="no"?>
<!DOCTYPE svg PUBLIC "-//W3C//DTD SVG 1.1//EN"
 "http://www.w3.org/Graphics/SVG/1.1/DTD/svg11.dtd">
<!-- Generated by graphviz version 2.43.0 (0)
 -->
<!-- Title: RtmCryoDacLutTb Pages: 1 -->
<svg width="348pt" height="196pt"
 viewBox="0.00 0.00 348.00 196.00" xmlns="http://www.w3.org/2000/svg" xmlns:xlink="http://www.w3.org/1999/xlink">
<g id="graph0" class="graph" transform="scale(1 1) rotate(0) translate(4 192)">
<title>RtmCryoDacLutTb</title>
<polygon fill="white" stroke="transparent" points="-4,4 -4,-192 344,-192 344,4 -4,4"/>
<!-- Node1 -->
<g id="node1" class="node">
<title>Node1</title>
<g id="a_node1"><a xlink:title=" ">
<polygon fill="#bfbfbf" stroke="black" points="122,-0.5 122,-19.5 227,-19.5 227,-0.5 122,-0.5"/>
<text text-anchor="middle" x="174.5" y="-7.5" font-family="Helvetica,sans-Serif" font-size="10.00">RtmCryoDacLutTb</text>
</a>
</g>
</g>
<!-- Node2 -->
<g id="node2" class="node">
<title>Node2</title>
<g id="a_node2"><a xlink:href="classRtmCryoDet.html" target="_top" xlink:title=" ">
<polygon fill="white" stroke="black" points="136,-56.5 136,-75.5 213,-75.5 213,-56.5 136,-56.5"/>
<text text-anchor="middle" x="174.5" y="-63.5" font-family="Helvetica,sans-Serif" font-size="10.00">RtmCryoDet</text>
</a>
</g>
</g>
<!-- Node2&#45;&gt;Node1 -->
<g id="edge1" class="edge">
<title>Node2&#45;&gt;Node1</title>
<path fill="none" stroke="midnightblue" d="M174.5,-45.8C174.5,-36.91 174.5,-26.78 174.5,-19.75"/>
<polygon fill="midnightblue" stroke="midnightblue" points="171,-46.08 174.5,-56.08 178,-46.08 171,-46.08"/>
</g>
<!-- Node3 -->
<g id="node3" class="node">
<title>Node3</title>
<g id="a_node3"><a xlink:href="classRtmCryoDetReg.html" target="_top" xlink:title=" ">
<polygon fill="white" stroke="black" points="7,-112.5 7,-131.5 102,-131.5 102,-112.5 7,-112.5"/>
<text text-anchor="middle" x="54.5" y="-119.5" font-family="Helvetica,sans-Serif" font-size="10.00">RtmCryoDetReg</text>
</a>
</g>
</g>
<!-- Node3&#45;&gt;Node2 -->
<g id="edge2" class="edge">
<title>Node3&#45;&gt;Node2</title>
<path fill="none" stroke="midnightblue" d="M82.87,-108.23C105.32,-98.13 136.04,-84.31 155.57,-75.52"/>
<polygon fill="midnightblue" stroke="midnightblue" points="81.2,-105.15 73.51,-112.44 84.07,-111.53 81.2,-105.15"/>
</g>
<!-- Node4 -->
<g id="node4" class="node">
<title>Node4</title>
<g id="a_node4"><a xlink:href="classRtmCryoDetClkDiv.html" target="_top" xlink:title=" ">
<polygon fill="white" stroke="black" points="0,-168.5 0,-187.5 109,-187.5 109,-168.5 0,-168.5"/>
<text text-anchor="middle" x="54.5" y="-175.5" font-family="Helvetica,sans-Serif" font-size="10.00">RtmCryoDetClkDiv</text>
</a>
</g>
</g>
<!-- Node4&#45;&gt;Node3 -->
<g id="edge3" class="edge">
<title>Node4&#45;&gt;Node3</title>
<path fill="none" stroke="midnightblue" d="M54.5,-157.8C54.5,-148.91 54.5,-138.78 54.5,-131.75"/>
<polygon fill="midnightblue" stroke="midnightblue" points="51,-158.08 54.5,-168.08 58,-158.08 51,-158.08"/>
</g>
<!-- Node5 -->
<g id="node5" class="node">
<title>Node5</title>
<g id="a_node5"><a xlink:href="classRtmCryoSpiMaster.html" target="_top" xlink:title=" ">
<polygon fill="white" stroke="black" points="120.5,-112.5 120.5,-131.5 228.5,-131.5 228.5,-112.5 120.5,-112.5"/>
<text text-anchor="middle" x="174.5" y="-119.5" font-family="Helvetica,sans-Serif" font-size="10.00">RtmCryoSpiMaster</text>
</a>
</g>
</g>
<!-- Node5&#45;&gt;Node2 -->
<g id="edge4" class="edge">
<title>Node5&#45;&gt;Node2</title>
<path fill="none" stroke="midnightblue" d="M174.5,-101.8C174.5,-92.91 174.5,-82.78 174.5,-75.75"/>
<polygon fill="midnightblue" stroke="midnightblue" points="171,-102.08 174.5,-112.08 178,-102.08 171,-102.08"/>
</g>
<!-- Node6 -->
<g id="node6" class="node">
<title>Node6</title>
<g id="a_node6"><a xlink:href="classRtmCryoDacLut.html" target="_top" xlink:title=" ">
<polygon fill="white" stroke="black" points="247,-112.5 247,-131.5 340,-131.5 340,-112.5 247,-112.5"/>
<text text-anchor="middle" x="293.5" y="-119.5" font-family="Helvetica,sans-Serif" font-size="10.00">RtmCryoDacLut</text>
</a>
</g>
</g>
<!-- Node6&#45;&gt;Node2 -->
<g id="edge5" class="edge">
<title>Node6&#45;&gt;Node2</title>
<path fill="none" stroke="midnightblue" d="M265.36,-108.23C243.1,-98.13 212.64,-84.31 193.27,-75.52"/>
<polygon fill="midnightblue" stroke="midnightblue" points="264.09,-111.5 274.64,-112.44 266.98,-105.12 264.09,-111.5"/>
</g>
</g>
</svg>
