<?xml version="1.0" encoding="UTF-8" standalone="no"?>
<!DOCTYPE svg PUBLIC "-//W3C//DTD SVG 1.1//EN"
 "http://www.w3.org/Graphics/SVG/1.1/DTD/svg11.dtd">
<!-- Generated by graphviz version 2.40.1 (20161225.0304)
 -->
<!-- Title: AmcStriplineBpmDualCore Pages: 1 -->
<svg width="414pt" height="140pt"
 viewBox="0.00 0.00 413.50 140.00" xmlns="http://www.w3.org/2000/svg" xmlns:xlink="http://www.w3.org/1999/xlink">
<g id="graph0" class="graph" transform="scale(1 1) rotate(0) translate(4 136)">
<title>AmcStriplineBpmDualCore</title>
<polygon fill="#ffffff" stroke="transparent" points="-4,4 -4,-136 409.5,-136 409.5,4 -4,4"/>
<!-- Node6 -->
<g id="node1" class="node">
<title>Node6</title>
<polygon fill="#bfbfbf" stroke="#000000" points="119.5,-.5 119.5,-19.5 265.5,-19.5 265.5,-.5 119.5,-.5"/>
<text text-anchor="middle" x="192.5" y="-7.5" font-family="Helvetica,sans-Serif" font-size="10.00" fill="#000000">AmcStriplineBpmDualCore</text>
</g>
<!-- Node7 -->
<g id="node2" class="node">
<title>Node7</title>
<g id="a_node2"><a xlink:href="classAmcStriplineBpmCore.html" target="_top" xlink:title="AmcStriplineBpmCore">
<polygon fill="#ffffff" stroke="#000000" points="130.5,-56.5 130.5,-75.5 254.5,-75.5 254.5,-56.5 130.5,-56.5"/>
<text text-anchor="middle" x="192.5" y="-63.5" font-family="Helvetica,sans-Serif" font-size="10.00" fill="#000000">AmcStriplineBpmCore</text>
</a>
</g>
</g>
<!-- Node7&#45;&gt;Node6 -->
<g id="edge1" class="edge">
<title>Node7&#45;&gt;Node6</title>
<path fill="none" stroke="#191970" d="M192.5,-46.1575C192.5,-37.155 192.5,-26.9199 192.5,-19.6427"/>
<polygon fill="#191970" stroke="#191970" points="189.0001,-46.2455 192.5,-56.2455 196.0001,-46.2456 189.0001,-46.2455"/>
</g>
<!-- Node8 -->
<g id="node3" class="node">
<title>Node8</title>
<g id="a_node3"><a xlink:href="classJesdSyncIn.html" target="_top" xlink:title="JesdSyncIn">
<polygon fill="#ffffff" stroke="#000000" points="0,-112.5 0,-131.5 69,-131.5 69,-112.5 0,-112.5"/>
<text text-anchor="middle" x="34.5" y="-119.5" font-family="Helvetica,sans-Serif" font-size="10.00" fill="#000000">JesdSyncIn</text>
</a>
</g>
</g>
<!-- Node8&#45;&gt;Node7 -->
<g id="edge2" class="edge">
<title>Node8&#45;&gt;Node7</title>
<path fill="none" stroke="#191970" d="M71.3955,-108.9231C100.2787,-98.686 139.7706,-84.6889 165.6933,-75.5011"/>
<polygon fill="#191970" stroke="#191970" points="69.9174,-105.7336 61.6612,-112.3733 72.2559,-112.3314 69.9174,-105.7336"/>
</g>
<!-- Node9 -->
<g id="node4" class="node">
<title>Node9</title>
<g id="a_node4"><a xlink:href="classJesdSyncOut.html" target="_top" xlink:title="JesdSyncOut(2)">
<polygon fill="#ffffff" stroke="#000000" points="87,-112.5 87,-131.5 178,-131.5 178,-112.5 87,-112.5"/>
<text text-anchor="middle" x="132.5" y="-119.5" font-family="Helvetica,sans-Serif" font-size="10.00" fill="#000000">JesdSyncOut(2)</text>
</a>
</g>
</g>
<!-- Node9&#45;&gt;Node7 -->
<g id="edge3" class="edge">
<title>Node9&#45;&gt;Node7</title>
<path fill="none" stroke="#191970" d="M150.3278,-105.3607C160.7078,-95.6727 173.4291,-83.7995 182.1686,-75.6427"/>
<polygon fill="#191970" stroke="#191970" points="147.8737,-102.8636 142.9512,-112.2455 152.6499,-107.981 147.8737,-102.8636"/>
</g>
<!-- Node10 -->
<g id="node5" class="node">
<title>Node10</title>
<g id="a_node5"><a xlink:href="classAmcBpmDacVcoSpi.html" target="_top" xlink:title="AmcBpmDacVcoSpi">
<polygon fill="#ffffff" stroke="#000000" points="196,-112.5 196,-131.5 309,-131.5 309,-112.5 196,-112.5"/>
<text text-anchor="middle" x="252.5" y="-119.5" font-family="Helvetica,sans-Serif" font-size="10.00" fill="#000000">AmcBpmDacVcoSpi</text>
</a>
</g>
</g>
<!-- Node10&#45;&gt;Node7 -->
<g id="edge4" class="edge">
<title>Node10&#45;&gt;Node7</title>
<path fill="none" stroke="#191970" d="M234.6722,-105.3607C224.2922,-95.6727 211.5709,-83.7995 202.8314,-75.6427"/>
<polygon fill="#191970" stroke="#191970" points="232.3501,-107.981 242.0488,-112.2455 237.1263,-102.8636 232.3501,-107.981"/>
</g>
<!-- Node11 -->
<g id="node6" class="node">
<title>Node11</title>
<g id="a_node6"><a xlink:href="classAmcBpmCtrl.html" target="_top" xlink:title="AmcBpmCtrl">
<polygon fill="#ffffff" stroke="#000000" points="327.5,-112.5 327.5,-131.5 405.5,-131.5 405.5,-112.5 327.5,-112.5"/>
<text text-anchor="middle" x="366.5" y="-119.5" font-family="Helvetica,sans-Serif" font-size="10.00" fill="#000000">AmcBpmCtrl</text>
</a>
</g>
</g>
<!-- Node11&#45;&gt;Node7 -->
<g id="edge5" class="edge">
<title>Node11&#45;&gt;Node7</title>
<path fill="none" stroke="#191970" d="M326.699,-109.1905C294.821,-98.9309 250.8184,-84.7691 222.0213,-75.5011"/>
<polygon fill="#191970" stroke="#191970" points="325.9969,-112.6413 336.5883,-112.3733 328.1415,-105.9779 325.9969,-112.6413"/>
</g>
</g>
</svg>
