<?xml version="1.0" encoding="UTF-8" standalone="no"?>
<!DOCTYPE svg PUBLIC "-//W3C//DTD SVG 1.1//EN"
 "http://www.w3.org/Graphics/SVG/1.1/DTD/svg11.dtd">
<!-- Generated by graphviz version 2.40.1 (20161225.0304)
 -->
<!-- Title: LvdsDacSigGen Pages: 1 -->
<svg width="194pt" height="84pt"
 viewBox="0.00 0.00 193.50 84.00" xmlns="http://www.w3.org/2000/svg" xmlns:xlink="http://www.w3.org/1999/xlink">
<g id="graph0" class="graph" transform="scale(1 1) rotate(0) translate(4 80)">
<title>LvdsDacSigGen</title>
<polygon fill="#ffffff" stroke="transparent" points="-4,4 -4,-80 189.5,-80 189.5,4 -4,4"/>
<!-- Node4 -->
<g id="node1" class="node">
<title>Node4</title>
<polygon fill="#bfbfbf" stroke="#000000" points="48,-.5 48,-19.5 140,-19.5 140,-.5 48,-.5"/>
<text text-anchor="middle" x="94" y="-7.5" font-family="Helvetica,sans-Serif" font-size="10.00" fill="#000000">LvdsDacSigGen</text>
</g>
<!-- Node5 -->
<g id="node2" class="node">
<title>Node5</title>
<g id="a_node2"><a xlink:href="classLvdsDacRegItf.html" target="_top" xlink:title="LvdsDacRegItf">
<polygon fill="#ffffff" stroke="#000000" points="0,-56.5 0,-75.5 86,-75.5 86,-56.5 0,-56.5"/>
<text text-anchor="middle" x="43" y="-63.5" font-family="Helvetica,sans-Serif" font-size="10.00" fill="#000000">LvdsDacRegItf</text>
</a>
</g>
</g>
<!-- Node5&#45;&gt;Node4 -->
<g id="edge1" class="edge">
<title>Node5&#45;&gt;Node4</title>
<path fill="none" stroke="#191970" d="M58.6749,-48.7884C67.3994,-39.2085 77.9354,-27.6396 85.2183,-19.6427"/>
<polygon fill="#191970" stroke="#191970" points="56.0291,-46.4954 51.8835,-56.2455 61.2046,-51.2088 56.0291,-46.4954"/>
</g>
<!-- Node6 -->
<g id="node3" class="node">
<title>Node6</title>
<g id="a_node3"><a xlink:href="classLvdsDacLane.html" target="_top" xlink:title="LvdsDacLane">
<polygon fill="#ffffff" stroke="#000000" points="104.5,-56.5 104.5,-75.5 185.5,-75.5 185.5,-56.5 104.5,-56.5"/>
<text text-anchor="middle" x="145" y="-63.5" font-family="Helvetica,sans-Serif" font-size="10.00" fill="#000000">LvdsDacLane</text>
</a>
</g>
</g>
<!-- Node6&#45;&gt;Node4 -->
<g id="edge2" class="edge">
<title>Node6&#45;&gt;Node4</title>
<path fill="none" stroke="#191970" d="M129.3251,-48.7884C120.6006,-39.2085 110.0646,-27.6396 102.7817,-19.6427"/>
<polygon fill="#191970" stroke="#191970" points="126.7954,-51.2088 136.1165,-56.2455 131.9709,-46.4954 126.7954,-51.2088"/>
</g>
</g>
</svg>
