<?xml version="1.0" encoding="UTF-8" standalone="no"?>
<!DOCTYPE svg PUBLIC "-//W3C//DTD SVG 1.1//EN"
 "http://www.w3.org/Graphics/SVG/1.1/DTD/svg11.dtd">
<!-- Generated by graphviz version 2.40.1 (20161225.0304)
 -->
<!-- Title: DacSigGenLane Pages: 1 -->
<svg width="160pt" height="140pt"
 viewBox="0.00 0.00 160.00 140.00" xmlns="http://www.w3.org/2000/svg" xmlns:xlink="http://www.w3.org/1999/xlink">
<g id="graph0" class="graph" transform="scale(1 1) rotate(0) translate(4 136)">
<title>DacSigGenLane</title>
<polygon fill="#ffffff" stroke="transparent" points="-4,4 -4,-136 156,-136 156,4 -4,4"/>
<!-- Node0 -->
<g id="node1" class="node">
<title>Node0</title>
<polygon fill="#bfbfbf" stroke="#000000" points="21.5,-112.5 21.5,-131.5 114.5,-131.5 114.5,-112.5 21.5,-112.5"/>
<text text-anchor="middle" x="68" y="-119.5" font-family="Helvetica,sans-Serif" font-size="10.00" fill="#000000">DacSigGenLane</text>
</g>
<!-- Node1 -->
<g id="node2" class="node">
<title>Node1</title>
<g id="a_node2"><a xlink:href="classDacSigGen.html" target="_top" xlink:title="DacSigGen">
<polygon fill="#ffffff" stroke="#000000" points="33,-56.5 33,-75.5 103,-75.5 103,-56.5 33,-56.5"/>
<text text-anchor="middle" x="68" y="-63.5" font-family="Helvetica,sans-Serif" font-size="10.00" fill="#000000">DacSigGen</text>
</a>
</g>
</g>
<!-- Node0&#45;&gt;Node1 -->
<g id="edge1" class="edge">
<title>Node0&#45;&gt;Node1</title>
<path fill="none" stroke="#191970" d="M68,-102.1575C68,-93.155 68,-82.9199 68,-75.6427"/>
<polygon fill="#191970" stroke="#191970" points="64.5001,-102.2455 68,-112.2455 71.5001,-102.2456 64.5001,-102.2455"/>
</g>
<!-- Node2 -->
<g id="node3" class="node">
<title>Node2</title>
<g id="a_node3"><a xlink:href="classAppTop.html" target="_top" xlink:title="AppTop">
<polygon fill="#ffffff" stroke="#000000" points="0,-.5 0,-19.5 52,-19.5 52,-.5 0,-.5"/>
<text text-anchor="middle" x="26" y="-7.5" font-family="Helvetica,sans-Serif" font-size="10.00" fill="#000000">AppTop</text>
</a>
</g>
</g>
<!-- Node1&#45;&gt;Node2 -->
<g id="edge2" class="edge">
<title>Node1&#45;&gt;Node2</title>
<path fill="none" stroke="#191970" d="M54.6584,-48.2112C47.5604,-38.7472 39.1097,-27.4797 33.232,-19.6427"/>
<polygon fill="#191970" stroke="#191970" points="51.8841,-50.3455 60.6842,-56.2455 57.4841,-46.1455 51.8841,-50.3455"/>
</g>
<!-- Node3 -->
<g id="node4" class="node">
<title>Node3</title>
<g id="a_node4"><a xlink:href="classDacSigGenTb.html" target="_top" xlink:title="DacSigGenTb">
<polygon fill="#ffffff" stroke="#000000" points="70,-.5 70,-19.5 152,-19.5 152,-.5 70,-.5"/>
<text text-anchor="middle" x="111" y="-7.5" font-family="Helvetica,sans-Serif" font-size="10.00" fill="#000000">DacSigGenTb</text>
</a>
</g>
</g>
<!-- Node1&#45;&gt;Node3 -->
<g id="edge3" class="edge">
<title>Node1&#45;&gt;Node3</title>
<path fill="none" stroke="#191970" d="M81.6592,-48.2112C88.9263,-38.7472 97.5781,-27.4797 103.5958,-19.6427"/>
<polygon fill="#191970" stroke="#191970" points="78.8043,-46.1824 75.49,-56.2455 84.3564,-50.4456 78.8043,-46.1824"/>
</g>
</g>
</svg>
