<?xml version="1.0" encoding="UTF-8" standalone="no"?>
<!DOCTYPE svg PUBLIC "-//W3C//DTD SVG 1.1//EN"
 "http://www.w3.org/Graphics/SVG/1.1/DTD/svg11.dtd">
<!-- Generated by graphviz version 2.43.0 (0)
 -->
<!-- Title: Graphical Class Hierarchy Pages: 1 -->
<svg width="540pt" height="142pt"
 viewBox="0.00 0.00 540.00 142.00" xmlns="http://www.w3.org/2000/svg" xmlns:xlink="http://www.w3.org/1999/xlink">
<g id="graph0" class="graph" transform="scale(1 1) rotate(0) translate(4 138)">
<title>Graphical Class Hierarchy</title>
<polygon fill="white" stroke="transparent" points="-4,4 -4,-138 536,-138 536,4 -4,4"/>
<!-- Node125 -->
<g id="node1" class="node">
<title>Node125</title>
<g id="a_node1"><a xlink:href="classAd9229Deserializer.html" target="_top" xlink:title=" ">
<polygon fill="white" stroke="black" points="0,-114.5 0,-133.5 112,-133.5 112,-114.5 0,-114.5"/>
<text text-anchor="middle" x="56" y="-121.5" font-family="Helvetica,sans-Serif" font-size="10.00">Ad9229Deserializer</text>
</a>
</g>
</g>
<!-- Node126 -->
<g id="node2" class="node">
<title>Node126</title>
<g id="a_node2"><a xlink:href="classAd9229Core.html" target="_top" xlink:title=" ">
<polygon fill="white" stroke="black" points="164.5,-114.5 164.5,-133.5 240.5,-133.5 240.5,-114.5 164.5,-114.5"/>
<text text-anchor="middle" x="202.5" y="-121.5" font-family="Helvetica,sans-Serif" font-size="10.00">Ad9229Core</text>
</a>
</g>
</g>
<!-- Node125&#45;&gt;Node126 -->
<g id="edge1" class="edge">
<title>Node125&#45;&gt;Node126</title>
<path fill="none" stroke="midnightblue" d="M122.36,-124C136.66,-124 151.32,-124 164.08,-124"/>
<polygon fill="midnightblue" stroke="midnightblue" points="122.04,-120.5 112.04,-124 122.04,-127.5 122.04,-120.5"/>
</g>
<!-- Node1 -->
<g id="node3" class="node">
<title>Node1</title>
<g id="a_node3"><a xlink:href="classRtmRfInterlockCore.html" target="_top" xlink:title=" ">
<polygon fill="white" stroke="black" points="293,-57.5 293,-76.5 406,-76.5 406,-57.5 293,-57.5"/>
<text text-anchor="middle" x="349.5" y="-64.5" font-family="Helvetica,sans-Serif" font-size="10.00">RtmRfInterlockCore</text>
</a>
</g>
</g>
<!-- Node126&#45;&gt;Node1 -->
<g id="edge2" class="edge">
<title>Node126&#45;&gt;Node1</title>
<path fill="none" stroke="midnightblue" d="M240.94,-110.99C246.34,-109.03 251.83,-106.99 257,-105 280.92,-95.79 307.99,-84.43 326.44,-76.54"/>
<polygon fill="midnightblue" stroke="midnightblue" points="239.6,-107.75 231.37,-114.41 241.96,-114.34 239.6,-107.75"/>
</g>
<!-- Node2 -->
<g id="node4" class="node">
<title>Node2</title>
<g id="a_node4"><a xlink:href="classRtmRfInterlock.html" target="_top" xlink:title=" ">
<polygon fill="white" stroke="black" points="442,-57.5 442,-76.5 532,-76.5 532,-57.5 442,-57.5"/>
<text text-anchor="middle" x="487" y="-64.5" font-family="Helvetica,sans-Serif" font-size="10.00">RtmRfInterlock</text>
</a>
</g>
</g>
<!-- Node1&#45;&gt;Node2 -->
<g id="edge3" class="edge">
<title>Node1&#45;&gt;Node2</title>
<path fill="none" stroke="midnightblue" d="M416.21,-67C424.95,-67 433.73,-67 441.98,-67"/>
<polygon fill="midnightblue" stroke="midnightblue" points="416,-63.5 406,-67 416,-70.5 416,-63.5"/>
</g>
<!-- Node76 -->
<g id="node5" class="node">
<title>Node76</title>
<g id="a_node5"><a xlink:href="classAxiSpiAd7682Reg.html" target="_top" xlink:title=" ">
<polygon fill="white" stroke="black" points="4.5,-76.5 4.5,-95.5 107.5,-95.5 107.5,-76.5 4.5,-76.5"/>
<text text-anchor="middle" x="56" y="-83.5" font-family="Helvetica,sans-Serif" font-size="10.00">AxiSpiAd7682Reg</text>
</a>
</g>
</g>
<!-- Node77 -->
<g id="node6" class="node">
<title>Node77</title>
<g id="a_node6"><a xlink:href="classAxiSpiAd7682.html" target="_top" xlink:title=" ">
<polygon fill="white" stroke="black" points="160.5,-76.5 160.5,-95.5 244.5,-95.5 244.5,-76.5 160.5,-76.5"/>
<text text-anchor="middle" x="202.5" y="-83.5" font-family="Helvetica,sans-Serif" font-size="10.00">AxiSpiAd7682</text>
</a>
</g>
</g>
<!-- Node76&#45;&gt;Node77 -->
<g id="edge4" class="edge">
<title>Node76&#45;&gt;Node77</title>
<path fill="none" stroke="midnightblue" d="M117.82,-86C132.14,-86 147.08,-86 160.3,-86"/>
<polygon fill="midnightblue" stroke="midnightblue" points="117.54,-82.5 107.54,-86 117.54,-89.5 117.54,-82.5"/>
</g>
<!-- Node77&#45;&gt;Node1 -->
<g id="edge5" class="edge">
<title>Node77&#45;&gt;Node1</title>
<path fill="none" stroke="midnightblue" d="M254.78,-79.28C267.12,-77.66 280.36,-75.93 292.88,-74.29"/>
<polygon fill="midnightblue" stroke="midnightblue" points="254.12,-75.84 244.66,-80.61 255.03,-82.78 254.12,-75.84"/>
</g>
<!-- Node23 -->
<g id="node7" class="node">
<title>Node23</title>
<g id="a_node7"><a xlink:href="classRingBufferCtrl.html" target="_top" xlink:title=" ">
<polygon fill="white" stroke="black" points="160,-38.5 160,-57.5 245,-57.5 245,-38.5 160,-38.5"/>
<text text-anchor="middle" x="202.5" y="-45.5" font-family="Helvetica,sans-Serif" font-size="10.00">RingBufferCtrl</text>
</a>
</g>
</g>
<!-- Node23&#45;&gt;Node1 -->
<g id="edge6" class="edge">
<title>Node23&#45;&gt;Node1</title>
<path fill="none" stroke="midnightblue" d="M255.1,-54.76C267.35,-56.37 280.47,-58.09 292.88,-59.71"/>
<polygon fill="midnightblue" stroke="midnightblue" points="255.42,-51.27 245.05,-53.44 254.51,-58.21 255.42,-51.27"/>
</g>
<!-- Node0 -->
<g id="node8" class="node">
<title>Node0</title>
<g id="a_node8"><a xlink:href="classRtmRfInterlockReg.html" target="_top" xlink:title=" ">
<polygon fill="white" stroke="black" points="148,-0.5 148,-19.5 257,-19.5 257,-0.5 148,-0.5"/>
<text text-anchor="middle" x="202.5" y="-7.5" font-family="Helvetica,sans-Serif" font-size="10.00">RtmRfInterlockReg</text>
</a>
</g>
</g>
<!-- Node0&#45;&gt;Node1 -->
<g id="edge7" class="edge">
<title>Node0&#45;&gt;Node1</title>
<path fill="none" stroke="midnightblue" d="M240.94,-23.01C246.34,-24.97 251.83,-27.01 257,-29 280.92,-38.21 307.99,-49.57 326.44,-57.46"/>
<polygon fill="midnightblue" stroke="midnightblue" points="241.96,-19.66 231.37,-19.59 239.6,-26.25 241.96,-19.66"/>
</g>
</g>
</svg>
