<?xml version="1.0" encoding="UTF-8" standalone="no"?>
<!DOCTYPE svg PUBLIC "-//W3C//DTD SVG 1.1//EN"
 "http://www.w3.org/Graphics/SVG/1.1/DTD/svg11.dtd">
<!-- Generated by graphviz version 2.40.1 (20161225.0304)
 -->
<!-- Title: Graphical Class Hierarchy Pages: 1 -->
<svg width="612pt" height="560pt"
 viewBox="0.00 0.00 612.00 560.00" xmlns="http://www.w3.org/2000/svg" xmlns:xlink="http://www.w3.org/1999/xlink">
<g id="graph0" class="graph" transform="scale(1 1) rotate(0) translate(4 556)">
<title>Graphical Class Hierarchy</title>
<polygon fill="#ffffff" stroke="transparent" points="-4,4 -4,-556 608,-556 608,4 -4,4"/>
<!-- Node122 -->
<g id="node1" class="node">
<title>Node122</title>
<g id="a_node1"><a xlink:href="classadf5355.html" target="_top" xlink:title="adf5355">
<polygon fill="#ffffff" stroke="#000000" points="66.5,-532.5 66.5,-551.5 122.5,-551.5 122.5,-532.5 66.5,-532.5"/>
<text text-anchor="middle" x="94.5" y="-539.5" font-family="Helvetica,sans-Serif" font-size="10.00" fill="#000000">adf5355</text>
</a>
</g>
</g>
<!-- Node123 -->
<g id="node2" class="node">
<title>Node123</title>
<g id="a_node2"><a xlink:href="classAdf5355Tb.html" target="_top" xlink:title="Adf5355Tb">
<polygon fill="#ffffff" stroke="#000000" points="283,-532.5 283,-551.5 352,-551.5 352,-532.5 283,-532.5"/>
<text text-anchor="middle" x="317.5" y="-539.5" font-family="Helvetica,sans-Serif" font-size="10.00" fill="#000000">Adf5355Tb</text>
</a>
</g>
</g>
<!-- Node122&#45;&gt;Node123 -->
<g id="edge1" class="edge">
<title>Node122&#45;&gt;Node123</title>
<path fill="none" stroke="#191970" d="M132.9031,-542C175.1059,-542 242.2867,-542 282.9086,-542"/>
<polygon fill="#191970" stroke="#191970" points="132.7431,-538.5001 122.7431,-542 132.7431,-545.5001 132.7431,-538.5001"/>
</g>
<!-- Node44 -->
<g id="node3" class="node">
<title>Node44</title>
<g id="a_node3"><a xlink:href="classAmcMicrowaveMuxCore.html" target="_top" xlink:title="AmcMicrowaveMuxCore">
<polygon fill="#ffffff" stroke="#000000" points="250.5,-456.5 250.5,-475.5 384.5,-475.5 384.5,-456.5 250.5,-456.5"/>
<text text-anchor="middle" x="317.5" y="-463.5" font-family="Helvetica,sans-Serif" font-size="10.00" fill="#000000">AmcMicrowaveMuxCore</text>
</a>
</g>
</g>
<!-- Node122&#45;&gt;Node44 -->
<g id="edge2" class="edge">
<title>Node122&#45;&gt;Node44</title>
<path fill="none" stroke="#191970" d="M132.941,-536.2404C150.2908,-533.1406 170.9073,-528.7549 189,-523 229.7001,-510.0543 274.8036,-488.1716 299.2711,-475.6201"/>
<polygon fill="#191970" stroke="#191970" points="131.8799,-532.8709 122.6122,-538.0051 133.0589,-539.7709 131.8799,-532.8709"/>
</g>
<!-- Node45 -->
<g id="node4" class="node">
<title>Node45</title>
<g id="a_node4"><a xlink:href="classAmcMicrowaveMuxDualCore.html" target="_top" xlink:title="AmcMicrowaveMuxDualCore">
<polygon fill="#ffffff" stroke="#000000" points="447,-456.5 447,-475.5 603,-475.5 603,-456.5 447,-456.5"/>
<text text-anchor="middle" x="525" y="-463.5" font-family="Helvetica,sans-Serif" font-size="10.00" fill="#000000">AmcMicrowaveMuxDualCore</text>
</a>
</g>
</g>
<!-- Node44&#45;&gt;Node45 -->
<g id="edge3" class="edge">
<title>Node44&#45;&gt;Node45</title>
<path fill="none" stroke="#191970" d="M395.0049,-466C411.9801,-466 429.9587,-466 446.955,-466"/>
<polygon fill="#191970" stroke="#191970" points="394.5828,-462.5001 384.5827,-466 394.5827,-469.5001 394.5828,-462.5001"/>
</g>
<!-- Node121 -->
<g id="node5" class="node">
<title>Node121</title>
<g id="a_node5"><a xlink:href="classAmcBpmCtrl.html" target="_top" xlink:title="AmcBpmCtrl">
<polygon fill="#ffffff" stroke="#000000" points="55.5,-380.5 55.5,-399.5 133.5,-399.5 133.5,-380.5 55.5,-380.5"/>
<text text-anchor="middle" x="94.5" y="-387.5" font-family="Helvetica,sans-Serif" font-size="10.00" fill="#000000">AmcBpmCtrl</text>
</a>
</g>
</g>
<!-- Node50 -->
<g id="node6" class="node">
<title>Node50</title>
<g id="a_node6"><a xlink:href="classAmcStriplineBpmCore.html" target="_top" xlink:title="AmcStriplineBpmCore">
<polygon fill="#ffffff" stroke="#000000" points="255.5,-418.5 255.5,-437.5 379.5,-437.5 379.5,-418.5 255.5,-418.5"/>
<text text-anchor="middle" x="317.5" y="-425.5" font-family="Helvetica,sans-Serif" font-size="10.00" fill="#000000">AmcStriplineBpmCore</text>
</a>
</g>
</g>
<!-- Node121&#45;&gt;Node50 -->
<g id="edge4" class="edge">
<title>Node121&#45;&gt;Node50</title>
<path fill="none" stroke="#191970" d="M143.5559,-398.3593C178.4407,-404.3038 225.3614,-412.2993 261.6795,-418.488"/>
<polygon fill="#191970" stroke="#191970" points="144.0447,-394.8922 133.5988,-396.6626 142.8688,-401.7927 144.0447,-394.8922"/>
</g>
<!-- Node51 -->
<g id="node7" class="node">
<title>Node51</title>
<g id="a_node7"><a xlink:href="classAmcStriplineBpmDualCore.html" target="_top" xlink:title="AmcStriplineBpmDualCore">
<polygon fill="#ffffff" stroke="#000000" points="452,-418.5 452,-437.5 598,-437.5 598,-418.5 452,-418.5"/>
<text text-anchor="middle" x="525" y="-425.5" font-family="Helvetica,sans-Serif" font-size="10.00" fill="#000000">AmcStriplineBpmDualCore</text>
</a>
</g>
</g>
<!-- Node50&#45;&gt;Node51 -->
<g id="edge5" class="edge">
<title>Node50&#45;&gt;Node51</title>
<path fill="none" stroke="#191970" d="M389.7733,-428C409.8621,-428 431.6899,-428 451.8296,-428"/>
<polygon fill="#191970" stroke="#191970" points="389.7569,-424.5001 379.7568,-428 389.7568,-431.5001 389.7569,-424.5001"/>
</g>
<!-- Node120 -->
<g id="node8" class="node">
<title>Node120</title>
<g id="a_node8"><a xlink:href="classAmcBpmDacVcoSpi.html" target="_top" xlink:title="AmcBpmDacVcoSpi">
<polygon fill="#ffffff" stroke="#000000" points="38,-418.5 38,-437.5 151,-437.5 151,-418.5 38,-418.5"/>
<text text-anchor="middle" x="94.5" y="-425.5" font-family="Helvetica,sans-Serif" font-size="10.00" fill="#000000">AmcBpmDacVcoSpi</text>
</a>
</g>
</g>
<!-- Node120&#45;&gt;Node50 -->
<g id="edge6" class="edge">
<title>Node120&#45;&gt;Node50</title>
<path fill="none" stroke="#191970" d="M161.3509,-428C191.0915,-428 225.9087,-428 255.1099,-428"/>
<polygon fill="#191970" stroke="#191970" points="161.0606,-424.5001 151.0606,-428 161.0606,-431.5001 161.0606,-424.5001"/>
</g>
<!-- Node108 -->
<g id="node9" class="node">
<title>Node108</title>
<g id="a_node9"><a xlink:href="classAmcCryoCoreCtrl.html" target="_top" xlink:title="AmcCryoCoreCtrl">
<polygon fill="#ffffff" stroke="#000000" points="44,-342.5 44,-361.5 145,-361.5 145,-342.5 44,-342.5"/>
<text text-anchor="middle" x="94.5" y="-349.5" font-family="Helvetica,sans-Serif" font-size="10.00" fill="#000000">AmcCryoCoreCtrl</text>
</a>
</g>
</g>
<!-- Node38 -->
<g id="node10" class="node">
<title>Node38</title>
<g id="a_node10"><a xlink:href="classAmcCryoCore.html" target="_top" xlink:title="AmcCryoCore">
<polygon fill="#ffffff" stroke="#000000" points="276,-380.5 276,-399.5 359,-399.5 359,-380.5 276,-380.5"/>
<text text-anchor="middle" x="317.5" y="-387.5" font-family="Helvetica,sans-Serif" font-size="10.00" fill="#000000">AmcCryoCore</text>
</a>
</g>
</g>
<!-- Node108&#45;&gt;Node38 -->
<g id="edge7" class="edge">
<title>Node108&#45;&gt;Node38</title>
<path fill="none" stroke="#191970" d="M155.0894,-362.3247C193.3175,-368.8389 241.7126,-377.0856 275.6924,-382.8758"/>
<polygon fill="#191970" stroke="#191970" points="155.548,-358.8524 145.1022,-360.6228 154.3721,-365.753 155.548,-358.8524"/>
</g>
<!-- Node39 -->
<g id="node11" class="node">
<title>Node39</title>
<g id="a_node11"><a xlink:href="classAmcCryoDualCore.html" target="_top" xlink:title="AmcCryoDualCore">
<polygon fill="#ffffff" stroke="#000000" points="472,-380.5 472,-399.5 578,-399.5 578,-380.5 472,-380.5"/>
<text text-anchor="middle" x="525" y="-387.5" font-family="Helvetica,sans-Serif" font-size="10.00" fill="#000000">AmcCryoDualCore</text>
</a>
</g>
</g>
<!-- Node38&#45;&gt;Node39 -->
<g id="edge8" class="edge">
<title>Node38&#45;&gt;Node39</title>
<path fill="none" stroke="#191970" d="M369.7453,-390C400.9981,-390 440.6056,-390 471.9928,-390"/>
<polygon fill="#191970" stroke="#191970" points="369.4908,-386.5001 359.4907,-390 369.4907,-393.5001 369.4908,-386.5001"/>
</g>
<!-- Node105 -->
<g id="node12" class="node">
<title>Node105</title>
<g id="a_node12"><a xlink:href="classAmcGenericAdcDacCtrl.html" target="_top" xlink:title="AmcGenericAdcDacCtrl">
<polygon fill="#ffffff" stroke="#000000" points="29.5,-114.5 29.5,-133.5 159.5,-133.5 159.5,-114.5 29.5,-114.5"/>
<text text-anchor="middle" x="94.5" y="-121.5" font-family="Helvetica,sans-Serif" font-size="10.00" fill="#000000">AmcGenericAdcDacCtrl</text>
</a>
</g>
</g>
<!-- Node42 -->
<g id="node13" class="node">
<title>Node42</title>
<g id="a_node13"><a xlink:href="classAmcGenericAdcDacCore.html" target="_top" xlink:title="AmcGenericAdcDacCore">
<polygon fill="#ffffff" stroke="#000000" points="250,-114.5 250,-133.5 385,-133.5 385,-114.5 250,-114.5"/>
<text text-anchor="middle" x="317.5" y="-121.5" font-family="Helvetica,sans-Serif" font-size="10.00" fill="#000000">AmcGenericAdcDacCore</text>
</a>
</g>
</g>
<!-- Node105&#45;&gt;Node42 -->
<g id="edge9" class="edge">
<title>Node105&#45;&gt;Node42</title>
<path fill="none" stroke="#191970" d="M169.7749,-124C195.7535,-124 224.6755,-124 249.9934,-124"/>
<polygon fill="#191970" stroke="#191970" points="169.6003,-120.5001 159.6003,-124 169.6003,-127.5001 169.6003,-120.5001"/>
</g>
<!-- Node43 -->
<g id="node14" class="node">
<title>Node43</title>
<g id="a_node14"><a xlink:href="classAmcGenericAdcDacDualCore.html" target="_top" xlink:title="AmcGenericAdcDacDualCore">
<polygon fill="#ffffff" stroke="#000000" points="446,-114.5 446,-133.5 604,-133.5 604,-114.5 446,-114.5"/>
<text text-anchor="middle" x="525" y="-121.5" font-family="Helvetica,sans-Serif" font-size="10.00" fill="#000000">AmcGenericAdcDacDualCore</text>
</a>
</g>
</g>
<!-- Node42&#45;&gt;Node43 -->
<g id="edge10" class="edge">
<title>Node42&#45;&gt;Node43</title>
<path fill="none" stroke="#191970" d="M395.3111,-124C411.8417,-124 429.311,-124 445.8895,-124"/>
<polygon fill="#191970" stroke="#191970" points="395.1562,-120.5001 385.1561,-124 395.1561,-127.5001 395.1562,-120.5001"/>
</g>
<!-- Node104 -->
<g id="node15" class="node">
<title>Node104</title>
<g id="a_node15"><a xlink:href="classAmcGenericAdcDacVcoSpi.html" target="_top" xlink:title="AmcGenericAdcDacVcoSpi">
<polygon fill="#ffffff" stroke="#000000" points="21.5,-152.5 21.5,-171.5 167.5,-171.5 167.5,-152.5 21.5,-152.5"/>
<text text-anchor="middle" x="94.5" y="-159.5" font-family="Helvetica,sans-Serif" font-size="10.00" fill="#000000">AmcGenericAdcDacVcoSpi</text>
</a>
</g>
</g>
<!-- Node104&#45;&gt;Node42 -->
<g id="edge11" class="edge">
<title>Node104&#45;&gt;Node42</title>
<path fill="none" stroke="#191970" d="M160.6717,-150.7241C192.7542,-145.2571 230.8708,-138.7619 261.4925,-133.5439"/>
<polygon fill="#191970" stroke="#191970" points="159.7544,-147.3299 150.4845,-152.46 160.9303,-154.2304 159.7544,-147.3299"/>
</g>
<!-- Node101 -->
<g id="node16" class="node">
<title>Node101</title>
<g id="a_node16"><a xlink:href="classAmcMicrowaveMuxCoreCtrl.html" target="_top" xlink:title="AmcMicrowaveMuxCoreCtrl">
<polygon fill="#ffffff" stroke="#000000" points="19,-456.5 19,-475.5 170,-475.5 170,-456.5 19,-456.5"/>
<text text-anchor="middle" x="94.5" y="-463.5" font-family="Helvetica,sans-Serif" font-size="10.00" fill="#000000">AmcMicrowaveMuxCoreCtrl</text>
</a>
</g>
</g>
<!-- Node101&#45;&gt;Node44 -->
<g id="edge12" class="edge">
<title>Node101&#45;&gt;Node44</title>
<path fill="none" stroke="#191970" d="M180.498,-466C203.7117,-466 228.4837,-466 250.4899,-466"/>
<polygon fill="#191970" stroke="#191970" points="180.3088,-462.5001 170.3088,-466 180.3088,-469.5001 180.3088,-462.5001"/>
</g>
<!-- Node95 -->
<g id="node17" class="node">
<title>Node95</title>
<g id="a_node17"><a xlink:href="classAmcMrLlrfDownConvertDacMuxReg.html" target="_top" xlink:title="AmcMrLlrfDownConvertDacMuxReg">
<polygon fill="#ffffff" stroke="#000000" points="0,-76.5 0,-95.5 189,-95.5 189,-76.5 0,-76.5"/>
<text text-anchor="middle" x="94.5" y="-83.5" font-family="Helvetica,sans-Serif" font-size="10.00" fill="#000000">AmcMrLlrfDownConvertDacMuxReg</text>
</a>
</g>
</g>
<!-- Node96 -->
<g id="node18" class="node">
<title>Node96</title>
<g id="a_node18"><a xlink:href="classAmcMrLlrfDownConvertDacMux.html" target="_top" xlink:title="AmcMrLlrfDownConvertDacMux">
<polygon fill="#ffffff" stroke="#000000" points="232,-76.5 232,-95.5 403,-95.5 403,-76.5 232,-76.5"/>
<text text-anchor="middle" x="317.5" y="-83.5" font-family="Helvetica,sans-Serif" font-size="10.00" fill="#000000">AmcMrLlrfDownConvertDacMux</text>
</a>
</g>
</g>
<!-- Node95&#45;&gt;Node96 -->
<g id="edge13" class="edge">
<title>Node95&#45;&gt;Node96</title>
<path fill="none" stroke="#191970" d="M199.1379,-86C210.1394,-86 221.2302,-86 231.9799,-86"/>
<polygon fill="#191970" stroke="#191970" points="199.0721,-82.5001 189.0721,-86 199.072,-89.5001 199.0721,-82.5001"/>
</g>
<!-- Node46 -->
<g id="node19" class="node">
<title>Node46</title>
<g id="a_node19"><a xlink:href="classAmcMrLlrfDownConvertCore.html" target="_top" xlink:title="AmcMrLlrfDownConvertCore">
<polygon fill="#ffffff" stroke="#000000" points="447.5,-190.5 447.5,-209.5 602.5,-209.5 602.5,-190.5 447.5,-190.5"/>
<text text-anchor="middle" x="525" y="-197.5" font-family="Helvetica,sans-Serif" font-size="10.00" fill="#000000">AmcMrLlrfDownConvertCore</text>
</a>
</g>
</g>
<!-- Node96&#45;&gt;Node46 -->
<g id="edge14" class="edge">
<title>Node96&#45;&gt;Node46</title>
<path fill="none" stroke="#191970" d="M402.7532,-100.0541C405.2777,-101.5527 407.7029,-103.1969 410,-105 439.3999,-128.0778 416.99,-157.4339 446,-181 450.7081,-184.8246 456.0634,-187.9004 461.7157,-190.3711"/>
<polygon fill="#191970" stroke="#191970" points="404.3281,-96.9284 393.83,-95.5001 401.146,-103.1633 404.3281,-96.9284"/>
</g>
<!-- Node77 -->
<g id="node20" class="node">
<title>Node77</title>
<g id="a_node20"><a xlink:href="classAxiSerAttnMaster.html" target="_top" xlink:title="AxiSerAttnMaster">
<polygon fill="#ffffff" stroke="#000000" points="267,-228.5 267,-247.5 368,-247.5 368,-228.5 267,-228.5"/>
<text text-anchor="middle" x="317.5" y="-235.5" font-family="Helvetica,sans-Serif" font-size="10.00" fill="#000000">AxiSerAttnMaster</text>
</a>
</g>
</g>
<!-- Node77&#45;&gt;Node46 -->
<g id="edge15" class="edge">
<title>Node77&#45;&gt;Node46</title>
<path fill="none" stroke="#191970" d="M378.2098,-226.8821C408.2658,-221.3778 444.1793,-214.8009 472.9601,-209.5302"/>
<polygon fill="#191970" stroke="#191970" points="377.4661,-223.46 368.2602,-228.7042 378.7271,-230.3455 377.4661,-223.46"/>
</g>
<!-- Node48 -->
<g id="node21" class="node">
<title>Node48</title>
<g id="a_node21"><a xlink:href="classAmcMrLlrfGen2UpConvert.html" target="_top" xlink:title="AmcMrLlrfGen2UpConvert">
<polygon fill="#ffffff" stroke="#000000" points="453.5,-247.5 453.5,-266.5 596.5,-266.5 596.5,-247.5 453.5,-247.5"/>
<text text-anchor="middle" x="525" y="-254.5" font-family="Helvetica,sans-Serif" font-size="10.00" fill="#000000">AmcMrLlrfGen2UpConvert</text>
</a>
</g>
</g>
<!-- Node77&#45;&gt;Node48 -->
<g id="edge16" class="edge">
<title>Node77&#45;&gt;Node48</title>
<path fill="none" stroke="#191970" d="M378.4155,-243.5778C401.8593,-245.7245 428.8424,-248.1952 453.2168,-250.4271"/>
<polygon fill="#191970" stroke="#191970" points="378.5377,-240.0744 368.2602,-242.6479 377.8994,-247.0453 378.5377,-240.0744"/>
</g>
<!-- Node1 -->
<g id="node22" class="node">
<title>Node1</title>
<g id="a_node22"><a xlink:href="classAmcMrLlrfUpConvertCore.html" target="_top" xlink:title="AmcMrLlrfUpConvertCore">
<polygon fill="#ffffff" stroke="#000000" points="455,-152.5 455,-171.5 595,-171.5 595,-152.5 455,-152.5"/>
<text text-anchor="middle" x="525" y="-159.5" font-family="Helvetica,sans-Serif" font-size="10.00" fill="#000000">AmcMrLlrfUpConvertCore</text>
</a>
</g>
</g>
<!-- Node77&#45;&gt;Node1 -->
<g id="edge17" class="edge">
<title>Node77&#45;&gt;Node1</title>
<path fill="none" stroke="#191970" d="M378.4287,-230.9985C389.3673,-228.2267 400.3465,-224.3682 410,-219 430.3322,-207.6936 425.8596,-192.6448 446,-181 452.7166,-177.1166 460.1937,-174.0248 467.7944,-171.5638"/>
<polygon fill="#191970" stroke="#191970" points="377.4198,-227.638 368.4337,-233.2506 378.9585,-234.4668 377.4198,-227.638"/>
</g>
<!-- Node53 -->
<g id="node23" class="node">
<title>Node53</title>
<g id="a_node23"><a xlink:href="classhmc305.html" target="_top" xlink:title="hmc305">
<polygon fill="#ffffff" stroke="#000000" points="66.5,-494.5 66.5,-513.5 122.5,-513.5 122.5,-494.5 66.5,-494.5"/>
<text text-anchor="middle" x="94.5" y="-501.5" font-family="Helvetica,sans-Serif" font-size="10.00" fill="#000000">hmc305</text>
</a>
</g>
</g>
<!-- Node53&#45;&gt;Node44 -->
<g id="edge18" class="edge">
<title>Node53&#45;&gt;Node44</title>
<path fill="none" stroke="#191970" d="M132.7044,-497.4898C168.1982,-491.4416 221.4832,-482.3616 261.7289,-475.5036"/>
<polygon fill="#191970" stroke="#191970" points="132.013,-494.0571 122.7431,-499.1873 133.189,-500.9576 132.013,-494.0571"/>
</g>
<!-- Node52 -->
<g id="node24" class="node">
<title>Node52</title>
<g id="a_node24"><a xlink:href="classJesdSyncIn.html" target="_top" xlink:title="JesdSyncIn">
<polygon fill="#ffffff" stroke="#000000" points="60,-266.5 60,-285.5 129,-285.5 129,-266.5 60,-266.5"/>
<text text-anchor="middle" x="94.5" y="-273.5" font-family="Helvetica,sans-Serif" font-size="10.00" fill="#000000">JesdSyncIn</text>
</a>
</g>
</g>
<!-- Node52&#45;&gt;Node44 -->
<g id="edge23" class="edge">
<title>Node52&#45;&gt;Node44</title>
<path fill="none" stroke="#191970" d="M139.3776,-275.0784C156.9196,-277.03 175.9231,-282.3621 189,-295 238.9214,-343.2453 175.1794,-398.6506 225,-447 232.059,-453.8505 240.8902,-458.5335 250.2752,-461.6888"/>
<polygon fill="#191970" stroke="#191970" points="139.5158,-271.5786 129.2739,-274.2903 138.9714,-278.5574 139.5158,-271.5786"/>
</g>
<!-- Node52&#45;&gt;Node50 -->
<g id="edge29" class="edge">
<title>Node52&#45;&gt;Node50</title>
<path fill="none" stroke="#191970" d="M139.3295,-275.6104C156.6896,-277.6727 175.5727,-282.9434 189,-295 228.5343,-330.4986 185.5399,-373.4189 225,-409 233.5229,-416.685 244.3008,-421.5879 255.4634,-424.6555"/>
<polygon fill="#191970" stroke="#191970" points="139.603,-272.1211 129.3369,-274.7399 138.9954,-279.0947 139.603,-272.1211"/>
</g>
<!-- Node52&#45;&gt;Node38 -->
<g id="edge19" class="edge">
<title>Node52&#45;&gt;Node38</title>
<path fill="none" stroke="#191970" d="M139.0092,-279.2654C155.4924,-281.9018 173.8429,-286.6128 189,-295 209.3558,-306.264 206.9445,-318.3292 225,-333 248.7164,-352.2704 279.4585,-369.9774 298.8371,-380.3829"/>
<polygon fill="#191970" stroke="#191970" points="139.4195,-275.7889 129.0327,-277.8777 138.4551,-282.7221 139.4195,-275.7889"/>
</g>
<!-- Node52&#45;&gt;Node42 -->
<g id="edge22" class="edge">
<title>Node52&#45;&gt;Node42</title>
<path fill="none" stroke="#191970" d="M111.393,-258.9711C145.1333,-225.0237 218.2234,-151.8333 225,-148 236.1192,-141.7102 248.9179,-137.0329 261.3799,-133.567"/>
<polygon fill="#191970" stroke="#191970" points="108.6548,-256.7613 104.0914,-266.323 113.6215,-261.694 108.6548,-256.7613"/>
</g>
<!-- Node52&#45;&gt;Node46 -->
<g id="edge24" class="edge">
<title>Node52&#45;&gt;Node46</title>
<path fill="none" stroke="#191970" d="M110.5919,-258.8739C133.4458,-235.9401 177.8017,-196.36 225,-181 303.1861,-155.5555 328.0532,-174.2761 410,-181 432.5883,-182.8534 457.4236,-186.7218 478.2162,-190.4873"/>
<polygon fill="#191970" stroke="#191970" points="107.9034,-256.6179 103.4355,-266.2246 112.9191,-261.5009 107.9034,-256.6179"/>
</g>
<!-- Node40 -->
<g id="node25" class="node">
<title>Node40</title>
<g id="a_node25"><a xlink:href="classAmcCryoDemoCore.html" target="_top" xlink:title="AmcCryoDemoCore">
<polygon fill="#ffffff" stroke="#000000" points="261,-304.5 261,-323.5 374,-323.5 374,-304.5 261,-304.5"/>
<text text-anchor="middle" x="317.5" y="-311.5" font-family="Helvetica,sans-Serif" font-size="10.00" fill="#000000">AmcCryoDemoCore</text>
</a>
</g>
</g>
<!-- Node52&#45;&gt;Node40 -->
<g id="edge20" class="edge">
<title>Node52&#45;&gt;Node40</title>
<path fill="none" stroke="#191970" d="M139.345,-283.6417C174.5856,-289.6469 223.8611,-298.0436 261.6593,-304.4845"/>
<polygon fill="#191970" stroke="#191970" points="139.7896,-280.1671 129.3438,-281.9375 138.6137,-287.0677 139.7896,-280.1671"/>
</g>
<!-- Node47 -->
<g id="node27" class="node">
<title>Node47</title>
<g id="a_node27"><a xlink:href="classAmcMrLlrfGen2UpConvertMapping.html" target="_top" xlink:title="AmcMrLlrfGen2UpConvertMapping">
<polygon fill="#ffffff" stroke="#000000" points="225,-266.5 225,-285.5 410,-285.5 410,-266.5 225,-266.5"/>
<text text-anchor="middle" x="317.5" y="-273.5" font-family="Helvetica,sans-Serif" font-size="10.00" fill="#000000">AmcMrLlrfGen2UpConvertMapping</text>
</a>
</g>
</g>
<!-- Node52&#45;&gt;Node47 -->
<g id="edge25" class="edge">
<title>Node52&#45;&gt;Node47</title>
<path fill="none" stroke="#191970" d="M139.4094,-276C163.9223,-276 195.2117,-276 224.704,-276"/>
<polygon fill="#191970" stroke="#191970" points="139.3438,-272.5001 129.3438,-276 139.3437,-279.5001 139.3438,-272.5001"/>
</g>
<!-- Node49 -->
<g id="node28" class="node">
<title>Node49</title>
<g id="a_node28"><a xlink:href="classAmcMrLlrfUpConvertMapping.html" target="_top" xlink:title="AmcMrLlrfUpConvertMapping">
<polygon fill="#ffffff" stroke="#000000" points="238,-190.5 238,-209.5 397,-209.5 397,-190.5 238,-190.5"/>
<text text-anchor="middle" x="317.5" y="-197.5" font-family="Helvetica,sans-Serif" font-size="10.00" fill="#000000">AmcMrLlrfUpConvertMapping</text>
</a>
</g>
</g>
<!-- Node52&#45;&gt;Node49 -->
<g id="edge27" class="edge">
<title>Node52&#45;&gt;Node49</title>
<path fill="none" stroke="#191970" d="M122.2656,-261.8383C148.2467,-249.0811 188.4317,-230.6009 225,-219 236.5638,-215.3315 249.1714,-212.1962 261.253,-209.5925"/>
<polygon fill="#191970" stroke="#191970" points="120.4393,-258.8374 113.0407,-266.4211 123.5537,-265.1065 120.4393,-258.8374"/>
</g>
<!-- Node41 -->
<g id="node26" class="node">
<title>Node41</title>
<g id="a_node26"><a xlink:href="classAmcCryoDemoDualCore.html" target="_top" xlink:title="AmcCryoDemoDualCore">
<polygon fill="#ffffff" stroke="#000000" points="457.5,-304.5 457.5,-323.5 592.5,-323.5 592.5,-304.5 457.5,-304.5"/>
<text text-anchor="middle" x="525" y="-311.5" font-family="Helvetica,sans-Serif" font-size="10.00" fill="#000000">AmcCryoDemoDualCore</text>
</a>
</g>
</g>
<!-- Node40&#45;&gt;Node41 -->
<g id="edge21" class="edge">
<title>Node40&#45;&gt;Node41</title>
<path fill="none" stroke="#191970" d="M384.3556,-314C407.6958,-314 433.9002,-314 457.308,-314"/>
<polygon fill="#191970" stroke="#191970" points="384.2003,-310.5001 374.2003,-314 384.2003,-317.5001 384.2003,-310.5001"/>
</g>
<!-- Node47&#45;&gt;Node48 -->
<g id="edge26" class="edge">
<title>Node47&#45;&gt;Node48</title>
<path fill="none" stroke="#191970" d="M420.2396,-266.5925C431.385,-265.572 442.5458,-264.55 453.2077,-263.5738"/>
<polygon fill="#191970" stroke="#191970" points="419.6624,-263.1306 410.0232,-267.528 420.3008,-270.1015 419.6624,-263.1306"/>
</g>
<!-- Node49&#45;&gt;Node1 -->
<g id="edge28" class="edge">
<title>Node49&#45;&gt;Node1</title>
<path fill="none" stroke="#191970" d="M379.4603,-188.653C409.2318,-183.2009 444.5154,-176.7393 472.8854,-171.5439"/>
<polygon fill="#191970" stroke="#191970" points="378.7991,-185.2158 369.5932,-190.46 380.0601,-192.1013 378.7991,-185.2158"/>
</g>
<!-- Node37 -->
<g id="node29" class="node">
<title>Node37</title>
<g id="a_node29"><a xlink:href="classJesdSyncOut.html" target="_top" xlink:title="JesdSyncOut">
<polygon fill="#ffffff" stroke="#000000" points="56,-304.5 56,-323.5 133,-323.5 133,-304.5 56,-304.5"/>
<text text-anchor="middle" x="94.5" y="-311.5" font-family="Helvetica,sans-Serif" font-size="10.00" fill="#000000">JesdSyncOut</text>
</a>
</g>
</g>
<!-- Node37&#45;&gt;Node44 -->
<g id="edge33" class="edge">
<title>Node37&#45;&gt;Node44</title>
<path fill="none" stroke="#191970" d="M143.0363,-314.0978C159.3354,-316.4529 176.5231,-321.7968 189,-333 228.5343,-368.4986 185.5399,-411.4189 225,-447 232.1835,-453.4774 240.9691,-457.9783 250.2368,-461.0697"/>
<polygon fill="#191970" stroke="#191970" points="143.3771,-310.6143 133.0526,-312.9921 142.6065,-317.5717 143.3771,-310.6143"/>
</g>
<!-- Node37&#45;&gt;Node50 -->
<g id="edge37" class="edge">
<title>Node37&#45;&gt;Node50</title>
<path fill="none" stroke="#191970" d="M143.4777,-315.2672C159.3335,-317.7897 176.1291,-322.9402 189,-333 218.448,-356.0164 195.6001,-385.9222 225,-409 233.7692,-415.8835 244.4062,-420.4507 255.3001,-423.4465"/>
<polygon fill="#191970" stroke="#191970" points="143.6066,-311.7554 133.2445,-313.9639 142.7222,-318.6993 143.6066,-311.7554"/>
</g>
<!-- Node37&#45;&gt;Node38 -->
<g id="edge30" class="edge">
<title>Node37&#45;&gt;Node38</title>
<path fill="none" stroke="#191970" d="M143.5596,-318.6847C158.7073,-321.472 175.0604,-325.916 189,-333 208.3498,-342.8334 205.9302,-355.634 225,-366 240.5968,-374.4782 259.3151,-380.0619 275.821,-383.6896"/>
<polygon fill="#191970" stroke="#191970" points="143.7437,-315.1683 133.3098,-317.0075 142.6133,-322.0764 143.7437,-315.1683"/>
</g>
<!-- Node37&#45;&gt;Node42 -->
<g id="edge32" class="edge">
<title>Node37&#45;&gt;Node42</title>
<path fill="none" stroke="#191970" d="M143.0363,-313.9022C159.3354,-311.5471 176.5231,-306.2032 189,-295 228.5343,-259.5014 192.3307,-222.9026 225,-181 242.5133,-158.5369 271.5486,-142.7421 292.4204,-133.5643"/>
<polygon fill="#191970" stroke="#191970" points="142.6065,-310.4283 133.0526,-315.0079 143.3771,-317.3857 142.6065,-310.4283"/>
</g>
<!-- Node37&#45;&gt;Node46 -->
<g id="edge34" class="edge">
<title>Node37&#45;&gt;Node46</title>
<path fill="none" stroke="#191970" d="M143.0689,-324.0118C220.6371,-338.8509 368.0268,-361.9802 410,-333 447.1561,-307.3457 415.4765,-271.2721 446,-238 458.2434,-224.6541 476.1746,-215.5047 491.8601,-209.5341"/>
<polygon fill="#191970" stroke="#191970" points="143.5428,-320.5385 133.059,-322.0687 142.2088,-327.4103 143.5428,-320.5385"/>
</g>
<!-- Node37&#45;&gt;Node40 -->
<g id="edge31" class="edge">
<title>Node37&#45;&gt;Node40</title>
<path fill="none" stroke="#191970" d="M143.4437,-314C178.123,-314 224.7384,-314 260.9997,-314"/>
<polygon fill="#191970" stroke="#191970" points="143.0891,-310.5001 133.0891,-314 143.089,-317.5001 143.0891,-310.5001"/>
</g>
<!-- Node37&#45;&gt;Node47 -->
<g id="edge35" class="edge">
<title>Node37&#45;&gt;Node47</title>
<path fill="none" stroke="#191970" d="M143.0323,-305.7299C177.8885,-299.7903 224.9588,-291.7694 261.4234,-285.5557"/>
<polygon fill="#191970" stroke="#191970" points="142.359,-302.2941 133.0891,-307.4243 143.5349,-309.1946 142.359,-302.2941"/>
</g>
<!-- Node37&#45;&gt;Node49 -->
<g id="edge36" class="edge">
<title>Node37&#45;&gt;Node49</title>
<path fill="none" stroke="#191970" d="M143.4777,-312.7328C159.3335,-310.2103 176.1291,-305.0598 189,-295 218.448,-271.9836 195.6001,-242.0778 225,-219 229.9004,-215.1533 235.3841,-212.03 241.17,-209.5001"/>
<polygon fill="#191970" stroke="#191970" points="142.7222,-309.3007 133.2445,-314.0361 143.6066,-316.2446 142.7222,-309.3007"/>
</g>
<!-- Node36 -->
<g id="node30" class="node">
<title>Node36</title>
<g id="a_node30"><a xlink:href="classLvdsDacLane.html" target="_top" xlink:title="LvdsDacLane">
<polygon fill="#ffffff" stroke="#000000" points="54,-.5 54,-19.5 135,-19.5 135,-.5 54,-.5"/>
<text text-anchor="middle" x="94.5" y="-7.5" font-family="Helvetica,sans-Serif" font-size="10.00" fill="#000000">LvdsDacLane</text>
</a>
</g>
</g>
<!-- Node35 -->
<g id="node31" class="node">
<title>Node35</title>
<g id="a_node31"><a xlink:href="classLvdsDacSigGen.html" target="_top" xlink:title="LvdsDacSigGen">
<polygon fill="#ffffff" stroke="#000000" points="271.5,-38.5 271.5,-57.5 363.5,-57.5 363.5,-38.5 271.5,-38.5"/>
<text text-anchor="middle" x="317.5" y="-45.5" font-family="Helvetica,sans-Serif" font-size="10.00" fill="#000000">LvdsDacSigGen</text>
</a>
</g>
</g>
<!-- Node36&#45;&gt;Node35 -->
<g id="edge38" class="edge">
<title>Node36&#45;&gt;Node35</title>
<path fill="none" stroke="#191970" d="M145.4549,-18.6829C183.3599,-25.1421 234.6632,-33.8843 271.363,-40.1381"/>
<polygon fill="#191970" stroke="#191970" points="145.5882,-15.1552 135.1423,-16.9256 144.4123,-22.0558 145.5882,-15.1552"/>
</g>
<!-- Node35&#45;&gt;Node1 -->
<g id="edge39" class="edge">
<title>Node35&#45;&gt;Node1</title>
<path fill="none" stroke="#191970" d="M373.6838,-51.0578C386.625,-53.9504 399.6209,-58.8528 410,-67 439.3999,-90.0778 416.99,-119.4339 446,-143 450.7081,-146.8246 456.0634,-149.9004 461.7157,-152.3711"/>
<polygon fill="#191970" stroke="#191970" points="374.3154,-47.6153 363.8424,-49.2172 373.0284,-54.496 374.3154,-47.6153"/>
</g>
<!-- Node34 -->
<g id="node32" class="node">
<title>Node34</title>
<g id="a_node32"><a xlink:href="classLvdsDacRegItf.html" target="_top" xlink:title="LvdsDacRegItf">
<polygon fill="#ffffff" stroke="#000000" points="51.5,-38.5 51.5,-57.5 137.5,-57.5 137.5,-38.5 51.5,-38.5"/>
<text text-anchor="middle" x="94.5" y="-45.5" font-family="Helvetica,sans-Serif" font-size="10.00" fill="#000000">LvdsDacRegItf</text>
</a>
</g>
</g>
<!-- Node34&#45;&gt;Node35 -->
<g id="edge40" class="edge">
<title>Node34&#45;&gt;Node35</title>
<path fill="none" stroke="#191970" d="M148.0219,-48C185.6241,-48 235.4143,-48 271.2863,-48"/>
<polygon fill="#191970" stroke="#191970" points="147.7611,-44.5001 137.7611,-48 147.761,-51.5001 147.7611,-44.5001"/>
</g>
<!-- Node0 -->
<g id="node33" class="node">
<title>Node0</title>
<g id="a_node33"><a xlink:href="classOutputTapDelay.html" target="_top" xlink:title="OutputTapDelay">
<polygon fill="#ffffff" stroke="#000000" points="270,-.5 270,-19.5 365,-19.5 365,-.5 270,-.5"/>
<text text-anchor="middle" x="317.5" y="-7.5" font-family="Helvetica,sans-Serif" font-size="10.00" fill="#000000">OutputTapDelay</text>
</a>
</g>
</g>
<!-- Node0&#45;&gt;Node1 -->
<g id="edge41" class="edge">
<title>Node0&#45;&gt;Node1</title>
<path fill="none" stroke="#191970" d="M375.2611,-12.2607C387.9201,-15.2095 400.3928,-20.3372 410,-29 449.4601,-64.5811 407.1403,-106.7642 446,-143 450.1268,-146.8481 454.8927,-149.9576 459.9971,-152.4652"/>
<polygon fill="#191970" stroke="#191970" points="375.5972,-8.7622 365.12,-10.3371 374.2925,-15.6395 375.5972,-8.7622"/>
</g>
</g>
</svg>
