<?xml version="1.0" encoding="UTF-8" standalone="no"?>
<!DOCTYPE svg PUBLIC "-//W3C//DTD SVG 1.1//EN"
 "http://www.w3.org/Graphics/SVG/1.1/DTD/svg11.dtd">
<!-- Generated by graphviz version 2.40.1 (20161225.0304)
 -->
<!-- Title: Graphical Class Hierarchy Pages: 1 -->
<svg width="764pt" height="750pt"
 viewBox="0.00 0.00 764.00 750.00" xmlns="http://www.w3.org/2000/svg" xmlns:xlink="http://www.w3.org/1999/xlink">
<g id="graph0" class="graph" transform="scale(1 1) rotate(0) translate(4 746)">
<title>Graphical Class Hierarchy</title>
<polygon fill="#ffffff" stroke="transparent" points="-4,4 -4,-746 760,-746 760,4 -4,4"/>
<!-- Node119 -->
<g id="node1" class="node">
<title>Node119</title>
<g id="a_node1"><a xlink:href="classAmcCarrierBsi.html" target="_top" xlink:title="AmcCarrierBsi">
<polygon fill="#ffffff" stroke="#000000" points="359.5,-684.5 359.5,-703.5 445.5,-703.5 445.5,-684.5 359.5,-684.5"/>
<text text-anchor="middle" x="402.5" y="-691.5" font-family="Helvetica,sans-Serif" font-size="10.00" fill="#000000">AmcCarrierBsi</text>
</a>
</g>
</g>
<!-- Node110 -->
<g id="node2" class="node">
<title>Node110</title>
<g id="a_node2"><a xlink:href="classAmcCarrierSysReg.html" target="_top" xlink:title="AmcCarrierSysReg">
<polygon fill="#ffffff" stroke="#000000" points="495,-589.5 495,-608.5 602,-608.5 602,-589.5 495,-589.5"/>
<text text-anchor="middle" x="548.5" y="-596.5" font-family="Helvetica,sans-Serif" font-size="10.00" fill="#000000">AmcCarrierSysReg</text>
</a>
</g>
</g>
<!-- Node119&#45;&gt;Node110 -->
<g id="edge1" class="edge">
<title>Node119&#45;&gt;Node110</title>
<path fill="none" stroke="#191970" d="M447.2808,-680.7298C451.3334,-678.9985 455.3,-677.0901 459,-675 492.1897,-656.2514 524.6471,-624.3409 539.7326,-608.5012"/>
<polygon fill="#191970" stroke="#191970" points="445.7957,-677.5522 437.7538,-684.45 448.3419,-684.0727 445.7957,-677.5522"/>
</g>
<!-- Node3 -->
<g id="node3" class="node">
<title>Node3</title>
<g id="a_node3"><a xlink:href="classAmcCarrierCoreAdv.html" target="_top" xlink:title="AmcCarrierCoreAdv">
<polygon fill="#ffffff" stroke="#000000" points="640.5,-532.5 640.5,-551.5 753.5,-551.5 753.5,-532.5 640.5,-532.5"/>
<text text-anchor="middle" x="697" y="-539.5" font-family="Helvetica,sans-Serif" font-size="10.00" fill="#000000">AmcCarrierCoreAdv</text>
</a>
</g>
</g>
<!-- Node110&#45;&gt;Node3 -->
<g id="edge2" class="edge">
<title>Node110&#45;&gt;Node3</title>
<path fill="none" stroke="#191970" d="M587.2165,-586.0004C592.2342,-584.0971 597.2698,-582.0753 602,-580 618.5674,-572.7315 621.3265,-568.0216 638,-561 646.2316,-557.5335 655.3274,-554.3175 663.8618,-551.5541"/>
<polygon fill="#191970" stroke="#191970" points="585.8593,-582.7701 577.6743,-589.4973 588.268,-589.3426 585.8593,-582.7701"/>
</g>
<!-- Node4 -->
<g id="node4" class="node">
<title>Node4</title>
<g id="a_node4"><a xlink:href="classAmcCarrierCoreBase.html" target="_top" xlink:title="AmcCarrierCoreBase">
<polygon fill="#ffffff" stroke="#000000" points="638,-570.5 638,-589.5 756,-589.5 756,-570.5 638,-570.5"/>
<text text-anchor="middle" x="697" y="-577.5" font-family="Helvetica,sans-Serif" font-size="10.00" fill="#000000">AmcCarrierCoreBase</text>
</a>
</g>
</g>
<!-- Node110&#45;&gt;Node4 -->
<g id="edge3" class="edge">
<title>Node110&#45;&gt;Node4</title>
<path fill="none" stroke="#191970" d="M612.0714,-590.8663C620.6556,-589.768 629.4343,-588.6448 637.9355,-587.5571"/>
<polygon fill="#191970" stroke="#191970" points="611.5868,-587.3997 602.1119,-592.1406 612.4753,-594.3431 611.5868,-587.3997"/>
</g>
<!-- Node5 -->
<g id="node5" class="node">
<title>Node5</title>
<g id="a_node5"><a xlink:href="classAmcCarrierCoreFsbl.html" target="_top" xlink:title="AmcCarrierCoreFsbl">
<polygon fill="#ffffff" stroke="#000000" points="640.5,-494.5 640.5,-513.5 753.5,-513.5 753.5,-494.5 640.5,-494.5"/>
<text text-anchor="middle" x="697" y="-501.5" font-family="Helvetica,sans-Serif" font-size="10.00" fill="#000000">AmcCarrierCoreFsbl</text>
</a>
</g>
</g>
<!-- Node110&#45;&gt;Node5 -->
<g id="edge4" class="edge">
<title>Node110&#45;&gt;Node5</title>
<path fill="none" stroke="#191970" d="M594.6905,-584.9672C597.2654,-583.4685 599.7264,-581.8175 602,-580 625.4042,-561.2911 614.3206,-541.3593 638,-523 643.0176,-519.1097 648.8562,-516.0034 654.8709,-513.5264"/>
<polygon fill="#191970" stroke="#191970" points="592.9921,-581.9031 585.604,-589.4969 596.1152,-588.1678 592.9921,-581.9031"/>
</g>
<!-- Node118 -->
<g id="node6" class="node">
<title>Node118</title>
<g id="a_node6"><a xlink:href="classAmcCarrierDdrMem.html" target="_top" xlink:title="AmcCarrierDdrMem">
<polygon fill="#ffffff" stroke="#000000" points="346,-532.5 346,-551.5 459,-551.5 459,-532.5 346,-532.5"/>
<text text-anchor="middle" x="402.5" y="-539.5" font-family="Helvetica,sans-Serif" font-size="10.00" fill="#000000">AmcCarrierDdrMem</text>
</a>
</g>
</g>
<!-- Node69 -->
<g id="node7" class="node">
<title>Node69</title>
<g id="a_node7"><a xlink:href="classAmcCarrierCore.html" target="_top" xlink:title="AmcCarrierCore">
<polygon fill="#ffffff" stroke="#000000" points="501.5,-551.5 501.5,-570.5 595.5,-570.5 595.5,-551.5 501.5,-551.5"/>
<text text-anchor="middle" x="548.5" y="-558.5" font-family="Helvetica,sans-Serif" font-size="10.00" fill="#000000">AmcCarrierCore</text>
</a>
</g>
</g>
<!-- Node118&#45;&gt;Node69 -->
<g id="edge5" class="edge">
<title>Node118&#45;&gt;Node69</title>
<path fill="none" stroke="#191970" d="M469.6021,-550.7325C480.3662,-552.1333 491.3024,-553.5565 501.4664,-554.8792"/>
<polygon fill="#191970" stroke="#191970" points="469.7336,-547.2201 459.3655,-549.4003 468.8302,-554.1616 469.7336,-547.2201"/>
</g>
<!-- Node70 -->
<g id="node8" class="node">
<title>Node70</title>
<g id="a_node8"><a xlink:href="classAmcCarrierFsbl.html" target="_top" xlink:title="AmcCarrierFsbl">
<polygon fill="#ffffff" stroke="#000000" points="503,-494.5 503,-513.5 594,-513.5 594,-494.5 503,-494.5"/>
<text text-anchor="middle" x="548.5" y="-501.5" font-family="Helvetica,sans-Serif" font-size="10.00" fill="#000000">AmcCarrierFsbl</text>
</a>
</g>
</g>
<!-- Node118&#45;&gt;Node70 -->
<g id="edge8" class="edge">
<title>Node118&#45;&gt;Node70</title>
<path fill="none" stroke="#191970" d="M449.036,-529.8879C469.3696,-524.5956 492.8713,-518.4787 511.923,-513.5201"/>
<polygon fill="#191970" stroke="#191970" points="448.1379,-526.5049 439.342,-532.411 449.9012,-533.2793 448.1379,-526.5049"/>
</g>
<!-- Node69&#45;&gt;Node3 -->
<g id="edge6" class="edge">
<title>Node69&#45;&gt;Node3</title>
<path fill="none" stroke="#191970" d="M606.0782,-553.6331C617.368,-552.1886 629.2,-550.6747 640.4556,-549.2346"/>
<polygon fill="#191970" stroke="#191970" points="605.3695,-550.1951 595.8946,-554.936 606.258,-557.1385 605.3695,-550.1951"/>
</g>
<!-- Node69&#45;&gt;Node4 -->
<g id="edge7" class="edge">
<title>Node69&#45;&gt;Node4</title>
<path fill="none" stroke="#191970" d="M606.1072,-568.3706C616.5052,-569.701 627.3623,-571.0901 637.8046,-572.4262"/>
<polygon fill="#191970" stroke="#191970" points="606.258,-564.8615 595.8946,-567.064 605.3695,-571.8049 606.258,-564.8615"/>
</g>
<!-- Node70&#45;&gt;Node5 -->
<g id="edge9" class="edge">
<title>Node70&#45;&gt;Node5</title>
<path fill="none" stroke="#191970" d="M604.4049,-504C616.1703,-504 628.5914,-504 640.3827,-504"/>
<polygon fill="#191970" stroke="#191970" points="604.2666,-500.5001 594.2666,-504 604.2666,-507.5001 604.2666,-500.5001"/>
</g>
<!-- Node117 -->
<g id="node9" class="node">
<title>Node117</title>
<g id="a_node9"><a xlink:href="classAmcCarrierEthFsbl.html" target="_top" xlink:title="AmcCarrierEthFsbl">
<polygon fill="#ffffff" stroke="#000000" points="349,-418.5 349,-437.5 456,-437.5 456,-418.5 349,-418.5"/>
<text text-anchor="middle" x="402.5" y="-425.5" font-family="Helvetica,sans-Serif" font-size="10.00" fill="#000000">AmcCarrierEthFsbl</text>
</a>
</g>
</g>
<!-- Node117&#45;&gt;Node70 -->
<g id="edge10" class="edge">
<title>Node117&#45;&gt;Node70</title>
<path fill="none" stroke="#191970" d="M436.084,-441.4518C443.7011,-444.7268 451.6958,-448.3446 459,-452 485.8374,-465.4309 515.7474,-483.4674 533.3004,-494.3851"/>
<polygon fill="#191970" stroke="#191970" points="437.2927,-438.1632 426.718,-437.5097 434.5771,-444.615 437.2927,-438.1632"/>
</g>
<!-- Node115 -->
<g id="node10" class="node">
<title>Node115</title>
<g id="a_node10"><a xlink:href="classAmcCarrierIbufGt.html" target="_top" xlink:title="AmcCarrierIbufGt">
<polygon fill="#ffffff" stroke="#000000" points="183.5,-475.5 183.5,-494.5 284.5,-494.5 284.5,-475.5 183.5,-475.5"/>
<text text-anchor="middle" x="234" y="-482.5" font-family="Helvetica,sans-Serif" font-size="10.00" fill="#000000">AmcCarrierIbufGt</text>
</a>
</g>
</g>
<!-- Node115&#45;&gt;Node69 -->
<g id="edge11" class="edge">
<title>Node115&#45;&gt;Node69</title>
<path fill="none" stroke="#191970" d="M282.4639,-498.1088C292.1168,-501.991 301.7957,-506.8897 310,-513 331.3869,-528.9283 322.1486,-549.0743 346,-561 398.5127,-587.2563 468.6871,-579.2564 511.1333,-570.5204"/>
<polygon fill="#191970" stroke="#191970" points="283.4684,-494.7486 272.8753,-494.5581 281.0376,-501.313 283.4684,-494.7486"/>
</g>
<!-- Node115&#45;&gt;Node70 -->
<g id="edge12" class="edge">
<title>Node115&#45;&gt;Node70</title>
<path fill="none" stroke="#191970" d="M294.9083,-481.5696C340.278,-479.846 403.6762,-479.1924 459,-485 476.6934,-486.8574 496.0359,-490.7263 512.198,-494.4911"/>
<polygon fill="#191970" stroke="#191970" points="294.4953,-478.0835 284.6467,-481.9893 294.7814,-485.0776 294.4953,-478.0835"/>
</g>
<!-- Node116 -->
<g id="node11" class="node">
<title>Node116</title>
<g id="a_node11"><a xlink:href="classAmcCarrierTiming.html" target="_top" xlink:title="AmcCarrierTiming">
<polygon fill="#ffffff" stroke="#000000" points="350,-494.5 350,-513.5 455,-513.5 455,-494.5 350,-494.5"/>
<text text-anchor="middle" x="402.5" y="-501.5" font-family="Helvetica,sans-Serif" font-size="10.00" fill="#000000">AmcCarrierTiming</text>
</a>
</g>
</g>
<!-- Node115&#45;&gt;Node116 -->
<g id="edge13" class="edge">
<title>Node115&#45;&gt;Node116</title>
<path fill="none" stroke="#191970" d="M294.6993,-491.8444C312.7751,-493.8827 332.4236,-496.0982 349.9345,-498.0727"/>
<polygon fill="#191970" stroke="#191970" points="294.8848,-488.3432 284.5556,-490.7006 294.1004,-495.2992 294.8848,-488.3432"/>
</g>
<!-- Node83 -->
<g id="node12" class="node">
<title>Node83</title>
<g id="a_node12"><a xlink:href="classAppTopJesd.html" target="_top" xlink:title="AppTopJesd">
<polygon fill="#ffffff" stroke="#000000" points="366.5,-304.5 366.5,-323.5 438.5,-323.5 438.5,-304.5 366.5,-304.5"/>
<text text-anchor="middle" x="402.5" y="-311.5" font-family="Helvetica,sans-Serif" font-size="10.00" fill="#000000">AppTopJesd</text>
</a>
</g>
</g>
<!-- Node115&#45;&gt;Node83 -->
<g id="edge16" class="edge">
<title>Node115&#45;&gt;Node83</title>
<path fill="none" stroke="#191970" d="M245.4619,-466.7229C268.4313,-430.591 320.1077,-351.8819 346,-333 352.0203,-328.6097 359.1235,-325.186 366.2241,-322.5325"/>
<polygon fill="#191970" stroke="#191970" points="242.4148,-464.9931 240.0308,-475.3163 248.3321,-468.733 242.4148,-464.9931"/>
</g>
<!-- Node116&#45;&gt;Node69 -->
<g id="edge14" class="edge">
<title>Node116&#45;&gt;Node69</title>
<path fill="none" stroke="#191970" d="M441.8428,-516.7954C447.6224,-518.8009 453.484,-520.9051 459,-523 482.6714,-531.9901 509.3303,-543.4912 527.3487,-551.4742"/>
<polygon fill="#191970" stroke="#191970" points="442.8636,-513.4457 432.2691,-513.5326 440.6054,-520.0714 442.8636,-513.4457"/>
</g>
<!-- Node116&#45;&gt;Node70 -->
<g id="edge15" class="edge">
<title>Node116&#45;&gt;Node70</title>
<path fill="none" stroke="#191970" d="M465.5519,-504C478.0137,-504 490.8696,-504 502.6302,-504"/>
<polygon fill="#191970" stroke="#191970" points="465.2094,-500.5001 455.2094,-504 465.2093,-507.5001 465.2094,-500.5001"/>
</g>
<!-- Node56 -->
<g id="node13" class="node">
<title>Node56</title>
<g id="a_node13"><a xlink:href="classAppTop.html" target="_top" xlink:title="AppTop">
<polygon fill="#ffffff" stroke="#000000" points="522.5,-152.5 522.5,-171.5 574.5,-171.5 574.5,-152.5 522.5,-152.5"/>
<text text-anchor="middle" x="548.5" y="-159.5" font-family="Helvetica,sans-Serif" font-size="10.00" fill="#000000">AppTop</text>
</a>
</g>
</g>
<!-- Node83&#45;&gt;Node56 -->
<g id="edge17" class="edge">
<title>Node83&#45;&gt;Node56</title>
<path fill="none" stroke="#191970" d="M447.8616,-303.2546C451.9595,-301.0063 455.7728,-298.2876 459,-295 496.2211,-257.083 458.0996,-219.2292 495,-181 502.256,-173.4827 512.6756,-168.9332 522.3949,-166.1825"/>
<polygon fill="#191970" stroke="#191970" points="446.2228,-300.1544 438.5528,-307.4633 449.1067,-306.5327 446.2228,-300.1544"/>
</g>
<!-- Node111 -->
<g id="node14" class="node">
<title>Node111</title>
<g id="a_node14"><a xlink:href="classAmcCarrierRssiObFifo.html" target="_top" xlink:title="AmcCarrierRssiObFifo">
<polygon fill="#ffffff" stroke="#000000" points="0,-693.5 0,-712.5 122,-712.5 122,-693.5 0,-693.5"/>
<text text-anchor="middle" x="61" y="-700.5" font-family="Helvetica,sans-Serif" font-size="10.00" fill="#000000">AmcCarrierRssiObFifo</text>
</a>
</g>
</g>
<!-- Node112 -->
<g id="node15" class="node">
<title>Node112</title>
<g id="a_node15"><a xlink:href="classAmcCarrierRssi.html" target="_top" xlink:title="AmcCarrierRssi">
<polygon fill="#ffffff" stroke="#000000" points="188,-674.5 188,-693.5 280,-693.5 280,-674.5 188,-674.5"/>
<text text-anchor="middle" x="234" y="-681.5" font-family="Helvetica,sans-Serif" font-size="10.00" fill="#000000">AmcCarrierRssi</text>
</a>
</g>
</g>
<!-- Node111&#45;&gt;Node112 -->
<g id="edge18" class="edge">
<title>Node111&#45;&gt;Node112</title>
<path fill="none" stroke="#191970" d="M132.471,-695.1506C151.2145,-693.0921 170.9292,-690.9268 187.948,-689.0577"/>
<polygon fill="#191970" stroke="#191970" points="132.0385,-691.6769 122.4804,-696.2478 132.8028,-698.6351 132.0385,-691.6769"/>
</g>
<!-- Node114 -->
<g id="node17" class="node">
<title>Node114</title>
<g id="a_node17"><a xlink:href="classAmcCarrierRssiInterleave.html" target="_top" xlink:title="AmcCarrierRssiInterleave">
<polygon fill="#ffffff" stroke="#000000" points="163.5,-712.5 163.5,-731.5 304.5,-731.5 304.5,-712.5 163.5,-712.5"/>
<text text-anchor="middle" x="234" y="-719.5" font-family="Helvetica,sans-Serif" font-size="10.00" fill="#000000">AmcCarrierRssiInterleave</text>
</a>
</g>
</g>
<!-- Node111&#45;&gt;Node114 -->
<g id="edge21" class="edge">
<title>Node111&#45;&gt;Node114</title>
<path fill="none" stroke="#191970" d="M132.5247,-710.8553C142.6853,-711.9712 153.1303,-713.1184 163.2756,-714.2326"/>
<polygon fill="#191970" stroke="#191970" points="132.8028,-707.3649 122.4804,-709.7522 132.0385,-714.3231 132.8028,-707.3649"/>
</g>
<!-- Node113 -->
<g id="node16" class="node">
<title>Node113</title>
<g id="a_node16"><a xlink:href="classAmcCarrierEth.html" target="_top" xlink:title="AmcCarrierEth">
<polygon fill="#ffffff" stroke="#000000" points="359,-646.5 359,-665.5 446,-665.5 446,-646.5 359,-646.5"/>
<text text-anchor="middle" x="402.5" y="-653.5" font-family="Helvetica,sans-Serif" font-size="10.00" fill="#000000">AmcCarrierEth</text>
</a>
</g>
</g>
<!-- Node112&#45;&gt;Node113 -->
<g id="edge19" class="edge">
<title>Node112&#45;&gt;Node113</title>
<path fill="none" stroke="#191970" d="M290.0911,-674.6792C312.4767,-670.9594 337.8593,-666.7415 358.8331,-663.2562"/>
<polygon fill="#191970" stroke="#191970" points="289.3343,-671.2569 280.0434,-676.3489 290.4819,-678.1622 289.3343,-671.2569"/>
</g>
<!-- Node113&#45;&gt;Node69 -->
<g id="edge20" class="edge">
<title>Node113&#45;&gt;Node69</title>
<path fill="none" stroke="#191970" d="M451.6637,-641.9119C454.2435,-640.4306 456.7113,-638.7982 459,-637 482.5609,-618.4889 471.5958,-598.7089 495,-580 499.8504,-576.1227 505.5535,-573.0031 511.396,-570.5031"/>
<polygon fill="#191970" stroke="#191970" points="449.9882,-638.8354 442.5577,-646.3878 453.0761,-645.1176 449.9882,-638.8354"/>
</g>
<!-- Node114&#45;&gt;Node113 -->
<g id="edge22" class="edge">
<title>Node114&#45;&gt;Node113</title>
<path fill="none" stroke="#191970" d="M294.5665,-709.3319C299.8902,-707.4819 305.1085,-705.381 310,-703 328.2252,-694.1284 328.1413,-684.5882 346,-675 352.8383,-671.3286 360.5193,-668.1776 367.9622,-665.5572"/>
<polygon fill="#191970" stroke="#191970" points="293.3886,-706.0337 284.918,-712.3976 295.5084,-712.705 293.3886,-706.0337"/>
</g>
<!-- Node109 -->
<g id="node18" class="node">
<title>Node109</title>
<g id="a_node18"><a xlink:href="classAmcCarrierSysMon.html" target="_top" xlink:title="AmcCarrierSysMon">
<polygon fill="#ffffff" stroke="#000000" points="348,-722.5 348,-741.5 457,-741.5 457,-722.5 348,-722.5"/>
<text text-anchor="middle" x="402.5" y="-729.5" font-family="Helvetica,sans-Serif" font-size="10.00" fill="#000000">AmcCarrierSysMon</text>
</a>
</g>
</g>
<!-- Node109&#45;&gt;Node110 -->
<g id="edge23" class="edge">
<title>Node109&#45;&gt;Node110</title>
<path fill="none" stroke="#191970" d="M450.3587,-718.2038C453.3831,-716.6396 456.2948,-714.9101 459,-713 500.1095,-683.9726 531.6119,-630.7204 543.427,-608.8116"/>
<polygon fill="#191970" stroke="#191970" points="448.7123,-715.107 441.0418,-722.4155 451.5958,-721.4855 448.7123,-715.107"/>
</g>
<!-- Node92 -->
<g id="node19" class="node">
<title>Node92</title>
<g id="a_node19"><a xlink:href="classAppMpsClk.html" target="_top" xlink:title="AppMpsClk">
<polygon fill="#ffffff" stroke="#000000" points="367,-380.5 367,-399.5 438,-399.5 438,-380.5 367,-380.5"/>
<text text-anchor="middle" x="402.5" y="-387.5" font-family="Helvetica,sans-Serif" font-size="10.00" fill="#000000">AppMpsClk</text>
</a>
</g>
</g>
<!-- Node2 -->
<g id="node20" class="node">
<title>Node2</title>
<g id="a_node20"><a xlink:href="classAppMps.html" target="_top" xlink:title="AppMps">
<polygon fill="#ffffff" stroke="#000000" points="521,-418.5 521,-437.5 576,-437.5 576,-418.5 521,-418.5"/>
<text text-anchor="middle" x="548.5" y="-425.5" font-family="Helvetica,sans-Serif" font-size="10.00" fill="#000000">AppMps</text>
</a>
</g>
</g>
<!-- Node92&#45;&gt;Node2 -->
<g id="edge24" class="edge">
<title>Node92&#45;&gt;Node2</title>
<path fill="none" stroke="#191970" d="M448.1285,-401.8759C471.9957,-408.0879 500.4276,-415.488 520.9273,-420.8235"/>
<polygon fill="#191970" stroke="#191970" points="448.7748,-398.4276 438.2156,-399.2958 447.0116,-405.2019 448.7748,-398.4276"/>
</g>
<!-- Node2&#45;&gt;Node3 -->
<g id="edge25" class="edge">
<title>Node2&#45;&gt;Node3</title>
<path fill="none" stroke="#191970" d="M564.5506,-445.0899C590.1545,-472.3445 637.4415,-522.6472 638,-523 644.0047,-526.7929 650.8348,-529.893 657.6656,-532.4054"/>
<polygon fill="#191970" stroke="#191970" points="567.0655,-442.6551 557.6679,-437.7627 561.9634,-447.4477 567.0655,-442.6551"/>
</g>
<!-- Node2&#45;&gt;Node4 -->
<g id="edge26" class="edge">
<title>Node2&#45;&gt;Node4</title>
<path fill="none" stroke="#191970" d="M566.9047,-444.7512C578.011,-455.5096 591.9156,-470.198 602,-485 623.0438,-515.8884 609.9004,-536.3555 638,-561 642.4497,-564.9026 647.7107,-568.0052 653.2291,-570.4716"/>
<polygon fill="#191970" stroke="#191970" points="569.0792,-441.9905 559.4068,-437.6665 564.2716,-447.0785 569.0792,-441.9905"/>
</g>
<!-- Node2&#45;&gt;Node5 -->
<g id="edge27" class="edge">
<title>Node2&#45;&gt;Node5</title>
<path fill="none" stroke="#191970" d="M576.3564,-442.2565C606.1755,-457.5174 652.652,-481.3034 678.3451,-494.4527"/>
<polygon fill="#191970" stroke="#191970" points="577.8041,-439.0657 567.3076,-437.6255 574.615,-445.297 577.8041,-439.0657"/>
</g>
<!-- Node91 -->
<g id="node21" class="node">
<title>Node91</title>
<g id="a_node21"><a xlink:href="classAppMpsRegAppCh.html" target="_top" xlink:title="AppMpsRegAppCh">
<polygon fill="#ffffff" stroke="#000000" points="9,-247.5 9,-266.5 113,-266.5 113,-247.5 9,-247.5"/>
<text text-anchor="middle" x="61" y="-254.5" font-family="Helvetica,sans-Serif" font-size="10.00" fill="#000000">AppMpsRegAppCh</text>
</a>
</g>
</g>
<!-- Node90 -->
<g id="node22" class="node">
<title>Node90</title>
<g id="a_node22"><a xlink:href="classAppMpsReg.html" target="_top" xlink:title="AppMpsReg">
<polygon fill="#ffffff" stroke="#000000" points="197.5,-228.5 197.5,-247.5 270.5,-247.5 270.5,-228.5 197.5,-228.5"/>
<text text-anchor="middle" x="234" y="-235.5" font-family="Helvetica,sans-Serif" font-size="10.00" fill="#000000">AppMpsReg</text>
</a>
</g>
</g>
<!-- Node91&#45;&gt;Node90 -->
<g id="edge28" class="edge">
<title>Node91&#45;&gt;Node90</title>
<path fill="none" stroke="#191970" d="M123.4494,-250.1414C148.2756,-247.4148 175.9733,-244.3729 197.4342,-242.0159"/>
<polygon fill="#191970" stroke="#191970" points="122.9333,-246.6769 113.3752,-251.2478 123.6975,-253.6351 122.9333,-246.6769"/>
</g>
<!-- Node1 -->
<g id="node23" class="node">
<title>Node1</title>
<g id="a_node23"><a xlink:href="classAppMpsEncoder.html" target="_top" xlink:title="AppMpsEncoder">
<polygon fill="#ffffff" stroke="#000000" points="355.5,-266.5 355.5,-285.5 449.5,-285.5 449.5,-266.5 355.5,-266.5"/>
<text text-anchor="middle" x="402.5" y="-273.5" font-family="Helvetica,sans-Serif" font-size="10.00" fill="#000000">AppMpsEncoder</text>
</a>
</g>
</g>
<!-- Node90&#45;&gt;Node1 -->
<g id="edge29" class="edge">
<title>Node90&#45;&gt;Node1</title>
<path fill="none" stroke="#191970" d="M280.5409,-248.4959C305.5265,-254.1306 336.0871,-261.0226 360.3658,-266.4979"/>
<polygon fill="#191970" stroke="#191970" points="281.087,-245.0312 270.562,-246.2454 279.547,-251.8597 281.087,-245.0312"/>
</g>
<!-- Node1&#45;&gt;Node2 -->
<g id="edge30" class="edge">
<title>Node1&#45;&gt;Node2</title>
<path fill="none" stroke="#191970" d="M451.2078,-289.9469C453.9455,-291.4669 456.5684,-293.146 459,-295 504.3707,-329.5939 534.4693,-394.0698 544.6611,-418.3865"/>
<polygon fill="#191970" stroke="#191970" points="452.6975,-286.7797 442.1669,-285.6152 449.6729,-293.0926 452.6975,-286.7797"/>
</g>
<!-- Node89 -->
<g id="node24" class="node">
<title>Node89</title>
<g id="a_node24"><a xlink:href="classAppMpsRegBase.html" target="_top" xlink:title="AppMpsRegBase">
<polygon fill="#ffffff" stroke="#000000" points="12.5,-209.5 12.5,-228.5 109.5,-228.5 109.5,-209.5 12.5,-209.5"/>
<text text-anchor="middle" x="61" y="-216.5" font-family="Helvetica,sans-Serif" font-size="10.00" fill="#000000">AppMpsRegBase</text>
</a>
</g>
</g>
<!-- Node89&#45;&gt;Node90 -->
<g id="edge31" class="edge">
<title>Node89&#45;&gt;Node90</title>
<path fill="none" stroke="#191970" d="M119.6609,-225.4425C145.3462,-228.2635 174.6973,-231.487 197.2301,-233.9617"/>
<polygon fill="#191970" stroke="#191970" points="119.9729,-221.9558 109.6505,-224.3431 119.2086,-228.914 119.9729,-221.9558"/>
</g>
<!-- Node88 -->
<g id="node25" class="node">
<title>Node88</title>
<g id="a_node25"><a xlink:href="classAppMpsSalt.html" target="_top" xlink:title="AppMpsSalt">
<polygon fill="#ffffff" stroke="#000000" points="365.5,-342.5 365.5,-361.5 439.5,-361.5 439.5,-342.5 365.5,-342.5"/>
<text text-anchor="middle" x="402.5" y="-349.5" font-family="Helvetica,sans-Serif" font-size="10.00" fill="#000000">AppMpsSalt</text>
</a>
</g>
</g>
<!-- Node88&#45;&gt;Node2 -->
<g id="edge32" class="edge">
<title>Node88&#45;&gt;Node2</title>
<path fill="none" stroke="#191970" d="M445.06,-365.0629C449.83,-366.8937 454.5646,-368.8807 459,-371 487.9219,-384.8195 518.8749,-406.1857 535.7367,-418.4555"/>
<polygon fill="#191970" stroke="#191970" points="445.8976,-361.644 435.3034,-361.532 443.5155,-368.2262 445.8976,-361.644"/>
</g>
<!-- Node87 -->
<g id="node26" class="node">
<title>Node87</title>
<g id="a_node26"><a xlink:href="classAppMpsSelect.html" target="_top" xlink:title="AppMpsSelect">
<polygon fill="#ffffff" stroke="#000000" points="191.5,-304.5 191.5,-323.5 276.5,-323.5 276.5,-304.5 191.5,-304.5"/>
<text text-anchor="middle" x="234" y="-311.5" font-family="Helvetica,sans-Serif" font-size="10.00" fill="#000000">AppMpsSelect</text>
</a>
</g>
</g>
<!-- Node87&#45;&gt;Node1 -->
<g id="edge33" class="edge">
<title>Node87&#45;&gt;Node1</title>
<path fill="none" stroke="#191970" d="M286.4313,-302.1757C310.1868,-296.8184 337.8986,-290.5689 360.2861,-285.5201"/>
<polygon fill="#191970" stroke="#191970" points="285.5047,-298.7967 276.5197,-304.411 287.0447,-305.6252 285.5047,-298.7967"/>
</g>
<!-- Node82 -->
<g id="node27" class="node">
<title>Node82</title>
<g id="a_node27"><a xlink:href="classAppTopJesd204b.html" target="_top" xlink:title="AppTopJesd204b">
<polygon fill="#ffffff" stroke="#000000" points="186,-342.5 186,-361.5 282,-361.5 282,-342.5 186,-342.5"/>
<text text-anchor="middle" x="234" y="-349.5" font-family="Helvetica,sans-Serif" font-size="10.00" fill="#000000">AppTopJesd204b</text>
</a>
</g>
</g>
<!-- Node82&#45;&gt;Node83 -->
<g id="edge34" class="edge">
<title>Node82&#45;&gt;Node83</title>
<path fill="none" stroke="#191970" d="M286.5572,-340.1473C312.4537,-334.3072 343.0269,-327.4123 366.2749,-322.1695"/>
<polygon fill="#191970" stroke="#191970" points="285.5047,-336.7967 276.5197,-342.411 287.0447,-343.6252 285.5047,-336.7967"/>
</g>
<!-- Node74 -->
<g id="node28" class="node">
<title>Node74</title>
<g id="a_node28"><a xlink:href="classBldAxiStream.html" target="_top" xlink:title="BldAxiStream">
<polygon fill="#ffffff" stroke="#000000" points="192.5,-598.5 192.5,-617.5 275.5,-617.5 275.5,-598.5 192.5,-598.5"/>
<text text-anchor="middle" x="234" y="-605.5" font-family="Helvetica,sans-Serif" font-size="10.00" fill="#000000">BldAxiStream</text>
</a>
</g>
</g>
<!-- Node68 -->
<g id="node29" class="node">
<title>Node68</title>
<g id="a_node29"><a xlink:href="classAmcCarrierBsa.html" target="_top" xlink:title="AmcCarrierBsa">
<polygon fill="#ffffff" stroke="#000000" points="358,-608.5 358,-627.5 447,-627.5 447,-608.5 358,-608.5"/>
<text text-anchor="middle" x="402.5" y="-615.5" font-family="Helvetica,sans-Serif" font-size="10.00" fill="#000000">AmcCarrierBsa</text>
</a>
</g>
</g>
<!-- Node74&#45;&gt;Node68 -->
<g id="edge35" class="edge">
<title>Node74&#45;&gt;Node68</title>
<path fill="none" stroke="#191970" d="M285.9197,-611.0813C308.914,-612.4459 335.696,-614.0354 357.7875,-615.3464"/>
<polygon fill="#191970" stroke="#191970" points="285.8415,-607.5706 275.6517,-610.4719 285.4267,-614.5583 285.8415,-607.5706"/>
</g>
<!-- Node68&#45;&gt;Node69 -->
<g id="edge36" class="edge">
<title>Node68&#45;&gt;Node69</title>
<path fill="none" stroke="#191970" d="M434.1481,-604.5537C451.9441,-597.1049 474.6154,-587.8015 495,-580 503.3769,-576.794 512.5585,-573.4665 520.9142,-570.5089"/>
<polygon fill="#191970" stroke="#191970" points="432.6707,-601.378 424.8085,-608.4797 435.3834,-607.831 432.6707,-601.378"/>
</g>
<!-- Node68&#45;&gt;Node70 -->
<g id="edge37" class="edge">
<title>Node68&#45;&gt;Node70</title>
<path fill="none" stroke="#191970" d="M421.3785,-601.8317C439.8537,-586.1668 468.9392,-561.9223 495,-542 508.0334,-532.0365 523.332,-521.2585 534.2235,-513.7348"/>
<polygon fill="#191970" stroke="#191970" points="419.0325,-599.2324 413.6856,-608.3791 423.5694,-604.5632 419.0325,-599.2324"/>
</g>
<!-- Node72 -->
<g id="node30" class="node">
<title>Node72</title>
<g id="a_node30"><a xlink:href="classBsaAccumulator.html" target="_top" xlink:title="BsaAccumulator">
<polygon fill="#ffffff" stroke="#000000" points="13,-560.5 13,-579.5 109,-579.5 109,-560.5 13,-560.5"/>
<text text-anchor="middle" x="61" y="-567.5" font-family="Helvetica,sans-Serif" font-size="10.00" fill="#000000">BsaAccumulator</text>
</a>
</g>
</g>
<!-- Node73 -->
<g id="node31" class="node">
<title>Node73</title>
<g id="a_node31"><a xlink:href="classBsaBufferControl.html" target="_top" xlink:title="BsaBufferControl">
<polygon fill="#ffffff" stroke="#000000" points="184.5,-560.5 184.5,-579.5 283.5,-579.5 283.5,-560.5 184.5,-560.5"/>
<text text-anchor="middle" x="234" y="-567.5" font-family="Helvetica,sans-Serif" font-size="10.00" fill="#000000">BsaBufferControl</text>
</a>
</g>
</g>
<!-- Node72&#45;&gt;Node73 -->
<g id="edge38" class="edge">
<title>Node72&#45;&gt;Node73</title>
<path fill="none" stroke="#191970" d="M119.3124,-570C140.3942,-570 163.984,-570 184.2622,-570"/>
<polygon fill="#191970" stroke="#191970" points="119.1902,-566.5001 109.1901,-570 119.1901,-573.5001 119.1902,-566.5001"/>
</g>
<!-- Node73&#45;&gt;Node68 -->
<g id="edge39" class="edge">
<title>Node73&#45;&gt;Node68</title>
<path fill="none" stroke="#191970" d="M283.7153,-581.982C292.4964,-584.2256 301.5344,-586.617 310,-589 331.3842,-595.0195 355.3088,-602.5416 373.4687,-608.4163"/>
<polygon fill="#191970" stroke="#191970" points="284.507,-578.5721 273.9546,-579.5202 282.795,-585.3596 284.507,-578.5721"/>
</g>
<!-- Node71 -->
<g id="node32" class="node">
<title>Node71</title>
<g id="a_node32"><a xlink:href="classBsaAxiInterconnectWrapper.html" target="_top" xlink:title="BsaAxiInterconnectWrapper">
<polygon fill="#ffffff" stroke="#000000" points="158,-522.5 158,-541.5 310,-541.5 310,-522.5 158,-522.5"/>
<text text-anchor="middle" x="234" y="-529.5" font-family="Helvetica,sans-Serif" font-size="10.00" fill="#000000">BsaAxiInterconnectWrapper</text>
</a>
</g>
</g>
<!-- Node71&#45;&gt;Node68 -->
<g id="edge40" class="edge">
<title>Node71&#45;&gt;Node68</title>
<path fill="none" stroke="#191970" d="M299.2069,-545.2959C302.9656,-546.9762 306.5958,-548.8687 310,-551 331.1257,-564.2264 325.9744,-579.1606 346,-594 354.0489,-599.9644 363.8045,-604.7845 372.9284,-608.4965"/>
<polygon fill="#191970" stroke="#191970" points="300.2418,-541.9421 289.6546,-541.5408 297.6808,-548.4568 300.2418,-541.9421"/>
</g>
<!-- Node67 -->
<g id="node33" class="node">
<title>Node67</title>
<g id="a_node33"><a xlink:href="classBsaWaveformEngine.html" target="_top" xlink:title="BsaWaveformEngine">
<polygon fill="#ffffff" stroke="#000000" points="175,-636.5 175,-655.5 293,-655.5 293,-636.5 175,-636.5"/>
<text text-anchor="middle" x="234" y="-643.5" font-family="Helvetica,sans-Serif" font-size="10.00" fill="#000000">BsaWaveformEngine</text>
</a>
</g>
</g>
<!-- Node67&#45;&gt;Node68 -->
<g id="edge41" class="edge">
<title>Node67&#45;&gt;Node68</title>
<path fill="none" stroke="#191970" d="M301.5674,-634.7722C320.4607,-631.6326 340.5201,-628.2993 357.7366,-625.4384"/>
<polygon fill="#191970" stroke="#191970" points="300.8078,-631.3503 291.5169,-636.4423 301.9554,-638.2556 300.8078,-631.3503"/>
</g>
<!-- Node66 -->
<g id="node34" class="node">
<title>Node66</title>
<g id="a_node34"><a xlink:href="classDacSigGenLane.html" target="_top" xlink:title="DacSigGenLane">
<polygon fill="#ffffff" stroke="#000000" points="187.5,-152.5 187.5,-171.5 280.5,-171.5 280.5,-152.5 187.5,-152.5"/>
<text text-anchor="middle" x="234" y="-159.5" font-family="Helvetica,sans-Serif" font-size="10.00" fill="#000000">DacSigGenLane</text>
</a>
</g>
</g>
<!-- Node64 -->
<g id="node35" class="node">
<title>Node64</title>
<g id="a_node35"><a xlink:href="classDacSigGen.html" target="_top" xlink:title="DacSigGen">
<polygon fill="#ffffff" stroke="#000000" points="367.5,-171.5 367.5,-190.5 437.5,-190.5 437.5,-171.5 367.5,-171.5"/>
<text text-anchor="middle" x="402.5" y="-178.5" font-family="Helvetica,sans-Serif" font-size="10.00" fill="#000000">DacSigGen</text>
</a>
</g>
</g>
<!-- Node66&#45;&gt;Node64 -->
<g id="edge42" class="edge">
<title>Node66&#45;&gt;Node64</title>
<path fill="none" stroke="#191970" d="M291.1393,-168.443C316.3906,-171.2903 345.2787,-174.5477 367.3035,-177.0313"/>
<polygon fill="#191970" stroke="#191970" points="291.2659,-164.9352 280.9366,-167.2926 290.4815,-171.8911 291.2659,-164.9352"/>
</g>
<!-- Node64&#45;&gt;Node56 -->
<g id="edge43" class="edge">
<title>Node64&#45;&gt;Node56</title>
<path fill="none" stroke="#191970" d="M447.9621,-175.0837C472.3518,-171.9097 501.5472,-168.1103 522.1767,-165.4256"/>
<polygon fill="#191970" stroke="#191970" points="447.3072,-171.6393 437.8425,-176.4006 448.2106,-178.5808 447.3072,-171.6393"/>
</g>
<!-- Node65 -->
<g id="node36" class="node">
<title>Node65</title>
<g id="a_node36"><a xlink:href="classDacSigGenTb.html" target="_top" xlink:title="DacSigGenTb">
<polygon fill="#ffffff" stroke="#000000" points="507.5,-190.5 507.5,-209.5 589.5,-209.5 589.5,-190.5 507.5,-190.5"/>
<text text-anchor="middle" x="548.5" y="-197.5" font-family="Helvetica,sans-Serif" font-size="10.00" fill="#000000">DacSigGenTb</text>
</a>
</g>
</g>
<!-- Node64&#45;&gt;Node65 -->
<g id="edge44" class="edge">
<title>Node64&#45;&gt;Node65</title>
<path fill="none" stroke="#191970" d="M447.767,-186.8909C466.7718,-189.3641 488.7222,-192.2207 507.272,-194.6347"/>
<polygon fill="#191970" stroke="#191970" points="448.2106,-183.4192 437.8425,-185.5994 447.3072,-190.3607 448.2106,-183.4192"/>
</g>
<!-- Node63 -->
<g id="node37" class="node">
<title>Node63</title>
<g id="a_node37"><a xlink:href="classDacSigGenReg.html" target="_top" xlink:title="DacSigGenReg">
<polygon fill="#ffffff" stroke="#000000" points="190,-190.5 190,-209.5 278,-209.5 278,-190.5 190,-190.5"/>
<text text-anchor="middle" x="234" y="-197.5" font-family="Helvetica,sans-Serif" font-size="10.00" fill="#000000">DacSigGenReg</text>
</a>
</g>
</g>
<!-- Node63&#45;&gt;Node64 -->
<g id="edge45" class="edge">
<title>Node63&#45;&gt;Node64</title>
<path fill="none" stroke="#191970" d="M288.325,-193.8743C314.2147,-190.955 344.4375,-187.5471 367.2827,-184.9711"/>
<polygon fill="#191970" stroke="#191970" points="287.8162,-190.4094 278.2714,-195.008 288.6006,-197.3653 287.8162,-190.4094"/>
</g>
<!-- Node61 -->
<g id="node38" class="node">
<title>Node61</title>
<g id="a_node38"><a xlink:href="classDaqDecimator.html" target="_top" xlink:title="DaqDecimator">
<polygon fill="#ffffff" stroke="#000000" points="17.5,-.5 17.5,-19.5 104.5,-19.5 104.5,-.5 17.5,-.5"/>
<text text-anchor="middle" x="61" y="-7.5" font-family="Helvetica,sans-Serif" font-size="10.00" fill="#000000">DaqDecimator</text>
</a>
</g>
</g>
<!-- Node62 -->
<g id="node39" class="node">
<title>Node62</title>
<g id="a_node39"><a xlink:href="classDaqDecimatorTb.html" target="_top" xlink:title="DaqDecimatorTb">
<polygon fill="#ffffff" stroke="#000000" points="184.5,-.5 184.5,-19.5 283.5,-19.5 283.5,-.5 184.5,-.5"/>
<text text-anchor="middle" x="234" y="-7.5" font-family="Helvetica,sans-Serif" font-size="10.00" fill="#000000">DaqDecimatorTb</text>
</a>
</g>
</g>
<!-- Node61&#45;&gt;Node62 -->
<g id="edge46" class="edge">
<title>Node61&#45;&gt;Node62</title>
<path fill="none" stroke="#191970" d="M114.8986,-10C137.0472,-10 162.5363,-10 184.2368,-10"/>
<polygon fill="#191970" stroke="#191970" points="114.6552,-6.5001 104.6552,-10 114.6552,-13.5001 114.6552,-6.5001"/>
</g>
<!-- Node59 -->
<g id="node40" class="node">
<title>Node59</title>
<g id="a_node40"><a xlink:href="classDaqLane.html" target="_top" xlink:title="DaqLane">
<polygon fill="#ffffff" stroke="#000000" points="204.5,-38.5 204.5,-57.5 263.5,-57.5 263.5,-38.5 204.5,-38.5"/>
<text text-anchor="middle" x="234" y="-45.5" font-family="Helvetica,sans-Serif" font-size="10.00" fill="#000000">DaqLane</text>
</a>
</g>
</g>
<!-- Node61&#45;&gt;Node59 -->
<g id="edge47" class="edge">
<title>Node61&#45;&gt;Node59</title>
<path fill="none" stroke="#191970" d="M114.808,-21.8191C144.2899,-28.2949 179.7126,-36.0756 204.2418,-41.4635"/>
<polygon fill="#191970" stroke="#191970" points="115.1733,-18.316 104.6552,-19.589 113.6715,-25.153 115.1733,-18.316"/>
</g>
<!-- Node55 -->
<g id="node41" class="node">
<title>Node55</title>
<g id="a_node41"><a xlink:href="classDaqMuxV2.html" target="_top" xlink:title="DaqMuxV2">
<polygon fill="#ffffff" stroke="#000000" points="368,-95.5 368,-114.5 437,-114.5 437,-95.5 368,-95.5"/>
<text text-anchor="middle" x="402.5" y="-102.5" font-family="Helvetica,sans-Serif" font-size="10.00" fill="#000000">DaqMuxV2</text>
</a>
</g>
</g>
<!-- Node59&#45;&gt;Node55 -->
<g id="edge48" class="edge">
<title>Node59&#45;&gt;Node55</title>
<path fill="none" stroke="#191970" d="M273.5626,-56.7398C285.3846,-59.6595 298.3073,-63.1591 310,-67 335.0712,-75.2356 362.9802,-87.0879 381.5186,-95.3587"/>
<polygon fill="#191970" stroke="#191970" points="274.0561,-53.259 263.5155,-54.3294 272.423,-60.0658 274.0561,-53.259"/>
</g>
<!-- Node55&#45;&gt;Node56 -->
<g id="edge49" class="edge">
<title>Node55&#45;&gt;Node56</title>
<path fill="none" stroke="#191970" d="M436.3181,-118.203C463.1258,-128.669 499.9518,-143.0462 523.9832,-152.4284"/>
<polygon fill="#191970" stroke="#191970" points="437.5253,-114.917 426.9371,-114.5405 434.9795,-121.4377 437.5253,-114.917"/>
</g>
<!-- Node57 -->
<g id="node42" class="node">
<title>Node57</title>
<g id="a_node42"><a xlink:href="classDaqMuxV2Tb.html" target="_top" xlink:title="DaqMuxV2Tb">
<polygon fill="#ffffff" stroke="#000000" points="508,-95.5 508,-114.5 589,-114.5 589,-95.5 508,-95.5"/>
<text text-anchor="middle" x="548.5" y="-102.5" font-family="Helvetica,sans-Serif" font-size="10.00" fill="#000000">DaqMuxV2Tb</text>
</a>
</g>
</g>
<!-- Node55&#45;&gt;Node57 -->
<g id="edge50" class="edge">
<title>Node55&#45;&gt;Node57</title>
<path fill="none" stroke="#191970" d="M447.195,-105C466.5561,-105 489.0603,-105 507.9339,-105"/>
<polygon fill="#191970" stroke="#191970" points="447.1,-101.5001 437.1,-105 447.0999,-108.5001 447.1,-101.5001"/>
</g>
<!-- Node60 -->
<g id="node43" class="node">
<title>Node60</title>
<g id="a_node43"><a xlink:href="classDaqRegItf.html" target="_top" xlink:title="DaqRegItf">
<polygon fill="#ffffff" stroke="#000000" points="201.5,-114.5 201.5,-133.5 266.5,-133.5 266.5,-114.5 201.5,-114.5"/>
<text text-anchor="middle" x="234" y="-121.5" font-family="Helvetica,sans-Serif" font-size="10.00" fill="#000000">DaqRegItf</text>
</a>
</g>
</g>
<!-- Node60&#45;&gt;Node55 -->
<g id="edge51" class="edge">
<title>Node60&#45;&gt;Node55</title>
<path fill="none" stroke="#191970" d="M276.883,-119.1645C305.1154,-115.9811 341.5911,-111.8681 367.9567,-108.8951"/>
<polygon fill="#191970" stroke="#191970" points="276.4333,-115.693 266.8885,-120.2915 277.2177,-122.6489 276.4333,-115.693"/>
</g>
<!-- Node58 -->
<g id="node44" class="node">
<title>Node58</title>
<g id="a_node44"><a xlink:href="classDaqTestSig.html" target="_top" xlink:title="DaqTestSig">
<polygon fill="#ffffff" stroke="#000000" points="25.5,-38.5 25.5,-57.5 96.5,-57.5 96.5,-38.5 25.5,-38.5"/>
<text text-anchor="middle" x="61" y="-45.5" font-family="Helvetica,sans-Serif" font-size="10.00" fill="#000000">DaqTestSig</text>
</a>
</g>
</g>
<!-- Node58&#45;&gt;Node59 -->
<g id="edge52" class="edge">
<title>Node58&#45;&gt;Node59</title>
<path fill="none" stroke="#191970" d="M106.9295,-48C137.7617,-48 177.4848,-48 204.2433,-48"/>
<polygon fill="#191970" stroke="#191970" points="106.8457,-44.5001 96.8457,-48 106.8457,-51.5001 106.8457,-44.5001"/>
</g>
<!-- Node54 -->
<g id="node45" class="node">
<title>Node54</title>
<g id="a_node45"><a xlink:href="classDaqTrigger.html" target="_top" xlink:title="DaqTrigger">
<polygon fill="#ffffff" stroke="#000000" points="199.5,-76.5 199.5,-95.5 268.5,-95.5 268.5,-76.5 199.5,-76.5"/>
<text text-anchor="middle" x="234" y="-83.5" font-family="Helvetica,sans-Serif" font-size="10.00" fill="#000000">DaqTrigger</text>
</a>
</g>
</g>
<!-- Node54&#45;&gt;Node55 -->
<g id="edge53" class="edge">
<title>Node54&#45;&gt;Node55</title>
<path fill="none" stroke="#191970" d="M278.7897,-91.0505C306.6682,-94.194 341.9934,-98.1773 367.7519,-101.0818"/>
<polygon fill="#191970" stroke="#191970" points="278.8343,-87.5334 268.5051,-89.8908 278.0499,-94.4893 278.8343,-87.5334"/>
</g>
<!-- Node0 -->
<g id="node46" class="node">
<title>Node0</title>
<g id="a_node46"><a xlink:href="classMpsMsgCore.html" target="_top" xlink:title="MpsMsgCore">
<polygon fill="#ffffff" stroke="#000000" points="195,-266.5 195,-285.5 273,-285.5 273,-266.5 195,-266.5"/>
<text text-anchor="middle" x="234" y="-273.5" font-family="Helvetica,sans-Serif" font-size="10.00" fill="#000000">MpsMsgCore</text>
</a>
</g>
</g>
<!-- Node0&#45;&gt;Node1 -->
<g id="edge54" class="edge">
<title>Node0&#45;&gt;Node1</title>
<path fill="none" stroke="#191970" d="M283.1946,-276C305.907,-276 332.7562,-276 355.2272,-276"/>
<polygon fill="#191970" stroke="#191970" points="283.0808,-272.5001 273.0808,-276 283.0808,-279.5001 283.0808,-272.5001"/>
</g>
</g>
</svg>
