<?xml version="1.0" encoding="UTF-8" standalone="no"?>
<!DOCTYPE svg PUBLIC "-//W3C//DTD SVG 1.1//EN"
 "http://www.w3.org/Graphics/SVG/1.1/DTD/svg11.dtd">
<!-- Generated by graphviz version 2.40.1 (20161225.0304)
 -->
<!-- Title: Graphical Class Hierarchy Pages: 1 -->
<svg width="514pt" height="104pt"
 viewBox="0.00 0.00 514.00 104.00" xmlns="http://www.w3.org/2000/svg" xmlns:xlink="http://www.w3.org/1999/xlink">
<g id="graph0" class="graph" transform="scale(1 1) rotate(0) translate(4 100)">
<title>Graphical Class Hierarchy</title>
<polygon fill="#ffffff" stroke="transparent" points="-4,4 -4,-100 510,-100 510,4 -4,4"/>
<!-- Node27 -->
<g id="node1" class="node">
<title>Node27</title>
<g id="a_node1"><a xlink:href="classRtmCryoDacLut.html" target="_top" xlink:title="RtmCryoDacLut">
<polygon fill="#ffffff" stroke="#000000" points="152,-76.5 152,-95.5 245,-95.5 245,-76.5 152,-76.5"/>
<text text-anchor="middle" x="198.5" y="-83.5" font-family="Helvetica,sans-Serif" font-size="10.00" fill="#000000">RtmCryoDacLut</text>
</a>
</g>
</g>
<!-- Node1 -->
<g id="node2" class="node">
<title>Node1</title>
<g id="a_node2"><a xlink:href="classRtmCryoDet.html" target="_top" xlink:title="RtmCryoDet">
<polygon fill="#ffffff" stroke="#000000" points="288,-38.5 288,-57.5 365,-57.5 365,-38.5 288,-38.5"/>
<text text-anchor="middle" x="326.5" y="-45.5" font-family="Helvetica,sans-Serif" font-size="10.00" fill="#000000">RtmCryoDet</text>
</a>
</g>
</g>
<!-- Node27&#45;&gt;Node1 -->
<g id="edge1" class="edge">
<title>Node27&#45;&gt;Node1</title>
<path fill="none" stroke="#191970" d="M240.7242,-73.4647C258.1371,-68.2952 277.9917,-62.4009 294.2105,-57.5859"/>
<polygon fill="#191970" stroke="#191970" points="239.3902,-70.2097 230.7998,-76.411 241.3824,-76.9202 239.3902,-70.2097"/>
</g>
<!-- Node2 -->
<g id="node3" class="node">
<title>Node2</title>
<g id="a_node3"><a xlink:href="classRtmCryoDacLutTb.html" target="_top" xlink:title="RtmCryoDacLutTb">
<polygon fill="#ffffff" stroke="#000000" points="401,-38.5 401,-57.5 506,-57.5 506,-38.5 401,-38.5"/>
<text text-anchor="middle" x="453.5" y="-45.5" font-family="Helvetica,sans-Serif" font-size="10.00" fill="#000000">RtmCryoDacLutTb</text>
</a>
</g>
</g>
<!-- Node1&#45;&gt;Node2 -->
<g id="edge2" class="edge">
<title>Node1&#45;&gt;Node2</title>
<path fill="none" stroke="#191970" d="M375.3,-48C383.6848,-48 392.4313,-48 400.9103,-48"/>
<polygon fill="#191970" stroke="#191970" points="375.2943,-44.5001 365.2943,-48 375.2942,-51.5001 375.2943,-44.5001"/>
</g>
<!-- Node25 -->
<g id="node4" class="node">
<title>Node25</title>
<g id="a_node4"><a xlink:href="classRtmCryoDetClkDiv.html" target="_top" xlink:title="RtmCryoDetClkDiv">
<polygon fill="#ffffff" stroke="#000000" points="0,-38.5 0,-57.5 109,-57.5 109,-38.5 0,-38.5"/>
<text text-anchor="middle" x="54.5" y="-45.5" font-family="Helvetica,sans-Serif" font-size="10.00" fill="#000000">RtmCryoDetClkDiv</text>
</a>
</g>
</g>
<!-- Node26 -->
<g id="node5" class="node">
<title>Node26</title>
<g id="a_node5"><a xlink:href="classRtmCryoDetReg.html" target="_top" xlink:title="RtmCryoDetReg">
<polygon fill="#ffffff" stroke="#000000" points="151,-38.5 151,-57.5 246,-57.5 246,-38.5 151,-38.5"/>
<text text-anchor="middle" x="198.5" y="-45.5" font-family="Helvetica,sans-Serif" font-size="10.00" fill="#000000">RtmCryoDetReg</text>
</a>
</g>
</g>
<!-- Node25&#45;&gt;Node26 -->
<g id="edge3" class="edge">
<title>Node25&#45;&gt;Node26</title>
<path fill="none" stroke="#191970" d="M119.4075,-48C129.9941,-48 140.7872,-48 150.8594,-48"/>
<polygon fill="#191970" stroke="#191970" points="119.351,-44.5001 109.351,-48 119.351,-51.5001 119.351,-44.5001"/>
</g>
<!-- Node26&#45;&gt;Node1 -->
<g id="edge4" class="edge">
<title>Node26&#45;&gt;Node1</title>
<path fill="none" stroke="#191970" d="M256.3322,-48C267.0554,-48 278.0117,-48 287.9819,-48"/>
<polygon fill="#191970" stroke="#191970" points="256.1625,-44.5001 246.1625,-48 256.1624,-51.5001 256.1625,-44.5001"/>
</g>
<!-- Node0 -->
<g id="node6" class="node">
<title>Node0</title>
<g id="a_node6"><a xlink:href="classRtmCryoSpiMaster.html" target="_top" xlink:title="RtmCryoSpiMaster">
<polygon fill="#ffffff" stroke="#000000" points="145,-.5 145,-19.5 252,-19.5 252,-.5 145,-.5"/>
<text text-anchor="middle" x="198.5" y="-7.5" font-family="Helvetica,sans-Serif" font-size="10.00" fill="#000000">RtmCryoSpiMaster</text>
</a>
</g>
</g>
<!-- Node0&#45;&gt;Node1 -->
<g id="edge5" class="edge">
<title>Node0&#45;&gt;Node1</title>
<path fill="none" stroke="#191970" d="M240.7242,-22.5353C258.1371,-27.7048 277.9917,-33.5991 294.2105,-38.4141"/>
<polygon fill="#191970" stroke="#191970" points="241.3824,-19.0798 230.7998,-19.589 239.3902,-25.7903 241.3824,-19.0798"/>
</g>
</g>
</svg>
