<?xml version="1.0" encoding="UTF-8" standalone="no"?>
<!DOCTYPE svg PUBLIC "-//W3C//DTD SVG 1.1//EN"
 "http://www.w3.org/Graphics/SVG/1.1/DTD/svg11.dtd">
<!-- Generated by graphviz version 2.40.1 (20161225.0304)
 -->
<!-- Title: Graphical Class Hierarchy Pages: 1 -->
<svg width="179pt" height="66pt"
 viewBox="0.00 0.00 179.00 66.00" xmlns="http://www.w3.org/2000/svg" xmlns:xlink="http://www.w3.org/1999/xlink">
<g id="graph0" class="graph" transform="scale(1 1) rotate(0) translate(4 62)">
<title>Graphical Class Hierarchy</title>
<polygon fill="#ffffff" stroke="transparent" points="-4,4 -4,-62 175,-62 175,4 -4,4"/>
<!-- Node89 -->
<g id="node1" class="node">
<title>Node89</title>
<g id="a_node1"><a xlink:href="classAppMsgIb.html" target="_top" xlink:title="AppMsgIb">
<polygon fill="#ffffff" stroke="#000000" points="2,-38.5 2,-57.5 66,-57.5 66,-38.5 2,-38.5"/>
<text text-anchor="middle" x="34" y="-45.5" font-family="Helvetica,sans-Serif" font-size="10.00" fill="#000000">AppMsgIb</text>
</a>
</g>
</g>
<!-- Node1 -->
<g id="node2" class="node">
<title>Node1</title>
<g id="a_node2"><a xlink:href="classAppMsgTb.html" target="_top" xlink:title="AppMsgTb">
<polygon fill="#ffffff" stroke="#000000" points="104,-19.5 104,-38.5 171,-38.5 171,-19.5 104,-19.5"/>
<text text-anchor="middle" x="137.5" y="-26.5" font-family="Helvetica,sans-Serif" font-size="10.00" fill="#000000">AppMsgTb</text>
</a>
</g>
</g>
<!-- Node89&#45;&gt;Node1 -->
<g id="edge1" class="edge">
<title>Node89&#45;&gt;Node1</title>
<path fill="none" stroke="#191970" d="M76.0212,-40.286C85.3012,-38.5824 95.0141,-36.7993 103.9077,-35.1667"/>
<polygon fill="#191970" stroke="#191970" points="75.3844,-36.8443 66.1807,-42.0924 76.6483,-43.7292 75.3844,-36.8443"/>
</g>
<!-- Node0 -->
<g id="node3" class="node">
<title>Node0</title>
<g id="a_node3"><a xlink:href="classAppMsgOb.html" target="_top" xlink:title="AppMsgOb">
<polygon fill="#ffffff" stroke="#000000" points="0,-.5 0,-19.5 68,-19.5 68,-.5 0,-.5"/>
<text text-anchor="middle" x="34" y="-7.5" font-family="Helvetica,sans-Serif" font-size="10.00" fill="#000000">AppMsgOb</text>
</a>
</g>
</g>
<!-- Node0&#45;&gt;Node1 -->
<g id="edge2" class="edge">
<title>Node0&#45;&gt;Node1</title>
<path fill="none" stroke="#191970" d="M78.064,-18.089C86.6493,-19.6651 95.5232,-21.2941 103.7121,-22.7974"/>
<polygon fill="#191970" stroke="#191970" points="78.6442,-14.6372 68.1766,-16.274 77.3803,-21.5221 78.6442,-14.6372"/>
</g>
</g>
</svg>
