<?xml version="1.0" encoding="UTF-8" standalone="no"?>
<!DOCTYPE svg PUBLIC "-//W3C//DTD SVG 1.1//EN"
 "http://www.w3.org/Graphics/SVG/1.1/DTD/svg11.dtd">
<!-- Generated by graphviz version 2.40.1 (20161225.0304)
 -->
<!-- Title: Graphical Class Hierarchy Pages: 1 -->
<svg width="478pt" height="66pt"
 viewBox="0.00 0.00 478.00 66.00" xmlns="http://www.w3.org/2000/svg" xmlns:xlink="http://www.w3.org/1999/xlink">
<g id="graph0" class="graph" transform="scale(1 1) rotate(0) translate(4 62)">
<title>Graphical Class Hierarchy</title>
<polygon fill="#ffffff" stroke="transparent" points="-4,4 -4,-62 474,-62 474,4 -4,4"/>
<!-- Node81 -->
<g id="node1" class="node">
<title>Node81</title>
<g id="a_node1"><a xlink:href="classAxisBramFlashBufferRdFsm.html" target="_top" xlink:title="AxisBramFlashBufferRdFsm">
<polygon fill="#ffffff" stroke="#000000" points="0,-38.5 0,-57.5 152,-57.5 152,-38.5 0,-38.5"/>
<text text-anchor="middle" x="76" y="-45.5" font-family="Helvetica,sans-Serif" font-size="10.00" fill="#000000">AxisBramFlashBufferRdFsm</text>
</a>
</g>
</g>
<!-- Node1 -->
<g id="node2" class="node">
<title>Node1</title>
<g id="a_node2"><a xlink:href="classAxisBramFlashBuffer.html" target="_top" xlink:title="AxisBramFlashBuffer">
<polygon fill="#ffffff" stroke="#000000" points="188,-19.5 188,-38.5 307,-38.5 307,-19.5 188,-19.5"/>
<text text-anchor="middle" x="247.5" y="-26.5" font-family="Helvetica,sans-Serif" font-size="10.00" fill="#000000">AxisBramFlashBuffer</text>
</a>
</g>
</g>
<!-- Node81&#45;&gt;Node1 -->
<g id="edge1" class="edge">
<title>Node81&#45;&gt;Node1</title>
<path fill="none" stroke="#191970" d="M162.3742,-38.4308C171.0378,-37.471 179.6929,-36.5122 187.9858,-35.5934"/>
<polygon fill="#191970" stroke="#191970" points="161.7749,-34.9757 152.2211,-39.5557 162.5458,-41.9332 161.7749,-34.9757"/>
</g>
<!-- Node2 -->
<g id="node3" class="node">
<title>Node2</title>
<g id="a_node3"><a xlink:href="classAxisBramRingBufferTb.html" target="_top" xlink:title="AxisBramRingBufferTb">
<polygon fill="#ffffff" stroke="#000000" points="343,-19.5 343,-38.5 470,-38.5 470,-19.5 343,-19.5"/>
<text text-anchor="middle" x="406.5" y="-26.5" font-family="Helvetica,sans-Serif" font-size="10.00" fill="#000000">AxisBramRingBufferTb</text>
</a>
</g>
</g>
<!-- Node1&#45;&gt;Node2 -->
<g id="edge2" class="edge">
<title>Node1&#45;&gt;Node2</title>
<path fill="none" stroke="#191970" d="M317.3705,-29C325.8243,-29 334.4255,-29 342.7841,-29"/>
<polygon fill="#191970" stroke="#191970" points="317.1581,-25.5001 307.1581,-29 317.1581,-32.5001 317.1581,-25.5001"/>
</g>
<!-- Node0 -->
<g id="node4" class="node">
<title>Node0</title>
<g id="a_node4"><a xlink:href="classAxisBramFlashBufferWrFsm.html" target="_top" xlink:title="AxisBramFlashBufferWrFsm">
<polygon fill="#ffffff" stroke="#000000" points="0,-.5 0,-19.5 152,-19.5 152,-.5 0,-.5"/>
<text text-anchor="middle" x="76" y="-7.5" font-family="Helvetica,sans-Serif" font-size="10.00" fill="#000000">AxisBramFlashBufferWrFsm</text>
</a>
</g>
</g>
<!-- Node0&#45;&gt;Node1 -->
<g id="edge3" class="edge">
<title>Node0&#45;&gt;Node1</title>
<path fill="none" stroke="#191970" d="M162.3742,-19.5692C171.0378,-20.529 179.6929,-21.4878 187.9858,-22.4066"/>
<polygon fill="#191970" stroke="#191970" points="162.5458,-16.0668 152.2211,-18.4443 161.7749,-23.0243 162.5458,-16.0668"/>
</g>
</g>
</svg>
