<?xml version="1.0" encoding="UTF-8" standalone="no"?>
<!DOCTYPE svg PUBLIC "-//W3C//DTD SVG 1.1//EN"
 "http://www.w3.org/Graphics/SVG/1.1/DTD/svg11.dtd">
<!-- Generated by graphviz version 2.40.1 (20161225.0304)
 -->
<!-- Title: Graphical Class Hierarchy Pages: 1 -->
<svg width="442pt" height="180pt"
 viewBox="0.00 0.00 442.00 180.00" xmlns="http://www.w3.org/2000/svg" xmlns:xlink="http://www.w3.org/1999/xlink">
<g id="graph0" class="graph" transform="scale(1 1) rotate(0) translate(4 176)">
<title>Graphical Class Hierarchy</title>
<polygon fill="#ffffff" stroke="transparent" points="-4,4 -4,-176 438,-176 438,4 -4,4"/>
<!-- Node100 -->
<g id="node1" class="node">
<title>Node100</title>
<g id="a_node1"><a xlink:href="classAmcMpsSfpHsRepeater.html" target="_top" xlink:title="AmcMpsSfpHsRepeater">
<polygon fill="#ffffff" stroke="#000000" points="0,-152.5 0,-171.5 130,-171.5 130,-152.5 0,-152.5"/>
<text text-anchor="middle" x="65" y="-159.5" font-family="Helvetica,sans-Serif" font-size="10.00" fill="#000000">AmcMpsSfpHsRepeater</text>
</a>
</g>
</g>
<!-- Node1 -->
<g id="node2" class="node">
<title>Node1</title>
<g id="a_node2"><a xlink:href="classAmcMpsSfpCore.html" target="_top" xlink:title="AmcMpsSfpCore">
<polygon fill="#ffffff" stroke="#000000" points="174.5,-114.5 174.5,-133.5 270.5,-133.5 270.5,-114.5 174.5,-114.5"/>
<text text-anchor="middle" x="222.5" y="-121.5" font-family="Helvetica,sans-Serif" font-size="10.00" fill="#000000">AmcMpsSfpCore</text>
</a>
</g>
</g>
<!-- Node100&#45;&gt;Node1 -->
<g id="edge1" class="edge">
<title>Node100&#45;&gt;Node1</title>
<path fill="none" stroke="#191970" d="M114.6041,-150.032C136.6753,-144.7069 162.3027,-138.5238 183.0419,-133.5201"/>
<polygon fill="#191970" stroke="#191970" points="113.6441,-146.6631 104.7439,-152.411 115.2859,-153.4679 113.6441,-146.6631"/>
</g>
<!-- Node2 -->
<g id="node3" class="node">
<title>Node2</title>
<g id="a_node3"><a xlink:href="classAmcMpsSfpDualCore.html" target="_top" xlink:title="AmcMpsSfpDualCore">
<polygon fill="#ffffff" stroke="#000000" points="315,-114.5 315,-133.5 434,-133.5 434,-114.5 315,-114.5"/>
<text text-anchor="middle" x="374.5" y="-121.5" font-family="Helvetica,sans-Serif" font-size="10.00" fill="#000000">AmcMpsSfpDualCore</text>
</a>
</g>
</g>
<!-- Node1&#45;&gt;Node2 -->
<g id="edge2" class="edge">
<title>Node1&#45;&gt;Node2</title>
<path fill="none" stroke="#191970" d="M280.7154,-124C291.9375,-124 303.7076,-124 314.9708,-124"/>
<polygon fill="#191970" stroke="#191970" points="280.5938,-120.5001 270.5938,-124 280.5937,-127.5001 280.5938,-120.5001"/>
</g>
<!-- Node99 -->
<g id="node4" class="node">
<title>Node99</title>
<g id="a_node4"><a xlink:href="classAmcMpsSfpMon.html" target="_top" xlink:title="AmcMpsSfpMon">
<polygon fill="#ffffff" stroke="#000000" points="18,-114.5 18,-133.5 112,-133.5 112,-114.5 18,-114.5"/>
<text text-anchor="middle" x="65" y="-121.5" font-family="Helvetica,sans-Serif" font-size="10.00" fill="#000000">AmcMpsSfpMon</text>
</a>
</g>
</g>
<!-- Node99&#45;&gt;Node1 -->
<g id="edge3" class="edge">
<title>Node99&#45;&gt;Node1</title>
<path fill="none" stroke="#191970" d="M122.6402,-124C139.6645,-124 158.11,-124 174.461,-124"/>
<polygon fill="#191970" stroke="#191970" points="122.2552,-120.5001 112.2552,-124 122.2552,-127.5001 122.2552,-120.5001"/>
</g>
<!-- Node21 -->
<g id="node5" class="node">
<title>Node21</title>
<g id="a_node5"><a xlink:href="classRtmDigitalDebugDin.html" target="_top" xlink:title="RtmDigitalDebugDin">
<polygon fill="#ffffff" stroke="#000000" points="6.5,-38.5 6.5,-57.5 123.5,-57.5 123.5,-38.5 6.5,-38.5"/>
<text text-anchor="middle" x="65" y="-45.5" font-family="Helvetica,sans-Serif" font-size="10.00" fill="#000000">RtmDigitalDebugDin</text>
</a>
</g>
</g>
<!-- Node3 -->
<g id="node6" class="node">
<title>Node3</title>
<g id="a_node6"><a xlink:href="classRtmDigitalDebugV2.html" target="_top" xlink:title="RtmDigitalDebugV2">
<polygon fill="#ffffff" stroke="#000000" points="166,-38.5 166,-57.5 279,-57.5 279,-38.5 166,-38.5"/>
<text text-anchor="middle" x="222.5" y="-45.5" font-family="Helvetica,sans-Serif" font-size="10.00" fill="#000000">RtmDigitalDebugV2</text>
</a>
</g>
</g>
<!-- Node21&#45;&gt;Node3 -->
<g id="edge4" class="edge">
<title>Node21&#45;&gt;Node3</title>
<path fill="none" stroke="#191970" d="M133.8166,-48C144.5307,-48 155.494,-48 165.8962,-48"/>
<polygon fill="#191970" stroke="#191970" points="133.6472,-44.5001 123.6472,-48 133.6472,-51.5001 133.6472,-44.5001"/>
</g>
<!-- Node20 -->
<g id="node7" class="node">
<title>Node20</title>
<g id="a_node7"><a xlink:href="classRtmDigitalDebugDout.html" target="_top" xlink:title="RtmDigitalDebugDout">
<polygon fill="#ffffff" stroke="#000000" points="3,-.5 3,-19.5 127,-19.5 127,-.5 3,-.5"/>
<text text-anchor="middle" x="65" y="-7.5" font-family="Helvetica,sans-Serif" font-size="10.00" fill="#000000">RtmDigitalDebugDout</text>
</a>
</g>
</g>
<!-- Node20&#45;&gt;Node3 -->
<g id="edge5" class="edge">
<title>Node20&#45;&gt;Node3</title>
<path fill="none" stroke="#191970" d="M114.6041,-21.968C136.6753,-27.2931 162.3027,-33.4762 183.0419,-38.4799"/>
<polygon fill="#191970" stroke="#191970" points="115.2859,-18.5321 104.7439,-19.589 113.6441,-25.3369 115.2859,-18.5321"/>
</g>
<!-- Node0 -->
<g id="node8" class="node">
<title>Node0</title>
<g id="a_node8"><a xlink:href="classSi5317a.html" target="_top" xlink:title="Si5317a">
<polygon fill="#ffffff" stroke="#000000" points="37,-76.5 37,-95.5 93,-95.5 93,-76.5 37,-76.5"/>
<text text-anchor="middle" x="65" y="-83.5" font-family="Helvetica,sans-Serif" font-size="10.00" fill="#000000">Si5317a</text>
</a>
</g>
</g>
<!-- Node0&#45;&gt;Node1 -->
<g id="edge6" class="edge">
<title>Node0&#45;&gt;Node1</title>
<path fill="none" stroke="#191970" d="M103.0622,-95.1833C127.2779,-101.0258 158.5703,-108.5757 183.0498,-114.4819"/>
<polygon fill="#191970" stroke="#191970" points="103.6998,-91.7367 93.1578,-92.7936 102.058,-98.5415 103.6998,-91.7367"/>
</g>
<!-- Node0&#45;&gt;Node3 -->
<g id="edge7" class="edge">
<title>Node0&#45;&gt;Node3</title>
<path fill="none" stroke="#191970" d="M103.0622,-76.8167C127.2779,-70.9742 158.5703,-63.4243 183.0498,-57.5181"/>
<polygon fill="#191970" stroke="#191970" points="102.058,-73.4585 93.1578,-79.2064 103.6998,-80.2633 102.058,-73.4585"/>
</g>
</g>
</svg>
