<?xml version="1.0" encoding="UTF-8" standalone="no"?>
<!DOCTYPE svg PUBLIC "-//W3C//DTD SVG 1.1//EN"
 "http://www.w3.org/Graphics/SVG/1.1/DTD/svg11.dtd">
<!-- Generated by graphviz version 2.40.1 (20161225.0304)
 -->
<!-- Title: Graphical Class Hierarchy Pages: 1 -->
<svg width="539pt" height="142pt"
 viewBox="0.00 0.00 539.00 142.00" xmlns="http://www.w3.org/2000/svg" xmlns:xlink="http://www.w3.org/1999/xlink">
<g id="graph0" class="graph" transform="scale(1 1) rotate(0) translate(4 138)">
<title>Graphical Class Hierarchy</title>
<polygon fill="#ffffff" stroke="transparent" points="-4,4 -4,-138 535,-138 535,4 -4,4"/>
<!-- Node125 -->
<g id="node1" class="node">
<title>Node125</title>
<g id="a_node1"><a xlink:href="classAd9229Deserializer.html" target="_top" xlink:title="Ad9229Deserializer">
<polygon fill="#ffffff" stroke="#000000" points="0,-114.5 0,-133.5 112,-133.5 112,-114.5 0,-114.5"/>
<text text-anchor="middle" x="56" y="-121.5" font-family="Helvetica,sans-Serif" font-size="10.00" fill="#000000">Ad9229Deserializer</text>
</a>
</g>
</g>
<!-- Node126 -->
<g id="node2" class="node">
<title>Node126</title>
<g id="a_node2"><a xlink:href="classAd9229Core.html" target="_top" xlink:title="Ad9229Core">
<polygon fill="#ffffff" stroke="#000000" points="164,-114.5 164,-133.5 240,-133.5 240,-114.5 164,-114.5"/>
<text text-anchor="middle" x="202" y="-121.5" font-family="Helvetica,sans-Serif" font-size="10.00" fill="#000000">Ad9229Core</text>
</a>
</g>
</g>
<!-- Node125&#45;&gt;Node126 -->
<g id="edge1" class="edge">
<title>Node125&#45;&gt;Node126</title>
<path fill="none" stroke="#191970" d="M122.3312,-124C136.6049,-124 151.2216,-124 163.9738,-124"/>
<polygon fill="#191970" stroke="#191970" points="122.0299,-120.5001 112.0299,-124 122.0298,-127.5001 122.0299,-120.5001"/>
</g>
<!-- Node1 -->
<g id="node3" class="node">
<title>Node1</title>
<g id="a_node3"><a xlink:href="classRtmRfInterlockCore.html" target="_top" xlink:title="RtmRfInterlockCore">
<polygon fill="#ffffff" stroke="#000000" points="292,-57.5 292,-76.5 405,-76.5 405,-57.5 292,-57.5"/>
<text text-anchor="middle" x="348.5" y="-64.5" font-family="Helvetica,sans-Serif" font-size="10.00" fill="#000000">RtmRfInterlockCore</text>
</a>
</g>
</g>
<!-- Node126&#45;&gt;Node1 -->
<g id="edge2" class="edge">
<title>Node126&#45;&gt;Node1</title>
<path fill="none" stroke="#191970" d="M239.7829,-110.9845C245.2407,-109.0237 250.7761,-106.9905 256,-105 280.173,-95.7891 307.5424,-84.4274 326.1986,-76.5388"/>
<polygon fill="#191970" stroke="#191970" points="238.3805,-107.7683 230.1269,-114.4113 240.7217,-114.3652 238.3805,-107.7683"/>
</g>
<!-- Node2 -->
<g id="node4" class="node">
<title>Node2</title>
<g id="a_node4"><a xlink:href="classRtmRfInterlock.html" target="_top" xlink:title="RtmRfInterlock">
<polygon fill="#ffffff" stroke="#000000" points="441,-57.5 441,-76.5 531,-76.5 531,-57.5 441,-57.5"/>
<text text-anchor="middle" x="486" y="-64.5" font-family="Helvetica,sans-Serif" font-size="10.00" fill="#000000">RtmRfInterlock</text>
</a>
</g>
</g>
<!-- Node1&#45;&gt;Node2 -->
<g id="edge3" class="edge">
<title>Node1&#45;&gt;Node2</title>
<path fill="none" stroke="#191970" d="M415.2912,-67C423.9138,-67 432.5775,-67 440.7393,-67"/>
<polygon fill="#191970" stroke="#191970" points="415.2204,-63.5001 405.2204,-67 415.2203,-70.5001 415.2204,-63.5001"/>
</g>
<!-- Node77 -->
<g id="node5" class="node">
<title>Node77</title>
<g id="a_node5"><a xlink:href="classAxiSpiAd7682Reg.html" target="_top" xlink:title="AxiSpiAd7682Reg">
<polygon fill="#ffffff" stroke="#000000" points="5,-76.5 5,-95.5 107,-95.5 107,-76.5 5,-76.5"/>
<text text-anchor="middle" x="56" y="-83.5" font-family="Helvetica,sans-Serif" font-size="10.00" fill="#000000">AxiSpiAd7682Reg</text>
</a>
</g>
</g>
<!-- Node78 -->
<g id="node6" class="node">
<title>Node78</title>
<g id="a_node6"><a xlink:href="classAxiSpiAd7682.html" target="_top" xlink:title="AxiSpiAd7682">
<polygon fill="#ffffff" stroke="#000000" points="160,-76.5 160,-95.5 244,-95.5 244,-76.5 160,-76.5"/>
<text text-anchor="middle" x="202" y="-83.5" font-family="Helvetica,sans-Serif" font-size="10.00" fill="#000000">AxiSpiAd7682</text>
</a>
</g>
</g>
<!-- Node77&#45;&gt;Node78 -->
<g id="edge4" class="edge">
<title>Node77&#45;&gt;Node78</title>
<path fill="none" stroke="#191970" d="M117.3559,-86C131.6845,-86 146.6274,-86 159.8993,-86"/>
<polygon fill="#191970" stroke="#191970" points="117.0637,-82.5001 107.0637,-86 117.0637,-89.5001 117.0637,-82.5001"/>
</g>
<!-- Node78&#45;&gt;Node1 -->
<g id="edge5" class="edge">
<title>Node78&#45;&gt;Node1</title>
<path fill="none" stroke="#191970" d="M254.3411,-79.2117C266.48,-77.6374 279.455,-75.9546 291.7725,-74.3572"/>
<polygon fill="#191970" stroke="#191970" points="253.8406,-75.7472 244.3739,-80.5044 254.741,-82.6891 253.8406,-75.7472"/>
</g>
<!-- Node28 -->
<g id="node7" class="node">
<title>Node28</title>
<g id="a_node7"><a xlink:href="classRingBufferCtrl.html" target="_top" xlink:title="RingBufferCtrl">
<polygon fill="#ffffff" stroke="#000000" points="159.5,-38.5 159.5,-57.5 244.5,-57.5 244.5,-38.5 159.5,-38.5"/>
<text text-anchor="middle" x="202" y="-45.5" font-family="Helvetica,sans-Serif" font-size="10.00" fill="#000000">RingBufferCtrl</text>
</a>
</g>
</g>
<!-- Node28&#45;&gt;Node1 -->
<g id="edge6" class="edge">
<title>Node28&#45;&gt;Node1</title>
<path fill="none" stroke="#191970" d="M255.0272,-54.8773C266.9702,-56.4262 279.6914,-58.076 291.779,-59.6437"/>
<polygon fill="#191970" stroke="#191970" points="255.1348,-51.362 244.7677,-53.5467 254.2345,-58.3038 255.1348,-51.362"/>
</g>
<!-- Node0 -->
<g id="node8" class="node">
<title>Node0</title>
<g id="a_node8"><a xlink:href="classRtmRfInterlockReg.html" target="_top" xlink:title="RtmRfInterlockReg">
<polygon fill="#ffffff" stroke="#000000" points="148,-.5 148,-19.5 256,-19.5 256,-.5 148,-.5"/>
<text text-anchor="middle" x="202" y="-7.5" font-family="Helvetica,sans-Serif" font-size="10.00" fill="#000000">RtmRfInterlockReg</text>
</a>
</g>
</g>
<!-- Node0&#45;&gt;Node1 -->
<g id="edge7" class="edge">
<title>Node0&#45;&gt;Node1</title>
<path fill="none" stroke="#191970" d="M239.7829,-23.0155C245.2407,-24.9763 250.7761,-27.0095 256,-29 280.173,-38.2109 307.5424,-49.5726 326.1986,-57.4612"/>
<polygon fill="#191970" stroke="#191970" points="240.7217,-19.6348 230.1269,-19.5887 238.3805,-26.2317 240.7217,-19.6348"/>
</g>
</g>
</svg>
